<svg xmlns="http://www.w3.org/2000/svg" width="282" height="282" viewBox="0 0 282 282"><defs><style>.a{fill:#406875;}.b{isolation:isolate;}.c{fill:#fff;}</style></defs><g transform="translate(-300.019 -712.483)"><rect class="a" width="282" height="282" transform="translate(300.019 712.483)"/><g class="b"><g class="b"><path class="c" d="M337.1,847.483H333.62L330.2,835.6h3.331l1.963,9.453,2.142-9.453h2.809l2.179,9.434,1.962-9.434h3.206l-3.44,11.883h-3.367l-1.4-5.761-.54-2.9H339l-.523,2.9Z"/><path class="c" d="M358.084,841.487v6h-3.061v-5.149c0-1.278-.522-1.711-1.278-1.711-.883,0-1.621.612-1.621,2.125v4.735h-3.061v-12.82h3.061V840.1a2.93,2.93,0,0,1,2.845-1.8A2.9,2.9,0,0,1,358.084,841.487Z"/><path class="c" d="M365.715,847.483c-.99,2.864-2.178,3.871-4.465,3.871a4.08,4.08,0,0,1-2.449-.666l.648-2.052A2.055,2.055,0,0,0,361,849.1a1.26,1.26,0,0,0,1.4-.865l.216-.557-1.044-2.45-2.683-6.752h3.367l1.387,5.132.432,1.909.486-1.981,1.386-5.06h3.061Z"/><path class="c" d="M383.986,834.663v12.82h-2.755l-.126-1.711a3.079,3.079,0,0,1-2.917,1.891c-2.341,0-3.709-1.71-3.709-4.644,0-2.99,1.4-4.718,3.709-4.718a2.9,2.9,0,0,1,2.737,1.71v-5.348Zm-3.079,8.409.018.018v-.234l-.018.036c0-1.5-.594-2.34-1.657-2.34-1.044,0-1.692.738-1.692,2.43s.648,2.431,1.692,2.431C380.277,845.413,380.907,844.62,380.907,843.072Z"/><path class="c" d="M394.84,843.864H388.7a1.728,1.728,0,0,0,1.891,1.639,1.534,1.534,0,0,0,1.656-.99l2.485.792c-.523,1.566-2.053,2.358-4.141,2.358-3.151,0-4.862-1.71-4.862-4.681s1.693-4.681,4.7-4.681c2.934,0,4.5,1.71,4.5,4.555A5.668,5.668,0,0,1,394.84,843.864Zm-6.14-1.656h3.385c-.162-1.152-.72-1.765-1.674-1.765C389.438,840.443,388.862,840.983,388.7,842.208Z"/><path class="c" d="M405.37,838.48l-3.242,9h-3.654l-3.242-9h3.224l1.854,7.059,1.891-7.059Z"/><path class="c" d="M409.472,844.368c0,.793.2,1.116.828,1.116a2.591,2.591,0,0,0,.918-.161l-.2,1.89a3.947,3.947,0,0,1-1.873.45c-1.927,0-2.737-.846-2.737-2.845V834.663h3.061Z"/><path class="c" d="M417.9,847.483c-.99,2.864-2.178,3.871-4.465,3.871a4.082,4.082,0,0,1-2.449-.666l.648-2.052a2.055,2.055,0,0,0,1.549.468,1.26,1.26,0,0,0,1.4-.865l.216-.557-1.044-2.45-2.683-6.752h3.367l1.387,5.132.432,1.909.486-1.981,1.386-5.06h3.061Z"/><path class="c" d="M431.308,841.487v6h-3.061v-5.149c0-1.278-.522-1.692-1.279-1.692-.882,0-1.62.593-1.62,2.087v4.754h-3.061v-9h2.736l.091,1.748a3.139,3.139,0,0,1,3.078-1.927A2.9,2.9,0,0,1,431.308,841.487Z"/><path class="c" d="M437.948,843.792l-1.441,1.621v2.07h-3.061v-12.82h3.061v7.6l3.439-3.782h3.386l-3.313,3.53,3.51,5.473h-3.384Z"/><path class="c" d="M449.268,835.978c0-1.026.54-1.476,1.783-1.476s1.782.45,1.782,1.476c0,1.008-.54,1.459-1.782,1.459S449.268,836.986,449.268,835.978Zm3.313,11.5H449.52v-9h3.061Z"/><path class="c" d="M454.092,846.079l1.584-1.728a2.9,2.9,0,0,0,2.665,1.278c.846,0,1.35-.252,1.35-.63,0-.343-.432-.559-1.638-.811-2.737-.54-3.727-1.422-3.727-2.9s1.4-2.989,4.339-2.989c2.161,0,3.349.63,4.124,1.692l-1.585,1.549a2.712,2.712,0,0,0-2.449-1.207c-.9,0-1.368.324-1.368.685s.4.593,1.656.828c2.665.467,3.728,1.314,3.728,2.863,0,1.656-1.387,2.952-4.286,2.952C456.5,847.663,455.01,847.2,454.092,846.079Z"/><path class="c" d="M475.892,846.979a4.783,4.783,0,0,1-2.539.684c-2.035,0-3.295-.792-3.313-2.881v-4.123h-1.549V838.48h1.549v-2.016l3.061-.846v2.862h2.7v2.179h-2.7v3.619a1.048,1.048,0,0,0,1.188,1.206,2.094,2.094,0,0,0,1.3-.4Z"/><path class="c" d="M486.422,841.487v6h-3.061v-5.149c0-1.278-.522-1.711-1.278-1.711-.882,0-1.621.612-1.621,2.125v4.735H477.4v-12.82h3.061V840.1a2.93,2.93,0,0,1,2.845-1.8A2.9,2.9,0,0,1,486.422,841.487Z"/><path class="c" d="M497.24,843.864H491.1a1.728,1.728,0,0,0,1.89,1.639,1.533,1.533,0,0,0,1.656-.99l2.485.792c-.522,1.566-2.052,2.358-4.141,2.358-3.151,0-4.862-1.71-4.862-4.681s1.693-4.681,4.7-4.681c2.935,0,4.5,1.71,4.5,4.555A5.663,5.663,0,0,1,497.24,843.864Zm-6.139-1.656h3.384c-.162-1.152-.72-1.765-1.674-1.765C491.839,840.443,491.263,840.983,491.1,842.208Z"/></g><g class="b"><path class="c" d="M340.138,867.487v6h-3.061v-5.149c0-1.278-.522-1.692-1.278-1.692-.882,0-1.621.593-1.621,2.087v4.754h-3.061v-9h2.737l.09,1.748a3.14,3.14,0,0,1,3.079-1.927A2.9,2.9,0,0,1,340.138,867.487Z"/><path class="c" d="M350.956,869.864h-6.14a1.729,1.729,0,0,0,1.891,1.639,1.533,1.533,0,0,0,1.656-.99l2.485.792c-.522,1.566-2.053,2.358-4.141,2.358-3.151,0-4.862-1.71-4.862-4.681s1.693-4.681,4.7-4.681c2.934,0,4.5,1.71,4.5,4.555A5.668,5.668,0,0,1,350.956,869.864Zm-6.14-1.656H348.2c-.162-1.152-.72-1.765-1.674-1.765C345.555,866.443,344.979,866.983,344.816,868.208Z"/><path class="c" d="M367.572,864.48l-2.719,9H361.18l-1.621-5.779-1.6,5.779H354.3l-2.737-9h3.223l1.512,6.771,1.765-6.771h3.025l1.746,6.807,1.531-6.807Z"/><path class="c" d="M388.308,864.48l-2.719,9h-3.673L380.3,867.7l-1.6,5.779h-3.655l-2.737-9h3.223l1.512,6.771,1.765-6.771h3.025l1.746,6.807,1.531-6.807Z"/><path class="c" d="M398.728,871.665l-.234,1.71a2.515,2.515,0,0,1-1.225.288c-1.206,0-2.053-.414-2.323-1.386-.5.865-1.548,1.386-3.2,1.386-1.783,0-2.791-.792-2.791-2.25,0-1.495.954-2.449,3.511-2.953l2.035-.4v-.324a1.208,1.208,0,0,0-1.279-1.332,1.5,1.5,0,0,0-1.675,1.387l-2.484-.721c.306-1.71,1.71-2.772,4.159-2.772,2.773,0,4.3,1.134,4.3,3.457v3.276q0,.7.648.7A1.76,1.76,0,0,0,398.728,871.665ZM394.5,870.4v-.774l-1.459.343c-.756.179-1.062.431-1.062.935s.324.775.882.775C393.614,871.683,394.5,871.232,394.5,870.4Z"/><path class="c" d="M405.225,873.483c-.991,2.864-2.179,3.871-4.466,3.871a4.076,4.076,0,0,1-2.448-.666l.647-2.052a2.057,2.057,0,0,0,1.549.468,1.262,1.262,0,0,0,1.4-.865l.215-.557-1.044-2.45L398.4,864.48h3.368l1.386,5.132.432,1.909.486-1.981,1.386-5.06h3.062Z"/><path class="c" d="M423.441,868.982c0,2.953-1.746,4.681-4.753,4.681s-4.753-1.728-4.753-4.681,1.746-4.681,4.753-4.681S423.441,866.029,423.441,868.982Zm-6.445,0c0,1.765.558,2.5,1.692,2.5s1.693-.737,1.693-2.5-.558-2.5-1.693-2.5S417,867.218,417,868.982Z"/><path class="c" d="M428.624,864.48h2.736v2.179H428.8v6.824h-3.061v-6.824H424.3V864.48h1.441v-.828c0-2.268,1.6-3.241,3.637-3.241a3.445,3.445,0,0,1,2.071.523l-.306,1.908a1.592,1.592,0,0,0-1.027-.288c-.936,0-1.494.36-1.494,1.3Z"/><path class="c" d="M446.589,860.663v12.82h-2.755l-.126-1.711a3.077,3.077,0,0,1-2.916,1.891c-2.341,0-3.709-1.71-3.709-4.644,0-2.99,1.4-4.718,3.709-4.718a2.894,2.894,0,0,1,2.736,1.71v-5.348Zm-3.079,8.409.018.018v-.234l-.018.036c0-1.5-.593-2.34-1.656-2.34-1.044,0-1.692.738-1.692,2.43s.648,2.431,1.692,2.431C442.88,871.413,443.51,870.62,443.51,869.072Z"/><path class="c" d="M457.443,869.864H451.3a1.728,1.728,0,0,0,1.891,1.639,1.534,1.534,0,0,0,1.656-.99l2.485.792c-.522,1.566-2.053,2.358-4.141,2.358-3.152,0-4.862-1.71-4.862-4.681s1.693-4.681,4.7-4.681c2.934,0,4.5,1.71,4.5,4.555A5.668,5.668,0,0,1,457.443,869.864Zm-6.14-1.656h3.385c-.162-1.152-.72-1.765-1.674-1.765C452.042,866.443,451.465,866.983,451.3,868.208Z"/><path class="c" d="M467.973,864.48l-3.241,9h-3.655l-3.241-9h3.223l1.855,7.059,1.89-7.059Z"/><path class="c" d="M477.531,869.864h-6.14a1.729,1.729,0,0,0,1.891,1.639,1.533,1.533,0,0,0,1.656-.99l2.485.792c-.522,1.566-2.053,2.358-4.141,2.358-3.152,0-4.862-1.71-4.862-4.681s1.693-4.681,4.7-4.681c2.934,0,4.5,1.71,4.5,4.555A5.671,5.671,0,0,1,477.531,869.864Zm-6.14-1.656h3.385c-.162-1.152-.72-1.765-1.674-1.765C472.129,866.443,471.553,866.983,471.391,868.208Z"/><path class="c" d="M482.353,870.368c0,.793.2,1.116.829,1.116a2.592,2.592,0,0,0,.918-.161l-.2,1.89a3.944,3.944,0,0,1-1.873.45c-1.926,0-2.737-.846-2.737-2.845V860.663h3.061Z"/><path class="c" d="M494.289,868.982c0,2.953-1.747,4.681-4.754,4.681s-4.753-1.728-4.753-4.681,1.746-4.681,4.753-4.681S494.289,866.029,494.289,868.982Zm-6.446,0c0,1.765.558,2.5,1.692,2.5s1.693-.737,1.693-2.5-.559-2.5-1.693-2.5S487.843,867.218,487.843,868.982Z"/><path class="c" d="M505.539,868.946c0,2.989-1.4,4.717-3.709,4.717a2.9,2.9,0,0,1-2.719-1.674v5.276H496.05V864.48h2.683l.09,1.91a3.112,3.112,0,0,1,3.007-2.089C504.17,864.3,505.539,866.011,505.539,868.946Zm-3.079.036c0-1.692-.648-2.43-1.692-2.43-1.027,0-1.657.792-1.657,2.34v.18c0,1.494.594,2.341,1.657,2.341C501.812,871.413,502.46,870.675,502.46,868.982Z"/><path class="c" d="M522.154,867.487l-.036,6h-3.025v-5.294c0-1.133-.486-1.547-1.224-1.547-.918,0-1.585.683-1.585,2.034v4.807h-3.06v-5.294c0-1.133-.505-1.547-1.225-1.547-.846,0-1.584.612-1.584,2.087v4.754h-3.061v-9h2.736l.091,1.729a3.143,3.143,0,0,1,3.025-1.908,2.849,2.849,0,0,1,2.862,1.818,3.206,3.206,0,0,1,3.007-1.818A2.9,2.9,0,0,1,522.154,867.487Z"/><path class="c" d="M532.97,869.864h-6.139a1.728,1.728,0,0,0,1.89,1.639,1.534,1.534,0,0,0,1.656-.99l2.485.792c-.522,1.566-2.052,2.358-4.141,2.358-3.151,0-4.862-1.71-4.862-4.681s1.693-4.681,4.7-4.681c2.935,0,4.5,1.71,4.5,4.555A5.668,5.668,0,0,1,532.97,869.864Zm-6.139-1.656h3.384c-.162-1.152-.72-1.765-1.674-1.765C527.569,866.443,526.993,866.983,526.831,868.208Z"/><path class="c" d="M543.788,867.487v6h-3.061v-5.149c0-1.278-.522-1.692-1.278-1.692-.883,0-1.621.593-1.621,2.087v4.754h-3.061v-9H537.5l.09,1.748a3.139,3.139,0,0,1,3.079-1.927A2.9,2.9,0,0,1,543.788,867.487Z"/><path class="c" d="M552.409,872.979a4.777,4.777,0,0,1-2.538.684c-2.035,0-3.295-.792-3.313-2.881v-4.123h-1.549V864.48h1.549v-2.016l3.06-.846v2.862h2.7v2.179h-2.7v3.619a1.049,1.049,0,0,0,1.189,1.206,2.1,2.1,0,0,0,1.3-.4Z"/></g></g></g></svg>