<svg xmlns="http://www.w3.org/2000/svg" width="800" height="450" viewBox="0 0 800 450"><defs><style>.a{fill:#406875;}.b{isolation:isolate;}.c{fill:#fff;}</style></defs><rect class="a" width="800" height="450" transform="translate(0)"/><g class="b"><g class="b"><path class="c" d="M86.756,149H80L73.35,125.9h6.476l3.815,18.377L87.807,125.9h5.46L97.5,144.239l3.816-18.342h6.231L100.863,149H94.317l-2.73-11.2-1.05-5.636h-.07L89.452,137.8Z"/><path class="c" d="M127.567,137.344V149h-5.951V138.989c0-2.485-1.014-3.325-2.485-3.325-1.715,0-3.15,1.19-3.15,4.13V149H110.03V124.077h5.951v10.571a5.7,5.7,0,0,1,5.53-3.5C125.117,131.148,127.567,133.283,127.567,137.344Z"/><path class="c" d="M142.406,149c-1.925,5.565-4.235,7.525-8.68,7.525a7.927,7.927,0,0,1-4.761-1.295l1.26-3.99a3.994,3.994,0,0,0,3.01.91,2.451,2.451,0,0,0,2.731-1.68l.42-1.085-2.031-4.76L129.14,131.5h6.546l2.695,9.977.84,3.71.945-3.851,2.695-9.836h5.951Z"/><path class="c" d="M177.932,124.077V149h-5.356l-.245-3.325a5.987,5.987,0,0,1-5.67,3.675c-4.551,0-7.211-3.326-7.211-9.031,0-5.81,2.73-9.171,7.211-9.171a5.627,5.627,0,0,1,5.32,3.326v-10.4Zm-5.986,16.347.035.035V140l-.035.07c0-2.9-1.155-4.551-3.22-4.551-2.03,0-3.29,1.436-3.29,4.726s1.26,4.726,3.29,4.726C170.721,144.975,171.946,143.435,171.946,140.424Z"/><path class="c" d="M199.036,141.964H187.1a3.359,3.359,0,0,0,3.675,3.185c1.75,0,2.836-.7,3.221-1.924l4.83,1.54c-1.015,3.045-3.99,4.585-8.051,4.585-6.125,0-9.451-3.326-9.451-9.1s3.291-9.1,9.136-9.1c5.706,0,8.751,3.326,8.751,8.856A11.014,11.014,0,0,1,199.036,141.964Zm-11.936-3.22h6.581c-.315-2.24-1.4-3.431-3.256-3.431C188.535,135.313,187.415,136.363,187.1,138.744Z"/><path class="c" d="M219.511,131.5l-6.3,17.5H206.1l-6.3-17.5h6.266l3.6,13.722,3.676-13.722Z"/><path class="c" d="M227.489,142.944c0,1.54.386,2.17,1.611,2.17a5.041,5.041,0,0,0,1.785-.314l-.385,3.675a7.664,7.664,0,0,1-3.641.875c-3.745,0-5.32-1.645-5.32-5.531V124.077h5.95Z"/><path class="c" d="M243.87,149c-1.925,5.565-4.235,7.525-8.681,7.525a7.926,7.926,0,0,1-4.76-1.295l1.26-3.99a3.994,3.994,0,0,0,3.01.91,2.451,2.451,0,0,0,2.731-1.68l.42-1.085-2.031-4.76L230.6,131.5h6.545l2.7,9.977.84,3.71.945-3.851,2.695-9.836h5.951Z"/><path class="c" d="M269.945,137.344V149h-5.95V138.989c0-2.485-1.015-3.291-2.485-3.291-1.716,0-3.151,1.156-3.151,4.061V149h-5.95V131.5h5.32l.175,3.4a6.1,6.1,0,0,1,5.986-3.746C267.495,131.148,269.945,133.283,269.945,137.344Z"/><path class="c" d="M282.859,141.824l-2.8,3.151V149h-5.951V124.077h5.951v14.772l6.686-7.351h6.58l-6.44,6.861L293.71,149h-6.58Z"/><path class="c" d="M304.873,126.633c0-2,1.05-2.87,3.465-2.87s3.466.875,3.466,2.87c0,1.96-1.05,2.835-3.466,2.835S304.873,128.593,304.873,126.633ZM311.314,149h-5.951V131.5h5.951Z"/><path class="c" d="M314.253,146.27l3.08-3.361c1.05,1.75,2.94,2.486,5.181,2.486,1.645,0,2.625-.491,2.625-1.225,0-.665-.84-1.086-3.185-1.575-5.321-1.051-7.246-2.766-7.246-5.636s2.73-5.811,8.436-5.811c4.2,0,6.51,1.225,8.016,3.29l-3.081,3.011a5.273,5.273,0,0,0-4.76-2.345c-1.751,0-2.661.629-2.661,1.33s.77,1.155,3.221,1.61c5.18.91,7.246,2.556,7.246,5.565,0,3.221-2.7,5.741-8.332,5.741C318.943,149.35,316.038,148.439,314.253,146.27Z"/><path class="c" d="M356.639,148.02a9.312,9.312,0,0,1-4.936,1.33c-3.955,0-6.406-1.54-6.441-5.6v-8.016h-3.01V131.5h3.01v-3.92l5.951-1.645V131.5h5.25v4.235h-5.25v7.037a2.038,2.038,0,0,0,2.31,2.344,4.076,4.076,0,0,0,2.52-.769Z"/><path class="c" d="M377.114,137.344V149h-5.951V138.989c0-2.485-1.015-3.325-2.485-3.325-1.715,0-3.15,1.19-3.15,4.13V149h-5.951V124.077h5.951v10.571a5.7,5.7,0,0,1,5.53-3.5C374.664,131.148,377.114,133.283,377.114,137.344Z"/><path class="c" d="M398.148,141.964H386.212a3.36,3.36,0,0,0,3.676,3.185c1.75,0,2.835-.7,3.22-1.924l4.83,1.54c-1.015,3.045-3.99,4.585-8.05,4.585-6.126,0-9.451-3.326-9.451-9.1s3.29-9.1,9.136-9.1c5.705,0,8.751,3.326,8.751,8.856A11.012,11.012,0,0,1,398.148,141.964Zm-11.936-3.22h6.581c-.315-2.24-1.4-3.431-3.255-3.431C387.647,135.313,386.527,136.363,386.212,138.744Z"/></g><g class="b"><path class="c" d="M92.672,182.344V194h-5.95V183.989c0-2.485-1.015-3.291-2.486-3.291-1.715,0-3.15,1.156-3.15,4.061V194H75.135V176.5h5.321l.175,3.4a6.1,6.1,0,0,1,5.985-3.746C90.222,176.148,92.672,178.283,92.672,182.344Z"/><path class="c" d="M113.707,186.964H101.771a3.358,3.358,0,0,0,3.675,3.185c1.75,0,2.835-.7,3.22-1.924l4.831,1.54c-1.016,3.045-3.991,4.585-8.051,4.585-6.126,0-9.451-3.326-9.451-9.1s3.29-9.1,9.136-9.1c5.705,0,8.751,3.326,8.751,8.856A11.015,11.015,0,0,1,113.707,186.964Zm-11.936-3.22h6.58c-.315-2.24-1.4-3.431-3.255-3.431C103.206,180.313,102.085,181.363,101.771,183.744Z"/><path class="c" d="M146.013,176.5,140.728,194h-7.142l-3.15-11.236L127.321,194h-7.106l-5.32-17.5h6.265l2.941,13.161,3.43-13.161h5.881l3.4,13.231,2.975-13.231Z"/><path class="c" d="M186.333,176.5,181.047,194h-7.141l-3.15-11.236L167.641,194h-7.106l-5.321-17.5h6.266l2.94,13.161,3.431-13.161h5.88l3.4,13.231L180.1,176.5Z"/><path class="c" d="M206.6,190.465l-.455,3.325a4.878,4.878,0,0,1-2.38.56c-2.345,0-3.99-.805-4.515-2.7-.98,1.681-3.011,2.7-6.231,2.7-3.465,0-5.426-1.54-5.426-4.375,0-2.906,1.855-4.761,6.826-5.741l3.956-.77v-.63a2.347,2.347,0,0,0-2.486-2.591,2.916,2.916,0,0,0-3.255,2.7l-4.831-1.4c.6-3.326,3.326-5.391,8.086-5.391,5.391,0,8.366,2.206,8.366,6.721v6.37q0,1.365,1.26,1.365A3.432,3.432,0,0,0,206.6,190.465Zm-8.225-2.45v-1.506l-2.836.665c-1.47.35-2.065.841-2.065,1.82s.63,1.506,1.715,1.506C196.655,190.5,198.371,189.625,198.371,188.015Z"/><path class="c" d="M219.23,194c-1.925,5.565-4.235,7.525-8.68,7.525a7.929,7.929,0,0,1-4.761-1.295l1.26-3.99a4,4,0,0,0,3.011.91,2.45,2.45,0,0,0,2.73-1.68l.42-1.085-2.03-4.76L205.964,176.5h6.546l2.7,9.977.84,3.71.945-3.851,2.7-9.836h5.95Z"/><path class="c" d="M254.651,185.249c0,5.74-3.4,9.1-9.241,9.1s-9.241-3.361-9.241-9.1,3.395-9.1,9.241-9.1S254.651,179.509,254.651,185.249Zm-12.531,0c0,3.431,1.085,4.865,3.29,4.865s3.291-1.434,3.291-4.865-1.086-4.865-3.291-4.865S242.12,181.818,242.12,185.249Z"/><path class="c" d="M264.729,176.5h5.321v4.235h-4.97V194h-5.951V180.733h-2.8V176.5h2.8v-1.61c0-4.41,3.115-6.3,7.071-6.3a6.7,6.7,0,0,1,4.025,1.016l-.6,3.71a3.077,3.077,0,0,0-1.995-.56c-1.82,0-2.906.7-2.906,2.52Z"/><path class="c" d="M299.66,169.077V194H294.3l-.245-3.325a5.988,5.988,0,0,1-5.671,3.675c-4.55,0-7.21-3.326-7.21-9.031,0-5.81,2.73-9.171,7.21-9.171a5.628,5.628,0,0,1,5.321,3.326v-10.4Zm-5.985,16.347.035.035V185l-.035.07c0-2.9-1.155-4.551-3.22-4.551-2.031,0-3.291,1.436-3.291,4.726s1.26,4.726,3.291,4.726C292.45,189.975,293.675,188.435,293.675,185.424Z"/><path class="c" d="M320.765,186.964H308.829a3.359,3.359,0,0,0,3.675,3.185c1.75,0,2.836-.7,3.221-1.924l4.83,1.54c-1.015,3.045-3.99,4.585-8.051,4.585-6.125,0-9.451-3.326-9.451-9.1s3.291-9.1,9.136-9.1c5.706,0,8.751,3.326,8.751,8.856A11.017,11.017,0,0,1,320.765,186.964Zm-11.936-3.22h6.581c-.315-2.24-1.4-3.431-3.256-3.431C310.264,180.313,309.144,181.363,308.829,183.744Z"/><path class="c" d="M341.24,176.5l-6.3,17.5h-7.106l-6.3-17.5H327.8L331.4,190.22l3.675-13.722Z"/><path class="c" d="M359.825,186.964H347.889a3.359,3.359,0,0,0,3.675,3.185c1.75,0,2.836-.7,3.221-1.924l4.83,1.54c-1.015,3.045-3.99,4.585-8.051,4.585-6.125,0-9.451-3.326-9.451-9.1s3.291-9.1,9.137-9.1c5.7,0,8.75,3.326,8.75,8.856A11.017,11.017,0,0,1,359.825,186.964Zm-11.936-3.22h6.581c-.315-2.24-1.4-3.431-3.256-3.431C349.324,180.313,348.2,181.363,347.889,183.744Z"/><path class="c" d="M369.2,187.944c0,1.54.385,2.17,1.61,2.17a5.043,5.043,0,0,0,1.786-.314l-.385,3.675a7.664,7.664,0,0,1-3.641.875c-3.745,0-5.32-1.645-5.32-5.531V169.077h5.95Z"/><path class="c" d="M392.409,185.249c0,5.74-3.395,9.1-9.241,9.1s-9.241-3.361-9.241-9.1,3.4-9.1,9.241-9.1S392.409,179.509,392.409,185.249Zm-12.531,0c0,3.431,1.085,4.865,3.29,4.865s3.291-1.434,3.291-4.865-1.085-4.865-3.291-4.865S379.878,181.818,379.878,185.249Z"/><path class="c" d="M414.284,185.179c0,5.81-2.729,9.171-7.21,9.171a5.645,5.645,0,0,1-5.286-3.255v10.256h-5.951V176.5h5.216l.176,3.711a6.052,6.052,0,0,1,5.845-4.061C411.624,176.148,414.284,179.474,414.284,185.179Zm-5.985.07c0-3.29-1.26-4.726-3.291-4.726-1.994,0-3.22,1.54-3.22,4.551v.35c0,2.9,1.155,4.551,3.22,4.551C407.039,189.975,408.3,188.539,408.3,185.249Z"/><path class="c" d="M446.59,182.344,446.52,194h-5.881V183.709c0-2.205-.945-3.011-2.38-3.011-1.785,0-3.08,1.33-3.08,3.956V194h-5.95V183.709c0-2.205-.981-3.011-2.381-3.011-1.645,0-3.08,1.191-3.08,4.061V194h-5.952V176.5h5.321l.175,3.36a6.113,6.113,0,0,1,5.881-3.71,5.54,5.54,0,0,1,5.566,3.536,6.229,6.229,0,0,1,5.845-3.536C444.035,176.148,446.625,178.248,446.59,182.344Z"/><path class="c" d="M467.623,186.964H455.687a3.359,3.359,0,0,0,3.676,3.185c1.75,0,2.835-.7,3.22-1.924l4.831,1.54c-1.016,3.045-3.99,4.585-8.051,4.585-6.126,0-9.451-3.326-9.451-9.1s3.29-9.1,9.136-9.1c5.706,0,8.751,3.326,8.751,8.856A10.916,10.916,0,0,1,467.623,186.964Zm-11.936-3.22h6.581c-.315-2.24-1.4-3.431-3.255-3.431C457.123,180.313,456,181.363,455.687,183.744Z"/><path class="c" d="M488.658,182.344V194h-5.95V183.989c0-2.485-1.016-3.291-2.485-3.291-1.715,0-3.151,1.156-3.151,4.061V194h-5.951V176.5h5.321l.175,3.4a6.1,6.1,0,0,1,5.986-3.746C486.208,176.148,488.658,178.283,488.658,182.344Z"/><path class="c" d="M505.423,193.02a9.307,9.307,0,0,1-4.936,1.33c-3.956,0-6.406-1.54-6.44-5.6v-8.016h-3.011V176.5h3.011v-3.92l5.95-1.645V176.5h5.251v4.235H500v7.037a2.038,2.038,0,0,0,2.311,2.344,4.071,4.071,0,0,0,2.519-.769Z"/></g></g></svg>