<svg xmlns="http://www.w3.org/2000/svg" width="586" height="586" viewBox="0 0 586 586"><defs><style>.a{fill:#e8d3c6;}.b{isolation:isolate;}.c{fill:#fff;}</style></defs><g transform="translate(4305 -4229)"><rect class="a" width="586" height="586" transform="translate(-4305 4229)"/><g class="b" transform="translate(-4945 3830)"><g class="b"><path class="c" d="M877.052,553.785H869.07L867.461,559h-6.056l8.12-23.1h7.211l8.086,23.1h-6.2Zm-1.261-4.1-1.68-5.531-1.015-3.64h-.07l-.945,3.6-1.715,5.566Z"/><path class="c" d="M902.846,541.5h5.32v4.236H903.2V559h-5.95V545.734h-2.8V541.5h2.8v-1.61c0-4.41,3.115-6.3,7.07-6.3a6.7,6.7,0,0,1,4.026,1.016l-.6,3.71a3.077,3.077,0,0,0-1.995-.56c-1.82,0-2.9.7-2.9,2.521Z"/><path class="c" d="M923.286,541.533l-.63,5.041a4.547,4.547,0,0,0-2.205-.525,3.786,3.786,0,0,0-3.921,4.131V559h-5.95V541.5h5.25l.245,3.746c.875-2.59,2.591-4.1,5.321-4.1A4.039,4.039,0,0,1,923.286,541.533Z"/><path class="c" d="M942.291,551.965H930.355a3.359,3.359,0,0,0,3.675,3.185c1.75,0,2.836-.7,3.221-1.925l4.83,1.541c-1.015,3.045-3.99,4.584-8.051,4.584-6.125,0-9.451-3.325-9.451-9.1s3.291-9.1,9.137-9.1c5.705,0,8.751,3.327,8.751,8.856A11.024,11.024,0,0,1,942.291,551.965Zm-11.936-3.221h6.581c-.315-2.24-1.4-3.43-3.255-3.43C931.79,545.314,930.67,546.363,930.355,548.744Z"/><path class="c" d="M944.494,556.27l3.08-3.36c1.051,1.75,2.941,2.485,5.181,2.485,1.645,0,2.625-.491,2.625-1.225,0-.664-.84-1.086-3.185-1.574-5.321-1.051-7.246-2.766-7.246-5.637s2.731-5.811,8.436-5.811c4.2,0,6.511,1.225,8.016,3.291l-3.081,3.01a5.275,5.275,0,0,0-4.759-2.345c-1.751,0-2.662.63-2.662,1.33s.771,1.156,3.221,1.611c5.181.91,7.246,2.555,7.246,5.564,0,3.221-2.7,5.741-8.331,5.741C949.185,559.35,946.279,558.439,944.494,556.27Z"/><path class="c" d="M981.98,547.344V559h-5.95V548.99c0-2.486-1.014-3.326-2.485-3.326-1.715,0-3.15,1.19-3.15,4.131V559h-5.951V534.078H970.4v10.57a5.7,5.7,0,0,1,5.53-3.5C979.53,541.148,981.98,543.283,981.98,547.344Z"/><path class="c" d="M1008.58,558.02a9.3,9.3,0,0,1-4.935,1.33c-3.956,0-6.406-1.539-6.441-5.6v-8.016h-3.011V541.5H997.2v-3.919l5.95-1.646V541.5h5.251v4.236h-5.251v7.036a2.039,2.039,0,0,0,2.311,2.345,4.076,4.076,0,0,0,2.52-.769Z"/><path class="c" d="M1029.37,555.465l-.455,3.326a4.875,4.875,0,0,1-2.38.559c-2.345,0-3.99-.8-4.515-2.7-.98,1.682-3.01,2.7-6.231,2.7-3.466,0-5.426-1.539-5.426-4.375,0-2.9,1.856-4.76,6.826-5.741l3.956-.769v-.631a2.347,2.347,0,0,0-2.486-2.59,2.916,2.916,0,0,0-3.255,2.7l-4.831-1.4c.6-3.326,3.325-5.391,8.086-5.391,5.391,0,8.366,2.206,8.366,6.721v6.371q0,1.365,1.26,1.365A3.4,3.4,0,0,0,1029.37,555.465Zm-8.225-2.449V551.51l-2.835.664c-1.471.351-2.066.842-2.066,1.82s.63,1.506,1.715,1.506C1019.43,555.5,1021.145,554.625,1021.145,553.016Z"/><path class="c" d="M1040.464,551.824l-2.8,3.151V559h-5.951V534.078h5.951V548.85l6.686-7.352h6.58l-6.441,6.861L1051.315,559h-6.581Z"/><path class="c" d="M1069.41,551.965h-11.936a3.358,3.358,0,0,0,3.675,3.185c1.75,0,2.835-.7,3.22-1.925l4.831,1.541c-1.015,3.045-3.99,4.584-8.051,4.584-6.126,0-9.451-3.325-9.451-9.1s3.29-9.1,9.136-9.1c5.706,0,8.751,3.327,8.751,8.856A11.029,11.029,0,0,1,1069.41,551.965Zm-11.936-3.221h6.581c-.316-2.24-1.4-3.43-3.256-3.43C1058.909,545.314,1057.789,546.363,1057.474,548.744Z"/><path class="c" d="M1100.56,550.25c0,5.74-3.4,9.1-9.242,9.1s-9.241-3.36-9.241-9.1,3.4-9.1,9.241-9.1S1100.56,544.51,1100.56,550.25Zm-12.532,0c0,3.43,1.085,4.865,3.29,4.865s3.291-1.435,3.291-4.865-1.086-4.865-3.291-4.865S1088.028,546.818,1088.028,550.25Z"/><path class="c" d="M1121.523,547.344V559h-5.95V548.99c0-2.486-1.014-3.291-2.485-3.291-1.715,0-3.15,1.155-3.15,4.061V559h-5.951V541.5h5.321l.174,3.4a6.1,6.1,0,0,1,5.986-3.747C1119.073,541.148,1121.523,543.283,1121.523,547.344Z"/><path class="c" d="M1148.123,558.02a9.294,9.294,0,0,1-4.935,1.33c-3.956,0-6.406-1.539-6.441-5.6v-8.016h-3.01V541.5h3.01v-3.919l5.951-1.646V541.5h5.25v4.236h-5.25v7.036a2.039,2.039,0,0,0,2.31,2.345,4.074,4.074,0,0,0,2.52-.769Z"/><path class="c" d="M1168.6,547.344V559h-5.952V548.99c0-2.486-1.014-3.326-2.484-3.326-1.716,0-3.15,1.19-3.15,4.131V559h-5.951V534.078h5.951v10.57a5.7,5.7,0,0,1,5.53-3.5C1166.148,541.148,1168.6,543.283,1168.6,547.344Z"/><path class="c" d="M1189.633,551.965H1177.7a3.359,3.359,0,0,0,3.675,3.185c1.75,0,2.836-.7,3.221-1.925l4.83,1.541c-1.015,3.045-3.99,4.584-8.051,4.584-6.125,0-9.451-3.325-9.451-9.1s3.291-9.1,9.137-9.1c5.7,0,8.751,3.327,8.751,8.856A11.024,11.024,0,0,1,1189.633,551.965Zm-11.936-3.221h6.58c-.314-2.24-1.4-3.43-3.255-3.43C1179.132,545.314,1178.012,546.363,1177.7,548.744Z"/></g><g class="b"><path class="c" d="M986.6,602.365c0,4.061-3.92,6.16-9.836,6.16-6.336,0-8.961-1.609-8.961-4.129,0-1.435.945-2.765,3.22-3.291a3.93,3.93,0,0,1-2.66-3.64,3.852,3.852,0,0,1,2.835-3.57,5.147,5.147,0,0,1-2.835-4.8c0-3.782,3.115-5.952,8.541-5.952a17.481,17.481,0,0,1,3.5.35c.455-2.7,2.1-4.971,5.531-4.689l.665,3.955c-2.206-.315-3.571.42-4.095,1.506a5.166,5.166,0,0,1,2.94,4.83c0,3.779-3.115,5.916-8.541,5.916a16.047,16.047,0,0,1-3.36-.317c-.806.211-1.12.6-1.12,1.227,0,.769.665,1.189,1.82,1.189h5.985C984.257,597.115,986.6,598.865,986.6,602.365Zm-4.69.6c0-.7-.525-1.121-2.136-1.121h-4.8c-1.924,0-2.66.387-2.66,1.226,0,1.014,1.471,1.61,4.866,1.61C980.406,604.676,981.912,603.941,981.912,602.961Zm-7.6-13.861a2.591,2.591,0,0,0,5.18,0,2.59,2.59,0,0,0-5.18,0Z"/><path class="c" d="M1006.377,583.5V601h-5.32l-.176-3.254c-1.085,2.449-3.221,3.6-6.056,3.6-3.57,0-5.985-1.75-5.985-6.161V583.5h5.951v10.188c0,2.378.875,3.115,2.414,3.115,1.856,0,3.221-1.227,3.221-4.026V583.5ZM990.7,578.844c0-1.682,1.119-2.7,2.94-2.7,1.89,0,3.011,1.014,3.011,2.7s-1.121,2.7-3.011,2.7C991.814,581.539,990.7,580.523,990.7,578.844Zm7.7,0c0-1.682,1.12-2.7,2.94-2.7,1.891,0,3.01,1.014,3.01,2.7s-1.119,2.7-3.01,2.7C999.516,581.539,998.4,580.523,998.4,578.844Z"/><path class="c" d="M1016.525,594.945c0,1.539.385,2.17,1.611,2.17a5.064,5.064,0,0,0,1.785-.314l-.385,3.674a7.665,7.665,0,0,1-3.64.875c-3.746,0-5.321-1.645-5.321-5.53V576.078h5.95Z"/><path class="c" d="M1020.795,598.27l3.08-3.36c1.051,1.75,2.94,2.485,5.181,2.485,1.645,0,2.625-.491,2.625-1.225,0-.664-.84-1.086-3.185-1.574-5.321-1.051-7.246-2.766-7.246-5.637s2.73-5.811,8.436-5.811c4.2,0,6.51,1.225,8.015,3.291l-3.08,3.01a5.275,5.275,0,0,0-4.76-2.345c-1.751,0-2.661.63-2.661,1.33s.771,1.156,3.221,1.611c5.181.91,7.245,2.555,7.245,5.564,0,3.221-2.7,5.741-8.33,5.741C1025.485,601.35,1022.58,600.439,1020.795,598.27Z"/><path class="c" d="M1058.281,589.344V601h-5.951V590.99c0-2.486-1.015-3.326-2.484-3.326-1.716,0-3.151,1.19-3.151,4.131V601h-5.951V576.078h5.951v10.57a5.7,5.7,0,0,1,5.53-3.5C1055.83,583.148,1058.281,585.283,1058.281,589.344Z"/><path class="c" d="M1080.436,597.465l-.456,3.326a4.867,4.867,0,0,1-2.378.559c-2.346,0-3.992-.8-4.516-2.7-.981,1.682-3.011,2.7-6.231,2.7-3.465,0-5.425-1.539-5.425-4.375,0-2.9,1.854-4.76,6.825-5.741l3.956-.769v-.631a2.347,2.347,0,0,0-2.486-2.59,2.916,2.916,0,0,0-3.255,2.7l-4.831-1.4c.595-3.326,3.326-5.391,8.086-5.391,5.39,0,8.366,2.206,8.366,6.721v6.371q0,1.365,1.261,1.365A3.4,3.4,0,0,0,1080.436,597.465Zm-8.225-2.449V593.51l-2.836.664c-1.471.351-2.065.842-2.065,1.82s.629,1.506,1.715,1.506C1070.495,597.5,1072.211,596.625,1072.211,595.016Z"/><path class="c" d="M1109.241,583.5l-6.3,17.5h-7.106l-6.3-17.5h6.266l3.6,13.723,3.675-13.723Z"/><path class="c" d="M1110.85,578.633c0-1.994,1.049-2.869,3.464-2.869s3.465.875,3.465,2.869c0,1.961-1.049,2.836-3.465,2.836S1110.85,580.594,1110.85,578.633ZM1117.29,601h-5.95V583.5h5.95Z"/><path class="c" d="M1120.229,598.27l3.08-3.36c1.05,1.75,2.941,2.485,5.181,2.485,1.645,0,2.625-.491,2.625-1.225,0-.664-.84-1.086-3.185-1.574-5.321-1.051-7.246-2.766-7.246-5.637s2.73-5.811,8.435-5.811c4.2,0,6.512,1.225,8.017,3.291l-3.081,3.01a5.274,5.274,0,0,0-4.76-2.345c-1.75,0-2.66.63-2.66,1.33s.769,1.156,3.22,1.611c5.18.91,7.246,2.555,7.246,5.564,0,3.221-2.7,5.741-8.331,5.741C1124.92,601.35,1122.014,600.439,1120.229,598.27Z"/><path class="c" d="M1139.688,578.633c0-1.994,1.05-2.869,3.465-2.869s3.466.875,3.466,2.869c0,1.961-1.051,2.836-3.466,2.836S1139.688,580.594,1139.688,578.633ZM1146.129,601h-5.951V583.5h5.951Z"/><path class="c" d="M1168,592.25c0,5.74-3.4,9.1-9.24,9.1s-9.242-3.36-9.242-9.1,3.4-9.1,9.242-9.1S1168,586.51,1168,592.25Zm-12.531,0c0,3.43,1.086,4.865,3.291,4.865s3.291-1.435,3.291-4.865-1.086-4.865-3.291-4.865S1155.473,588.818,1155.473,592.25Z"/><path class="c" d="M1188.969,589.344V601h-5.95V590.99c0-2.486-1.015-3.291-2.486-3.291-1.715,0-3.15,1.155-3.15,4.061V601h-5.95V583.5h5.32l.175,3.4a6.1,6.1,0,0,1,5.986-3.747C1186.52,583.148,1188.969,585.283,1188.969,589.344Z"/></g></g></g></svg>