<svg xmlns="http://www.w3.org/2000/svg" width="800" height="450" viewBox="0 0 800 450"><defs><style>.a{fill:#e8d3c6;}.b{isolation:isolate;}.c{fill:#fff;}</style></defs><rect class="a" width="800" height="450"/><g class="b"><g class="b"><path class="c" d="M88.787,134.784H80.806L79.2,140H73.14l8.121-23.1h7.211L96.558,140h-6.2Zm-1.261-4.1-1.68-5.531-1.015-3.64h-.07l-.945,3.605L82.1,130.689Z"/><path class="c" d="M114.581,122.5h5.32v4.235h-4.97V140H108.98V126.733h-2.8V122.5h2.8v-1.61c0-4.41,3.116-6.3,7.071-6.3a6.7,6.7,0,0,1,4.025,1.016l-.595,3.71a3.077,3.077,0,0,0-2-.56c-1.82,0-2.9.7-2.9,2.52Z"/><path class="c" d="M135.021,122.533l-.63,5.04a4.548,4.548,0,0,0-2.205-.524,3.785,3.785,0,0,0-3.92,4.13V140h-5.951V122.5h5.25l.246,3.745c.875-2.59,2.59-4.095,5.32-4.095A4.027,4.027,0,0,1,135.021,122.533Z"/><path class="c" d="M154.026,132.964H142.09a3.36,3.36,0,0,0,3.676,3.185c1.75,0,2.835-.7,3.22-1.924l4.83,1.54c-1.015,3.045-3.99,4.585-8.05,4.585-6.126,0-9.452-3.326-9.452-9.1s3.291-9.1,9.137-9.1c5.705,0,8.751,3.326,8.751,8.856A11.01,11.01,0,0,1,154.026,132.964Zm-11.936-3.22h6.581c-.315-2.24-1.4-3.431-3.255-3.431C143.525,126.313,142.4,127.363,142.09,129.744Z"/><path class="c" d="M156.229,137.27l3.081-3.361c1.05,1.75,2.94,2.486,5.18,2.486,1.645,0,2.625-.491,2.625-1.225,0-.665-.84-1.086-3.185-1.575-5.321-1.051-7.246-2.766-7.246-5.636s2.731-5.811,8.436-5.811c4.2,0,6.511,1.225,8.016,3.29l-3.08,3.011a5.274,5.274,0,0,0-4.761-2.345c-1.75,0-2.66.629-2.66,1.33s.77,1.155,3.22,1.61c5.181.91,7.246,2.556,7.246,5.565,0,3.221-2.695,5.741-8.331,5.741C160.92,140.35,158.015,139.439,156.229,137.27Z"/><path class="c" d="M193.716,128.344V140h-5.95V129.989c0-2.485-1.016-3.325-2.486-3.325-1.715,0-3.15,1.19-3.15,4.13V140h-5.951V115.077h5.951v10.571a5.7,5.7,0,0,1,5.53-3.5C191.266,122.148,193.716,124.283,193.716,128.344Z"/><path class="c" d="M220.315,139.02a9.306,9.306,0,0,1-4.935,1.33c-3.956,0-6.406-1.54-6.441-5.6v-8.016h-3.01V122.5h3.01v-3.92l5.951-1.645V122.5h5.25v4.235h-5.25v7.037a2.038,2.038,0,0,0,2.31,2.344,4.076,4.076,0,0,0,2.52-.769Z"/><path class="c" d="M241.1,136.465l-.455,3.325a4.871,4.871,0,0,1-2.379.56c-2.346,0-3.991-.805-4.516-2.7-.98,1.681-3.01,2.7-6.231,2.7-3.465,0-5.425-1.54-5.425-4.375,0-2.906,1.855-4.761,6.825-5.741l3.956-.77v-.63a2.347,2.347,0,0,0-2.485-2.591,2.917,2.917,0,0,0-3.256,2.7l-4.83-1.4c.6-3.326,3.325-5.391,8.086-5.391,5.39,0,8.365,2.206,8.365,6.721v6.37q0,1.365,1.261,1.365A3.426,3.426,0,0,0,241.1,136.465Zm-8.225-2.45v-1.506l-2.836.665c-1.47.35-2.065.841-2.065,1.82s.63,1.506,1.715,1.506C231.165,136.5,232.88,135.625,232.88,134.015Z"/><path class="c" d="M252.2,132.824l-2.8,3.151V140h-5.951V115.077H249.4v14.772l6.685-7.351h6.581l-6.44,6.861L263.05,140h-6.58Z"/><path class="c" d="M281.145,132.964H269.209a3.359,3.359,0,0,0,3.675,3.185c1.75,0,2.836-.7,3.22-1.924l4.831,1.54c-1.015,3.045-3.99,4.585-8.051,4.585-6.125,0-9.451-3.326-9.451-9.1s3.291-9.1,9.136-9.1c5.706,0,8.751,3.326,8.751,8.856A11.014,11.014,0,0,1,281.145,132.964Zm-11.936-3.22h6.581c-.315-2.24-1.4-3.431-3.256-3.431C270.644,126.313,269.524,127.363,269.209,129.744Z"/><path class="c" d="M312.294,131.249c0,5.74-3.4,9.1-9.24,9.1s-9.242-3.361-9.242-9.1,3.4-9.1,9.242-9.1S312.294,125.509,312.294,131.249Zm-12.531,0c0,3.431,1.086,4.865,3.291,4.865s3.29-1.434,3.29-4.865-1.085-4.865-3.29-4.865S299.763,127.818,299.763,131.249Z"/><path class="c" d="M333.259,128.344V140h-5.95V129.989c0-2.485-1.016-3.291-2.486-3.291-1.715,0-3.15,1.156-3.15,4.061V140h-5.951V122.5h5.32l.176,3.4a6.1,6.1,0,0,1,5.985-3.746C330.809,122.148,333.259,124.283,333.259,128.344Z"/><path class="c" d="M359.858,139.02a9.3,9.3,0,0,1-4.935,1.33c-3.955,0-6.4-1.54-6.441-5.6v-8.016h-3.01V122.5h3.01v-3.92l5.951-1.645V122.5h5.251v4.235h-5.251v7.037a2.038,2.038,0,0,0,2.31,2.344,4.079,4.079,0,0,0,2.521-.769Z"/><path class="c" d="M380.333,128.344V140h-5.95V129.989c0-2.485-1.015-3.325-2.485-3.325-1.715,0-3.15,1.19-3.15,4.13V140H362.8V115.077h5.951v10.571a5.7,5.7,0,0,1,5.53-3.5C377.883,122.148,380.333,124.283,380.333,128.344Z"/><path class="c" d="M401.368,132.964H389.432a3.359,3.359,0,0,0,3.675,3.185c1.75,0,2.836-.7,3.221-1.924l4.83,1.54c-1.015,3.045-3.99,4.585-8.051,4.585-6.125,0-9.451-3.326-9.451-9.1s3.291-9.1,9.136-9.1c5.706,0,8.751,3.326,8.751,8.856A11.017,11.017,0,0,1,401.368,132.964Zm-11.936-3.22h6.581c-.315-2.24-1.4-3.431-3.256-3.431C390.867,126.313,389.747,127.363,389.432,129.744Z"/></g><g class="b"><path class="c" d="M92.6,186.365c0,4.061-3.92,6.16-9.836,6.16-6.336,0-8.961-1.609-8.961-4.129,0-1.436.945-2.766,3.22-3.291a3.93,3.93,0,0,1-2.66-3.64A3.85,3.85,0,0,1,77.2,177.9a5.146,5.146,0,0,1-2.835-4.8c0-3.781,3.115-5.951,8.541-5.951a17.406,17.406,0,0,1,3.5.35c.455-2.7,2.1-4.971,5.531-4.69l.665,3.955c-2.2-.315-3.57.421-4.095,1.506a5.167,5.167,0,0,1,2.94,4.83c0,3.78-3.115,5.916-8.541,5.916a16.127,16.127,0,0,1-3.36-.316c-.805.21-1.12.6-1.12,1.226,0,.769.665,1.189,1.82,1.189h5.985C90.257,181.114,92.6,182.865,92.6,186.365Zm-4.69.6c0-.7-.525-1.12-2.136-1.12H80.981c-1.925,0-2.661.386-2.661,1.225,0,1.015,1.471,1.611,4.866,1.611C86.406,188.676,87.912,187.94,87.912,186.96Zm-7.6-13.861a2.591,2.591,0,0,0,5.18,0,2.59,2.59,0,0,0-5.18,0Z"/><path class="c" d="M112.376,167.5V185h-5.32l-.175-3.255c-1.085,2.45-3.22,3.605-6.056,3.605-3.57,0-5.985-1.75-5.985-6.161V167.5h5.951v10.187c0,2.379.875,3.115,2.415,3.115,1.855,0,3.22-1.226,3.22-4.026V167.5Zm-15.681-4.655c0-1.681,1.12-2.7,2.94-2.7,1.89,0,3.011,1.015,3.011,2.7s-1.121,2.695-3.011,2.695C97.815,165.538,96.695,164.522,96.695,162.843Zm7.7,0c0-1.681,1.12-2.7,2.94-2.7,1.89,0,3.01,1.015,3.01,2.7s-1.12,2.695-3.01,2.695C105.516,165.538,104.4,164.522,104.4,162.843Z"/><path class="c" d="M122.525,178.944c0,1.54.386,2.17,1.611,2.17a5.041,5.041,0,0,0,1.785-.314l-.385,3.675a7.663,7.663,0,0,1-3.64.875c-3.746,0-5.321-1.645-5.321-5.531V160.077h5.95Z"/><path class="c" d="M126.795,182.27l3.08-3.361c1.05,1.75,2.94,2.486,5.181,2.486,1.645,0,2.625-.491,2.625-1.225,0-.665-.84-1.086-3.185-1.575-5.321-1.051-7.246-2.766-7.246-5.636s2.73-5.811,8.436-5.811c4.2,0,6.51,1.225,8.016,3.29l-3.081,3.011a5.273,5.273,0,0,0-4.76-2.345c-1.751,0-2.661.629-2.661,1.33s.77,1.155,3.221,1.61c5.18.91,7.246,2.556,7.246,5.565,0,3.221-2.7,5.741-8.332,5.741C131.485,185.35,128.58,184.439,126.795,182.27Z"/><path class="c" d="M164.281,173.344V185H158.33V174.989c0-2.485-1.015-3.325-2.485-3.325-1.715,0-3.15,1.19-3.15,4.13V185h-5.951V160.077H152.7v10.571a5.7,5.7,0,0,1,5.53-3.5C161.831,167.148,164.281,169.283,164.281,173.344Z"/><path class="c" d="M186.436,181.465l-.455,3.325a4.878,4.878,0,0,1-2.38.56c-2.345,0-3.991-.805-4.516-2.7-.98,1.681-3.01,2.7-6.23,2.7-3.465,0-5.426-1.54-5.426-4.375,0-2.906,1.855-4.761,6.826-5.741l3.955-.77v-.63a2.347,2.347,0,0,0-2.485-2.591,2.916,2.916,0,0,0-3.255,2.7l-4.831-1.4c.595-3.326,3.325-5.391,8.086-5.391,5.391,0,8.366,2.206,8.366,6.721v6.37q0,1.365,1.26,1.365A3.432,3.432,0,0,0,186.436,181.465Zm-8.226-2.45v-1.506l-2.835.665c-1.47.35-2.065.841-2.065,1.82s.63,1.506,1.715,1.506C176.495,181.5,178.21,180.625,178.21,179.015Z"/><path class="c" d="M215.241,167.5l-6.3,17.5h-7.106l-6.3-17.5H201.8l3.6,13.722,3.676-13.722Z"/><path class="c" d="M216.849,162.633c0-1.995,1.05-2.87,3.465-2.87s3.466.875,3.466,2.87c0,1.96-1.05,2.835-3.466,2.835S216.849,164.593,216.849,162.633ZM223.29,185h-5.951V167.5h5.951Z"/><path class="c" d="M226.229,182.27l3.08-3.361c1.05,1.75,2.941,2.486,5.181,2.486,1.645,0,2.625-.491,2.625-1.225,0-.665-.84-1.086-3.185-1.575-5.321-1.051-7.246-2.766-7.246-5.636s2.73-5.811,8.436-5.811c4.2,0,6.51,1.225,8.016,3.29l-3.081,3.011a5.273,5.273,0,0,0-4.76-2.345c-1.751,0-2.661.629-2.661,1.33s.77,1.155,3.221,1.61c5.18.91,7.246,2.556,7.246,5.565,0,3.221-2.7,5.741-8.331,5.741C230.919,185.35,228.014,184.439,226.229,182.27Z"/><path class="c" d="M245.688,162.633c0-1.995,1.05-2.87,3.465-2.87s3.466.875,3.466,2.87c0,1.96-1.05,2.835-3.466,2.835S245.688,164.593,245.688,162.633ZM252.129,185h-5.951V167.5h5.951Z"/><path class="c" d="M274,176.249c0,5.74-3.395,9.1-9.24,9.1s-9.242-3.361-9.242-9.1,3.4-9.1,9.242-9.1S274,170.509,274,176.249Zm-12.531,0c0,3.431,1.086,4.865,3.291,4.865s3.29-1.434,3.29-4.865-1.085-4.865-3.29-4.865S261.473,172.818,261.473,176.249Z"/><path class="c" d="M294.969,173.344V185h-5.95V174.989c0-2.485-1.015-3.291-2.485-3.291-1.716,0-3.151,1.156-3.151,4.061V185h-5.95V167.5h5.32l.175,3.4a6.1,6.1,0,0,1,5.986-3.746C292.519,167.148,294.969,169.283,294.969,173.344Z"/></g></g></svg>