<svg xmlns="http://www.w3.org/2000/svg" width="800" height="450" viewBox="0 0 800 450"><defs><style>.a{fill:#169d86;}.b{isolation:isolate;}.c{fill:#fff;}</style></defs><rect class="a" width="800" height="450"/><g class="b"><g class="b"><path class="c" d="M96.382,145H89.7l-7.176-12.5-1.75-3.5h-.035l.14,4.341V145H75.555V121.9h6.686l7.176,12.5,1.75,3.5H91.2l-.14-4.341V121.9h5.32Z"/><path class="c" d="M117.8,137.964H105.866a3.358,3.358,0,0,0,3.675,3.185c1.75,0,2.835-.7,3.22-1.924l4.831,1.54c-1.015,3.045-3.99,4.585-8.051,4.585-6.125,0-9.451-3.326-9.451-9.1s3.29-9.1,9.136-9.1c5.706,0,8.751,3.326,8.751,8.856A11.015,11.015,0,0,1,117.8,137.964Zm-11.936-3.22h6.58c-.315-2.24-1.4-3.431-3.255-3.431C107.3,131.313,106.181,132.363,105.866,134.744Z"/><path class="c" d="M150.108,127.5,144.823,145h-7.141l-3.151-11.236L131.416,145h-7.105l-5.321-17.5h6.265l2.941,13.161,3.43-13.161h5.881l3.395,13.231,2.975-13.231Z"/><path class="c" d="M178.667,132.573l-5.531,1.821c-.245-2.031-1.12-3.01-2.7-3.01-2.24,0-3.465,1.505-3.465,4.935,0,3.465,1.365,4.795,3.465,4.795,1.681,0,2.626-1.014,2.906-2.835l5.356,1.715c-.491,3.046-3.326,5.356-8.226,5.356-6.126,0-9.452-3.361-9.452-9.1s3.4-9.1,9.206-9.1C175.9,127.148,178.106,129.738,178.667,132.573Z"/><path class="c" d="M199.491,136.249c0,5.74-3.4,9.1-9.241,9.1s-9.241-3.361-9.241-9.1,3.4-9.1,9.241-9.1S199.491,130.509,199.491,136.249Zm-12.531,0c0,3.431,1.085,4.865,3.29,4.865s3.291-1.434,3.291-4.865-1.085-4.865-3.291-4.865S186.96,132.818,186.96,136.249Z"/><path class="c" d="M220.456,133.344V145h-5.95V134.989c0-2.485-1.015-3.291-2.485-3.291-1.716,0-3.151,1.156-3.151,4.061V145h-5.951V127.5h5.321l.175,3.4a6.1,6.1,0,0,1,5.985-3.746C218.006,127.148,220.456,129.283,220.456,133.344Z"/><path class="c" d="M241.421,132.573l-5.531,1.821c-.244-2.031-1.12-3.01-2.695-3.01-2.24,0-3.466,1.505-3.466,4.935,0,3.465,1.366,4.795,3.466,4.795,1.68,0,2.625-1.014,2.9-2.835l5.356,1.715c-.49,3.046-3.326,5.356-8.226,5.356-6.126,0-9.451-3.361-9.451-9.1s3.395-9.1,9.206-9.1C238.656,127.148,240.861,129.738,241.421,132.573Z"/><path class="c" d="M261.476,137.964H249.54a3.358,3.358,0,0,0,3.675,3.185c1.75,0,2.835-.7,3.22-1.924l4.831,1.54c-1.016,3.045-3.991,4.585-8.051,4.585-6.126,0-9.451-3.326-9.451-9.1s3.29-9.1,9.136-9.1c5.705,0,8.751,3.326,8.751,8.856A11.017,11.017,0,0,1,261.476,137.964Zm-11.936-3.22h6.58c-.315-2.24-1.4-3.431-3.255-3.431C250.975,131.313,249.854,132.363,249.54,134.744Z"/><path class="c" d="M283.42,136.179c0,5.81-2.73,9.171-7.21,9.171a5.645,5.645,0,0,1-5.286-3.255v10.256h-5.95V127.5h5.215l.175,3.711a6.054,6.054,0,0,1,5.846-4.061C280.76,127.148,283.42,130.474,283.42,136.179Zm-5.985.07c0-3.29-1.26-4.726-3.29-4.726-2,0-3.221,1.54-3.221,4.551v.35c0,2.9,1.155,4.551,3.221,4.551C276.175,140.975,277.435,139.539,277.435,136.249Z"/><path class="c" d="M299.52,144.02a9.309,9.309,0,0,1-4.936,1.33c-3.955,0-6.405-1.54-6.44-5.6v-8.016h-3.011V127.5h3.011v-3.92l5.95-1.645V127.5h5.251v4.235h-5.251v7.037a2.038,2.038,0,0,0,2.31,2.344,4.077,4.077,0,0,0,2.521-.769Z"/><path class="c" d="M329.8,120.077V145h-5.356l-.245-3.325a5.987,5.987,0,0,1-5.671,3.675c-4.55,0-7.211-3.326-7.211-9.031,0-5.81,2.731-9.171,7.211-9.171a5.627,5.627,0,0,1,5.321,3.326v-10.4Zm-5.986,16.347.035.035V136l-.035.07c0-2.9-1.155-4.551-3.22-4.551-2.03,0-3.291,1.436-3.291,4.726s1.261,4.726,3.291,4.726C322.584,140.975,323.809,139.435,323.809,136.424Z"/><path class="c" d="M350.9,137.964H338.963a3.36,3.36,0,0,0,3.676,3.185c1.75,0,2.835-.7,3.22-1.924l4.83,1.54c-1.015,3.045-3.99,4.585-8.05,4.585-6.126,0-9.452-3.326-9.452-9.1s3.291-9.1,9.137-9.1c5.7,0,8.751,3.326,8.751,8.856A11.009,11.009,0,0,1,350.9,137.964Zm-11.936-3.22h6.581c-.315-2.24-1.4-3.431-3.255-3.431C340.4,131.313,339.278,132.363,338.963,134.744Z"/><path class="c" d="M353.1,142.27l3.08-3.361c1.05,1.75,2.941,2.486,5.181,2.486,1.645,0,2.625-.491,2.625-1.225,0-.665-.84-1.086-3.185-1.575-5.321-1.051-7.246-2.766-7.246-5.636s2.73-5.811,8.436-5.811c4.2,0,6.51,1.225,8.016,3.29l-3.081,3.011a5.273,5.273,0,0,0-4.76-2.345c-1.751,0-2.661.629-2.661,1.33s.77,1.155,3.221,1.61c5.18.91,7.246,2.556,7.246,5.565,0,3.221-2.7,5.741-8.331,5.741C357.792,145.35,354.887,144.439,353.1,142.27Z"/><path class="c" d="M372.562,122.633c0-2,1.05-2.87,3.465-2.87s3.465.875,3.465,2.87c0,1.96-1.05,2.835-3.465,2.835S372.562,124.593,372.562,122.633ZM379,145h-5.95V127.5H379Z"/><path class="c" d="M400.7,146.365c0,4.061-3.92,6.16-9.836,6.16-6.336,0-8.961-1.609-8.961-4.129,0-1.436.945-2.766,3.22-3.291a3.929,3.929,0,0,1-2.66-3.64,3.849,3.849,0,0,1,2.836-3.57,5.146,5.146,0,0,1-2.836-4.8c0-3.781,3.116-5.951,8.541-5.951a17.407,17.407,0,0,1,3.5.35c.455-2.695,2.1-4.971,5.531-4.69l.665,3.955c-2.205-.315-3.57.421-4.1,1.506a5.167,5.167,0,0,1,2.94,4.83c0,3.78-3.115,5.916-8.541,5.916a16.127,16.127,0,0,1-3.36-.316c-.8.21-1.12.6-1.12,1.226,0,.769.665,1.189,1.82,1.189h5.986C398.358,141.114,400.7,142.865,400.7,146.365Zm-4.69.6c0-.7-.525-1.12-2.136-1.12h-4.8c-1.925,0-2.66.386-2.66,1.225,0,1.015,1.47,1.611,4.865,1.611C394.507,148.676,396.013,147.94,396.013,146.96Zm-7.6-13.861a2.591,2.591,0,0,0,5.18,0,2.59,2.59,0,0,0-5.18,0Z"/><path class="c" d="M420.582,133.344V145h-5.95V134.989c0-2.485-1.015-3.291-2.486-3.291-1.714,0-3.15,1.156-3.15,4.061V145h-5.95V127.5h5.32l.175,3.4a6.106,6.106,0,0,1,5.986-3.746C418.133,127.148,420.582,129.283,420.582,133.344Z"/><path class="c" d="M441.267,127.5h5.321v4.235h-4.971V145h-5.951V131.733h-2.8V127.5h2.8v-1.61c0-4.41,3.115-6.3,7.07-6.3a6.7,6.7,0,0,1,4.026,1.016l-.594,3.71a3.08,3.08,0,0,0-2-.56c-1.82,0-2.9.7-2.9,2.52Z"/><path class="c" d="M466.433,136.249c0,5.74-3.4,9.1-9.242,9.1s-9.24-3.361-9.24-9.1,3.4-9.1,9.24-9.1S466.433,130.509,466.433,136.249Zm-12.532,0c0,3.431,1.085,4.865,3.29,4.865s3.291-1.434,3.291-4.865-1.086-4.865-3.291-4.865S453.9,132.818,453.9,136.249Z"/><path class="c" d="M482.566,127.533l-.629,5.04a4.552,4.552,0,0,0-2.206-.524,3.785,3.785,0,0,0-3.92,4.13V145H469.86V127.5h5.251l.244,3.745c.876-2.59,2.591-4.095,5.322-4.095A4.019,4.019,0,0,1,482.566,127.533Z"/></g><g class="b"><path class="c" d="M73.84,187.27l3.08-3.361c1.051,1.75,2.941,2.486,5.181,2.486,1.645,0,2.625-.491,2.625-1.225,0-.665-.84-1.086-3.185-1.575-5.321-1.051-7.246-2.766-7.246-5.636s2.73-5.811,8.436-5.811c4.2,0,6.511,1.225,8.016,3.29l-3.08,3.011a5.276,5.276,0,0,0-4.761-2.345c-1.75,0-2.66.629-2.66,1.33s.77,1.155,3.22,1.61c5.18.91,7.246,2.556,7.246,5.565,0,3.221-2.695,5.741-8.331,5.741C78.531,190.35,75.625,189.439,73.84,187.27Z"/><path class="c" d="M112.237,181.179c0,5.81-2.73,9.171-7.211,9.171a5.645,5.645,0,0,1-5.285-3.255v10.256H93.79V172.5H99l.176,3.711a6.053,6.053,0,0,1,5.845-4.061C109.577,172.148,112.237,175.474,112.237,181.179Zm-5.986.07c0-3.29-1.26-4.726-3.29-4.726-1.995,0-3.22,1.54-3.22,4.551v.35c0,2.9,1.155,4.551,3.22,4.551C104.991,185.975,106.251,184.539,106.251,181.249Z"/><path class="c" d="M133.411,181.249c0,5.74-3.395,9.1-9.241,9.1s-9.241-3.361-9.241-9.1,3.4-9.1,9.241-9.1S133.411,175.509,133.411,181.249Zm-12.531,0c0,3.431,1.085,4.865,3.29,4.865s3.291-1.434,3.291-4.865-1.086-4.865-3.291-4.865S120.88,177.818,120.88,181.249Z"/><path class="c" d="M149.546,172.533l-.63,5.04a4.552,4.552,0,0,0-2.206-.524,3.785,3.785,0,0,0-3.92,4.13V190h-5.951V172.5h5.251l.245,3.745c.875-2.59,2.59-4.1,5.32-4.1A4.028,4.028,0,0,1,149.546,172.533Z"/><path class="c" d="M164.176,189.02a9.309,9.309,0,0,1-4.936,1.33c-3.955,0-6.406-1.54-6.441-5.6v-8.016h-3.01V172.5h3.01v-3.92l5.951-1.645V172.5H164v4.235h-5.25v7.037a2.038,2.038,0,0,0,2.31,2.344,4.079,4.079,0,0,0,2.521-.769Z"/><path class="c" d="M165.4,187.27l3.081-3.361c1.05,1.75,2.94,2.486,5.181,2.486,1.645,0,2.625-.491,2.625-1.225,0-.665-.84-1.086-3.185-1.575-5.321-1.051-7.246-2.766-7.246-5.636s2.73-5.811,8.436-5.811c4.2,0,6.51,1.225,8.016,3.29l-3.081,3.011a5.273,5.273,0,0,0-4.76-2.345c-1.751,0-2.661.629-2.661,1.33s.77,1.155,3.221,1.61c5.18.91,7.246,2.556,7.246,5.565,0,3.221-2.7,5.741-8.332,5.741C170.089,190.35,167.184,189.439,165.4,187.27Z"/><path class="c" d="M213.8,181.319c0,5.705-2.66,9.031-7.21,9.031a6.055,6.055,0,0,1-5.846-4.06l-.175,3.71h-5.216V165.077h5.951V175.4a5.645,5.645,0,0,1,5.286-3.255C211.075,172.148,213.8,175.509,213.8,181.319Zm-5.985-.07c0-3.29-1.26-4.726-3.291-4.726-2.065,0-3.22,1.646-3.22,4.551v.35c0,3.011,1.225,4.551,3.22,4.551C206.56,185.975,207.82,184.539,207.82,181.249Z"/><path class="c" d="M234.21,182.964H222.274a3.359,3.359,0,0,0,3.675,3.185c1.75,0,2.836-.7,3.22-1.924l4.831,1.54c-1.015,3.045-3.99,4.585-8.051,4.585-6.125,0-9.451-3.326-9.451-9.1s3.291-9.1,9.136-9.1c5.706,0,8.751,3.326,8.751,8.856A11.015,11.015,0,0,1,234.21,182.964Zm-11.936-3.22h6.58c-.314-2.24-1.4-3.431-3.255-3.431C223.709,176.313,222.589,177.363,222.274,179.744Z"/><path class="c" d="M263.506,189.02a9.307,9.307,0,0,1-4.936,1.33c-3.99,0-6.441-1.54-6.441-5.6v-8.016h-7.35v7.037c0,1.679.56,2.344,1.995,2.344a3.4,3.4,0,0,0,2.345-.8l.665,3.71a8.678,8.678,0,0,1-4.76,1.33c-3.816,0-6.161-1.54-6.2-5.6v-8.016h-3.01V172.5h3.01v-3.92l5.951-1.645V172.5h7.35v-3.92l5.951-1.645V172.5H263.3v4.235H258.08v7.037a2.038,2.038,0,0,0,2.311,2.344,4.154,4.154,0,0,0,2.52-.769Z"/><path class="c" d="M265.5,167.633c0-1.995,1.05-2.87,3.465-2.87s3.465.875,3.465,2.87c0,1.96-1.05,2.835-3.465,2.835S265.5,169.593,265.5,167.633ZM271.938,190h-5.95V172.5h5.95Z"/><path class="c" d="M293.709,178.344V190h-5.95V179.989c0-2.485-1.015-3.291-2.486-3.291-1.715,0-3.15,1.156-3.15,4.061V190h-5.951V172.5h5.321l.175,3.4a6.1,6.1,0,0,1,5.985-3.746C291.259,172.148,293.709,174.283,293.709,178.344Z"/><path class="c" d="M315.339,191.365c0,4.061-3.921,6.16-9.836,6.16-6.336,0-8.961-1.609-8.961-4.129,0-1.436.945-2.766,3.22-3.291a3.929,3.929,0,0,1-2.66-3.64,3.849,3.849,0,0,1,2.835-3.57,5.146,5.146,0,0,1-2.835-4.8c0-3.781,3.115-5.951,8.541-5.951a17.407,17.407,0,0,1,3.5.35c.455-2.7,2.1-4.971,5.531-4.69l.665,3.955c-2.2-.315-3.57.421-4.1,1.506a5.169,5.169,0,0,1,2.94,4.83c0,3.78-3.116,5.916-8.541,5.916a16.127,16.127,0,0,1-3.36-.316c-.8.21-1.12.6-1.12,1.226,0,.769.665,1.189,1.819,1.189h5.986C312.994,186.114,315.339,187.865,315.339,191.365Zm-4.691.6c0-.7-.524-1.12-2.135-1.12h-4.8c-1.926,0-2.66.386-2.66,1.225,0,1.015,1.469,1.611,4.865,1.611C309.143,193.676,310.648,192.94,310.648,191.96Zm-7.6-13.861a2.591,2.591,0,0,0,5.18,0,2.59,2.59,0,0,0-5.18,0Z"/><path class="c" d="M327.2,167.633c0-1.995,1.05-2.87,3.466-2.87s3.465.875,3.465,2.87c0,1.96-1.05,2.835-3.465,2.835S327.2,169.593,327.2,167.633ZM333.642,190h-5.951V172.5h5.951Z"/><path class="c" d="M355.413,178.344V190h-5.951V179.989c0-2.485-1.015-3.291-2.485-3.291-1.715,0-3.15,1.156-3.15,4.061V190h-5.951V172.5h5.32l.176,3.4a6.1,6.1,0,0,1,5.985-3.746C352.962,172.148,355.413,174.283,355.413,178.344Z"/><path class="c" d="M388.838,171.553h-7.526V190h-6.02V171.553H367.73V166.9h21.108Z"/><path class="c" d="M407.107,172.5V190h-5.32l-.176-3.255c-1.084,2.45-3.219,3.605-6.055,3.605-3.57,0-5.985-1.75-5.985-6.161V172.5h5.95v10.187c0,2.379.875,3.115,2.416,3.115,1.855,0,3.219-1.226,3.219-4.026V172.5Z"/><path class="c" d="M424.082,172.533l-.63,5.04a4.548,4.548,0,0,0-2.2-.524,3.785,3.785,0,0,0-3.921,4.13V190h-5.95V172.5h5.251l.244,3.745c.875-2.59,2.591-4.1,5.32-4.1A4.028,4.028,0,0,1,424.082,172.533Z"/><path class="c" d="M435.176,182.824l-2.8,3.151V190h-5.95V165.077h5.95v14.772l6.686-7.351h6.581l-6.442,6.861L446.027,190h-6.58Z"/><path class="c" d="M464.122,182.964H452.186a3.358,3.358,0,0,0,3.675,3.185c1.75,0,2.836-.7,3.221-1.924l4.83,1.54c-1.016,3.045-3.99,4.585-8.051,4.585-6.125,0-9.451-3.326-9.451-9.1s3.291-9.1,9.137-9.1c5.705,0,8.75,3.326,8.75,8.856A11.017,11.017,0,0,1,464.122,182.964Zm-11.936-3.22h6.581c-.316-2.24-1.4-3.431-3.255-3.431C453.621,176.313,452.5,177.363,452.186,179.744Z"/><path class="c" d="M478.437,190c-1.926,5.565-4.237,7.525-8.681,7.525a7.933,7.933,0,0,1-4.762-1.295l1.261-3.99a4,4,0,0,0,3.011.91,2.45,2.45,0,0,0,2.73-1.68l.42-1.085-2.031-4.76L465.17,172.5h6.545l2.7,9.977.841,3.71.945-3.851,2.695-9.836h5.951Z"/></g></g></svg>