<svg xmlns="http://www.w3.org/2000/svg" width="587" height="272" viewBox="0 0 587 272"><defs><style>.a{fill:#159d86;}.b{isolation:isolate;}.c{fill:#fff;}</style></defs><g transform="translate(-26 -397)"><rect class="a" width="587" height="272" transform="translate(26 397)"/><g class="b"><g class="b"><path class="c" d="M337.2,461h-3.821l-4.1-7.141-1-2h-.02l.08,2.48V461H325.3V447.8h3.821l4.1,7.142,1,2h.02l-.08-2.481V447.8H337.2Z"/><path class="c" d="M349.442,456.98h-6.821a1.919,1.919,0,0,0,2.1,1.82,1.7,1.7,0,0,0,1.841-1.1l2.76.88c-.58,1.741-2.28,2.621-4.6,2.621-3.5,0-5.4-1.9-5.4-5.2s1.881-5.2,5.222-5.2c3.26,0,5,1.9,5,5.062A6.306,6.306,0,0,1,349.442,456.98Zm-6.821-1.841h3.761c-.18-1.28-.8-1.96-1.861-1.96C343.441,453.179,342.8,453.779,342.621,455.139Z"/><path class="c" d="M367.9,451l-3.02,10H360.8l-1.8-6.42-1.78,6.42H353.16l-3.04-10h3.58l1.681,7.521,1.96-7.521H360.7l1.94,7.561,1.7-7.561Z"/><path class="c" d="M384.222,453.9l-3.161,1.04c-.14-1.16-.64-1.72-1.54-1.72-1.281,0-1.98.86-1.98,2.821,0,1.98.779,2.74,1.98,2.74.96,0,1.5-.58,1.66-1.62l3.061.98c-.28,1.74-1.9,3.061-4.7,3.061-3.5,0-5.4-1.921-5.4-5.2s1.94-5.2,5.261-5.2C382.642,450.8,383.9,452.279,384.222,453.9Z"/><path class="c" d="M396.122,456c0,3.28-1.941,5.2-5.281,5.2s-5.281-1.921-5.281-5.2,1.94-5.2,5.281-5.2S396.122,452.718,396.122,456Zm-7.162,0c0,1.959.621,2.78,1.881,2.78s1.88-.821,1.88-2.78-.62-2.781-1.88-2.781S388.96,454.039,388.96,456Z"/><path class="c" d="M408.1,454.339V461h-3.4v-5.721c0-1.42-.58-1.88-1.42-1.88-.98,0-1.8.66-1.8,2.32V461h-3.4V451h3.04l.1,1.94a3.489,3.489,0,0,1,3.421-2.141A3.219,3.219,0,0,1,408.1,454.339Z"/><path class="c" d="M420.082,453.9l-3.161,1.04c-.14-1.16-.64-1.72-1.541-1.72-1.28,0-1.98.86-1.98,2.821,0,1.98.78,2.74,1.98,2.74.961,0,1.5-.58,1.661-1.62l3.061.98c-.281,1.74-1.9,3.061-4.7,3.061-3.5,0-5.4-1.921-5.4-5.2s1.94-5.2,5.261-5.2C418.5,450.8,419.762,452.279,420.082,453.9Z"/><path class="c" d="M431.542,456.98H424.72a1.919,1.919,0,0,0,2.1,1.82,1.7,1.7,0,0,0,1.841-1.1l2.76.88c-.58,1.741-2.28,2.621-4.6,2.621-3.5,0-5.4-1.9-5.4-5.2s1.881-5.2,5.222-5.2c3.26,0,5,1.9,5,5.062A6.308,6.308,0,0,1,431.542,456.98Zm-6.822-1.841h3.761c-.18-1.28-.8-1.96-1.86-1.96C425.54,453.179,424.9,453.779,424.72,455.139Z"/><path class="c" d="M444.082,455.959c0,3.321-1.561,5.242-4.122,5.242a3.226,3.226,0,0,1-3.02-1.861V465.2h-3.4V451h2.981l.1,2.12a3.46,3.46,0,0,1,3.34-2.321C442.561,450.8,444.082,452.7,444.082,455.959Zm-3.421.041c0-1.881-.721-2.7-1.881-2.7-1.14,0-1.84.88-1.84,2.6v.2c0,1.661.66,2.6,1.84,2.6C439.94,458.7,440.661,457.879,440.661,456Z"/><path class="c" d="M453.281,460.44a5.312,5.312,0,0,1-2.821.761c-2.26,0-3.661-.88-3.681-3.2v-4.582h-1.72V451h1.72v-2.241l3.4-.94V451h3v2.419h-3v4.022a1.165,1.165,0,0,0,1.32,1.34,2.325,2.325,0,0,0,1.44-.44Z"/><path class="c" d="M470.581,446.757V461h-3.06l-.141-1.9a3.422,3.422,0,0,1-3.24,2.1c-2.6,0-4.121-1.9-4.121-5.161,0-3.322,1.56-5.242,4.121-5.242a3.217,3.217,0,0,1,3.041,1.9v-5.942Zm-3.42,9.342.02.021v-.26l-.02.039c0-1.66-.661-2.6-1.841-2.6-1.16,0-1.881.82-1.881,2.7s.721,2.7,1.881,2.7C466.46,458.7,467.161,457.82,467.161,456.1Z"/><path class="c" d="M482.641,456.98h-6.822a1.919,1.919,0,0,0,2.1,1.82,1.7,1.7,0,0,0,1.841-1.1l2.761.88c-.581,1.741-2.281,2.621-4.6,2.621-3.5,0-5.4-1.9-5.4-5.2s1.88-5.2,5.221-5.2c3.26,0,5,1.9,5,5.062A6.308,6.308,0,0,1,482.641,456.98Zm-6.822-1.841h3.761c-.18-1.28-.8-1.96-1.86-1.96C476.639,453.179,476,453.779,475.819,455.139Z"/><path class="c" d="M483.9,459.44l1.76-1.92a3.227,3.227,0,0,0,2.961,1.42c.94,0,1.5-.28,1.5-.7,0-.38-.481-.62-1.821-.9-3.041-.6-4.141-1.58-4.141-3.22s1.56-3.321,4.821-3.321c2.4,0,3.721.7,4.581,1.88L491.8,454.4a3.013,3.013,0,0,0-2.721-1.34c-1,0-1.52.359-1.52.76s.44.66,1.84.92c2.961.52,4.141,1.461,4.141,3.18,0,1.841-1.54,3.282-4.761,3.282C486.579,461.2,484.918,460.68,483.9,459.44Z"/><path class="c" d="M495.019,448.217c0-1.139.6-1.639,1.98-1.639s1.98.5,1.98,1.639c0,1.121-.6,1.621-1.98,1.621S495.019,449.338,495.019,448.217ZM498.7,461h-3.4V451h3.4Z"/><path class="c" d="M511.1,461.781c0,2.32-2.241,3.52-5.621,3.52-3.621,0-5.122-.92-5.122-2.36,0-.82.54-1.58,1.841-1.881a2.244,2.244,0,0,1-1.52-2.08,2.2,2.2,0,0,1,1.62-2.04,2.941,2.941,0,0,1-1.62-2.741c0-2.16,1.78-3.4,4.881-3.4a9.87,9.87,0,0,1,2,.2,2.836,2.836,0,0,1,3.161-2.681l.38,2.261c-1.261-.181-2.04.239-2.341.859a2.956,2.956,0,0,1,1.681,2.761c0,2.161-1.781,3.381-4.881,3.381a9.221,9.221,0,0,1-1.921-.18c-.46.12-.64.34-.64.7,0,.44.38.68,1.041.68h3.42C509.76,458.78,511.1,459.78,511.1,461.781Zm-2.681.34c0-.4-.3-.64-1.22-.64h-2.741c-1.1,0-1.52.22-1.52.7,0,.58.84.92,2.781.92C507.559,463.1,508.419,462.681,508.419,462.121Zm-4.341-7.922a1.481,1.481,0,0,0,2.961,0,1.481,1.481,0,0,0-2.961,0Z"/><path class="c" d="M522.459,454.339V461h-3.4v-5.721c0-1.42-.58-1.88-1.42-1.88-.981,0-1.8.66-1.8,2.32V461h-3.4V451h3.041l.1,1.94A3.488,3.488,0,0,1,519,450.8,3.218,3.218,0,0,1,522.459,454.339Z"/><path class="c" d="M534.278,451h3.041v2.419h-2.84V461h-3.4v-7.582h-1.6V451h1.6v-.92c0-2.522,1.78-3.6,4.041-3.6a3.838,3.838,0,0,1,2.3.58l-.34,2.121a1.76,1.76,0,0,0-1.141-.32c-1.04,0-1.66.4-1.66,1.44Z"/><path class="c" d="M548.66,456c0,3.28-1.94,5.2-5.281,5.2S538.1,459.28,538.1,456s1.94-5.2,5.281-5.2S548.66,452.718,548.66,456Zm-7.161,0c0,1.959.62,2.78,1.88,2.78s1.881-.821,1.881-2.78-.62-2.781-1.881-2.781S541.5,454.039,541.5,456Z"/><path class="c" d="M557.879,451.018l-.36,2.881a2.6,2.6,0,0,0-1.26-.3,2.163,2.163,0,0,0-2.24,2.36V461h-3.4V451h3l.14,2.14A3.038,3.038,0,0,1,556.8,450.8,2.3,2.3,0,0,1,557.879,451.018Z"/></g><g class="b"><path class="c" d="M323.14,489.44l1.76-1.92a3.227,3.227,0,0,0,2.961,1.42c.94,0,1.5-.28,1.5-.7,0-.38-.481-.62-1.821-.9-3.041-.6-4.141-1.58-4.141-3.22s1.56-3.321,4.821-3.321c2.4,0,3.721.7,4.581,1.88l-1.76,1.721a3.013,3.013,0,0,0-2.721-1.34c-1,0-1.52.359-1.52.76s.44.66,1.841.92c2.96.52,4.14,1.461,4.14,3.18,0,1.841-1.54,3.282-4.761,3.282C325.821,491.2,324.161,490.68,323.14,489.44Z"/><path class="c" d="M345.083,485.959c0,3.321-1.561,5.242-4.122,5.242a3.226,3.226,0,0,1-3.02-1.861V495.2h-3.4V481h2.981l.1,2.12a3.46,3.46,0,0,1,3.34-2.321C343.562,480.8,345.083,482.7,345.083,485.959Zm-3.421.041c0-1.881-.721-2.7-1.881-2.7-1.14,0-1.84.88-1.84,2.6v.2c0,1.661.66,2.6,1.84,2.6C340.941,488.7,341.662,487.879,341.662,486Z"/><path class="c" d="M357.182,486c0,3.28-1.94,5.2-5.281,5.2s-5.281-1.921-5.281-5.2,1.941-5.2,5.281-5.2S357.182,482.718,357.182,486Zm-7.161,0c0,1.959.62,2.78,1.88,2.78s1.881-.821,1.881-2.78-.62-2.781-1.881-2.781S350.021,484.039,350.021,486Z"/><path class="c" d="M366.4,481.018l-.36,2.881a2.592,2.592,0,0,0-1.26-.3,2.163,2.163,0,0,0-2.24,2.36V491h-3.4V481h3l.14,2.14a3.039,3.039,0,0,1,3.041-2.341A2.3,2.3,0,0,1,366.4,481.018Z"/><path class="c" d="M374.761,490.44a5.31,5.31,0,0,1-2.821.761c-2.26,0-3.66-.88-3.68-3.2v-4.582h-1.72V481h1.72v-2.241l3.4-.94V481h3v2.419h-3v4.022a1.165,1.165,0,0,0,1.32,1.34,2.329,2.329,0,0,0,1.44-.44Z"/><path class="c" d="M375.459,489.44l1.761-1.92a3.225,3.225,0,0,0,2.961,1.42c.94,0,1.5-.28,1.5-.7,0-.38-.48-.62-1.821-.9-3.04-.6-4.14-1.58-4.14-3.22s1.56-3.321,4.821-3.321c2.4,0,3.721.7,4.581,1.88l-1.761,1.721a3.011,3.011,0,0,0-2.72-1.34c-1,0-1.52.359-1.52.76s.44.66,1.84.92c2.96.52,4.141,1.461,4.141,3.18,0,1.841-1.54,3.282-4.761,3.282C378.14,491.2,376.48,490.68,375.459,489.44Z"/><path class="c" d="M403.122,486.04c0,3.26-1.52,5.161-4.121,5.161a3.462,3.462,0,0,1-3.341-2.321l-.1,2.12h-2.98V476.757h3.4v5.9A3.229,3.229,0,0,1,399,480.8C401.562,480.8,403.122,482.718,403.122,486.04ZM399.7,486c0-1.881-.72-2.7-1.88-2.7-1.18,0-1.841.94-1.841,2.6v.2c0,1.721.7,2.6,1.841,2.6C398.981,488.7,399.7,487.879,399.7,486Z"/><path class="c" d="M414.781,486.98H407.96a1.919,1.919,0,0,0,2.1,1.82,1.7,1.7,0,0,0,1.841-1.1l2.76.88c-.58,1.741-2.28,2.621-4.6,2.621-3.5,0-5.4-1.9-5.4-5.2s1.881-5.2,5.221-5.2c3.261,0,5,1.9,5,5.062A6.308,6.308,0,0,1,414.781,486.98Zm-6.821-1.841h3.761c-.18-1.28-.8-1.96-1.861-1.96C408.78,483.179,408.14,483.779,407.96,485.139Z"/><path class="c" d="M431.522,490.44a5.309,5.309,0,0,1-2.82.761c-2.281,0-3.681-.88-3.681-3.2v-4.582h-4.2v4.022c0,.96.32,1.34,1.14,1.34a1.947,1.947,0,0,0,1.341-.46l.38,2.12a4.954,4.954,0,0,1-2.721.761c-2.18,0-3.521-.88-3.541-3.2v-4.582H415.7V481h1.72v-2.241l3.4-.94V481h4.2v-2.241l3.4-.94V481h2.98v2.419h-2.98v4.022a1.165,1.165,0,0,0,1.32,1.34,2.371,2.371,0,0,0,1.44-.44Z"/><path class="c" d="M432.659,478.217c0-1.139.6-1.639,1.98-1.639s1.981.5,1.981,1.639c0,1.121-.6,1.621-1.981,1.621S432.659,479.338,432.659,478.217ZM436.34,491h-3.4V481h3.4Z"/><path class="c" d="M448.781,484.339V491h-3.4v-5.721c0-1.42-.58-1.88-1.42-1.88-.981,0-1.8.66-1.8,2.32V491h-3.4V481h3.04l.1,1.94a3.49,3.49,0,0,1,3.421-2.141A3.219,3.219,0,0,1,448.781,484.339Z"/><path class="c" d="M461.141,491.781c0,2.32-2.241,3.52-5.621,3.52-3.621,0-5.122-.92-5.122-2.36,0-.82.54-1.58,1.841-1.881a2.244,2.244,0,0,1-1.52-2.08,2.2,2.2,0,0,1,1.62-2.04,2.941,2.941,0,0,1-1.62-2.741c0-2.16,1.78-3.4,4.881-3.4a9.87,9.87,0,0,1,2,.2,2.836,2.836,0,0,1,3.161-2.681l.38,2.261c-1.261-.181-2.04.239-2.341.859a2.956,2.956,0,0,1,1.681,2.761c0,2.161-1.781,3.381-4.881,3.381a9.221,9.221,0,0,1-1.921-.18c-.46.12-.64.34-.64.7,0,.44.38.68,1.041.68h3.42C459.8,488.78,461.141,489.78,461.141,491.781Zm-2.681.34c0-.4-.3-.64-1.22-.64H454.5c-1.1,0-1.521.22-1.521.7,0,.58.84.92,2.781.92C457.6,493.1,458.46,492.681,458.46,492.121Zm-4.341-7.922a1.481,1.481,0,0,0,2.961,0,1.481,1.481,0,0,0-2.961,0Z"/><path class="c" d="M467.918,478.217c0-1.139.6-1.639,1.98-1.639s1.981.5,1.981,1.639c0,1.121-.6,1.621-1.981,1.621S467.918,479.338,467.918,478.217ZM471.6,491h-3.4V481h3.4Z"/><path class="c" d="M484.04,484.339V491h-3.4v-5.721c0-1.42-.58-1.88-1.421-1.88-.98,0-1.8.66-1.8,2.32V491h-3.4V481h3.041l.1,1.94a3.488,3.488,0,0,1,3.421-2.141A3.218,3.218,0,0,1,484.04,484.339Z"/><path class="c" d="M503.14,480.458h-4.3V491H495.4V480.458h-4.32V477.8H503.14Z"/><path class="c" d="M513.58,481v10h-3.041l-.1-1.86a3.472,3.472,0,0,1-3.46,2.061c-2.041,0-3.421-1-3.421-3.521V481h3.4v5.821c0,1.36.5,1.78,1.381,1.78,1.06,0,1.84-.7,1.84-2.3V481Z"/><path class="c" d="M523.28,481.018l-.361,2.881a2.589,2.589,0,0,0-1.26-.3,2.163,2.163,0,0,0-2.24,2.36V491h-3.4V481h3l.14,2.14a3.038,3.038,0,0,1,3.04-2.341A2.3,2.3,0,0,1,523.28,481.018Z"/><path class="c" d="M529.619,486.9l-1.6,1.8V491h-3.4V476.757h3.4V485.2l3.82-4.2H535.6l-3.681,3.92,3.9,6.081h-3.761Z"/><path class="c" d="M546.159,486.98h-6.821a1.919,1.919,0,0,0,2.1,1.82,1.705,1.705,0,0,0,1.841-1.1l2.76.88c-.58,1.741-2.28,2.621-4.6,2.621-3.5,0-5.4-1.9-5.4-5.2s1.88-5.2,5.221-5.2c3.261,0,5,1.9,5,5.062A6.213,6.213,0,0,1,546.159,486.98Zm-6.821-1.841H543.1c-.18-1.28-.8-1.96-1.861-1.96C540.158,483.179,539.518,483.779,539.338,485.139Z"/><path class="c" d="M554.339,491c-1.1,3.181-2.421,4.3-4.961,4.3a4.524,4.524,0,0,1-2.721-.74l.72-2.28a2.284,2.284,0,0,0,1.721.52,1.4,1.4,0,0,0,1.56-.961l.239-.62-1.16-2.72-2.98-7.5H550.5l1.54,5.7.481,2.12.54-2.2L554.6,481H558Z"/></g></g></g></svg>