<svg xmlns="http://www.w3.org/2000/svg" width="800" height="450" viewBox="0 0 800 450"><defs><style>.a{fill:#3070b7;}.b{isolation:isolate;}.c{fill:#fff;}</style></defs><g transform="translate(75.258 98.969)"><rect class="a" width="800" height="450" transform="translate(-75.258 -98.968)"/><g class="b"><g class="b"><path class="c" d="M12.234,40.6v8.436H6.213V40.6L-1.943,25.929H4.288l3.255,6.336,1.715,3.851,1.751-3.851,3.255-6.336H20.39Z"/><path class="c" d="M36.7,40.281c0,5.74-3.4,9.1-9.241,9.1s-9.241-3.36-9.241-9.1,3.4-9.1,9.241-9.1S36.7,34.541,36.7,40.281Zm-12.531,0c0,3.43,1.085,4.865,3.29,4.865s3.291-1.435,3.291-4.865-1.085-4.865-3.291-4.865S24.168,36.85,24.168,40.281Z"/><path class="c" d="M57.559,31.53v17.5h-5.32l-.176-3.255c-1.084,2.45-3.22,3.6-6.055,3.6-3.57,0-5.986-1.75-5.986-6.16V31.53h5.951V41.716c0,2.38.875,3.116,2.415,3.116,1.856,0,3.22-1.226,3.22-4.026V31.53Z"/><path class="c" d="M74.533,31.565,73.9,36.6a4.548,4.548,0,0,0-2.205-.524,3.785,3.785,0,0,0-3.92,4.129v8.822H61.827V31.53h5.251l.245,3.745c.875-2.59,2.59-4.1,5.32-4.1A4.023,4.023,0,0,1,74.533,31.565Z"/><path class="c" d="M92.873,31.53h5.32v4.235h-4.97V49.032H87.272V35.765h-2.8V31.53h2.8V29.919c0-4.41,3.116-6.3,7.071-6.3a6.7,6.7,0,0,1,4.025,1.015l-.595,3.71a3.077,3.077,0,0,0-2-.559c-1.82,0-2.9.7-2.9,2.52Z"/><path class="c" d="M118.179,45.5l-.455,3.325a4.878,4.878,0,0,1-2.38.559c-2.345,0-3.991-.8-4.516-2.695-.98,1.681-3.01,2.695-6.23,2.695-3.466,0-5.426-1.54-5.426-4.375,0-2.9,1.855-4.76,6.826-5.74l3.955-.77v-.63a2.347,2.347,0,0,0-2.485-2.591,2.917,2.917,0,0,0-3.256,2.695l-4.83-1.4c.595-3.326,3.325-5.391,8.086-5.391,5.39,0,8.365,2.2,8.365,6.721v6.37q0,1.365,1.261,1.365A3.432,3.432,0,0,0,118.179,45.5Zm-8.226-2.451V41.541l-2.835.665c-1.471.35-2.065.84-2.065,1.82s.63,1.506,1.715,1.506C108.238,45.532,109.953,44.657,109.953,43.046Z"/><path class="c" d="M137.289,31.53l-6.3,17.5h-7.106l-6.3-17.5h6.265l3.606,13.721,3.675-13.721Z"/><path class="c" d="M156.644,40.281c0,5.74-3.4,9.1-9.241,9.1s-9.241-3.36-9.241-9.1,3.4-9.1,9.241-9.1S156.644,34.541,156.644,40.281Zm-12.532,0c0,3.43,1.086,4.865,3.291,4.865s3.29-1.435,3.29-4.865-1.085-4.865-3.29-4.865S144.112,36.85,144.112,40.281Z"/><path class="c" d="M172.778,31.565l-.63,5.04a4.548,4.548,0,0,0-2.205-.524,3.786,3.786,0,0,0-3.921,4.129v8.822h-5.95V31.53h5.25l.245,3.745c.875-2.59,2.591-4.1,5.321-4.1A4.027,4.027,0,0,1,172.778,31.565Z"/><path class="c" d="M174.631,26.665c0-2,1.051-2.871,3.466-2.871s3.465.875,3.465,2.871c0,1.96-1.05,2.835-3.465,2.835S174.631,28.625,174.631,26.665Zm6.441,22.367h-5.95V31.53h5.95Z"/><path class="c" d="M198.013,48.051a9.3,9.3,0,0,1-4.936,1.33c-3.955,0-6.406-1.54-6.441-5.6V35.765h-3.01V31.53h3.01V27.61l5.951-1.646V31.53h5.25v4.235h-5.25V42.8a2.038,2.038,0,0,0,2.31,2.345,4.07,4.07,0,0,0,2.52-.77Z"/><path class="c" d="M217.4,42H205.466a3.359,3.359,0,0,0,3.676,3.185c1.75,0,2.835-.7,3.22-1.925l4.83,1.54c-1.015,3.045-3.99,4.585-8.05,4.585-6.126,0-9.452-3.325-9.452-9.1s3.291-9.1,9.137-9.1c5.705,0,8.751,3.325,8.751,8.856A11.017,11.017,0,0,1,217.4,42Zm-11.936-3.22h6.581c-.315-2.24-1.4-3.431-3.255-3.431C206.9,35.345,205.781,36.4,205.466,38.776Z"/><path class="c" d="M259.473,31.53l-5.285,17.5h-7.141L243.9,37.795l-3.115,11.237h-7.105l-5.321-17.5h6.266l2.94,13.161,3.43-13.161h5.881l3.4,13.231,2.975-13.231Z"/><path class="c" d="M279.212,40.281c0,5.74-3.4,9.1-9.241,9.1s-9.241-3.36-9.241-9.1,3.395-9.1,9.241-9.1S279.212,34.541,279.212,40.281Zm-12.531,0c0,3.43,1.085,4.865,3.29,4.865s3.291-1.435,3.291-4.865-1.086-4.865-3.291-4.865S266.681,36.85,266.681,40.281Z"/><path class="c" d="M295.347,31.565l-.631,5.04a4.548,4.548,0,0,0-2.205-.524,3.785,3.785,0,0,0-3.92,4.129v8.822H282.64V31.53h5.251l.245,3.745c.875-2.59,2.59-4.1,5.32-4.1A4.031,4.031,0,0,1,295.347,31.565Z"/><path class="c" d="M315.227,24.109V49.032h-5.356l-.245-3.325a5.986,5.986,0,0,1-5.67,3.674c-4.551,0-7.211-3.325-7.211-9.03,0-5.81,2.73-9.171,7.211-9.171a5.626,5.626,0,0,1,5.32,3.325v-10.4Zm-5.986,16.347.035.035v-.455l-.035.07c0-2.9-1.155-4.551-3.22-4.551-2.03,0-3.291,1.436-3.291,4.726s1.261,4.725,3.291,4.725C308.016,45.006,309.241,43.466,309.241,40.456Z"/><path class="c" d="M346.937,50.4c0,4.061-3.921,6.16-9.836,6.16-6.336,0-8.961-1.609-8.961-4.13,0-1.435.944-2.765,3.22-3.29a3.927,3.927,0,0,1-2.66-3.64,3.85,3.85,0,0,1,2.835-3.571,5.145,5.145,0,0,1-2.835-4.8c0-3.78,3.115-5.95,8.541-5.95a17.407,17.407,0,0,1,3.5.35c.455-2.7,2.1-4.971,5.53-4.691l.666,3.955c-2.206-.314-3.571.421-4.1,1.506a5.168,5.168,0,0,1,2.94,4.83c0,3.781-3.115,5.916-8.54,5.916a16.133,16.133,0,0,1-3.361-.315c-.8.21-1.12.6-1.12,1.226,0,.769.665,1.189,1.82,1.189h5.986C344.591,45.146,346.937,46.9,346.937,50.4Zm-4.691.6c0-.7-.525-1.12-2.135-1.12h-4.8c-1.925,0-2.66.385-2.66,1.225,0,1.015,1.47,1.611,4.866,1.611C340.741,52.708,342.246,51.972,342.246,50.992Zm-7.6-13.862a2.591,2.591,0,0,0,5.181,0,2.591,2.591,0,0,0-5.181,0Z"/><path class="c" d="M367.271,45.5l-.455,3.325a4.878,4.878,0,0,1-2.38.559c-2.345,0-3.991-.8-4.516-2.695-.98,1.681-3.01,2.695-6.23,2.695-3.465,0-5.426-1.54-5.426-4.375,0-2.9,1.855-4.76,6.826-5.74l3.955-.77v-.63a2.347,2.347,0,0,0-2.485-2.591A2.916,2.916,0,0,0,353.3,37.97l-4.831-1.4c.6-3.326,3.325-5.391,8.086-5.391,5.391,0,8.366,2.2,8.366,6.721v6.37q0,1.365,1.26,1.365A3.432,3.432,0,0,0,367.271,45.5Zm-8.226-2.451V41.541l-2.835.665c-1.47.35-2.065.84-2.065,1.82s.63,1.506,1.715,1.506C357.33,45.532,359.045,44.657,359.045,43.046Z"/><path class="c" d="M398.388,37.375l-.071,11.657h-5.88V38.741c0-2.205-.945-3.011-2.381-3.011-1.785,0-3.08,1.33-3.08,3.956v9.346h-5.951V38.741c0-2.205-.98-3.011-2.38-3.011-1.645,0-3.08,1.19-3.08,4.061v9.241h-5.951V31.53h5.321l.175,3.36a6.111,6.111,0,0,1,5.88-3.71,5.54,5.54,0,0,1,5.566,3.535A6.23,6.23,0,0,1,392.4,31.18C395.832,31.18,398.422,33.28,398.388,37.375Z"/><path class="c" d="M419.421,42H407.484a3.36,3.36,0,0,0,3.676,3.185c1.75,0,2.835-.7,3.221-1.925l4.83,1.54c-1.015,3.045-3.99,4.585-8.051,4.585-6.126,0-9.451-3.325-9.451-9.1s3.291-9.1,9.136-9.1c5.706,0,8.751,3.325,8.751,8.856A11.023,11.023,0,0,1,419.421,42Zm-11.937-3.22h6.581c-.315-2.24-1.4-3.431-3.254-3.431C408.92,35.345,407.8,36.4,407.484,38.776Z"/><path class="c" d="M429.534,47.527a7.482,7.482,0,0,1-4.865,7.035l-2.626-1.854c2.136-.806,3.746-2.066,4.341-3.747l-.14-.1a1.334,1.334,0,0,1-1.086.385,2.813,2.813,0,0,1-2.9-2.941c0-2.134,1.435-3.29,3.5-3.29C428.309,43.011,429.534,45.006,429.534,47.527Z"/></g><g class="b"><path class="c" d="M12.584,76.565l-.63,5.04a4.548,4.548,0,0,0-2.205-.524A3.785,3.785,0,0,0,5.828,85.21v8.822H-.123V76.53H5.128l.245,3.745c.875-2.59,2.59-4.1,5.32-4.1A4.028,4.028,0,0,1,12.584,76.565Z"/><path class="c" d="M31.589,87H19.653a3.359,3.359,0,0,0,3.675,3.185c1.75,0,2.836-.7,3.22-1.925l4.831,1.54c-1.015,3.045-3.99,4.585-8.051,4.585-6.125,0-9.451-3.325-9.451-9.1s3.29-9.1,9.136-9.1c5.706,0,8.751,3.325,8.751,8.856A11.024,11.024,0,0,1,31.589,87Zm-11.936-3.22h6.58c-.315-2.24-1.4-3.431-3.255-3.431C21.088,80.345,19.968,81.395,19.653,83.776Z"/><path class="c" d="M34.6,71.665c0-2,1.05-2.871,3.465-2.871s3.465.875,3.465,2.871c0,1.96-1.049,2.835-3.465,2.835S34.6,73.625,34.6,71.665Zm6.441,22.367H35.087V76.53h5.951Z"/><path class="c" d="M74.044,82.375l-.069,11.657H68.094V83.741c0-2.2-.945-3.011-2.381-3.011-1.785,0-3.08,1.33-3.08,3.956v9.346h-5.95V83.741c0-2.2-.98-3.011-2.381-3.011-1.645,0-3.08,1.19-3.08,4.061v9.241H45.271V76.53h5.321l.175,3.36a6.111,6.111,0,0,1,5.88-3.71,5.54,5.54,0,0,1,5.566,3.535,6.23,6.23,0,0,1,5.846-3.535C71.489,76.18,74.08,78.28,74.044,82.375Z"/><path class="c" d="M96.2,90.5l-.455,3.325a4.878,4.878,0,0,1-2.38.559c-2.345,0-3.991-.8-4.516-2.695-.98,1.681-3.01,2.695-6.23,2.695-3.466,0-5.426-1.54-5.426-4.375,0-2.9,1.855-4.76,6.826-5.74l3.955-.77v-.63a2.347,2.347,0,0,0-2.485-2.591,2.918,2.918,0,0,0-3.256,2.695l-4.83-1.4c.6-3.326,3.325-5.391,8.086-5.391,5.39,0,8.366,2.205,8.366,6.721v6.37q0,1.365,1.26,1.365A3.432,3.432,0,0,0,96.2,90.5Zm-8.226-2.451v-1.5l-2.835.665c-1.47.35-2.066.84-2.066,1.82s.631,1.506,1.716,1.506C86.257,90.532,87.972,89.657,87.972,88.046Z"/><path class="c" d="M116.182,95.4c0,4.061-3.92,6.16-9.836,6.16-6.336,0-8.961-1.609-8.961-4.13,0-1.435.945-2.765,3.22-3.29a3.93,3.93,0,0,1-2.66-3.64,3.852,3.852,0,0,1,2.835-3.571,5.145,5.145,0,0,1-2.835-4.8c0-3.78,3.116-5.95,8.541-5.95a17.407,17.407,0,0,1,3.5.35c.455-2.7,2.1-4.971,5.531-4.691l.665,3.955c-2.205-.314-3.57.421-4.1,1.506a5.168,5.168,0,0,1,2.94,4.83c0,3.781-3.115,5.916-8.541,5.916a16.13,16.13,0,0,1-3.36-.315c-.805.21-1.12.595-1.12,1.226,0,.769.665,1.189,1.82,1.189h5.986C113.837,90.146,116.182,91.9,116.182,95.4Zm-4.69.595c0-.7-.525-1.12-2.136-1.12h-4.8c-1.925,0-2.661.385-2.661,1.225,0,1.015,1.471,1.611,4.866,1.611C109.986,97.708,111.492,96.972,111.492,95.992ZM103.9,82.13a2.591,2.591,0,0,0,5.18,0,2.59,2.59,0,0,0-5.18,0Z"/><path class="c" d="M118.035,71.665c0-2,1.05-2.871,3.465-2.871s3.466.875,3.466,2.871c0,1.96-1.05,2.835-3.466,2.835S118.035,73.625,118.035,71.665Zm6.441,22.367h-5.951V76.53h5.951Z"/><path class="c" d="M146.247,82.375V94.032H140.3V84.021c0-2.485-1.015-3.291-2.485-3.291-1.715,0-3.15,1.155-3.15,4.061v9.241H128.71V76.53h5.32l.176,3.4a6.1,6.1,0,0,1,5.985-3.745C143.8,76.18,146.247,78.315,146.247,82.375Z"/><path class="c" d="M167.281,87H155.345a3.359,3.359,0,0,0,3.676,3.185c1.75,0,2.835-.7,3.22-1.925l4.83,1.54c-1.015,3.045-3.99,4.585-8.05,4.585-6.126,0-9.452-3.325-9.452-9.1s3.291-9.1,9.137-9.1c5.705,0,8.751,3.325,8.751,8.856A11.019,11.019,0,0,1,167.281,87Zm-11.936-3.22h6.581c-.315-2.24-1.4-3.431-3.256-3.431C156.78,80.345,155.66,81.395,155.345,83.776Z"/><path class="c" d="M188.526,69.109V94.032H183.17l-.244-3.325a5.988,5.988,0,0,1-5.671,3.674c-4.55,0-7.211-3.325-7.211-9.03,0-5.81,2.73-9.171,7.211-9.171a5.629,5.629,0,0,1,5.321,3.325v-10.4Zm-5.985,16.347.035.035v-.455l-.035.07c0-2.905-1.156-4.551-3.221-4.551-2.03,0-3.29,1.436-3.29,4.726s1.26,4.725,3.29,4.725C181.315,90.006,182.541,88.466,182.541,85.456Z"/></g></g></g></svg>