<svg xmlns="http://www.w3.org/2000/svg" width="282" height="282" viewBox="0 0 282 282"><defs><style>.a{fill:#3070b7;}.b{isolation:isolate;}.c{fill:#fff;}</style></defs><g transform="translate(-944 -1014)"><rect class="a" width="282" height="282" transform="translate(944 1014)"/><g class="b"><g class="b"><path class="c" d="M986.492,1075.564V1084h-6.021v-8.436l-8.157-14.666h6.232l3.255,6.336,1.715,3.85,1.751-3.85,3.254-6.336h6.126Z"/><path class="c" d="M1010.957,1075.25c0,5.74-3.394,9.1-9.24,9.1s-9.242-3.36-9.242-9.1,3.4-9.1,9.242-9.1S1010.957,1069.51,1010.957,1075.25Zm-12.531,0c0,3.43,1.086,4.865,3.291,4.865s3.29-1.435,3.29-4.865-1.085-4.865-3.29-4.865S998.426,1071.818,998.426,1075.25Z"/><path class="c" d="M1031.816,1066.5V1084h-5.32l-.175-3.254c-1.085,2.449-3.219,3.6-6.055,3.6-3.571,0-5.986-1.75-5.986-6.161V1066.5h5.95v10.188c0,2.378.875,3.115,2.416,3.115,1.856,0,3.22-1.227,3.22-4.026V1066.5Z"/><path class="c" d="M1048.791,1066.533l-.63,5.041a4.547,4.547,0,0,0-2.2-.525,3.786,3.786,0,0,0-3.921,4.131V1084h-5.95v-17.5h5.251l.244,3.746c.875-2.59,2.591-4.1,5.32-4.1A4.041,4.041,0,0,1,1048.791,1066.533Z"/><path class="c" d="M1067.131,1066.5h5.32v4.236h-4.971V1084h-5.951v-13.266h-2.8V1066.5h2.8v-1.609c0-4.41,3.117-6.3,7.072-6.3a6.7,6.7,0,0,1,4.025,1.016l-.595,3.709a3.08,3.08,0,0,0-2-.559c-1.819,0-2.9.7-2.9,2.519Z"/><path class="c" d="M1092.437,1080.465l-.456,3.326a4.873,4.873,0,0,1-2.379.559c-2.346,0-3.991-.8-4.516-2.7-.981,1.682-3.01,2.7-6.231,2.7-3.465,0-5.425-1.539-5.425-4.375,0-2.905,1.855-4.76,6.826-5.741l3.955-.769v-.631a2.346,2.346,0,0,0-2.485-2.59,2.915,2.915,0,0,0-3.255,2.695l-4.831-1.4c.594-3.326,3.325-5.391,8.086-5.391,5.39,0,8.366,2.206,8.366,6.721v6.371q0,1.365,1.26,1.365A3.411,3.411,0,0,0,1092.437,1080.465Zm-8.226-2.449v-1.506l-2.836.664c-1.47.351-2.064.842-2.064,1.82s.629,1.506,1.714,1.506C1082.5,1080.5,1084.211,1079.625,1084.211,1078.016Z"/><path class="c" d="M1111.547,1066.5l-6.3,17.5h-7.1l-6.3-17.5h6.265l3.606,13.723,3.675-13.723Z"/><path class="c" d="M1130.9,1075.25c0,5.74-3.4,9.1-9.241,9.1s-9.24-3.36-9.24-9.1,3.394-9.1,9.24-9.1S1130.9,1069.51,1130.9,1075.25Zm-12.531,0c0,3.43,1.085,4.865,3.29,4.865s3.291-1.435,3.291-4.865-1.086-4.865-3.291-4.865S1118.37,1071.818,1118.37,1075.25Z"/><path class="c" d="M1147.036,1066.533l-.63,5.041a4.547,4.547,0,0,0-2.2-.525,3.786,3.786,0,0,0-3.921,4.131V1084h-5.95v-17.5h5.25l.245,3.746c.875-2.59,2.591-4.1,5.321-4.1A4.042,4.042,0,0,1,1147.036,1066.533Z"/><path class="c" d="M1148.889,1061.633c0-1.994,1.05-2.869,3.465-2.869s3.466.875,3.466,2.869c0,1.961-1.05,2.836-3.466,2.836S1148.889,1063.594,1148.889,1061.633ZM1155.33,1084h-5.951v-17.5h5.951Z"/><path class="c" d="M1172.271,1083.02a9.305,9.305,0,0,1-4.936,1.33c-3.956,0-6.4-1.539-6.44-5.6v-8.016h-3.011V1066.5h3.011v-3.92l5.95-1.644v5.564h5.251v4.236h-5.251v7.036a2.039,2.039,0,0,0,2.309,2.345,4.081,4.081,0,0,0,2.522-.769Z"/><path class="c" d="M1191.66,1076.965h-11.935a3.358,3.358,0,0,0,3.674,3.185c1.75,0,2.835-.7,3.22-1.925l4.831,1.541c-1.014,3.045-3.99,4.584-8.051,4.584-6.126,0-9.451-3.325-9.451-9.1s3.29-9.1,9.136-9.1c5.706,0,8.752,3.327,8.752,8.856A10.932,10.932,0,0,1,1191.66,1076.965Zm-11.935-3.221h6.58c-.315-2.24-1.4-3.43-3.256-3.43C1181.159,1070.314,1180.039,1071.363,1179.725,1073.744Z"/></g><g class="b"><path class="c" d="M1003.434,1108.5l-5.286,17.5h-7.141l-3.151-11.236L984.741,1126h-7.105l-5.322-17.5h6.266l2.941,13.162,3.43-13.162h5.881l3.4,13.232L997.2,1108.5Z"/><path class="c" d="M1023.172,1117.25c0,5.74-3.4,9.1-9.24,9.1s-9.243-3.36-9.243-9.1,3.4-9.1,9.243-9.1S1023.172,1111.51,1023.172,1117.25Zm-12.531,0c0,3.43,1.086,4.865,3.291,4.865s3.29-1.435,3.29-4.865-1.085-4.865-3.29-4.865S1010.641,1113.818,1010.641,1117.25Z"/><path class="c" d="M1039.307,1108.533l-.631,5.041a4.548,4.548,0,0,0-2.205-.525,3.786,3.786,0,0,0-3.92,4.131V1126H1026.6v-17.5h5.251l.245,3.746c.875-2.59,2.59-4.1,5.32-4.1A4.044,4.044,0,0,1,1039.307,1108.533Z"/><path class="c" d="M1059.187,1101.078V1126h-5.356l-.245-3.324a5.987,5.987,0,0,1-5.67,3.674c-4.551,0-7.211-3.325-7.211-9.03,0-5.81,2.731-9.172,7.211-9.172a5.626,5.626,0,0,1,5.32,3.327v-10.4Zm-5.986,16.346.035.035V1117l-.035.07c0-2.9-1.155-4.551-3.221-4.551-2.029,0-3.29,1.436-3.29,4.727s1.261,4.725,3.29,4.725C1051.977,1121.975,1053.2,1120.436,1053.2,1117.424Z"/><path class="c" d="M1090.9,1127.365c0,4.061-3.92,6.16-9.835,6.16-6.336,0-8.961-1.609-8.961-4.129,0-1.435.944-2.765,3.219-3.291a3.929,3.929,0,0,1-2.66-3.64,3.851,3.851,0,0,1,2.835-3.57,5.145,5.145,0,0,1-2.835-4.8c0-3.782,3.115-5.952,8.541-5.952a17.463,17.463,0,0,1,3.5.35c.455-2.7,2.1-4.971,5.53-4.689l.666,3.955c-2.2-.315-3.57.42-4.095,1.506a5.166,5.166,0,0,1,2.939,4.83c0,3.779-3.115,5.916-8.54,5.916a16.043,16.043,0,0,1-3.36-.317c-.8.211-1.12.6-1.12,1.227,0,.769.665,1.189,1.819,1.189h5.986C1088.551,1122.115,1090.9,1123.865,1090.9,1127.365Zm-4.691.6c0-.7-.524-1.121-2.135-1.121h-4.795c-1.925,0-2.661.387-2.661,1.226,0,1.014,1.47,1.61,4.866,1.61C1084.7,1129.676,1086.2,1128.941,1086.2,1127.961Zm-7.6-13.861a2.592,2.592,0,0,0,5.181,0,2.591,2.591,0,0,0-5.181,0Z"/><path class="c" d="M1111.23,1122.465l-.455,3.326a4.871,4.871,0,0,1-2.379.559c-2.345,0-3.991-.8-4.515-2.7-.981,1.682-3.011,2.7-6.231,2.7-3.465,0-5.425-1.539-5.425-4.375,0-2.905,1.854-4.76,6.825-5.741l3.956-.769v-.631a2.347,2.347,0,0,0-2.486-2.59,2.916,2.916,0,0,0-3.255,2.695l-4.831-1.4c.6-3.326,3.326-5.391,8.086-5.391,5.39,0,8.366,2.206,8.366,6.721v6.371q0,1.365,1.26,1.365A3.392,3.392,0,0,0,1111.23,1122.465Zm-8.224-2.449v-1.506l-2.836.664c-1.471.351-2.066.842-2.066,1.82s.63,1.506,1.716,1.506C1101.29,1122.5,1103.006,1121.625,1103.006,1120.016Z"/><path class="c" d="M1142.347,1114.344l-.07,11.656H1136.4v-10.291c0-2.2-.945-3.01-2.38-3.01-1.786,0-3.08,1.33-3.08,3.955V1126h-5.952v-10.291c0-2.2-.979-3.01-2.38-3.01-1.645,0-3.08,1.19-3.08,4.061V1126h-5.95v-17.5h5.321l.174,3.361a6.11,6.11,0,0,1,5.88-3.711,5.541,5.541,0,0,1,5.567,3.536,6.229,6.229,0,0,1,5.845-3.536C1139.791,1108.148,1142.382,1110.248,1142.347,1114.344Z"/><path class="c" d="M1163.381,1118.965h-11.937a3.359,3.359,0,0,0,3.675,3.185c1.75,0,2.836-.7,3.221-1.925l4.83,1.541c-1.015,3.045-3.99,4.584-8.051,4.584-6.125,0-9.451-3.325-9.451-9.1s3.291-9.1,9.137-9.1c5.7,0,8.751,3.327,8.751,8.856A11.12,11.12,0,0,1,1163.381,1118.965Zm-11.937-3.221h6.581c-.315-2.24-1.4-3.43-3.255-3.43C1152.879,1112.314,1151.76,1113.363,1151.444,1115.744Z"/><path class="c" d="M1173.494,1124.5a7.482,7.482,0,0,1-4.865,7.035l-2.625-1.855c2.135-.805,3.744-2.065,4.34-3.746l-.141-.1a1.333,1.333,0,0,1-1.084.385,2.813,2.813,0,0,1-2.906-2.941c0-2.135,1.435-3.29,3.5-3.29C1172.27,1119.98,1173.494,1121.975,1173.494,1124.5Z"/></g><g class="b"><path class="c" d="M986.842,1150.533l-.631,5.041a4.548,4.548,0,0,0-2.205-.525,3.786,3.786,0,0,0-3.92,4.131V1168h-5.951v-17.5h5.251l.245,3.746c.875-2.59,2.59-4.1,5.32-4.1A4.044,4.044,0,0,1,986.842,1150.533Z"/><path class="c" d="M1005.847,1160.965H993.91a3.36,3.36,0,0,0,3.676,3.185c1.75,0,2.836-.7,3.221-1.925l4.83,1.541c-1.016,3.045-3.991,4.584-8.051,4.584-6.125,0-9.451-3.325-9.451-9.1s3.291-9.1,9.136-9.1c5.706,0,8.75,3.327,8.75,8.856A11.125,11.125,0,0,1,1005.847,1160.965Zm-11.937-3.221h6.581c-.315-2.24-1.4-3.43-3.255-3.43C995.346,1154.314,994.226,1155.363,993.91,1157.744Z"/><path class="c" d="M1008.854,1145.633c0-1.994,1.05-2.869,3.466-2.869s3.465.875,3.465,2.869c0,1.961-1.05,2.836-3.465,2.836S1008.854,1147.594,1008.854,1145.633Zm6.441,22.367h-5.95v-17.5h5.95Z"/><path class="c" d="M1048.3,1156.344l-.071,11.656h-5.88v-10.291c0-2.2-.946-3.01-2.381-3.01-1.785,0-3.08,1.33-3.08,3.955V1168h-5.951v-10.291c0-2.2-.979-3.01-2.379-3.01-1.646,0-3.081,1.19-3.081,4.061V1168h-5.951v-17.5h5.321l.175,3.361a6.11,6.11,0,0,1,5.88-3.711,5.539,5.539,0,0,1,5.566,3.536,6.231,6.231,0,0,1,5.845-3.536C1045.747,1150.148,1048.338,1152.248,1048.3,1156.344Z"/><path class="c" d="M1070.455,1164.465l-.455,3.326a4.871,4.871,0,0,1-2.379.559c-2.346,0-3.991-.8-4.516-2.7-.98,1.682-3.01,2.7-6.23,2.7-3.466,0-5.426-1.539-5.426-4.375,0-2.905,1.855-4.76,6.825-5.741l3.956-.769v-.631a2.347,2.347,0,0,0-2.486-2.59,2.916,2.916,0,0,0-3.255,2.695l-4.831-1.4c.6-3.326,3.326-5.391,8.086-5.391,5.391,0,8.366,2.206,8.366,6.721v6.371q0,1.365,1.261,1.365A3.392,3.392,0,0,0,1070.455,1164.465Zm-8.225-2.449v-1.506l-2.835.664c-1.471.351-2.066.842-2.066,1.82s.63,1.506,1.716,1.506C1060.515,1164.5,1062.23,1163.625,1062.23,1162.016Z"/><path class="c" d="M1090.439,1169.365c0,4.061-3.919,6.16-9.835,6.16-6.336,0-8.961-1.609-8.961-4.129,0-1.435.945-2.765,3.22-3.291a3.929,3.929,0,0,1-2.66-3.64,3.851,3.851,0,0,1,2.835-3.57,5.147,5.147,0,0,1-2.835-4.8c0-3.782,3.115-5.952,8.541-5.952a17.472,17.472,0,0,1,3.5.35c.455-2.7,2.1-4.971,5.531-4.689l.664,3.955c-2.2-.315-3.57.42-4.094,1.506a5.166,5.166,0,0,1,2.94,4.83c0,3.779-3.115,5.916-8.541,5.916a16.043,16.043,0,0,1-3.36-.317c-.806.211-1.12.6-1.12,1.227,0,.769.665,1.189,1.82,1.189h5.985C1088.095,1164.115,1090.439,1165.865,1090.439,1169.365Zm-4.689.6c0-.7-.525-1.121-2.136-1.121h-4.8c-1.924,0-2.66.387-2.66,1.226,0,1.014,1.471,1.61,4.865,1.61C1084.244,1171.676,1085.75,1170.941,1085.75,1169.961Zm-7.6-13.861a2.591,2.591,0,0,0,5.18,0,2.59,2.59,0,0,0-5.18,0Z"/><path class="c" d="M1092.293,1145.633c0-1.994,1.051-2.869,3.465-2.869s3.466.875,3.466,2.869c0,1.961-1.05,2.836-3.466,2.836S1092.293,1147.594,1092.293,1145.633Zm6.441,22.367h-5.951v-17.5h5.951Z"/><path class="c" d="M1120.5,1156.344V1168h-5.95v-10.01c0-2.486-1.015-3.291-2.486-3.291-1.714,0-3.15,1.155-3.15,4.061V1168h-5.95v-17.5h5.32l.175,3.4a6.1,6.1,0,0,1,5.986-3.747C1118.055,1150.148,1120.5,1152.283,1120.5,1156.344Z"/><path class="c" d="M1141.539,1160.965H1129.6a3.357,3.357,0,0,0,3.674,3.185c1.75,0,2.835-.7,3.22-1.925l4.831,1.541c-1.015,3.045-3.99,4.584-8.051,4.584-6.126,0-9.451-3.325-9.451-9.1s3.29-9.1,9.136-9.1c5.706,0,8.752,3.327,8.752,8.856A10.921,10.921,0,0,1,1141.539,1160.965Zm-11.935-3.221h6.58c-.315-2.24-1.4-3.43-3.256-3.43C1131.038,1154.314,1129.918,1155.363,1129.6,1157.744Z"/><path class="c" d="M1162.784,1143.078V1168h-5.356l-.244-3.324a5.988,5.988,0,0,1-5.671,3.674c-4.55,0-7.211-3.325-7.211-9.03,0-5.81,2.73-9.172,7.211-9.172a5.628,5.628,0,0,1,5.321,3.327v-10.4Zm-5.985,16.346.035.035V1159l-.035.07c0-2.9-1.156-4.551-3.221-4.551-2.03,0-3.291,1.436-3.291,4.727s1.261,4.725,3.291,4.725C1155.573,1163.975,1156.8,1162.436,1156.8,1159.424Z"/></g></g></g></svg>