<svg xmlns="http://www.w3.org/2000/svg" width="800" height="450" viewBox="0 0 800 450"><defs><style>.a{fill:#1e1089;}.b{isolation:isolate;}.c{fill:#fff;}</style></defs><rect class="a" width="800" height="450"/><g class="b"><g class="b"><path class="c" d="M102.3,134H96.979V123.393l.175-7.106h-.07L91.379,134H86.513l-5.705-17.712h-.07l.175,7.106V134H75.557V110.9h8.576l3.64,11.762,1.3,4.9h.07l1.33-4.867,3.6-11.8H102.3Z"/><path class="c" d="M124.909,130.464l-.455,3.325a4.878,4.878,0,0,1-2.38.56c-2.345,0-3.991-.8-4.516-2.7-.98,1.681-3.01,2.7-6.23,2.7-3.466,0-5.426-1.54-5.426-4.375,0-2.906,1.855-4.761,6.826-5.741l3.955-.77v-.63a2.347,2.347,0,0,0-2.485-2.591,2.917,2.917,0,0,0-3.256,2.7l-4.83-1.4c.6-3.326,3.325-5.391,8.086-5.391,5.39,0,8.365,2.206,8.365,6.721v6.37q0,1.365,1.261,1.366A3.431,3.431,0,0,0,124.909,130.464Zm-8.226-2.45v-1.506l-2.835.665c-1.471.35-2.066.841-2.066,1.82s.631,1.506,1.716,1.506C114.968,130.5,116.683,129.624,116.683,128.014Z"/><path class="c" d="M136,126.823l-2.8,3.151V134h-5.951V109.076H133.2v14.772l6.686-7.351h6.58l-6.44,6.861L146.854,134h-6.581Z"/><path class="c" d="M148.531,111.632c0-2,1.051-2.87,3.466-2.87s3.465.875,3.465,2.87c0,1.96-1.05,2.835-3.465,2.835S148.531,113.592,148.531,111.632ZM154.972,134h-5.951V116.5h5.951Z"/><path class="c" d="M176.743,122.343V134h-5.951V123.988c0-2.485-1.015-3.291-2.485-3.291-1.715,0-3.15,1.156-3.15,4.061V134h-5.951V116.5h5.32l.176,3.4a6.1,6.1,0,0,1,5.985-3.746C174.292,116.147,176.743,118.282,176.743,122.343Z"/><path class="c" d="M198.373,135.364c0,4.061-3.921,6.16-9.836,6.16-6.336,0-8.961-1.609-8.961-4.129,0-1.436.945-2.766,3.22-3.291a3.929,3.929,0,0,1-2.66-3.64,3.849,3.849,0,0,1,2.835-3.57,5.146,5.146,0,0,1-2.835-4.8c0-3.781,3.115-5.951,8.541-5.951a17.407,17.407,0,0,1,3.5.35c.455-2.695,2.1-4.971,5.531-4.69l.665,3.955c-2.206-.315-3.571.421-4.1,1.506a5.167,5.167,0,0,1,2.94,4.83c0,3.78-3.115,5.916-8.54,5.916a16.136,16.136,0,0,1-3.361-.316c-.8.21-1.12.6-1.12,1.226,0,.769.665,1.189,1.82,1.189H192C196.027,130.113,198.373,131.864,198.373,135.364Zm-4.691.6c0-.7-.525-1.12-2.135-1.12h-4.8c-1.925,0-2.66.386-2.66,1.225,0,1.015,1.47,1.611,4.866,1.611C192.177,137.675,193.682,136.939,193.682,135.959Zm-7.6-13.861a2.591,2.591,0,0,0,5.181,0,2.591,2.591,0,0,0-5.181,0Z"/><path class="c" d="M223.151,133.019a9.3,9.3,0,0,1-4.935,1.33c-3.955,0-6.4-1.54-6.441-5.6v-8.016h-3.01V116.5h3.01v-3.92l5.951-1.645V116.5h5.251v4.235h-5.251v7.037a2.038,2.038,0,0,0,2.31,2.344,4.079,4.079,0,0,0,2.521-.769Z"/><path class="c" d="M243.627,122.343V134h-5.95V123.988c0-2.485-1.015-3.325-2.486-3.325-1.715,0-3.15,1.19-3.15,4.13V134H226.09V109.076h5.951v10.571a5.7,5.7,0,0,1,5.53-3.5C241.177,116.147,243.627,118.282,243.627,122.343Z"/><path class="c" d="M264.662,126.963H252.726a3.358,3.358,0,0,0,3.675,3.185c1.75,0,2.835-.7,3.22-1.924l4.831,1.54c-1.015,3.045-3.991,4.585-8.051,4.585-6.126,0-9.451-3.326-9.451-9.1s3.29-9.1,9.136-9.1c5.706,0,8.751,3.326,8.751,8.856A11.014,11.014,0,0,1,264.662,126.963Zm-11.936-3.22h6.58c-.315-2.24-1.4-3.43-3.255-3.43C254.161,120.313,253.041,121.362,252.726,123.743Z"/><path class="c" d="M296.161,130.464l-.455,3.325a4.878,4.878,0,0,1-2.38.56c-2.345,0-3.991-.8-4.515-2.7-.98,1.681-3.011,2.7-6.231,2.7-3.466,0-5.426-1.54-5.426-4.375,0-2.906,1.855-4.761,6.826-5.741l3.956-.77v-.63a2.347,2.347,0,0,0-2.486-2.591,2.917,2.917,0,0,0-3.255,2.7l-4.831-1.4c.6-3.326,3.325-5.391,8.086-5.391,5.391,0,8.366,2.206,8.366,6.721v6.37q0,1.365,1.26,1.366A3.431,3.431,0,0,0,296.161,130.464Zm-8.225-2.45v-1.506l-2.836.665c-1.47.35-2.065.841-2.065,1.82s.63,1.506,1.715,1.506C286.22,130.5,287.936,129.624,287.936,128.014Z"/><path class="c" d="M298.014,111.632c0-2,1.05-2.87,3.465-2.87s3.465.875,3.465,2.87c0,1.96-1.049,2.835-3.465,2.835S298.014,113.592,298.014,111.632ZM304.455,134H298.5V116.5h5.951Z"/><path class="c" d="M321.395,116.532l-.63,5.04a4.548,4.548,0,0,0-2.205-.524,3.785,3.785,0,0,0-3.921,4.13V134h-5.951V116.5h5.251l.245,3.745c.875-2.59,2.59-4.095,5.32-4.095A4.028,4.028,0,0,1,321.395,116.532Z"/><path class="c" d="M342.185,125.178c0,5.81-2.73,9.171-7.21,9.171a5.645,5.645,0,0,1-5.286-3.255V141.35h-5.951V116.5h5.216l.175,3.711a6.054,6.054,0,0,1,5.846-4.061C339.525,116.147,342.185,119.473,342.185,125.178Zm-5.985.07c0-3.29-1.261-4.726-3.291-4.726-1.995,0-3.22,1.541-3.22,4.551v.35c0,2.905,1.155,4.551,3.22,4.551C334.939,129.974,336.2,128.538,336.2,125.248Z"/><path class="c" d="M363.36,125.248c0,5.74-3.395,9.1-9.241,9.1s-9.241-3.361-9.241-9.1,3.4-9.1,9.241-9.1S363.36,119.508,363.36,125.248Zm-12.531,0c0,3.431,1.085,4.865,3.29,4.865s3.291-1.434,3.291-4.865-1.086-4.865-3.291-4.865S350.829,121.817,350.829,125.248Z"/><path class="c" d="M379.494,116.532l-.63,5.04a4.548,4.548,0,0,0-2.205-.524,3.786,3.786,0,0,0-3.921,4.13V134h-5.95V116.5h5.25l.245,3.745c.875-2.59,2.591-4.095,5.321-4.095A4.026,4.026,0,0,1,379.494,116.532Z"/><path class="c" d="M394.124,133.019a9.309,9.309,0,0,1-4.936,1.33c-3.955,0-6.4-1.54-6.44-5.6v-8.016h-3.011V116.5h3.011v-3.92l5.95-1.645V116.5h5.251v4.235H388.7v7.037a2.038,2.038,0,0,0,2.31,2.344,4.077,4.077,0,0,0,2.521-.769Z"/><path class="c" d="M412.533,127.943c0,1.54.385,2.17,1.61,2.17a5.033,5.033,0,0,0,1.785-.314l-.385,3.675a7.661,7.661,0,0,1-3.641.875c-3.745,0-5.32-1.645-5.32-5.531V109.076h5.951Z"/><path class="c" d="M435.738,125.248c0,5.74-3.394,9.1-9.24,9.1s-9.241-3.361-9.241-9.1,3.4-9.1,9.241-9.1S435.738,119.508,435.738,125.248Zm-12.531,0c0,3.431,1.086,4.865,3.291,4.865s3.291-1.434,3.291-4.865-1.086-4.865-3.291-4.865S423.207,121.817,423.207,125.248Z"/><path class="c" d="M456.6,116.5V134h-5.321l-.174-3.255c-1.086,2.45-3.221,3.6-6.057,3.6-3.57,0-5.985-1.75-5.985-6.161V116.5h5.951v10.187c0,2.379.875,3.115,2.415,3.115,1.855,0,3.22-1.226,3.22-4.026V116.5Z"/><path class="c" d="M478.4,122.343V134h-5.95V123.988c0-2.485-1.016-3.291-2.485-3.291-1.716,0-3.151,1.156-3.151,4.061V134h-5.95V116.5h5.32l.175,3.4a6.1,6.1,0,0,1,5.986-3.746C475.953,116.147,478.4,118.282,478.4,122.343Z"/><path class="c" d="M500.033,135.364c0,4.061-3.92,6.16-9.836,6.16-6.335,0-8.961-1.609-8.961-4.129,0-1.436.946-2.766,3.221-3.291a3.929,3.929,0,0,1-2.66-3.64,3.849,3.849,0,0,1,2.835-3.57,5.146,5.146,0,0,1-2.835-4.8c0-3.781,3.115-5.951,8.541-5.951a17.407,17.407,0,0,1,3.5.35c.455-2.695,2.1-4.971,5.53-4.69l.665,3.955c-2.2-.315-3.57.421-4.1,1.506a5.168,5.168,0,0,1,2.941,4.83c0,3.78-3.115,5.916-8.541,5.916a16.112,16.112,0,0,1-3.36-.316c-.806.21-1.121.6-1.121,1.226,0,.769.665,1.189,1.821,1.189h5.985C497.688,130.113,500.033,131.864,500.033,135.364Zm-4.69.6c0-.7-.525-1.12-2.135-1.12h-4.8c-1.925,0-2.66.386-2.66,1.225,0,1.015,1.471,1.611,4.866,1.611C493.838,137.675,495.343,136.939,495.343,135.959Zm-7.6-13.861a2.591,2.591,0,0,0,5.181,0,2.591,2.591,0,0,0-5.181,0Z"/><path class="c" d="M519.248,126.963H507.312a3.359,3.359,0,0,0,3.675,3.185c1.75,0,2.835-.7,3.221-1.924l4.83,1.54c-1.015,3.045-3.99,4.585-8.051,4.585-6.126,0-9.451-3.326-9.451-9.1s3.291-9.1,9.136-9.1c5.706,0,8.751,3.326,8.751,8.856A10.921,10.921,0,0,1,519.248,126.963Zm-11.936-3.22h6.581c-.316-2.24-1.4-3.43-3.255-3.43C508.747,120.313,507.627,121.362,507.312,123.743Z"/><path class="c" d="M531.46,131.269l3.081-3.361c1.05,1.75,2.939,2.486,5.18,2.486,1.645,0,2.626-.491,2.626-1.225,0-.665-.841-1.086-3.186-1.575-5.32-1.051-7.246-2.766-7.246-5.636s2.731-5.811,8.437-5.811c4.2,0,6.509,1.225,8.015,3.291l-3.08,3.01a5.275,5.275,0,0,0-4.761-2.345c-1.75,0-2.66.629-2.66,1.33s.77,1.155,3.22,1.61c5.181.91,7.246,2.556,7.246,5.565,0,3.221-2.695,5.741-8.331,5.741C536.15,134.349,533.245,133.438,531.46,131.269Z"/><path class="c" d="M568.177,126.963H556.24a3.36,3.36,0,0,0,3.676,3.185c1.75,0,2.835-.7,3.221-1.924l4.83,1.54c-1.015,3.045-3.99,4.585-8.051,4.585-6.126,0-9.451-3.326-9.451-9.1s3.291-9.1,9.136-9.1c5.706,0,8.751,3.326,8.751,8.856A11.017,11.017,0,0,1,568.177,126.963Zm-11.937-3.22h6.581c-.315-2.24-1.4-3.43-3.255-3.43C557.676,120.313,556.556,121.362,556.24,123.743Z"/><path class="c" d="M584.382,116.532l-.63,5.04a4.552,4.552,0,0,0-2.206-.524,3.785,3.785,0,0,0-3.92,4.13V134h-5.951V116.5h5.251l.245,3.745c.875-2.59,2.59-4.095,5.32-4.095A4.035,4.035,0,0,1,584.382,116.532Z"/><path class="c" d="M604.262,116.5l-6.3,17.5h-7.106l-6.3-17.5h6.265l3.606,13.722L598.1,116.5Z"/><path class="c" d="M605.87,111.632c0-2,1.05-2.87,3.465-2.87s3.466.875,3.466,2.87c0,1.96-1.051,2.835-3.466,2.835S605.87,113.592,605.87,111.632ZM612.311,134h-5.952V116.5h5.952Z"/><path class="c" d="M633.345,121.572l-5.531,1.821c-.245-2.031-1.12-3.01-2.7-3.01-2.24,0-3.465,1.5-3.465,4.935,0,3.465,1.366,4.8,3.465,4.8,1.681,0,2.625-1.014,2.9-2.835l5.356,1.715c-.489,3.046-3.325,5.356-8.226,5.356-6.126,0-9.451-3.361-9.451-9.1s3.4-9.1,9.206-9.1C630.58,116.147,632.785,118.737,633.345,121.572Z"/><path class="c" d="M653.4,126.963H641.464a3.36,3.36,0,0,0,3.676,3.185c1.75,0,2.835-.7,3.22-1.924l4.83,1.54c-1.014,3.045-3.99,4.585-8.05,4.585-6.126,0-9.452-3.326-9.452-9.1s3.291-9.1,9.136-9.1c5.706,0,8.751,3.326,8.751,8.856A10.926,10.926,0,0,1,653.4,126.963Zm-11.936-3.22h6.581c-.316-2.24-1.4-3.43-3.255-3.43C642.9,120.313,641.779,121.362,641.464,123.743Z"/></g><g class="b"><path class="c" d="M92.884,161.5V186.35h-5.95V176.094a5.647,5.647,0,0,1-5.286,3.255c-4.481,0-7.211-3.361-7.211-9.171,0-5.7,2.66-9.031,7.211-9.031a6.027,6.027,0,0,1,5.81,3.991l.21-3.641Zm-5.95,8.926v-.35c0-3.01-1.226-4.551-3.221-4.551-2.03,0-3.29,1.436-3.29,4.726s1.26,4.726,3.29,4.726C85.778,174.974,86.934,173.328,86.934,170.423Z"/><path class="c" d="M114.584,161.5V179h-5.32l-.176-3.255c-1.085,2.45-3.22,3.6-6.055,3.6-3.571,0-5.986-1.75-5.986-6.161V161.5H103v10.187c0,2.379.875,3.115,2.415,3.115,1.856,0,3.22-1.226,3.22-4.026V161.5Z"/><path class="c" d="M118.362,156.632c0-2,1.05-2.87,3.465-2.87s3.465.875,3.465,2.87c0,1.96-1.049,2.835-3.465,2.835S118.362,158.592,118.362,156.632ZM124.8,179h-5.951V161.5H124.8Z"/><path class="c" d="M145.838,166.572l-5.53,1.821c-.246-2.031-1.121-3.01-2.7-3.01-2.24,0-3.465,1.505-3.465,4.935,0,3.465,1.365,4.8,3.465,4.8,1.68,0,2.626-1.014,2.906-2.835l5.356,1.715c-.491,3.046-3.326,5.356-8.227,5.356-6.125,0-9.451-3.361-9.451-9.1s3.4-9.1,9.206-9.1C143.073,161.147,145.278,163.737,145.838,166.572Z"/><path class="c" d="M157.772,171.823l-2.8,3.151V179h-5.951V154.076h5.951v14.772l6.686-7.351h6.58l-6.44,6.861L168.624,179h-6.581Z"/><path class="c" d="M198.268,175.464l-.456,3.325a4.872,4.872,0,0,1-2.379.56c-2.346,0-3.991-.8-4.516-2.7-.98,1.681-3.01,2.7-6.23,2.7-3.466,0-5.426-1.54-5.426-4.375,0-2.906,1.855-4.761,6.825-5.741l3.956-.77v-.63a2.347,2.347,0,0,0-2.485-2.591,2.917,2.917,0,0,0-3.256,2.7l-4.83-1.4c.6-3.326,3.325-5.391,8.086-5.391,5.39,0,8.365,2.206,8.365,6.721v6.37q0,1.365,1.261,1.366A3.431,3.431,0,0,0,198.268,175.464Zm-8.226-2.45v-1.506l-2.835.665c-1.471.35-2.065.841-2.065,1.82s.629,1.506,1.714,1.506C188.327,175.5,190.042,174.624,190.042,173.014Z"/><path class="c" d="M218.147,167.343V179H212.2V168.988c0-2.485-1.015-3.291-2.485-3.291-1.715,0-3.15,1.156-3.15,4.061V179h-5.951V161.5h5.32l.175,3.4a6.1,6.1,0,0,1,5.986-3.746C215.7,161.147,218.147,163.282,218.147,167.343Z"/><path class="c" d="M240.058,154.076V179H234.7l-.245-3.325a5.988,5.988,0,0,1-5.671,3.675c-4.55,0-7.211-3.326-7.211-9.031,0-5.81,2.731-9.171,7.211-9.171a5.628,5.628,0,0,1,5.321,3.326v-10.4Zm-5.986,16.347.035.035V170l-.035.07c0-2.9-1.155-4.551-3.22-4.551-2.031,0-3.291,1.436-3.291,4.726s1.26,4.726,3.291,4.726C232.847,174.974,234.072,173.434,234.072,170.423Z"/><path class="c" d="M271.172,171.963H259.236a3.359,3.359,0,0,0,3.675,3.185c1.75,0,2.836-.7,3.22-1.924l4.831,1.54c-1.015,3.045-3.99,4.585-8.051,4.585-6.125,0-9.451-3.326-9.451-9.1s3.29-9.1,9.136-9.1c5.706,0,8.751,3.326,8.751,8.856A11.014,11.014,0,0,1,271.172,171.963Zm-11.936-3.22h6.58c-.315-2.24-1.4-3.43-3.255-3.43C260.671,165.313,259.551,166.362,259.236,168.743Z"/><path class="c" d="M292.661,175.464l-.455,3.325a4.878,4.878,0,0,1-2.38.56c-2.345,0-3.991-.8-4.515-2.7-.98,1.681-3.011,2.7-6.231,2.7-3.466,0-5.426-1.54-5.426-4.375,0-2.906,1.855-4.761,6.826-5.741l3.956-.77v-.63a2.347,2.347,0,0,0-2.486-2.591,2.917,2.917,0,0,0-3.255,2.7l-4.831-1.4c.6-3.326,3.325-5.391,8.086-5.391,5.391,0,8.366,2.206,8.366,6.721v6.37q0,1.365,1.26,1.366A3.431,3.431,0,0,0,292.661,175.464Zm-8.225-2.45v-1.506l-2.836.665c-1.47.35-2.065.841-2.065,1.82s.63,1.506,1.715,1.506C282.72,175.5,284.436,174.624,284.436,173.014Z"/><path class="c" d="M293.709,176.269l3.081-3.361c1.05,1.75,2.94,2.486,5.18,2.486,1.645,0,2.625-.491,2.625-1.225,0-.665-.84-1.086-3.185-1.575-5.321-1.051-7.246-2.766-7.246-5.636s2.731-5.811,8.436-5.811c4.2,0,6.511,1.225,8.016,3.291l-3.08,3.01a5.275,5.275,0,0,0-4.761-2.345c-1.75,0-2.66.629-2.66,1.33s.77,1.155,3.22,1.61c5.181.91,7.246,2.556,7.246,5.565,0,3.221-2.7,5.741-8.331,5.741C298.4,179.349,295.495,178.438,293.709,176.269Z"/><path class="c" d="M324.65,179c-1.925,5.565-4.235,7.525-8.68,7.525a7.927,7.927,0,0,1-4.761-1.295l1.26-3.99a3.994,3.994,0,0,0,3.01.91,2.451,2.451,0,0,0,2.731-1.68l.42-1.085-2.03-4.76L311.384,161.5h6.546l2.7,9.977.84,3.71.945-3.851,2.7-9.836h5.951Z"/><path class="c" d="M348.94,161.5h5.321v4.235H349.29V179h-5.951V165.732h-2.8V161.5h2.8v-1.61c0-4.41,3.116-6.3,7.071-6.3a6.709,6.709,0,0,1,4.026,1.016l-.6,3.71a3.082,3.082,0,0,0-2-.56c-1.82,0-2.9.7-2.9,2.52Z"/><path class="c" d="M374.106,170.248c0,5.74-3.395,9.1-9.241,9.1s-9.241-3.361-9.241-9.1,3.4-9.1,9.241-9.1S374.106,164.508,374.106,170.248Zm-12.531,0c0,3.431,1.085,4.865,3.29,4.865s3.291-1.434,3.291-4.865-1.086-4.865-3.291-4.865S361.575,166.817,361.575,170.248Z"/><path class="c" d="M390.24,161.532l-.63,5.04a4.547,4.547,0,0,0-2.2-.524,3.785,3.785,0,0,0-3.92,4.13V179h-5.951V161.5h5.251l.245,3.745c.875-2.59,2.59-4.1,5.32-4.1A4.023,4.023,0,0,1,390.24,161.532Z"/><path class="c" d="M420.061,175.464l-.456,3.325a4.878,4.878,0,0,1-2.38.56c-2.345,0-3.991-.8-4.516-2.7-.98,1.681-3.01,2.7-6.23,2.7-3.465,0-5.426-1.54-5.426-4.375,0-2.906,1.855-4.761,6.826-5.741l3.955-.77v-.63a2.346,2.346,0,0,0-2.484-2.591,2.916,2.916,0,0,0-3.256,2.7l-4.83-1.4c.594-3.326,3.324-5.391,8.086-5.391,5.39,0,8.365,2.206,8.365,6.721v6.37q0,1.365,1.26,1.366A3.442,3.442,0,0,0,420.061,175.464Zm-8.227-2.45v-1.506l-2.835.665c-1.47.35-2.065.841-2.065,1.82s.63,1.506,1.714,1.506C410.119,175.5,411.834,174.624,411.834,173.014Z"/><path class="c" d="M428.283,172.943c0,1.54.386,2.17,1.612,2.17a5.049,5.049,0,0,0,1.785-.314l-.385,3.675a7.667,7.667,0,0,1-3.641.875c-3.746,0-5.32-1.645-5.32-5.531V154.076h5.949Z"/><path class="c" d="M439.729,172.943c0,1.54.384,2.17,1.61,2.17a5.041,5.041,0,0,0,1.785-.314l-.385,3.675a7.663,7.663,0,0,1-3.64.875c-3.745,0-5.321-1.645-5.321-5.531V154.076h5.951Z"/><path class="c" d="M473.26,170.178c0,5.81-2.731,9.171-7.211,9.171a5.645,5.645,0,0,1-5.285-3.255V186.35h-5.952V161.5h5.216l.175,3.711a6.055,6.055,0,0,1,5.846-4.061C470.6,161.147,473.26,164.473,473.26,170.178Zm-5.986.07c0-3.29-1.26-4.726-3.29-4.726-2,0-3.22,1.541-3.22,4.551v.35c0,2.9,1.155,4.551,3.22,4.551C466.014,174.974,467.274,173.538,467.274,170.248Z"/><path class="c" d="M494.61,175.464l-.455,3.325a4.878,4.878,0,0,1-2.38.56c-2.345,0-3.99-.8-4.515-2.7-.981,1.681-3.011,2.7-6.231,2.7-3.466,0-5.425-1.54-5.425-4.375,0-2.906,1.855-4.761,6.826-5.741l3.955-.77v-.63a2.347,2.347,0,0,0-2.486-2.591,2.915,2.915,0,0,0-3.254,2.7l-4.832-1.4c.6-3.326,3.326-5.391,8.086-5.391,5.391,0,8.367,2.206,8.367,6.721v6.37q0,1.365,1.259,1.366A3.427,3.427,0,0,0,494.61,175.464Zm-8.225-2.45v-1.506l-2.835.665c-1.471.35-2.066.841-2.066,1.82s.63,1.506,1.715,1.506C484.67,175.5,486.385,174.624,486.385,173.014Z"/><path class="c" d="M495.657,176.269l3.081-3.361c1.05,1.75,2.94,2.486,5.18,2.486,1.645,0,2.626-.491,2.626-1.225,0-.665-.841-1.086-3.186-1.575-5.32-1.051-7.246-2.766-7.246-5.636s2.731-5.811,8.437-5.811c4.2,0,6.51,1.225,8.015,3.291l-3.08,3.01a5.274,5.274,0,0,0-4.76-2.345c-1.75,0-2.661.629-2.661,1.33s.77,1.155,3.22,1.61c5.181.91,7.246,2.556,7.246,5.565,0,3.221-2.695,5.741-8.331,5.741C500.348,179.349,497.442,178.438,495.657,176.269Z"/><path class="c" d="M514.312,176.269l3.081-3.361c1.05,1.75,2.94,2.486,5.18,2.486,1.646,0,2.626-.491,2.626-1.225,0-.665-.841-1.086-3.185-1.575-5.321-1.051-7.246-2.766-7.246-5.636s2.73-5.811,8.436-5.811c4.2,0,6.511,1.225,8.016,3.291l-3.08,3.01a5.275,5.275,0,0,0-4.761-2.345c-1.75,0-2.66.629-2.66,1.33s.769,1.155,3.219,1.61c5.181.91,7.247,2.556,7.247,5.565,0,3.221-2.7,5.741-8.331,5.741C519,179.349,516.1,178.438,514.312,176.269Z"/><path class="c" d="M551.029,171.963H539.093a3.36,3.36,0,0,0,3.676,3.185c1.75,0,2.835-.7,3.22-1.924l4.83,1.54c-1.014,3.045-3.99,4.585-8.05,4.585-6.126,0-9.452-3.326-9.452-9.1s3.291-9.1,9.136-9.1c5.706,0,8.751,3.326,8.751,8.856A10.921,10.921,0,0,1,551.029,171.963Zm-11.936-3.22h6.581c-.316-2.24-1.4-3.43-3.255-3.43C540.528,165.313,539.408,166.362,539.093,168.743Z"/><path class="c" d="M572.063,167.343V179h-5.95V168.988c0-2.485-1.015-3.291-2.485-3.291-1.716,0-3.15,1.156-3.15,4.061V179h-5.952V161.5h5.322l.174,3.4a6.1,6.1,0,0,1,5.986-3.746C569.613,161.147,572.063,163.282,572.063,167.343Z"/><path class="c" d="M593.693,180.364c0,4.061-3.92,6.16-9.836,6.16-6.335,0-8.961-1.609-8.961-4.129,0-1.436.946-2.766,3.221-3.291a3.929,3.929,0,0,1-2.66-3.64,3.849,3.849,0,0,1,2.835-3.57,5.146,5.146,0,0,1-2.835-4.8c0-3.781,3.115-5.951,8.541-5.951a17.407,17.407,0,0,1,3.5.35c.455-2.695,2.1-4.971,5.53-4.69l.665,3.955c-2.205-.315-3.57.421-4.094,1.506a5.169,5.169,0,0,1,2.94,4.83c0,3.78-3.115,5.916-8.541,5.916a16.112,16.112,0,0,1-3.36-.316c-.806.21-1.12.6-1.12,1.226,0,.769.665,1.189,1.82,1.189h5.985C591.349,175.113,593.693,176.864,593.693,180.364Zm-4.69.6c0-.7-.524-1.12-2.135-1.12h-4.8c-1.925,0-2.66.386-2.66,1.225,0,1.015,1.471,1.611,4.866,1.611C587.5,182.675,589,181.939,589,180.959Zm-7.6-13.861a2.592,2.592,0,0,0,5.181,0,2.591,2.591,0,0,0-5.181,0Z"/><path class="c" d="M612.908,171.963H600.972a3.359,3.359,0,0,0,3.675,3.185c1.75,0,2.835-.7,3.221-1.924l4.83,1.54c-1.014,3.045-3.99,4.585-8.051,4.585-6.126,0-9.451-3.326-9.451-9.1s3.291-9.1,9.136-9.1c5.706,0,8.751,3.326,8.751,8.856A10.926,10.926,0,0,1,612.908,171.963Zm-11.936-3.22h6.581c-.316-2.24-1.4-3.43-3.255-3.43C602.407,165.313,601.287,166.362,600.972,168.743Z"/><path class="c" d="M629.113,161.532l-.63,5.04a4.552,4.552,0,0,0-2.206-.524,3.786,3.786,0,0,0-3.92,4.13V179h-5.951V161.5h5.251l.245,3.745c.875-2.59,2.59-4.1,5.321-4.1A4.026,4.026,0,0,1,629.113,161.532Z"/><path class="c" d="M629.881,176.269l3.08-3.361c1.051,1.75,2.94,2.486,5.181,2.486,1.645,0,2.626-.491,2.626-1.225,0-.665-.841-1.086-3.186-1.575-5.32-1.051-7.246-2.766-7.246-5.636s2.73-5.811,8.436-5.811c4.2,0,6.511,1.225,8.016,3.291l-3.08,3.01a5.275,5.275,0,0,0-4.761-2.345c-1.75,0-2.66.629-2.66,1.33s.77,1.155,3.22,1.61c5.18.91,7.246,2.556,7.246,5.565,0,3.221-2.7,5.741-8.331,5.741C634.571,179.349,631.666,178.438,629.881,176.269Z"/></g></g></svg>