<svg xmlns="http://www.w3.org/2000/svg" width="586" height="586" viewBox="0 0 586 586"><defs><style>.a{fill:#1e1089;}.b{isolation:isolate;}.c{fill:#fff;}</style></defs><g transform="translate(-27.001 215)"><path class="a" d="M27,371V-215H613V371Z"/><g class="b"><g class="b"><path class="c" d="M104.092-43h-3.649v-7.273l.12-4.873h-.047L96.6-43H93.267L89.354-55.146h-.047l.119,4.873V-43H85.754V-58.842h5.881l2.5,8.065.888,3.36h.048l.912-3.336,2.472-8.089h5.641Z"/><path class="c" d="M119.6-45.424l-.312,2.28a3.345,3.345,0,0,1-1.632.384c-1.608,0-2.736-.553-3.1-1.849-.672,1.152-2.064,1.849-4.273,1.849-2.376,0-3.72-1.057-3.72-3,0-1.992,1.272-3.265,4.68-3.937l2.713-.528v-.432a1.609,1.609,0,0,0-1.705-1.776,2,2,0,0,0-2.231,1.848l-3.313-.96c.408-2.281,2.28-3.7,5.544-3.7,3.7,0,5.737,1.513,5.737,4.609v4.368q0,.936.864.936A2.363,2.363,0,0,0,119.6-45.424Zm-5.64-1.681v-1.032l-1.945.456c-1.008.24-1.416.576-1.416,1.248s.432,1.032,1.177,1.032C112.778-45.4,113.955-46,113.955-47.1Z"/><path class="c" d="M127.2-47.921l-1.92,2.161V-43H121.2V-60.09h4.08v10.129L129.866-55h4.512l-4.416,4.7,4.681,7.3H130.13Z"/><path class="c" d="M135.793-58.337c0-1.369.721-1.969,2.377-1.969s2.376.6,2.376,1.969c0,1.343-.72,1.943-2.376,1.943S135.793-56.994,135.793-58.337ZM140.21-43h-4.08V-55h4.08Z"/><path class="c" d="M155.138-50.994V-43h-4.08v-6.865c0-1.7-.7-2.257-1.7-2.257-1.176,0-2.161.792-2.161,2.785V-43h-4.08V-55h3.648l.12,2.328a4.187,4.187,0,0,1,4.1-2.569A3.861,3.861,0,0,1,155.138-50.994Z"/><path class="c" d="M169.97-42.064c0,2.784-2.688,4.224-6.744,4.224-4.345,0-6.145-1.1-6.145-2.832,0-.985.648-1.9,2.208-2.256a2.693,2.693,0,0,1-1.824-2.5,2.641,2.641,0,0,1,1.944-2.449,3.528,3.528,0,0,1-1.944-3.289c0-2.591,2.136-4.08,5.856-4.08a11.878,11.878,0,0,1,2.4.241c.312-1.849,1.44-3.409,3.792-3.217l.456,2.713c-1.512-.216-2.448.288-2.808,1.032a3.543,3.543,0,0,1,2.016,3.311c0,2.593-2.136,4.057-5.857,4.057a11.067,11.067,0,0,1-2.3-.216c-.552.144-.768.408-.768.84,0,.528.456.816,1.248.816H165.6C168.362-45.665,169.97-44.464,169.97-42.064Zm-3.216.407c0-.479-.36-.767-1.464-.767H162c-1.32,0-1.824.263-1.824.84,0,.7,1.008,1.1,3.336,1.1C165.722-40.48,166.754-40.984,166.754-41.657Zm-5.209-9.5a1.651,1.651,0,0,0,1.776,1.729,1.652,1.652,0,0,0,1.777-1.729,1.671,1.671,0,0,0-1.777-1.752A1.67,1.67,0,0,0,161.545-51.162Z"/><path class="c" d="M186.961-43.672a6.39,6.39,0,0,1-3.384.912c-2.712,0-4.392-1.057-4.416-3.841v-5.5H177.1V-55h2.064V-57.69l4.08-1.128V-55h3.6v2.9h-3.6v4.824a1.4,1.4,0,0,0,1.584,1.608,2.8,2.8,0,0,0,1.729-.528Z"/><path class="c" d="M201-50.994V-43h-4.081v-6.865c0-1.7-.7-2.28-1.7-2.28-1.176,0-2.16.815-2.16,2.832V-43h-4.08V-60.09h4.08v7.249a3.907,3.907,0,0,1,3.793-2.4A3.861,3.861,0,0,1,201-50.994Z"/><path class="c" d="M215.426-47.825h-8.185a2.3,2.3,0,0,0,2.52,2.184,2.044,2.044,0,0,0,2.208-1.319l3.313,1.055c-.7,2.088-2.737,3.145-5.521,3.145-4.2,0-6.48-2.281-6.48-6.241s2.256-6.241,6.264-6.241c3.913,0,6,2.281,6,6.073A7.558,7.558,0,0,1,215.426-47.825Zm-8.185-2.208h4.512c-.215-1.536-.96-2.352-2.232-2.352C208.225-52.385,207.457-51.666,207.241-50.033Z"/><path class="c" d="M237.025-45.424l-.312,2.28a3.345,3.345,0,0,1-1.632.384c-1.608,0-2.736-.553-3.1-1.849-.672,1.152-2.064,1.849-4.273,1.849-2.376,0-3.72-1.057-3.72-3,0-1.992,1.272-3.265,4.68-3.937l2.713-.528v-.432a1.609,1.609,0,0,0-1.7-1.776,2,2,0,0,0-2.233,1.848l-3.312-.96c.408-2.281,2.281-3.7,5.545-3.7,3.7,0,5.736,1.513,5.736,4.609v4.368q0,.936.864.936A2.363,2.363,0,0,0,237.025-45.424Zm-5.64-1.681v-1.032l-1.945.456c-1.007.24-1.416.576-1.416,1.248s.433,1.032,1.177,1.032C230.208-45.4,231.385-46,231.385-47.1Z"/><path class="c" d="M238.3-58.337c0-1.369.72-1.969,2.376-1.969s2.376.6,2.376,1.969c0,1.343-.719,1.943-2.376,1.943S238.3-56.994,238.3-58.337ZM242.712-43h-4.08V-55h4.08Z"/><path class="c" d="M254.328-54.977l-.432,3.456a3.11,3.11,0,0,0-1.512-.36,2.6,2.6,0,0,0-2.688,2.832V-43h-4.08V-55h3.6l.168,2.568a3.646,3.646,0,0,1,3.648-2.809A2.747,2.747,0,0,1,254.328-54.977Z"/><path class="c" d="M268.584-49.049c0,3.984-1.872,6.289-4.944,6.289a3.871,3.871,0,0,1-3.624-2.233v7.033h-4.08V-55h3.576l.12,2.543a4.151,4.151,0,0,1,4.008-2.784C266.76-55.242,268.584-52.961,268.584-49.049Zm-4.1.048c0-2.256-.864-3.241-2.256-3.241-1.368,0-2.208,1.057-2.208,3.121v.24c0,1.992.792,3.121,2.208,3.121C263.616-45.76,264.48-46.745,264.48-49Z"/><path class="c" d="M283.1-49c0,3.936-2.328,6.241-6.336,6.241s-6.337-2.305-6.337-6.241,2.328-6.241,6.337-6.241S283.1-52.937,283.1-49Zm-8.593,0c0,2.352.744,3.336,2.257,3.336s2.256-.984,2.256-3.336-.744-3.336-2.256-3.336S274.511-51.353,274.511-49Z"/><path class="c" d="M294.167-54.977l-.432,3.456a3.106,3.106,0,0,0-1.511-.36,2.6,2.6,0,0,0-2.689,2.832V-43h-4.08V-55h3.6l.168,2.568a3.647,3.647,0,0,1,3.649-2.809A2.739,2.739,0,0,1,294.167-54.977Z"/><path class="c" d="M304.2-43.672a6.394,6.394,0,0,1-3.385.912c-2.711,0-4.392-1.057-4.416-3.841v-5.5h-2.064V-55H296.4V-57.69l4.08-1.128V-55h3.6v2.9h-3.6v4.824a1.4,1.4,0,0,0,1.584,1.608,2.8,2.8,0,0,0,1.729-.528Z"/><path class="c" d="M316.823-47.153c0,1.056.264,1.488,1.1,1.488a3.479,3.479,0,0,0,1.224-.215l-.264,2.519a5.241,5.241,0,0,1-2.5.6c-2.568,0-3.648-1.128-3.648-3.793V-60.09h4.08Z"/><path class="c" d="M332.736-49c0,3.936-2.328,6.241-6.337,6.241s-6.336-2.305-6.336-6.241,2.328-6.241,6.336-6.241S332.736-52.937,332.736-49Zm-8.593,0c0,2.352.744,3.336,2.256,3.336s2.257-.984,2.257-3.336-.744-3.336-2.257-3.336S324.143-51.353,324.143-49Z"/><path class="c" d="M347.039-55v12h-3.648l-.12-2.233a4.167,4.167,0,0,1-4.152,2.473c-2.449,0-4.1-1.2-4.1-4.225V-55H339.1v6.984c0,1.632.6,2.137,1.655,2.137,1.273,0,2.209-.841,2.209-2.761V-55Z"/><path class="c" d="M361.991-50.994V-43h-4.08v-6.865c0-1.7-.7-2.257-1.7-2.257-1.177,0-2.161.792-2.161,2.785V-43h-4.08V-55h3.648l.12,2.328a4.188,4.188,0,0,1,4.1-2.569A3.861,3.861,0,0,1,361.991-50.994Z"/><path class="c" d="M376.823-42.064c0,2.784-2.688,4.224-6.744,4.224-4.345,0-6.145-1.1-6.145-2.832,0-.985.648-1.9,2.208-2.256a2.693,2.693,0,0,1-1.824-2.5,2.641,2.641,0,0,1,1.944-2.449,3.528,3.528,0,0,1-1.944-3.289c0-2.591,2.136-4.08,5.856-4.08a11.878,11.878,0,0,1,2.4.241c.312-1.849,1.44-3.409,3.792-3.217l.456,2.713c-1.512-.216-2.448.288-2.808,1.032a3.543,3.543,0,0,1,2.016,3.311c0,2.593-2.136,4.057-5.857,4.057a11.068,11.068,0,0,1-2.3-.216c-.552.144-.768.408-.768.84,0,.528.456.816,1.248.816h4.1C375.215-45.665,376.823-44.464,376.823-42.064Zm-3.216.407c0-.479-.36-.767-1.464-.767h-3.289c-1.32,0-1.824.263-1.824.84,0,.7,1.008,1.1,3.336,1.1C372.575-40.48,373.607-40.984,373.607-41.657Zm-5.209-9.5a1.651,1.651,0,0,0,1.776,1.729,1.652,1.652,0,0,0,1.777-1.729,1.67,1.67,0,0,0-1.777-1.752A1.67,1.67,0,0,0,368.4-51.162Z"/><path class="c" d="M390-47.825h-8.185a2.3,2.3,0,0,0,2.52,2.184,2.044,2.044,0,0,0,2.208-1.319l3.313,1.055c-.7,2.088-2.736,3.145-5.521,3.145-4.2,0-6.48-2.281-6.48-6.241s2.256-6.241,6.265-6.241c3.912,0,6,2.281,6,6.073A7.557,7.557,0,0,1,390-47.825Zm-8.185-2.208h4.513c-.216-1.536-.96-2.352-2.233-2.352C382.8-52.385,382.03-51.666,381.814-50.033Z"/><path class="c" d="M398.374-44.873l2.111-2.3a3.872,3.872,0,0,0,3.553,1.7c1.128,0,1.8-.336,1.8-.84,0-.456-.576-.744-2.184-1.08-3.649-.72-4.968-1.9-4.968-3.864s1.872-3.985,5.784-3.985c2.88,0,4.465.84,5.5,2.257l-2.112,2.064a3.617,3.617,0,0,0-3.264-1.609c-1.2,0-1.824.433-1.824.912s.528.793,2.208,1.1c3.552.624,4.968,1.752,4.968,3.816,0,2.208-1.848,3.937-5.712,3.937C401.59-42.76,399.6-43.384,398.374-44.873Z"/><path class="c" d="M423.551-47.825h-8.185a2.3,2.3,0,0,0,2.52,2.184,2.044,2.044,0,0,0,2.208-1.319l3.313,1.055c-.7,2.088-2.737,3.145-5.521,3.145-4.2,0-6.48-2.281-6.48-6.241s2.256-6.241,6.264-6.241c3.913,0,6,2.281,6,6.073A7.56,7.56,0,0,1,423.551-47.825Zm-8.185-2.208h4.512c-.215-1.536-.96-2.352-2.232-2.352C416.35-52.385,415.582-51.666,415.366-50.033Z"/><path class="c" d="M434.662-54.977l-.432,3.456a3.11,3.11,0,0,0-1.512-.36,2.6,2.6,0,0,0-2.688,2.832V-43h-4.08V-55h3.6l.168,2.568a3.646,3.646,0,0,1,3.648-2.809A2.747,2.747,0,0,1,434.662-54.977Z"/><path class="c" d="M448.294-55l-4.32,12H439.1l-4.32-12h4.3l2.472,9.409L444.069-55Z"/><path class="c" d="M449.4-58.337c0-1.369.721-1.969,2.377-1.969s2.376.6,2.376,1.969c0,1.343-.72,1.943-2.376,1.943S449.4-56.994,449.4-58.337ZM453.813-43h-4.08V-55h4.08Z"/><path class="c" d="M468.238-51.521l-3.793,1.248c-.168-1.393-.768-2.064-1.848-2.064-1.536,0-2.376,1.032-2.376,3.384,0,2.376.936,3.288,2.376,3.288,1.152,0,1.8-.7,1.992-1.944l3.673,1.176c-.336,2.089-2.281,3.673-5.641,3.673-4.2,0-6.48-2.305-6.48-6.241s2.328-6.241,6.312-6.241C466.341-55.242,467.854-53.465,468.238-51.521Z"/><path class="c" d="M481.989-47.825H473.8a2.3,2.3,0,0,0,2.52,2.184,2.045,2.045,0,0,0,2.208-1.319l3.312,1.055c-.7,2.088-2.736,3.145-5.52,3.145-4.2,0-6.481-2.281-6.481-6.241s2.256-6.241,6.265-6.241c3.912,0,6,2.281,6,6.073A7.56,7.56,0,0,1,481.989-47.825ZM473.8-50.033h4.512c-.216-1.536-.96-2.352-2.233-2.352C474.789-52.385,474.021-51.666,473.8-50.033Z"/></g><g class="b"><path class="c" d="M97.635-13V4.04h-4.08V-2.993A3.872,3.872,0,0,1,89.931-.76c-3.073,0-4.945-2.305-4.945-6.289,0-3.912,1.824-6.193,4.945-6.193a4.134,4.134,0,0,1,3.984,2.737l.144-2.5Zm-4.08,6.12v-.24c0-2.064-.84-3.121-2.208-3.121-1.392,0-2.257.985-2.257,3.241s.865,3.241,2.257,3.241C92.763-3.76,93.555-4.889,93.555-6.881Z"/><path class="c" d="M112.515-13V-1h-3.648l-.12-2.233A4.168,4.168,0,0,1,104.594-.76c-2.448,0-4.1-1.2-4.1-4.225V-13h4.08v6.984c0,1.632.6,2.137,1.656,2.137,1.273,0,2.209-.841,2.209-2.761V-13Z"/><path class="c" d="M115.105-16.337c0-1.369.721-1.969,2.377-1.969s2.376.6,2.376,1.969c0,1.343-.72,1.943-2.376,1.943S115.105-14.994,115.105-16.337ZM119.522-1h-4.08V-13h4.08Z"/><path class="c" d="M133.947-9.521l-3.793,1.248c-.168-1.393-.768-2.064-1.848-2.064-1.536,0-2.376,1.032-2.376,3.384,0,2.376.936,3.288,2.376,3.288,1.152,0,1.8-.7,1.992-1.944l3.673,1.176C133.635-2.344,131.69-.76,128.33-.76c-4.2,0-6.48-2.305-6.48-6.241s2.328-6.241,6.312-6.241C132.05-13.242,133.562-11.465,133.947-9.521Z"/><path class="c" d="M142.13-5.921,140.21-3.76V-1h-4.08V-18.09h4.08V-7.961L144.794-13h4.513l-4.416,4.7,4.68,7.3h-4.512Z"/><path class="c" d="M169.9-3.424l-.312,2.28a3.345,3.345,0,0,1-1.632.384c-1.608,0-2.736-.553-3.1-1.849-.672,1.152-2.064,1.849-4.273,1.849-2.376,0-3.72-1.057-3.72-3,0-1.992,1.272-3.265,4.68-3.937l2.713-.528v-.432a1.609,1.609,0,0,0-1.7-1.776,2,2,0,0,0-2.233,1.848l-3.312-.96c.408-2.281,2.281-3.7,5.545-3.7,3.7,0,5.736,1.513,5.736,4.609v4.368q0,.936.864.936A2.363,2.363,0,0,0,169.9-3.424Zm-5.64-1.681V-6.137l-1.945.456c-1.007.24-1.416.576-1.416,1.248S161.33-3.4,162.074-3.4C163.082-3.4,164.258-4,164.258-5.105Z"/><path class="c" d="M183.53-8.994V-1h-4.08V-7.865c0-1.7-.7-2.257-1.7-2.257-1.177,0-2.161.792-2.161,2.785V-1h-4.08V-13h3.648l.12,2.328a4.188,4.188,0,0,1,4.105-2.569A3.861,3.861,0,0,1,183.53-8.994Z"/><path class="c" d="M198.554-18.09V-1h-3.672l-.168-2.281A4.106,4.106,0,0,1,190.825-.76c-3.12,0-4.944-2.281-4.944-6.193,0-3.984,1.872-6.289,4.944-6.289a3.858,3.858,0,0,1,3.649,2.281V-18.09Zm-4.1,11.209.024.024v-.312l-.024.048c0-1.992-.792-3.121-2.208-3.121-1.392,0-2.257.985-2.257,3.241s.865,3.241,2.257,3.241C193.61-3.76,194.45-4.817,194.45-6.881Z"/><path class="c" d="M219.89-5.825h-8.185a2.3,2.3,0,0,0,2.52,2.184,2.045,2.045,0,0,0,2.208-1.319L219.746-3.9c-.7,2.088-2.737,3.145-5.521,3.145-4.2,0-6.48-2.281-6.48-6.241s2.255-6.241,6.264-6.241c3.912,0,6,2.281,6,6.073A7.654,7.654,0,0,1,219.89-5.825Zm-8.185-2.208h4.512c-.216-1.536-.96-2.352-2.232-2.352C212.689-10.385,211.921-9.666,211.705-8.033Z"/><path class="c" d="M234.625-3.424l-.312,2.28a3.345,3.345,0,0,1-1.632.384c-1.608,0-2.736-.553-3.1-1.849-.672,1.152-2.064,1.849-4.273,1.849-2.375,0-3.72-1.057-3.72-3,0-1.992,1.272-3.265,4.68-3.937l2.713-.528v-.432a1.609,1.609,0,0,0-1.7-1.776,2,2,0,0,0-2.232,1.848l-3.313-.96c.409-2.281,2.281-3.7,5.545-3.7,3.7,0,5.736,1.513,5.736,4.609v4.368q0,.936.864.936A2.363,2.363,0,0,0,234.625-3.424Zm-5.64-1.681V-6.137l-1.944.456c-1.008.24-1.416.576-1.416,1.248S226.057-3.4,226.8-3.4C227.809-3.4,228.985-4,228.985-5.105Z"/><path class="c" d="M235.344-2.873l2.112-2.3a3.871,3.871,0,0,0,3.553,1.7c1.128,0,1.8-.336,1.8-.84,0-.456-.576-.744-2.184-1.08-3.649-.72-4.969-1.9-4.969-3.864s1.872-3.985,5.784-3.985c2.881,0,4.465.84,5.5,2.257l-2.112,2.064a3.617,3.617,0,0,0-3.264-1.609c-1.2,0-1.825.433-1.825.912s.529.793,2.209,1.105c3.552.624,4.968,1.752,4.968,3.816,0,2.208-1.848,3.937-5.712,3.937C238.561-.76,236.568-1.384,235.344-2.873Z"/><path class="c" d="M256.561-1c-1.32,3.816-2.9,5.16-5.953,5.16a5.435,5.435,0,0,1-3.264-.888l.864-2.736a2.739,2.739,0,0,0,2.064.624A1.683,1.683,0,0,0,252.145.007l.288-.744L251.041-4l-3.577-9h4.488l1.849,6.84.575,2.544.648-2.64L256.873-13h4.08Z"/><path class="c" d="M273.217-13h3.648v2.9h-3.408V-1h-4.081v-9.1h-1.92V-13h1.92v-1.1c0-3.023,2.137-4.32,4.849-4.32a4.6,4.6,0,0,1,2.76.7l-.408,2.544a2.11,2.11,0,0,0-1.368-.384c-1.248,0-1.992.481-1.992,1.729Z"/><path class="c" d="M290.473-7c0,3.936-2.328,6.241-6.336,6.241S277.8-3.065,277.8-7s2.328-6.241,6.337-6.241S290.473-10.937,290.473-7ZM281.88-7c0,2.352.745,3.336,2.257,3.336s2.256-.984,2.256-3.336-.744-3.336-2.256-3.336S281.88-9.353,281.88-7Z"/><path class="c" d="M301.537-12.977,301.1-9.521a3.106,3.106,0,0,0-1.511-.36A2.6,2.6,0,0,0,296.9-7.049V-1h-4.08V-13h3.6l.168,2.568a3.647,3.647,0,0,1,3.649-2.809A2.747,2.747,0,0,1,301.537-12.977Z"/><path class="c" d="M321.985-3.424l-.312,2.28a3.345,3.345,0,0,1-1.632.384c-1.608,0-2.737-.553-3.1-1.849-.672,1.152-2.064,1.849-4.272,1.849-2.376,0-3.72-1.057-3.72-3,0-1.992,1.272-3.265,4.68-3.937l2.712-.528v-.432a1.609,1.609,0,0,0-1.7-1.776,2,2,0,0,0-2.232,1.848l-3.312-.96c.408-2.281,2.28-3.7,5.544-3.7,3.7,0,5.736,1.513,5.736,4.609v4.368q0,.936.865.936A2.363,2.363,0,0,0,321.985-3.424Zm-5.641-1.681V-6.137l-1.944.456c-1.008.24-1.416.576-1.416,1.248S313.416-3.4,314.16-3.4C315.168-3.4,316.344-4,316.344-5.105Z"/><path class="c" d="M327.624-5.153c0,1.056.264,1.488,1.1,1.488a3.479,3.479,0,0,0,1.224-.215l-.264,2.519a5.241,5.241,0,0,1-2.5.6c-2.568,0-3.649-1.128-3.649-3.793V-18.09h4.081Z"/><path class="c" d="M335.472-5.153c0,1.056.263,1.488,1.1,1.488A3.479,3.479,0,0,0,337.8-3.88l-.264,2.519a5.244,5.244,0,0,1-2.5.6c-2.569,0-3.649-1.128-3.649-3.793V-18.09h4.081Z"/><path class="c" d="M358.464-7.049c0,3.984-1.872,6.289-4.944,6.289A3.871,3.871,0,0,1,349.9-2.993V4.04h-4.081V-13h3.577l.12,2.543a4.151,4.151,0,0,1,4.008-2.784C356.64-13.242,358.464-10.961,358.464-7.049ZM354.36-7c0-2.256-.864-3.241-2.256-3.241-1.368,0-2.208,1.057-2.208,3.121v.24c0,1.992.791,3.121,2.208,3.121C353.5-3.76,354.36-4.745,354.36-7Z"/><path class="c" d="M373.1-3.424l-.312,2.28a3.345,3.345,0,0,1-1.632.384c-1.608,0-2.736-.553-3.1-1.849C367.392-1.457,366-.76,363.792-.76c-2.376,0-3.721-1.057-3.721-3,0-1.992,1.272-3.265,4.68-3.937l2.713-.528v-.432a1.609,1.609,0,0,0-1.7-1.776,2,2,0,0,0-2.233,1.848l-3.312-.96c.409-2.281,2.281-3.7,5.545-3.7,3.7,0,5.736,1.513,5.736,4.609v4.368q0,.936.864.936A2.363,2.363,0,0,0,373.1-3.424Zm-5.64-1.681V-6.137l-1.944.456c-1.008.24-1.416.576-1.416,1.248S364.536-3.4,365.28-3.4C366.288-3.4,367.464-4,367.464-5.105Z"/><path class="c" d="M373.823-2.873l2.113-2.3a3.868,3.868,0,0,0,3.552,1.7c1.128,0,1.8-.336,1.8-.84,0-.456-.576-.744-2.184-1.08-3.649-.72-4.969-1.9-4.969-3.864s1.872-3.985,5.784-3.985c2.881,0,4.465.84,5.5,2.257L383.3-8.921a3.617,3.617,0,0,0-3.264-1.609c-1.2,0-1.825.433-1.825.912s.529.793,2.209,1.105c3.552.624,4.968,1.752,4.968,3.816,0,2.208-1.848,3.937-5.712,3.937C377.04-.76,375.047-1.384,373.823-2.873Z"/><path class="c" d="M386.615-2.873l2.113-2.3a3.868,3.868,0,0,0,3.552,1.7c1.128,0,1.8-.336,1.8-.84,0-.456-.576-.744-2.184-1.08-3.649-.72-4.969-1.9-4.969-3.864s1.872-3.985,5.784-3.985c2.881,0,4.465.84,5.5,2.257L396.1-8.921a3.617,3.617,0,0,0-3.264-1.609c-1.2,0-1.825.433-1.825.912s.529.793,2.209,1.105c3.552.624,4.968,1.752,4.968,3.816,0,2.208-1.848,3.937-5.712,3.937C389.832-.76,387.839-1.384,386.615-2.873Z"/><path class="c" d="M411.792-5.825h-8.185a2.3,2.3,0,0,0,2.52,2.184,2.044,2.044,0,0,0,2.208-1.319L411.648-3.9c-.7,2.088-2.736,3.145-5.521,3.145-4.2,0-6.48-2.281-6.48-6.241s2.256-6.241,6.265-6.241c3.912,0,6,2.281,6,6.073A7.557,7.557,0,0,1,411.792-5.825Zm-8.185-2.208h4.513c-.216-1.536-.96-2.352-2.233-2.352C404.591-10.385,403.823-9.666,403.607-8.033Z"/><path class="c" d="M426.216-8.994V-1h-4.081V-7.865c0-1.7-.7-2.257-1.7-2.257-1.176,0-2.16.792-2.16,2.785V-1h-4.08V-13h3.648l.12,2.328a4.186,4.186,0,0,1,4.1-2.569A3.861,3.861,0,0,1,426.216-8.994Z"/><path class="c" d="M441.048-.064c0,2.784-2.689,4.224-6.745,4.224-4.345,0-6.144-1.1-6.144-2.832,0-.985.648-1.9,2.208-2.256a2.693,2.693,0,0,1-1.825-2.5,2.641,2.641,0,0,1,1.945-2.449,3.527,3.527,0,0,1-1.945-3.289c0-2.591,2.137-4.08,5.857-4.08a11.86,11.86,0,0,1,2.4.241c.312-1.849,1.44-3.409,3.793-3.217l.456,2.713c-1.512-.216-2.448.288-2.809,1.032a3.541,3.541,0,0,1,2.016,3.311c0,2.593-2.136,4.057-5.856,4.057a11.061,11.061,0,0,1-2.3-.216c-.552.144-.768.408-.768.84,0,.528.456.816,1.248.816h4.1C439.439-3.665,441.048-2.464,441.048-.064Zm-3.216.407c0-.479-.361-.767-1.465-.767h-3.288c-1.32,0-1.824.263-1.824.84,0,.7,1.008,1.1,3.336,1.1C436.8,1.52,437.832,1.016,437.832.343Zm-5.209-9.5A1.651,1.651,0,0,0,434.4-7.433a1.651,1.651,0,0,0,1.776-1.729,1.67,1.67,0,0,0-1.776-1.752A1.67,1.67,0,0,0,432.623-9.162Z"/><path class="c" d="M454.224-5.825h-8.185a2.3,2.3,0,0,0,2.52,2.184,2.045,2.045,0,0,0,2.208-1.319L454.08-3.9c-.7,2.088-2.737,3.145-5.521,3.145-4.2,0-6.48-2.281-6.48-6.241s2.255-6.241,6.264-6.241c3.912,0,6,2.281,6,6.073A7.652,7.652,0,0,1,454.224-5.825Zm-8.185-2.208h4.512c-.216-1.536-.96-2.352-2.232-2.352C447.023-10.385,446.255-9.666,446.039-8.033Z"/><path class="c" d="M465.334-12.977,464.9-9.521a3.106,3.106,0,0,0-1.511-.36A2.6,2.6,0,0,0,460.7-7.049V-1h-4.08V-13h3.6l.168,2.568a3.647,3.647,0,0,1,3.649-2.809A2.739,2.739,0,0,1,465.334-12.977Z"/><path class="c" d="M465.862-2.873l2.112-2.3a3.869,3.869,0,0,0,3.552,1.7c1.128,0,1.8-.336,1.8-.84,0-.456-.576-.744-2.184-1.08-3.648-.72-4.968-1.9-4.968-3.864s1.872-3.985,5.784-3.985c2.88,0,4.465.84,5.5,2.257l-2.113,2.064a3.616,3.616,0,0,0-3.264-1.609c-1.2,0-1.824.433-1.824.912s.528.793,2.208,1.105c3.553.624,4.969,1.752,4.969,3.816,0,2.208-1.848,3.937-5.713,3.937C469.078-.76,467.086-1.384,465.862-2.873Z"/></g></g></g></svg>