<svg xmlns="http://www.w3.org/2000/svg" width="800" height="450" viewBox="0 0 800 450"><defs><style>.a{fill:#312ae3;}.b{isolation:isolate;}.c{fill:#fff;}</style></defs><rect class="a" width="800" height="450"/><g class="b"><g class="b"><path class="c" d="M94,127.345V132H75.555V108.9H93.547v4.656H81.576v4.69H91.1v4.376H81.576v4.726Z"/><path class="c" d="M114.757,120.344V132h-5.95V121.989c0-2.485-1.015-3.291-2.486-3.291-1.715,0-3.15,1.156-3.15,4.061V132H97.22V114.5h5.321l.175,3.4a6.1,6.1,0,0,1,5.985-3.746C112.307,114.148,114.757,116.283,114.757,120.344Z"/><path class="c" d="M117.625,129.27l3.08-3.361c1.05,1.75,2.941,2.486,5.181,2.486,1.645,0,2.625-.491,2.625-1.225,0-.665-.84-1.086-3.185-1.575-5.321-1.051-7.246-2.766-7.246-5.636s2.73-5.811,8.436-5.811c4.2,0,6.51,1.225,8.016,3.29l-3.081,3.011a5.273,5.273,0,0,0-4.76-2.345c-1.751,0-2.661.629-2.661,1.33s.77,1.155,3.221,1.61c5.18.91,7.246,2.556,7.246,5.565,0,3.221-2.7,5.741-8.331,5.741C122.315,132.35,119.41,131.439,117.625,129.27Z"/><path class="c" d="M155.006,114.5V132h-5.32l-.175-3.255c-1.085,2.45-3.22,3.605-6.056,3.605-3.57,0-5.985-1.75-5.985-6.161V114.5h5.95v10.187c0,2.379.875,3.115,2.415,3.115,1.856,0,3.221-1.226,3.221-4.026V114.5Z"/><path class="c" d="M171.98,114.533l-.629,5.04a4.548,4.548,0,0,0-2.205-.524,3.785,3.785,0,0,0-3.921,4.13V132h-5.951V114.5h5.251l.245,3.745c.875-2.59,2.59-4.095,5.32-4.095A4.02,4.02,0,0,1,171.98,114.533Z"/><path class="c" d="M190.986,124.964H179.05a3.359,3.359,0,0,0,3.675,3.185c1.75,0,2.836-.7,3.22-1.924l4.831,1.54c-1.015,3.045-3.99,4.585-8.051,4.585-6.125,0-9.451-3.326-9.451-9.1s3.29-9.1,9.136-9.1c5.706,0,8.751,3.326,8.751,8.856A11.014,11.014,0,0,1,190.986,124.964Zm-11.936-3.22h6.58c-.315-2.24-1.4-3.431-3.255-3.431C180.485,118.313,179.365,119.363,179.05,121.744Z"/><path class="c" d="M215.555,132c-1.925,5.565-4.235,7.525-8.68,7.525a7.927,7.927,0,0,1-4.761-1.295l1.26-3.99a3.994,3.994,0,0,0,3.01.91,2.451,2.451,0,0,0,2.731-1.68l.42-1.085-2.031-4.76L202.289,114.5h6.545l2.7,9.977.84,3.71.945-3.851,2.695-9.836h5.951Z"/><path class="c" d="M241.351,123.249c0,5.74-3.4,9.1-9.241,9.1s-9.241-3.361-9.241-9.1,3.4-9.1,9.241-9.1S241.351,117.509,241.351,123.249Zm-12.532,0c0,3.431,1.086,4.865,3.291,4.865s3.29-1.434,3.29-4.865-1.085-4.865-3.29-4.865S228.819,119.818,228.819,123.249Z"/><path class="c" d="M262.21,114.5V132h-5.32l-.175-3.255c-1.085,2.45-3.22,3.605-6.056,3.605-3.57,0-5.985-1.75-5.985-6.161V114.5h5.951v10.187c0,2.379.875,3.115,2.415,3.115,1.855,0,3.22-1.226,3.22-4.026V114.5Z"/><path class="c" d="M279.185,114.533l-.63,5.04a4.548,4.548,0,0,0-2.2-.524,3.786,3.786,0,0,0-3.921,4.13V132h-5.95V114.5h5.25l.245,3.745c.875-2.59,2.59-4.095,5.32-4.095A4.028,4.028,0,0,1,279.185,114.533Z"/><path class="c" d="M308.76,107.077V132H303.4l-.245-3.325a5.987,5.987,0,0,1-5.67,3.675c-4.551,0-7.211-3.326-7.211-9.031,0-5.81,2.73-9.171,7.211-9.171a5.629,5.629,0,0,1,5.321,3.326v-10.4Zm-5.986,16.347.036.035V123l-.036.07c0-2.9-1.155-4.551-3.22-4.551-2.03,0-3.29,1.436-3.29,4.726s1.26,4.726,3.29,4.726C301.549,127.975,302.774,126.435,302.774,123.424Z"/><path class="c" d="M329.864,124.964H317.928a3.359,3.359,0,0,0,3.676,3.185c1.75,0,2.835-.7,3.22-1.924l4.83,1.54c-1.015,3.045-3.99,4.585-8.05,4.585-6.126,0-9.452-3.326-9.452-9.1s3.291-9.1,9.137-9.1c5.7,0,8.751,3.326,8.751,8.856A11.012,11.012,0,0,1,329.864,124.964Zm-11.936-3.22h6.581c-.315-2.24-1.4-3.431-3.256-3.431C319.363,118.313,318.243,119.363,317.928,121.744Z"/><path class="c" d="M332.067,129.27l3.08-3.361c1.051,1.75,2.941,2.486,5.181,2.486,1.645,0,2.625-.491,2.625-1.225,0-.665-.84-1.086-3.185-1.575-5.321-1.051-7.246-2.766-7.246-5.636s2.73-5.811,8.436-5.811c4.2,0,6.511,1.225,8.016,3.29l-3.08,3.011a5.276,5.276,0,0,0-4.761-2.345c-1.75,0-2.66.629-2.66,1.33s.77,1.155,3.22,1.61c5.181.91,7.246,2.556,7.246,5.565,0,3.221-2.7,5.741-8.331,5.741C336.758,132.35,333.853,131.439,332.067,129.27Z"/><path class="c" d="M351.527,109.633c0-2,1.05-2.87,3.465-2.87s3.466.875,3.466,2.87c0,1.96-1.05,2.835-3.466,2.835S351.527,111.593,351.527,109.633ZM357.968,132h-5.951V114.5h5.951Z"/><path class="c" d="M379.668,133.365c0,4.061-3.92,6.16-9.836,6.16-6.336,0-8.961-1.609-8.961-4.129,0-1.436.945-2.766,3.22-3.291a3.929,3.929,0,0,1-2.66-3.64,3.849,3.849,0,0,1,2.836-3.57,5.146,5.146,0,0,1-2.836-4.8c0-3.781,3.115-5.951,8.541-5.951a17.407,17.407,0,0,1,3.5.35c.455-2.695,2.1-4.971,5.531-4.69l.665,3.955c-2.2-.315-3.57.421-4.1,1.506a5.167,5.167,0,0,1,2.94,4.83c0,3.78-3.116,5.916-8.541,5.916a16.126,16.126,0,0,1-3.36-.316c-.8.21-1.12.6-1.12,1.226,0,.769.665,1.189,1.82,1.189H373.3C377.323,128.114,379.668,129.865,379.668,133.365Zm-4.69.6c0-.7-.525-1.12-2.136-1.12h-4.8c-1.925,0-2.66.386-2.66,1.225,0,1.015,1.469,1.611,4.865,1.611C373.472,135.676,374.978,134.94,374.978,133.96Zm-7.6-13.861a2.591,2.591,0,0,0,5.18,0,2.59,2.59,0,0,0-5.18,0Z"/><path class="c" d="M399.548,120.344V132H393.6V121.989c0-2.485-1.015-3.291-2.486-3.291-1.715,0-3.15,1.156-3.15,4.061V132h-5.951V114.5h5.321l.175,3.4a6.1,6.1,0,0,1,5.985-3.746C397.1,114.148,399.548,116.283,399.548,120.344Z"/><path class="c" d="M413.23,109.633c0-2,1.051-2.87,3.465-2.87s3.466.875,3.466,2.87c0,1.96-1.05,2.835-3.466,2.835S413.23,111.593,413.23,109.633ZM419.672,132h-5.951V114.5h5.951Z"/><path class="c" d="M422.61,129.27l3.08-3.361c1.05,1.75,2.941,2.486,5.181,2.486,1.645,0,2.625-.491,2.625-1.225,0-.665-.84-1.086-3.185-1.575-5.321-1.051-7.247-2.766-7.247-5.636s2.731-5.811,8.437-5.811c4.2,0,6.511,1.225,8.017,3.29l-3.081,3.011a5.276,5.276,0,0,0-4.761-2.345c-1.75,0-2.66.629-2.66,1.33s.769,1.155,3.22,1.61c5.18.91,7.246,2.556,7.246,5.565,0,3.221-2.7,5.741-8.332,5.741C427.3,132.35,424.4,131.439,422.61,129.27Z"/></g><g class="b"><path class="c" d="M74.645,154.633c0-1.995,1.05-2.87,3.465-2.87s3.466.875,3.466,2.87c0,1.96-1.05,2.835-3.466,2.835S74.645,156.593,74.645,154.633ZM81.086,177H75.135V159.5h5.951Z"/><path class="c" d="M114.093,165.344,114.023,177h-5.881V166.709c0-2.205-.945-3.011-2.38-3.011-1.785,0-3.08,1.33-3.08,3.956V177H96.731V166.709c0-2.205-.98-3.011-2.38-3.011-1.645,0-3.08,1.191-3.08,4.061V177H85.32V159.5h5.32l.175,3.36a6.113,6.113,0,0,1,5.881-3.71,5.54,5.54,0,0,1,5.566,3.536,6.229,6.229,0,0,1,5.845-3.536C111.538,159.148,114.128,161.248,114.093,165.344Z"/><path class="c" d="M136.7,168.179c0,5.81-2.73,9.171-7.21,9.171a5.645,5.645,0,0,1-5.286-3.255v10.256h-5.951V159.5h5.216l.175,3.711a6.054,6.054,0,0,1,5.846-4.061C134.041,159.148,136.7,162.474,136.7,168.179Zm-5.985.07c0-3.29-1.26-4.726-3.291-4.726-2,0-3.22,1.54-3.22,4.551v.35c0,2.9,1.155,4.551,3.22,4.551C129.456,172.975,130.716,171.539,130.716,168.249Z"/><path class="c" d="M146.115,170.944c0,1.54.385,2.17,1.61,2.17a5.041,5.041,0,0,0,1.785-.314l-.385,3.675a7.66,7.66,0,0,1-3.64.875c-3.746,0-5.32-1.645-5.32-5.531V152.077h5.95Z"/><path class="c" d="M168.551,169.964H156.615a3.359,3.359,0,0,0,3.675,3.185c1.75,0,2.835-.7,3.22-1.924l4.831,1.54c-1.015,3.045-3.99,4.585-8.051,4.585-6.125,0-9.451-3.326-9.451-9.1s3.29-9.1,9.136-9.1c5.706,0,8.751,3.326,8.751,8.856A11.014,11.014,0,0,1,168.551,169.964Zm-11.936-3.22h6.58c-.315-2.24-1.4-3.431-3.255-3.431C158.05,163.313,156.93,164.363,156.615,166.744Z"/><path class="c" d="M200.821,165.344,200.751,177h-5.88V166.709c0-2.205-.945-3.011-2.381-3.011-1.785,0-3.08,1.33-3.08,3.956V177h-5.951V166.709c0-2.205-.98-3.011-2.38-3.011-1.645,0-3.08,1.191-3.08,4.061V177h-5.951V159.5h5.321l.175,3.36a6.111,6.111,0,0,1,5.88-3.71,5.539,5.539,0,0,1,5.566,3.536,6.229,6.229,0,0,1,5.846-3.536C198.266,159.148,200.856,161.248,200.821,165.344Z"/><path class="c" d="M221.855,169.964H209.919a3.359,3.359,0,0,0,3.675,3.185c1.75,0,2.836-.7,3.22-1.924l4.831,1.54c-1.015,3.045-3.99,4.585-8.051,4.585-6.125,0-9.451-3.326-9.451-9.1s3.291-9.1,9.136-9.1c5.706,0,8.751,3.326,8.751,8.856A11.014,11.014,0,0,1,221.855,169.964Zm-11.936-3.22H216.5c-.315-2.24-1.4-3.431-3.256-3.431C211.354,163.313,210.234,164.363,209.919,166.744Z"/><path class="c" d="M242.89,165.344V177h-5.951V166.989c0-2.485-1.015-3.291-2.485-3.291-1.715,0-3.15,1.156-3.15,4.061V177h-5.951V159.5h5.32l.176,3.4a6.1,6.1,0,0,1,5.985-3.746C240.439,159.148,242.89,161.283,242.89,165.344Z"/><path class="c" d="M259.654,176.02a9.306,9.306,0,0,1-4.935,1.33c-3.956,0-6.406-1.54-6.441-5.6v-8.016h-3.01V159.5h3.01v-3.92l5.951-1.645V159.5h5.25v4.235h-5.25v7.037a2.038,2.038,0,0,0,2.31,2.344,4.076,4.076,0,0,0,2.52-.769Z"/><path class="c" d="M279.044,169.964H267.108a3.36,3.36,0,0,0,3.676,3.185c1.75,0,2.835-.7,3.22-1.924l4.83,1.54c-1.015,3.045-3.99,4.585-8.05,4.585-6.126,0-9.451-3.326-9.451-9.1s3.29-9.1,9.136-9.1c5.705,0,8.751,3.326,8.751,8.856A11.012,11.012,0,0,1,279.044,169.964Zm-11.936-3.22h6.581c-.315-2.24-1.4-3.431-3.255-3.431C268.543,163.313,267.423,164.363,267.108,166.744Z"/><path class="c" d="M300.289,152.077V177h-5.355l-.246-3.325a5.987,5.987,0,0,1-5.67,3.675c-4.55,0-7.21-3.326-7.21-9.031,0-5.81,2.73-9.171,7.21-9.171a5.628,5.628,0,0,1,5.321,3.326v-10.4ZM294.3,168.424l.035.035V168l-.035.07c0-2.9-1.156-4.551-3.221-4.551-2.03,0-3.29,1.436-3.29,4.726s1.26,4.726,3.29,4.726C293.079,172.975,294.3,171.435,294.3,168.424Z"/><path class="c" d="M320.482,177.98c0,4.726-2.59,6.545-6.791,6.545a8.541,8.541,0,0,1-4.585-1.12l.84-3.849a3.458,3.458,0,0,0,2.2.7c1.471,0,2.381-.734,2.381-2.8V159.5h5.95Zm.49-23.347c0,1.925-1.085,2.835-3.5,2.835-2.38,0-3.43-.91-3.43-2.835s1.05-2.87,3.43-2.87C319.887,151.763,320.972,152.707,320.972,154.633Z"/><path class="c" d="M342.113,159.5V177h-5.32l-.175-3.255c-1.085,2.45-3.221,3.605-6.056,3.605-3.57,0-5.985-1.75-5.985-6.161V159.5h5.95v10.187c0,2.379.875,3.115,2.415,3.115,1.856,0,3.221-1.226,3.221-4.026V159.5Z"/><path class="c" d="M345.086,174.27l3.081-3.361c1.05,1.75,2.94,2.486,5.18,2.486,1.645,0,2.625-.491,2.625-1.225,0-.665-.84-1.086-3.185-1.575-5.321-1.051-7.246-2.766-7.246-5.636s2.73-5.811,8.436-5.811c4.2,0,6.511,1.225,8.016,3.29l-3.08,3.011a5.276,5.276,0,0,0-4.761-2.345c-1.75,0-2.66.629-2.66,1.33s.77,1.155,3.22,1.61c5.181.91,7.246,2.556,7.246,5.565,0,3.221-2.7,5.741-8.331,5.741C349.777,177.35,346.872,176.439,345.086,174.27Z"/><path class="c" d="M377.742,176.02a9.306,9.306,0,0,1-4.935,1.33c-3.955,0-6.406-1.54-6.441-5.6v-8.016h-3.01V159.5h3.01v-3.92l5.951-1.645V159.5h5.25v4.235h-5.25v7.037a2.038,2.038,0,0,0,2.31,2.344,4.076,4.076,0,0,0,2.52-.769Z"/><path class="c" d="M402.978,159.533l-.63,5.04a4.549,4.549,0,0,0-2.206-.524,3.785,3.785,0,0,0-3.92,4.13V177h-5.951V159.5h5.25l.246,3.745c.875-2.59,2.59-4.1,5.32-4.1A4.031,4.031,0,0,1,402.978,159.533Z"/><path class="c" d="M404.83,154.633c0-1.995,1.051-2.87,3.466-2.87s3.466.875,3.466,2.87c0,1.96-1.051,2.835-3.466,2.835S404.83,156.593,404.83,154.633ZM411.271,177H405.32V159.5h5.951Z"/><path class="c" d="M432.973,178.365c0,4.061-3.921,6.16-9.836,6.16-6.336,0-8.961-1.609-8.961-4.129,0-1.436.944-2.766,3.22-3.291a3.93,3.93,0,0,1-2.661-3.64,3.85,3.85,0,0,1,2.835-3.57,5.146,5.146,0,0,1-2.835-4.8c0-3.781,3.116-5.951,8.541-5.951a17.4,17.4,0,0,1,3.5.35c.455-2.7,2.1-4.971,5.531-4.69l.666,3.955c-2.2-.315-3.571.421-4.1,1.506a5.167,5.167,0,0,1,2.939,4.83c0,3.78-3.115,5.916-8.54,5.916a16.127,16.127,0,0,1-3.36-.316c-.8.21-1.12.6-1.12,1.226,0,.769.665,1.189,1.819,1.189H426.6C430.627,173.114,432.973,174.865,432.973,178.365Zm-4.692.6c0-.7-.524-1.12-2.135-1.12h-4.794c-1.926,0-2.662.386-2.662,1.225,0,1.015,1.47,1.611,4.867,1.611C426.776,180.676,428.281,179.94,428.281,178.96Zm-7.6-13.861a2.591,2.591,0,0,0,5.18,0,2.59,2.59,0,0,0-5.18,0Z"/><path class="c" d="M452.852,165.344V177H446.9V166.989c0-2.485-1.014-3.325-2.485-3.325-1.715,0-3.15,1.19-3.15,4.13V177h-5.952V152.077h5.952v10.571a5.694,5.694,0,0,1,5.53-3.5C450.4,159.148,452.852,161.283,452.852,165.344Z"/><path class="c" d="M469.616,176.02a9.3,9.3,0,0,1-4.934,1.33c-3.956,0-6.407-1.54-6.442-5.6v-8.016h-3.01V159.5h3.01v-3.92l5.951-1.645V159.5h5.25v4.235h-5.25v7.037a2.038,2.038,0,0,0,2.31,2.344,4.076,4.076,0,0,0,2.52-.769Z"/></g></g></svg>