<svg xmlns="http://www.w3.org/2000/svg" width="282" height="282" viewBox="0 0 282 282"><defs><style>.a{fill:#312ae3;}.b{isolation:isolate;}.c{fill:#fff;}</style></defs><g transform="translate(-639 214)"><path class="a" d="M639-214H921V68H639Z"/><rect class="a" width="90" height="282" transform="translate(831 -214)"/><g class="b"><g class="b"><path class="c" d="M740.06-51.128V-49h-8.436V-59.564h8.228v2.129h-5.475v2.144h4.354v2h-4.354v2.162Z"/><path class="c" d="M749.547-54.33V-49h-2.721v-4.578c0-1.135-.464-1.5-1.137-1.5-.784,0-1.44.528-1.44,1.857V-49h-2.721v-8h2.433l.08,1.552a2.793,2.793,0,0,1,2.737-1.713A2.575,2.575,0,0,1,749.547-54.33Z"/><path class="c" d="M750.855-50.248l1.41-1.537a2.576,2.576,0,0,0,2.368,1.137c.753,0,1.2-.225,1.2-.56,0-.3-.385-.5-1.457-.72-2.433-.481-3.314-1.265-3.314-2.577s1.249-2.658,3.858-2.658c1.921,0,2.977.56,3.666,1.5l-1.409,1.376A2.411,2.411,0,0,0,755-55.354c-.8,0-1.216.288-1.216.608s.352.529,1.473.737c2.368.416,3.312,1.168,3.312,2.545,0,1.472-1.232,2.625-3.809,2.625A4.776,4.776,0,0,1,750.855-50.248Z"/><path class="c" d="M767.947-57v8h-2.432l-.08-1.488a2.781,2.781,0,0,1-2.77,1.649,2.475,2.475,0,0,1-2.737-2.818V-57h2.721v4.657c0,1.089.4,1.425,1.105,1.425.848,0,1.473-.561,1.473-1.841V-57Z"/><path class="c" d="M775.706-56.987l-.288,2.305a2.074,2.074,0,0,0-1.008-.24,1.731,1.731,0,0,0-1.793,1.889V-49H769.9v-8h2.4l.112,1.711a2.433,2.433,0,0,1,2.433-1.872A1.841,1.841,0,0,1,775.706-56.987Z"/><path class="c" d="M784.4-52.217h-5.458a1.535,1.535,0,0,0,1.68,1.457,1.365,1.365,0,0,0,1.473-.88l2.209.7c-.464,1.393-1.825,2.1-3.682,2.1-2.8,0-4.321-1.521-4.321-4.162s1.5-4.162,4.178-4.162c2.608,0,4,1.521,4,4.05A5.042,5.042,0,0,1,784.4-52.217Zm-5.458-1.472h3.009c-.144-1.024-.64-1.569-1.489-1.569S779.081-54.778,778.937-53.689Z"/><path class="c" d="M795.626-49c-.881,2.545-1.937,3.442-3.97,3.442a3.629,3.629,0,0,1-2.177-.592l.577-1.825a1.827,1.827,0,0,0,1.377.416,1.121,1.121,0,0,0,1.248-.769l.192-.5L791.944-51l-2.384-6h2.993l1.232,4.561.384,1.7.433-1.76,1.232-4.5h2.721Z"/><path class="c" d="M807.419-53c0,2.625-1.553,4.162-4.226,4.162s-4.225-1.537-4.225-4.162,1.553-4.162,4.225-4.162S807.419-55.626,807.419-53Zm-5.731,0c0,1.569.5,2.225,1.505,2.225S804.7-51.432,804.7-53s-.5-2.225-1.505-2.225S801.688-54.57,801.688-53Z"/><path class="c" d="M816.955-57v8h-2.434l-.08-1.488a2.778,2.778,0,0,1-2.768,1.649,2.475,2.475,0,0,1-2.737-2.818V-57h2.72v4.657c0,1.089.4,1.425,1.1,1.425.848,0,1.472-.561,1.472-1.841V-57Z"/><path class="c" d="M824.714-56.987l-.288,2.305a2.078,2.078,0,0,0-1.009-.24,1.732,1.732,0,0,0-1.793,1.889V-49H818.9v-8h2.4l.111,1.711a2.432,2.432,0,0,1,2.434-1.872A1.841,1.841,0,0,1,824.714-56.987Z"/><path class="c" d="M838.234-60.4V-49h-2.449l-.111-1.52a2.739,2.739,0,0,1-2.594,1.681c-2.08,0-3.3-1.521-3.3-4.13,0-2.657,1.248-4.194,3.3-4.194a2.576,2.576,0,0,1,2.434,1.521V-60.4ZM835.5-52.921l.017.016v-.208l-.017.031c0-1.328-.528-2.08-1.473-2.08-.927,0-1.5.657-1.5,2.161s.576,2.161,1.5,2.161S835.5-51.544,835.5-52.921Z"/><path class="c" d="M847.882-52.217h-5.458a1.536,1.536,0,0,0,1.68,1.457,1.365,1.365,0,0,0,1.473-.88l2.209.7c-.464,1.393-1.825,2.1-3.682,2.1-2.8,0-4.321-1.521-4.321-4.162s1.5-4.162,4.178-4.162c2.608,0,4,1.521,4,4.05A4.947,4.947,0,0,1,847.882-52.217Zm-5.458-1.472h3.01c-.145-1.024-.641-1.569-1.49-1.569S842.568-54.778,842.424-53.689Z"/><path class="c" d="M848.887-50.248l1.409-1.537a2.577,2.577,0,0,0,2.368,1.137c.753,0,1.2-.225,1.2-.56,0-.3-.385-.5-1.457-.72-2.432-.481-3.313-1.265-3.313-2.577s1.249-2.658,3.857-2.658c1.921,0,2.978.56,3.666,1.5l-1.409,1.376a2.411,2.411,0,0,0-2.177-1.072c-.8,0-1.216.288-1.216.608s.352.529,1.473.737c2.368.416,3.313,1.168,3.313,2.545,0,1.472-1.233,2.625-3.81,2.625A4.772,4.772,0,0,1,848.887-50.248Z"/><path class="c" d="M857.782-59.228c0-.912.481-1.313,1.585-1.313s1.584.4,1.584,1.313c0,.9-.479,1.3-1.584,1.3S857.782-58.332,857.782-59.228ZM860.728-49h-2.721v-8h2.721Z"/><path class="c" d="M870.65-48.375c0,1.857-1.793,2.817-4.5,2.817-2.9,0-4.1-.736-4.1-1.889,0-.656.431-1.264,1.472-1.505a1.8,1.8,0,0,1-1.216-1.664,1.762,1.762,0,0,1,1.3-1.633,2.353,2.353,0,0,1-1.3-2.193c0-1.728,1.424-2.721,3.905-2.721a7.865,7.865,0,0,1,1.6.161,2.271,2.271,0,0,1,2.53-2.146l.3,1.809c-1.008-.144-1.632.192-1.873.688a2.366,2.366,0,0,1,1.345,2.209c0,1.729-1.425,2.705-3.906,2.705a7.447,7.447,0,0,1-1.536-.143c-.368.1-.513.271-.513.559,0,.353.3.545.833.545h2.736C869.577-50.776,870.65-49.976,870.65-48.375Zm-2.145.272c0-.32-.24-.513-.977-.513h-2.192c-.881,0-1.217.177-1.217.561,0,.464.673.736,2.225.736C867.816-47.319,868.505-47.655,868.505-48.1Zm-3.474-6.339a1.1,1.1,0,0,0,1.185,1.152,1.1,1.1,0,0,0,1.184-1.152,1.113,1.113,0,0,0-1.184-1.168A1.114,1.114,0,0,0,865.031-54.442Z"/><path class="c" d="M879.737-54.33V-49h-2.72v-4.578c0-1.135-.464-1.5-1.137-1.5-.784,0-1.441.528-1.441,1.857V-49h-2.72v-8h2.432l.08,1.552a2.794,2.794,0,0,1,2.738-1.713A2.575,2.575,0,0,1,879.737-54.33Z"/><path class="c" d="M885.99-59.228c0-.912.481-1.313,1.585-1.313s1.584.4,1.584,1.313c0,.9-.479,1.3-1.584,1.3S885.99-58.332,885.99-59.228ZM888.936-49h-2.721v-8h2.721Z"/><path class="c" d="M890.277-50.248l1.41-1.537a2.576,2.576,0,0,0,2.368,1.137c.753,0,1.2-.225,1.2-.56,0-.3-.385-.5-1.457-.72-2.433-.481-3.314-1.265-3.314-2.577s1.249-2.658,3.858-2.658c1.921,0,2.977.56,3.666,1.5L896.6-54.282a2.411,2.411,0,0,0-2.177-1.072c-.8,0-1.216.288-1.216.608s.352.529,1.473.737c2.368.416,3.312,1.168,3.312,2.545,0,1.472-1.232,2.625-3.809,2.625A4.776,4.776,0,0,1,890.277-50.248Z"/></g><g class="b"><path class="c" d="M722.265-34.228c0-.912.479-1.313,1.584-1.313s1.585.4,1.585,1.313c0,.9-.481,1.3-1.585,1.3S722.265-33.332,722.265-34.228ZM725.209-24h-2.721v-8h2.721Z"/><path class="c" d="M740.3-29.33,740.27-24h-2.69v-4.706c0-1.007-.432-1.376-1.088-1.376-.816,0-1.409.608-1.409,1.809V-24h-2.721v-4.706c0-1.007-.448-1.376-1.089-1.376-.752,0-1.408.544-1.408,1.857V-24h-2.72v-8h2.432l.08,1.536a2.8,2.8,0,0,1,2.69-1.7,2.535,2.535,0,0,1,2.545,1.617,2.846,2.846,0,0,1,2.672-1.617A2.575,2.575,0,0,1,740.3-29.33Z"/><path class="c" d="M750.636-28.033c0,2.657-1.249,4.194-3.3,4.194a2.583,2.583,0,0,1-2.417-1.489v4.69H742.2V-32h2.385l.08,1.7a2.769,2.769,0,0,1,2.673-1.857C749.419-32.163,750.636-30.642,750.636-28.033ZM747.9-28c0-1.5-.576-2.161-1.5-2.161-.913,0-1.473.7-1.473,2.08v.161c0,1.329.528,2.081,1.473,2.081C747.322-25.84,747.9-26.5,747.9-28Z"/><path class="c" d="M754.937-26.769c0,.7.176.993.737.993a2.331,2.331,0,0,0,.816-.144l-.177,1.68a3.5,3.5,0,0,1-1.664.4c-1.712,0-2.433-.752-2.433-2.53V-35.4h2.721Z"/><path class="c" d="M765.194-27.217h-5.458a1.536,1.536,0,0,0,1.681,1.457,1.365,1.365,0,0,0,1.473-.88l2.209.7c-.464,1.393-1.826,2.1-3.682,2.1-2.8,0-4.321-1.521-4.321-4.162s1.5-4.162,4.177-4.162c2.609,0,4,1.521,4,4.05A4.947,4.947,0,0,1,765.194-27.217Zm-5.458-1.472h3.01c-.144-1.024-.641-1.569-1.489-1.569C760.393-30.258,759.881-29.778,759.736-28.689Z"/><path class="c" d="M779.949-29.33,779.917-24h-2.689v-4.706c0-1.007-.432-1.376-1.088-1.376-.817,0-1.41.608-1.41,1.809V-24h-2.72v-4.706c0-1.007-.448-1.376-1.089-1.376-.752,0-1.408.544-1.408,1.857V-24h-2.721v-8h2.433l.08,1.536a2.794,2.794,0,0,1,2.689-1.7,2.533,2.533,0,0,1,2.545,1.617,2.848,2.848,0,0,1,2.673-1.617A2.574,2.574,0,0,1,779.949-29.33Z"/><path class="c" d="M789.562-27.217H784.1a1.536,1.536,0,0,0,1.681,1.457,1.365,1.365,0,0,0,1.473-.88l2.209.7c-.464,1.393-1.825,2.1-3.682,2.1-2.8,0-4.321-1.521-4.321-4.162s1.5-4.162,4.178-4.162c2.608,0,4,1.521,4,4.05A4.942,4.942,0,0,1,789.562-27.217ZM784.1-28.689h3.01c-.144-1.024-.64-1.569-1.489-1.569C784.761-30.258,784.249-29.778,784.1-28.689Z"/><path class="c" d="M799.179-29.33V-24h-2.722v-4.578c0-1.135-.464-1.5-1.136-1.5-.785,0-1.441.528-1.441,1.857V-24h-2.721v-8h2.433l.08,1.552a2.794,2.794,0,0,1,2.737-1.713A2.576,2.576,0,0,1,799.179-29.33Z"/><path class="c" d="M806.842-24.448a4.26,4.26,0,0,1-2.257.609c-1.809,0-2.93-.7-2.945-2.562v-3.665h-1.377V-32h1.377v-1.793l2.72-.752V-32h2.4v1.936h-2.4v3.217a.933.933,0,0,0,1.057,1.073,1.863,1.863,0,0,0,1.152-.352Z"/><path class="c" d="M815.706-27.217h-5.458a1.536,1.536,0,0,0,1.681,1.457,1.363,1.363,0,0,0,1.472-.88l2.209.7c-.464,1.393-1.825,2.1-3.681,2.1-2.8,0-4.322-1.521-4.322-4.162s1.5-4.162,4.178-4.162c2.609,0,4,1.521,4,4.05A4.947,4.947,0,0,1,815.706-27.217Zm-5.458-1.472h3.01c-.145-1.024-.641-1.569-1.489-1.569C810.9-30.258,810.393-29.778,810.248-28.689Z"/><path class="c" d="M825.418-35.4V-24h-2.449l-.112-1.52a2.738,2.738,0,0,1-2.593,1.681c-2.08,0-3.3-1.521-3.3-4.13,0-2.657,1.248-4.194,3.3-4.194a2.573,2.573,0,0,1,2.433,1.521V-35.4Zm-2.737,7.475.016.016v-.208l-.016.031c0-1.328-.529-2.08-1.473-2.08-.928,0-1.5.657-1.5,2.161s.576,2.161,1.5,2.161C822.121-25.84,822.681-26.544,822.681-27.921Z"/><path class="c" d="M834.647-23.551c0,2.161-1.183,2.993-3.1,2.993a3.9,3.9,0,0,1-2.1-.513l.384-1.76a1.581,1.581,0,0,0,1.009.32c.672,0,1.088-.336,1.088-1.281V-32h2.72Zm.225-10.677c0,.881-.5,1.3-1.6,1.3-1.088,0-1.568-.416-1.568-1.3s.48-1.313,1.568-1.313C834.376-35.541,834.872-35.108,834.872-34.228Z"/><path class="c" d="M844.538-32v8H842.1l-.08-1.488a2.778,2.778,0,0,1-2.768,1.649,2.475,2.475,0,0,1-2.737-2.818V-32h2.72v4.657c0,1.089.4,1.425,1.1,1.425.848,0,1.472-.561,1.472-1.841V-32Z"/><path class="c" d="M845.9-25.248l1.408-1.537a2.579,2.579,0,0,0,2.369,1.137c.752,0,1.2-.225,1.2-.56,0-.3-.384-.5-1.456-.72-2.434-.481-3.313-1.265-3.313-2.577s1.248-2.658,3.857-2.658c1.921,0,2.977.56,3.665,1.5l-1.408,1.376a2.413,2.413,0,0,0-2.177-1.072c-.8,0-1.217.288-1.217.608s.353.529,1.473.737c2.369.416,3.313,1.168,3.313,2.545,0,1.472-1.232,2.625-3.809,2.625A4.772,4.772,0,0,1,845.9-25.248Z"/><path class="c" d="M860.825-24.448a4.258,4.258,0,0,1-2.257.609c-1.808,0-2.929-.7-2.945-2.562v-3.665h-1.377V-32h1.377v-1.793l2.721-.752V-32h2.4v1.936h-2.4v3.217a.933.933,0,0,0,1.056,1.073,1.868,1.868,0,0,0,1.153-.352Z"/><path class="c" d="M872.36-31.987l-.288,2.305a2.074,2.074,0,0,0-1.008-.24,1.732,1.732,0,0,0-1.793,1.889V-24h-2.72v-8h2.4l.112,1.711a2.433,2.433,0,0,1,2.433-1.872A1.838,1.838,0,0,1,872.36-31.987Z"/><path class="c" d="M873.206-34.228c0-.912.481-1.313,1.585-1.313s1.584.4,1.584,1.313c0,.9-.479,1.3-1.584,1.3S873.206-33.332,873.206-34.228ZM876.151-24h-2.72v-8h2.72Z"/><path class="c" d="M886.073-23.375c0,1.857-1.793,2.817-4.5,2.817-2.9,0-4.1-.736-4.1-1.889,0-.656.432-1.264,1.472-1.5a1.8,1.8,0,0,1-1.217-1.664,1.763,1.763,0,0,1,1.3-1.633,2.354,2.354,0,0,1-1.3-2.193c0-1.728,1.425-2.721,3.907-2.721a7.888,7.888,0,0,1,1.6.161,2.27,2.27,0,0,1,2.53-2.146l.3,1.809c-1.009-.144-1.633.192-1.873.688a2.364,2.364,0,0,1,1.345,2.209c0,1.729-1.425,2.7-3.9,2.7a7.45,7.45,0,0,1-1.537-.143c-.369.095-.512.271-.512.559,0,.353.3.545.832.545h2.737C885-25.776,886.073-24.976,886.073-23.375Zm-2.144.272c0-.32-.241-.513-.977-.513h-2.193c-.88,0-1.216.177-1.216.561,0,.464.672.736,2.225.736C883.24-22.319,883.929-22.655,883.929-23.1Zm-3.474-6.339a1.1,1.1,0,0,0,1.185,1.152,1.1,1.1,0,0,0,1.184-1.152,1.113,1.113,0,0,0-1.184-1.168A1.114,1.114,0,0,0,880.455-29.442Z"/><path class="c" d="M895.161-29.33V-24h-2.722v-4.578c0-1.135-.463-1.52-1.135-1.52-.785,0-1.442.544-1.442,1.889V-24h-2.72V-35.4h2.72v4.834a2.607,2.607,0,0,1,2.53-1.6A2.576,2.576,0,0,1,895.161-29.33Z"/><path class="c" d="M902.824-24.448a4.258,4.258,0,0,1-2.257.609c-1.808,0-2.929-.7-2.945-2.562v-3.665h-1.377V-32h1.377v-1.793l2.721-.752V-32h2.4v1.936h-2.4v3.217a.933.933,0,0,0,1.056,1.073,1.866,1.866,0,0,0,1.153-.352Z"/></g></g></g></svg>