<svg xmlns="http://www.w3.org/2000/svg" width="586" height="282" viewBox="0 0 586 282"><defs><style>.a{fill:#9c0b60;}.b{isolation:isolate;}.c{fill:#fff;}</style></defs><g transform="translate(-26 -1014)"><rect class="a" width="586" height="282" transform="translate(26 1014)"/><g class="b"><g class="b"><path class="c" d="M61.46,1195.8h6.422c3.261.021,4.761,1.262,4.761,3.562a2.865,2.865,0,0,1-2.681,2.959v.022c2.02.279,3.021,1.5,3.021,3.1,0,2.282-1.621,3.561-4.8,3.561H61.46Zm5.8,5.4q1.86,0,1.86-1.441t-1.86-1.44H64.781v2.881Zm.34,5.381c1.24,0,1.86-.519,1.86-1.48,0-.92-.62-1.44-1.86-1.44H64.781v2.92Z"/><path class="c" d="M82.162,1199.018l-.361,2.88a2.592,2.592,0,0,0-1.26-.3,2.162,2.162,0,0,0-2.24,2.359V1209H74.9v-10h3l.141,2.141a3.036,3.036,0,0,1,3.04-2.34A2.308,2.308,0,0,1,82.162,1199.018Z"/><path class="c" d="M93.662,1206.98l-.26,1.9a2.8,2.8,0,0,1-1.36.32c-1.34,0-2.281-.461-2.581-1.541-.56.961-1.72,1.541-3.561,1.541-1.98,0-3.1-.881-3.1-2.5,0-1.66,1.06-2.72,3.9-3.279l2.26-.441v-.36a1.34,1.34,0,0,0-1.42-1.48,1.667,1.667,0,0,0-1.86,1.541l-2.761-.8c.34-1.9,1.9-3.08,4.621-3.08,3.081,0,4.781,1.26,4.781,3.84v3.64q0,.783.72.782A1.914,1.914,0,0,0,93.662,1206.98Zm-4.7-1.4v-.861l-1.62.381c-.841.2-1.18.48-1.18,1.041s.36.859.98.859C87.981,1207,88.961,1206.5,88.961,1205.58Z"/><path class="c" d="M105.022,1202.34V1209h-3.4v-5.721c0-1.42-.58-1.881-1.421-1.881-.98,0-1.8.661-1.8,2.321V1209H95v-10h3.041l.1,1.941a3.487,3.487,0,0,1,3.421-2.14A3.218,3.218,0,0,1,105.022,1202.34Z"/><path class="c" d="M117.542,1194.758V1209h-3.061l-.14-1.9a3.423,3.423,0,0,1-3.24,2.1c-2.6,0-4.121-1.9-4.121-5.162,0-3.32,1.56-5.24,4.121-5.24a3.217,3.217,0,0,1,3.041,1.9v-5.941Zm-3.42,9.342.02.019v-.26l-.02.039c0-1.66-.661-2.6-1.841-2.6-1.16,0-1.881.82-1.881,2.7s.721,2.7,1.881,2.7C113.421,1206.7,114.122,1205.82,114.122,1204.1Z"/><path class="c" d="M119.68,1196.217c0-1.139.6-1.639,1.98-1.639s1.98.5,1.98,1.639c0,1.121-.6,1.621-1.98,1.621S119.68,1197.338,119.68,1196.217ZM123.36,1209h-3.4v-10h3.4Z"/><path class="c" d="M135.8,1202.34V1209h-3.4v-5.721c0-1.42-.58-1.881-1.421-1.881-.98,0-1.8.661-1.8,2.321V1209h-3.4v-10h3.041l.1,1.941a3.487,3.487,0,0,1,3.421-2.14A3.218,3.218,0,0,1,135.8,1202.34Z"/><path class="c" d="M148.161,1209.781c0,2.321-2.24,3.52-5.621,3.52-3.621,0-5.121-.92-5.121-2.36,0-.82.54-1.58,1.84-1.88a2.247,2.247,0,0,1-1.52-2.081,2.2,2.2,0,0,1,1.62-2.041,2.939,2.939,0,0,1-1.62-2.74c0-2.16,1.781-3.4,4.881-3.4a10.033,10.033,0,0,1,2,.2,2.836,2.836,0,0,1,3.16-2.68l.38,2.26c-1.26-.18-2.04.24-2.34.86a2.957,2.957,0,0,1,1.68,2.761c0,2.16-1.78,3.381-4.881,3.381a9.218,9.218,0,0,1-1.92-.18c-.46.12-.64.34-.64.7,0,.439.38.679,1.04.679h3.421C146.821,1206.779,148.161,1207.779,148.161,1209.781Zm-2.68.34c0-.4-.3-.641-1.22-.641H141.52c-1.1,0-1.52.221-1.52.7,0,.58.84.92,2.78.92C144.621,1211.1,145.481,1210.682,145.481,1210.121Zm-4.341-7.922a1.481,1.481,0,0,0,2.961,0,1.481,1.481,0,0,0-2.961,0Z"/><path class="c" d="M165.5,1206.98l-.26,1.9a2.8,2.8,0,0,1-1.36.32c-1.34,0-2.281-.461-2.581-1.541-.56.961-1.72,1.541-3.561,1.541-1.98,0-3.1-.881-3.1-2.5,0-1.66,1.06-2.72,3.9-3.279l2.26-.441v-.36a1.34,1.34,0,0,0-1.42-1.48,1.666,1.666,0,0,0-1.86,1.541l-2.761-.8c.34-1.9,1.9-3.08,4.621-3.08,3.08,0,4.781,1.26,4.781,3.84v3.64q0,.783.72.782A1.914,1.914,0,0,0,165.5,1206.98Zm-4.7-1.4v-.861l-1.62.381c-.841.2-1.18.48-1.18,1.041s.359.859.979.859C159.82,1207,160.8,1206.5,160.8,1205.58Z"/><path class="c" d="M176.861,1202.34V1209h-3.4v-5.721c0-1.42-.58-1.881-1.42-1.881-.98,0-1.8.661-1.8,2.321V1209h-3.4v-10h3.04l.1,1.941a3.489,3.489,0,0,1,3.421-2.14A3.219,3.219,0,0,1,176.861,1202.34Z"/><path class="c" d="M189.381,1194.758V1209H186.32l-.14-1.9a3.424,3.424,0,0,1-3.241,2.1c-2.6,0-4.12-1.9-4.12-5.162,0-3.32,1.56-5.24,4.12-5.24a3.215,3.215,0,0,1,3.041,1.9v-5.941Zm-3.421,9.342.02.019v-.26l-.02.039c0-1.66-.66-2.6-1.84-2.6-1.161,0-1.881.82-1.881,2.7s.72,2.7,1.881,2.7C185.26,1206.7,185.96,1205.82,185.96,1204.1Z"/><path class="c" d="M213.842,1199l-3.02,10h-4.081l-1.8-6.42-1.78,6.42H199.1l-3.04-10h3.58l1.68,7.522L203.28,1199h3.361l1.94,7.563,1.7-7.563Z"/><path class="c" d="M224.681,1204.98h-6.822a1.921,1.921,0,0,0,2.1,1.821,1.7,1.7,0,0,0,1.841-1.1l2.761.881c-.581,1.74-2.281,2.621-4.6,2.621-3.5,0-5.4-1.9-5.4-5.2s1.88-5.2,5.221-5.2c3.261,0,5,1.9,5,5.06A6.32,6.32,0,0,1,224.681,1204.98Zm-6.822-1.841h3.761c-.18-1.28-.8-1.959-1.86-1.959C218.679,1201.18,218.039,1201.779,217.859,1203.139Z"/><path class="c" d="M237.221,1204.039c0,3.262-1.521,5.162-4.121,5.162a3.461,3.461,0,0,1-3.341-2.32l-.1,2.119h-2.981v-14.242h3.4v5.9a3.227,3.227,0,0,1,3.021-1.859C235.66,1198.8,237.221,1200.719,237.221,1204.039ZM233.8,1204c0-1.881-.72-2.7-1.881-2.7-1.18,0-1.84.939-1.84,2.6v.2c0,1.72.7,2.6,1.84,2.6C233.08,1206.7,233.8,1205.879,233.8,1204Z"/><path class="c" d="M238.5,1207.439l1.761-1.919a3.224,3.224,0,0,0,2.96,1.419c.94,0,1.5-.279,1.5-.7,0-.381-.481-.621-1.821-.9-3.041-.6-4.141-1.58-4.141-3.221s1.56-3.32,4.821-3.32c2.4,0,3.721.7,4.581,1.879l-1.76,1.72a3.016,3.016,0,0,0-2.721-1.339c-1,0-1.52.359-1.52.759s.44.661,1.841.92c2.96.522,4.14,1.461,4.14,3.182,0,1.84-1.54,3.281-4.761,3.281C241.179,1209.2,239.519,1208.68,238.5,1207.439Z"/><path class="c" d="M249.618,1196.217c0-1.139.6-1.639,1.98-1.639s1.981.5,1.981,1.639c0,1.121-.6,1.621-1.981,1.621S249.618,1197.338,249.618,1196.217ZM253.3,1209h-3.4v-10h3.4Z"/><path class="c" d="M262.979,1208.439a5.308,5.308,0,0,1-2.82.762c-2.261,0-3.661-.881-3.681-3.2v-4.582h-1.72V1199h1.72v-2.24l3.4-.94V1199h3v2.42h-3v4.021a1.164,1.164,0,0,0,1.32,1.34,2.335,2.335,0,0,0,1.44-.439Z"/><path class="c" d="M274.06,1204.98h-6.822a1.921,1.921,0,0,0,2.1,1.821,1.7,1.7,0,0,0,1.841-1.1l2.76.881c-.58,1.74-2.28,2.621-4.6,2.621-3.5,0-5.4-1.9-5.4-5.2s1.881-5.2,5.222-5.2c3.26,0,5,1.9,5,5.06A6.32,6.32,0,0,1,274.06,1204.98Zm-6.822-1.841H271c-.18-1.28-.8-1.959-1.86-1.959C268.058,1201.18,267.418,1201.779,267.238,1203.139Z"/><path class="c" d="M285.5,1199h3.041v2.42H285.7V1209h-3.4v-7.582h-1.6V1199h1.6v-.92c0-2.521,1.781-3.6,4.041-3.6a3.834,3.834,0,0,1,2.3.58l-.34,2.121a1.754,1.754,0,0,0-1.141-.321c-1.04,0-1.66.4-1.66,1.442Z"/><path class="c" d="M299.879,1204c0,3.279-1.94,5.2-5.28,5.2s-5.282-1.922-5.282-5.2,1.941-5.2,5.282-5.2S299.879,1200.719,299.879,1204Zm-7.161,0c0,1.959.62,2.779,1.881,2.779s1.88-.82,1.88-2.779-.62-2.781-1.88-2.781S292.718,1202.039,292.718,1204Z"/><path class="c" d="M309.1,1199.018l-.361,2.88a2.592,2.592,0,0,0-1.26-.3,2.162,2.162,0,0,0-2.24,2.359V1209h-3.4v-10h3l.141,2.141a3.036,3.036,0,0,1,3.04-2.34A2.308,2.308,0,0,1,309.1,1199.018Z"/></g><g class="b"><path class="c" d="M71.5,1236.98l-.26,1.9a2.8,2.8,0,0,1-1.36.32c-1.34,0-2.28-.461-2.58-1.541-.561.961-1.721,1.541-3.561,1.541-1.981,0-3.1-.881-3.1-2.5,0-1.66,1.06-2.72,3.9-3.279l2.26-.441v-.36a1.34,1.34,0,0,0-1.42-1.48,1.667,1.667,0,0,0-1.86,1.541l-2.761-.8c.34-1.9,1.9-3.08,4.621-3.08,3.081,0,4.781,1.26,4.781,3.84v3.64q0,.783.72.782A1.91,1.91,0,0,0,71.5,1236.98Zm-4.7-1.4v-.861l-1.62.381c-.84.2-1.18.48-1.18,1.041s.36.859.98.859C65.821,1237,66.8,1236.5,66.8,1235.58Z"/><path class="c" d="M88.4,1232.34V1239H85v-5.721c0-1.42-.58-1.881-1.42-1.881-.98,0-1.8.661-1.8,2.321V1239h-3.4v-10h3.041l.1,1.941a3.487,3.487,0,0,1,3.421-2.14A3.218,3.218,0,0,1,88.4,1232.34Z"/><path class="c" d="M100.422,1234.98H93.6a1.921,1.921,0,0,0,2.1,1.821,1.7,1.7,0,0,0,1.841-1.1l2.76.881c-.58,1.74-2.28,2.621-4.6,2.621-3.5,0-5.4-1.9-5.4-5.2s1.881-5.2,5.221-5.2c3.261,0,5,1.9,5,5.06A6.319,6.319,0,0,1,100.422,1234.98Zm-6.821-1.841h3.761c-.18-1.28-.8-1.959-1.861-1.959C94.421,1231.18,93.781,1231.779,93.6,1233.139Z"/><path class="c" d="M108.5,1239l-1.96-3.48-2,3.48H100.78l3.6-5.061L100.92,1229h3.861l1.84,3.32,1.88-3.32h3.761l-3.461,4.961,3.541,5.041Z"/><path class="c" d="M120.942,1238.439a5.309,5.309,0,0,1-2.821.762c-2.26,0-3.661-.881-3.681-3.2v-4.582h-1.72V1229h1.72v-2.24l3.4-.94V1229h3v2.42h-3v4.021a1.165,1.165,0,0,0,1.321,1.34,2.335,2.335,0,0,0,1.44-.439Z"/><path class="c" d="M138.082,1239.781c0,2.321-2.241,3.52-5.622,3.52-3.62,0-5.121-.92-5.121-2.36,0-.82.54-1.58,1.841-1.88a2.247,2.247,0,0,1-1.52-2.081,2.2,2.2,0,0,1,1.62-2.041,2.939,2.939,0,0,1-1.62-2.74c0-2.16,1.78-3.4,4.881-3.4a10.023,10.023,0,0,1,2,.2,2.836,2.836,0,0,1,3.161-2.68l.38,2.26c-1.261-.18-2.04.24-2.341.86a2.958,2.958,0,0,1,1.681,2.761c0,2.16-1.781,3.381-4.881,3.381a9.221,9.221,0,0,1-1.921-.18c-.46.12-.64.34-.64.7,0,.439.38.679,1.041.679h3.42C136.742,1236.779,138.082,1237.779,138.082,1239.781Zm-2.681.34c0-.4-.3-.641-1.22-.641H131.44c-1.1,0-1.52.221-1.52.7,0,.58.84.92,2.781.92C134.541,1241.1,135.4,1240.682,135.4,1240.121Zm-4.341-7.922a1.481,1.481,0,0,0,2.961,0,1.481,1.481,0,0,0-2.961,0Z"/><path class="c" d="M149.062,1234.98H142.24a1.921,1.921,0,0,0,2.1,1.821,1.7,1.7,0,0,0,1.841-1.1l2.76.881c-.58,1.74-2.28,2.621-4.6,2.621-3.5,0-5.4-1.9-5.4-5.2s1.881-5.2,5.222-5.2c3.26,0,5,1.9,5,5.06A6.32,6.32,0,0,1,149.062,1234.98Zm-6.822-1.841H146c-.18-1.28-.8-1.959-1.86-1.959C143.06,1231.18,142.42,1231.779,142.24,1233.139Z"/><path class="c" d="M161.082,1232.34V1239h-3.4v-5.721c0-1.42-.58-1.881-1.42-1.881-.981,0-1.8.661-1.8,2.321V1239h-3.4v-10h3.04l.1,1.941a3.488,3.488,0,0,1,3.421-2.14A3.219,3.219,0,0,1,161.082,1232.34Z"/><path class="c" d="M173.1,1234.98H166.28a1.921,1.921,0,0,0,2.1,1.821,1.7,1.7,0,0,0,1.841-1.1l2.76.881c-.58,1.74-2.28,2.621-4.6,2.621-3.5,0-5.4-1.9-5.4-5.2s1.881-5.2,5.222-5.2c3.26,0,5,1.9,5,5.06A6.32,6.32,0,0,1,173.1,1234.98Zm-6.822-1.841h3.761c-.18-1.28-.8-1.959-1.86-1.959C167.1,1231.18,166.46,1231.779,166.28,1233.139Z"/><path class="c" d="M182.361,1229.018,182,1231.9a2.592,2.592,0,0,0-1.26-.3,2.162,2.162,0,0,0-2.24,2.359V1239h-3.4v-10h3l.14,2.141a3.036,3.036,0,0,1,3.04-2.34A2.3,2.3,0,0,1,182.361,1229.018Z"/><path class="c" d="M193.861,1236.98l-.26,1.9a2.8,2.8,0,0,1-1.36.32c-1.34,0-2.281-.461-2.58-1.541-.561.961-1.721,1.541-3.561,1.541-1.981,0-3.1-.881-3.1-2.5,0-1.66,1.06-2.72,3.9-3.279l2.26-.441v-.36a1.34,1.34,0,0,0-1.42-1.48,1.667,1.667,0,0,0-1.86,1.541l-2.761-.8c.34-1.9,1.9-3.08,4.621-3.08,3.081,0,4.781,1.26,4.781,3.84v3.64q0,.783.72.782A1.914,1.914,0,0,0,193.861,1236.98Zm-4.7-1.4v-.861l-1.62.381c-.84.2-1.18.48-1.18,1.041s.36.859.98.859C188.18,1237,189.16,1236.5,189.16,1235.58Z"/><path class="c" d="M202.061,1238.439a5.315,5.315,0,0,1-2.821.762c-2.261,0-3.661-.881-3.681-3.2v-4.582h-1.72V1229h1.72v-2.24l3.4-.94V1229h3v2.42h-3v4.021a1.164,1.164,0,0,0,1.32,1.34,2.335,2.335,0,0,0,1.44-.439Z"/><path class="c" d="M203.219,1226.217c0-1.139.6-1.639,1.98-1.639s1.981.5,1.981,1.639c0,1.121-.6,1.621-1.981,1.621S203.219,1227.338,203.219,1226.217ZM206.9,1239h-3.4v-10h3.4Z"/><path class="c" d="M219.4,1234c0,3.279-1.941,5.2-5.281,5.2s-5.281-1.922-5.281-5.2,1.94-5.2,5.281-5.2S219.4,1230.719,219.4,1234Zm-7.161,0c0,1.959.62,2.779,1.88,2.779s1.88-.82,1.88-2.779-.62-2.781-1.88-2.781S212.24,1232.039,212.24,1234Z"/><path class="c" d="M231.38,1232.34V1239h-3.4v-5.721c0-1.42-.58-1.881-1.42-1.881-.981,0-1.8.661-1.8,2.321V1239h-3.4v-10H224.4l.1,1.941a3.487,3.487,0,0,1,3.421-2.14A3.218,3.218,0,0,1,231.38,1232.34Z"/><path class="c" d="M250.021,1234.039c0,3.262-1.521,5.162-4.122,5.162a3.461,3.461,0,0,1-3.34-2.32l-.1,2.119h-2.98v-14.242h3.4v5.9a3.226,3.226,0,0,1,3.02-1.859C248.46,1228.8,250.021,1230.719,250.021,1234.039ZM246.6,1234c0-1.881-.721-2.7-1.881-2.7-1.18,0-1.84.939-1.84,2.6v.2c0,1.72.7,2.6,1.84,2.6C245.879,1236.7,246.6,1235.879,246.6,1234Z"/><path class="c" d="M262.12,1234c0,3.279-1.94,5.2-5.281,5.2s-5.281-1.922-5.281-5.2,1.941-5.2,5.281-5.2S262.12,1230.719,262.12,1234Zm-7.161,0c0,1.959.62,2.779,1.88,2.779s1.881-.82,1.881-2.779-.62-2.781-1.881-2.781S254.959,1232.039,254.959,1234Z"/><path class="c" d="M270.16,1239l-1.961-3.48-2,3.48h-3.761l3.6-5.061L262.578,1229h3.861l1.84,3.32,1.881-3.32h3.76l-3.461,4.961L274,1239Z"/><path class="c" d="M275.058,1226.217c0-1.139.6-1.639,1.98-1.639s1.981.5,1.981,1.639c0,1.121-.6,1.621-1.981,1.621S275.058,1227.338,275.058,1226.217ZM278.739,1239h-3.4v-10h3.4Z"/><path class="c" d="M291.18,1232.34V1239h-3.4v-5.721c0-1.42-.58-1.881-1.42-1.881-.98,0-1.8.661-1.8,2.321V1239h-3.4v-10h3.04l.1,1.941a3.488,3.488,0,0,1,3.421-2.14A3.219,3.219,0,0,1,291.18,1232.34Z"/><path class="c" d="M303.54,1239.781c0,2.321-2.241,3.52-5.622,3.52-3.62,0-5.121-.92-5.121-2.36,0-.82.54-1.58,1.841-1.88a2.247,2.247,0,0,1-1.52-2.081,2.2,2.2,0,0,1,1.62-2.041,2.939,2.939,0,0,1-1.62-2.74c0-2.16,1.78-3.4,4.881-3.4a10.022,10.022,0,0,1,2,.2,2.836,2.836,0,0,1,3.161-2.68l.38,2.26c-1.261-.18-2.04.24-2.341.86a2.958,2.958,0,0,1,1.681,2.761c0,2.16-1.781,3.381-4.881,3.381a9.221,9.221,0,0,1-1.921-.18c-.46.12-.64.34-.64.7,0,.439.38.679,1.041.679h3.42C302.2,1236.779,303.54,1237.779,303.54,1239.781Zm-2.681.34c0-.4-.3-.641-1.22-.641H296.9c-1.1,0-1.52.221-1.52.7,0,.58.84.92,2.781.92C300,1241.1,300.859,1240.682,300.859,1240.121Zm-4.341-7.922a1.481,1.481,0,0,0,2.961,0,1.481,1.481,0,0,0-2.961,0Z"/><path class="c" d="M321.14,1233.959c0,3.32-1.561,5.242-4.121,5.242A3.225,3.225,0,0,1,314,1237.34v5.861h-3.4V1229h2.981l.1,2.121a3.459,3.459,0,0,1,3.341-2.32C319.619,1228.8,321.14,1230.7,321.14,1233.959Zm-3.421.041c0-1.881-.72-2.7-1.881-2.7-1.14,0-1.84.881-1.84,2.6v.2c0,1.66.66,2.6,1.84,2.6C317,1236.7,317.719,1235.879,317.719,1234Z"/><path class="c" d="M326.518,1235.539c0,.881.22,1.24.92,1.24a2.859,2.859,0,0,0,1.02-.179l-.22,2.1a4.389,4.389,0,0,1-2.08.5c-2.14,0-3.041-.941-3.041-3.162v-11.281h3.4Z"/><path class="c" d="M340.019,1236.98l-.26,1.9a2.8,2.8,0,0,1-1.36.32c-1.34,0-2.281-.461-2.581-1.541-.56.961-1.72,1.541-3.561,1.541-1.98,0-3.1-.881-3.1-2.5,0-1.66,1.06-2.72,3.9-3.279l2.26-.441v-.36a1.34,1.34,0,0,0-1.42-1.48,1.668,1.668,0,0,0-1.861,1.541l-2.76-.8c.34-1.9,1.9-3.08,4.621-3.08,3.081,0,4.781,1.26,4.781,3.84v3.64q0,.783.72.782A1.914,1.914,0,0,0,340.019,1236.98Zm-4.7-1.4v-.861l-1.62.381c-.841.2-1.18.48-1.18,1.041s.359.859.98.859C334.338,1237,335.318,1236.5,335.318,1235.58Z"/><path class="c" d="M348.219,1238.439a5.312,5.312,0,0,1-2.821.762c-2.26,0-3.661-.881-3.681-3.2v-4.582H340V1229h1.72v-2.24l3.4-.94V1229h3v2.42h-3v4.021a1.164,1.164,0,0,0,1.32,1.34,2.331,2.331,0,0,0,1.44-.439Z"/><path class="c" d="M353.378,1229h3.04v2.42h-2.84V1239h-3.4v-7.582h-1.6V1229h1.6v-.92c0-2.521,1.781-3.6,4.041-3.6a3.834,3.834,0,0,1,2.3.58l-.34,2.121a1.756,1.756,0,0,0-1.141-.321c-1.04,0-1.66.4-1.66,1.442Z"/><path class="c" d="M367.759,1234c0,3.279-1.94,5.2-5.28,5.2s-5.282-1.922-5.282-5.2,1.941-5.2,5.282-5.2S367.759,1230.719,367.759,1234Zm-7.161,0c0,1.959.62,2.779,1.881,2.779s1.88-.82,1.88-2.779-.62-2.781-1.88-2.781S360.6,1232.039,360.6,1234Z"/><path class="c" d="M376.979,1229.018l-.361,2.88a2.6,2.6,0,0,0-1.26-.3,2.162,2.162,0,0,0-2.24,2.359V1239h-3.4v-10h3l.14,2.141a3.037,3.037,0,0,1,3.041-2.34A2.311,2.311,0,0,1,376.979,1229.018Z"/><path class="c" d="M394.76,1232.34l-.04,6.66h-3.36v-5.881c0-1.26-.54-1.721-1.36-1.721-1.021,0-1.761.76-1.761,2.262V1239h-3.4v-5.881c0-1.26-.56-1.721-1.36-1.721-.94,0-1.76.68-1.76,2.321V1239h-3.4v-10h3.04l.1,1.92a3.491,3.491,0,0,1,3.36-2.119,3.166,3.166,0,0,1,3.181,2.019,3.559,3.559,0,0,1,3.341-2.019A3.216,3.216,0,0,1,394.76,1232.34Z"/></g></g></g></svg>