<svg xmlns="http://www.w3.org/2000/svg" width="800" height="450" viewBox="0 0 800 450"><defs><style>.a{fill:#9c0b60;}.b{isolation:isolate;}.c{fill:#fff;}</style></defs><rect class="a" width="800" height="450" transform="translate(0)"/><g class="b"><g class="b"><path class="c" d="M75.555,116.9H86.792c5.705.036,8.33,2.206,8.33,6.231,0,2.626-1.54,4.69-4.69,5.181v.035c3.535.49,5.285,2.625,5.285,5.426,0,3.99-2.835,6.23-8.4,6.23H75.555Zm10.152,9.452q3.253,0,3.255-2.521t-3.255-2.52H81.366v5.041Zm.594,9.416c2.171,0,3.256-.911,3.256-2.591,0-1.61-1.085-2.52-3.256-2.52H81.366v5.111Z"/><path class="c" d="M111.781,122.533l-.63,5.04a4.548,4.548,0,0,0-2.205-.524,3.786,3.786,0,0,0-3.921,4.13V140h-5.95V122.5h5.25l.245,3.745c.875-2.59,2.591-4.095,5.321-4.095A4.027,4.027,0,0,1,111.781,122.533Z"/><path class="c" d="M131.906,136.465l-.455,3.325a4.878,4.878,0,0,1-2.38.56c-2.345,0-3.99-.805-4.515-2.7-.98,1.681-3.011,2.7-6.231,2.7-3.466,0-5.426-1.54-5.426-4.375,0-2.906,1.855-4.761,6.826-5.741l3.956-.77v-.63a2.347,2.347,0,0,0-2.486-2.591,2.916,2.916,0,0,0-3.255,2.7l-4.831-1.4c.6-3.326,3.326-5.391,8.086-5.391,5.391,0,8.366,2.206,8.366,6.721v6.37q0,1.365,1.26,1.365A3.432,3.432,0,0,0,131.906,136.465Zm-8.225-2.45v-1.506l-2.836.665c-1.47.35-2.065.841-2.065,1.82s.63,1.506,1.715,1.506C121.965,136.5,123.681,135.625,123.681,134.015Z"/><path class="c" d="M151.786,128.344V140h-5.95V129.989c0-2.485-1.015-3.291-2.485-3.291-1.716,0-3.151,1.156-3.151,4.061V140h-5.95V122.5h5.32l.175,3.4a6.1,6.1,0,0,1,5.985-3.746C149.336,122.148,151.786,124.283,151.786,128.344Z"/><path class="c" d="M173.7,115.077V140H168.34l-.244-3.325a5.989,5.989,0,0,1-5.671,3.675c-4.55,0-7.211-3.326-7.211-9.031,0-5.81,2.73-9.171,7.211-9.171a5.629,5.629,0,0,1,5.321,3.326v-10.4Zm-5.986,16.347.036.035V131l-.036.07c0-2.9-1.155-4.551-3.22-4.551-2.03,0-3.29,1.436-3.29,4.726s1.26,4.726,3.29,4.726C166.485,135.975,167.71,134.435,167.71,131.424Z"/><path class="c" d="M177.439,117.633c0-2,1.05-2.87,3.465-2.87s3.466.875,3.466,2.87c0,1.96-1.05,2.835-3.466,2.835S177.439,119.593,177.439,117.633ZM183.88,140h-5.951V122.5h5.951Z"/><path class="c" d="M205.65,128.344V140H199.7V129.989c0-2.485-1.015-3.291-2.485-3.291-1.715,0-3.151,1.156-3.151,4.061V140h-5.95V122.5h5.32l.175,3.4a6.1,6.1,0,0,1,5.986-3.746C203.2,122.148,205.65,124.283,205.65,128.344Z"/><path class="c" d="M227.28,141.365c0,4.061-3.92,6.16-9.836,6.16-6.336,0-8.961-1.609-8.961-4.129,0-1.436.945-2.766,3.221-3.291a3.928,3.928,0,0,1-2.661-3.64,3.849,3.849,0,0,1,2.836-3.57,5.146,5.146,0,0,1-2.836-4.8c0-3.781,3.116-5.951,8.541-5.951a17.407,17.407,0,0,1,3.5.35c.456-2.695,2.1-4.971,5.531-4.69l.665,3.955c-2.205-.315-3.57.421-4.1,1.506a5.167,5.167,0,0,1,2.94,4.83c0,3.78-3.115,5.916-8.541,5.916a16.127,16.127,0,0,1-3.36-.316c-.8.21-1.12.6-1.12,1.226,0,.769.665,1.189,1.82,1.189h5.986C224.935,136.114,227.28,137.865,227.28,141.365Zm-4.69.6c0-.7-.525-1.12-2.135-1.12h-4.8c-1.925,0-2.66.386-2.66,1.225,0,1.015,1.47,1.611,4.865,1.611C221.084,143.676,222.59,142.94,222.59,141.96Zm-7.6-13.861a2.591,2.591,0,0,0,5.18,0,2.59,2.59,0,0,0-5.18,0Z"/><path class="c" d="M257.625,136.465l-.456,3.325a4.872,4.872,0,0,1-2.379.56c-2.346,0-3.991-.805-4.516-2.7-.98,1.681-3.01,2.7-6.231,2.7-3.465,0-5.425-1.54-5.425-4.375,0-2.906,1.855-4.761,6.825-5.741l3.956-.77v-.63a2.347,2.347,0,0,0-2.485-2.591,2.917,2.917,0,0,0-3.256,2.7l-4.83-1.4c.6-3.326,3.325-5.391,8.086-5.391,5.39,0,8.365,2.206,8.365,6.721v6.37q0,1.365,1.261,1.365A3.436,3.436,0,0,0,257.625,136.465Zm-8.226-2.45v-1.506l-2.836.665c-1.47.35-2.065.841-2.065,1.82s.63,1.506,1.715,1.506C247.684,136.5,249.4,135.625,249.4,134.015Z"/><path class="c" d="M277.5,128.344V140h-5.95V129.989c0-2.485-1.015-3.291-2.485-3.291-1.715,0-3.151,1.156-3.151,4.061V140h-5.95V122.5h5.32l.175,3.4a6.1,6.1,0,0,1,5.986-3.746C275.054,122.148,277.5,124.283,277.5,128.344Z"/><path class="c" d="M299.414,115.077V140h-5.355l-.246-3.325a5.987,5.987,0,0,1-5.67,3.675c-4.55,0-7.21-3.326-7.21-9.031,0-5.81,2.73-9.171,7.21-9.171a5.628,5.628,0,0,1,5.321,3.326v-10.4Zm-5.985,16.347.035.035V131l-.035.07c0-2.9-1.156-4.551-3.221-4.551-2.03,0-3.29,1.436-3.29,4.726s1.26,4.726,3.29,4.726C292.2,135.975,293.429,134.435,293.429,131.424Z"/><path class="c" d="M342.22,122.5,336.935,140h-7.141l-3.15-11.236L323.528,140h-7.105L311.1,122.5h6.266l2.94,13.161,3.43-13.161h5.881l3.4,13.231L335.99,122.5Z"/><path class="c" d="M361.189,132.964H349.253a3.359,3.359,0,0,0,3.675,3.185c1.75,0,2.836-.7,3.22-1.924l4.831,1.54c-1.015,3.045-3.99,4.585-8.051,4.585-6.125,0-9.451-3.326-9.451-9.1s3.291-9.1,9.136-9.1c5.706,0,8.751,3.326,8.751,8.856A11.014,11.014,0,0,1,361.189,132.964Zm-11.936-3.22h6.58c-.314-2.24-1.4-3.431-3.255-3.431C350.688,126.313,349.568,127.363,349.253,129.744Z"/><path class="c" d="M383.134,131.319c0,5.705-2.66,9.031-7.211,9.031a6.053,6.053,0,0,1-5.845-4.06L369.9,140h-5.215V115.077h5.951V125.4a5.645,5.645,0,0,1,5.285-3.255C380.4,122.148,383.134,125.509,383.134,131.319Zm-5.986-.07c0-3.29-1.26-4.726-3.29-4.726-2.065,0-3.22,1.646-3.22,4.551v.35c0,3.011,1.225,4.551,3.22,4.551C375.888,135.975,377.148,134.539,377.148,131.249Z"/><path class="c" d="M385.371,137.27l3.081-3.361c1.05,1.75,2.94,2.486,5.18,2.486,1.645,0,2.625-.491,2.625-1.225,0-.665-.84-1.086-3.185-1.575-5.321-1.051-7.246-2.766-7.246-5.636s2.731-5.811,8.436-5.811c4.2,0,6.511,1.225,8.016,3.29l-3.08,3.011a5.274,5.274,0,0,0-4.761-2.345c-1.75,0-2.66.629-2.66,1.33s.77,1.155,3.221,1.61c5.18.91,7.245,2.556,7.245,5.565,0,3.221-2.7,5.741-8.331,5.741C390.062,140.35,387.157,139.439,385.371,137.27Z"/><path class="c" d="M404.831,117.633c0-2,1.05-2.87,3.466-2.87s3.465.875,3.465,2.87c0,1.96-1.05,2.835-3.465,2.835S404.831,119.593,404.831,117.633ZM411.271,140h-5.95V122.5h5.95Z"/><path class="c" d="M428.212,139.02a9.306,9.306,0,0,1-4.935,1.33c-3.956,0-6.406-1.54-6.441-5.6v-8.016h-3.01V122.5h3.01v-3.92l5.951-1.645V122.5h5.25v4.235h-5.25v7.037a2.038,2.038,0,0,0,2.31,2.344,4.076,4.076,0,0,0,2.52-.769Z"/><path class="c" d="M447.6,132.964H435.666a3.359,3.359,0,0,0,3.676,3.185c1.75,0,2.835-.7,3.22-1.924l4.831,1.54c-1.016,3.045-3.991,4.585-8.051,4.585-6.126,0-9.451-3.326-9.451-9.1s3.29-9.1,9.135-9.1c5.706,0,8.751,3.326,8.751,8.856A11.014,11.014,0,0,1,447.6,132.964Zm-11.936-3.22h6.58c-.314-2.24-1.4-3.431-3.255-3.431C437.1,126.313,435.98,127.363,435.666,129.744Z"/><path class="c" d="M467.621,122.5h5.32v4.235h-4.97V140H462.02V126.733h-2.8V122.5h2.8v-1.61c0-4.41,3.116-6.3,7.071-6.3a6.7,6.7,0,0,1,4.025,1.016l-.6,3.71a3.079,3.079,0,0,0-2-.56c-1.819,0-2.9.7-2.9,2.52Z"/><path class="c" d="M492.787,131.249c0,5.74-3.395,9.1-9.241,9.1s-9.241-3.361-9.241-9.1,3.4-9.1,9.241-9.1S492.787,125.509,492.787,131.249Zm-12.531,0c0,3.431,1.085,4.865,3.29,4.865s3.29-1.434,3.29-4.865-1.085-4.865-3.29-4.865S480.256,127.818,480.256,131.249Z"/><path class="c" d="M508.921,122.533l-.63,5.04a4.552,4.552,0,0,0-2.206-.524,3.785,3.785,0,0,0-3.92,4.13V140h-5.951V122.5h5.251l.245,3.745c.875-2.59,2.59-4.095,5.32-4.095A4.034,4.034,0,0,1,508.921,122.533Z"/></g><g class="b"><path class="c" d="M93.127,181.465l-.455,3.325a4.878,4.878,0,0,1-2.38.56c-2.345,0-3.991-.805-4.516-2.7-.98,1.681-3.01,2.7-6.23,2.7-3.466,0-5.426-1.54-5.426-4.375,0-2.906,1.855-4.761,6.826-5.741l3.955-.77v-.63a2.347,2.347,0,0,0-2.485-2.591,2.916,2.916,0,0,0-3.255,2.7l-4.831-1.4c.6-3.326,3.325-5.391,8.086-5.391,5.391,0,8.366,2.206,8.366,6.721v6.37q0,1.365,1.26,1.365A3.432,3.432,0,0,0,93.127,181.465Zm-8.226-2.45v-1.506l-2.835.665c-1.47.35-2.065.841-2.065,1.82s.63,1.506,1.715,1.506C83.186,181.5,84.9,180.625,84.9,179.015Z"/><path class="c" d="M122.7,173.344V185h-5.95V174.989c0-2.485-1.015-3.291-2.485-3.291-1.716,0-3.151,1.156-3.151,4.061V185h-5.95V167.5h5.32l.175,3.4a6.1,6.1,0,0,1,5.985-3.746C120.252,167.148,122.7,169.283,122.7,173.344Z"/><path class="c" d="M143.737,177.964H131.8a3.359,3.359,0,0,0,3.675,3.185c1.75,0,2.836-.7,3.22-1.924l4.831,1.54c-1.015,3.045-3.99,4.585-8.051,4.585-6.125,0-9.451-3.326-9.451-9.1s3.29-9.1,9.136-9.1c5.706,0,8.751,3.326,8.751,8.856A11.015,11.015,0,0,1,143.737,177.964Zm-11.936-3.22h6.58c-.315-2.24-1.4-3.431-3.255-3.431C133.236,171.313,132.116,172.363,131.8,174.744Z"/><path class="c" d="M157.876,185l-3.43-6.091-3.5,6.091h-6.581l6.3-8.855L144.61,167.5h6.756l3.22,5.811,3.29-5.811h6.581l-6.056,8.681L164.6,185Z"/><path class="c" d="M179.646,184.02a9.306,9.306,0,0,1-4.935,1.33c-3.956,0-6.406-1.54-6.441-5.6v-8.016h-3.01V167.5h3.01v-3.92l5.951-1.645V167.5h5.25v4.235h-5.25v7.037a2.038,2.038,0,0,0,2.31,2.344,4.076,4.076,0,0,0,2.52-.769Z"/><path class="c" d="M209.641,186.365c0,4.061-3.92,6.16-9.836,6.16-6.336,0-8.961-1.609-8.961-4.129,0-1.436.945-2.766,3.22-3.291a3.93,3.93,0,0,1-2.66-3.64,3.85,3.85,0,0,1,2.835-3.57,5.146,5.146,0,0,1-2.835-4.8c0-3.781,3.116-5.951,8.541-5.951a17.407,17.407,0,0,1,3.5.35c.455-2.7,2.1-4.971,5.531-4.69l.665,3.955c-2.205-.315-3.57.421-4.1,1.506a5.167,5.167,0,0,1,2.94,4.83c0,3.78-3.115,5.916-8.541,5.916a16.126,16.126,0,0,1-3.36-.316c-.805.21-1.12.6-1.12,1.226,0,.769.665,1.189,1.82,1.189h5.986C207.3,181.114,209.641,182.865,209.641,186.365Zm-4.69.6c0-.7-.525-1.12-2.136-1.12H198.02c-1.925,0-2.661.386-2.661,1.225,0,1.015,1.471,1.611,4.866,1.611C203.445,188.676,204.951,187.94,204.951,186.96Zm-7.6-13.861a2.591,2.591,0,0,0,5.18,0,2.59,2.59,0,0,0-5.18,0Z"/><path class="c" d="M228.856,177.964H216.92a3.359,3.359,0,0,0,3.675,3.185c1.75,0,2.836-.7,3.22-1.924l4.831,1.54c-1.015,3.045-3.99,4.585-8.051,4.585-6.125,0-9.451-3.326-9.451-9.1s3.291-9.1,9.136-9.1c5.706,0,8.751,3.326,8.751,8.856A11.015,11.015,0,0,1,228.856,177.964Zm-11.936-3.22h6.58c-.314-2.24-1.4-3.431-3.255-3.431C218.355,171.313,217.235,172.363,216.92,174.744Z"/><path class="c" d="M249.891,173.344V185H243.94V174.989c0-2.485-1.015-3.291-2.485-3.291-1.715,0-3.15,1.156-3.15,4.061V185h-5.951V167.5h5.32l.176,3.4a6.1,6.1,0,0,1,5.985-3.746C247.44,167.148,249.891,169.283,249.891,173.344Z"/><path class="c" d="M270.925,177.964H258.989a3.359,3.359,0,0,0,3.676,3.185c1.75,0,2.835-.7,3.22-1.924l4.83,1.54c-1.015,3.045-3.99,4.585-8.05,4.585-6.126,0-9.452-3.326-9.452-9.1s3.291-9.1,9.137-9.1c5.7,0,8.751,3.326,8.751,8.856A11.009,11.009,0,0,1,270.925,177.964Zm-11.936-3.22h6.581c-.315-2.24-1.4-3.431-3.256-3.431C260.424,171.313,259.3,172.363,258.989,174.744Z"/><path class="c" d="M287.13,167.533l-.63,5.04a4.552,4.552,0,0,0-2.206-.524,3.785,3.785,0,0,0-3.92,4.13V185h-5.951V167.5h5.251l.245,3.745c.875-2.59,2.59-4.1,5.32-4.1A4.028,4.028,0,0,1,287.13,167.533Z"/><path class="c" d="M307.255,181.465l-.455,3.325a4.878,4.878,0,0,1-2.38.56c-2.345,0-3.991-.805-4.516-2.7-.98,1.681-3.01,2.7-6.23,2.7-3.466,0-5.426-1.54-5.426-4.375,0-2.906,1.855-4.761,6.826-5.741l3.955-.77v-.63a2.347,2.347,0,0,0-2.485-2.591,2.916,2.916,0,0,0-3.255,2.7l-4.831-1.4c.6-3.326,3.325-5.391,8.086-5.391,5.391,0,8.366,2.206,8.366,6.721v6.37q0,1.365,1.26,1.365A3.432,3.432,0,0,0,307.255,181.465Zm-8.226-2.45v-1.506l-2.835.665c-1.47.35-2.065.841-2.065,1.82s.63,1.506,1.715,1.506C297.314,181.5,299.029,180.625,299.029,179.015Z"/><path class="c" d="M321.6,184.02a9.306,9.306,0,0,1-4.935,1.33c-3.956,0-6.406-1.54-6.441-5.6v-8.016h-3.01V167.5h3.01v-3.92l5.951-1.645V167.5h5.25v4.235h-5.25v7.037a2.038,2.038,0,0,0,2.31,2.344,4.076,4.076,0,0,0,2.52-.769Z"/><path class="c" d="M323.633,162.633c0-1.995,1.05-2.87,3.465-2.87s3.465.875,3.465,2.87c0,1.96-1.049,2.835-3.465,2.835S323.633,164.593,323.633,162.633ZM330.074,185h-5.951V167.5h5.951Z"/><path class="c" d="M351.949,176.249c0,5.74-3.4,9.1-9.241,9.1s-9.241-3.361-9.241-9.1,3.4-9.1,9.241-9.1S351.949,170.509,351.949,176.249Zm-12.531,0c0,3.431,1.085,4.865,3.29,4.865S346,179.68,346,176.249s-1.085-4.865-3.291-4.865S339.418,172.818,339.418,176.249Z"/><path class="c" d="M372.914,173.344V185h-5.95V174.989c0-2.485-1.015-3.291-2.485-3.291-1.716,0-3.151,1.156-3.151,4.061V185h-5.951V167.5H360.7l.175,3.4a6.1,6.1,0,0,1,5.985-3.746C370.464,167.148,372.914,169.283,372.914,173.344Z"/><path class="c" d="M405.533,176.319c0,5.705-2.66,9.031-7.21,9.031a6.053,6.053,0,0,1-5.845-4.06L392.3,185h-5.215V160.077h5.951V170.4a5.645,5.645,0,0,1,5.285-3.255C402.8,167.148,405.533,170.509,405.533,176.319Zm-5.985-.07c0-3.29-1.26-4.726-3.29-4.726-2.066,0-3.22,1.646-3.22,4.551v.35c0,3.011,1.225,4.551,3.22,4.551C398.288,180.975,399.548,179.539,399.548,176.249Z"/><path class="c" d="M426.708,176.249c0,5.74-3.4,9.1-9.241,9.1s-9.24-3.361-9.24-9.1,3.394-9.1,9.24-9.1S426.708,170.509,426.708,176.249Zm-12.531,0c0,3.431,1.085,4.865,3.29,4.865s3.291-1.434,3.291-4.865-1.086-4.865-3.291-4.865S414.177,172.818,414.177,176.249Z"/><path class="c" d="M440.777,185l-3.429-6.091-3.5,6.091h-6.582l6.3-8.855-6.054-8.647h6.756l3.219,5.811,3.29-5.811h6.581l-6.055,8.681L447.5,185Z"/><path class="c" d="M449.352,162.633c0-1.995,1.049-2.87,3.464-2.87s3.465.875,3.465,2.87c0,1.96-1.049,2.835-3.465,2.835S449.352,164.593,449.352,162.633ZM455.792,185h-5.95V167.5h5.95Z"/><path class="c" d="M477.562,173.344V185h-5.95V174.989c0-2.485-1.014-3.291-2.485-3.291-1.715,0-3.15,1.156-3.15,4.061V185h-5.952V167.5h5.321l.175,3.4a6.1,6.1,0,0,1,5.986-3.746C475.112,167.148,477.562,169.283,477.562,173.344Z"/><path class="c" d="M499.191,186.365c0,4.061-3.92,6.16-9.836,6.16-6.334,0-8.96-1.609-8.96-4.129,0-1.436.945-2.766,3.22-3.291a3.929,3.929,0,0,1-2.66-3.64,3.849,3.849,0,0,1,2.835-3.57,5.148,5.148,0,0,1-2.835-4.8c0-3.781,3.115-5.951,8.541-5.951a17.407,17.407,0,0,1,3.5.35c.455-2.7,2.1-4.971,5.53-4.69l.665,3.955c-2.205-.315-3.57.421-4.094,1.506a5.169,5.169,0,0,1,2.94,4.83c0,3.78-3.115,5.916-8.541,5.916a16.113,16.113,0,0,1-3.36-.316c-.806.21-1.12.6-1.12,1.226,0,.769.665,1.189,1.82,1.189h5.985C496.847,181.114,499.191,182.865,499.191,186.365Zm-4.69.6c0-.7-.524-1.12-2.135-1.12h-4.8c-1.924,0-2.66.386-2.66,1.225,0,1.015,1.471,1.611,4.866,1.611C493,188.676,494.5,187.94,494.5,186.96ZM486.9,173.1a2.591,2.591,0,0,0,5.181,0,2.591,2.591,0,0,0-5.181,0Z"/><path class="c" d="M529.992,176.179c0,5.81-2.73,9.171-7.211,9.171A5.647,5.647,0,0,1,517.5,182.1v10.256h-5.951V167.5h5.216l.175,3.711a6.054,6.054,0,0,1,5.845-4.061C527.332,167.148,529.992,170.474,529.992,176.179Zm-5.985.07c0-3.29-1.261-4.726-3.29-4.726-2,0-3.221,1.54-3.221,4.551v.35c0,2.9,1.155,4.551,3.221,4.551C522.746,180.975,524.007,179.539,524.007,176.249Z"/><path class="c" d="M539.405,178.944c0,1.54.386,2.17,1.611,2.17a5.041,5.041,0,0,0,1.785-.314l-.385,3.675a7.664,7.664,0,0,1-3.641.875c-3.745,0-5.32-1.645-5.32-5.531V160.077h5.95Z"/><path class="c" d="M563.031,181.465l-.455,3.325a4.878,4.878,0,0,1-2.38.56c-2.345,0-3.99-.805-4.515-2.7-.981,1.681-3.011,2.7-6.231,2.7-3.466,0-5.426-1.54-5.426-4.375,0-2.906,1.856-4.761,6.827-5.741l3.955-.77v-.63a2.347,2.347,0,0,0-2.486-2.591,2.918,2.918,0,0,0-3.256,2.7l-4.83-1.4c.595-3.326,3.326-5.391,8.086-5.391,5.391,0,8.367,2.206,8.367,6.721v6.37q0,1.365,1.259,1.365A3.428,3.428,0,0,0,563.031,181.465Zm-8.225-2.45v-1.506l-2.835.665c-1.471.35-2.066.841-2.066,1.82s.63,1.506,1.715,1.506C553.091,181.5,554.806,180.625,554.806,179.015Z"/><path class="c" d="M577.382,184.02a9.307,9.307,0,0,1-4.936,1.33c-3.956,0-6.406-1.54-6.44-5.6v-8.016h-3.011V167.5h3.011v-3.92l5.95-1.645V167.5h5.251v4.235h-5.251v7.037a2.038,2.038,0,0,0,2.311,2.344,4.071,4.071,0,0,0,2.519-.769Z"/><path class="c" d="M586.41,167.5h5.32v4.235h-4.969V185H580.81V171.733h-2.8V167.5h2.8v-1.61c0-4.41,3.115-6.3,7.071-6.3a6.705,6.705,0,0,1,4.025,1.016l-.6,3.71a3.078,3.078,0,0,0-2-.56c-1.82,0-2.905.7-2.905,2.52Z"/><path class="c" d="M611.577,176.249c0,5.74-3.4,9.1-9.241,9.1s-9.241-3.361-9.241-9.1,3.4-9.1,9.241-9.1S611.577,170.509,611.577,176.249Zm-12.531,0c0,3.431,1.085,4.865,3.29,4.865s3.29-1.434,3.29-4.865-1.085-4.865-3.29-4.865S599.046,172.818,599.046,176.249Z"/><path class="c" d="M627.711,167.533l-.63,5.04a4.552,4.552,0,0,0-2.206-.524,3.785,3.785,0,0,0-3.92,4.13V185H615V167.5h5.251l.245,3.745c.875-2.59,2.59-4.1,5.32-4.1A4.034,4.034,0,0,1,627.711,167.533Z"/><path class="c" d="M658.827,173.344,658.757,185h-5.88V174.709c0-2.205-.945-3.011-2.381-3.011-1.785,0-3.08,1.33-3.08,3.956V185h-5.95V174.709c0-2.205-.981-3.011-2.381-3.011-1.646,0-3.08,1.191-3.08,4.061V185h-5.951V167.5h5.321l.175,3.36a6.112,6.112,0,0,1,5.881-3.71A5.539,5.539,0,0,1,647,170.684a6.229,6.229,0,0,1,5.846-3.536C656.271,167.148,658.862,169.248,658.827,173.344Z"/></g></g></svg>