<svg xmlns="http://www.w3.org/2000/svg" width="800" height="450" viewBox="0 0 800 450"><defs><style>.a{fill:#f34c1c;}.b{isolation:isolate;}.c{fill:#fff;}</style></defs><rect class="a" width="800" height="450" transform="translate(0)"/><g class="b"><g class="b"><path class="c" d="M88.787,124.784H80.806L79.2,130H73.14l8.121-23.1h7.211L96.558,130h-6.2Zm-1.261-4.095-1.68-5.531-1.015-3.64h-.07l-.945,3.605L82.1,120.689Z"/><path class="c" d="M136.843,118.344,136.773,130h-5.881V119.709c0-2.205-.945-3.011-2.38-3.011-1.785,0-3.08,1.33-3.08,3.956V130h-5.951V119.709c0-2.205-.98-3.011-2.38-3.011-1.645,0-3.08,1.191-3.08,4.061V130H108.07V112.5h5.32l.175,3.36a6.113,6.113,0,0,1,5.881-3.71,5.54,5.54,0,0,1,5.566,3.536,6.229,6.229,0,0,1,5.845-3.536C134.288,112.148,136.878,114.248,136.843,118.344Z"/><path class="c" d="M158.646,121.249c0,5.74-3.395,9.1-9.24,9.1s-9.241-3.361-9.241-9.1,3.4-9.1,9.241-9.1S158.646,115.509,158.646,121.249Zm-12.531,0c0,3.431,1.086,4.865,3.291,4.865s3.29-1.434,3.29-4.865-1.085-4.865-3.29-4.865S146.115,117.818,146.115,121.249Z"/><path class="c" d="M179.821,105.077V130h-5.355l-.245-3.325a5.987,5.987,0,0,1-5.671,3.675c-4.55,0-7.21-3.326-7.21-9.031,0-5.81,2.73-9.171,7.21-9.171a5.628,5.628,0,0,1,5.321,3.326v-10.4Zm-5.985,16.347.035.035V121l-.035.07c0-2.9-1.155-4.551-3.22-4.551-2.031,0-3.291,1.436-3.291,4.726s1.26,4.726,3.291,4.726C172.611,125.975,173.836,124.435,173.836,121.424Z"/><path class="c" d="M200.926,122.964H188.99a3.359,3.359,0,0,0,3.675,3.185c1.75,0,2.835-.7,3.22-1.924l4.831,1.54c-1.015,3.045-3.99,4.585-8.051,4.585-6.125,0-9.451-3.326-9.451-9.1s3.29-9.1,9.136-9.1c5.706,0,8.751,3.326,8.751,8.856A11.014,11.014,0,0,1,200.926,122.964Zm-11.936-3.22h6.58c-.315-2.24-1.4-3.431-3.255-3.431C190.425,116.313,189.3,117.363,188.99,119.744Z"/><path class="c" d="M217.13,112.533l-.63,5.04a4.548,4.548,0,0,0-2.205-.524,3.785,3.785,0,0,0-3.92,4.13V130h-5.951V112.5h5.25l.245,3.745c.875-2.59,2.591-4.095,5.321-4.095A4.027,4.027,0,0,1,217.13,112.533Z"/><path class="c" d="M237.01,118.344V130h-5.95V119.989c0-2.485-1.015-3.291-2.485-3.291-1.716,0-3.151,1.156-3.151,4.061V130h-5.95V112.5h5.32l.175,3.4a6.1,6.1,0,0,1,5.986-3.746C234.56,112.148,237.01,114.283,237.01,118.344Z"/><path class="c" d="M269.175,126.465l-.455,3.325a4.878,4.878,0,0,1-2.38.56c-2.345,0-3.991-.805-4.516-2.7-.98,1.681-3.01,2.7-6.23,2.7-3.466,0-5.426-1.54-5.426-4.375,0-2.906,1.855-4.761,6.826-5.741l3.955-.77v-.63a2.347,2.347,0,0,0-2.485-2.591,2.918,2.918,0,0,0-3.256,2.7l-4.83-1.4c.6-3.326,3.325-5.391,8.086-5.391,5.39,0,8.366,2.206,8.366,6.721v6.37q0,1.365,1.26,1.365A3.432,3.432,0,0,0,269.175,126.465Zm-8.226-2.45v-1.506l-2.835.665c-1.47.35-2.065.841-2.065,1.82s.63,1.506,1.715,1.506C259.234,126.5,260.949,125.625,260.949,124.015Z"/><path class="c" d="M289.965,121.179c0,5.81-2.73,9.171-7.211,9.171a5.645,5.645,0,0,1-5.285-3.255v10.256h-5.951V112.5h5.215l.176,3.711a6.054,6.054,0,0,1,5.845-4.061C287.3,112.148,289.965,115.474,289.965,121.179Zm-5.986.07c0-3.29-1.26-4.726-3.29-4.726-1.995,0-3.22,1.54-3.22,4.551v.35c0,2.9,1.155,4.551,3.22,4.551C282.719,125.975,283.979,124.539,283.979,121.249Z"/><path class="c" d="M311.944,121.179c0,5.81-2.73,9.171-7.21,9.171a5.645,5.645,0,0,1-5.286-3.255v10.256H293.5V112.5h5.215l.175,3.711a6.054,6.054,0,0,1,5.846-4.061C309.284,112.148,311.944,115.474,311.944,121.179Zm-5.985.07c0-3.29-1.26-4.726-3.291-4.726-1.995,0-3.22,1.54-3.22,4.551v.35c0,2.9,1.156,4.551,3.22,4.551C304.7,125.975,305.959,124.539,305.959,121.249Z"/><path class="c" d="M328.184,112.533l-.631,5.04a4.548,4.548,0,0,0-2.205-.524,3.785,3.785,0,0,0-3.92,4.13V130h-5.951V112.5h5.251l.245,3.745c.875-2.59,2.59-4.095,5.32-4.095A4.034,4.034,0,0,1,328.184,112.533Z"/><path class="c" d="M347.958,121.249c0,5.74-3.4,9.1-9.24,9.1s-9.241-3.361-9.241-9.1,3.4-9.1,9.241-9.1S347.958,115.509,347.958,121.249Zm-12.531,0c0,3.431,1.086,4.865,3.291,4.865s3.29-1.434,3.29-4.865-1.085-4.865-3.29-4.865S335.427,117.818,335.427,121.249Z"/><path class="c" d="M369.2,126.465l-.455,3.325a4.878,4.878,0,0,1-2.38.56c-2.346,0-3.991-.805-4.516-2.7-.98,1.681-3.01,2.7-6.23,2.7-3.466,0-5.426-1.54-5.426-4.375,0-2.906,1.855-4.761,6.825-5.741l3.956-.77v-.63a2.347,2.347,0,0,0-2.485-2.591,2.917,2.917,0,0,0-3.256,2.7l-4.83-1.4c.6-3.326,3.325-5.391,8.086-5.391,5.39,0,8.365,2.206,8.365,6.721v6.37q0,1.365,1.261,1.365A3.432,3.432,0,0,0,369.2,126.465Zm-8.226-2.45v-1.506l-2.835.665c-1.471.35-2.066.841-2.066,1.82s.631,1.506,1.715,1.506C359.263,126.5,360.978,125.625,360.978,124.015Z"/><path class="c" d="M388.208,117.573l-5.53,1.821c-.245-2.031-1.12-3.01-2.7-3.01-2.24,0-3.465,1.5-3.465,4.935,0,3.465,1.365,4.795,3.465,4.795,1.681,0,2.626-1.014,2.906-2.835l5.356,1.715c-.491,3.046-3.326,5.356-8.226,5.356-6.126,0-9.452-3.361-9.452-9.1s3.4-9.1,9.206-9.1C385.443,112.148,387.648,114.738,388.208,117.573Z"/><path class="c" d="M408.929,118.344V130h-5.95V119.989c0-2.485-1.016-3.325-2.486-3.325-1.715,0-3.15,1.19-3.15,4.13V130h-5.951V105.077h5.951v10.571a5.7,5.7,0,0,1,5.53-3.5C406.479,112.148,408.929,114.283,408.929,118.344Z"/></g><g class="b"><path class="c" d="M87.842,174.02a9.309,9.309,0,0,1-4.936,1.33c-3.955,0-6.406-1.54-6.441-5.6v-8.016h-3.01V157.5h3.01v-3.92l5.951-1.645V157.5h5.251v4.235H82.416v7.037a2.038,2.038,0,0,0,2.31,2.344,4.079,4.079,0,0,0,2.521-.769Z"/><path class="c" d="M108,166.249c0,5.74-3.395,9.1-9.241,9.1s-9.241-3.361-9.241-9.1,3.4-9.1,9.241-9.1S108,160.509,108,166.249Zm-12.531,0c0,3.431,1.085,4.865,3.29,4.865s3.291-1.434,3.291-4.865-1.086-4.865-3.291-4.865S95.471,162.818,95.471,166.249Z"/><path class="c" d="M138.976,163.344V175h-5.951V164.989c0-2.485-1.014-3.291-2.484-3.291-1.716,0-3.151,1.156-3.151,4.061V175h-5.951V157.5h5.321l.175,3.4a6.1,6.1,0,0,1,5.985-3.746C136.526,157.148,138.976,159.283,138.976,163.344Z"/><path class="c" d="M160.571,157.5V175h-5.32l-.175-3.255c-1.085,2.45-3.221,3.605-6.056,3.605-3.57,0-5.985-1.75-5.985-6.161V157.5h5.95v10.187c0,2.379.875,3.115,2.415,3.115,1.856,0,3.221-1.226,3.221-4.026V157.5Z"/><path class="c" d="M193.612,163.344,193.542,175h-5.88V164.709c0-2.205-.945-3.011-2.381-3.011-1.785,0-3.08,1.33-3.08,3.956V175H176.25V164.709c0-2.205-.979-3.011-2.38-3.011-1.645,0-3.08,1.191-3.08,4.061V175h-5.951V157.5h5.321l.175,3.36a6.111,6.111,0,0,1,5.88-3.71,5.539,5.539,0,0,1,5.566,3.536,6.229,6.229,0,0,1,5.846-3.536C191.057,157.148,193.647,159.248,193.612,163.344Z"/><path class="c" d="M214.646,167.964H202.709a3.36,3.36,0,0,0,3.676,3.185c1.75,0,2.835-.7,3.22-1.924l4.831,1.54c-1.016,3.045-3.991,4.585-8.051,4.585-6.126,0-9.451-3.326-9.451-9.1s3.29-9.1,9.136-9.1c5.7,0,8.751,3.326,8.751,8.856A11.109,11.109,0,0,1,214.646,167.964Zm-11.937-3.22h6.581c-.315-2.24-1.4-3.431-3.255-3.431C204.145,161.313,203.024,162.363,202.709,164.744Z"/><path class="c" d="M230.85,157.533l-.63,5.04a4.548,4.548,0,0,0-2.205-.524,3.786,3.786,0,0,0-3.921,4.13V175h-5.95V157.5h5.25l.245,3.745c.875-2.59,2.59-4.1,5.32-4.1A4.028,4.028,0,0,1,230.85,157.533Z"/><path class="c" d="M250.625,166.249c0,5.74-3.4,9.1-9.241,9.1s-9.241-3.361-9.241-9.1,3.4-9.1,9.241-9.1S250.625,160.509,250.625,166.249Zm-12.531,0c0,3.431,1.085,4.865,3.29,4.865s3.291-1.434,3.291-4.865-1.086-4.865-3.291-4.865S238.094,162.818,238.094,166.249Z"/><path class="c" d="M259.934,168.944c0,1.54.385,2.17,1.61,2.17a5.041,5.041,0,0,0,1.785-.314l-.385,3.675a7.66,7.66,0,0,1-3.64.875c-3.745,0-5.321-1.645-5.321-5.531V150.077h5.951Z"/><path class="c" d="M283.14,166.249c0,5.74-3.4,9.1-9.241,9.1s-9.241-3.361-9.241-9.1,3.4-9.1,9.241-9.1S283.14,160.509,283.14,166.249Zm-12.532,0c0,3.431,1.086,4.865,3.291,4.865s3.29-1.434,3.29-4.865-1.085-4.865-3.29-4.865S270.608,162.818,270.608,166.249Z"/><path class="c" d="M303.79,176.365c0,4.061-3.921,6.16-9.836,6.16-6.336,0-8.961-1.609-8.961-4.129,0-1.436.944-2.766,3.22-3.291a3.929,3.929,0,0,1-2.66-3.64,3.849,3.849,0,0,1,2.835-3.57,5.146,5.146,0,0,1-2.835-4.8c0-3.781,3.115-5.951,8.541-5.951a17.406,17.406,0,0,1,3.5.35c.455-2.7,2.1-4.971,5.531-4.69l.665,3.955c-2.206-.315-3.571.421-4.1,1.506a5.167,5.167,0,0,1,2.94,4.83c0,3.78-3.115,5.916-8.54,5.916a16.13,16.13,0,0,1-3.361-.316c-.8.21-1.12.6-1.12,1.226,0,.769.665,1.189,1.82,1.189h5.986C301.444,171.114,303.79,172.865,303.79,176.365Zm-4.691.6c0-.7-.525-1.12-2.135-1.12h-4.8c-1.925,0-2.66.386-2.66,1.225,0,1.015,1.47,1.611,4.866,1.611C297.594,178.676,299.1,177.94,299.1,176.96ZM291.5,163.1a2.591,2.591,0,0,0,5.181,0,2.591,2.591,0,0,0-5.181,0Z"/><path class="c" d="M317.544,175c-1.925,5.565-4.235,7.525-8.681,7.525a7.926,7.926,0,0,1-4.76-1.295l1.26-3.99a3.994,3.994,0,0,0,3.01.91,2.451,2.451,0,0,0,2.731-1.68l.419-1.085-2.03-4.76L304.277,157.5h6.546l2.7,9.977.839,3.71.946-3.851L318,157.5h5.951Z"/></g></g></svg>