<svg id="sie-logo-petrol-rgb" xmlns="http://www.w3.org/2000/svg" width="127.594" height="20.287" viewBox="0 0 127.594 20.287">
  <g id="BoundingBox">
    <path id="Path_8" data-name="Path 8" d="M0,20.288H127.594V0H0Z" fill="none"/>
  </g>
  <g id="SIEMENS" transform="translate(0 0.007)">
    <g id="Group_23" data-name="Group 23">
      <path id="Path_9" data-name="Path 9" d="M.394,19.513V15.675a19.627,19.627,0,0,0,5.8,1.031q3.482,0,3.482-1.84a1.5,1.5,0,0,0-.508-1.152A10.4,10.4,0,0,0,6.508,12.34a17.966,17.966,0,0,1-5-2.69A4.954,4.954,0,0,1,0,5.945,5,5,0,0,1,2.2,1.553,9.773,9.773,0,0,1,7.854.057a31.576,31.576,0,0,1,5.561.708V4.457A13.62,13.62,0,0,0,8.387,3.376q-3.269,0-3.269,1.8a1.267,1.267,0,0,0,.659,1.1q.548.344,3.02,1.455a17.268,17.268,0,0,1,4.736,2.747,4.823,4.823,0,0,1,1.4,3.583,5.308,5.308,0,0,1-2.746,4.818A11.019,11.019,0,0,1,6.421,20.22a26.45,26.45,0,0,1-6.027-.707Z" transform="translate(0 -0.057)" fill="#fff" fill-rule="evenodd"/>
      <path id="Path_10" data-name="Path 10" d="M141.063,2.7h5.428V22.136h-5.428Z" transform="translate(-123.064 -2.366)" fill="#fff" fill-rule="evenodd"/>
      <path id="Path_11" data-name="Path 11" d="M222.616,22.136V2.7h13.921V6.219h-8.69v4.388h7.564v3.206h-7.564v4.611h8.914v3.712Z" transform="translate(-194.211 -2.366)" fill="#fff" fill-rule="evenodd"/>
      <path id="Path_12" data-name="Path 12" d="M361.247,22.136V2.7h7.037l4.889,12.416L378.186,2.7h6.685V22.136h-5.146V8.378l-5.7,13.956H370.66L365.071,8.378V22.136Z" transform="translate(-315.154 -2.366)" fill="#fff" fill-rule="evenodd"/>
      <path id="Path_13" data-name="Path 13" d="M585.411,22.136V2.7h13.921V6.219h-8.689v4.388h7.564v3.206h-7.564v4.611h8.914v3.712Z" transform="translate(-510.716 -2.366)" fill="#fff" fill-rule="evenodd"/>
      <path id="Path_14" data-name="Path 14" d="M724.271,22.136V2.7h6.291l6.674,13.008V2.7h3.823V22.136h-6.112L728.1,8.953V22.136Z" transform="translate(-631.858 -2.366)" fill="#fff" fill-rule="evenodd"/>
      <path id="Path_15" data-name="Path 15" d="M883.368,19.512V15.674a19.428,19.428,0,0,0,5.8,1.031q3.482,0,3.481-1.84a1.527,1.527,0,0,0-.492-1.152,10.451,10.451,0,0,0-2.672-1.373,17.737,17.737,0,0,1-5-2.69,4.944,4.944,0,0,1-1.507-3.719,4.98,4.98,0,0,1,2.2-4.379,9.768,9.768,0,0,1,5.658-1.5,26.96,26.96,0,0,1,5.08.625l.48.083V4.456a13.652,13.652,0,0,0-5.041-1.081q-3.257,0-3.254,1.8a1.267,1.267,0,0,0,.657,1.1q.522.331,3.034,1.455a17.533,17.533,0,0,1,4.722,2.747,4.818,4.818,0,0,1,1.4,3.583,5.313,5.313,0,0,1-2.731,4.818,11.092,11.092,0,0,1-5.78,1.344,26.431,26.431,0,0,1-6.028-.707Z" transform="translate(-770.313 -0.056)" fill="#fff" fill-rule="evenodd"/>
    </g>
  </g>
</svg>
