<svg id="Group_3127" data-name="Group 3127" xmlns="http://www.w3.org/2000/svg" width="92.651" height="45.955" viewBox="0 0 92.651 45.955">
  <g id="Group_22" data-name="Group 22" transform="translate(0 27.021)">
    <g id="Group_21" data-name="Group 21" transform="translate(0 0)">
      <g id="Group_17" data-name="Group 17" transform="translate(59.053 0.042)">
        <path id="Path_9573" data-name="Path 9573" d="M643.775,304.185a5.75,5.75,0,0,0-1.818-1.251,5.494,5.494,0,0,0-2.229-.456h-4.116a1.056,1.056,0,0,1-.812-.362,1.222,1.222,0,0,1-.331-.854,1.142,1.142,0,0,1,.331-.83,1.092,1.092,0,0,1,.812-.339l9.021.034-2.1-4.711h-6.919a5.241,5.241,0,0,0-2.2.468,5.881,5.881,0,0,0-3.03,3.122,5.995,5.995,0,0,0,0,4.537,5.88,5.88,0,0,0,1.223,1.859,5.779,5.779,0,0,0,1.807,1.251,5.358,5.358,0,0,0,2.2.456h4.116a1.169,1.169,0,0,1,.835.339,1.151,1.151,0,0,1,0,1.66,1.168,1.168,0,0,1-.835.339H630.4l4.528,4.677h4.8a5.489,5.489,0,0,0,2.229-.456,5.742,5.742,0,0,0,1.818-1.251,5.885,5.885,0,0,0,1.669-4.139,5.692,5.692,0,0,0-.446-2.245A5.93,5.93,0,0,0,643.775,304.185Z" transform="translate(-629.941 -295.416)" fill="#fff"/>
      </g>
      <g id="Group_18" data-name="Group 18" transform="translate(17.012 0.042)">
        <path id="Path_9574" data-name="Path 9574" d="M208.328,299.535a6.936,6.936,0,0,0-1.421-2.139,6.744,6.744,0,0,0-2.108-1.449,6.318,6.318,0,0,0-2.588-.537,6.119,6.119,0,0,0-2.347.456,7.267,7.267,0,0,0-2,1.229,6.976,6.976,0,0,0-1.97-1.227,6.387,6.387,0,0,0-4.936.083,6.774,6.774,0,0,0-2.1,1.451,6.935,6.935,0,0,0-1.419,2.14,6.536,6.536,0,0,0-.526,2.608l0,11.973h4.489l0-11.973a2.018,2.018,0,0,1,.618-1.5,2.126,2.126,0,0,1,2.977,0,2.017,2.017,0,0,1,.619,1.5l0,11.973h4.489l0-11.973a2.016,2.016,0,0,1,.618-1.5,2.127,2.127,0,0,1,2.978,0,2.017,2.017,0,0,1,.619,1.5l0,11.973h4.535l0-11.973A6.54,6.54,0,0,0,208.328,299.535Z" transform="translate(-186.914 -295.41)" fill="#fff"/>
      </g>
      <g id="Group_19" data-name="Group 19">
        <path id="Path_9575" data-name="Path 9575" d="M21.451,303.795a5.745,5.745,0,0,0-1.81-1.264,5.493,5.493,0,0,0-2.226-.471l-4.116-.028a1.057,1.057,0,0,1-.809-.368,1.222,1.222,0,0,1-.326-.856,1.14,1.14,0,0,1,.337-.828,1.092,1.092,0,0,1,.814-.334l9.006.062-2.071-4.691-6.9-.047a5.246,5.246,0,0,0-2.2.453,5.948,5.948,0,0,0-1.814,1.25A5.887,5.887,0,0,0,8.1,298.524a5.782,5.782,0,0,0-.461,2.254,5.886,5.886,0,0,0,1.642,4.15,5.772,5.772,0,0,0,1.8,1.263,5.358,5.358,0,0,0,2.192.471l4.116.028a1.168,1.168,0,0,1,.832.345,1.15,1.15,0,0,1-.011,1.66,1.168,1.168,0,0,1-.837.333l-9.329-.064,4.5,4.708,4.8.033a5.5,5.5,0,0,0,2.232-.441,5.745,5.745,0,0,0,1.826-1.239,5.886,5.886,0,0,0,1.7-4.128,5.7,5.7,0,0,0-.431-2.248A5.93,5.93,0,0,0,21.451,303.795Z" transform="translate(-7.637 -294.97)" fill="#fff"/>
      </g>
      <g id="Group_20" data-name="Group 20" transform="translate(75.703 0.042)">
        <path id="Path_9576" data-name="Path 9576" d="M817.855,295.416v7.062h-7.925v-7.062L805.4,300v14.125h4.535v-7.016h7.925v7.016h4.489V295.416Z" transform="translate(-805.396 -295.416)" fill="#fff"/>
      </g>
    </g>
  </g>
  <g id="Group_23" data-name="Group 23" transform="translate(39.794 27.349)">
    <path id="Path_9577" data-name="Path 9577" d="M453.026,316.9a7.55,7.55,0,0,0-1.416,14.965.532.532,0,1,0,.2-1.045,6.486,6.486,0,1,1,7.7-6.372v8.694a.532.532,0,0,0,1.063,0v-8.694A7.557,7.557,0,0,0,453.026,316.9Z" transform="translate(-443.723 -315.15)" fill="#fff"/>
    <path id="Path_9578" data-name="Path 9578" d="M436.293,298.417a9.3,9.3,0,0,0,0,18.606.532.532,0,1,0,0-1.063,8.24,8.24,0,1,1,8.24-8.24v8.772a.532.532,0,0,0,1.063,0V307.72A9.314,9.314,0,0,0,436.293,298.417Z" transform="translate(-426.99 -298.417)" fill="#fff"/>
    <path id="Path_9579" data-name="Path 9579" d="M472.459,336.035a5.795,5.795,0,0,0-5.409,10.249c.091.048.182.092.274.134l.091.041q.116.051.234.1c.049.019.1.037.148.055l.077.028v0a5.73,5.73,0,0,0,1.874.318,5.817,5.817,0,0,0,1.718-.261.532.532,0,0,0-.314-1.016,4.73,4.73,0,0,1-6.124-4.345,1.4,1.4,0,0,1,.317-.6l.022-.022a1.215,1.215,0,0,1,.528-.351,14.818,14.818,0,0,0,.717,3.191.392.392,0,0,0,.738-.263,14.076,14.076,0,0,1-.663-2.877,7.241,7.241,0,0,1-.045-.831,2.975,2.975,0,0,1,.218-1.207c.208-.446.948-.816,2.031-1.013,1.791-.327,3.976-.082,4.585.512.253.248.523.917.366,2.7a39.891,39.891,0,0,1-.705,4.218c-.064.316-.126.62-.182.906a.514.514,0,0,0-.017.144l0,.087c.036,1.977.023,3.576.011,4.406h2.043a.531.531,0,0,0,.523-.518c.022-.914.206-8.969-.226-10.367A5.757,5.757,0,0,0,472.459,336.035Z" transform="translate(-460.451 -331.856)" fill="#fff"/>
  </g>
  <g id="Group_24" data-name="Group 24" transform="translate(30.59 0)">
    <path id="Path_9580" data-name="Path 9580" d="M333.7,30.737l9.1,2.819.17-16.414,6.282,13.7,7.538-9.226L355.155,32.3l8.224-3.525,3.25-2.764L356.09,31.428l3.118-14.346-9.915,12.376-7.616-19.241.044,22.614L329.992,27.7Z" transform="translate(-329.992 -10.217)" fill="#fff"/>
    <path id="Path_9581" data-name="Path 9581" d="M409.647,123.474l-7.384,3.164,1.452-9.514-6.709,8.211-5.52-12.035-.149,14.42-8.41-2.607,6.251,5.115-2.24-3.336,5.723,2.3.259-11.652,3.866,9.579L402.6,119.7l-1.365,8.16,4.963-2.308-3.855,4.13Z" transform="translate(-377.904 -103.518)" fill="#fff"/>
  </g>
</svg>
