<svg id="Group_3125" data-name="Group 3125" xmlns="http://www.w3.org/2000/svg" width="92.846" height="34.883" viewBox="0 0 92.846 34.883">
  <g id="Group_4" data-name="Group 4" transform="translate(68.121 0)">
    <g id="Group_3" data-name="Group 3">
      <g id="Group_2" data-name="Group 2">
        <path id="Path_1" data-name="Path 1" d="M144.355,8.549c-.017-.091-.085-.051-.131-.051-.319.091-.444-.034-.763.051-.251-.017-.569.063-.678-.1.114-.233.393-.182.512-.524-.1-.3-.347-.011-.518.125-.148.108-.3.12-.45.222-.028.023-.057.051-.085.074V8.338a2.006,2.006,0,0,0-.945.6c-.552.587-1.72.638-2.54.866.222-.729.552-1.412.342-1.463-.2-.268-.968-.023-1.3.393a4.916,4.916,0,0,0-.957-.444c-.245-.251-.558-.547-.905-.883a4.585,4.585,0,0,1-.911-.883c-.034-.057.04-.188,0-.245-.347-.456-1.315-.917-1.555-1.5a1.721,1.721,0,0,1,.233-.6c.319-.478.552-.444.837-.416a.508.508,0,0,0,.6-.421,5.4,5.4,0,0,0,.165-.666s.421-.154.239-.427c0,0-.569-.518-.552-.757a1.569,1.569,0,0,0-.393-1.036.638.638,0,0,0-.091-.3c-.1-.148-.387-.182-.763-.125-.74.125-.985-.148-1.338.222-.336.353-.7-.131-1.1.251a1.706,1.706,0,0,1-1.754.3c-.137-.04-.444.251-.894-.108-.319-.256-1.116.359-1.036.547.33.831-.672.433-.45.632.148.137.5.12.985.011a1.363,1.363,0,0,1-1.173.473c-.114-.028-.1.393.256.524.211.074.251.393.427.353a1.92,1.92,0,0,1,.461.028,1.309,1.309,0,0,0,.512-.085,7.609,7.609,0,0,0,1.327-.319c.438-.216.871.211,1.127.216.712.034.353.621.854.524a.931.931,0,0,1-.023.1h-.006a.158.158,0,0,1-.006.051c-.011.023-.011.04-.023.068-.114.336-.541.438-.871.49-.313.051-.5.268-.894.3-.222.017-.569-.04-.78-.006a6.484,6.484,0,0,0-.695.159,4.892,4.892,0,0,0-1.691,1.253,2.148,2.148,0,0,0-1.19.592c-.057.347-.342.467-.575.638-.194.006-.3-.085-.524-.051-.336.165-.307.535-.621.638-.188.063-.359-.125-.666-.046-.438.245-.518,1.56.1,1.663a2.728,2.728,0,0,1,.359-.063,11.358,11.358,0,0,0-1.036,2.084h0c-.04.074-.063.085-.091.1a.018.018,0,0,1,.006-.011v.006c0-.006.006,0,.006-.006.011-.034,0-.057.006-.1l.006-.006a.2.2,0,0,0-.034-.131c0-.006.006-.006,0-.006h-.011a.218.218,0,0,1-.046-.063V11.2c-.011-.017-.011-.034-.023-.051s-.011-.011-.011-.011v-.017c0-.023-.023-.04-.023-.063a.315.315,0,0,1-.068-.08.155.155,0,0,1-.068-.034c-.011-.04.017-.085.011-.125a.018.018,0,0,1-.011-.006v-.023c-.006,0-.006-.011-.011-.011a.163.163,0,0,0-.091-.006c-.006-.023-.023-.023-.034-.028a.15.15,0,0,1-.051-.08.051.051,0,0,1-.006-.028c-.006-.006-.017-.006-.017-.017a.045.045,0,0,1-.034-.028h-.017c-.011-.006-.011-.017-.023-.023s-.017-.011-.023-.017-.006-.011-.006-.017-.011,0-.011,0a.086.086,0,0,1-.023-.034c0-.006-.011-.006-.011-.011a.006.006,0,0,0-.006-.006c-.006-.011,0-.017-.006-.028s-.011,0-.011-.011-.006,0-.017-.006.006-.011,0-.011-.011-.006-.011-.006-.006-.011-.011-.011a.286.286,0,0,0-.068-.011c-.017-.017-.046-.017-.057-.034a.255.255,0,0,1-.068-.006c-.006-.011-.006-.034-.011-.046a.117.117,0,0,1-.074-.017h-.011a.289.289,0,0,0-.051-.011.278.278,0,0,0-.04-.017.353.353,0,0,0-.137-.046l-.011.011c-.011,0-.017-.011-.028-.011l-.011.011c-.046.006-.091.006-.108.011s-.011-.006-.023.006l-.034.006a.03.03,0,0,0-.023.011.151.151,0,0,1-.034.028.043.043,0,0,1-.011.023.031.031,0,0,1-.028.011v.017c-.04.028-.085.017-.148.028-.011,0-.023.011-.034.011a.539.539,0,0,1-.137.006c-.017,0-.04.006-.051.006l-.011.006c-.011,0-.023-.006-.034-.006a.057.057,0,0,1-.017.006h-.017a.752.752,0,0,0-.165.011s-.017-.006-.023,0-.006.006-.023.006a.059.059,0,0,0-.023-.006.071.071,0,0,0-.068.017h-.017a.2.2,0,0,1-.046.028c-.006.006-.028,0-.034,0a.081.081,0,0,0-.034.011,1.283,1.283,0,0,0-.148,0v.006c-.006.006-.028,0-.034.006s-.011.011-.017.011-.017.023-.023.023-.023.017-.023.023-.006.017-.011.023h-.006v.017c0,.006-.011.006-.017.011a.14.14,0,0,0-.023.063c-.028.011-.034.034-.051.063.017.006.017.006.017.023s.034.034.04.04,0,.011.006.017.011.011.011.017a.043.043,0,0,1,.006.046l-.006.006c0,.011.011.023.006.034s-.006.006-.006.011c-.006.023,0,.046-.006.063a.065.065,0,0,1-.051.028c-.006.006-.023.006-.034.006v.011c-.006.006-.028,0-.028.006l-.034.051c-.011.011-.023.028-.034.04h-.006v.017c-.011.011-.017.011-.017.028s-.006.006-.011.006a.438.438,0,0,1-.011.085c0,.011-.011.011-.011.017s-.006.028-.017.034-.006.011-.011.023-.011.04-.023.051a.044.044,0,0,0-.011.028c0,.011-.017.017-.017.023a.006.006,0,0,1-.006.006c-.006.011-.006.028-.011.04a.008.008,0,0,0-.011,0c-.006.006.011.034,0,.04a.191.191,0,0,0-.017.148c.006.028-.006.046,0,.057v.011a.16.16,0,0,1,0,.091c0,.011.006.023-.006.028v.017a.447.447,0,0,0-.028.08.117.117,0,0,0,.011.1c.011.023.011.028.017.034v.011c0,.006.011,0,.011,0s.006.017.011.017.011-.006.011.006a.354.354,0,0,0,.091-.006c0-.006.011,0,.011,0a.051.051,0,0,1,.028-.006c.011-.011.046-.023.046-.028s.006,0,.006-.006l.017-.017c.006-.006.028.006.034,0,.006.051-.006.114,0,.165,0,.006.011.017.017.028a.348.348,0,0,1,.017.074c0,.006.011,0,.011,0v.011c.006.028.006.085.011.1a.149.149,0,0,0,.017.046c0,.006.011.006.011.006s0,.017.006.023h.011l.006.011c.017.006.023.006.028.011a.02.02,0,0,1,.011.006c.011,0,.006.006.006.006.017.006.023,0,.034.006l.006.011a.079.079,0,0,0,.023.017.084.084,0,0,1,.023.074.075.075,0,0,1,.034.057c.023,0,.028.023.04.028s.017.006.017.011v.006h.017c.006,0,.006.011.011.011s.023.006.034.017a.081.081,0,0,0,.034.011.006.006,0,0,1,.006.006c.023.006.028,0,.04.006s.017.017.017.017a.062.062,0,0,0,.028.006.068.068,0,0,0,.046.011c.011.017.04.017.051.023s.023.011.04.017a.006.006,0,0,1,.006.006.217.217,0,0,1,.057.017l.011.006a.076.076,0,0,0,.046.017.545.545,0,0,0,.1,0c-.034.017-.074.034-.046.1.034.046.08.091.148.057.006.011.017.017.023.028V13.1h.006a.145.145,0,0,0,.108.063c.171-.023.313-.023.438-.028a.006.006,0,0,0,.006.006c.006,0,.006.011.011.023h.017v.017a.116.116,0,0,1,.028.006.006.006,0,0,1,.006.006.194.194,0,0,0,.057.006c.023,0,.04.011.057,0,0-.011.023-.028,0-.034a.107.107,0,0,1-.011-.046.925.925,0,0,0,.364-.142.709.709,0,0,0,.382-.131c.438-.12.49-.12,1.213-.888h.006c.006-.006.006-.017.017-.023.028-.034.057-.063.091-.1h-.006a14.666,14.666,0,0,1,1.31-1.606c.028-.017.074-.046.142-.085a1.971,1.971,0,0,0,.592.387c-.006-.233.034-.421.188-.49.45.148.541-.182.814-.342.262.028.2.382.478.387.433-.011.245-.661.427-.928.2-.017.211.142.382.051-.034-.575-.4-.774-.046-1.224.068-.091.131-.216.194-.29.239-.29.678-.353.957-.541.177.182.1.416.142.638.091.416.3.814.387,1.219a4.173,4.173,0,0,1-.051,1.566c-.541.307-1.4.085-1.577.683v.017a.661.661,0,0,1-.1-.051c-.564.114-1.651,1.76-1.651,1.76-2.585,1.811-.723,6.583-.723,6.583.279,1.424-.325,2.05-.848,2.318q-.162.034-.359.068a.482.482,0,0,0-.08.1,1.291,1.291,0,0,1-.216.04,2.422,2.422,0,0,0,1.868,2.466.858.858,0,0,1,.205-.034c-.165.182-.416.735-.735.922-.125.04-.222-.017-.313-.017-1,.023-.353,1.076-.262,1.908.023.256-.177.592-.154.8.074.507.433.735.547.979.233.137.307.017.427-.154a10.387,10.387,0,0,1,.382-2.409.276.276,0,0,1,.034-.216c.177-.222,1.127-.94,1.207-1.031a6.658,6.658,0,0,1,.78,1.509,2.494,2.494,0,0,0,2.534,1.811,3.274,3.274,0,0,1,1.247-.011c.4,1.52.547,1.053.524,2.978a3.186,3.186,0,0,0-.29,1.241,4.753,4.753,0,0,0,.376,1.947c.125.04.068.1.319.1.325.011.3-.046.387-.1a4.218,4.218,0,0,0,.268-3.075.547.547,0,0,1-.017-.268c.006-.376,0,.108.006-.29a13.637,13.637,0,0,1,.182-2.335,4.7,4.7,0,0,0,1.122-.769,1.881,1.881,0,0,0,.342-.239h.08c.307.251.473.12.8.251a2.288,2.288,0,0,0,.911-.438,4.181,4.181,0,0,0,3.007-2.779,1.148,1.148,0,0,0,.649-.723c.074-.108.154-.216.154-.216a2.44,2.44,0,0,0,.046-1.378c-.006-.148-.011-.3-.023-.45.33-.245.239-.655.262-1.014.011-.074.091-.125.1-.188a1.647,1.647,0,0,0-.382-1.179c-.211-.387-.33-.609-.49-.866,1.2-.792-.575-1.036-.433-2.056a1.193,1.193,0,0,1,.894-1.145,2.386,2.386,0,0,0-1.708,0c-.313.108-.883-.387-.883-.387-1.862-3.679-3.462-2.141-3.929-2.688a.623.623,0,0,0-.5-.239,1.964,1.964,0,0,1-1.207-.8c.251-.473.723-.871.809-1.361v-.006c.632-.108.917-.564,1.384-.831a1.171,1.171,0,0,1,.29.49c.325.53,1,.655,1.1,1.219.034.2-.171.4-.1.587s.456.279.621.393c.239.165.364.4.626.438.188-.051.2-.188.421-.1.33.171.165.843.478,1.031a.8.8,0,0,0,.524-.393v-.342a2.052,2.052,0,0,0,.154-1.315,17.743,17.743,0,0,0,2.4-1.412c.2-.12.2-.2.547-.262a1.808,1.808,0,0,0,.467-.137,1.282,1.282,0,0,0,.843-.12.689.689,0,0,0,.387-.125c.41-.034.524-.239.894-.433a.168.168,0,0,0,.051-.159c.046-.006.051-.074.051-.125M122.266,11.2c0-.006.006-.006.006-.011s-.006-.023-.006-.034.011-.028.011-.046a.623.623,0,0,0-.006-.177c.017.006.006-.017.023-.017a.106.106,0,0,0,.068-.063c.023.006,0,.017,0,.028s.006.017.006.028a.3.3,0,0,0,.034.074c.023.034.057.046.085.068.006.023.017.034.023.057l.011.011c.011.011.011.028.017.04s.011.011.017.011c.011.017.011.068.023.1s.028.04.028.068c.017.011.028.034.046.046a1.233,1.233,0,0,1,0,.2.735.735,0,0,1-.091.051c-.006,0,0,.006-.006.006a1.152,1.152,0,0,0-.364-.068,1,1,0,0,0-.228.04h.006l.011-.011c.006-.006.011,0,.017,0V11.6a.06.06,0,0,1,.028-.011l.1-.1c.006-.011.017-.017.028-.028s.017-.023.023-.034.023-.006.023-.011.006-.017.011-.023a.286.286,0,0,0,.046-.068v-.017c.017-.017,0-.063.011-.108m-.661,1.076c.023-.006.034-.028.068-.023a.079.079,0,0,0,.017.023V12.3c-.023.017-.046.028-.068.046a.084.084,0,0,1-.017-.074m-1.014-.239c.006.006.023.023.034.023s.011.006.017.011a.051.051,0,0,1,.028.006.141.141,0,0,1,.051.023c0,.017.046,0,.051.011s0,.023.017.023a.05.05,0,0,1-.04.051c-.011.028-.04.034-.068.051a.02.02,0,0,0-.011.006c-.028.017-.068.017-.091.04h-.046a.085.085,0,0,0-.04.017h-.051c-.028,0-.028.011-.051,0a.02.02,0,0,0-.011-.006c-.011-.006-.023-.006-.034-.011a.006.006,0,0,0-.006-.006c-.011,0-.017,0-.023-.006a.052.052,0,0,1-.028-.017.006.006,0,0,0-.006-.006c-.057-.011-.08-.08-.131-.12a.256.256,0,0,0-.017-.063c-.006-.034-.034-.04-.034-.085,0-.017.006-.006.017-.006s.011.006.017.006c.023,0,.034-.034.068-.023a.356.356,0,0,1,.068.006.118.118,0,0,0,.046,0,.143.143,0,0,1,.057-.006c.023,0,.034.011.057.017a.061.061,0,0,1,.046.006.16.16,0,0,0,.046.006c.006,0,0,.006.006.006s.017.017.034.028c0,.006.011-.006.011,0s0,.006,0,.006a.02.02,0,0,0,.017.011m.148.006c-.006,0-.023.006-.028,0l-.006-.011s-.011.006-.011,0-.017-.006-.028-.011a.231.231,0,0,1-.051-.028c-.006-.006-.011-.006-.023-.006s-.006-.011-.017-.011h-.011c0-.006-.034-.006-.057-.011,0,0,0-.006-.011-.006h-.006a.152.152,0,0,0-.063-.011h-.017a.133.133,0,0,0-.1-.023l-.006.006c-.017,0-.034-.011-.051-.006a.307.307,0,0,1-.1,0c-.006-.006-.006-.017-.023-.017,0-.023-.017-.023-.006-.057-.011-.017-.034-.023-.046-.046a.247.247,0,0,1-.028-.068V11.7s.011-.011.006-.011,0-.006.006-.017a.024.024,0,0,1,.028-.011.923.923,0,0,0,.125.006c.011.011.034.017.028.046a.021.021,0,0,1,.017.006c.006.006.023,0,.028.006s.017,0,.046.006v.011h.023c.034.04.108-.028.171-.023a.07.07,0,0,1,.046.023c.006,0,0,.006.011.006s.028.023.046.028h.017c.006.011.04.006.068.006a.276.276,0,0,0,.1.017c.011,0,.017-.011.028-.011a.106.106,0,0,1,.04.011c.028.006.068.017.1.023h.1a.937.937,0,0,1,.12.011.176.176,0,0,0,.011.046.568.568,0,0,0,.142.074h-.023a.081.081,0,0,1-.046.04.668.668,0,0,1-.028.063.191.191,0,0,1-.057,0,.273.273,0,0,0-.068,0,.236.236,0,0,0-.034.011l-.006.006a.127.127,0,0,0-.057.017c-.023,0-.046.011-.068.011-.046.006-.08.028-.108-.011h-.034a.341.341,0,0,0-.091-.046m-.666-.142c-.023.011-.011-.011-.023-.023a.041.041,0,0,1-.023-.034c.034,0,.04.034.046.057m.82-.45a.008.008,0,0,0-.011,0c-.006-.011-.023,0-.046-.011a.006.006,0,0,0-.006-.006c-.011,0-.011-.017-.023-.017s-.023-.011-.034-.023a.021.021,0,0,0-.017-.006v-.006c-.011-.006-.023,0-.034-.006s-.011-.017-.011-.023a.028.028,0,0,0-.017-.006.094.094,0,0,0-.068,0c-.006,0-.017.011-.023.017a.274.274,0,0,1-.068,0,.157.157,0,0,1-.017-.125.006.006,0,0,0,.006-.006.062.062,0,0,1,.006-.034l.006-.017c.006-.006.028-.017.028-.034a.321.321,0,0,0,.1-.051c.023-.011.04.011.057.028,0,.011.023,0,.028.006l.011.011.006.006a.266.266,0,0,0,.1.011.121.121,0,0,0,.04.017.123.123,0,0,1,.046,0,.421.421,0,0,0,.108.028c0,.011.017.011.028.023s.006.011.017.017.011,0,.017,0,.006.011.017.011.006.011.011.017.04.017.04.04.034.028.04.046c.046,0,.051.023.08.034s.017.011.028.011c.034,0,.057-.011.1-.011.017,0,.023,0,.028.011s.006.017.017.023c-.011.023-.011.034-.028.04s-.046-.006-.063-.006-.028-.006-.034,0v.006c-.017,0-.063-.023-.085,0,0,0-.051-.006-.063-.006s-.011-.006-.011-.006c-.017,0-.028.006-.051.006-.006,0-.017-.006-.023,0s-.011,0-.034,0h-.074a.143.143,0,0,0-.057-.006s-.006.011-.006.006c-.017-.017-.046-.011-.068-.017.028.011.017.011.011.006h0m-.524-.478v-.028a.276.276,0,0,0,.04-.1s.006,0,.006-.011,0-.011,0-.011.023-.011.028-.023-.006-.011,0-.011.028-.023.04-.034a.02.02,0,0,0-.006-.011c.011-.006.011-.011.017-.017h.017s0-.011.006-.011h.011c.006-.011.028,0,.028-.011V10.69h.057l.006-.006c.006,0,.017.011.028.006a.14.14,0,0,0,.063-.023l.011.006a.081.081,0,0,1,.063-.023h.017c0-.006,0-.011.006-.011h.006c.028,0,.011.046.011.057a.034.034,0,0,1-.023.006c-.006,0-.011.011-.017.011l-.04.017s-.011.006-.011.011a.141.141,0,0,0-.051.023c-.011.006-.017.011-.028.017a1.141,1.141,0,0,1-.08.091.187.187,0,0,1-.046.114c-.006.011,0,.023,0,.04l-.011.006c-.006.006,0,.017,0,.023s-.011.017-.017.028a.1.1,0,0,1-.006.04.433.433,0,0,1-.046.12c-.034.006-.028-.023-.063-.017s-.046.011-.074.006c-.023-.023-.006-.051,0-.091v-.034a.006.006,0,0,0,.006-.006.176.176,0,0,1,.04-.08c-.006-.017.011-.028.011-.051m1.287.211c-.028.006-.028-.017-.04-.034s-.017-.034-.028-.051a.364.364,0,0,0-.04-.011c-.011-.006-.057-.006-.063-.023-.023-.006-.028.006-.046.006,0-.006-.011,0-.017-.006a.028.028,0,0,0-.006-.017c-.011-.006-.023,0-.034-.006s-.023-.023-.023-.028S121.355,11,121.35,11s-.017-.028-.04-.034a.284.284,0,0,0-.137.017c-.023,0-.028-.023-.046-.023a.1.1,0,0,1-.04-.028c.006-.017.046-.017.057-.028a.228.228,0,0,1,.131-.051.525.525,0,0,1,.046.028.043.043,0,0,1,.028.006l.011.006.011.006c.023.006.051,0,.068.011l.017.006a.125.125,0,0,0,.028.023c0,.006.011.011.023.011s.011.011.023.011.011.017.017.017.017-.006.017,0a.006.006,0,0,0,.006.006c.023,0,.011.011.028.011a.1.1,0,0,1,.051.023.278.278,0,0,1,.006.074c0,.04.017.074,0,.085m.068-.04c-.011-.011-.011-.04,0-.074a.02.02,0,0,1,.011-.006c0,.006,0,.011.006.011s.011-.034.028-.04.028.006.034.011a.018.018,0,0,0,.011.006c.006.006.011.006.023.011s.011.011.017.011.006.006.011.006.023.023.028.028a.222.222,0,0,0,.028.023s-.006.011,0,.011h0v.017h.011v.04c-.006.017-.011.017-.023.034s-.011.011-.023.017a1.655,1.655,0,0,1-.171.1c-.028.006-.028-.023-.057-.023a.574.574,0,0,1-.108.011c-.011,0-.023-.006-.034-.006-.034,0-.068.028-.1.006,0-.028.034-.028.057-.04,0,0,0-.006.011-.006s.028-.006.046-.011h.017v-.011a.176.176,0,0,1,.051-.006c.017,0,.034-.011.046-.006a.315.315,0,0,0,.08-.068.111.111,0,0,0-.006-.046m.393.023c.011-.006.017,0,.023,0s0-.011.006-.011a.068.068,0,0,1,.063.023.44.44,0,0,0-.011.085c0,.011,0,.006-.006.011s0,.017-.011.034-.006,0-.011.006a.081.081,0,0,1-.011.034c-.006.006-.006,0-.006.006s-.011.017-.023.023-.017.023-.028.034a.65.65,0,0,0-.063.063c-.006.006-.011.011-.017.011s-.017.04-.034.051-.017,0-.017.006,0,.006-.011.006-.017.011-.028.011-.011.011-.017.017-.017-.006-.017,0l.006.006a.034.034,0,0,1-.023.006V11.6a.081.081,0,0,1-.034.011c-.006.006,0,.006-.006.011s-.011.006-.023.006-.017-.006-.034-.006a.424.424,0,0,0-.085,0,.018.018,0,0,0-.006-.011.021.021,0,0,1-.017.011c-.011-.006-.028-.006-.034-.011s-.023-.011-.028-.011c-.046-.011-.1.006-.148-.017a.136.136,0,0,1,.04-.074c.011-.017.046-.023.063-.034s.006-.017.017-.017.011-.011.023-.017.028-.017.04-.028l.011-.011h.011a.192.192,0,0,1,.068-.023.734.734,0,0,0,.091-.051c.011-.011.034-.011.051-.017s0-.006,0-.006l.017-.006c.006,0,.006-.011.006-.017s.011.006.017,0,.028-.017.034-.04c.028,0,.046-.023.08-.04.006-.006.011-.006.017-.011s.011-.011.017-.011.011,0,.017-.006l.017-.017c-.006.011.011.017.017.011h0m-.376,1.048c.006-.006.006-.011.011-.017s.011,0,.023-.006.028-.04.046-.04l.011-.006c.006,0,.011-.011.017-.011s.017,0,.028-.006.011-.011.011-.011.017-.011.023-.017a.594.594,0,0,1-.165.177.28.28,0,0,1-.006-.063m-.211-.558h-.017c.006-.006.011-.011.017,0Zm-.068-.006h0m-.023-.53c.028-.017.068,0,.1.011s.023.057.04.08c-.028.028-.091.023-.137.034a.234.234,0,0,1,0-.125m-.063.131v.006c0,.006-.017.023-.023.034v.051a.154.154,0,0,1-.12-.091.2.2,0,0,0,.011-.057.217.217,0,0,0-.017-.091c-.011-.023-.028-.04-.034-.057s.023-.028.04-.034l.006-.006a.006.006,0,0,1,.006.006c.034-.006.046-.011.057.011,0,0,.011-.006.011,0a.572.572,0,0,1,.051.091.227.227,0,0,1,.023.074c.006.017-.006.017-.006.028a.085.085,0,0,0-.006.034m-.268-.182h.011a.021.021,0,0,1,.023.023c0,.011.017.011.028.023s-.006.011,0,.017.006-.006.006,0-.006.011,0,.011.006.051-.006.074c-.011.006-.017-.006-.023-.006h-.011c0-.006-.023-.017-.023-.028a.2.2,0,0,1-.068-.017c.006-.057.046-.068.063-.1m-.085.011a.19.19,0,0,1-.034.057c-.028,0-.046.011-.068,0,.006-.017-.011-.028,0-.051,0-.006.011-.011.017-.023s.017-.017.023-.028.017-.023.023-.023.017,0,.023-.006l.017-.011c.023-.006.04.011.057.017-.006.034-.034.051-.057.068m-.063-.114c-.011.006-.011.011-.023.023s-.028.023-.04.034,0,.011-.006.017a.02.02,0,0,0-.011.006c-.006.017-.006.034-.011.04s-.017.017-.023.028a.1.1,0,0,1-.08-.028c0-.034-.017-.051-.011-.074s.028-.034.046-.051.006-.017.017-.017.023-.017.028-.023c.04.017.1.006.142.023.006.023-.017.017-.028.023m.114.558.011-.011a.123.123,0,0,0,.046,0c.006,0,.011-.006.017-.006s.028.006.046.006a.02.02,0,0,1,.011-.006.02.02,0,0,0,.011.006.424.424,0,0,0,.085,0c.011,0,.023-.006.034-.006a.025.025,0,0,0,.017.006c.011,0,.046-.006.057.011-.011.011,0,.034-.011.051s-.017.017-.023.023-.006.017-.028.017l-.017.006c-.006.011-.006,0-.028,0h-.023c-.028-.006-.017-.011-.034-.028a.124.124,0,0,0-.028-.023c-.028-.006-.017.028-.04.028s-.051-.011-.068-.011-.011-.017-.023-.017-.017-.011-.023-.011a.031.031,0,0,1-.023-.028c.006-.011.028,0,.034-.006m.285.49a.19.19,0,0,1,.034-.057.789.789,0,0,0,.285-.006v.006a.142.142,0,0,0-.011.091.109.109,0,0,1-.068.028c-.017.006-.034.023-.057.023a.239.239,0,0,1-.085-.023h-.017c-.006,0-.011-.006-.023-.006s-.028.006-.046.006v-.006c-.017,0-.023,0-.028-.017a.028.028,0,0,1,.017-.04m.177.154a.044.044,0,0,0,.017-.011c0-.006,0-.006.006-.006h.006s.006-.011.011-.011h.017v-.006h.011v-.006h.017c.006-.006.006-.006.017-.006l.017-.006v-.006c0-.006.011,0,.011,0l.006-.006h.011v-.011s.011.006.011,0h.017c0-.006.017-.011.028-.023v-.017l.011-.006c.006-.006,0-.011,0-.023s.006,0,.006-.006a.075.075,0,0,0-.011-.063.391.391,0,0,1,.177.034v.006c0,.006-.011.006-.011.006s0,.017-.011.023-.006.017-.011.023-.011.011-.011.017c-.017.017-.017.028-.046.034-.006.006-.011.017-.023.017a.072.072,0,0,0-.034.006c-.023.028-.063.04-.074.08-.057.006-.125.08-.171.023-.006-.011.006-.017.006-.023,0-.023-.006-.028,0-.034m-.626-1.72c.028-.023.063-.011.1-.017h.04c.028,0,.023.034.051.04.011,0,.017-.011.028-.023a.034.034,0,0,0,.023-.006.06.06,0,0,1,.034-.028c.006-.011.017-.017.023-.023s.017.006.017,0a.02.02,0,0,1,.011-.006c.011,0,.011,0,.017-.006s0-.006.006-.006a.146.146,0,0,0,.028-.011c.023,0,.011-.034.034-.034.006,0,.006-.011.011-.017s.023,0,.028-.006.006-.011.006-.011a.267.267,0,0,0,.154-.023.272.272,0,0,0,.1.034c0,.017.023.023.034.028s.011.006.023.011,0,.011.011.017a.641.641,0,0,0,.1.017l.011.011c.006.006.017,0,.017,0a.1.1,0,0,1,.028.023c.011.006.017.006.017.011s0,.006.011.006a.227.227,0,0,1,.023.017.23.23,0,0,0,.063,0c0,.017.034.023.034.046V10.5c0,.006.011.011.023.023s0,.023.006.028a.088.088,0,0,0,.034.023.515.515,0,0,0,.057.051c.011.006.028.011.034.023s.006.017.017.028.017.006.017.011a.023.023,0,0,1,.011.023c0,.006.006,0,.006.006v.006a.082.082,0,0,0,.017.011v.017c.011.011.04.046.04.063s-.017.028-.017.04-.034.034-.046.063a1.106,1.106,0,0,1,.011.188c-.034.011-.057.011-.091.023s-.08.057-.125.028c-.006-.006-.006-.017-.017-.023s-.011.006-.011,0-.046-.04-.063-.063a.13.13,0,0,0-.068-.046c-.006,0-.023-.011-.034-.011s-.011-.023-.023-.023,0-.017-.023-.017,0-.028-.011-.034-.011-.091-.017-.137.006-.063-.011-.085c-.023,0-.023.017-.046.017v.028s-.017.006-.017.011.011.011.011.028-.011.011-.011.017a.1.1,0,0,1-.006.057.392.392,0,0,1-.057-.023.247.247,0,0,1-.04-.023h-.017c-.006-.006-.006-.011-.017-.017a.062.062,0,0,1-.028-.006s.006-.006-.011-.006a.416.416,0,0,0-.051-.028c0-.006-.017-.006-.023-.006-.017-.017-.023-.04-.046-.051a.025.025,0,0,0-.017-.006h-.011V10.7h-.017l-.006-.011a.277.277,0,0,0-.068-.006.115.115,0,0,0-.046-.023h-.017c-.006-.011-.051-.006-.068-.011a.006.006,0,0,0-.006-.006c-.011,0-.023-.017-.034-.023a.368.368,0,0,0-.074-.023c-.011-.006-.028-.023-.04-.023s-.017,0-.023-.006a.152.152,0,0,1-.057-.034c.028-.051.04-.063.04-.091m-.023.273c.006,0,0-.006.011-.006a.057.057,0,0,1,.017-.006c.006-.006.034-.023.046-.034.04.006.051-.017.074-.028.011.011.057-.011.068,0v.011s.011-.006.011,0v.006c.011,0,.028,0,.034.006a.451.451,0,0,1,.051.023c.017.006.023,0,.034.006a.344.344,0,0,0,.091.028c.006.023.028.028.046.057.051.006.068.046.125.046a.387.387,0,0,0,.1.051.008.008,0,0,1,0,.011c.023,0,.017.006.034.023s.057.023.057.068c-.046,0-.074-.017-.114-.017-.017-.034-.057-.04-.08-.068a.181.181,0,0,1-.08-.011c-.006-.006-.028-.006-.034-.017s-.017-.006-.028-.011-.006-.011-.011-.017-.011.006-.017,0-.023-.006-.046-.011a.067.067,0,0,0-.046-.006.212.212,0,0,0-.051.011.006.006,0,0,1-.006.006l-.023.023s-.011-.006-.017,0l-.011.011c-.011.006-.023-.006-.034,0s-.006.011-.017.017h-.017c-.006,0-.011.011-.017.011l-.006.006c-.017,0-.017-.006-.023-.006a.059.059,0,0,1-.023.006h-.046l-.006-.006c-.006,0-.011.006-.023.006-.034-.006-.063-.023-.085-.017a.1.1,0,0,0-.046.034c-.006,0,0,.011,0,.011l-.017.017-.006.006c-.006,0,0,.011,0,.011s-.017,0-.017,0a.057.057,0,0,1-.034.023c-.006.017-.023.028-.04.051a.094.094,0,0,1-.057.017c-.011.006-.023.011-.028,0v-.068s.006,0,.006-.011.011-.017.017-.023.023-.04.046-.04c0-.006-.006-.028,0-.034h.006c.011-.028.011-.04.046-.057.006,0,0-.006.006-.006a.021.021,0,0,0,.017-.006.513.513,0,0,0,.051-.028.034.034,0,0,1,.023-.006c.006-.006.006-.017.017-.017s.017,0,.028-.006l.011-.011c.006-.017.023-.017.034-.028m-.831.342.017-.017v-.011a.136.136,0,0,0,.017-.04.1.1,0,0,0,.006-.04.376.376,0,0,0-.006-.08.02.02,0,0,0,.006-.011.006.006,0,0,0-.006-.006c.006-.028.023-.04.017-.08a.044.044,0,0,0-.017-.04c-.006-.011-.028-.017-.017-.051l.006-.023h.006v-.017h.006v-.011h.006l.023-.046c.006-.011.017-.017.023-.028s.011-.011.017-.017a.008.008,0,0,1,.011,0l.017-.017a.448.448,0,0,1,.131-.011c.011,0,.023.011.04.006l.023-.006c.011-.011.046,0,.063-.011l.006-.006a.021.021,0,0,1,.017-.006l.011-.011c.006-.006.011,0,.017,0a.006.006,0,0,0,.006-.006.221.221,0,0,1,.063,0v-.011h.011a.854.854,0,0,1,.211-.006.006.006,0,0,0,.006.006.054.054,0,0,1,.04.011.3.3,0,0,1,.028.108c-.017.011-.04.006-.057.011s0,.006,0,.006h-.017c-.006.006-.011.006-.023.011s-.017,0-.023.006a.432.432,0,0,0-.063.023c-.023.006-.074,0-.114.006a.118.118,0,0,0-.034.011.006.006,0,0,1-.006.006s-.011-.006-.011,0l-.006.011a.141.141,0,0,1-.051.006c-.04.028-.051.085-.091.12,0,.011.006.034-.011.034.006.017-.006.017-.011.023v.011a.012.012,0,0,0-.011.011c-.011.011-.006.028-.023.04a.213.213,0,0,1-.006.063.051.051,0,0,0-.006.028.622.622,0,0,1-.046.085.215.215,0,0,1-.034.1c-.017.011.017.046,0,.063a.443.443,0,0,1-.131.028c-.023-.034-.017-.091-.034-.131a.145.145,0,0,1-.011-.04.108.108,0,0,0,.017-.051m-.017.319c.011-.006.023-.006.028-.017l.017-.017a.067.067,0,0,1,.04-.023c.011,0,0-.006,0-.006.034-.011.085-.006.12-.017a.085.085,0,0,0,.04-.017.461.461,0,0,0,.085-.006h.006c.04.011.046.046.085.057a.079.079,0,0,0,.028.057h.011c.006.011.006.017.028.023h.011c.011.011.034,0,.063-.006a.147.147,0,0,0,.028-.011c.006,0,.028-.017.051-.006a.057.057,0,0,1,.006.017h.017a.222.222,0,0,1,.028.023.044.044,0,0,1,.017.006c0,.006.023.023.034.023s.04.023.068.023c.011.017.023.017.034.028a.02.02,0,0,0,.006.011c0,.006.006,0,.017,0a.18.18,0,0,0,.034.028.09.09,0,0,1,.04.04c.034,0,.051.034.085.04,0,0,.011-.006.017,0v.006a.191.191,0,0,0,.057,0,.474.474,0,0,1,.085.023c.017,0,.017-.006.023.006s.011.006.023,0a.11.11,0,0,0-.085.108h-.057c-.011,0-.017-.006-.028-.006s0,.011-.006.006-.091-.006-.125-.006c-.011,0-.011-.006-.028-.006a.012.012,0,0,1-.017.006l-.006-.006-.04-.011-.011-.006c-.011,0-.023.006-.04.006s-.051-.011-.074-.011a.09.09,0,0,0-.04,0,.118.118,0,0,1-.046,0,.018.018,0,0,0-.006-.011.061.061,0,0,1-.034-.011h-.017a.248.248,0,0,0-.057-.046c-.006,0-.011.006-.023,0a.006.006,0,0,0-.006-.006.277.277,0,0,0-.068.006c-.006.006-.011.006-.028.006s-.011.011-.017.011a.111.111,0,0,1-.046.006c-.017.006-.011.011-.034,0a.035.035,0,0,1-.023-.011.537.537,0,0,0-.057-.057c0-.006,0-.006-.006-.011a.021.021,0,0,1-.017-.006c-.074.023-.131-.023-.194-.011,0-.006-.017-.011-.028-.011a.257.257,0,0,0-.074-.006l-.006.006-.006-.006c-.017-.006-.028,0-.046-.006a.011.011,0,0,0-.011-.011c-.023,0-.028.006-.04-.011s-.006-.011-.017-.011c.011-.046.051-.046.091-.051.017-.006.028-.023.051-.04a.124.124,0,0,1,.028-.017c.006-.006.017-.017.017-.023.023-.006.028-.023.04-.028m-.245.017a.36.36,0,0,1,.011-.04.079.079,0,0,0,.017-.023c.006,0,.017-.011.017-.011V11.3c0-.006.011-.006.011-.017v-.011c.006-.006.006-.023.011-.04s.006-.006.006-.011a.433.433,0,0,1,.023-.063.034.034,0,0,1,.006-.023c0-.006.011-.006.011-.006s.006-.023.011-.028.023,0,.023-.017a.057.057,0,0,0,.017.006c.017-.006.006.017.011.023a.06.06,0,0,1,.017.034.1.1,0,0,1,.028.046c0,.028-.017.04-.028.063s.023.034.023.063c-.011.011-.017.023-.028.034a.119.119,0,0,1-.034.023c-.011.006-.017.028-.028.034s-.028.006-.034.023a.085.085,0,0,1-.057-.011s-.011.017-.023.011-.006-.011-.017-.011.006-.011.006-.023m-.057.632c-.051-.057.017-.148-.006-.222.006-.011.006-.028.017-.04a.054.054,0,0,1,.011-.04.3.3,0,0,1-.006-.159h.017c.028.023.04.057.08.068.006-.006.034.011.04,0a.044.044,0,0,1,.04-.017.146.146,0,0,1,.068.028c-.006.028.006.074-.006.091s-.023.017-.04.006c0,0-.011.006-.011,0s-.006,0-.017-.006a.209.209,0,0,1-.034-.08c-.023,0-.023-.011-.04-.011a.089.089,0,0,0-.051.017.062.062,0,0,0-.011.085l.006.006a.051.051,0,0,1,.006.028c.006,0,.011.011.011.011.011.017.006.034.011.046v.006a.235.235,0,0,0,.017.046.006.006,0,0,0,.006.006.292.292,0,0,1,.023.057.1.1,0,0,1-.131.074m.661.626a.067.067,0,0,1-.051-.057c-.006-.006,0-.011-.006-.017s-.011-.011-.017-.011-.011-.011-.011-.017,0-.017-.006-.017c-.023-.011-.04-.011-.051-.023a.006.006,0,0,0-.006-.006.187.187,0,0,1-.034-.017.236.236,0,0,1-.154-.04.44.44,0,0,1-.011-.085c0-.006,0-.023-.011-.028s-.011-.011-.011-.017.006-.017,0-.028l-.011-.011c-.006-.017,0-.034-.006-.046a.145.145,0,0,1-.011-.04.191.191,0,0,1,0-.057c0-.017.006-.034.006-.046-.006-.1-.063-.137-.12-.2-.011-.023,0-.017,0-.051-.017,0-.006-.034,0-.04s.017,0,.023-.006a.006.006,0,0,1,.006.006h.017a.173.173,0,0,0,.051.074c.006.006.006.011.011.023a.151.151,0,0,0,.028.034c0,.006.011.011.011.011s.006.023.006.034v.011h.006c.006,0,0,.011,0,.017s.006.017.017.034.006,0,.006.006.006.011.006.017a.217.217,0,0,1,.017.057.006.006,0,0,1,.006.006c0,.011.006.011.006.023a.043.043,0,0,1,.006.028c0,.006.006.006.017.017s0,.011.011.023.017.017.023.028a.3.3,0,0,0,.051.063c.006.006.017.006.028.011v.006c.023.006.034.011.057.017a.057.057,0,0,0,.017.006c.006,0,.006,0,.023.006a.364.364,0,0,0,.057.023c.017,0,.04-.006.063-.006s.068.006.1,0a.091.091,0,0,0,.057-.028.134.134,0,0,0,.068-.011.06.06,0,0,0,.04-.034c.028,0,.046-.034.063-.046s.023-.011.04-.017a.124.124,0,0,1,.028-.023.168.168,0,0,0,.148-.046c0-.011.017,0,.017-.011a.1.1,0,0,0,.057,0c.006,0,.023-.006.028-.006s0-.011.017-.011h.028a.2.2,0,0,1,.091-.006c.006,0,.023.006.028.006.023,0,.017-.006.034,0h.034a.166.166,0,0,0,.046.011c.006,0,.011-.006.023-.006l.006.006c.017,0,.023.011.034.017a.043.043,0,0,1-.011.028h-.011c-.006.006-.006.011-.011.017a.008.008,0,0,0-.011,0c-.006.006-.006.017-.011.023s-.017.006-.017.011a.143.143,0,0,1-.023.04.006.006,0,0,1-.006.006c-.017.023-.011.023-.028.04a.042.042,0,0,1-.034.011c-.011.006-.011,0-.017.006s-.046-.023-.063-.028-.017,0-.023,0-.017-.011-.046,0a.823.823,0,0,0-.12.046c-.006.006,0,.006-.011.011l-.034.006v.006h-.011c-.006,0,0,.006,0,.006s-.017,0-.017,0v.006c0,.006-.011,0-.017.006V12.4c-.011.006-.028.006-.034.011a.151.151,0,0,0-.034.028c-.006,0-.011.006-.017.011s-.011,0-.023.011c-.034.028-.051.034-.068.068-.006.017-.006.011-.011.028s-.006.011-.006.023-.034.046-.057.063a.513.513,0,0,0-.142.017.02.02,0,0,0-.011.006.012.012,0,0,0-.017-.006v.006h-.006c-.029-.023-.068-.011-.091-.017m.364.2c-.023-.017-.028-.057-.057-.068-.051-.011-.051.028-.091.028,0-.011-.011,0-.011,0s-.017-.011-.034-.017a.062.062,0,0,1-.028-.006.006.006,0,0,0-.006-.006h-.023a.03.03,0,0,0-.023-.011c0-.006-.034-.006-.04-.006a.088.088,0,0,1-.023-.034c0-.028.023-.023.034-.028a.134.134,0,0,1,.046-.011c.017-.006.017.006.034.006l.017-.006a.02.02,0,0,0,.011.006.028.028,0,0,0,.017-.006c.006-.006.017,0,.023,0a.011.011,0,0,1,.011-.011c.011,0,.023.006.028,0s.017-.011.028-.011.017,0,.028-.006.006-.023.011-.023.023,0,.028-.006a.776.776,0,0,0,.023-.1.147.147,0,0,0,.051-.051c.046-.011.057-.04.108-.04.011-.017.046-.028.063-.046s.023.006.023,0l.023-.006.006-.011c.011-.006.023-.006.034-.011a.006.006,0,0,1,.006-.006c.017,0,.028-.011.057-.011s.046.017.063.017a.181.181,0,0,0,.074-.011s.017.006.023,0a.145.145,0,0,0,.057-.046c.006,0,.011-.017.017-.028s.023-.04.034-.063c.04-.006.034.028.063.034a.249.249,0,0,1,.046.04.289.289,0,0,0,.051.091.888.888,0,0,0-.114.091c-.285.114-.325.273-.575.387-.011,0-.017-.006-.034-.006,0,0-.006.011-.011.011a.021.021,0,0,0-.017-.011s-.006.011-.011.011l-.006-.011h-.034Z" transform="translate(-119.63 -0.004)" fill="#fff"/>
      </g>
    </g>
  </g>
  <g id="Group_21" data-name="Group 21" transform="translate(0 8.526)">
    <g id="Group_20" data-name="Group 20">
      <g id="Group_19" data-name="Group 19">
        <g id="Group_18" data-name="Group 18">
          <g id="Group_17" data-name="Group 17">
            <g id="Group_6" data-name="Group 6" transform="translate(0 6.624)">
              <g id="Group_5" data-name="Group 5">
                <path id="Path_2" data-name="Path 2" d="M10.74,28.261l-.416.165a4.029,4.029,0,0,1,.569,1.446,8.6,8.6,0,0,1,.154,1.56,4.773,4.773,0,0,1-.552,2.329,4.567,4.567,0,0,1-1.481,1.623,4.858,4.858,0,0,1-2.084.8,5.236,5.236,0,0,1-2.363-.177,1.751,1.751,0,0,0-.507.228,2.755,2.755,0,0,0-.512.387,2.567,2.567,0,0,0-.4.5.986.986,0,0,0-.171.524c0,.307.245.53.712.649a9.938,9.938,0,0,0,1.771.256c.7.046,1.463.1,2.278.154a10.164,10.164,0,0,1,2.283.4,4.543,4.543,0,0,1,1.771.985,2.442,2.442,0,0,1,.706,1.862,3.124,3.124,0,0,1-.94,2.289,6.2,6.2,0,0,1-2.306,1.458,10.077,10.077,0,0,1-3.007.621,10.637,10.637,0,0,1-3-.211A5.7,5.7,0,0,1,.922,45.065,2.258,2.258,0,0,1,0,43.22a2.357,2.357,0,0,1,.268-1.1,3.8,3.8,0,0,1,.655-.9,5.216,5.216,0,0,1,.877-.735c.33-.211.643-.416.957-.609a2.533,2.533,0,0,1-1.276-1.059,1.371,1.371,0,0,1-.017-1.139,3.458,3.458,0,0,1,.809-1.122,15.416,15.416,0,0,1,1.184-1.025,4.342,4.342,0,0,1-1.6-1.446,4.629,4.629,0,0,1-.706-1.868,5.014,5.014,0,0,1,.12-1.987,4.907,4.907,0,0,1,.894-1.811A4.818,4.818,0,0,1,3.8,27.111a5.014,5.014,0,0,1,2.3-.5,6.907,6.907,0,0,1,1.532.177,4.117,4.117,0,0,1,1.389.638c.285-.017.621-.04,1.019-.068s.774-.057,1.133-.085c.342-.028.769-.068,1.281-.125l.137.364ZM3.274,40.584a4.155,4.155,0,0,0-.683.575,3.347,3.347,0,0,0-.512.7,1.646,1.646,0,0,0-.2.8,1.418,1.418,0,0,0,.5,1.15,3.173,3.173,0,0,0,1.207.632,7.961,7.961,0,0,0,1.441.285c.5.046.905.068,1.236.068a9.879,9.879,0,0,0,1.782-.159,7.565,7.565,0,0,0,1.7-.484,3.664,3.664,0,0,0,1.1-.729,1.618,1.618,0,0,0,.461-1.207,1.053,1.053,0,0,0-.518-.951,3.925,3.925,0,0,0-1.224-.512,8.575,8.575,0,0,0-1.429-.216c-.478-.04-.86-.063-1.1-.063-.524-.017-1.036-.046-1.537-.091s-1-.125-1.5-.216A4.552,4.552,0,0,0,3.274,40.584ZM8.655,29.708A4.262,4.262,0,0,0,7.562,28.25a2.828,2.828,0,0,0-1.435-.6,2.569,2.569,0,0,0-1.429.239,2.76,2.76,0,0,0-1.1,1.036,3.386,3.386,0,0,0-.444,1.811A5.666,5.666,0,0,0,3.6,33.124a3.965,3.965,0,0,0,1.1,1.458,2.863,2.863,0,0,0,1.429.587,2.543,2.543,0,0,0,1.435-.251,2.922,2.922,0,0,0,1.093-1.053,3.387,3.387,0,0,0,.45-1.811A5.506,5.506,0,0,0,8.655,29.708Z" transform="translate(0 -26.61)" fill="#fff"/>
              </g>
            </g>
            <g id="Group_8" data-name="Group 8" transform="translate(13.86 2.189)">
              <g id="Group_7" data-name="Group 7">
                <path id="Path_3" data-name="Path 3" d="M33.912,37.031l-.256-.057-.023-2.443A6.864,6.864,0,0,1,31.839,36.5a4.26,4.26,0,0,1-2.523.7A3.592,3.592,0,0,1,26.3,35.949a4.966,4.966,0,0,1-.991-3.183V24.771a1.12,1.12,0,0,0-.2-.814,1.3,1.3,0,0,0-.763-.171v-.222h3.024l-.051,8.917a3.57,3.57,0,0,0,.45,1.908,2.471,2.471,0,0,0,1.145,1.036,2.8,2.8,0,0,0,1.486.228,3.686,3.686,0,0,0,1.486-.5,3.5,3.5,0,0,0,1.162-1.167A3.263,3.263,0,0,0,33.5,32.23v-7.46c0-.467-.1-.752-.29-.843a2.075,2.075,0,0,0-.877-.142v-.222h3.229l-.057,11.753c0,.37.068.6.211.678a1.526,1.526,0,0,0,.678.108v.228Zm-5.244-16a1.238,1.238,0,0,1-.82.307,1.212,1.212,0,0,1-.82-.319,1.16,1.16,0,0,1-.376-.945,1.148,1.148,0,0,1,.376-.94,1.214,1.214,0,0,1,1.64,0,1.184,1.184,0,0,1,.376.94A1.164,1.164,0,0,1,28.668,21.035Zm5.2-.028a1.239,1.239,0,0,1-1.634,0,1.306,1.306,0,0,1,0-1.845,1.239,1.239,0,0,1,1.634,0,1.306,1.306,0,0,1,0,1.845Z" transform="translate(-24.34 -18.82)" fill="#fff"/>
              </g>
            </g>
            <g id="Group_10" data-name="Group 10" transform="translate(27.868)">
              <g id="Group_9" data-name="Group 9">
                <path id="Path_4" data-name="Path 4" d="M48.963,35.262v-.228a1.781,1.781,0,0,0,.991-.182c.159-.12.233-.456.233-.991V17.08a2.631,2.631,0,0,0-.051-.615.324.324,0,0,0-.211-.245.737.737,0,0,0-.387,0,3.406,3.406,0,0,1-.6.046v-.592c.125-.034.353-.1.666-.188s.643-.182.985-.273.678-.148.979-.188a1.269,1.269,0,0,1,.621-.017V33.947a.917.917,0,0,0,.364.848,1.751,1.751,0,0,0,1,.245v.228h-4.6Z" transform="translate(-48.94 -14.977)" fill="#fff"/>
              </g>
            </g>
            <g id="Group_12" data-name="Group 12" transform="translate(34.177 6.619)">
              <g id="Group_11" data-name="Group 11">
                <path id="Path_5" data-name="Path 5" d="M60.02,40.745l.08-3.73.222-.057a3.121,3.121,0,0,0,.735,1.446,3.755,3.755,0,0,0,2.676,1.179,3.558,3.558,0,0,0,1.4-.239,2.421,2.421,0,0,0,1.025-.763,1.959,1.959,0,0,0,.41-1.264,1.926,1.926,0,0,0-.49-1.355,5.506,5.506,0,0,0-1.2-.985,17.066,17.066,0,0,0-1.555-.826,10.188,10.188,0,0,1-1.56-.911A5.133,5.133,0,0,1,60.561,32a3.066,3.066,0,0,1-.484-1.777,3.5,3.5,0,0,1,.336-1.555,3.127,3.127,0,0,1,.894-1.139,4.337,4.337,0,0,1,1.327-.695,5.257,5.257,0,0,1,1.56-.239,4.984,4.984,0,0,1,1.509.222,11.9,11.9,0,0,0,1.492.37l.222-.456h.137v3.121h-.2a3.388,3.388,0,0,0-1.446-1.737,3.621,3.621,0,0,0-1.873-.518,2.6,2.6,0,0,0-1.612.547,1.775,1.775,0,0,0-.683,1.492,1.744,1.744,0,0,0,.5,1.264,6.272,6.272,0,0,0,1.236.94c.5.29,1.036.575,1.611.854a10.009,10.009,0,0,1,1.611.974,5.146,5.146,0,0,1,1.241,1.293,3.169,3.169,0,0,1,.507,1.811,3.382,3.382,0,0,1-1.258,2.745,4.089,4.089,0,0,1-1.5.814,5.789,5.789,0,0,1-1.7.251,7.985,7.985,0,0,1-1.276-.114c-.433-.074-.86-.154-1.281-.251-.154-.04-.3-.074-.456-.108a3.053,3.053,0,0,0-.444-.085c-.068,0-.131.114-.194.33a1.906,1.906,0,0,1-.137.4H60.02Z" transform="translate(-60.02 -26.6)" fill="#fff"/>
              </g>
            </g>
            <g id="Group_14" data-name="Group 14" transform="translate(44.114 0.281)">
              <g id="Group_13" data-name="Group 13">
                <path id="Path_6" data-name="Path 6" d="M85.67,35.474v-.228c.484,0,.786-.068.905-.211a1.663,1.663,0,0,0,.177-.962V26.557a5.3,5.3,0,0,0-.148-1.264,2.855,2.855,0,0,0-.49-1.025,2.6,2.6,0,0,0-.843-.706,2.682,2.682,0,0,0-1.241-.268,3.347,3.347,0,0,0-2.044.655,3.9,3.9,0,0,0-1.293,1.731,3.6,3.6,0,0,0-.148.416,1.373,1.373,0,0,0-.1.421v7.625a4.552,4.552,0,0,0,.023.615.507.507,0,0,0,.137.325.583.583,0,0,0,.33.12,4.625,4.625,0,0,0,.564.028v.228H77.47v-.228c.461,0,.74-.074.837-.245a2.063,2.063,0,0,0,.142-.928V17.292a3.065,3.065,0,0,0-.046-.643.261.261,0,0,0-.148-.2,1.147,1.147,0,0,0-.3-.017,1.356,1.356,0,0,1-.461-.063v-.142l2.42-.757.53.028v8.929a6.248,6.248,0,0,1,1.566-1.674,5.274,5.274,0,0,1,1.805-.854,4.055,4.055,0,0,1,1.828-.04,3.3,3.3,0,0,1,1.572.757,4.319,4.319,0,0,1,1.11,1.537,5.808,5.808,0,0,1,.438,2.346v7.659c0,.239,0,.433.006.575a.579.579,0,0,0,.114.325.59.59,0,0,0,.29.154,2.709,2.709,0,0,0,.53.04v.228H85.67Z" transform="translate(-77.47 -15.47)" fill="#fff"/>
              </g>
            </g>
            <g id="Group_16" data-name="Group 16" transform="translate(57.957 6.624)">
              <g id="Group_15" data-name="Group 15">
                <path id="Path_7" data-name="Path 7" d="M112.878,39.661a7.669,7.669,0,0,1-1.293.655,1.41,1.41,0,0,1-.962.068,1.052,1.052,0,0,1-.609-.643,3.633,3.633,0,0,1-.251-1.481,7.316,7.316,0,0,1-1.891,1.668,4.6,4.6,0,0,1-2.4.655,4.259,4.259,0,0,1-1.446-.239,3.4,3.4,0,0,1-1.173-.706,3.34,3.34,0,0,1-.786-1.1,3.445,3.445,0,0,1-.29-1.463,3.227,3.227,0,0,1,.307-1.469,3.441,3.441,0,0,1,.809-1.1,5.21,5.21,0,0,1,1.162-.814c.45-.233.917-.45,1.4-.661a9.539,9.539,0,0,1,2.2-.712,16.307,16.307,0,0,0,2.027-.518V30.42a2.42,2.42,0,0,0-.307-1.23,2.772,2.772,0,0,0-.792-.871,3.639,3.639,0,0,0-1.116-.507,4.817,4.817,0,0,0-1.236-.165,2.3,2.3,0,0,0-.717.125,8.2,8.2,0,0,0-.786.325,8.326,8.326,0,0,0-.752.438c-.233.148-.45.3-.638.433l-.251-.165c.182-.211.376-.4.552-.581a5.347,5.347,0,0,1,.587-.49,5.982,5.982,0,0,1,1.452-.843,4.6,4.6,0,0,1,1.634-.279,4.45,4.45,0,0,1,3.212,1.065,4.3,4.3,0,0,1,1.1,3.223v6.873c0,.091,0,.228.011.421a5.659,5.659,0,0,0,.08.581,1.525,1.525,0,0,0,.165.53.33.33,0,0,0,.308.233,1.054,1.054,0,0,0,.376-.091.89.89,0,0,0,.342-.222Zm-4.92-6.349c-.427.108-.877.245-1.35.393a5.919,5.919,0,0,0-1.321.6,3.371,3.371,0,0,0-1,.922,2.246,2.246,0,0,0-.387,1.361,2.452,2.452,0,0,0,.427,1.515,2.106,2.106,0,0,0,1.071.769,2.9,2.9,0,0,0,1.389.1,3.72,3.72,0,0,0,1.4-.5,3.377,3.377,0,0,0,1.071-1,2.411,2.411,0,0,0,.433-1.429V32.868Z" transform="translate(-101.78 -26.61)" fill="#fff"/>
              </g>
            </g>
          </g>
        </g>
      </g>
    </g>
  </g>
</svg>
