<svg xmlns="http://www.w3.org/2000/svg" width="303" height="319" viewBox="0 0 303 319"><g><g><g><path fill="#182786" d="M18.813 148.4c6.177-20.205 31.206-35.532 8.283-61.379C-4.741 55.935 78.49 56.392 98.5 45.955c35.17-18.347 26.97-55.526 67.506-43.133 38.705 11.834 39.968 40.838 59.243 73.719 10.68 18.219 49.57 15.103 66.807 53.964 17.237 38.86 9.307 78.036 2.14 101.48-14.883 48.679-44.509 60.441-87.368 79.623-42.86 19.182-55.868-9.272-79.972-10.766-11.648-.722-72.758 19.467-61.643-17.941 13.523-65.455-36.076-16.948-55.055-51.593-20.227-36.926-4.794-38.917 8.655-82.908z"/></g><g><g><path fill="none" stroke="#ffe" stroke-linecap="round" stroke-miterlimit="50" stroke-width="4" d="M94.088 80.096v0l-.597-19.218c-.043-1.373-.063-2.834.654-4.004 1.264-2.062 4.117-2.286 6.533-2.28 44.217.11 88.431.605 132.64 1.482 3.141.063 6.645.28 8.797 2.571 1.764 1.879 2.111 4.641 2.361 7.206a844.948 844.948 0 0 1 3.732 100.797"/></g><g><path fill="none" stroke="#ffe" stroke-linecap="round" stroke-miterlimit="50" stroke-width="4" d="M95.175 79.965c-15.933-.278-31.8 7.516-41.318 20.296-9.517 12.78-12.44 30.213-7.61 45.398 1.114 3.5 2.643 6.93 5.03 9.723 4.25 4.973 10.671 7.387 16.3 10.72 5.63 3.333 11.646 12.529 11.375 19.064"/></g><g><path fill="none" stroke="#ffe" stroke-linecap="round" stroke-miterlimit="50" stroke-width="4" d="M92.777 79.944c7.608-.233 20.29 2 26.698 6.112 8.21 5.266 13.374 12.17 18.153 20.673 4.906 8.731 5.135 19.238 5.1 29.254-.032 8.371-.506 17.628-6.341 23.63-4.036 4.151-9.87 5.888-14.904 8.746-5.034 2.856-10.716 10.998-9.646 16.686"/></g><g><path fill="none" stroke="#ffe" stroke-linecap="round" stroke-miterlimit="50" stroke-width="4" d="M67.421 187.225c15.814-1.125 32.833-1.329 48.675-.7 1.448.057 3.053.19 4.038 1.254.66.71.9 1.702 1.09 2.652.64 3.203.957 6.468.945 9.734-.004 1.165-.087 2.432-.852 3.312-.83.955-2.206 1.17-3.463 1.315a245.757 245.757 0 0 1-39.003 1.354c-2.276-.103-4.59-.245-6.722-1.047-3.37-1.27-6.05-4.24-6.967-7.722-.917-3.483-.048-7.387 2.26-10.152"/></g><g><path fill="none" stroke="#ffe" stroke-linecap="round" stroke-miterlimit="50" stroke-width="4" d="M74.226 206.661a232.792 232.792 0 0 0 3.276 15.456c.12.488.262 1.009.643 1.338.441.38 1.076.402 1.659.405 9.4.036 18.8-.01 28.197-.14 1.172-.017 2.452-.074 3.334-.845.64-.559.95-1.396 1.212-2.203a42.47 42.47 0 0 0 2.07-13.217"/></g><g><path fill="none" stroke="#ffe" stroke-linecap="round" stroke-miterlimit="50" stroke-width="4" d="M94.512 224.614l-.325 24.768"/></g><g><path fill="none" stroke="#ffe" stroke-linecap="round" stroke-miterlimit="50" stroke-width="4" d="M76.371 250.336c22.827-1.419 45.673 1.601 68.532 2.331 24.603.787 49.206-1.081 73.752-2.947a49.879 49.879 0 0 0 .693 15.332c.622 3.064 1.603 6.196 3.775 8.446 2.506 2.596 6.237 3.457 10.198 2.853 1.997-.298 4.302-1.265 6.158-2.748 4.675-3.734 6.851-9.862 7.391-15.821s1.455-14.803 1.185-20.78"/></g><g><path fill="none" stroke="#ffe" stroke-linecap="round" stroke-miterlimit="50" stroke-width="4" d="M76.228 250.27c-.6 7.52.593 17.629 5.997 22.894 5.576 5.434 14.247 5.659 22.032 5.551l34.644-.482c6.49-.091 12.98-.182 19.472-.141 25.838.158 50.251 2.068 75.802-1.784"/></g><g><path fill="none" stroke="#ffe" stroke-linecap="round" stroke-miterlimit="50" stroke-width="4" d="M153.941 232.772c-8.14.027-8.843.014-9.373-.369-.662-.478-.842-1.37-.96-2.179a99.563 99.563 0 0 1-.877-20.63c.07-1.111.24-2.374 1.16-3.002.617-.422 1.418-.436 2.167-.435l81.804.138 14.227.025c7.97.013 15.952.027 23.89.749.71.064 1.482.164 1.974.68.418.437.531 1.075.621 1.675a102.87 102.87 0 0 1 1.138 15.652c-.01 2.39-.192 5.005-1.822 6.75-1.216 1.302-3.017 1.861-4.755 2.248-5.321 1.186-10.823 1.234-16.275 1.238-32.892.018-60.058-1.076-92.918-2.54"/></g><g><path fill="none" stroke="#ffe" stroke-linecap="round" stroke-miterlimit="50" stroke-width="4" d="M162.105 207.47v6.532"/></g><g><path fill="none" stroke="#ffe" stroke-linecap="round" stroke-miterlimit="50" stroke-width="4" d="M180.885 207.346l-.335 7.89"/></g><g><path fill="none" stroke="#ffe" stroke-linecap="round" stroke-miterlimit="50" stroke-width="4" d="M198.35 207.184c.696 2.562.837 5.273.409 7.892"/></g><g><path fill="none" stroke="#ffe" stroke-linecap="round" stroke-miterlimit="50" stroke-width="4" d="M215.698 206.647c-.7 2.381-.922 4.901-.649 7.368"/></g><g><path fill="none" stroke="#ffe" stroke-linecap="round" stroke-miterlimit="50" stroke-width="4" d="M234.224 207.345v8.436"/></g><g><path fill="none" stroke="#ffe" stroke-linecap="round" stroke-miterlimit="50" stroke-width="4" d="M252.158 206.659c.549 2.954.734 5.974.551 8.974"/></g><g><path fill="none" stroke="#ffe" stroke-linecap="round" stroke-miterlimit="50" stroke-width="4" d="M162.528 178.1v0l12.719-5.977c1.731-.813 3.474-1.631 5.323-2.12 2.514-.662 5.144-.698 7.744-.722 19.263-.18 38.528-.004 57.785.532 5.846.164 11.762.37 17.383 1.983.775.222 1.567.484 2.168 1.023.684.613 1.035 1.513 1.277 2.4 1.074 3.925.145 8.685-3.221 10.973-2.47 1.676-5.658 1.724-8.643 1.711l-70.95-.286c-1.914-.009-3.842-.018-5.72-.383-1.618-.316-3.17-.89-4.689-1.522a60.602 60.602 0 0 1-12.272-6.886"/></g><g><path fill="none" stroke="#ffe" stroke-linecap="round" stroke-miterlimit="50" stroke-width="4" d="M187.42 169.641a266.24 266.24 0 0 0-.728 15.51"/></g><g><path fill="none" stroke="#ffe" stroke-linecap="round" stroke-miterlimit="50" stroke-width="4" d="M96.752 97.133c3.825 1.24 7.678 2.494 11.192 4.45 3.514 1.956 6.707 4.684 8.565 8.25a15.595 15.595 0 0 1 1.757 7.28"/></g><g><path fill="none" stroke="#ffe" stroke-linecap="round" stroke-miterlimit="50" stroke-width="6" d="M167.004 132.754h.545"/></g><g><path fill="none" stroke="#ffe" stroke-linecap="round" stroke-miterlimit="50" stroke-width="4" d="M177.82 132.235a446.034 446.034 0 0 0 41.096 1.043"/></g><g><path fill="none" stroke="#ffe" stroke-linecap="round" stroke-miterlimit="50" stroke-width="4" d="M163.2 151.544a1281.39 1281.39 0 0 1 63.949-1.444"/></g><g><path fill="none" stroke="#ffe" stroke-linecap="round" stroke-miterlimit="50" stroke-width="4" d="M185.6 98.587c-.108-2.58-.215-5.193.33-7.717.542-2.524 1.816-4.991 3.952-6.442 1.661-1.127 3.7-1.555 5.697-1.75 2.318-.228 4.701-.17 6.914.557 2.214.726 4.25 2.177 5.344 4.233.515.97.81 2.041.993 3.122.825 4.858-.92 10.399-5.164 12.902-1.633.964-3.515 1.43-5.397 1.67-2.931.375-5.946.226-8.789-.589-1.044-.299-3.401-3.655-3.88-5.986"/></g><g><path fill="none" stroke="#ffe" stroke-linecap="round" stroke-miterlimit="50" stroke-width="4" d="M198.288 107.32c.01 3.453.201 6.907.577 10.339"/></g><g><path fill="none" stroke="#ffe" stroke-linecap="round" stroke-miterlimit="50" stroke-width="4" d="M207.785 103.268l5.019 6.714"/></g><g><path fill="none" stroke="#ffe" stroke-linecap="round" stroke-miterlimit="50" stroke-width="4" d="M207.785 83.677a29.27 29.27 0 0 0 5.778-4.366"/></g><g><path fill="none" stroke="#ffe" stroke-linecap="round" stroke-miterlimit="50" stroke-width="4" d="M197.218 80.922a52.647 52.647 0 0 0-.088-9.517"/></g><g><path fill="none" stroke="#ffe" stroke-linecap="round" stroke-miterlimit="50" stroke-width="4" d="M189.638 84.157a30.2 30.2 0 0 0-7.54-7.933"/></g><g><path fill="none" stroke="#ffe" stroke-linecap="round" stroke-miterlimit="50" stroke-width="4" d="M185.508 93.14l-10.35.701"/></g><g><path fill="none" stroke="#ffe" stroke-linecap="round" stroke-miterlimit="50" stroke-width="4" d="M187.81 103.943a118.477 118.477 0 0 0-5.444 8.079"/></g><g><path fill="none" stroke="#ffe" stroke-linecap="round" stroke-miterlimit="50" stroke-width="4" d="M209.829 93.883l8.347.764"/></g><g><path fill="none" stroke="#ffe" stroke-linecap="round" stroke-miterlimit="50" stroke-width="4" d="M248.645 190.19l.087 13.581"/></g></g></g></g></svg>