<svg id="Layer_1" data-name="Layer 1" xmlns="http://www.w3.org/2000/svg" xmlns:xlink="http://www.w3.org/1999/xlink" viewBox="0 0 375.49 155.3"><defs><style>.cls-1{isolation:isolate;}.cls-2{fill:#bf6056;}.cls-3{fill:#1c3083;}.cls-4{fill:#2e6cb4;}.cls-5{fill:#3270b6;}.cls-6{fill:#f95b30;}.cls-7{fill:#1c2f82;}.cls-8{fill:url(#linear-gradient);}.cls-9{fill:url(#linear-gradient-2);}.cls-10{fill:url(#linear-gradient-3);}.cls-11{fill:none;}.cls-12{fill:url(#linear-gradient-4);}.cls-13{fill:url(#linear-gradient-5);}.cls-14{fill:url(#linear-gradient-6);}.cls-15{fill:#fa5b31;}</style><linearGradient id="linear-gradient" x1="2.13" y1="1073.88" x2="3.13" y2="1073.88" gradientTransform="matrix(103.41, 0, 0, -47.28, 299.67, 51305.02)" gradientUnits="userSpaceOnUse"><stop offset="0" stop-color="#f95b30"/><stop offset="0.03" stop-color="#f95b30"/><stop offset="0.1" stop-color="#e75c3b"/><stop offset="0.17" stop-color="#bd6158"/><stop offset="0.19" stop-color="#976571"/><stop offset="0.21" stop-color="#776887"/><stop offset="0.23" stop-color="#5c6b98"/><stop offset="0.26" stop-color="#486da6"/><stop offset="0.29" stop-color="#3a6eaf"/><stop offset="0.33" stop-color="#326fb5"/><stop offset="0.39" stop-color="#3070b7"/><stop offset="0.41" stop-color="#2e6ab2"/><stop offset="0.46" stop-color="#2754a0"/><stop offset="0.52" stop-color="#224392"/><stop offset="0.6" stop-color="#1e3789"/><stop offset="0.7" stop-color="#1c3083"/><stop offset="1" stop-color="#1c2f82"/></linearGradient><linearGradient id="linear-gradient-2" x1="1.17" y1="1075" x2="2.43" y2="1075" gradientTransform="matrix(271.71, 0, 0, -56.9, -36.72, 61679.6)" gradientUnits="userSpaceOnUse"><stop offset="0" stop-color="#f95b30"/><stop offset="0.24" stop-color="#f95b30"/><stop offset="0.35" stop-color="#e75c3b"/><stop offset="0.39" stop-color="#bd6158"/><stop offset="0.42" stop-color="#976571"/><stop offset="0.46" stop-color="#776887"/><stop offset="0.5" stop-color="#5c6b98"/><stop offset="0.53" stop-color="#486da6"/><stop offset="0.55" stop-color="#3a6eaf"/><stop offset="0.57" stop-color="#326fb5"/><stop offset="0.59" stop-color="#3070b7"/><stop offset="0.6" stop-color="#2e6ab2"/><stop offset="0.65" stop-color="#2754a0"/><stop offset="0.69" stop-color="#224392"/><stop offset="0.74" stop-color="#1e3789"/><stop offset="0.87" stop-color="#1c3083"/><stop offset="1" stop-color="#1c2f82"/></linearGradient><linearGradient id="linear-gradient-3" x1="88.25" y1="1060.31" x2="89.25" y2="1060.31" gradientTransform="matrix(1.34, 0, 0, -15.51, 505.14, 16976.21)" gradientUnits="userSpaceOnUse"><stop offset="0" stop-color="#1c2f82"/><stop offset="1" stop-color="#1c2f82"/></linearGradient><linearGradient id="linear-gradient-4" x1="2.12" y1="1074.94" x2="3.12" y2="1074.94" gradientTransform="matrix(104.74, 0, 0, -56.32, 298.1, 61114.38)" gradientUnits="userSpaceOnUse"><stop offset="0" stop-color="#f95b30"/><stop offset="0.13" stop-color="#f95b30"/><stop offset="0.15" stop-color="#e75c3b"/><stop offset="0.16" stop-color="#bd6158"/><stop offset="0.18" stop-color="#976571"/><stop offset="0.2" stop-color="#776887"/><stop offset="0.23" stop-color="#5c6b98"/><stop offset="0.26" stop-color="#486da6"/><stop offset="0.29" stop-color="#3a6eaf"/><stop offset="0.33" stop-color="#326fb5"/><stop offset="0.39" stop-color="#3070b7"/><stop offset="0.41" stop-color="#2e6ab2"/><stop offset="0.46" stop-color="#2754a0"/><stop offset="0.52" stop-color="#224392"/><stop offset="0.6" stop-color="#1e3789"/><stop offset="0.7" stop-color="#1c3083"/><stop offset="1" stop-color="#1c2f82"/></linearGradient><linearGradient id="linear-gradient-5" x1="45.67" y1="1038.85" x2="46.67" y2="1038.85" gradientTransform="matrix(2.63, 0, 0, -7.52, 502.27, 8333.24)" xlink:href="#linear-gradient-3"/><linearGradient id="linear-gradient-6" x1="2.13" y1="1068.01" x2="4.05" y2="1068.01" gradientTransform="matrix(103.77, 0, 0, -25.07, 402.94, 27304.75)" xlink:href="#linear-gradient-3"/></defs><title>mobil_diagram</title><g id="Group_6375" data-name="Group 6375"><g id="research" class="cls-1"><g class="cls-1"><path class="cls-2" d="M381.73,548.69h2.76v1h0c.23-.73.61-1.14,1.26-1.14a2.37,2.37,0,0,1,.81.15v2.85a3,3,0,0,0-1-.21,1,1,0,0,0-1.06,1v2.77h-2.76Z" transform="translate(-352.26 -462.46)"/><path class="cls-2" d="M393.42,552.65c-.08,1.61-.92,2.58-3.27,2.58s-3.2-1.36-3.2-3.35a3,3,0,0,1,3.22-3.31c2.15,0,3.25,1,3.25,3.47v.21h-3.69c0,.89.21,1.17.52,1.17s.5-.35.5-.77Zm-2.67-1.46c0-.72-.16-1.07-.5-1.07s-.52.23-.52,1.07Z" transform="translate(-352.26 -462.46)"/><path class="cls-2" d="M396.57,553.07c0,.49.22.7.62.7s.47-.14.47-.35c0-1-3.53-.1-3.53-2.68,0-1.24.88-2.17,3-2.17s3.17.76,3.2,2h-2.59a.43.43,0,0,0-.45-.49.33.33,0,0,0-.37.34c0,.8,3.52,0,3.52,2.65,0,1.21-.72,2.12-3.08,2.12-1.74,0-3.38-.22-3.38-2.16Z" transform="translate(-352.26 -462.46)"/><path class="cls-2" d="M407.45,552.65c-.08,1.61-.92,2.58-3.27,2.58s-3.21-1.36-3.21-3.35a3,3,0,0,1,3.23-3.31c2.15,0,3.25,1,3.25,3.47v.21h-3.69c0,.89.21,1.17.51,1.17s.51-.35.51-.77Zm-2.67-1.46c0-.72-.16-1.07-.51-1.07s-.51.23-.51,1.07Z" transform="translate(-352.26 -462.46)"/><path class="cls-2" d="M411.93,554.56h0a2.69,2.69,0,0,1-1.84.67c-1.37,0-2-.71-2-1.7,0-1.66,1.41-1.87,2.89-2.11.95-.16,1-.4,1-.72a.46.46,0,0,0-.51-.47c-.32,0-.54.15-.54.71h-2.56c.14-1.36.73-2.37,3.12-2.37,2.58,0,3.25,1.24,3.25,3.18v3.36h-2.76Zm0-2.17c-.54.18-1.24.19-1.24.72a.46.46,0,0,0,.47.49.8.8,0,0,0,.77-.89Z" transform="translate(-352.26 -462.46)"/><path class="cls-2" d="M415.77,548.69h2.76v1h0c.23-.73.61-1.14,1.26-1.14a2.43,2.43,0,0,1,.82.15v2.85a3.05,3.05,0,0,0-1-.21,1,1,0,0,0-1.07,1v2.77h-2.76Z" transform="translate(-352.26 -462.46)"/><path class="cls-2" d="M427.48,552.31c-.11,2.08-1.19,2.92-3.22,2.92-2.31,0-3.27-1.36-3.27-3.35a3,3,0,0,1,3.23-3.31c2,0,3.15.91,3.26,3h-2.69c0-.77-.18-.92-.5-.92s-.52.27-.52,1.26.18,1.25.52,1.25.5-.14.5-.84Z" transform="translate(-352.26 -462.46)"/><path class="cls-2" d="M428.38,546.23h2.76v3.55h0a2.12,2.12,0,0,1,2.1-1.21c1.54,0,2.1.85,2.1,2.34v4.2H432.6v-3.42c0-.49-.15-.85-.75-.85s-.71.36-.71.87v3.4h-2.76Z" transform="translate(-352.26 -462.46)"/></g></g><g id="define" class="cls-1"><g class="cls-1"><path class="cls-3" d="M565.27,471.1h0a2,2,0,0,1-2,1.17c-1.83,0-2.47-1.69-2.47-3.32,0-1.47.53-3.34,2.47-3.34a2,2,0,0,1,2,1.19h0v-3.53H568v8.88h-2.76Zm0-2.17c0-1.1-.35-1.5-.81-1.5s-.82.4-.82,1.5.36,1.5.82,1.5S565.27,470,565.27,468.93Z" transform="translate(-352.26 -462.46)"/><path class="cls-3" d="M575.47,469.69c-.08,1.61-.92,2.58-3.27,2.58s-3.2-1.36-3.2-3.35a3,3,0,0,1,3.22-3.31c2.15,0,3.25,1,3.25,3.47v.21h-3.69c0,.89.22,1.17.52,1.17s.5-.35.5-.77Zm-2.67-1.46c0-.72-.16-1.07-.5-1.07s-.52.23-.52,1.07Z" transform="translate(-352.26 -462.46)"/><path class="cls-3" d="M576.77,468.31h-.85v-2.14h.85v0c0-2.16,1-3,3.24-3a4.15,4.15,0,0,1,1.2.16v2.09a2.46,2.46,0,0,0-.52,0c-.7,0-1.15.15-1.15.77v.05h1.51v2.14h-1.52v3.84h-2.76Zm4.85-4.45a1.27,1.27,0,0,1,1.44-1.4,1.31,1.31,0,0,1,1.46,1.4,1.28,1.28,0,0,1-1.46,1.35C582.1,465.21,581.62,464.74,581.62,463.86Zm.07,1.87h2.76v6.42h-2.76Z" transform="translate(-352.26 -462.46)"/><path class="cls-3" d="M585.53,465.73h2.76v1.09h0a2.1,2.1,0,0,1,2.09-1.21c1.54,0,2.1.85,2.1,2.34v4.2h-2.76v-3.42c0-.49-.15-.85-.75-.85s-.71.36-.71.87v3.4h-2.76Z" transform="translate(-352.26 -462.46)"/><path class="cls-3" d="M599.77,469.69c-.08,1.61-.92,2.58-3.27,2.58s-3.2-1.36-3.2-3.35a3,3,0,0,1,3.22-3.31c2.15,0,3.25,1,3.25,3.47v.21h-3.69c0,.89.21,1.17.51,1.17s.51-.35.51-.77Zm-2.67-1.46c0-.72-.16-1.07-.51-1.07s-.51.23-.51,1.07Z" transform="translate(-352.26 -462.46)"/></g></g><g id="empathize" class="cls-1"><g class="cls-1"><path class="cls-4" d="M454.53,495.46c-.08,1.61-.92,2.58-3.27,2.58s-3.2-1.36-3.2-3.35a3,3,0,0,1,3.22-3.31c2.15,0,3.25,1,3.25,3.47v.22h-3.69c0,.88.21,1.16.51,1.16s.51-.35.51-.77ZM451.86,494c0-.72-.16-1.07-.51-1.07s-.51.23-.51,1.07Z" transform="translate(-352.26 -462.46)"/><path class="cls-4" d="M455.43,491.5h2.76v1.08h0a1.84,1.84,0,0,1,3.48.1h0a1.85,1.85,0,0,1,1.8-1.3c1.33,0,2.05.71,2.05,2.34v4.2H462.8v-3.39c0-.68-.11-.88-.43-.88s-.49.2-.49.88v3.39h-2.76v-3.39c0-.68-.11-.88-.43-.88s-.5.2-.5.88v3.39h-2.76Z" transform="translate(-352.26 -462.46)"/><path class="cls-4" d="M466.46,491.5h2.76v1.07h0a2,2,0,0,1,2-1.19c1.94,0,2.47,1.87,2.47,3.34,0,1.63-.65,3.32-2.47,3.32a2.07,2.07,0,0,1-2-1.16h0v3.38h-2.76Zm4.39,3.21c0-1.11-.36-1.5-.81-1.5s-.82.39-.82,1.5.36,1.5.82,1.5S470.85,495.81,470.85,494.71Z" transform="translate(-352.26 -462.46)"/><path class="cls-4" d="M477.9,497.37h0A2.69,2.69,0,0,1,476,498c-1.37,0-2-.71-2-1.7,0-1.66,1.41-1.87,2.89-2.11.95-.16,1-.4,1-.72a.46.46,0,0,0-.51-.47c-.32,0-.54.15-.54.71h-2.56c.14-1.36.73-2.37,3.12-2.37,2.57,0,3.25,1.24,3.25,3.18v3.36H477.9Zm0-2.17c-.54.18-1.24.19-1.24.72a.46.46,0,0,0,.47.49.8.8,0,0,0,.77-.89Z" transform="translate(-352.26 -462.46)"/><path class="cls-4" d="M482,493.64h-.85V491.5H482v-1.65h2.76v1.65h1.52v2.14h-1.52v1.21c0,.55.46.68.95.68a4.66,4.66,0,0,0,.72-.06v2.44a6.92,6.92,0,0,1-1.35.13c-2,0-3.08-.74-3.08-3Z" transform="translate(-352.26 -462.46)"/><path class="cls-4" d="M487.46,489h2.76v3.55h0a2.1,2.1,0,0,1,2.09-1.21c1.54,0,2.1.86,2.1,2.34v4.2h-2.76V494.5c0-.49-.15-.85-.75-.85s-.71.36-.71.88v3.39h-2.76Z" transform="translate(-352.26 -462.46)"/><path class="cls-4" d="M495.21,489.63a1.27,1.27,0,0,1,1.44-1.4,1.31,1.31,0,0,1,1.47,1.4,1.29,1.29,0,0,1-1.47,1.36C495.69,491,495.21,490.51,495.21,489.63Zm.08,1.87h2.76v6.42h-2.76Z" transform="translate(-352.26 -462.46)"/><path class="cls-4" d="M499,496.41l2.4-2.77h-2.33V491.5h6v1.42l-2.49,2.87h2.53v2.13H499Z" transform="translate(-352.26 -462.46)"/><path class="cls-4" d="M512,495.46c-.08,1.61-.92,2.58-3.27,2.58s-3.2-1.36-3.2-3.35a3,3,0,0,1,3.22-3.31c2.15,0,3.25,1,3.25,3.47v.22h-3.69c0,.88.21,1.16.51,1.16s.51-.35.51-.77ZM509.35,494c0-.72-.16-1.07-.51-1.07s-.51.23-.51,1.07Z" transform="translate(-352.26 -462.46)"/></g></g><g id="prototype" class="cls-1"><g class="cls-1"><path class="cls-5" d="M520.55,609h2.75v1.07h0a2,2,0,0,1,1.95-1.19c1.94,0,2.47,1.87,2.47,3.33,0,1.63-.65,3.33-2.47,3.33a2,2,0,0,1-1.95-1.17h0v3.38h-2.75Zm4.39,3.2c0-1.1-.36-1.5-.82-1.5s-.82.4-.82,1.5.36,1.5.82,1.5S524.94,613.3,524.94,612.2Z" transform="translate(-352.26 -462.46)"/><path class="cls-5" d="M528.53,609h2.75v1h0c.23-.73.61-1.14,1.26-1.14a2.6,2.6,0,0,1,.81.14v2.86a3,3,0,0,0-1-.22,1,1,0,0,0-1.07,1v2.77h-2.75Z" transform="translate(-352.26 -462.46)"/><path class="cls-5" d="M533.75,612.19a3.45,3.45,0,1,1,3.45,3.35A3.11,3.11,0,0,1,533.75,612.19Zm4.12,0c0-1.1-.19-1.45-.67-1.45s-.67.35-.67,1.45.19,1.46.67,1.46S537.87,613.32,537.87,612.21Z" transform="translate(-352.26 -462.46)"/><path class="cls-5" d="M541.82,611.13H541V609h.85v-1.66h2.76V609h1.52v2.13h-1.52v1.22c0,.55.46.68.95.68a6.35,6.35,0,0,0,.72-.06v2.43a5.9,5.9,0,0,1-1.35.14c-2,0-3.08-.75-3.08-2.95Z" transform="translate(-352.26 -462.46)"/><path class="cls-5" d="M546.74,612.19a3.46,3.46,0,1,1,3.46,3.35A3.12,3.12,0,0,1,546.74,612.19Zm4.13,0c0-1.1-.19-1.45-.67-1.45s-.68.35-.68,1.45.2,1.46.68,1.46S550.87,613.32,550.87,612.21Z" transform="translate(-352.26 -462.46)"/><path class="cls-5" d="M554.82,611.13H554V609h.85v-1.66h2.76V609h1.52v2.13h-1.52v1.22c0,.55.45.68.94.68a6.16,6.16,0,0,0,.72-.06v2.43a5.67,5.67,0,0,1-1.34.14c-2,0-3.08-.75-3.08-2.95Z" transform="translate(-352.26 -462.46)"/><path class="cls-5" d="M562,615.42,559.7,609h2.95l1.08,3.84.89-3.84h2.46l-3.1,8.75h-2.75Z" transform="translate(-352.26 -462.46)"/><path class="cls-5" d="M567.65,609h2.75v1.07h0a2,2,0,0,1,2-1.19c1.94,0,2.47,1.87,2.47,3.33,0,1.63-.65,3.33-2.47,3.33a2,2,0,0,1-2-1.17h0v3.38h-2.75Zm4.39,3.2c0-1.1-.37-1.5-.82-1.5s-.82.4-.82,1.5.36,1.5.82,1.5S572,613.3,572,612.2Z" transform="translate(-352.26 -462.46)"/><path class="cls-5" d="M581.92,613c-.08,1.6-.92,2.58-3.27,2.58s-3.2-1.36-3.2-3.35a3,3,0,0,1,3.22-3.31c2.15,0,3.25,1,3.25,3.47v.21h-3.69c0,.89.21,1.16.51,1.16s.51-.34.51-.76Zm-2.67-1.47c0-.72-.16-1.06-.51-1.06s-.51.22-.51,1.06Z" transform="translate(-352.26 -462.46)"/></g></g><g id="test" class="cls-1"><g class="cls-1"><path class="cls-6" d="M483.79,553.88h-.85v-2.13h.85v-1.66h2.76v1.66h1.53v2.13h-1.53v1.21c0,.55.46.69.95.69a6.16,6.16,0,0,0,.72-.06v2.43a6.88,6.88,0,0,1-1.34.13c-2,0-3.09-.74-3.09-2.95Z" transform="translate(-352.26 -462.46)"/><path class="cls-6" d="M495.19,555.7c-.08,1.61-.92,2.58-3.27,2.58s-3.21-1.35-3.21-3.34a3,3,0,0,1,3.23-3.31c2.15,0,3.25,1,3.25,3.46v.22H491.5c0,.89.21,1.16.51,1.16s.51-.35.51-.77Zm-2.67-1.46c0-.72-.16-1.07-.51-1.07s-.51.23-.51,1.07Z" transform="translate(-352.26 -462.46)"/><path class="cls-6" d="M498.34,556.12c0,.5.21.7.62.7s.47-.13.47-.35c0-1-3.53-.09-3.53-2.67,0-1.25.88-2.17,3-2.17s3.17.75,3.2,2h-2.59c0-.34-.18-.5-.45-.5a.34.34,0,0,0-.38.34c0,.8,3.53,0,3.53,2.65,0,1.21-.72,2.12-3.08,2.12-1.74,0-3.38-.21-3.38-2.16Z" transform="translate(-352.26 -462.46)"/><path class="cls-6" d="M503.31,553.88h-.86v-2.13h.86v-1.66h2.75v1.66h1.53v2.13h-1.53v1.21c0,.55.46.69.95.69a6.16,6.16,0,0,0,.72-.06v2.43a6.88,6.88,0,0,1-1.34.13c-2,0-3.08-.74-3.08-2.95Z" transform="translate(-352.26 -462.46)"/></g></g><g id="ideate" class="cls-1"><g class="cls-1"><path class="cls-7" d="M622.87,575.68a1.27,1.27,0,0,1,1.44-1.4,1.31,1.31,0,0,1,1.46,1.4,1.29,1.29,0,0,1-1.46,1.36C623.35,577,622.87,576.56,622.87,575.68Zm.07,1.87h2.76V584h-2.76Z" transform="translate(-352.26 -462.46)"/><path class="cls-7" d="M631,582.93h0a2,2,0,0,1-1.95,1.16c-1.82,0-2.47-1.69-2.47-3.32,0-1.47.53-3.34,2.47-3.34a2,2,0,0,1,1.95,1.19h0v-3.53h2.75V584H631Zm0-2.18c0-1.1-.36-1.5-.82-1.5s-.81.4-.81,1.5.35,1.5.81,1.5S631,581.86,631,580.75Z" transform="translate(-352.26 -462.46)"/><path class="cls-7" d="M641.24,581.51c-.09,1.61-.93,2.58-3.28,2.58s-3.2-1.36-3.2-3.35a3,3,0,0,1,3.23-3.31c2.14,0,3.25,1,3.25,3.47v.21h-3.7c0,.89.22,1.17.52,1.17s.5-.35.5-.77Zm-2.68-1.46c0-.72-.15-1.07-.5-1.07s-.52.23-.52,1.07Z" transform="translate(-352.26 -462.46)"/><path class="cls-7" d="M645.71,583.42h0a2.7,2.7,0,0,1-1.85.67c-1.37,0-2-.71-2-1.7,0-1.66,1.4-1.88,2.89-2.12.95-.15,1-.39,1-.72a.45.45,0,0,0-.5-.46c-.33,0-.54.15-.54.7H642.1c.15-1.35.73-2.36,3.12-2.36,2.58,0,3.25,1.24,3.25,3.18V584h-2.76Zm0-2.17c-.54.18-1.23.19-1.23.72a.46.46,0,0,0,.47.49.79.79,0,0,0,.76-.89Z" transform="translate(-352.26 -462.46)"/><path class="cls-7" d="M649.82,579.69H649v-2.14h.85V575.9h2.76v1.65h1.52v2.14h-1.52v1.21c0,.55.45.68.94.68a4.56,4.56,0,0,0,.72-.06V584a6.76,6.76,0,0,1-1.34.13c-2,0-3.08-.75-3.08-3Z" transform="translate(-352.26 -462.46)"/><path class="cls-7" d="M661.21,581.51c-.08,1.61-.92,2.58-3.27,2.58s-3.2-1.36-3.2-3.35a3,3,0,0,1,3.22-3.31c2.15,0,3.25,1,3.25,3.47v.21h-3.69c0,.89.22,1.17.52,1.17s.5-.35.5-.77Zm-2.67-1.46c0-.72-.16-1.07-.5-1.07s-.52.23-.52,1.07Z" transform="translate(-352.26 -462.46)"/></g></g><g id="implement" class="cls-1"><g class="cls-1"><path class="cls-7" d="M639.89,512.7a1.27,1.27,0,0,1,1.44-1.4,1.31,1.31,0,0,1,1.47,1.4,1.29,1.29,0,0,1-1.47,1.35C640.37,514.05,639.89,513.57,639.89,512.7Zm.08,1.87h2.75V521H640Z" transform="translate(-352.26 -462.46)"/><path class="cls-7" d="M643.81,514.57h2.75v1.08h0a1.7,1.7,0,0,1,1.71-1.2,1.68,1.68,0,0,1,1.77,1.3h0a1.85,1.85,0,0,1,1.8-1.3c1.33,0,2,.71,2,2.34V521h-2.76v-3.4c0-.67-.11-.87-.43-.87s-.49.2-.49.87V521h-2.76v-3.4c0-.67-.11-.87-.43-.87s-.5.2-.5.87V521h-2.75Z" transform="translate(-352.26 -462.46)"/><path class="cls-7" d="M654.83,514.57h2.76v1.07h0a2,2,0,0,1,2-1.19c1.94,0,2.47,1.87,2.47,3.33,0,1.64-.65,3.33-2.47,3.33a2.06,2.06,0,0,1-2-1.17h0v3.39h-2.76Zm4.39,3.2c0-1.1-.36-1.5-.81-1.5s-.82.4-.82,1.5.36,1.5.82,1.5S659.22,518.88,659.22,517.77Z" transform="translate(-352.26 -462.46)"/><path class="cls-7" d="M662.93,512.11h2.76V521h-2.76Z" transform="translate(-352.26 -462.46)"/><path class="cls-7" d="M673.07,518.53c-.08,1.61-.92,2.58-3.27,2.58s-3.21-1.36-3.21-3.35a3,3,0,0,1,3.23-3.31c2.15,0,3.25,1,3.25,3.47v.21h-3.69c0,.89.21,1.17.51,1.17s.51-.35.51-.77Zm-2.67-1.47c0-.71-.16-1.06-.51-1.06s-.51.23-.51,1.06Z" transform="translate(-352.26 -462.46)"/><path class="cls-7" d="M674,514.57h2.76v1.08h0a1.7,1.7,0,0,1,1.71-1.2,1.66,1.66,0,0,1,1.76,1.3h0a1.84,1.84,0,0,1,1.79-1.3c1.34,0,2.06.71,2.06,2.34V521h-2.76v-3.4c0-.67-.11-.87-.43-.87s-.5.2-.5.87V521h-2.75v-3.4c0-.67-.11-.87-.44-.87s-.49.2-.49.87V521H674Z" transform="translate(-352.26 -462.46)"/><path class="cls-7" d="M691.36,518.53c-.09,1.61-.93,2.58-3.28,2.58s-3.2-1.36-3.2-3.35a3,3,0,0,1,3.23-3.31c2.14,0,3.25,1,3.25,3.47v.21h-3.7c0,.89.22,1.17.52,1.17s.5-.35.5-.77Zm-2.68-1.47c0-.71-.15-1.06-.5-1.06s-.52.23-.52,1.06Z" transform="translate(-352.26 -462.46)"/><path class="cls-7" d="M692.26,514.57H695v1.09h0a2.12,2.12,0,0,1,2.1-1.21c1.54,0,2.1.85,2.1,2.34V521h-2.76v-3.42c0-.49-.15-.85-.75-.85s-.71.36-.71.87V521h-2.76Z" transform="translate(-352.26 -462.46)"/><path class="cls-7" d="M700.59,516.71h-.85v-2.14h.85v-1.65h2.76v1.65h1.52v2.14h-1.52v1.21c0,.55.45.68.94.68a4.56,4.56,0,0,0,.72-.06V521a6.76,6.76,0,0,1-1.34.13c-2,0-3.08-.75-3.08-3Z" transform="translate(-352.26 -462.46)"/></g></g><g id="Group_6066" data-name="Group 6066"><path id="Path_10058" data-name="Path 10058" class="cls-8" d="M623.74,526.34c-36.88-23.37-74.31-10.15-74.31-10.15s-26.28,7.44-29.09,37.83c0-1.17,0-2.38.08-3.63,1.76-32.15,29.24-39.93,29.24-39.93s36.21-12.78,72.5,9A59.13,59.13,0,0,1,623.74,526.34Z" transform="translate(-352.26 -462.46)"/><path id="Path_10059" data-name="Path 10059" class="cls-9" d="M568.92,485.21s-49.09,7.05-95.24,35.82-56.61,5.43-56.61,5.43-29.54-34.73-64.81-4.75c0,5.35.26,2.84,0,7.2,39.81-35.09,64.58,3.28,64.58,3.28s10.45,23.34,56.6-5.44,95.25-35.82,95.25-35.82,42.27-9.21,53.47,28.55c.6.37,1.21.74,1.82,1.13C616.1,474.92,568.92,485.21,568.92,485.21Z" transform="translate(-352.26 -462.46)"/><path id="Path_10060" data-name="Path 10060" class="cls-10" d="M624.84,541.84a83.8,83.8,0,0,0-1.1-15.5c.35.21.7.44,1,.66A99.34,99.34,0,0,1,624.84,541.84Z" transform="translate(-352.26 -462.46)"/><path id="Path_10061" data-name="Path 10061" class="cls-11" d="M624.84,541.84a1.1,1.1,0,0,1,0,.18c-4.7,70-79.86,46.69-79.86,46.69S520.66,583,520.34,554c2.81-30.39,29.09-37.83,29.09-37.83s37.43-13.21,74.31,10.15A83.8,83.8,0,0,1,624.84,541.84Z" transform="translate(-352.26 -462.46)"/><path id="Path_10062" data-name="Path 10062" class="cls-12" d="M624.84,541.84c0,1.9-.12,3.87-.25,5.91-4.7,70-79.86,46.68-79.86,46.68s-26.31-6.16-24.55-38.31c0-.71.09-1.41.16-2.1C520.66,583,545,588.7,545,588.7S620.13,612,624.82,542Z" transform="translate(-352.26 -462.46)"/><path id="Path_10063" data-name="Path 10063" class="cls-13" d="M624.78,527l-1-.66a59.13,59.13,0,0,0-1.58-6.85c.6.36,1.21.73,1.82,1.12Q624.49,523.64,624.78,527Z" transform="translate(-352.26 -462.46)"/><path id="Path_10064" data-name="Path 10064" class="cls-14" d="M727.75,517.94c-20.5,11.44-69.7,30.61-92.71,10.87a94.15,94.15,0,0,0-11.06-8.2q.51,3,.8,6.39a96.58,96.58,0,0,1,10,7.54c23.1,19.81,72.43.2,92.94-11.3Z" transform="translate(-352.26 -462.46)"/></g><circle id="Ellipse_154" data-name="Ellipse 154" class="cls-2" cx="63.54" cy="65.84" r="5.66"/><circle id="Ellipse_155" data-name="Ellipse 155" class="cls-4" cx="132.19" cy="53.59" r="6.48"/><circle id="Ellipse_156" data-name="Ellipse 156" class="cls-7" cx="228.37" cy="24.07" r="5.66"/><circle id="Ellipse_157" data-name="Ellipse 157" class="cls-15" cx="167.93" cy="91.63" r="4.27"/><circle id="Ellipse_158" data-name="Ellipse 158" class="cls-7" cx="260.29" cy="115.99" r="4.27"/><circle id="Ellipse_159" data-name="Ellipse 159" class="cls-7" cx="322.99" cy="77.06" r="6.58"/><circle id="Ellipse_160" data-name="Ellipse 160" class="cls-5" cx="200.54" cy="130.08" r="5.66"/></g></svg>