<svg xmlns="http://www.w3.org/2000/svg" width="321" height="279" viewBox="0 0 321 279"><g><g><g><path fill="#182786" d="M76.939 264.8c-18.33-14.321-23.872-67.003-58.206-55.27-42.803 18.27 3.206-47.87-.322-71.662-6.203-41.822-23.764-45.314-3.573-64.622 19.822-18.994 21.043 3.036 61.23-2.25C98.333 68.067 121.29 1.021 166.827.177 212.365-.666 249.333 23.153 270.6 39.77c44.16 34.502 45.637 68.215 49.972 117.876 4.335 49.66-29.146 50.657-39.176 73.542-4.846 11.059-27.392 19.945-61.44-6.254-61.671-40.067-25.028 22.092-66.902 26.365-44.629 4.555-40.619 50.244-76.115 13.501z"/></g><g><g><path fill="none" stroke="#ffe" stroke-linecap="round" stroke-linejoin="round" stroke-miterlimit="50" stroke-width="4" d="M65.343 99.246a159.947 159.947 0 0 0 1.265-20.145c56.992-3.74 112.695 4.012 169.74 1.215"/></g><g><path fill="none" stroke="#ffe" stroke-linecap="round" stroke-linejoin="round" stroke-miterlimit="50" stroke-width="4" d="M265.703 79.701c2.764-.149 7.061-.451 9.792 0 .702.116 1.452.278 1.933.802.592.642.596 1.612.567 2.483l-4.185 123.81c-.027.782-.06 1.587-.392 2.294-.946 2.016-3.67 2.251-5.897 2.197l-126.847-3.08"/></g><g><path fill="none" stroke="#ffe" stroke-linecap="round" stroke-linejoin="round" stroke-miterlimit="50" stroke-width="4" d="M65.352 100.079c-1.308 31.164-2.066 61.138-2.228 92.33-.027 5.055-1.236 10.51 0 15.411.197.78.581 1.863 1.205 2.372.72.588 7.539.011 8.468 0 4.964-.058 7.966-.294 12.92-.598"/></g><g><path fill="none" stroke="#ffe" stroke-linecap="round" stroke-linejoin="round" stroke-miterlimit="50" stroke-width="4" d="M90.914 78.951v0l.793 15.277c.095 1.828.185 3.694-.377 5.453-.562 1.759-1.904 3.422-3.844 3.988-1.085.316-2.254.267-3.393.216l-17.65-.798v0"/></g><g><path fill="none" stroke="#ffe" stroke-linecap="round" stroke-miterlimit="50" stroke-width="4" d="M90.457 79.378c-9.058 6.368-15.044 14.946-23.799 23.836.116-.164-1.02-1.726-1.078-1.643"/></g><g><path fill="none" stroke="#ffe" stroke-linecap="round" stroke-linejoin="round" stroke-miterlimit="50" stroke-width="4" d="M235.867 39.125c6.853-1.072 17.066-1.534 23.962-.785.76.083 1.59.212 2.095.785.454.515.524 1.253.572 1.937a730.723 730.723 0 0 1 .994 84.81c-.085 1.818-.179 3.652-.666 5.404-.415 1.492-1.106 2.89-1.793 4.277l-10.727 21.666v0l-7.663-14.018c-1.332-2.436-2.682-4.925-3.177-7.656-.414-2.285-.208-4.632-.03-6.948 1.308-17.135-2.113-33.835-2.482-51.016-.134-6.274-.712-11.552-1.085-18.425-.146-6.361.34-13.612 0-20.031"/></g><g><path fill="none" stroke="#ffe" stroke-linecap="round" stroke-miterlimit="50" stroke-width="4" d="M242.611 133.354a116.327 116.327 0 0 1 19.236-.005"/></g><g><path fill="none" stroke="#ffe" stroke-linecap="round" stroke-miterlimit="50" stroke-width="4" d="M236.35 49.514c8.811.773 17.736.995 26.613.664"/></g><g><path fill="none" stroke="#ffe" stroke-linecap="round" stroke-miterlimit="50" stroke-width="4" d="M232.15 195.166c2.69-.262 5.4-.31 8.099-.148"/></g><g><path fill="none" stroke="#ffe" stroke-linecap="round" stroke-miterlimit="50" stroke-width="4" d="M253.075 194.697l10.125.395"/></g><g><path fill="none" stroke="#ffe" stroke-linecap="round" stroke-linejoin="round" stroke-miterlimit="50" stroke-width="4" d="M177.459 179.675c6.216-8.583 10.33-16.002 18.04-26.007 7.09 8.26 14.32 16.753 18.1 26.961l-36.14-.954v0"/></g><g><path fill="none" stroke="#ffe" stroke-linecap="round" stroke-linejoin="round" stroke-miterlimit="50" stroke-width="4" d="M84.553 135.793a452.101 452.101 0 0 0 46.598-30.95c12.066 9.547 21.178 22.819 34.56 30.413a1125.365 1125.365 0 0 0 40.95-29.743"/></g><g><path fill="none" stroke="#ffe" stroke-linecap="round" stroke-linejoin="round" stroke-miterlimit="50" stroke-width="4" d="M86.134 214.354v0l1.622-36.95c.11-2.508.233-5.078 1.2-7.395.922-2.217 2.554-4.054 4.21-5.794 2.066-2.173 4.233-4.285 6.75-5.916 6.85-4.442 16.154-4.786 23.314-.86 6.455 3.539 10.866 10.086 13.176 17.077 2.31 6.99 2.73 14.455 2.805 21.816.08 7.774-.2 15.548-.524 23.315-.202 4.818-.434 9.715-2.017 14.27-2.562 7.376-8.802 13.393-16.295 15.593-7.492 2.2-16.039.493-22.049-4.492-9.225-7.65-11.262-20.784-12.418-32.711"/></g><g><path fill="none" stroke="#ffe" stroke-linecap="round" stroke-miterlimit="50" stroke-width="4" d="M112.854 172.143l-1.155 18.2"/></g></g></g></g></svg>