<svg xmlns="http://www.w3.org/2000/svg" width="367" height="501" viewBox="0 0 367 501"><defs><clipPath id="wv88a"><path d="M189.394 375.497a22.564 22.564 0 0 0-.421-1.11l.006.006c-.03-.071-.06-.137-.089-.207-.052-.125-.104-.25-.158-.37-.048-.11-.098-.214-.147-.32-.055-.118-.11-.237-.166-.352-.05-.102-.102-.2-.154-.3-.057-.111-.114-.223-.172-.33-.053-.097-.108-.19-.161-.284-.06-.104-.118-.21-.179-.31a14.8 14.8 0 0 0-.338-.537c-.06-.091-.122-.177-.183-.265-.061-.09-.122-.179-.184-.265-.063-.087-.128-.17-.193-.255-.062-.082-.124-.165-.188-.245-.064-.081-.13-.16-.196-.24-.066-.078-.132-.158-.199-.235-.065-.075-.132-.149-.199-.223a14.507 14.507 0 0 0-1.065-1.062l-.203-.182a18.187 18.187 0 0 0-.248-.21c-.066-.056-.132-.112-.2-.166-.09-.074-.18-.145-.272-.217l-.186-.147c-.105-.08-.21-.158-.317-.236-.051-.038-.101-.077-.154-.114-.159-.115-.32-.23-.482-.341-.34-.234-.802-.471-1.357-.708a24.061 24.061 0 0 0-1.92-.708c-.179-.059-.361-.117-.547-.175-.93-.29-1.95-.573-3-.844a94.71 94.71 0 0 0-1.27-.317c-.115-.054-.514-.147-1.136-.271-.355-.07-.783-.152-1.27-.241l-.378-.068c-1.423-.256-3.28-.572-5.326-.91l-.562-.093c-1.322-.218-2.71-.443-4.102-.667l-.596-.096a1322.373 1322.373 0 0 0-5.737-.912l-2.023-.318-2.866-.447-.618-.096-1.342-.208-.11.017-.109-.017s-24.931 3.844-25.99 4.335c-3.397.827-6.709 1.812-8.06 2.744-.164.113-.327.228-.487.344l-.155.115c-.108.08-.215.159-.321.24-.063.048-.124.098-.186.147a17.12 17.12 0 0 0-.277.22l-.2.167c-.084.07-.168.142-.251.215-.069.06-.137.122-.204.183a15.508 15.508 0 0 0-.44.414l-.222.22a13.686 13.686 0 0 0-.614.67 15.397 15.397 0 0 0-.781.99c-.062.086-.122.174-.182.262-.063.091-.126.183-.188.277-.059.09-.116.183-.174.276-.06.098-.122.195-.182.296-.056.095-.111.194-.166.292-.059.104-.118.207-.176.315-.054.102-.107.208-.16.313-.057.11-.113.217-.168.331-.054.111-.105.229-.158.344-.102.222-.202.452-.3.689-.046.114-.094.224-.14.34l.001-.002c-.109.278-.215.563-.317.859-1.899 5.473-5.238 17.555-8.003 28.117a177.843 177.843 0 0 0 18.19 9.528 166.488 166.488 0 0 0 3.102-10.323c.612 14.027.443 29.451.267 37.777-.047 1.966-.114 4.424-.15 5.598-.011.322-.02.511-.024.55l.006.007a2.873 2.873 0 0 1-.006.126c.14.159.307.319.494.479.968 1.247 2.776 3.661 4.175 4.25.013-.616.013-1.297.007-2.018 4.548 1.708 11.795 3.045 20.798 3.045.625 0 1.245-.01 1.86-.024.616.015 1.236.024 1.862.024 9.45 0 16.802-1.583 21.195-3.478.16-.064.32-.126.472-.19v-.02a15.698 15.698 0 0 0 2.047-1.111c.695-.4 1.267-.786 1.54-1.09-.01-.102-.05-1.215-.1-3.092.004-1.14.004-2.428-.013-3.531-.02.037-.046.074-.067.111-.174-8.405-.33-23.588.274-37.413.761 2.897 1.799 6.413 3.004 10.028a177.925 177.925 0 0 0 18.185-9.623c-2.744-10.467-6.025-22.321-7.9-27.727z"/></clipPath><clipPath id="wv88b"><path d="M183.574 296.634c15.554-4.83 16.836-18.203 16.202-23.072-2.026-15.553 88.337-15.314 76.138-42.97-8.617-19.537 73.881-43.905 78.698-56.898 8.906-24.025-43.846-38.813-53.567-69.45-7.292-22.98-30.701-82.856-77.376-67.205-39.53 13.255-70.762-53.447-119.04-23.902 0 0-101.738 72.787-66.793 99.076C55.05 125.163-3.214 143.71.14 169.456c3.353 25.744 73.073 33.189 76.283 57.83 1.586 12.173 4.621 35.44 13.543 42.371 19.023 14.78 88.853 3.843 94.84 13.29 4.98 7.86-1.232 13.687-1.232 13.687z"/></clipPath><clipPath id="wv88c"><path d="M183.574 296.844c15.554-4.83 16.836-18.203 16.202-23.072-2.026-15.554 88.337-15.314 76.138-42.971-8.617-19.537 73.881-43.904 78.698-56.898 8.906-24.025-43.846-38.812-53.567-69.45-7.292-22.98-30.701-82.855-77.376-67.204-39.53 13.255-70.762-53.447-119.04-23.903 0 0-101.738 72.788-66.793 99.077C55.05 125.373-3.214 143.92.14 169.665c3.353 25.745 73.073 33.19 76.283 57.831 1.586 12.173 4.621 35.439 13.543 42.37 19.023 14.781 88.853 3.843 94.84 13.29 4.98 7.86-1.232 13.688-1.232 13.688z"/></clipPath></defs><g><g><g><path fill="none" stroke="#1c2f82" stroke-miterlimit="50" d="M180.124 271.539c15.554-4.815 12.686-.467 12.052-5.319-2.026-15.5 105.948-13.346 93.75-40.908-8.618-19.47 73.88-43.753 78.698-56.703 8.905-23.942-43.847-38.678-53.568-69.211-7.292-22.9-30.7-82.57-77.376-66.973-39.529 13.21-70.762-53.263-119.04-23.82 0 0-101.738 72.537-66.793 98.736 17.214 12.906-41.05 31.388-37.696 57.045 3.353 25.656 73.074 33.076 76.283 57.632 1.586 12.13 4.621 35.317 13.543 42.225 19.023 14.73 78.555 2.922 84.543 12.336 4.98 7.833-4.396-5.04-4.396-5.04v0z"/></g><g><path fill="none" stroke="#1c2f82" stroke-miterlimit="50" d="M188.58 291.128c15.553-4.815 3.81-22.033 3.176-26.885-2.026-15.5 101.362-11.37 89.163-38.931-8.617-19.47 73.882-43.753 78.699-56.703 8.905-23.942-43.847-38.678-53.568-69.211-7.291-22.9-30.7-82.57-77.376-66.973-39.529 13.21-70.762-53.263-119.04-23.82 0 0-101.738 72.537-66.793 98.736 17.214 12.906-41.05 31.388-37.696 57.045C8.5 190.042 78.22 197.462 81.43 222.018c1.585 12.13 4.62 35.317 13.542 42.225 19.023 14.73 88.853 3.83 94.84 13.244 4.981 7.833-1.231 13.64-1.231 13.64v0z"/></g><g><path fill="#1c2f82" d="M183.574 296.634c15.554-4.831 16.836-18.204 16.202-23.072-2.026-15.554 88.337-15.314 76.138-42.971-8.618-19.537 73.88-43.904 78.698-56.898 8.905-24.025-43.846-38.813-53.568-69.45-7.291-22.98-30.7-82.856-77.376-67.204C184.14 50.293 152.907-16.41 104.63 13.136c0 0-101.739 72.788-66.794 99.077C55.05 125.163-3.215 143.709.14 169.455c3.354 25.745 73.074 33.19 76.284 57.831 1.585 12.172 4.62 35.438 13.542 42.37 19.023 14.78 88.853 3.843 94.84 13.29 4.981 7.86-1.231 13.688-1.231 13.688z"/></g><g><g><path fill="#f58c6c" d="M45.583 413.997c-.227-1.727.381-3.101 1.084-4.69.898-2.034 2.23-3.893 2.503-3.708.242.164-.654 1.74-1.147 4.363-.827 4.396.31 7.311-.315 7.601-.52.24-1.857-1.522-2.125-3.566z"/></g><g><path fill="#ffb288" d="M63.133 423.89c-4.059-.124-6.088-.186-8.675-.344-5.992-.366-5.797-.253-6.138-.397-3.405-1.431-5.058-5.154-7.667-11.027-.94-2.116-3.259-7.337-2.44-8.068.763-.682 4.094 2.683 6.116 5.279 1.835 2.356 1.898 3.188 3.39 4.353 2.148 1.678 5.38 2.578 6.372 1.155.842-1.208-.163-3.752-.578-4.802-1.497-3.789-4.147-5.254-3.859-5.87.238-.507 2.24.069 4.065 1.034 2.576 1.364 9.947 7.161 11.718 9.265 2.282 2.71 4.024 7.104 2.86 8.873-.427.648-1.065.674-5.164.55z"/></g><g><path fill="#f58c6c" d="M70.74 424.995c-2.874-1.822-6.755-3.092-9.017-3.562-3.243-.672-4.692.882-9.539.34-1.56-.173-3.074-.36-4.74-1.393-2.083-1.293-3.257-3.202-4.875-6.333a117.274 117.274 0 0 1-4.483-9.771c-.37 1.233 1.661 17.196 11.002 19.371 2.407.56 8.797.976 12.704.203 11.11 4.27 8.947 1.145 8.947 1.145z"/></g><g><path fill="#ffb288" d="M101.895 401.553a1174.832 1174.832 0 0 0-4.403 17.469 313.41 313.41 0 0 0-2.202-.371c-6.239-1.036-25.09-2.45-29.29-3.464-.9-.218-.5-.319-1.251 2.691-.71 2.84-1.685 4.757-2.327 6.196 11.704 4.43 26.315 8.783 34.531 9.7 3.352.374 6.76.594 9.868-1.346 2.336-1.458 3.51-3.517 4.336-5.083 2.563-4.854 5.523-14.03 6.818-18.36-3.508-1.655-6.658-2.617-10.405-4.71-1.63-.91-4.144-1.805-5.675-2.722z"/></g><g><path fill="#f58c6c" d="M107.57 404.276c-1.629-.911-4.144-1.806-5.675-2.723a574.401 574.401 0 0 0-.914 3.531c3.076 2.82 12.908 7.088 13.346 7.504 0 0-3.018 10.99-5.946 15.044-.715.99-1.808 2.308-3.648 3.108-1.498.651-2.845.655-4.73.54-5.263-.318-8.513-1.08-8.513-1.08-5.621-1.319-9.943-2.493-11.215-2.838-9.885-2.684-10.58-3.15-13.018-4.054-1.343-.498-2.995-1.216-4.274-1.573-.325.759-.304 1.763-.561 2.339 11.704 4.43 26.315 8.783 34.531 9.7 3.352.374 6.76.594 9.868-1.346 2.336-1.458 3.51-3.517 4.336-5.083 2.563-4.854 5.523-14.03 6.818-18.36-3.508-1.655-6.658-2.617-10.405-4.71z"/></g></g><g><g><path fill="#f58c6c" d="M251.998 413.997c.226-1.727-.382-3.101-1.084-4.69-.899-2.034-2.23-3.893-2.503-3.708-.242.164.653 1.74 1.147 4.363.826 4.396-.31 7.311.315 7.601.519.24 1.856-1.522 2.125-3.566z"/></g><g><path fill="#ffb288" d="M234.448 423.89c4.058-.124 6.088-.186 8.674-.344 5.992-.366 5.798-.253 6.138-.397 3.406-1.431 5.06-5.154 7.668-11.027.94-2.116 3.259-7.337 2.44-8.068-.764-.682-4.095 2.683-6.117 5.279-1.835 2.356-1.897 3.188-3.39 4.353-2.147 1.678-5.379 2.578-6.371 1.155-.843-1.208.162-3.752.578-4.802 1.497-3.789 4.146-5.254 3.859-5.87-.238-.507-2.24.069-4.065 1.034-2.576 1.364-9.947 7.161-11.719 9.265-2.282 2.71-4.023 7.104-2.859 8.873.427.648 1.065.674 5.164.55z"/></g><g><path fill="#f58c6c" d="M226.841 424.995c2.874-1.822 6.754-3.092 9.016-3.562 3.244-.672 4.692.882 9.54.34 1.559-.173 3.074-.36 4.74-1.393 2.083-1.293 3.257-3.202 4.875-6.333a117.291 117.291 0 0 0 4.482-9.771c.37 1.233-1.66 17.196-11.001 19.371-2.407.56-8.798.976-12.704.203-11.11 4.27-8.948 1.145-8.948 1.145z"/></g><g><path fill="#ffb288" d="M195.685 401.553c1.406 5.368 3.56 13.955 4.404 17.469.756-.131 1.495-.254 2.202-.371 6.239-1.036 25.09-2.45 29.29-3.464.9-.218.499-.319 1.25 2.691.71 2.84 1.685 4.757 2.328 6.196-11.705 4.43-26.315 8.783-34.532 9.7-3.352.374-6.76.594-9.868-1.346-2.336-1.458-3.509-3.517-4.335-5.083-2.563-4.854-5.523-14.03-6.819-18.36 3.509-1.655 6.659-2.617 10.405-4.71 1.63-.91 4.145-1.805 5.675-2.722z"/></g><g><path fill="#f58c6c" d="M190.01 404.276c1.63-.911 4.145-1.806 5.675-2.723.325 1.238.536 2.052.915 3.531-3.077 2.82-12.909 7.088-13.346 7.504 0 0 3.018 10.99 5.945 15.044.716.99 1.809 2.308 3.649 3.108 1.497.651 2.845.655 4.73.54 5.262-.318 8.512-1.08 8.512-1.08 5.622-1.319 9.944-2.493 11.216-2.838 9.885-2.684 10.579-3.15 13.017-4.054 1.344-.498 2.995-1.216 4.274-1.573.326.759.305 1.763.562 2.339-11.705 4.43-26.315 8.783-34.532 9.7-3.352.374-6.76.594-9.868-1.346-2.336-1.458-3.509-3.517-4.335-5.083-2.563-4.854-5.523-14.03-6.819-18.36 3.509-1.655 6.659-2.617 10.405-4.71z"/></g></g><g><g><path fill="#fdfdfa" d="M197.382 403.012c-2.745-10.467-6.025-22.321-7.9-27.727-1.529-4.41-3.725-6.64-6.449-8.517-1.355-.935-4.684-1.924-8.094-2.753-1.045-.486-25.956-4.326-25.956-4.326l-.109.017-.11-.017s-24.931 3.844-25.988 4.334c-3.398.827-6.71 1.813-8.061 2.745-2.724 1.877-4.92 4.107-6.449 8.517-1.898 5.473-5.237 17.555-8.002 28.117a177.694 177.694 0 0 0 15.64 8.35c.79-2.642 1.458-5.167 2.144-7.55 2.042-7.106 3.199-6.386 4.553-6.21 1.193 23.185-.561 47.767-.614 48.322.64.709 1.74 1.449 3.255 2.155l-.006.284c3.604 1.517 9.366 2.813 16.639 3.244a81.478 81.478 0 0 0 4.581.15c.15 0 .297.003.448.003h.218c.59 0 1.172-.009 1.752-.021a81.434 81.434 0 0 0 1.97.021c.151 0 .298-.002.448-.003l.32-.002a81.45 81.45 0 0 0 4.261-.148c7.273-.431 13.035-1.727 16.639-3.244l-.006-.284c1.515-.706 2.615-1.446 3.255-2.155-.054-.567-2-26.222-.695-49.84 1.387.64 3.164 2.61 4.634 7.728.659 2.29 1.302 4.71 2.052 7.24a177.976 177.976 0 0 0 15.63-8.43z"/></g><g><path fill="#efede4" d="M126.196 440.376c.057-7.783.24-14.555.003-26.904-.365-18.899-2.466-18.275-3.367-18.39-1.357-.174-2.738 2.001-4.784 9.12-.686 2.384-1.354 4.908-2.144 7.55.858.405 1.708.798 2.549 1.178a166.627 166.627 0 0 0 3.103-10.323c.883 20.258.14 43.436.093 43.926.671.744 2.972 4.147 4.668 4.86.06-2.946-.148-7.314-.12-11.017z"/></g><g><path fill="#efede4" d="M179.7 404.202c-2.045-7.119-3.479-9.305-4.836-9.13-.9.115-3.247.468-3.612 19.367-.237 12.348-.033 18.153.023 25.936.027 3.703-.06 5.911-.001 8.858 1.695-.713 4.154-1.956 4.825-2.7-.046-.49-.79-23.668.093-43.926.762 2.897 1.8 6.413 3.005 10.028.843-.386 1.695-.783 2.555-1.193-.75-2.53-1.393-4.95-2.052-7.24z"/></g><g><path fill="#efede4" d="M123.913 367.059c7.661-1.824 13.665-2.299 18.098-2.928 13.983-1.985 16.01-.212 20.932.78 3.478.7 13.184 2.24 17.752 4.154 3.219 1.35 5.832 2.196 8.372 5.116-1.501-3.691-3.547-5.7-6.034-7.413-1.355-.935-4.684-1.924-8.094-2.753-1.045-.486-25.956-4.326-25.956-4.326l-.109.017-.11-.017s-24.931 3.844-25.988 4.334c-3.398.827-6.71 1.813-8.061 2.745-2.542 1.752-4.623 3.81-6.132 7.66 1.241-1.929 3.803-3.599 6.442-4.615 1.456-.56 4.6-1.734 8.888-2.754z"/></g><g><path fill="#e5e5e5" d="M121.822 440.376a665.628 665.628 0 0 1-.173 6.289c2.426 2.756 11.984 5.756 25.473 5.756.626 0 1.245-.009 1.861-.024.616.015 1.235.025 1.861.025 13.49 0 22.715-3.226 25.142-5.981-.014-.139.04-3.874 0-6.532-3.474 6.826-44.906 9.83-54.164.467z"/></g></g><g><g><g/><g clip-path="url(#wv88a)"><g><path fill="none" stroke="#f95b30" stroke-miterlimit="50" stroke-width=".25" d="M81.283 259.255c-3.408 34.692.616 69.616 2.62 104.417a901.074 901.074 0 0 1-2.614 137.68c1.206.16 2.477-.555 2.967-1.669"/></g><g><path fill="none" stroke="#f95b30" stroke-miterlimit="50" stroke-width=".25" d="M98.775 259.901a2965.82 2965.82 0 0 0 16.401 242.558c.09.827 1.513 1.002 1.8.221.289-.78-.906-1.571-1.512-1"/></g><g><path fill="none" stroke="#f95b30" stroke-miterlimit="50" stroke-width=".25" d="M123.865 258.607c-3.275 26.963-1.463 54.252.133 81.366a4980.066 4980.066 0 0 1 6.809 159.088c.025.948.271 2.164 1.207 2.312.937.147.603-1.92-.01-1.197"/></g><g><path fill="none" stroke="#f95b30" stroke-miterlimit="50" stroke-width=".25" d="M141.044 260.028c2.001 16.329 4.005 32.694 4.302 49.143.325 18.048-1.407 36.075-1.527 54.126-.102 15.275.951 30.535 2.239 45.756A1488.158 1488.158 0 0 0 156.428 499"/></g><g><path fill="none" stroke="#f95b30" stroke-miterlimit="50" stroke-width=".25" d="M165.444 259.134c-7.688 33.043-2.139 67.494-.841 101.394.742 19.391.085 38.93 3.253 58.075 4.072 24.607 14.434 49.162 9.659 73.642"/></g><g><path fill="none" stroke="#f95b30" stroke-miterlimit="50" stroke-width=".25" d="M181.61 258.549c12.667 55.32.562 113.225 5.393 169.771 2.027 23.725 7.028 47.083 12.019 70.366"/></g><g><path fill="none" stroke="#f95b30" stroke-miterlimit="50" stroke-width=".25" d="M209.763 260.17v0l.696 99.926c.147 21.148.3 42.366 3.128 63.325 3.183 23.597 9.761 47.026 8.266 70.79-.054.845-.075 1.807.528 2.401.603.595 1.975.153 1.751-.665"/></g><g><path fill="none" stroke="#f95b30" stroke-miterlimit="50" stroke-width=".25" d="M231.406 258.65c-1.626 13.887 2.547 27.695 5.143 41.434 7.622 40.34 1.689 81.825 1.084 122.874-.384 26.022 1.39 52.047 4.452 77.892"/></g><g><path fill="none" stroke="#f95b30" stroke-miterlimit="50" stroke-width=".25" d="M252.67 262.505v0l6.141 67.989c2.248 24.881 4.496 49.938 2.071 74.802-1.588 16.287-5.153 32.895-1.3 48.798 1.403 5.788 3.757 11.298 5.514 16.988 2.037 6.6 3.265 13.43 4.022 20.296.078.708.218 1.523.839 1.872.62.348 1.595-.487 1.09-.988"/></g><g><path fill="none" stroke="#f95b30" stroke-miterlimit="50" stroke-width=".25" d="M275.793 256.771a13925.66 13925.66 0 0 0 8.165 249.69"/></g><g><path fill="none" stroke="#f95b30" stroke-miterlimit="50" stroke-width=".25" d="M293.712 258.429c3.58 79.566-.788 159.593 8.656 238.678"/></g><g><path fill="none" stroke="#f95b30" stroke-miterlimit="50" stroke-width=".25" d="M310.212 255.234a876.986 876.986 0 0 1 8.165 161.95c-1.188 28.094 5.438 56.478 18.942 81.143.475.868-1.2-.23-.679-1.07"/></g><g><path fill="none" stroke="#f95b30" stroke-miterlimit="50" stroke-width=".25" d="M335.007 256.757c.55 37.924 1.106 75.945 5.942 113.563 3.359 26.128 8.77 51.956 12.27 78.065a539.066 539.066 0 0 1 4.334 49.664c.337 8.264.475 16.634-1.347 24.701"/></g><g><path fill="none" stroke="#f95b30" stroke-miterlimit="50" stroke-width=".25" d="M351.18 257.932c-.083 8.432 1.187 16.812 2.419 25.154 11.476 77.762 19.778 156.04 22.956 234.581"/></g><g><path fill="none" stroke="#f95b30" stroke-miterlimit="50" stroke-width=".25" d="M376.981 257.33c-4.024 83.457 10.171 166.881 8.048 250.409"/></g><g><path fill="none" stroke="#f95b30" stroke-miterlimit="50" stroke-width=".25" d="M58.283 288.886c82.394 9.694 165.697 4.174 248.63 1.978 10.938-.29 21.918-.52 32.788.729 17.928 2.058 35.264 8.102 53.253 9.531"/></g><g><path fill="none" stroke="#f95b30" stroke-miterlimit="50" stroke-width=".25" d="M54.45 313.942c56.446-1.406 112.98-2.81 169.327.812 59.175 3.804 118.011 13.145 177.304 13.834"/></g><g><path fill="none" stroke="#f95b30" stroke-miterlimit="50" stroke-width=".25" d="M55.042 349.061c28.94-1.581 57.904-3.163 86.885-2.828 74.156.859 148.036 14.263 222.1 10.488 12.115-.618 24.88-1.933 34.709-9.044"/></g><g><path fill="none" stroke="#f95b30" stroke-miterlimit="50" stroke-width=".25" d="M73.852 368.688v0l106.434 5.1c28.57 1.37 57.189 2.74 85.767 1.524 14.96-.636 29.894-1.98 44.867-2.133 31.123-.32 62.155 4.508 93.27 3.706"/></g><g><path fill="none" stroke="#f95b30" stroke-miterlimit="50" stroke-width=".25" d="M54.122 391.564c39.58 11.936 81.779 11.828 122.99 8.578 41.212-3.25 82.26-9.538 123.598-9.61 40.514-.07 80.772 5.834 120.855 11.723"/></g><g><path fill="none" stroke="#f95b30" stroke-miterlimit="50" stroke-width=".25" d="M51.8 424.287c67.616 13.088 137.175.937 205.968-2.356a797.883 797.883 0 0 1 168.246 9.783"/></g><g><path fill="none" stroke="#f95b30" stroke-miterlimit="50" stroke-width=".25" d="M31.082 457.292c30.3 9.932 63.131 5.525 94.914 2.955 41.653-3.368 83.496-3.382 125.285-3.395l78.581-.025c32.689-.01 66.09.094 96.988 10.767"/></g></g></g></g><g opacity=".15"><path fill="#1d1c1a" d="M35.031 484.663c0-8.616 50.868-15.601 113.618-15.601 62.749 0 113.617 6.985 113.617 15.601 0 8.617-50.868 15.602-113.617 15.602-62.75 0-113.618-6.985-113.618-15.602z"/></g><g><path fill="#192b5e" d="M235.51 442.63c-4.17-3.972-9.56-4.046-15.787-4.037-7.371.01-27.377 5.026-42.218 8.076-16.354 3.361-23.522 5.289-26.818 6.675-3.3-1.245-11.464-2.819-30.228-6.675-14.84-3.05-34.847-8.066-42.218-8.076-6.228-.009-11.616.065-15.786 4.038-3.368 3.208-5.626 8.662-4.406 13.584 1.444 5.82 7.216 8.722 15.42 12.848 5.748 2.892 62.888 18.942 69.017 14.318 2.451-1.849 4.79-4.526 6.728-7.563 1.632 3.012 3.773 5.684 6.264 7.563 6.129 4.624 63.27-11.426 69.018-14.318 8.203-4.126 13.975-7.028 15.419-12.848 1.22-4.922-1.038-10.376-4.406-13.584z"/></g><g><path fill="#16255b" d="M207.898 472.01c1.857-.372 7.32-2.042 18.247-5.383 2.426-.742 5.149-1.611 7.346-4.037 3.028-3.344 3.083-7.162 3.08-8.747-.003-1.711-.01-5.88-3.08-8.522-1.418-1.22 1.51-4.654-3.01-4.944-7.664-.49-6.655-.928-8.607-.467-6.61 1.562-23.873 7.86-30.09 10.12-9.55 3.474-18.162 7.05-20.616 8.074-6.106 2.552-12.575 4.262-18.72 6.729-1.028.412-2.48 1.005-4.502 1.121-5.299.305-12.768-5.304-32.702-13.232-13.922-5.537-14.189-5.88-18.957-7.401-.683-.218-13.692-4.484-23.824-4.864-1.985-.074-2.022.366-5.254 1.574-1.506.564-3.109 2.715-5.283 5.533-2.481 3.215-3.282 7.802-1.658 11.662 1.648 3.918 5.208 5.69 9.241 7.625 6.08 2.917 39.705 10.413 53.318 13.681a2676.427 2676.427 0 0 1 15.127 3.676c2.01-.036 3.473-.294 4.219-.826 2.59-1.849 5.06-4.526 7.108-7.563 1.725 3.012 3.987 5.684 6.618 7.563 1.19.848 4.196 1 8.35.665 4.157-1.48 10.264-3.57 21.374-6.43 13.381-3.444 20.072-5.166 22.275-5.607z"/></g><g><path fill="#16255b" d="M117.45 448.012c.38 1.419 1.541 2.231 2.242 2.69 6.157 4.035 13.457 5.608 13.457 5.608 3.659.788 6.844 1.474 11.438 1.794 7.144.497 12.34-.265 17.942-1.122 4.02-.614 8.733-1.564 13.232-4.485 1.742-1.13 3.063-2.304 3.364-4.037a4.56 4.56 0 0 0-.143-2.096l-1.476.306c-16.354 3.36-23.522 5.289-26.818 6.675-3.3-1.246-11.464-2.82-30.227-6.675-.98-.202-1.983-.412-3.003-.629-.149.609-.193 1.282-.008 1.97z"/></g><g><path fill="#e28e7d" d="M149.27 477.378c1.54-.975 3.396 1.71 6.46.883 2.735-.737 2.576-3.233 5.686-4.338 1.96-.697 4.61-.625 6.474.66 1.776 1.223 1.377 2.54 3.325 4.044 1.54 1.191 3.154 1.83 5.056 1.689 9.205-.682 13.841 1.56 16.185 3.335 3.51 2.658 3.88 6.566 4.173 8.148.354 1.909.066 2.43-.18 2.685-1.106 1.146-4.24-1.306-6.683-2.303-3.207-1.307-2.563-1.225-4.588-1.468-3.478-.418-5.548-.255-8.495.195 0 0-5.967.91-14.187.396-6.2-.39-9.35-.586-11.71-3.035-3.306-3.43-3.489-9.643-1.516-10.891z"/></g><g><path fill="#e28e7d" d="M207.369 434.564l.216-.027"/></g><g><path fill="#e28e7d" d="M205.387 434.855h.002l.112-.018-.114.018z"/></g><g><path fill="#e28e7d" d="M210.124 434.279l-.029.002h.007z"/></g><g><path fill="#e28e7d" d="M208.234 434.46c.093-.011.186-.022.278-.031"/></g><g><path fill="#e28e7d" d="M221.098 436.783c.187.12.375.246.565.379"/></g><g><path fill="#e28e7d" d="M210.83 434.236l.228-.011"/></g><g><path fill="#e28e7d" d="M220.958 436.694c.047.029.093.06.14.09"/></g><g><path fill="#13131c" d="M156.898 357.624a.905.905 0 0 0-.024-.197v.395a.91.91 0 0 0 .024-.198z"/></g><g><path fill="#1c2f82" d="M75.958 440.786c-9.868-2.193-15.326 2.865-17.625 10.284-1.495 4.827.188 13.716 10.692 17.736l80.101 23.278c5.61 1.69 13.51-18.991 7.428-21.18z"/></g><g><path fill="#16255b" d="M110.295 474.937c-23.437-6.636-14.49-4.468-16.82-5.046-1.652-.41-11.562-2.84-20.52-7.064-1.097-.517-3.4-1.636-5.383-4.037-.956-1.158-3.333-4.035-3.027-8.073.296-3.912 2.916-6.355 3.7-7.065.799-.722 3.564-2.865 9.487-2.202-14.445-3.979-17.653 3.984-19.4 9.62-1.494 4.828.189 13.717 10.693 17.737l80.101 23.277c1.81.546 3.976-1.572 5.874-4.764-11.414-3.113-29.353-8.035-44.705-12.383z"/></g><g><path fill="#ffb288" d="M147.724 477.378c-1.54-.975-3.396 1.71-6.46.883-2.735-.737-2.576-3.233-5.686-4.338-1.96-.697-4.61-.625-6.474.66-1.776 1.223-1.377 2.54-3.325 4.044-1.54 1.191-3.154 1.83-5.057 1.689-9.204-.682-13.84 1.56-16.184 3.335-3.51 2.658-3.88 6.566-4.173 8.148-.354 1.909-.065 2.43.18 2.685 1.106 1.146 4.24-1.306 6.683-2.303 3.207-1.307 2.563-1.225 4.588-1.468 3.478-.418 5.548-.255 8.495.195 0 0 5.967.91 14.187.396 6.2-.39 9.35-.586 11.71-3.035 3.306-3.43 3.489-9.643 1.516-10.891z"/></g><g><path fill="#f58c6c" d="M121.684 488.157c3.617.18 7.554.613 12.785 0 3.172-.372 4.079-.808 4.485-1.57.914-1.715-1.4-3.779-2.467-7.4-.377-1.282-.657-2.968-.49-5.096 2.68 1.172 2.662 3.469 5.268 4.172 3.064.826 4.92-1.859 6.46-.884 1.972 1.248 1.79 7.462-1.516 10.891-2.36 2.449-5.51 2.646-11.71 3.035-8.22.515-14.188-.396-14.188-.396-2.947-.45-5.016-.613-8.495-.195-2.025.243-1.38.16-4.587 1.468-2.443.997-5.577 3.449-6.683 2.303-.173-.18-.367-.494-.343-1.33 6.22-4.257 11.1-4.873 13.184-4.998 3.764-.226 8.297 0 8.297 0z"/></g><g><path fill="#1c2f82" d="M222.834 439.889c9.868-2.194 15.326 2.865 17.625 10.283 1.496 4.828-.188 13.717-10.692 17.736l-80.102 23.279c-5.61 1.69-13.51-18.991-7.427-21.18z"/></g><g><path fill="#16255b" d="M188.497 474.04c23.436-6.637 14.489-4.469 16.82-5.046 1.652-.41 11.561-2.84 20.52-7.065 1.097-.517 3.4-1.636 5.382-4.036.957-1.159 3.334-4.036 3.028-8.074-.296-3.912-2.916-6.355-3.7-7.064-.799-.722-3.564-2.865-9.487-2.203 14.445-3.979 17.652 3.985 19.399 9.621 1.496 4.827-.188 13.716-10.692 17.736l-80.102 23.278c-1.81.546-3.975-1.573-5.873-4.764 11.414-3.114 29.353-8.036 44.705-12.383z"/></g><g><path fill="#f58c6c" d="M140.76 353.848v10.945c0 .757.392 1.46 1.04 1.852 1.447.874 3.907 1.449 6.7 1.449 3.278 0 6.328-.58 7.358-1.93.682-.893.682-4.595.682-5.193v3.616-10.739z"/></g><g><g><path fill="#f9beaa" d="M151.734 346.721a.22.22 0 0 1-.296-.017c-.304-.314-1.085-.982-2.204-.952-.945.026-1.609.524-1.918.817a.22.22 0 0 1-.3.003.22.22 0 0 1-.006-.324c.357-.337 1.121-.91 2.212-.94 1.293-.04 2.17.702 2.534 1.085a.222.222 0 0 1-.02.327z"/></g></g><g><path fill="#1c2f82" d="M121.645 442.03c-.063 2.636.012 6.527 0 6.653 2.427 2.756 11.985 5.757 25.473 5.757.627 0 1.246-.01 1.862-.024.615.015 1.235.024 1.86.024 13.49 0 22.716-3.226 25.142-5.98-.013-.139.04-3.875 0-6.533-3.474 6.826-45.08 9.467-54.337.103z"/></g><g><path fill="#16255b" d="M175.986 441.927c-.591 1.16-2.285 2.2-4.734 3.08v6.28c2.297-.9 3.909-1.891 4.734-2.828-.013-.138.04-3.874 0-6.532z"/></g><g><path fill="#16255b" d="M121.645 442.03c-.063 2.637.012 6.528 0 6.655.793.9 2.351 1.825 4.554 2.665v-6.476c-1.895-.788-3.453-1.73-4.554-2.843z"/></g><g><path fill="#3070b7" d="M197.749 454.845c-.373.09-.923.21-1.617.384-.693.174-1.538.379-2.5.634a165.9 165.9 0 0 0-3.232.866c-1.182.325-2.461.681-3.807 1.082-1.349.394-2.77.81-4.23 1.272-.732.228-1.475.461-2.227.697-.753.233-1.513.478-2.276.732l-4.626 1.544-4.599 1.623c-1.517.537-2.996 1.104-4.43 1.637-1.444.552-2.803 1.11-4.11 1.632-1.303.519-2.53 1.026-3.66 1.495-2.267.933-4.143 1.74-5.454 2.312-.657.282-1.168.52-1.519.673l-.536.24.562-.17c.367-.113.907-.269 1.588-.487a283.858 283.858 0 0 0 5.634-1.828c1.162-.388 2.421-.808 3.745-1.272 1.323-.456 2.735-.942 4.16-1.451l9.068-3.097 9.058-3.123 4.166-1.446c1.326-.457 2.576-.9 3.73-1.308 2.31-.81 4.232-1.502 5.575-1.993.674-.24 1.199-.443 1.558-.575l.551-.206z"/></g><g><path fill="#3070b7" d="M130.251 466.083c-.342-.172-.84-.434-1.483-.748-.642-.315-1.42-.704-2.32-1.128a164.37 164.37 0 0 0-3.029-1.422 187.383 187.383 0 0 0-3.608-1.628 201.687 201.687 0 0 0-4.054-1.754l-2.15-.904c-.727-.307-1.465-.61-2.213-.906l-4.532-1.802-4.56-1.725c-1.507-.568-3.003-1.087-4.443-1.604-1.46-.51-2.858-.96-4.194-1.403a279.983 279.983 0 0 0-3.763-1.218 288.11 288.11 0 0 0-5.66-1.748c-.683-.208-1.226-.356-1.594-.464a430.5 430.5 0 0 1-.565-.162l.54.232c.353.15.867.379 1.528.652 1.32.553 3.207 1.334 5.486 2.234 1.138.453 2.371.943 3.683 1.442 1.305.504 2.697 1.043 4.115 1.573l8.928 3.479 8.938 3.452 4.117 1.58c1.308.506 2.549.974 3.694 1.406 2.29.869 4.204 1.58 5.548 2.07.669.251 1.201.434 1.561.565l.554.198z"/></g><g><path fill="#ffb288" d="M129.595 332.29c-.84-.791-2.655-2.505-4.486-2.018-1.45.386-2.156 1.953-2.69 3.14-.356.788-1.38 3.159-.45 5.943.25.75.948 2.443 2.692 3.701.638.46 2.052 1.48 4.037 1.346.177-.012 2.652-.214 3.925-2.019 2.024-2.87-.481-7.688-3.028-10.092z"/></g><g><path fill="#f58c6c" d="M129.82 336.215c-.87-1.387-2.7-4.31-4.037-3.924-1.308.377-1.345 3.693-1.346 4.037-.002.77.012 2.13.897 3.476.37.56 1.131 1.718 2.58 2.018 1.176.245 2.789-.082 3.364-1.121.633-1.146-.292-2.624-1.458-4.486z"/></g><g><path fill="#ffb288" d="M166.868 332.29c.84-.791 2.654-2.505 4.485-2.018 1.45.386 2.157 1.953 2.692 3.14.355.788 1.378 3.159.448 5.943-.25.75-.947 2.443-2.69 3.701-.64.46-2.053 1.48-4.038 1.346-.177-.012-2.652-.214-3.925-2.019-2.024-2.87.48-7.688 3.028-10.092z"/></g><g><path fill="#f58c6c" d="M166.643 336.215c.87-1.387 2.7-4.31 4.037-3.924 1.308.377 1.345 3.693 1.346 4.037.002.77-.012 2.13-.898 3.476-.369.56-1.13 1.718-2.579 2.018-1.176.245-2.789-.082-3.364-1.121-.633-1.146.292-2.624 1.458-4.486z"/></g><g><path fill="#f58c6c" d="M164.469 304.494c-3.267-3.127-7.402-3.456-11.886-3.812-2.64-.21-6.087-.485-10.317.897-1.731.565-6.223 2.097-9.868 6.503-.873 1.055-3.044 3.904-4.037 8.074-.32 1.346-.368 3.458-.449 7.626-.092 4.726-.138 7.09 0 9.42.283 4.769.424 7.153 1.346 9.868.65 1.912 2.55 7.258 7.85 10.765 2.725 1.803 5.28 2.412 6.503 2.69 1.464.336 5.038 1.11 9.42 0 5.136-1.298 8.23-4.386 9.42-5.606 3.62-3.71 4.857-7.692 5.158-8.747.613-2.145.633-4.495.673-9.195.043-5.063 1.31-5.413 1.355-9.417.084-7.506-.392-8.087-1.355-11.89-.39-1.542-1.18-4.655-3.813-7.176z"/></g><g><path fill="#ffb288" d="M164.469 304.344c-3.267-3.01-7.402-3.326-11.886-3.67-2.64-.202-6.087-.465-10.317.864-1.731.544-6.223 2.018-9.868 6.259-.873 1.015-3.044 3.757-4.037 7.77-.32 1.295-.368 3.327-.449 7.338-.092 4.548-.138 6.823 0 9.064.283 4.59.424 6.885 1.346 9.497.65 1.84 2.55 6.986 7.85 10.36 2.725 1.735 5.28 2.32 6.503 2.59 1.464.322 5.038 1.066 9.42 0 5.136-1.25 8.23-4.223 9.42-5.396 3.62-3.57 4.857-7.402 5.158-8.417.613-2.065.633-4.327.673-8.85.043-4.872 1.31-5.208 1.355-9.062.084-7.223-.392-7.781-1.355-11.44-.39-1.485-1.18-4.481-3.813-6.907z"/></g><g><path fill="#f48f6d" d="M145.744 331.236c-.422.25-1.291.763-1.346 1.57-.047.7 1.682 3.489 3.798 3.489 1.585 0 3.256-1.104 3.715-2.592.349-1.126-.522-2.197-.56-2.243-1.284-1.533-4.042-1.149-5.607-.224z"/></g><g><path fill="#16255b" d="M132.11 322.75c.288.154.98-1.76 3.022-2.827 1.592-.831 3.198-.728 3.802-.682 3.238.247 4.5 2.396 5.557 1.755.955-.58 1.023-3.002-.098-4.095-.395-.385-.863-.532-1.755-.682-2.96-.498-4.963-.834-6.92.39-1.191.744-1.82 1.723-2.34 2.535-1.047 1.63-1.543 3.46-1.268 3.606z"/></g><g><path fill="#16255b" d="M157.516 300.233c.341.217 1.672-1.264 2.467-2.355 1.08-1.481 1.917-2.63 1.682-4.037-.21-1.261-1.169-2.047-1.682-2.467-1.139-.933-2.42-1.242-3.378-1.332-.047.028-.084.06-.098.099-.159.443 2.251 1.089 2.691 3.027.194.854-.011 1.887-.448 2.018a.376.376 0 0 1-.249-.02 3.4 3.4 0 0 1 .137.693c.177 2.028-1.52 4.12-1.122 4.374z"/></g><g><path fill="#16255b" d="M139.126 301.353c-3.862-.1-6.855 1.29-7.85 1.794-2.934 1.49-3.175 2.738-4.934 3.028-1.45.24-3.507-.245-6.337-3.117-.08.01-.137.037-.167.09-.08.139.08.383.444.812 1.053 1.243 1.69 1.995 2.808 2.44 1.468.582 2.105-.024 2.467.448.863 1.123-3.13 4.047-2.467 7.289.285 1.39 1.094 1.215 1.794 3.252.624 1.812.089 2.26.449 5.046.366 2.828 1.897 13.83 2.492 13.47.64-.387 1.145-1.89.872-5.508-.11-1.456-.11-2.495-.112-3.813-.001-1.43.012-4.596.785-8.41.597-2.944.895-4.416 1.906-6.168.529-.916 1.99-3.372 5.046-5.046.766-.42 3.938-2.156 7.626-1.458 2.227.422 2.29 1.285 4.2 1.452-.11-.806-.372-1.717-.948-2.573-1.93-2.87-5.926-2.972-8.074-3.028z"/></g><g><path fill="#f95b30" d="M168.62 300.01c-.644.003-1.315.365-1.683 0-.35-.35-.006-1.016 0-1.683.078-8.491-9.859-8.565-10.33-8.284.957.09 2.239.398 3.378 1.331.513.42 1.472 1.206 1.682 2.468.234 1.407-.603 2.555-1.682 4.036-.796 1.092-2.126 2.572-2.467 2.355-.399-.254 1.299-2.346 1.121-4.373a3.396 3.396 0 0 0-.136-.693c-.473-.182-1.031-1.147-1.658-1.886-2.334-2.754-6.286-3.137-8.635-3.364-3.534-.343-6.244.492-7.513.897-1.307.417-6.25 2.06-10.092 6.503-1.344 1.554-2.63 3.538-5.047 4.935-1.004.58-2.137 1.235-3.588 1.121-.815-.063-1.611-.36-1.964-.314 2.83 2.873 4.887 3.357 6.337 3.118 1.76-.29 2-1.539 4.934-3.028.995-.505 3.988-1.894 7.85-1.794 2.148.055 6.144.159 8.074 3.027.576.856.839 1.768.949 2.574l.06.005c2.943.23 3.746-1.367 6.392-1.794 12.637-2.037 13.902 13.102 14.073 17.229.066 1.587-.084 4.458-.405 8-.279 3.067-1.138 7.32-.052 6.873.929-.383.752-.172.929-.383 1.06-1.265 2.864-15.642 3.033-17.58.724-8.326-1.357-12.86-1.654-13.466-.604-1.23-1.26-2.104-1.01-2.355.2-.2.845.134 1.234.337 1.468.763 2.01 1.756 2.13 1.682.268-.166-1.773-5.512-4.26-5.495z"/></g><g><path fill="#15235c" d="M132.11 321.97c.288.154.98-1.76 3.022-2.826 1.592-.832 3.198-.73 3.802-.683 3.238.247 4.5 2.396 5.557 1.755.955-.58 1.023-3.001-.098-4.094-.395-.385-.863-.533-1.755-.683-2.96-.498-4.963-.834-6.92.39-1.191.744-1.82 1.723-2.34 2.535-1.047 1.63-1.543 3.46-1.268 3.607z"/></g><g><path fill="#16255b" d="M165.158 322.75c-.287.154-.98-1.76-3.022-2.827-1.591-.831-3.197-.728-3.802-.682-3.238.247-4.5 2.396-5.556 1.755-.955-.58-1.024-3.002.097-4.095.395-.385.863-.532 1.755-.682 2.961-.498 4.963-.834 6.921.39 1.19.744 1.82 1.723 2.34 2.535 1.046 1.63 1.542 3.46 1.267 3.606z"/></g><g><path fill="#15235c" d="M165.158 321.97c-.287.154-.98-1.76-3.022-2.826-1.591-.832-3.197-.73-3.802-.683-3.238.247-4.5 2.396-5.556 1.755-.955-.58-1.024-3.001.097-4.094.395-.385.863-.533 1.755-.683 2.961-.498 4.963-.834 6.921.39 1.19.744 1.82 1.723 2.34 2.535 1.046 1.63 1.542 3.46 1.267 3.607z"/></g><g><g><path fill="#16255b" d="M135.746 326.96l-.015-.006a.684.684 0 0 1-.27-.997c.508-.757 1.469-1.83 3.033-2.316 2.15-.667 3.995.209 4.921.806.351.226.41.715.133 1.027l-.013.014a.688.688 0 0 1-.886.116c-.709-.453-2.134-1.137-3.744-.637-1.173.364-1.9 1.175-2.286 1.75a.69.69 0 0 1-.873.244z"/></g></g><g><g><path fill="#16255b" d="M161.032 326.96l.015-.006a.685.685 0 0 0 .27-.997c-.508-.757-1.469-1.83-3.033-2.316-2.15-.667-3.996.209-4.922.806a.682.682 0 0 0-.132 1.027l.013.014c.226.253.6.299.886.116.708-.453 2.134-1.137 3.743-.637 1.174.364 1.9 1.175 2.287 1.75a.69.69 0 0 0 .873.244z"/></g></g><g><g><path fill="#f95b30" d="M148.736 343.228l-.168-.001c-5.712-.07-8.688-3.708-8.812-3.863l.827-.662c.111.139 2.78 3.402 7.998 3.465l.151.001c5.324 0 8.128-3.43 8.156-3.466l.828.662c-.127.16-3.157 3.864-8.98 3.864z"/></g></g><g><g><path fill="none" stroke="#fffeee" stroke-linecap="round" stroke-miterlimit="50" stroke-width="2" d="M141.223 216.447c3.795-.19 9.202.011 12.98.424.55.06 1.13.139 1.568.477.725.56.81 1.603.834 2.52l.236 9.267c-4.818.383-9.645.65-14.476.799-.333.01-.71.003-.94-.24-.219-.234-.213-.595-.194-.915.198-3.305-.206-9.028-.008-12.332"/></g><g><path fill="none" stroke="#fffeee" stroke-linecap="round" stroke-miterlimit="50" stroke-width="2" d="M149.172 229.964a28.685 28.685 0 0 0 .138 6.735"/></g><g><path fill="none" stroke="#fffeee" stroke-linecap="round" stroke-miterlimit="50" stroke-width="2" d="M123.138 237.54c17.035-.94 33.623-.986 50.661-.105.365.019.762.05 1.033.296.288.26.348.682.388 1.068.224 2.194.314 3.41.321 5.616"/></g><g><path fill="none" stroke="#fffeee" stroke-linecap="round" stroke-miterlimit="50" stroke-width="2" d="M123.029 237.583c.055 2.64.05 4.985.223 7.62"/></g><g><path fill="none" stroke="#fffeee" stroke-linecap="round" stroke-miterlimit="50" stroke-width="2" d="M116.36 247.139c4.073.464 9.85.333 13.949.294"/></g><g/><g><path fill="none" stroke="#fffeee" stroke-linecap="round" stroke-miterlimit="50" stroke-width="2" d="M130.22 247.4a64.373 64.373 0 0 1 1.259 13.388c-.003.218-.017.461-.176.61-.148.138-.371.148-.574.149l-13.636.086c-.164 0-.34-.002-.473-.098-.166-.118-.211-.34-.243-.541a45.533 45.533 0 0 1-.07-13.833"/></g><g><path fill="none" stroke="#fffeee" stroke-linecap="round" stroke-miterlimit="50" stroke-width="2" d="M149.332 236.624c-.286 2.759 1.166 5.892.324 8.494"/></g><g><path fill="none" stroke="#fffeee" stroke-linecap="round" stroke-miterlimit="50" stroke-width="2" d="M142.423 246.6c4.63.366 9.275.568 13.92.603.707 4.434.22 9.043.382 13.611.006.171 0 .365-.125.48-.112.101-.279.105-.429.102l-13.486-.214c-.169-.002-.353-.011-.48-.121-.133-.117-.163-.31-.184-.486a118.97 118.97 0 0 1-.655-8.028c-.09-1.909.196-4.242 1.057-5.948"/></g><g><path fill="none" stroke="#fffeee" stroke-linecap="round" stroke-miterlimit="50" stroke-width="2" d="M167.95 246.489v0l13.091.256c.339.007.692.017.988.181.62.344.724 1.177.752 1.885.172 4.399.21 8.801.112 13.202-.002.109-.01.228-.084.307-.088.092-.233.091-.36.084l-12.998-.737c-.238-.014-.488-.031-.688-.16-.4-.257-.431-.82-.417-1.298l-.395-8.198c.055-1.938-.104-3.33 0-5.522"/></g></g><g><g><path fill="none" stroke="#fffeee" stroke-linecap="round" stroke-miterlimit="50" stroke-width="2" d="M173.38 147.55c.19-1.51.244-3.038.16-4.559-.008-.135-.024-.286-.128-.373-.085-.072-.205-.08-.316-.083a43.295 43.295 0 0 0-3.55.027c-.153.008-.32.012-.442-.079-.215-.16-.162-.491-.071-.743 1.067-2.967 4.143-4.82 5.359-7.73a22.814 22.814 0 0 0 6.78 7.232l-4.166.477c-.222.025-.475.07-.59.262-.068.113-.07.252-.07.384l.013 4.85v0"/></g><g><path fill="none" stroke="#fffeee" stroke-linecap="round" stroke-miterlimit="50" stroke-width="2" d="M190.031 157.217c1.343.422 2.772.564 4.171.413.175-.02.362-.048.49-.169.149-.14.176-.363.194-.567l.614-6.866c2.579 2.679 5.28 5.241 8.094 7.674a35.162 35.162 0 0 0-8.674 6.466l-.094-3.1c-.006-.17-.018-.359-.14-.479-.115-.114-.292-.13-.454-.14l-3.323-.193v0"/></g><g><path fill="none" stroke="#fffeee" stroke-linecap="round" stroke-miterlimit="50" stroke-width="2" d="M163.856 158.35v0l-4.875-.016c.37-1.553.59-3.14.657-4.735-.826-.122-1.546.526-2.13 1.124l-5.245 5.382c-.135.14-.282.321-.225.507.038.12.151.198.258.267a56.594 56.594 0 0 0 7.565 4.068l.067-2.652c.004-.149.015-.314.122-.416.12-.115.309-.105.473-.087l3.678.404v0"/></g><g><path fill="none" stroke="#fffeee" stroke-linecap="round" stroke-miterlimit="50" stroke-width="2" d="M171.167 165.438c-1.33-.655-2.267-1.948-2.752-3.349-.484-1.4-.56-2.91-.521-4.391.033-1.24.164-2.538.858-3.566 1-1.482 2.894-2.03 4.648-2.378 2.203-.435 4.487-.718 6.683-.253 2.197.465 4.31 1.788 5.238 3.833.653 1.44.667 3.08.63 4.662-.033 1.34-.102 2.713-.633 3.943-.53 1.23-1.62 2.305-2.954 2.442"/></g><g><path fill="none" stroke="#fffeee" stroke-linecap="round" stroke-miterlimit="50" stroke-width="2" d="M174.44 177.52v0l.341-13.018c.047-1.759.098-3.547.645-5.219.233-.708.701-1.494 1.446-1.514.351-.01.684.164.96.384 1.411 1.126 1.483 3.21 1.434 5.015l-.18 6.585c-.036 1.305-.02 2.753.862 3.715l-.169-.227v0"/></g><g><path fill="none" stroke="#fffeee" stroke-linecap="round" stroke-miterlimit="50" stroke-width="2" d="M179.268 169.838a24.518 24.518 0 0 1 4.203-.557c.315-.014.659-.014.91.176.304.23.37.652.413 1.031l.513 4.577c1.38-.515 2.44-1.984 3.91-1.898.962.056 1.768.816 2.164 1.695.395.878.459 1.864.516 2.826.69.447 1.564-.267 2.385-.235 1.212.047 1.708 1.56 1.845 2.765a60.27 60.27 0 0 1 .362 8.746c-.057 1.815-.243 3.753-1.386 5.163-.437.539-.992.971-1.427 1.51-.88 1.09-1.17 2.463-1.223 4.043-.026.733.04 1.644.115 2.516v1.078"/></g><g><path fill="none" stroke="#fffeee" stroke-linecap="round" stroke-miterlimit="50" stroke-width="2" d="M174.237 171.536c-2.006 1.509-4.165 3.26-4.575 5.736-.205 1.241.07 2.508.365 3.73.59 2.436 1.277 4.925.957 7.41-.19 1.468-.615 3.255.529 4.192.592.485 1.45.555 2.018 1.07.504.456.674 1.166.815 1.832.49 2.328 1.022 5.324 1.402 7.673"/></g><g><path fill="none" stroke="#fffeee" stroke-linecap="round" stroke-miterlimit="50" stroke-width="2" d="M172.932 203.215v0l21.76.372c.211.004.442.015.599.156.174.155.197.416.208.65l.2 4.304c-.022.002.174 1.041 0 1.053-7.021.494-14.431-.298-21.622-.314-.337 0-.717-.02-.939-.273-.193-.218-.2-.538-.198-.83l-.008-5.118v0"/></g></g><g><g><path fill="none" stroke="#fffeee" stroke-linecap="round" stroke-miterlimit="50" stroke-width="2" d="M55.673 90.858v0l36.74 1.125c.176.003.362.01.504.113.157.114.218.317.264.506.141.584.23 1.18.264 1.78.018.293.016.608-.145.854-.27.407-.841.447-1.33.445l-35.503-.148c-.147-.001-.306-.005-.423-.095-.156-.12-.178-.344-.188-.54l-.183-4.04v0"/></g><g><path fill="none" stroke="#fffeee" stroke-linecap="round" stroke-miterlimit="50" stroke-width="2" d="M55.664 98.723v0l37.51-.056a270.27 270.27 0 0 1-.623 15.931c-.015.218-.034.448-.156.63-.13.193-.354.299-.572.378-1.381.507-2.904.344-4.37.22-10.405-.874-20.93.616-31.297-.638-.19-.023-.394-.053-.532-.186-.184-.179-.182-.47-.167-.727l.639-10.803c.094-1.6.173-3.284-.539-4.721"/></g><g><path fill="none" stroke="#fffeee" stroke-linecap="round" stroke-miterlimit="50" stroke-width="2" d="M55.649 98.864a197.112 197.112 0 0 0 15.043 5.885c7.452 2.57 15.424 4.913 20.83 10.65"/></g><g><path fill="none" stroke="#fffeee" stroke-miterlimit="50" stroke-width="2" d="M93.028 98.912a73.636 73.636 0 0 0-12.933 5.647c-2.08 1.158-4.125 2.426-6.384 3.176-1.626.54-3.339.802-4.938 1.417-1.465.562-2.802 1.407-4.177 2.164a38.767 38.767 0 0 1-9.18 3.62"/></g></g><g><g><path fill="none" stroke="#fffeee" stroke-linecap="round" stroke-miterlimit="50" stroke-width="2" d="M217.429 48.813v0l45.546.768c.473.008 1 .039 1.324.383.292.312.321.78.334 1.207l1.007 32.48c-15.487.424-47.731.018-48.36 0 .267-11.29 1.041-23.58.149-34.839"/></g><g><path fill="#1c2f82" d="M211.857 81.815l11.59-2.272a85.004 85.004 0 0 0-2.685 12.097c-3.119-2.964-5.992-6.659-8.905-9.825"/><path fill="none" stroke="#fffeee" stroke-linecap="round" stroke-miterlimit="50" stroke-width="2" d="M211.857 81.815v0l11.59-2.272a85.004 85.004 0 0 0-2.685 12.097c-3.119-2.964-5.992-6.659-8.905-9.825"/></g><g><path fill="none" stroke="#fffeee" stroke-linecap="round" stroke-miterlimit="50" stroke-width="2" d="M215.637 86.654a24.902 24.902 0 0 0-7.407 6.083"/></g><g><path fill="none" stroke="#fffeee" stroke-linecap="round" stroke-miterlimit="50" stroke-width="2" d="M216.043 86.958c-2.539 1.508-5.715 3.54-7.756 5.674"/></g></g><g><g><path fill="none" stroke="#fffeee" stroke-linecap="round" stroke-miterlimit="50" stroke-width="2" d="M247.172 199.879v0l-19.74.181c-.29.002-.628.028-.793.268-.106.153-.107.352-.106.538l.32 30.981c10.066.092 20.134.033 30.198-.177.232-.005.491-.022.647-.193.146-.162.148-.404.142-.621l-.501-18.246v0"/></g><g><path fill="none" stroke="#fffeee" stroke-linecap="round" stroke-miterlimit="50" stroke-width="2" d="M255.356 196.99a12.89 12.89 0 0 1 3.902 3.508c.23.313.455.674.41 1.06-.048.403-.374.708-.677.978a63.69 63.69 0 0 0-11.91 14.24 14.386 14.386 0 0 1-4.406-2.552c-.21-.179-.424-.377-.505-.64-.134-.434.13-.88.386-1.255 3.71-5.442 7.784-11.072 12.8-15.34"/></g><g><path fill="none" stroke="#fffeee" stroke-linecap="round" stroke-miterlimit="50" stroke-width="2" d="M238.862 215.815a17.495 17.495 0 0 1 6.067 4.026c-.407.305-.9.472-1.382.635l-4.097 1.376c-.115.039-.236.078-.356.058-.346-.059-.422-.516-.416-.867l.184-5.228v0"/></g><g/></g><g><g/><g clip-path="url(#wv88b)"><g><path fill="none" stroke="#fffeee" stroke-linecap="round" stroke-miterlimit="50" stroke-width="2" d="M278.427 145.898c.306-2.57 4.335-2.873 6.923-2.857l60.604.367c1.202.007 2.56.081 3.353.986.572.653.692 1.575.78 2.439.603 5.998.801 12.037.593 18.061-.035 1.012-.106 2.094-.722 2.898-.832 1.089-2.358 1.306-3.723 1.43a383.403 383.403 0 0 1-41.692 1.524c-1.793-.032-3.61-.074-5.356.338-5.203 1.23-8.602 6.085-11.503 10.575.103-1.803.2-3.657-.367-5.371-.567-1.715-1.96-3.282-3.752-3.502-1.843-.226-4.018.892-5.405-.342-.867-.77-.912-2.085-.887-3.244.164-7.776.549-15.548 1.154-23.302"/></g><g><path fill="none" stroke="#fffeee" stroke-linecap="round" stroke-miterlimit="50" stroke-width="2" d="M290.24 154.005c.28-.936 1.038-1.738 1.984-1.982s2.045.13 2.575.95c.652 1.012.253 2.528-.789 3.13-1.041.602-3.95.529-3.77-2.098"/></g><g/><g><path fill="none" stroke="#fffeee" stroke-linecap="round" stroke-miterlimit="50" stroke-width="2" d="M292.906 157.957a15.904 15.904 0 0 0-3.578 6.675l6.27.036c.448.003 1.022-.09 1.116-.527.046-.22-.06-.44-.163-.64l-2.305-4.466c-.215-.418-.915-1.28-1.34-1.078"/></g><g><path fill="none" stroke="#fffeee" stroke-linecap="round" stroke-miterlimit="50" stroke-width="2" d="M305.427 151.315c10.333.524 20.69.583 31.028.175"/></g><g><path fill="none" stroke="#fffeee" stroke-linecap="round" stroke-miterlimit="50" stroke-width="2" d="M342.27 151.411h1.616"/></g><g><path fill="none" stroke="#fffeee" stroke-linecap="round" stroke-miterlimit="50" stroke-width="2" d="M304.768 157.043a310.29 310.29 0 0 1 17.785-.108"/></g><g><path fill="none" stroke="#fffeee" stroke-linecap="round" stroke-miterlimit="50" stroke-width="2" d="M304.78 161.98l15.838.635"/></g><g><path fill="none" stroke="#fffeee" stroke-linecap="round" stroke-miterlimit="50" stroke-width="2" d="M329.017 162.092l7.758.323"/></g></g></g><g><g><path fill="none" stroke="#fffeee" stroke-linecap="round" stroke-miterlimit="50" stroke-width="2" d="M134.35 82.419c0-1.028 1.251-1.517 2.266-1.678 4.564-.725 9.222-.428 13.831-.099.87.062 1.835.17 2.41.826.317.36.464.837.582 1.302.75 2.97.631 6.082.507 9.143l-.953 23.439c-.032.762-.09 1.595-.608 2.156-.521.564-1.354.686-2.12.757-3.36.311-6.744.285-10.115.119-1.088-.054-2.19-.125-3.221-.475-1.032-.348-2-1.01-2.492-1.982-.46-.908-.459-1.972-.448-2.99l.337-30.717v0"/></g><g><path fill="none" stroke="#fffeee" stroke-linecap="round" stroke-miterlimit="50" stroke-width="2" d="M143.072 115.576c-.036-.211.148-.427.362-.441.214-.014.418.162.452.374a.517.517 0 0 1-.286.528.495.495 0 0 1-.566-.09c-.14-.149-.145-.413.005-.552"/></g><g><path fill="none" stroke="#fffeee" stroke-linecap="round" stroke-miterlimit="50" stroke-width="2" d="M141.44 83.564c1.629-.153 3.27-.182 4.904-.088"/></g><g><path fill="none" stroke="#fffeee" stroke-linecap="round" stroke-miterlimit="50" stroke-width="2" d="M163.419 94.577v0l-.13-8.81c-.002-1.527.108-3.292 1.34-4.195.767-.563 1.78-.63 2.73-.658a84.22 84.22 0 0 1 12.904.597c.584.072 1.198.163 1.663.523.69.536.856 1.495.953 2.363a66.82 66.82 0 0 1 .413 6.865c.014 1.681-.035 3.362-.084 5.042l-.582 19.82c-.02.654-.061 1.368-.496 1.858-.453.51-1.195.624-1.874.694a60.46 60.46 0 0 1-13.985-.191c-.873-.114-1.872-.334-2.28-1.115-.2-.386-.212-.84-.22-1.276l-.352-21.517v0"/></g><g><path fill="none" stroke="#fffeee" stroke-linecap="round" stroke-miterlimit="50" stroke-width="2" d="M170.55 83.873l5.31.33"/></g><g><path fill="none" stroke="#fffeee" stroke-linecap="round" stroke-miterlimit="50" stroke-width="2" d="M172.866 115.881c-.029-.21.171-.388.374-.451.202-.064.435-.053.609.067s.268.361.184.555c-.105.244-.415.317-.68.327-.16.006-.334-.003-.456-.107-.121-.103-.14-.332.002-.405"/></g><g><path fill="none" stroke="#fffeee" stroke-linecap="round" stroke-miterlimit="50" stroke-width="2" d="M145.592 105.712c.044-.957.842-1.777 1.768-2.024.927-.245 1.933.008 2.755.502.142.086.283.181.39.308.245.29.282.706.232 1.082-.202 1.513-1.791 2.692-3.298 2.446a1.609 1.609 0 0 1-.577-.194c-.227-.137-.265-.052-.429-.26-.25-.318-.638-.938-.78-1.316-.142-.379-.157-.828.06-1.168"/></g><g><path fill="none" stroke="#fffeee" stroke-linecap="round" stroke-miterlimit="50" stroke-width="2" d="M150.728 105.786c1.65.274 3.375-.392 4.588-1.544 1.214-1.152 1.95-2.74 2.296-4.377.307-1.449.332-2.965.853-4.352.779-2.075 2.635-3.644 4.733-4.363 2.097-.718 4.117-.707 6.27-.18"/></g><g><path fill="none" stroke="#fffeee" stroke-linecap="round" stroke-miterlimit="50" stroke-width="2" d="M169.249 89.287c.966.388 2.164.893 3.015 1.492l-2.34 1.841v0l-.675-3.333v0"/></g></g><g><g><path fill="none" stroke="#fffeee" stroke-linecap="round" stroke-miterlimit="50" stroke-width="2" d="M244.151 141.236c-.35-.481-.354-2.18-.25-3.273.106-1.093.528-2.197 1.367-2.905.676-.57 1.555-.833 2.42-1.014 1.366-.286 2.98-.328 3.946.678.291.304.495.68.696 1.05.214.396.43.795.582 1.22.3.838.339 1.747.33 2.638-.005.545-.03 1.102-.24 1.605-.328.791-1.083 1.345-1.895 1.62-.812.275-1.684.306-2.541.308-.96.003-1.947-.03-2.833-.402-.886-.372-1.66-1.15-1.763-2.105"/></g><g><path fill="none" stroke="#fffeee" stroke-linecap="round" stroke-miterlimit="50" stroke-width="2" d="M247.153 143.178c-1.524.286-2.296 1.667-3.28 2.866-1.267 1.542-2.528 3.145-3.202 5.025a9.237 9.237 0 0 0-.497 3.985"/></g><g><path fill="none" stroke="#fffeee" stroke-linecap="round" stroke-miterlimit="50" stroke-width="2" d="M250.06 143.12c2.385.262 4.338 2.063 5.129 4.328.317.908.426 1.875.499 2.833a42.16 42.16 0 0 1 .023 6.103"/></g><g><path fill="none" stroke="#fffeee" stroke-linecap="round" stroke-miterlimit="50" stroke-width="2" d="M246.671 125.636a16.076 16.076 0 0 1 1.58 3.724l1.101-2.722c.089-.218.182-.445.353-.608.217-.208.526-.282.818-.354 1.854-.454 3.7-1.136 5.154-2.374 2.047-1.74 3.12-4.503 2.984-7.187-.137-2.683-1.427-5.253-3.36-7.12-.671-.648-1.437-1.228-2.325-1.513-.642-.206-1.324-.25-1.997-.274-3.531-.126-7.233.342-10.163 2.316-2.93 1.975-4.846 5.757-3.8 9.132.899 2.895 3.685 4.835 6.56 5.792.998.332 2.035.577 2.955 1.085"/></g><g><path fill="none" stroke="#fffeee" stroke-linecap="round" stroke-miterlimit="50" stroke-width="2" d="M254.204 126.764a5.12 5.12 0 0 0 2.14 3.103c.208.139.443.28.524.517.085.247-.026.514-.135.752l-1.36 2.97c1.222.039 2.277-.813 3.155-1.665.261-.252.531-.518.876-.63.408-.13.849-.026 1.266.067 2.077.461 4.222.61 6.342.44 1.462-.116 2.988-.418 4.098-1.376 1.229-1.058 1.73-2.725 2.008-4.323.285-1.64.396-3.332.07-4.963-.325-1.633-1.119-3.208-2.407-4.263-1.967-1.61-4.705-1.78-7.245-1.88"/></g><g><path fill="none" stroke="#fffeee" stroke-linecap="round" stroke-miterlimit="50" stroke-width="2" d="M233.888 115.513c-1.915-.04-3.89-.068-5.67.641-2.65 1.058-4.499 3.74-4.817 6.576-.104.93-.057 1.891.254 2.776.309.882.867 1.655 1.482 2.36 2.745 3.153 7.187 5.16 11.181 3.929.254-.078.517-.17.778-.122.236.043.435.194.633.33.843.573 1.816.922 2.776 1.265-.592-1.49-.145-3.33 1.065-4.382.397-.346.907-.685.939-1.21"/></g><g><path fill="none" stroke="#fffeee" stroke-linecap="round" stroke-miterlimit="50" stroke-width="2" d="M229.957 127.484a26.098 26.098 0 0 1 2.841-7.55c.493.796.616 1.76.826 2.673a13.22 13.22 0 0 0 2.54 5.26"/></g><g><path fill="none" stroke="#fffeee" stroke-linecap="round" stroke-miterlimit="50" stroke-width="2" d="M230.12 125.16l4.29-.113"/></g><g><path fill="none" stroke="#fffeee" stroke-linecap="round" stroke-miterlimit="50" stroke-width="2" d="M245.5 111.75c.419 2.458.545 4.965.375 7.452"/></g><g><path fill="none" stroke="#fffeee" stroke-linecap="round" stroke-miterlimit="50" stroke-width="2" d="M245.72 112c.367-.477 1.065-.61 1.641-.437.577.173 1.047.596 1.428 1.062.224.274.43.577.502.924.15.72-.331 1.458-.972 1.822-.64.364-1.404.429-2.14.447.946-.056 1.949-.087 2.78.37.83.456 1.366 1.583.86 2.385-.42.668-1.31.817-2.095.902l-1.135.123c-.2.023-.417.041-.591-.061-.174-.102-.255-.377-.1-.506"/></g><g><path fill="none" stroke="#fffeee" stroke-linecap="round" stroke-miterlimit="50" stroke-width="2" d="M267.346 121.204c-.735-.673-1.554-1.296-2.51-1.58-.956-.284-2.078-.172-2.822.493-.347.311-.593.72-.792 1.143a7.415 7.415 0 0 0-.627 4.23c.046.314.115.63.26.912.534 1.038 1.886 1.31 3.053 1.307.76-.002 1.542-.075 2.223-.414.68-.34 1.245-.991 1.3-1.75"/></g></g><g><g><g/><g clip-path="url(#wv88c)"><g><g><path fill="none" stroke="#fffeee" stroke-linecap="round" stroke-miterlimit="50" stroke-width="2" d="M76.745 19.86v0l78.203 4.264c.3.017.622.04.856.23.31.25.361.695.387 1.093.855 13.25.905 26.551.149 39.807-25.341.135-50.686-.34-76.004-1.426a2895.298 2895.298 0 0 0-3.238-43.89"/></g><g><path fill="none" stroke="#fffeee" stroke-linecap="round" stroke-miterlimit="50" stroke-width="2" d="M85.471 19.986v0l.765-3.958 58.962 2.358.136 4.618v0"/></g><g><path fill="none" stroke="#fffeee" stroke-linecap="round" stroke-miterlimit="50" stroke-width="2" d="M94.857 39.276c-1.665-.106-2.41-2.396-2.657-4.047-.243-1.618-.31-3.35.433-4.809 1.19-2.336 4.092-3.263 6.714-3.283 2.218-.017 4.716.647 5.767 2.601.698 1.299.593 2.867.409 4.33-.137 1.094-.326 2.23-.976 3.121-.382.524-.903.93-1.446 1.284-2.218 1.447-6.421 1.41-9.16.443-.184-.057.64.364.208.082"/></g><g><path fill="none" stroke="#fffeee" stroke-linecap="round" stroke-miterlimit="50" stroke-width="2" d="M95.157 39.398v0l-8.362 4.085c-.306.15-.623.308-.836.574-.275.345-.33.81-.374 1.247a139.83 139.83 0 0 0-.587 18.549"/></g><g><path fill="none" stroke="#fffeee" stroke-linecap="round" stroke-miterlimit="50" stroke-width="2" d="M101.192 39.625a15.985 15.985 0 0 1 5.977 4.122c.222.245.441.503.553.813.118.327.108.683.097 1.03-.183 5.837-.334 13.278-.517 19.115"/></g><g><path fill="none" stroke="#fffeee" stroke-linecap="round" stroke-miterlimit="50" stroke-width="2" d="M95.772 39.736a42.47 42.47 0 0 0 1.955 4.316c1.392-.657 2.66-2.696 2.793-4.229"/></g><g><path fill="none" stroke="#fffeee" stroke-linecap="round" stroke-miterlimit="50" stroke-width="2" d="M97.892 44.383a15.783 15.783 0 0 0-4.366 7.531"/></g><g><path fill="none" stroke="#fffeee" stroke-linecap="round" stroke-miterlimit="50" stroke-width="2" d="M98.51 44.479v0l3.156 6.185c.288.565.585 1.183.469 1.808-.083.44-.36.814-.623 1.178a28.438 28.438 0 0 0-3.474 6.436c-1.16-1.117-1.316-2.88-1.587-4.466-.272-1.587-1.314-3.27-2.851-3.747"/></g><g><path fill="none" stroke="#fffeee" stroke-linecap="round" stroke-miterlimit="50" stroke-width="2" d="M122.53 38.357c-1.817-3.045-.425-7.454 2.733-9.066 2.432-1.242 5.389-.835 7.963.075.86.304 1.73.68 2.353 1.348.886.952 1.119 2.324 1.278 3.614.257 2.083.303 4.508-1.255 5.913-.61.55-1.396.863-2.177 1.117-1.966.64-4.08.981-6.106.566-2.025-.415-3.946-1.68-4.788-3.567"/></g><g><path fill="none" stroke="#fffeee" stroke-linecap="round" stroke-miterlimit="50" stroke-width="2" d="M133.003 41.802v0l7.595 3.344c.473.208.967.433 1.278.846.347.459.404 1.068.438 1.643.347 5.745-.314 11.5-1.122 17.199"/></g><g><path fill="none" stroke="#fffeee" stroke-linecap="round" stroke-miterlimit="50" stroke-width="2" d="M124.945 41.664v0l-7.53 3.684c-.398.194-.807.398-1.096.733-.53.617-.53 1.515-.5 2.329.198 5.4.455 10.8.771 16.195"/></g><g><path fill="none" stroke="#fffeee" stroke-linecap="round" stroke-miterlimit="50" stroke-width="2" d="M125.223 41.783a12.247 12.247 0 0 1 2.747 4.768c1.12-1.597 3.188-3.495 4.76-4.648"/></g><g><path fill="none" stroke="#fffeee" stroke-linecap="round" stroke-miterlimit="50" stroke-width="2" d="M128.36 46.924a25.697 25.697 0 0 0-2.746 7.018c-.095.411-.179.842-.08 1.253.12.489.48.876.811 1.256a16.07 16.07 0 0 1 2.803 4.598c.1-2.135 1.807-3.79 2.863-5.649.168-.295.324-.615.324-.955-.001-.54-.388-.99-.735-1.405-1.446-1.73-2.672-4.277-3.35-6.428"/></g></g><g><g><path fill="none" stroke="#fffeee" stroke-linecap="round" stroke-miterlimit="50" stroke-width="2" d="M75.839 170.728c.071-1.269-1.525-1.866-2.784-2.035a65.43 65.43 0 0 0-11.507-.515c-2.324.102-4.955.5-6.27 2.419-1.074 1.567-.903 3.637-.77 5.532.678 9.611-.708 19.252-.539 28.886.03 1.65.235 3.548 1.6 4.475.648.44 1.453.572 2.23.68 5.106.71 10.289.866 15.428.464.78-.061 1.606-.152 2.229-.628 1.039-.795 1.112-2.306 1.092-3.615-.153-9.847-.35-19.694-.59-29.54"/></g><g><path fill="none" stroke="#fffeee" stroke-linecap="round" stroke-miterlimit="50" stroke-width="2" d="M64.302 206.22c.131-.284.27-.58.52-.767.415-.314 1.068-.21 1.4.191.33.402.325 1.027.023 1.45-.284.4-.828.613-1.291.456-.463-.157-.77-.71-.607-1.17"/></g><g><path fill="none" stroke="#fffeee" stroke-linecap="round" stroke-miterlimit="50" stroke-width="2" d="M61.91 172.228l5.226.001"/></g><g><path fill="none" stroke="#fffeee" stroke-linecap="round" stroke-miterlimit="50" stroke-width="2" d="M58.509 163.738v0l-.065-14.943c-.001-.314.013-.667.242-.881.19-.177.47-.205.729-.223 10.276-.74 20.573-1.481 30.872-1.167 7.997.245 16.015 1.125 23.982.381 1.037-.096 2.208-.18 2.99.507.799.702.85 1.908.84 2.971l-.494 56.119c-12.623.11-25.248.015-37.868-.285"/></g><g><path fill="none" stroke="#fffeee" stroke-linecap="round" stroke-miterlimit="50" stroke-width="2" d="M66.456 177.821c.049 1.3.026 2.603-.07 3.9l3.698-.1v0"/></g><g><path fill="none" stroke="#fffeee" stroke-linecap="round" stroke-miterlimit="50" stroke-width="2" d="M66.64 177.912a25.027 25.027 0 0 1 3.442 3.682"/></g><g><path fill="none" stroke="#fffeee" stroke-linecap="round" stroke-miterlimit="50" stroke-width="2" d="M68.231 179.264c1.599-.99 2.983-2.285 4.356-3.57l11.314-10.59v0"/></g><g><path fill="none" stroke="#fffeee" stroke-linecap="round" stroke-miterlimit="50" stroke-width="2" d="M82.15 163.476a17.7 17.7 0 0 1 3.78 3.651c.262-1.363.364-2.757.304-4.145a.35.35 0 0 0-.04-.175c-.07-.11-.227-.109-.356-.095l-3.058.322c-.28.03-.644.153-.623.434"/></g></g></g></g></g></g></g></svg>