<svg xmlns="http://www.w3.org/2000/svg" width="25" height="14" viewBox="0 0 25 14"><g><g><path fill="#1c2f82" d="M21.36 7.695a2.524 2.524 0 0 0-.204-.856 2.073 2.073 0 0 0-.478-.679 2.207 2.207 0 0 0-.73-.45c-.283-.11-.6-.164-.95-.164a2.21 2.21 0 0 0-.876.172 2.333 2.333 0 0 0-1.412 1.976zm-4.743 1.731c.005.08 0 2.055 1.78 2.51 2.068.526 2.99-1.035 3.061-1.216h2.708c-.07.297-1.17 4.333-7.16 3.017-3.676-.807-3.487-4.763-3.487-5.102 0-.313.015-1.972 1.496-3.503 1.481-1.53 3.59-1.53 4.018-1.53.427 0 2.623 0 3.962 1.35C24.727 6.7 24.384 9.5 24.384 9.5zM3.311 11.258l3.29.02c.21 0 .763-.018 1.219-.117.195-.042.574-.163.836-.38.109-.09.309-.344.424-.645a2.41 2.41 0 0 0 .142-.761c0-.239-.047-.46-.142-.662a1.433 1.433 0 0 0-.424-.526 2.093 2.093 0 0 0-.72-.348 3.793 3.793 0 0 0-1.04-.125l-3.585-.02zm0-5.784l3.01.017c.194 0 .7-.016 1.116-.105.18-.038.526-.147.766-.343a1.61 1.61 0 0 0 .389-.584c.102-.264.129-.572.129-.69a1.307 1.307 0 0 0-.518-1.075 1.923 1.923 0 0 0-.659-.313 3.51 3.51 0 0 0-.952-.114L3.31 2.25zM0 0l7.277.073s3.995-.192 4.546 2.692c.551 2.884-2.01 3.565-2.01 3.565s3.162.653 2.722 4.021c-.44 3.368-4.759 3.403-4.759 3.403H0zm22.227.746v1.433h-6.305V.746z"/></g></g></svg>