<svg xmlns="http://www.w3.org/2000/svg" width="229" height="120" viewBox="0 0 229 120"><g><g><g><path fill="#fff" d="M98.192 56.953h17.491V56c0-7.526-6.123-13.649-13.65-13.649-7.526 0-13.649 6.123-13.649 13.649 0 7.527 6.123 13.65 13.65 13.65a13.63 13.63 0 0 0 12.576-8.337l.37-.877-1.754-.743-.372.878a11.727 11.727 0 0 1-10.82 7.173c-6.476 0-11.744-5.268-11.744-11.744 0-6.475 5.268-11.743 11.744-11.743 5.048 0 9.35 3.208 11.007 7.688H98.192z"/></g><g><path fill="#fff" d="M162.979 85.205V42.27h-10.08v1.906h5.072v41.032h3.103c-.002 6.525-5.439 11.832-12.121 11.832-6.684 0-12.122-5.31-12.122-11.835h-1.906c0 7.576 6.293 13.74 14.028 13.74 7.734 0 14.026-6.164 14.026-13.74z"/></g><g><path fill="#fff" d="M138.978 42.279l-9.785 21.991-9.843-22.234-1.743.772 10.542 23.81-14.396 32.355h5.08l25.514-56.694z"/></g><g><g><g><path fill="#fff" d="M26.023 67.945l-.673-.674c-4.497-4.497-9.652-5.88-15.333-4.11-4.33 1.35-7.372 4.11-7.401 4.138l-.702.644-1.289-1.4.7-.645c.131-.122 13.331-12.021 25.373.026l.673.675z"/></g></g></g><g><path fill="#fff" d="M10.503 63.46a3.81 3.81 0 1 1 7.62 0 3.81 3.81 0 0 1-7.62 0z"/></g><g><path fill="#fff" d="M46.146 3.802c0-2.1 1.705-3.802 3.81-3.802a3.806 3.806 0 0 1 3.809 3.802c0 2.1-1.706 3.802-3.81 3.802a3.806 3.806 0 0 1-3.81-3.802z"/></g><g><path fill="#fff" d="M47.46 105.416c-1.618-1.024-5.364-2.277-7.95.31l-.09.102c-.025.031-.589.726-1.806.829-1.216-.103-1.781-.797-1.796-.816l-.098-.116c-2.588-2.587-6.333-1.333-7.943-.316l-6.867 4.23 1 1.624 6.873-4.235c.139-.088 3.395-2.08 5.546.003.444.559 1.557 1.425 3.229 1.534v.011c.02-.001.037-.005.056-.006.019 0 .036.005.055.006v-.011c1.673-.109 2.787-.975 3.23-1.534 2.151-2.084 5.408-.091 5.552 0l6.867 4.232 1-1.623z"/></g><g><path fill="#fff" d="M47.174 113.618l-.674.675c-3.42 3.419-8.21 3.79-8.4 3.805l-.426.02-.484-.033c-.787-.076-5.108-.63-8.27-3.792l-.673-.675-1.348 1.348.674.674c4.037 4.036 9.608 4.359 9.664 4.361h.947c.055-.002 5.626-.325 9.663-4.361l.674-.674z"/></g><g><path fill="#fff" d="M73.765 42.217c-7.373 0-9.083 5.193-9.427 6.731h-1.285v-6.356h-1.906v6.356h-.001v20.298h5.008V49.579c.04-.317.808-5.456 7.611-5.456 6.872 0 7.586 5.244 7.613 5.467l1.894-.215c-.008-.071-.895-7.158-9.507-7.158z"/></g><g><path fill="#fff" d="M192.268 48.926l-.005-.104c-.008-.065-.813-6.549-9.128-6.549-8.31 0-9.158 6.728-9.166 6.796l1.892.217c.026-.208.706-5.108 7.274-5.108 6.316 0 7.152 4.312 7.227 4.81v11.316h-1.24c-.098-4.869-4.056-8.802-8.916-8.802-4.92 0-8.924 4.03-8.924 8.983 0 4.952 4.003 8.98 8.924 8.98V67.56c-3.87 0-7.018-3.174-7.018-7.075 0-3.903 3.148-7.077 7.018-7.077 3.87 0 7.019 3.174 7.019 7.077h.002v8.748h5.04v-8.075z"/></g><g><path fill="#fff" d="M221.894 67.542V49.26l-.006-.104c-.262-2.387-2.518-6.9-9.171-6.9h-.953v.041c-5.852.41-7.921 4.54-8.203 6.837H202.3V42.59h-1.906v26.623h5.083v-20c.18-.95 1.304-5.054 7.24-5.054 6.33 0 7.194 4.634 7.272 5.161v20.127h8.816v-1.906z"/></g><g/><g><g/></g><g><path fill="#fff" d="M61.466 8.909c-.005-.073-.681-7.27-11.43-7.27-9.568 0-11.16 5.702-11.397 7.006a2.348 2.348 0 0 0-.031.338h-.009v.11l-.006.77h.006v56.103h-.003v31.33c-2.244.162-8.464.356-12.039-2.054l-.79-.532-1.065 1.58.79.533c3.058 2.06 7.55 2.472 10.657 2.472a31.61 31.61 0 0 0 3.516-.182l.837-.102V67.082h.002v-24.5h13.261v-5.009h-13.26V9.086c.001-.053.003-.105.012-.158.14-.825 1.288-5.384 9.52-5.384 8.915 0 9.509 5.292 9.53 5.51l.072.95 1.9-.145z"/></g></g></g></svg>