<svg xmlns="http://www.w3.org/2000/svg" xmlns:xlink="http://www.w3.org/1999/xlink" width="313.472" height="518.295" viewBox="0 0 313.472 518.295">
  <defs>
    <clipPath id="clip-path">
      <path id="Path_6677" data-name="Path 6677" d="M-356.415,333.552h-148.1V528.037c0,.2.023.593.023.593.9,17.293,41.381,31.211,91.192,31.211,50.374,0,91.215-14.238,91.215-31.8V333.552Z" transform="translate(504.519 -333.552)" fill="none" stroke="#fffdee" stroke-miterlimit="10" stroke-width="0.5"/>
    </clipPath>
    <clipPath id="clip-path-2">
      <path id="Smoke" d="M-414.6,131.532c-18.273-5.676-19.779-21.386-19.035-27.106,2.381-18.272-62.623-22.053-48.292-54.544C-471.8,26.931-549.307,5.659-554.966-9.606c-10.463-28.224,28.954-36.208,40.375-72.2,8.566-27,18.194-56.975,73.027-38.588,46.439,15.571,59.294-49.123,101.415-34.266,0,0,104.53,34.855,63.477,65.739-20.223,15.214,37.065,35.913,33.125,66.158s-41.4,43.877-45.169,72.826c-1.863,14.3-5.429,41.633-15.91,49.777-22.348,17.364-104.384,4.514-111.418,15.613A12.612,12.612,0,0,0-414.6,131.532Z" transform="translate(556.715 156.896)" fill="none"/>
    </clipPath>
    <clipPath id="clip-path-3">
      <path id="Smoke-2" data-name="Smoke" d="M-414.78,131.532c-18.273-5.676-19.779-21.386-19.034-27.106,2.38-18.272-62.623-22.053-48.292-54.544,10.124-22.951-67.385-44.224-73.044-59.489-10.462-28.224,28.954-36.208,40.375-72.2,8.566-27,18.194-56.975,73.027-38.588,46.439,15.571,59.294-49.123,101.415-34.266,0,0,104.53,34.855,63.477,65.739C-297.078-73.709-239.79-53.01-243.73-22.764s-41.4,43.877-45.17,72.826c-1.862,14.3-5.429,41.633-15.91,49.777-22.348,17.364-104.384,4.514-111.418,15.613A12.612,12.612,0,0,0-414.78,131.532Z" transform="translate(556.899 156.896)" fill="none"/>
    </clipPath>
    <clipPath id="clip-path-4">
      <path id="Smoke-3" data-name="Smoke" d="M-414.78,131.532c-18.273-5.676-19.779-21.386-19.034-27.106,2.38-18.272-62.623-22.053-48.292-54.544,10.124-22.951-67.385-44.224-73.044-59.489-10.462-28.224,28.954-36.208,40.375-72.2,8.566-27,18.194-56.975,73.027-38.588,46.439,15.571,59.294-49.123,101.415-34.266,0,0,104.53,34.855,63.477,65.739C-297.078-73.709-239.79-53.01-243.73-22.764s-41.4,43.877-45.17,72.826c-1.862,14.3-5.429,41.633-15.91,49.777-22.348,17.364-104.384,4.514-111.418,15.613A12.612,12.612,0,0,0-414.78,131.532Z" transform="translate(556.899 156.896)" fill="none" stroke="#707070" stroke-width="2"/>
    </clipPath>
  </defs>
  <g id="coffee_illustration" data-name="coffee illustration" transform="translate(-1159 -207.997)">
    <g id="Group_3075" data-name="Group 3075" transform="translate(80 7.999)">
      <g id="Group_3073" data-name="Group 3073" transform="translate(1079 201.001)">
        <path id="Shadow" d="M-198.849,644.415c0-17.005-67.409-30.791-150.562-30.791v61.581C-266.258,675.205-198.849,661.42-198.849,644.415Z" transform="translate(471.433 -158.164)" fill="#1d1c1a" opacity="0.15" style="mix-blend-mode: multiply;isolation: isolate"/>
        <path id="Path_6652" data-name="Path 6652" d="M-208.976,491.333a41.979,41.979,0,0,0,5.278,4.809,45.936,45.936,0,0,0,6.065,3.926,39.016,39.016,0,0,0,6.426,2.745,29.756,29.756,0,0,0,6.391,1.289,29.758,29.758,0,0,0,6.5-.24,31.05,31.05,0,0,0,12.619-4.915,38.981,38.981,0,0,0,5.635-4.5,48.592,48.592,0,0,0,4.949-5.624,62.654,62.654,0,0,0,4.144-6.535,69.427,69.427,0,0,0,3.336-7.215,77.6,77.6,0,0,0,4.345-15.775,103.855,103.855,0,0,0,1.5-16.766,103.858,103.858,0,0,0-1.5-16.767,77.606,77.606,0,0,0-4.345-15.775,69.481,69.481,0,0,0-3.336-7.215,62.655,62.655,0,0,0-4.144-6.535,48.6,48.6,0,0,0-4.949-5.624,38.984,38.984,0,0,0-5.635-4.5,31.05,31.05,0,0,0-12.619-4.915,29.721,29.721,0,0,0-6.5-.239,29.751,29.751,0,0,0-6.391,1.289,39.06,39.06,0,0,0-6.426,2.745,45.938,45.938,0,0,0-6.065,3.927,41.974,41.974,0,0,0-5.278,4.809,23.656,23.656,0,0,0-3.7,5.078l-22.642-16.684a61.157,61.157,0,0,1,8.637-8.215,76.973,76.973,0,0,1,9.151-6.2,74.717,74.717,0,0,1,9.833-4.831,64.094,64.094,0,0,1,10.667-3.34,52.509,52.509,0,0,1,11.549-1.325,52.273,52.273,0,0,1,11.556,1.348,52.125,52.125,0,0,1,10.8,3.81,57.012,57.012,0,0,1,9.541,5.889,59.515,59.515,0,0,1,8.062,7.392A73.184,73.184,0,0,1-139,385.086a81.9,81.9,0,0,1,5.105,9.088,88.249,88.249,0,0,1,3.792,9.485,120.069,120.069,0,0,1,5.558,38.869A120.068,120.068,0,0,1-130.1,481.4a88.247,88.247,0,0,1-3.792,9.485A81.893,81.893,0,0,1-139,499.97a73.2,73.2,0,0,1-6.518,8.444,59.513,59.513,0,0,1-8.062,7.392,57.013,57.013,0,0,1-9.541,5.889,52.124,52.124,0,0,1-10.8,3.81,52.27,52.27,0,0,1-11.556,1.349,52.507,52.507,0,0,1-11.549-1.325,64.087,64.087,0,0,1-10.667-3.34,74.778,74.778,0,0,1-9.833-4.832,76.823,76.823,0,0,1-9.151-6.2,61.16,61.16,0,0,1-8.637-8.215l22.642-16.684A23.654,23.654,0,0,0-208.976,491.333Z" transform="translate(424.437 -52.954)" fill="#d6432b"/>
        <path id="Path_6653" data-name="Path 6653" d="M-322.068,333.552V528.037c0,17.566-40.842,31.8-91.215,31.8-49.811,0-90.295-13.918-91.192-31.211,15.408,4.158,34.738,6.628,55.717,6.628,50.374,0,91.215-14.245,91.215-31.811v-169.9Z" transform="translate(535.305 -42.8)" fill="#e24f2d"/>
        <path id="Path_6654" data-name="Path 6654" d="M-356.411,333.552l-.19,188.011c0,17.566-40.1,22.93-83.432,22.93s-64.459-15.864-64.459-15.864-.022-.4-.022-.593V333.552Z" transform="translate(535.321 -42.8)" fill="#f95b30"/>
        <g id="Group_3059" data-name="Group 3059" transform="translate(30.804 290.752)">
          <g id="Group_3058" data-name="Group 3058" transform="translate(0)" clip-path="url(#clip-path)">
            <g id="Group_3057" data-name="Group 3057" transform="translate(-405.96 -113.581)">
              <path id="Path_6655" data-name="Path 6655" d="M-1037.568,153.148c-6.347,64.609,1.147,129.65,4.88,194.463a1678.028,1678.028,0,0,1-4.87,256.41,5.431,5.431,0,0,0,5.527-3.106" transform="translate(1131.061 -145.66)" fill="none" stroke="#fffdee" stroke-miterlimit="10" stroke-width="0.5"/>
              <path id="Path_6656" data-name="Path 6656" d="M-980.45,155.2q6,226.365,30.547,451.731c.168,1.541,2.816,1.867,3.352.413s-1.688-2.926-2.816-1.864" transform="translate(1106.52 -146.504)" fill="none" stroke="#fffdee" stroke-miterlimit="10" stroke-width="0.5"/>
              <path id="Path_6657" data-name="Path 6657" d="M-903.379,151.1c-6.1,50.215-2.723,101.036.248,151.533q8.708,148.027,12.681,296.281c.047,1.765.505,4.03,2.249,4.3s1.122-3.574-.02-2.228" transform="translate(1076.176 -144.816)" fill="none" stroke="#fffdee" stroke-miterlimit="10" stroke-width="0.5"/>
              <path id="Path_6658" data-name="Path 6658" d="M-846.593,155.6c3.728,30.411,7.461,60.889,8.013,91.522.606,33.614-2.621,67.185-2.845,100.8-.189,28.448,1.772,56.867,4.169,85.214q7.1,84.025,19.313,167.515" transform="translate(1051.383 -146.669)" fill="none" stroke="#fffdee" stroke-miterlimit="10" stroke-width="0.5"/>
              <path id="Path_6659" data-name="Path 6659" d="M-774.529,152.766c-14.316,61.538-3.983,125.7-1.566,188.833,1.382,36.114.159,72.5,6.059,108.158,7.583,45.826,26.88,91.558,17.987,137.148" transform="translate(1024.761 -145.503)" fill="none" stroke="#fffdee" stroke-miterlimit="10" stroke-width="0.5"/>
              <path id="Path_6660" data-name="Path 6660" d="M-718.128,150.913c23.592,103.025,1.049,210.868,10.045,316.176,3.775,44.186,13.09,87.686,22.383,131.048" transform="translate(998.467 -144.74)" fill="none" stroke="#fffdee" stroke-miterlimit="10" stroke-width="0.5"/>
              <path id="Path_6661" data-name="Path 6661" d="M-628.971,156.046l1.3,186.1c.275,39.387.557,78.9,5.824,117.935,5.93,43.946,18.181,87.58,15.4,131.836-.1,1.575-.14,3.366.984,4.474s3.677.283,3.262-1.239" transform="translate(961.742 -146.854)" fill="none" stroke="#fffdee" stroke-miterlimit="10" stroke-width="0.5"/>
              <path id="Path_6662" data-name="Path 6662" d="M-560.91,151.233c-3.028,25.862,4.744,51.578,9.578,77.165,14.194,75.127,3.145,152.388,2.019,228.837-.714,48.464,2.589,96.931,8.291,145.064" transform="translate(933.987 -144.872)" fill="none" stroke="#fffdee" stroke-miterlimit="10" stroke-width="0.5"/>
              <path id="Path_6663" data-name="Path 6663" d="M-493.094,163.44l11.438,126.62c4.185,46.339,8.371,93,3.857,139.311-2.957,30.331-9.6,61.262-2.421,90.879,2.612,10.78,7,21.04,10.268,31.639a203.679,203.679,0,0,1,7.492,37.8c.145,1.318.406,2.836,1.562,3.486s2.97-.907,2.028-1.84" transform="translate(905.773 -149.9)" fill="none" stroke="#fffdee" stroke-miterlimit="10" stroke-width="0.5"/>
              <path id="Path_6664" data-name="Path 6664" d="M-419.867,145.284q5.517,232.568,15.205,465.013" transform="translate(875.61 -142.421)" fill="none" stroke="#fffdee" stroke-miterlimit="10" stroke-width="0.5"/>
              <path id="Path_6665" data-name="Path 6665" d="M-363.122,150.532c6.666,148.181-1.468,297.222,16.121,444.506" transform="translate(852.237 -144.583)" fill="none" stroke="#fffdee" stroke-miterlimit="10" stroke-width="0.5"/>
              <path id="Path_6666" data-name="Path 6666" d="M-310.868,140.416a1633.385,1633.385,0,0,1,15.206,301.609,290.951,290.951,0,0,0,35.277,151.12c.884,1.616-2.236-.427-1.265-1.992" transform="translate(830.713 -140.416)" fill="none" stroke="#fffdee" stroke-miterlimit="10" stroke-width="0.5"/>
              <path id="Path_6667" data-name="Path 6667" d="M-232.35,145.24c1.024,70.627,2.06,141.436,11.067,211.494,6.256,48.66,16.333,96.762,22.853,145.387q6.171,46.026,8.07,92.492c.628,15.39.884,30.978-2.508,46" transform="translate(798.37 -142.403)" fill="none" stroke="#fffdee" stroke-miterlimit="10" stroke-width="0.5"/>
              <path id="Path_6668" data-name="Path 6668" d="M-181.138,148.96c-.155,15.7,2.212,31.309,4.505,46.846,21.374,144.821,36.834,290.606,42.753,436.876" transform="translate(777.279 -143.935)" fill="none" stroke="#fffdee" stroke-miterlimit="10" stroke-width="0.5"/>
              <path id="Path_6669" data-name="Path 6669" d="M-100.367,147.05c-7.494,155.429,18.942,310.8,14.988,466.355" transform="translate(744.56 -143.149)" fill="none" stroke="#fffdee" stroke-miterlimit="10" stroke-width="0.5"/>
              <path id="Path_6670" data-name="Path 6670" d="M-1108.68,246.984c153.448,18.054,308.59,7.774,463.042,3.684,20.37-.539,40.818-.967,61.062,1.357,33.389,3.833,65.676,15.092,99.179,17.752" transform="translate(1159.339 -184.312)" fill="none" stroke="#fffdee" stroke-miterlimit="10" stroke-width="0.5"/>
              <path id="Path_6671" data-name="Path 6671" d="M-1120.815,324.393c105.122-2.618,210.41-5.233,315.348,1.513,110.206,7.085,219.78,24.48,330.206,25.764" transform="translate(1164.337 -215.058)" fill="none" stroke="#fffdee" stroke-miterlimit="10" stroke-width="0.5"/>
              <path id="Path_6672" data-name="Path 6672" d="M-1118.944,433.8c53.9-2.945,107.84-5.891,161.813-5.266,138.106,1.6,275.7,26.562,413.633,19.532,22.562-1.15,46.336-3.6,64.64-16.842" transform="translate(1163.566 -259.059)" fill="none" stroke="#fffdee" stroke-miterlimit="10" stroke-width="0.5"/>
              <path id="Path_6673" data-name="Path 6673" d="M-1059.377,499.7l198.219,9.5c53.21,2.55,106.507,5.1,159.731,2.838,27.861-1.185,55.673-3.688,83.559-3.973,57.963-.594,115.755,8.4,173.7,6.9" transform="translate(1139.03 -288.409)" fill="none" stroke="#fffdee" stroke-miterlimit="10" stroke-width="0.5"/>
              <path id="Path_6674" data-name="Path 6674" d="M-1121.855,570.8c73.71,22.229,152.3,22.028,229.053,15.976s153.2-17.764,230.185-17.9c75.45-.13,150.427,10.863,225.075,21.832" transform="translate(1164.766 -316.903)" fill="none" stroke="#fffdee" stroke-miterlimit="10" stroke-width="0.5"/>
              <path id="Path_6675" data-name="Path 6675" d="M-1129.21,671.513c125.927,24.374,255.471,1.745,383.589-4.388a1485.912,1485.912,0,0,1,313.335,18.22" transform="translate(1167.795 -356.675)" fill="none" stroke="#fffdee" stroke-miterlimit="10" stroke-width="0.5"/>
              <path id="Path_6676" data-name="Path 6676" d="M-1194.821,779.686c56.43,18.5,117.574,10.29,176.766,5.505,77.573-6.273,155.5-6.3,233.327-6.324l146.346-.045C-577.5,778.8-515.3,779-457.754,798.874" transform="translate(1194.821 -403.381)" fill="none" stroke="#fffdee" stroke-miterlimit="10" stroke-width="0.5"/>
            </g>
          </g>
          <path id="Path_6678" data-name="Path 6678" d="M-356.415,333.552h-148.1V528.037c0,.2.023.593.023.593.9,17.293,41.381,31.211,91.192,31.211,50.374,0,91.215-14.238,91.215-31.8V333.552Z" transform="translate(504.519 -333.552)" fill="none" stroke="#fffdee" stroke-miterlimit="10" stroke-width="0.5"/>
        </g>
        <ellipse id="Ellipse_23" data-name="Ellipse 23" cx="91.215" cy="18.76" rx="91.215" ry="18.76" transform="translate(30.804 271.99)" fill="#fffdee" stroke="#ccc" stroke-miterlimit="10" stroke-width="1"/>
        <g id="Group_3060" data-name="Group 3060" transform="translate(42.728 286.487)">
          <path id="Path_6679" data-name="Path 6679" d="M-484.243,335.786c2.47,1.4,11.7,5.944,36.79,8.574.145-9.053,24.332-16.54,55.862-17.856-4.355-.136-8.825-.205-13.363-.205C-438.925,326.3-468.546,330.116-484.243,335.786Z" transform="translate(484.243 -326.3)" fill="#16255b"/>
        </g>
        <path id="Path_6680" data-name="Path 6680" d="M-443.877,343.258c10.915,1.14,37.884,3.17,55.55,3.17,58.279,0,75.738-8.49,79.288-10.5-13.6-4.911-37.649-8.43-65.926-9.281C-406.494,327.965-443.733,334.2-443.877,343.258Z" transform="translate(510.344 -39.956)" fill="#1c2f82"/>
        <path id="Path_6681" data-name="Path 6681" d="M-504.514,320.412c0,2.569,2.508,5.016,7.054,7.251,13.773,6.758,46.267,11.508,84.159,11.508s70.385-4.751,84.158-11.508c4.546-2.235,7.054-4.682,7.054-7.251,0-10.36-40.832-18.76-91.212-18.76S-504.514,310.052-504.514,320.412Zm6.427,0c0-11.394,60.665-15.719,84.786-15.72s84.786,4.325,84.786,15.72c0,10.38-60.665,14.959-84.786,14.959S-498.087,330.792-498.087,320.412Z" transform="translate(535.321 -29.66)" fill="#f0e8c4"/>
        <path id="Path_6682" data-name="Path 6682" d="M-79.29,318.648" transform="translate(360.167 -36.661)" fill="#fff" stroke="#1d1c1a" stroke-miterlimit="10" stroke-width="1"/>
        <g id="Group_3063" data-name="Group 3063" transform="translate(0.108 2.325)">
          <g id="Group_3062" data-name="Group 3062" clip-path="url(#clip-path-2)">
            <g id="Group_3061" data-name="Group 3061" transform="translate(-230.747 -170.535)">
              <rect id="Rectangle_5837" data-name="Rectangle 5837" width="533.748" height="448.675" transform="translate(19.229 23.696)" fill="#1c2f82"/>
              <path id="Path_6683" data-name="Path 6683" d="M-850.457-446.877s-59.824,145.285,0,226.862S-758.966-78.695-838.8-46.76c-42.731,17.092-12.43,80.8-12.43,80.8" transform="translate(919.409 446.877)" fill="none" stroke="#3070b7" stroke-miterlimit="10" stroke-width="1"/>
              <path id="Path_6684" data-name="Path 6684" d="M-720.919-446.877s-22.531,51.277-8.547,99.447c0,0,50.012,114.92,36.331,148.587C-724.154-122.51-634.681-1.7-654.1,34.04" transform="translate(860.505 446.877)" fill="none" stroke="#3070b7" stroke-miterlimit="10" stroke-width="1"/>
              <path id="Path_6685" data-name="Path 6685" d="M-208.571-433.336s-90.318,22.143-52.442,121.2,71.088,165.485,33.8,196.368,18.646,179.69,31.465,188.612" transform="translate(669.482 441.299)" fill="none" stroke="#3070b7" stroke-miterlimit="10" stroke-width="1"/>
              <path id="Path_6686" data-name="Path 6686" d="M-556.715-441.262s26.221,175.391,155,202.777,181.8,112.46,181.8,131.689" transform="translate(787.462 444.564)" fill="none" stroke="#3070b7" stroke-miterlimit="10" stroke-width="1"/>
              <path id="Path_6687" data-name="Path 6687" d="M-605.266-413.519s36.71,48.946,14.568,80.411-15.041,65.262-3.733,79.829,236.811,282.8,101.626,301.059" transform="translate(807.461 433.137)" fill="none" stroke="#3070b7" stroke-miterlimit="10" stroke-width="1"/>
              <path id="Path_6688" data-name="Path 6688" d="M-949.082,13.149S-732.99-117.375-669.141-96.98-513.226,68.505-445.634,60.93s155-32.631,155-32.631" transform="translate(949.082 303.642)" fill="none" stroke="#3070b7" stroke-miterlimit="10" stroke-width="1"/>
              <path id="Path_6689" data-name="Path 6689" d="M-75.477-427.391s-40.206,94.4,50.112,159.076" transform="translate(592.91 438.851)" fill="none" stroke="#3070b7" stroke-miterlimit="10" stroke-width="1"/>
              <path id="Path_6690" data-name="Path 6690" d="M-606.457-433.336S-442.721,144.7-949.082-23.119" transform="translate(949.082 441.299)" fill="none" stroke="#3070b7" stroke-miterlimit="10" stroke-width="1"/>
            </g>
          </g>
        </g>
        <path id="Path_6691" data-name="Path 6691" d="M-375.533-47.771l72.144-1.062c1.377.012,2.89.075,3.9,1.005a5.564,5.564,0,0,1,1.361,2.929,127.012,127.012,0,0,1,2.538,44,5.707,5.707,0,0,1-.97,3.02c-1.077,1.314-3.012,1.424-4.711,1.426q-33.939.04-67.869-.967c-2.348-.07-4.947-.248-6.589-1.928-1.66-1.7-1.76-4.337-1.758-6.713,0,0-7.5-37.645.026-41.311s19.808,17.672,30.083,26.647q4.434,3.873,8.907,7.7a2.722,2.722,0,0,0,1.2.714,2.559,2.559,0,0,0,1.56-.368c5.115-2.528,8.921-7.022,12.793-11.213a173.243,173.243,0,0,1,24.173-21.681" transform="translate(482.996 114.928)" fill="none" stroke="#fffdee" stroke-linecap="round" stroke-miterlimit="10" stroke-width="2"/>
        <g id="Group_3064" data-name="Group 3064" transform="translate(90.843 174.184)">
          <path id="Path_6692" data-name="Path 6692" d="M-378.3,176.373c-5.431-9.285-10.479-19.484-9.852-30.222.136-2.329.61-4.788,2.208-6.488a10.17,10.17,0,0,1,3.273-2.136,20.7,20.7,0,0,1,11.2-2.051,12.241,12.241,0,0,1,9.294,6.074,13.354,13.354,0,0,1,1.346,5.623,20.156,20.156,0,0,1-2.533,10.592c-3.891,6.956-12.029,11.189-14.939,18.609" transform="translate(396.57 -135.338)" fill="none" stroke="#fffdee" stroke-linecap="round" stroke-miterlimit="10" stroke-width="2"/>
          <path id="Path_6693" data-name="Path 6693" d="M-376.523,155.921a5.142,5.142,0,0,1,1.787-5.264,7.479,7.479,0,0,1,5.547-1.462,3.15,3.15,0,0,1,2.332,1.462,4.713,4.713,0,0,1,.419,1.646,11.906,11.906,0,0,1,0,2.67,5.282,5.282,0,0,1-1.574,3.695,5.133,5.133,0,0,1-3.328.877,7.365,7.365,0,0,1-2.162-.3c-1.789-.573-2.382-1.525-3.021-3.327" transform="translate(392.885 -141.024)" fill="none" stroke="#fffdee" stroke-linecap="round" stroke-miterlimit="10" stroke-width="2"/>
          <path id="Path_6694" data-name="Path 6694" d="M-387.058,196.291c-4.5-.369-10.233-1.182-13.942,1.4-.971.675-1.878,1.985-1.184,2.943a2.508,2.508,0,0,0,1.192.751,104.5,104.5,0,0,0,19.874,5.49,30.647,30.647,0,0,0,10.786.378,5.822,5.822,0,0,0,3.11-1.373,2.534,2.534,0,0,0,.485-3.135,3.7,3.7,0,0,0-1.575-1.087,54.949,54.949,0,0,0-13.643-4.118" transform="translate(402.429 -160.185)" fill="none" stroke="#fffdee" stroke-linecap="round" stroke-miterlimit="10" stroke-width="2"/>
        </g>
        <path id="Path_6695" data-name="Path 6695" d="M-290.29,256.817c.823-7.092,1.856-16.809,2.679-23.9.5-4.315,1.117-8.907,3.93-12.218,2.529-2.976,6.5-4.419,10.4-4.7s7.783.467,11.617,1.213l24.977,4.862c4.911.956,10.272,2.181,13.3,6.166,2.077,2.735,2.654,6.3,2.959,9.723.392,4.4.291,9.283-2.591,12.636a12.931,12.931,0,0,1-6.772,3.809c-9.128,2.285-18.494-1.634-27.723-3.467-10.868-2.159-22.3,2.248-32.768,5.878" transform="translate(447.08 5.648)" fill="none" stroke="#fffdee" stroke-linecap="round" stroke-miterlimit="10" stroke-width="2"/>
        <g id="Group_3067" data-name="Group 3067" transform="translate(0 2.325)">
          <g id="Group_3066" data-name="Group 3066" clip-path="url(#clip-path-3)">
            <g id="Group_3065" data-name="Group 3065" transform="translate(195.679 120.223)">
              <path id="Path_6696" data-name="Path 6696" d="M-224.163,73.085c30.92-4.579,61.927-31.5,89.8-24.07s21.681,53.806,21.681,53.806a4.125,4.125,0,0,1,.339,2.87c-.424,1.1-1.666,1.6-2.78,1.99l-67.1,23.232c-4.617,1.6-9.582,3.214-14.3,1.928a17,17,0,0,1-7.236-4.468c-6.889-6.744-9.716-16.5-12.278-25.793l-8.132-29.494" transform="translate(224.163 -47.534)" fill="none" stroke="#fffdee" stroke-linecap="round" stroke-miterlimit="10" stroke-width="2"/>
              <path id="Path_6697" data-name="Path 6697" d="M-215.6,99.775c9.195-5.057,21.248-6.435,31.606-8.118C-165,88.57-146.884,81.63-128.923,74.733" transform="translate(220.348 -58.738)" fill="none" stroke="#fffdee" stroke-linecap="round" stroke-miterlimit="10" stroke-width="2"/>
              <path id="Path_6698" data-name="Path 6698" d="M-205.826,97.72" transform="translate(216.61 -68.206)" fill="none" stroke="#fffdee" stroke-miterlimit="10" stroke-width="1"/>
              <path id="Path_6699" data-name="Path 6699" d="M-189.948,93.75" transform="translate(210.07 -66.571)" fill="none" stroke="#fffdee" stroke-miterlimit="10" stroke-width="1"/>
              <path id="Path_6700" data-name="Path 6700" d="M-171.425,89.781" transform="translate(202.44 -64.936)" fill="none" stroke="#fffdee" stroke-miterlimit="10" stroke-width="1"/>
            </g>
          </g>
        </g>
        <g id="Group_3069" data-name="Group 3069" transform="translate(192.341 0)">
          <g id="Group_3074" data-name="Group 3074" transform="translate(0 0)">
            <path id="Path_6701" data-name="Path 6701" d="M-240.05-140.043a20.678,20.678,0,0,1,3.674-15.9c2.059-2.775,5.2-5.134,8.645-4.891,3.464.243,6.173,2.962,8.536,5.507,1.961,2.112,3.97,4.3,4.954,7.011s.686,6.1-1.481,8c-.791.693-1.78,1.151-2.5,1.919a5.531,5.531,0,0,0-.646,5.856,16.253,16.253,0,0,0,3.794,4.9l11.27,11.224c1.494,1.487,3.07,3.026,5.083,3.653,5.965,1.857,12.231-5.041,18.08-2.845a12.682,12.682,0,0,1,4.242,3.165l5.35,5.31a11.884,11.884,0,0,1,2.912,3.8c1.81,4.519-2.465,9.3-6.991,11.094-5.867,2.321-12.547,1.937-18.555.009s-11.442-5.3-16.617-8.908a96.467,96.467,0,0,1-12.158-9.777,66.006,66.006,0,0,1-17.591-29.128" transform="translate(240.383 160.848)" fill="none" stroke="#fffdee" stroke-miterlimit="10" stroke-width="2"/>
          </g>
        </g>
        <g id="Group_3072" data-name="Group 3072" transform="translate(0 2.325)">
          <g id="Group_3071" data-name="Group 3071" clip-path="url(#clip-path-4)">
            <g id="Group_3070" data-name="Group 3070" transform="translate(19.593 76.638)">
              <path id="Path_6702" data-name="Path 6702" d="M-523.583-22.166c3.745-3.253,9.27-4.314,14.426-4.37q14.738-.16,29.474.279a9.623,9.623,0,0,1,4.282.793c2.7,1.452,2.978,4.865,2.942,7.733q-.527,42.625-1.053,85.25a7.911,7.911,0,0,1-.807,4.125c-1.638,2.676-5.657,2.923-9,2.839l-35.423-.886a4.717,4.717,0,0,1-2.822-.673c-.934-.739-1.017-2.017-1.029-3.148q-.495-45.971-.989-91.943" transform="translate(523.583 26.578)" fill="none" stroke="#fffdee" stroke-miterlimit="10" stroke-width="2"/>
              <path id="Path_6703" data-name="Path 6703" d="M-490.133-17.182a54.414,54.414,0,0,0,11.636.936" transform="translate(509.805 22.708)" fill="none" stroke="#fffdee" stroke-linecap="round" stroke-miterlimit="10" stroke-width="2"/>
              <path id="Path_6704" data-name="Path 6704" d="M-515.306-5.011c9.515.012,23.445.025,32.96.036,1.664,0,3.539.095,4.648,1.334.93,1.04,1.013,2.563,1.045,3.958q.761,33.1-.427,66.21c-.048,1.343-.161,2.83-1.132,3.758a5.207,5.207,0,0,1-3.239,1.056,151.638,151.638,0,0,1-27.327-.095,5.278,5.278,0,0,1-2.855-.849,5.057,5.057,0,0,1-1.451-3.551c-.867-7.979-2.085-24.657-2.085-24.657s-1.515-31.369-.137-47.2" transform="translate(520.334 17.695)" fill="none" stroke="#fffdee" stroke-miterlimit="10" stroke-width="2"/>
            </g>
          </g>
        </g>
      </g>
      <circle id="Ellipse_24" data-name="Ellipse 24" cx="2" cy="2" r="2" transform="translate(1280.058 352.001)" fill="#fffdee"/>
      <ellipse id="Ellipse_25" data-name="Ellipse 25" cx="2" cy="1.5" rx="2" ry="1.5" transform="translate(1287.058 351.001)" fill="#fffdee"/>
      <circle id="Ellipse_26" data-name="Ellipse 26" cx="2" cy="2" r="2" transform="translate(1294.058 349.001)" fill="#fffdee"/>
    </g>
  </g>
</svg>
