<svg xmlns="http://www.w3.org/2000/svg" width="21" height="17" viewBox="0 0 21 17"><g><g><g><path fill="#fff" d="M6.94 16.915c7.825 0 12.083-6.444 12.083-12.083v-.575c.805-.576 1.496-1.381 2.071-2.187a9.553 9.553 0 0 1-2.417.69c.921-.575 1.496-1.38 1.842-2.301-.806.46-1.726.806-2.647 1.036-.806-.92-1.956-1.381-3.107-1.381-2.302 0-4.258 1.956-4.258 4.258 0 .345 0 .69.115.92-3.567-.23-6.674-1.841-8.746-4.488-.345.576-.575 1.381-.575 2.187 0 1.496.805 2.762 1.841 3.567-.69 0-1.38-.23-1.956-.575a4.206 4.206 0 0 0 3.452 4.143c-.345.115-.69.115-1.15.115-.23 0-.576 0-.806-.115.575 1.726 2.071 2.876 4.027 2.992-1.496 1.15-3.337 1.84-5.293 1.84-.345 0-.69 0-1.036-.114 1.841 1.38 4.143 2.071 6.56 2.071"/></g></g></g></svg>