<svg xmlns="http://www.w3.org/2000/svg" width="87" height="63" viewBox="0 0 87 63"><defs><clipPath id="6taha"><path d="M0 62.572V0h86.398v62.572z"/></clipPath></defs><g><g><g><g><g/><g clip-path="url(#6taha)"><g><path fill="#e0c8c6" d="M71.434 15.86c-1.86 3.05-7.573 6.695-10.103 9.122-2.23 2.14-4.986 4.64-6.863 7.063-1.977 2.553-8.064 6.239-10.633 8.285-2.2 1.75-4.183 6.717-6.329 5.766-7.13-3.176-12.397-9.967-15.688-13.422-4.975-5.22-10.92-10.997-16.307-15.813-4.172-3.73-6.737.437-2.55 4.18 6.604 5.904 11.328 12.666 16.95 19.482 4.2 5.091 10.125 12.258 17.889 10.713 7.409-1.472 14.876-7.212 19.457-12.756 2.591-3.133 4.821-6.585 7.779-9.424 3.109-2.984 7.21-4.646 8.512-8.801 1.374-4.395.768-9.13-2.115-4.395"/></g><g><path fill="#9b6a70" d="M72.623 60.718v.084h-.083zm-70.852 0l.083.084h-.083zM25.684 38.08l10.903 10.072a.885.885 0 0 0 1.22 0L48.712 38.08l22.722 22.722H2.962zm46.94-22.143v43.509L50.037 36.86zm-70.853 0L24.357 36.86 1.77 59.447zm1.328-1.19h68.196L37.197 46.295zm-1.328-1.77A1.787 1.787 0 0 0 0 14.746v46.055a1.788 1.788 0 0 0 1.771 1.771h70.852a1.788 1.788 0 0 0 1.772-1.771V14.747a1.787 1.787 0 0 0-1.772-1.77z"/></g><g><path fill="#e0c8c6" d="M72.42.857a19.454 19.454 0 0 0-2.138 5.449c-.342 1.514 1.986 2.16 2.33.645a17.274 17.274 0 0 1 1.893-4.876A1.208 1.208 0 0 0 72.419.857"/></g><g><path fill="#e0c8c6" d="M64.143 6.416A21.912 21.912 0 0 0 61.006.513c-.926-1.23-3.023-.023-2.089 1.22a19.895 19.895 0 0 1 2.896 5.324c.517 1.455 2.85.828 2.33-.645"/></g><g><path fill="#e0c8c6" d="M85.249 11.572c-2.47.302-4.922.716-7.351 1.26-1.517.342-.875 2.67.646 2.33a67.893 67.893 0 0 1 6.708-1.174c1.524-.187 1.542-2.606 0-2.416"/></g><g><path fill="#e0c8c6" d="M81.415 16.646c-.99-.09-1.984-.128-2.978-.114-1.554.02-1.557 2.438 0 2.416.994-.014 1.988.023 2.978.114a1.219 1.219 0 0 0 1.207-1.208 1.233 1.233 0 0 0-1.207-1.208"/></g></g></g></g></g></g></svg>