<svg xmlns="http://www.w3.org/2000/svg" width="59" height="72" viewBox="0 0 59 72"><defs><clipPath id="8pt3a"><path d="M0 71.899V0h58.95v71.898z"/></clipPath></defs><g><g><g><g><g/><g clip-path="url(#8pt3a)"><g><path fill="#e0c8c6" d="M29.016 63.377a126.544 126.544 0 0 0-3.336-4.762c-.913-1.236-1.821-2.35-3.467-2.481-1.694-.132-3.4.631-5.058.89a23.17 23.17 0 0 1-6.129.08.971.971 0 0 0-1.012.465 8.547 8.547 0 0 1-.584-.167c-1.5-.498-2.142 1.866-.651 2.364 1.651.552 3.36.498 5.07.683 1.596.208 3.161.608 4.662 1.19 3.068 1.117 5.976 2.624 9.12 3.54a1.238 1.238 0 0 0 1.383-1.801"/></g><g><path fill="#9b6a70" d="M28.425 11.887c5.738 0 10.388 4.65 10.388 10.387s-4.65 10.388-10.388 10.388c-5.736 0-10.387-4.651-10.387-10.388.008-5.734 4.655-10.38 10.387-10.387m0 22.276c6.565 0 11.887-5.32 11.887-11.886.002-6.564-5.32-11.885-11.885-11.887-6.564 0-11.886 5.322-11.887 11.886v.001c.008 6.561 5.324 11.877 11.885 11.886"/><path fill="none" stroke="#9b6a70" stroke-miterlimit="50" stroke-width=".5" d="M28.425 11.887c5.738 0 10.388 4.65 10.388 10.387s-4.65 10.388-10.388 10.388c-5.736 0-10.387-4.651-10.387-10.388.008-5.734 4.655-10.38 10.387-10.387m0 22.276c6.565 0 11.887-5.32 11.887-11.886.002-6.564-5.32-11.885-11.885-11.887-6.564 0-11.886 5.322-11.887 11.886v.001c.008 6.561 5.324 11.877 11.885 11.886"/></g><g><path fill="#9b6a70" d="M22.644 56.534a241.88 241.88 0 0 0 4.277 6.181c.431.607.741 1.044.84 1.204l.583.777.58-.777c.226-.299 2.332-3.212 5.12-7.385 13.069.732 21.147 4.09 21.147 6.82a2.193 2.193 0 0 1-.734 1.584c-2.992 3.118-13.94 5.382-26.03 5.382-15.87 0-26.933-3.68-26.933-6.982 0-2.71 8.078-6.067 21.147-6.804m5.784-55.04c11.472.014 20.77 9.311 20.781 20.783 0 9.486-14.403 30.909-20.78 39.927-6.414-9.085-20.779-30.487-20.779-39.927.01-11.472 9.308-20.769 20.778-20.782m6.733 53.66C41.148 46.148 50.7 30.498 50.7 22.276 50.701 9.974 40.728.001 28.427.001 16.124.001 6.15 9.974 6.15 22.277c0 7.678 8.363 21.992 15.549 32.882C8.49 56.097 0 59.319 0 63.42 0 68.255 12.22 71.9 28.424 71.9c16.206 0 28.428-3.68 28.428-8.56 0-4.074-8.686-7.336-21.695-8.183"/><path fill="none" stroke="#9b6a70" stroke-miterlimit="50" stroke-width=".5" d="M22.644 56.534a241.88 241.88 0 0 0 4.277 6.181c.431.607.741 1.044.84 1.204l.583.777.58-.777c.226-.299 2.332-3.212 5.12-7.385 13.069.732 21.147 4.09 21.147 6.82a2.193 2.193 0 0 1-.734 1.584c-2.992 3.118-13.94 5.382-26.03 5.382-15.87 0-26.933-3.68-26.933-6.982 0-2.71 8.078-6.067 21.147-6.804m5.784-55.04c11.472.014 20.77 9.311 20.781 20.783 0 9.486-14.403 30.909-20.78 39.927-6.414-9.085-20.779-30.487-20.779-39.927.01-11.472 9.308-20.769 20.778-20.782m6.733 53.66C41.148 46.148 50.7 30.498 50.7 22.276 50.701 9.974 40.728.001 28.427.001 16.124.001 6.15 9.974 6.15 22.277c0 7.678 8.363 21.992 15.549 32.882C8.49 56.097 0 59.319 0 63.42 0 68.255 12.22 71.9 28.424 71.9c16.206 0 28.428-3.68 28.428-8.56 0-4.074-8.686-7.336-21.695-8.183"/></g><g><path fill="#e0c8c6" d="M47.81 47.59a32.934 32.934 0 0 1-5.188 2.386c-.978.348-.556 1.92.431 1.564a35.137 35.137 0 0 0 5.576-2.55.813.813 0 1 0-.82-1.403"/></g><g><path fill="#e0c8c6" d="M58.167 52.655c-3.838-.221-7.68-.345-11.525-.37a.813.813 0 0 0 0 1.625c3.844.026 7.687.148 11.525.371 1.046.06 1.042-1.566 0-1.626"/></g></g></g></g></g></g></svg>