<svg xmlns="http://www.w3.org/2000/svg" width="22" height="21" viewBox="0 0 22 21"><g><g><g><path fill="#fff" d="M16.365 3.78c.69 0 1.266.575 1.266 1.265s-.575 1.266-1.266 1.266c-.69 0-1.266-.575-1.266-1.266 0-.69.576-1.266 1.266-1.266m-5.524 10.242c1.957 0 3.453-1.496 3.453-3.452s-1.496-3.452-3.453-3.452c-1.956 0-3.452 1.496-3.452 3.452s1.496 3.452 3.452 3.452m0-8.746a5.28 5.28 0 0 1 5.294 5.294 5.28 5.28 0 0 1-5.294 5.293 5.28 5.28 0 0 1-5.293-5.293c0-2.992 2.301-5.294 5.293-5.294m0-5.063c2.762 0 3.223 0 4.258.115 1.151 0 1.841.23 2.532.46.69.23 1.266.576 1.841 1.151.576.575.92 1.15 1.151 1.841.23.69.46 1.381.46 2.532.115 1.036.115 1.496.115 4.258s-.115 3.107-.115 4.258c0 1.15-.23 1.841-.46 2.531a4.505 4.505 0 0 1-1.15 1.842c-.576.575-1.152.92-1.842 1.15-.69.23-1.381.46-2.532.46-1.035.116-1.496.116-4.258.116s-3.222 0-4.258-.115c-1.15 0-1.84-.23-2.531-.46A4.505 4.505 0 0 1 2.21 19.2a4.505 4.505 0 0 1-1.151-1.842c-.23-.69-.46-1.38-.46-2.531C.483 13.79.483 13.33.483 10.569s0-3.222.115-4.258c0-1.15.116-1.841.46-2.532.23-.69.576-1.266 1.152-1.84A4.505 4.505 0 0 1 4.05.786c.691-.23 1.382-.46 2.532-.46C7.62.212 8.08.212 10.841.212m0 1.841c-2.762 0-3.107 0-4.142.115-1.036 0-1.612.23-1.957.345-.46.116-.805.346-1.15.806-.346.345-.576.69-.806 1.15-.115.346-.345.921-.345 1.957-.115 1.036-.115 1.381-.115 4.143 0 2.762.115 3.107.115 4.143 0 1.035.23 1.61.345 1.956.23.46.46.806.805 1.15.346.346.69.576 1.151.806.345.115.92.346 1.957.346 1.035.115 1.38.115 4.142.115 2.762 0 3.107-.115 4.143-.115 1.036 0 1.611-.23 1.956-.346.46-.23.806-.46 1.151-.805.345-.345.576-.69.806-1.151.115-.345.345-.92.345-1.956.115-1.036.115-1.381.115-4.143 0-2.762-.115-3.107-.115-4.143 0-1.036-.23-1.611-.345-1.956-.23-.46-.46-.806-.806-1.151-.345-.345-.69-.575-1.15-.806-.346-.115-.921-.345-1.957-.345-1.036-.115-1.38-.115-4.143-.115"/></g></g></g></svg>