<svg xmlns="http://www.w3.org/2000/svg" width="89" height="55" viewBox="0 0 89 55"><g><g><g><path fill="#e0c8c6" d="M27.68 51.776c11.31 3.747 31.41 2.794 44.05-.798 12.642-3.592 17.828-9.824 16.22-19.434-1.607-9.61-10.008-22.6-21.883-27.776C54.192-1.408 38.842 1.232 29.14 7.095c-9.702 5.863-13.757 14.952-14.524 23.72-.767 8.767 1.754 17.214 13.064 20.961z"/></g><g><g><path fill="none" stroke="#9b6a70" stroke-linecap="round" stroke-miterlimit="50" stroke-width="1.5" d="M36.295 23.632v0s1.69-5.67 7.886-6.034c0 0 .912-.194.889.63-.023.825-.89 6.784-7.808 7.27l-.026.871v0s7.456.63 7.834 7.22c0 0 .026.97-.89.873-.914-.097-4.667.314-7.885-5.768v14.733s.025.63-.753.58c-.778-.048-24.922 0-24.922 0v0s-.752.12-.67-.777c.082-.896-.006-14.489-.006-14.489v0s-2.008 5.55-7.75 5.72c0 0-.99.107-1.03-.802-.041-.908.805-6.56 7.807-7.268l.02-.889v0s-7.262-.323-7.828-7.286c0 0-.06-.73.806-.637.866.092 6.54.491 7.847 6.143l5.814.055v0s-2.717-1.999-2.757-4.67c0 0-.121-.727.745-.637a7.93 7.93 0 0 1 4.044 1.436s-.028-3.687 2.758-4.85a6.409 6.409 0 0 1 5.25 0 5.501 5.501 0 0 1 2.838 4.852s2.192-1.49 4.144-1.437a.589.589 0 0 1 .724.517c.08.647-.382 2.991-2.756 4.735z"/></g><g><path fill="none" stroke="#9b6a70" stroke-miterlimit="50" stroke-width="1.5" d="M36.328 28.157H10.017"/></g><g><path fill="none" stroke="#9b6a70" stroke-miterlimit="50" stroke-width="1.5" d="M20.761 27.974v16.025"/></g><g><path fill="none" stroke="#9b6a70" stroke-miterlimit="50" stroke-width="1.5" d="M25.59 27.93v16.087"/></g><g/><g><path fill="#9b6a70" d="M27.04 20.688a2.448 2.448 0 0 0-.302-.744 7.989 7.989 0 0 0-.48-.73c-.077-.109-.15-.207-.217-.299a5.104 5.104 0 0 1-.528-.803c-.033-.068-.062-.14-.092-.213a1.018 1.018 0 0 0-.567-.684 2.442 2.442 0 0 0-.841-.112c-.33 0-.708.028-1.091.063-.236.021-.463.043-.684.064-.523.05-1.022.1-1.424.115-.086 0-.165.005-.24.007a1.336 1.336 0 0 0-1.075.315 1.926 1.926 0 0 0-.39.711 2.122 2.122 0 0 0-.113.825c.04.31.177.597.389.825.049.06.095.122.137.187a.56.56 0 0 1 .099.346 1.4 1.4 0 0 1-.165.507c-.04.082-.09.174-.142.274a2.649 2.649 0 0 0-.456 1.43c.046.293.19.563.41.765.258.244.566.428.903.54.284.091.579.138.877.14.298.005.594-.037.878-.124a.795.795 0 0 0 .452-.296.443.443 0 0 0-.033-.472 3.585 3.585 0 0 0-.54-.615 7.236 7.236 0 0 1-.506-.543 2.81 2.81 0 0 1-.626-1.384 4.305 4.305 0 0 1-.045-.76c.006-.268.034-.535.084-.799.035-.198.095-.39.178-.574a1.1 1.1 0 0 1 .704-.614.882.882 0 0 1 .433-.02c.184.055.357.143.51.26.134.09.273.173.415.25.202.1.41.185.626.254a7.185 7.185 0 0 0 1.137.273c.207.022.409.074.6.155.096.05.17.131.214.23.06.15.092.31.096.472.016.283.004.566-.04.846a3.049 3.049 0 0 1-.196.732 2.101 2.101 0 0 1-.443.663 1.782 1.782 0 0 1-.627.414 1.76 1.76 0 0 1-.747.11 2.393 2.393 0 0 1-.821-.216 3.186 3.186 0 0 1-.844-.552 1.68 1.68 0 0 1-.463-.65 1.012 1.012 0 0 1 .005-.659 1.46 1.46 0 0 1 .427-.625c.168-.142.36-.252.567-.326.226-.08.462-.126.7-.133.178-.009.356.014.525.068.146.05.28.128.394.231.12.11.218.242.288.39.073.153.118.318.132.487.016.192 0 .386-.05.572a1.115 1.115 0 0 1-.213.44.708.708 0 0 1-.313.205.951.951 0 0 1-.748-.069.904.904 0 0 1-.251-.214 2.554 2.554 0 0 1-.154-.22 1.258 1.258 0 0 0-.31-.367.936.936 0 0 0-.231-.108c-.072-.026-.125-.044-.117-.065a.873.873 0 0 1 .247-.273c.13-.109.272-.2.424-.274.12-.056.252-.087.385-.093a.779.779 0 0 1 .353.065.47.47 0 0 1 .205.161.238.238 0 0 1 .03.191.605.605 0 0 1-.136.241.693.693 0 0 1-.225.184.138.138 0 0 1-.036.011.066.066 0 0 1-.051-.009.111.111 0 0 1-.038-.053.267.267 0 0 1-.018-.06.6.6 0 0 1 0-.19 2.81 2.81 0 0 1 .042-.225.076.076 0 1 0-.147-.038l-.001.006a2.763 2.763 0 0 0-.045.238.842.842 0 0 0 0 .235.434.434 0 0 0 .028.093c.018.05.05.09.093.12a.217.217 0 0 0 .162.033.337.337 0 0 0 .068-.022.843.843 0 0 0 .28-.225.8.8 0 0 0 .17-.304.398.398 0 0 0-.053-.308.61.61 0 0 0-.274-.217.95.95 0 0 0-.418-.079 1.2 1.2 0 0 0-.44.107 2.133 2.133 0 0 0-.46.291c-.122.09-.223.207-.294.342-.057.163.058.206.21.257a.794.794 0 0 1 .195.09c.109.091.2.202.27.326.05.08.105.158.164.232a1.02 1.02 0 0 0 .672.376c.165.022.333.007.49-.045a.846.846 0 0 0 .38-.25c.118-.147.202-.317.246-.499.053-.204.07-.416.054-.625a1.583 1.583 0 0 0-.147-.54 1.412 1.412 0 0 0-.322-.436 1.251 1.251 0 0 0-.448-.262 1.66 1.66 0 0 0-.577-.078 2.412 2.412 0 0 0-.747.142 1.943 1.943 0 0 0-.616.354 1.624 1.624 0 0 0-.473.692 1.17 1.17 0 0 0-.004.753c.108.274.28.518.504.711.262.24.56.435.884.58.275.126.57.202.872.226a1.896 1.896 0 0 0 1.494-.566 2.27 2.27 0 0 0 .475-.71c.1-.247.169-.506.205-.77.044-.29.056-.584.039-.877a1.53 1.53 0 0 0-.11-.526.614.614 0 0 0-.278-.299 2.204 2.204 0 0 0-.647-.17c-.116-.02-.24-.042-.368-.069a6.96 6.96 0 0 1-.747-.198 4.25 4.25 0 0 1-.603-.245 4.555 4.555 0 0 1-.402-.242 1.742 1.742 0 0 0-.56-.28 1.04 1.04 0 0 0-.507.022 1.278 1.278 0 0 0-.475.257c-.137.121-.248.27-.325.436a2.58 2.58 0 0 0-.188.612 4.934 4.934 0 0 0-.088.821c-.008.263.008.527.048.787.082.536.308 1.04.655 1.457.158.192.342.38.519.554.193.174.365.37.515.583.07.091.083.214.033.317a.66.66 0 0 1-.368.231 2.655 2.655 0 0 1-.831.117 2.723 2.723 0 0 1-.83-.137 2.206 2.206 0 0 1-.845-.503 1.164 1.164 0 0 1-.368-.675c.017-.479.169-.943.439-1.339l.144-.274c.098-.174.159-.367.18-.566a.699.699 0 0 0-.123-.434 2.214 2.214 0 0 0-.131-.2 1.384 1.384 0 0 1-.36-.745 1.965 1.965 0 0 1 .109-.764c.07-.24.192-.463.354-.654.238-.25.54-.257.969-.267.079 0 .16 0 .243-.007.407-.016.908-.064 1.433-.115.229-.023.462-.045.684-.065.375-.033.747-.06 1.078-.06.266-.013.532.021.787.1.24.12.416.34.479.601a2.7 2.7 0 0 0 .095.22c.154.293.336.571.542.83.068.094.144.194.217.295.17.23.327.47.47.717.133.216.23.451.287.698.032.29-.025.58-.163.836-.04.09-.077.182-.11.273a6.384 6.384 0 0 0-.198.757 7.053 7.053 0 0 1-.117.485c-.041.16-.106.314-.191.456a.734.734 0 0 1-.292.274 1.815 1.815 0 0 1-.462.13 2.067 2.067 0 0 0-.463.128c-.18.098-.337.234-.458.4-.064.074-.13.153-.21.233-.125.13-.272.237-.434.316a1.057 1.057 0 0 1-.597.088 3.86 3.86 0 0 1-1.052-.402c-.158-.077-.305-.149-.43-.199-.204-.082-.204.08-.056.137.122.05.265.12.42.195.344.192.714.333 1.098.417.232.033.468-.002.68-.102a1.69 1.69 0 0 0 .479-.346c.08-.08.15-.163.217-.24.108-.15.249-.274.41-.364.138-.054.28-.093.428-.115.172-.026.34-.075.5-.144a.876.876 0 0 0 .353-.327c.093-.154.163-.32.209-.495a8.6 8.6 0 0 0 .119-.494c.049-.249.114-.496.194-.737.034-.095.069-.18.105-.264.152-.282.21-.605.169-.922z"/><path fill="none" stroke="#9b6a70" stroke-miterlimit="50" stroke-width=".65" d="M27.04 20.688a2.448 2.448 0 0 0-.302-.744 7.989 7.989 0 0 0-.48-.73c-.077-.109-.15-.207-.217-.299a5.104 5.104 0 0 1-.528-.803c-.033-.068-.062-.14-.092-.213a1.018 1.018 0 0 0-.567-.684 2.442 2.442 0 0 0-.841-.112c-.33 0-.708.028-1.091.063-.236.021-.463.043-.684.064-.523.05-1.022.1-1.424.115-.086 0-.165.005-.24.007a1.336 1.336 0 0 0-1.075.315 1.926 1.926 0 0 0-.39.711 2.122 2.122 0 0 0-.113.825c.04.31.177.597.389.825.049.06.095.122.137.187a.56.56 0 0 1 .099.346 1.4 1.4 0 0 1-.165.507c-.04.082-.09.174-.142.274a2.649 2.649 0 0 0-.456 1.43c.046.293.19.563.41.765.258.244.566.428.903.54.284.091.579.138.877.14.298.005.594-.037.878-.124a.795.795 0 0 0 .452-.296.443.443 0 0 0-.033-.472 3.585 3.585 0 0 0-.54-.615 7.236 7.236 0 0 1-.506-.543 2.81 2.81 0 0 1-.626-1.384 4.305 4.305 0 0 1-.045-.76c.006-.268.034-.535.084-.799.035-.198.095-.39.178-.574a1.1 1.1 0 0 1 .704-.614.882.882 0 0 1 .433-.02c.184.055.357.143.51.26.134.09.273.173.415.25.202.1.41.185.626.254a7.185 7.185 0 0 0 1.137.273c.207.022.409.074.6.155.096.05.17.131.214.23.06.15.092.31.096.472.016.283.004.566-.04.846a3.049 3.049 0 0 1-.196.732 2.101 2.101 0 0 1-.443.663 1.782 1.782 0 0 1-.627.414 1.76 1.76 0 0 1-.747.11 2.393 2.393 0 0 1-.821-.216 3.186 3.186 0 0 1-.844-.552 1.68 1.68 0 0 1-.463-.65 1.012 1.012 0 0 1 .005-.659 1.46 1.46 0 0 1 .427-.625c.168-.142.36-.252.567-.326.226-.08.462-.126.7-.133.178-.009.356.014.525.068.146.05.28.128.394.231.12.11.218.242.288.39.073.153.118.318.132.487.016.192 0 .386-.05.572a1.115 1.115 0 0 1-.213.44.708.708 0 0 1-.313.205.951.951 0 0 1-.748-.069.904.904 0 0 1-.251-.214 2.554 2.554 0 0 1-.154-.22 1.258 1.258 0 0 0-.31-.367.936.936 0 0 0-.231-.108c-.072-.026-.125-.044-.117-.065a.873.873 0 0 1 .247-.273c.13-.109.272-.2.424-.274.12-.056.252-.087.385-.093a.779.779 0 0 1 .353.065.47.47 0 0 1 .205.161.238.238 0 0 1 .03.191.605.605 0 0 1-.136.241.693.693 0 0 1-.225.184.138.138 0 0 1-.036.011.066.066 0 0 1-.051-.009.111.111 0 0 1-.038-.053.267.267 0 0 1-.018-.06.6.6 0 0 1 0-.19 2.81 2.81 0 0 1 .042-.225.076.076 0 1 0-.147-.038l-.001.006a2.763 2.763 0 0 0-.045.238.842.842 0 0 0 0 .235.434.434 0 0 0 .028.093c.018.05.05.09.093.12a.217.217 0 0 0 .162.033.337.337 0 0 0 .068-.022.843.843 0 0 0 .28-.225.8.8 0 0 0 .17-.304.398.398 0 0 0-.053-.308.61.61 0 0 0-.274-.217.95.95 0 0 0-.418-.079 1.2 1.2 0 0 0-.44.107 2.133 2.133 0 0 0-.46.291c-.122.09-.223.207-.294.342-.057.163.058.206.21.257a.794.794 0 0 1 .195.09c.109.091.2.202.27.326.05.08.105.158.164.232a1.02 1.02 0 0 0 .672.376c.165.022.333.007.49-.045a.846.846 0 0 0 .38-.25c.118-.147.202-.317.246-.499.053-.204.07-.416.054-.625a1.583 1.583 0 0 0-.147-.54 1.412 1.412 0 0 0-.322-.436 1.251 1.251 0 0 0-.448-.262 1.66 1.66 0 0 0-.577-.078 2.412 2.412 0 0 0-.747.142 1.943 1.943 0 0 0-.616.354 1.624 1.624 0 0 0-.473.692 1.17 1.17 0 0 0-.004.753c.108.274.28.518.504.711.262.24.56.435.884.58.275.126.57.202.872.226a1.896 1.896 0 0 0 1.494-.566 2.27 2.27 0 0 0 .475-.71c.1-.247.169-.506.205-.77.044-.29.056-.584.039-.877a1.53 1.53 0 0 0-.11-.526.614.614 0 0 0-.278-.299 2.204 2.204 0 0 0-.647-.17c-.116-.02-.24-.042-.368-.069a6.96 6.96 0 0 1-.747-.198 4.25 4.25 0 0 1-.603-.245 4.555 4.555 0 0 1-.402-.242 1.742 1.742 0 0 0-.56-.28 1.04 1.04 0 0 0-.507.022 1.278 1.278 0 0 0-.475.257c-.137.121-.248.27-.325.436a2.58 2.58 0 0 0-.188.612 4.934 4.934 0 0 0-.088.821c-.008.263.008.527.048.787.082.536.308 1.04.655 1.457.158.192.342.38.519.554.193.174.365.37.515.583.07.091.083.214.033.317a.66.66 0 0 1-.368.231 2.655 2.655 0 0 1-.831.117 2.723 2.723 0 0 1-.83-.137 2.206 2.206 0 0 1-.845-.503 1.164 1.164 0 0 1-.368-.675c.017-.479.169-.943.439-1.339l.144-.274c.098-.174.159-.367.18-.566a.699.699 0 0 0-.123-.434 2.214 2.214 0 0 0-.131-.2 1.384 1.384 0 0 1-.36-.745 1.965 1.965 0 0 1 .109-.764c.07-.24.192-.463.354-.654.238-.25.54-.257.969-.267.079 0 .16 0 .243-.007.407-.016.908-.064 1.433-.115.229-.023.462-.045.684-.065.375-.033.747-.06 1.078-.06.266-.013.532.021.787.1.24.12.416.34.479.601a2.7 2.7 0 0 0 .095.22c.154.293.336.571.542.83.068.094.144.194.217.295.17.23.327.47.47.717.133.216.23.451.287.698.032.29-.025.58-.163.836-.04.09-.077.182-.11.273a6.384 6.384 0 0 0-.198.757 7.053 7.053 0 0 1-.117.485c-.041.16-.106.314-.191.456a.734.734 0 0 1-.292.274 1.815 1.815 0 0 1-.462.13 2.067 2.067 0 0 0-.463.128c-.18.098-.337.234-.458.4-.064.074-.13.153-.21.233-.125.13-.272.237-.434.316a1.057 1.057 0 0 1-.597.088 3.86 3.86 0 0 1-1.052-.402c-.158-.077-.305-.149-.43-.199-.204-.082-.204.08-.056.137.122.05.265.12.42.195.344.192.714.333 1.098.417.232.033.468-.002.68-.102a1.69 1.69 0 0 0 .479-.346c.08-.08.15-.163.217-.24.108-.15.249-.274.41-.364.138-.054.28-.093.428-.115.172-.026.34-.075.5-.144a.876.876 0 0 0 .353-.327c.093-.154.163-.32.209-.495a8.6 8.6 0 0 0 .119-.494c.049-.249.114-.496.194-.737.034-.095.069-.18.105-.264.152-.282.21-.605.169-.922z"/></g><g><path fill="none" stroke="#9b6a70" stroke-miterlimit="50" stroke-width="1.5" d="M36.403 23.266s-1.026 3.047-.35 5.023"/></g><g><path fill="none" stroke="#9b6a70" stroke-miterlimit="50" stroke-width="1.5" d="M9.699 23.332c.51 1.63.647 3.351.402 5.04"/></g><g><path fill="none" stroke="#9b6a70" stroke-miterlimit="50" d="M39.142 22.927a4.89 4.89 0 0 1 3.315-3.167"/></g><g><path fill="none" stroke="#9b6a70" stroke-miterlimit="50" d="M6.906 22.86a4.742 4.742 0 0 0-3.14-3.112"/></g><g><path fill="none" stroke="#9b6a70" stroke-miterlimit="50" d="M17.652 22.865a4.736 4.736 0 0 0-3.14-3.11"/></g><g><path fill="none" stroke="#9b6a70" stroke-miterlimit="50" d="M28.396 22.928a4.736 4.736 0 0 1 3.14-3.11"/></g><g><path fill="none" stroke="#9b6a70" stroke-miterlimit="50" d="M3.6 31.78a4.736 4.736 0 0 0 3.47-2.737"/></g><g><path fill="none" stroke="#9b6a70" stroke-miterlimit="50" d="M42.49 31.78a4.736 4.736 0 0 1-3.47-2.737"/></g></g></g></g></svg>