<svg xmlns="http://www.w3.org/2000/svg" width="59" height="76" viewBox="0 0 59 76"><g><g><g><g><g><path fill="#e0c8c6" d="M18.947 65.589c.073-.333.143-.666.205-1.004.054 0 .108-.003.16-.011-.12.337-.241.678-.365 1.015zm8.327-10.598a82.43 82.43 0 0 0-9.987-5.927 1.793 1.793 0 0 0-1.982.19c-.912-.325-2.051-.03-2.37 1.175a87.206 87.206 0 0 1-6.821 17.793c-.872 1.688.857 3.293 2.506 2.506l4.274-2.034a33.837 33.837 0 0 0 3.429 6.265 1.86 1.86 0 0 0 3.35-.436l3.447-9.657c.886-2.476 1.809-5.246 4.154-6.708 1.223-.771 1.13-2.383 0-3.167z"/></g><g><path fill="#e0c8c6" d="M44.975 58.39zm-.125-.355a8.475 8.475 0 0 1-.268-1.447c.132.6.26 1.2.392 1.8a4.441 4.441 0 0 1-.124-.353zm-8.774.27c-.014.052-.03.096-.04.15a3.61 3.61 0 0 0-.051.389 15.982 15.982 0 0 1-.213-.718c.098.066.2.126.305.18zM53.734 69.22c-.942-3.443-3.575-6.03-4.616-9.44-1.066-3.491-1.454-7.09-2.927-10.46-.418-.955-1.704-1.043-2.506-.655a57.852 57.852 0 0 1-9.015 3.433 2.149 2.149 0 0 0-.43.179c-1.036-.3-2.431.26-2.55 1.675-.63 7.462 5.599 12.726 6.738 19.738.304 1.865 3.075 1.619 3.532 0 .384-1.366.77-2.733 1.157-4.1.052-.163.115-.322.19-.475.283.044.576.084.744.128 2.49.692 4.968 1.44 7.43 2.224 1.348.439 2.608-.943 2.253-2.247z"/></g><g><path fill="#e0c8c6" d="M20.25 60.947c-.904-.205-2.062.275-2.252 1.279-.083.448-.195.89-.337 1.322a6.369 6.369 0 0 1-.187.51c-.003-.008-.205.432-.234.487-.432.853-.253 2.025.656 2.506.83.439 2.044.256 2.505-.656a12.22 12.22 0 0 0 1.125-3.194c.187-.938-.257-2.023-1.275-2.254z"/></g><g><path fill="#e0c8c6" d="M39.608 58.577a1.867 1.867 0 0 1-1.65-.982 1.831 1.831 0 0 0-3.161 1.85 5.714 5.714 0 0 0 4.814 2.794 1.83 1.83 0 1 0-.003-3.663z"/></g><g><path fill="#e0c8c6" d="M46.839 57.713a4.858 4.858 0 0 1-.641-.388c-.03-.03-.11-.1-.157-.143-.103-.096-.198-.198-.297-.3a1.244 1.244 0 0 1-.07-.077 4.266 4.266 0 0 1-.197-.297c-.073-.121-.136-.246-.205-.37-.015-.025-.025-.044-.033-.06-.004-.021-.02-.057-.041-.127-.318-.901-1.263-1.6-2.253-1.278-.89.289-1.623 1.285-1.278 2.253a6.993 6.993 0 0 0 3.326 3.949c.85.44 2.03.245 2.506-.656.443-.84.249-2.034-.66-2.506z"/></g></g><g><path fill="#fff" d="M29.204 57.398a.925.925 0 0 1-.535-.173l-3.51-2.5-4.107 1.299a.92.92 0 0 1-1.022-.334l-2.56-3.465-4.308-.04a.924.924 0 0 1-.868-.631l-1.366-4.083-4.085-1.367a.922.922 0 0 1-.63-.868l-.04-4.301-3.466-2.561a.924.924 0 0 1-.333-1.022l1.296-4.107-2.5-3.51a.932.932 0 0 1 0-1.073l2.5-3.51-1.293-4.102a.92.92 0 0 1 .334-1.022l3.465-2.561.04-4.308a.924.924 0 0 1 .63-.868l4.085-1.364 1.367-4.085a.922.922 0 0 1 .868-.63l4.308-.04 2.56-3.465a.924.924 0 0 1 1.023-.333l4.106 1.297 3.51-2.5a.93.93 0 0 1 1.073 0l3.51 2.5 4.106-1.297a.924.924 0 0 1 1.022.329l2.56 3.466 4.309.04a.923.923 0 0 1 .868.63l1.367 4.085 4.084 1.367a.921.921 0 0 1 .63.868l.04 4.308 3.466 2.56a.926.926 0 0 1 .334 1.023l-1.3 4.107 2.5 3.509a.93.93 0 0 1 0 1.073l-2.5 3.51 1.3 4.106a.926.926 0 0 1-.334 1.022l-3.465 2.56-.04 4.309a.923.923 0 0 1-.63.868l-4.085 1.363-1.367 4.084a.922.922 0 0 1-.868.63l-4.308.04-2.561 3.467a.924.924 0 0 1-1.022.329l-4.106-1.296-3.51 2.499a.988.988 0 0 1-.542.168z"/><path fill="none" stroke="#9b6a70" stroke-miterlimit="50" stroke-width="2" d="M29.204 57.398a.925.925 0 0 1-.535-.173l-3.51-2.5v0l-4.107 1.299a.92.92 0 0 1-1.022-.334l-2.56-3.465v0l-4.308-.04a.924.924 0 0 1-.868-.631l-1.366-4.083v0l-4.085-1.367a.922.922 0 0 1-.63-.868l-.04-4.301v0l-3.466-2.561a.924.924 0 0 1-.333-1.022l1.296-4.107v0l-2.5-3.51a.932.932 0 0 1 0-1.073l2.5-3.51v0L2.377 21.05a.92.92 0 0 1 .334-1.022l3.465-2.561v0l.04-4.308a.924.924 0 0 1 .63-.868l4.085-1.364v0l1.367-4.085a.922.922 0 0 1 .868-.63l4.308-.04v0l2.56-3.465a.924.924 0 0 1 1.023-.333l4.106 1.297v0l3.51-2.5a.93.93 0 0 1 1.073 0l3.51 2.5v0l4.106-1.297a.924.924 0 0 1 1.022.329l2.56 3.466v0l4.309.04a.923.923 0 0 1 .868.63l1.367 4.085v0l4.084 1.367a.921.921 0 0 1 .63.868l.04 4.308v0l3.466 2.56a.926.926 0 0 1 .334 1.023l-1.3 4.107v0l2.5 3.509a.93.93 0 0 1 0 1.073l-2.5 3.51v0l1.3 4.106a.926.926 0 0 1-.334 1.022l-3.465 2.56v0l-.04 4.309a.923.923 0 0 1-.63.868l-4.085 1.363v0L46.12 51.56a.922.922 0 0 1-.868.63l-4.308.04v0l-2.561 3.467a.924.924 0 0 1-1.022.329l-4.106-1.296v0l-3.51 2.499a.988.988 0 0 1-.542.168z"/></g><g><g><path fill="#e0c8c6" d="M41.157 20.068c-3.176-.073-6.74 1.67-9.293 4.887-2.554 3.217-3.986 7.824-3.195 10.906 3.176.073 7.279-2.418 9.832-5.631 2.554-3.213 3.448-7.085 2.656-10.162z"/></g></g><g><g><path fill="#e0c8c6" d="M17.543 24.197c-.725 2.553-.077 5.568 1.956 7.883 2.033 2.315 5.557 4.649 8.184 4.26.725-2.553-.54-6.872-2.575-9.187-2.036-2.315-4.938-3.345-7.565-2.956z"/></g></g><g><path fill="none" stroke="#9b6a70" stroke-miterlimit="50" stroke-width="2" d="M29.204 48.199c-10.491 0-18.997-8.505-18.997-18.997 0-10.492 8.505-18.997 18.997-18.997 10.492 0 18.997 8.505 18.997 18.997v0c-.013 10.487-8.51 18.984-18.997 18.997z"/></g></g><g><g><path fill="#9b6a70" d="M37.505 26.254a.584.584 0 0 0-.336.17c-2.981 2.988-6.212 6.459-9.191 9.464l-4.504-3.71a.58.58 0 1 0-.747.893l.006.003 4.92 4.052c.23.19.568.175.78-.034 3.099-3.107 6.476-6.76 9.553-9.842a.583.583 0 0 0 .025-.82.596.596 0 0 0-.506-.176z"/></g></g></g></g></svg>