<svg xmlns="http://www.w3.org/2000/svg" width="246" height="21" viewBox="0 0 246 21"><defs><clipPath id="s8t2a"><path fill="#fff" d="M5 9c0-1.5 1.5-3 3-3h235c1.5 0 3 1.5 3 3v9c0 1.5-1.5 3-3 3H8c-1.5 0-3-1.5-3-3z"/></clipPath></defs><g><g><path fill="#4c4c4e" d="M0 3c0-1.5 1.5-3 3-3h235c1.5 0 3 1.5 3 3v10c0 1.5-1.5 3-3 3H3c-1.5 0-3-1.5-3-3z"/></g><g><path fill="none" stroke="#4c4c4e" stroke-miterlimit="20" stroke-width="2" d="M5 9c0-1.5 1.5-3 3-3h235c1.5 0 3 1.5 3 3v9c0 1.5-1.5 3-3 3H8c-1.5 0-3-1.5-3-3z" clip-path="url(&quot;#s8t2a&quot;)"/></g></g></svg>