<svg xmlns="http://www.w3.org/2000/svg" width="22" height="21" viewBox="0 0 22 21"><g><g><g><g><path fill="#fff" d="M11.962 13.322c-.738 0-1.432-.399-1.67-.852 0 0-.397 1.575-.48 1.879-.297 1.074-1.167 2.148-1.234 2.236-.048.062-.151.042-.162-.039-.02-.136-.24-1.492.02-2.597l.879-3.724s-.218-.436-.218-1.081c0-1.014.587-1.77 1.318-1.77.622 0 .922.467.922 1.026 0 .625-.398 1.56-.604 2.425-.171.725.364 1.317 1.079 1.317 1.294 0 2.167-1.663 2.167-3.634 0-1.498-1.01-2.62-2.844-2.62-2.073 0-3.365 1.547-3.365 3.274 0 .596.176 1.016.45 1.34.127.15.145.21.099.381-.033.126-.108.429-.14.549-.045.173-.186.235-.342.171-.954-.39-1.4-1.436-1.4-2.611 0-1.941 1.638-4.27 4.885-4.27 2.61 0 4.326 1.888 4.326 3.916.002 2.68-1.489 4.684-3.686 4.684zM11.044.212C5.266.212.584 4.895.584 10.672c0 5.777 4.683 10.46 10.46 10.46 5.777 0 10.46-4.683 10.46-10.46 0-5.777-4.683-10.46-10.46-10.46z"/></g></g></g></g></svg>