<svg xmlns="http://www.w3.org/2000/svg" width="86" height="60" viewBox="0 0 86 60"><g><g><g><path fill="#e0c8c6" d="M25.328 4.43C14.987 10.387 6.747 24.916 5.55 35.603 4.354 46.291 10.2 53.136 23.757 56.986c13.557 3.85 34.834 4.705 47.345-.909 12.51-5.615 16.258-17.699 13.038-27.509-3.22-9.81-13.404-17.344-24.718-22.416C48.109 1.08 35.669-1.53 25.328 4.43z"/></g><g><g><path fill="none" stroke="#9b6a70" stroke-miterlimit="50" stroke-width="1.5" d="M14.666 49.852a3.163 3.163 0 0 1-2.325.871H7.879v0s-2.417.397-3.73-1.353a4.39 4.39 0 0 1-.675-2.745c.078-1.767.715-1.988 1.55-2.384a3.757 3.757 0 0 1-1.191-2.784c-.121-1.988-2.53-24.315-2.53-24.315a3.276 3.276 0 0 1 3.639-3.226c3.64.06 9.426 0 9.426 0v0s3.454-.083 3.52 3.227c.067 3.311-1.611 15.744-1.611 15.744v0"/></g><g><path fill="none" stroke="#9b6a70" stroke-linecap="round" stroke-miterlimit="50" stroke-width="1.5" d="M4.5 16.42l2.66 26.01"/></g><g><path fill="none" stroke="#9b6a70" stroke-miterlimit="50" stroke-width="1.5" d="M14.37 35.204a3.864 3.864 0 0 1 3.739-2.537h9.306v0s2.983 0 3.46 2.823v1.194a2.444 2.444 0 0 1-.306 1.67c-.148.15-.312.283-.49.398 0 0 .864.29.83 2.232-.034 1.944 0 7.225 0 7.225v0s.164 2.631-1.825 2.553c-1.988-.078-12.488 0-12.488 0v0s-2.267.301-2.227-2.554v-7.225c-.1-.832.178-1.666.756-2.272a1.267 1.267 0 0 1-.497-.458 2.1 2.1 0 0 1-.361-1.45c.025-.835.103-1.599.103-1.599v0z"/></g><g><path fill="none" stroke="#9b6a70" stroke-linecap="round" stroke-miterlimit="50" stroke-width="1.5" d="M17.564 40.984v7.226"/></g><g/><g/><g><path fill="none" stroke="#9b6a70" stroke-miterlimit="50" stroke-width="1.5" d="M27.316 32.667v0V21.73c.07-.649.342-1.26.776-1.75a2.174 2.174 0 0 1-.776-1.57c.02-.935 0-1.632 0-1.632a3.552 3.552 0 0 1 1.083-1.95c.804-.537 1.042-.94 2.457-.916 1.415.024 9.982 0 9.982 0a3.585 3.585 0 0 1 3.004 2.488l.1 1.87a2.556 2.556 0 0 1-.795 1.79c.56.46.858 1.166.795 1.888.019 1.412 0 26.627 0 26.627v0s-.06 2.186-2.168 2.187H27.317v0"/></g><g><path fill="none" stroke="#9b6a70" stroke-linecap="round" stroke-miterlimit="50" stroke-width="1.5" d="M30.569 22.2v7.405"/></g><g/><g><path fill="none" stroke="#9b6a70" stroke-miterlimit="50" stroke-width="1.5" d="M15.126 38.712l14.954.04"/></g><g><path fill="none" stroke="#9b6a70" stroke-miterlimit="50" stroke-width="1.5" d="M28.091 19.98l15.054.08"/></g><g><path fill="none" stroke="#9b6a70" stroke-miterlimit="50" stroke-width="1.5" d="M27.316 30.87c.656.021 16.633 0 16.633 0"/></g><g><path fill="none" stroke="#9b6a70" stroke-miterlimit="50" stroke-width="1.5" d="M30.676 38.095h13.27"/></g><g><path fill="none" stroke="#9b6a70" stroke-miterlimit="50" stroke-width="1.5" d="M5.024 44.235l9.345-.042"/></g></g></g></g></svg>