<svg xmlns="http://www.w3.org/2000/svg" width="92" height="59" viewBox="0 0 92 59"><g><g><g><path fill="#e0c8c6" d="M23.466 45.567c10.372 7.251 31.172 12.506 45.183 12.809 14.01.303 21.235-4.34 22.578-14.478 1.343-10.137-3.194-25.755-13.704-34.614C67.013.425 50.54-1.67 38.822 1.212c-11.717 2.883-18.674 10.744-22.178 19.3-3.504 8.554-3.552 17.806 6.822 25.055z"/></g><g><g><path fill="none" stroke="#9b6a70" stroke-linecap="round" stroke-miterlimit="50" stroke-width="1.5" d="M3.807 15.342a2.272 2.272 0 0 1 2.455-2.063h23.505v0s2.947-.344 2.92 2.063v2.063h7.363v0l7.073 6.875v11.295s.466 2.813-2.997 2.457H6.204v0s-2.397.439-2.397-2.457v-6.829 0"/></g><g><path fill="none" stroke="#9b6a70" stroke-linecap="round" stroke-miterlimit="50" stroke-width="1.5" d="M32.684 19.467v6.061c0 .241 12.376.128 12.376.128v0-.503 0l-5.848-5.685v0z"/></g><g><path fill="none" stroke="#9b6a70" stroke-linecap="round" stroke-miterlimit="50" stroke-width="1.5" d="M32.683 35.969v0-8.25 0h12.376v8.25z"/></g><g><path fill="none" stroke="#9b6a70" stroke-linecap="round" stroke-miterlimit="50" stroke-width="1.5" d="M.712 18.436h12.134"/></g><g><path fill="none" stroke="#9b6a70" stroke-linecap="round" stroke-miterlimit="50" stroke-width="1.5" d="M3.806 22.561h9.27"/></g><g><path fill="none" stroke="#9b6a70" stroke-linecap="round" stroke-miterlimit="50" stroke-width="1.5" d="M7.41 26.687h5.667"/></g><g><path fill="#fff" d="M7.22 38.063a4.836 4.836 0 1 1 9.673 0 4.836 4.836 0 0 1-9.673 0z"/><path fill="none" stroke="#9b6a70" stroke-miterlimit="50" stroke-width="1.5" d="M7.22 38.063a4.836 4.836 0 1 1 9.673 0 4.836 4.836 0 0 1-9.673 0z"/></g><g><path fill="#e0c8c6" d="M31.972 38.032a4.836 4.836 0 1 1 9.672 0 4.836 4.836 0 0 1-9.672 0z"/><path fill="none" stroke="#9b6a70" stroke-miterlimit="50" stroke-width="1.5" d="M31.972 38.032a4.836 4.836 0 1 1 9.672 0 4.836 4.836 0 0 1-9.672 0z"/></g></g></g></g></svg>