<svg xmlns="http://www.w3.org/2000/svg" width="86" height="76" viewBox="0 0 86 76"><g><g><g><path fill="#e0c8c6" d="M45.41 74.298c11.078-1.348 25.404-10.84 32.307-19.6 6.904-8.76 6.385-16.791-1.584-25.063-7.968-8.272-23.382-16.79-35.888-16.531-12.505.257-22.1 9.288-25.211 18.908-3.11 9.62.265 19.829 5.867 28.332s13.43 15.3 24.509 13.954z"/></g><g><path fill="none" stroke="#9b6a70" stroke-miterlimit="50" stroke-width="1.5" d="M25.318 56.045c2.72 1.606 5.44 3.21 7.805 5.485 2.366 2.275 4.376 5.216 5.949 7.493 1.573 2.277 2.707 3.89 3.798 4.734 1.09.843 2.135.914 3.475.403 1.34-.511 2.975-1.605 3.686-2.941.71-1.336.493-2.915 1.16-4.282.668-1.366 2.217-2.52 3.984-3.764 1.766-1.243 3.748-2.578 6.078-3.464 2.33-.886 5.008-1.323 7.186-2.392a13.137 13.137 0 0 0 4.896-4.283c1.038-1.513 1.435-2.841 1.497-4.198.062-1.357-.21-2.747.225-4.2.435-1.453 1.577-2.971 3.398-4.8 1.82-1.828 4.32-3.972 5.056-5.507.736-1.536-.295-2.464-2.045-3.056-1.751-.593-4.22-.85-6.05.03-1.83.882-3.018 2.9-4.707 5.32-1.688 2.42-3.874 5.243-6.347 7.582a38.101 38.101 0 0 1-8.27 5.838c-3.036 1.639-6.351 3.055-9.52 3.467-3.168.41-6.191-.184-9.207-.226-3.016-.042-6.026.469-9.487-.447-3.461-.916-7.372-3.256-9.754-5.07-2.383-1.814-3.236-3.102-3.893-5.106-.656-2.004-1.116-4.722-1.454-6.871-.338-2.15-.554-3.727-.32-5.26.235-1.53.919-3.011 2.756-2.994 1.836.016 4.825 1.53 6.786 3.544 1.96 2.014 2.892 4.532 4.563 6.89a26.273 26.273 0 0 0 6.227 6.047c2.153 1.488 4.055 2.263 6.458 2.053 2.403-.21 5.308-1.406 8.047-2.565 2.739-1.16 5.312-2.282 7.456-2.776 2.144-.494 3.859-.36 4.783.519.924.879 1.058 2.502.274 4.488-.783 1.986-2.483 4.333-5.478 6.345-2.994 2.012-7.282 3.689-11.95 4.219-4.667.53-9.714-.085-15.625-3.678-5.911-3.594-12.686-10.165-16.448-13.407-3.762-3.242-4.511-3.157-5.198-1.78-.688 1.379-1.314 4.047-2.09 6.982-.774 2.935-1.698 6.134-1.948 8.813-.251 2.678.17 4.834 1.45 7.11 1.282 2.277 3.42 4.672 6.272 5.784 2.85 1.11 6.413.938 10.218.184 3.806-.754 7.854-2.09 10.693-2.031 2.839.058 4.469 1.509 5.82 1.999 1.35.49 2.42.02 2.175-1.516-.246-1.536-1.808-4.138-1.382-5.163.426-1.024 2.844-.474 5.404.343 2.56.818 5.265 1.903 8.22 2.375 3 .446 6.057.358 9.026-.26a21.043 21.043 0 0 0 7.71-3.205c2.338-1.578 4.497-3.696 5.416-6.02.919-2.324.598-4.852.328-7.831-.27-2.98-.49-6.408-.253-9.9.237-3.49.927-7.044.488-10.57-.44-3.526-2.007-7.024-4.228-10.012-2.222-2.988-5.091-5.465-8.18-6.476-3.087-1.01-6.39-.553-9.038-.158-2.648.395-4.641.728-4.986 1.364-.345.637.957 1.577 2.578 2.372 1.62.795 3.56 1.444 5.156 2.146a16.602 16.602 0 0 1 4.362 2.733c1.51 1.277 3.277 3.08 4.3 4.78 1.024 1.7 1.302 3.298-.133 6.523-1.435 3.224-4.586 8.075-7.521 11.672-2.934 3.596-5.655 5.936-8.08 7.046-2.423 1.109-4.557.988-5.816.422-1.26-.567-1.644-1.577.003-3.286 1.647-1.71 5.329-4.118 7.97-6.391 2.64-2.273 4.245-4.41 5.142-6.085.898-1.676 1.089-2.893.795-4.665a23.399 23.399 0 0 0-2.045-6.05c-.968-1.941-2.122-3.492-4.003-4.622a12.304 12.304 0 0 0-7.154-1.625c-2.664.218-5.382 1.366-6.088 3.15-.706 1.786.599 4.207 2.359 5.8a10.264 10.264 0 0 0 5.628 2.529c1.654.168 2.746-.262 3.763-1.765 1.018-1.502 1.96-4.077.936-5.484-1.024-1.408-4.013-1.65-6.731-.105s-5.16 4.874-4.663 7.76c.496 2.886 3.93 5.323 6.174 6.339 2.243 1.016 3.294.607 4.364-.552a12.288 12.288 0 0 0 2.632-4.943c.474-1.872.334-3.703.748-3.82.413-.117 1.38 1.48 1.407 3.294.026 1.815-.893 3.846-2.297 5.662-1.404 1.817-3.295 3.42-5.845 3.604-2.55.183-5.76-1.053-8.843-2.595-3.083-1.543-6.04-3.391-7.532-5.077-1.491-1.685-1.518-3.208-.756-3.168.763.039 2.315 1.639 3.477 2.469 1.163.83 1.937.889 2.355.24.418-.65.48-2.007.026-3.193-.454-1.186-1.424-2.2-1.656-3.611-.231-1.411.276-3.221.869-3.94.594-.716 1.272-.341 1.966-.53a2.69 2.69 0 0 0 1.618-1.615c.22-.674-.05-1.271.209-2.02.258-.748 1.044-1.65 1.98-2.367.937-.717 2.027-1.251.844-1.726-1.182-.476-4.64-.89-7.725-1.211-3.087-.322-5.807-.551-9.17.68-3.362 1.23-7.368 3.922-8.647 6.412-1.28 2.49.169 4.783 1.287 7.003 1.118 2.22 1.907 4.369 2.182 6.499.275 2.13.035 4.24-.237 6.438-.272 2.198-.577 4.482-.942 5.89-.364 1.41-.787 1.943-2.204 1.673-1.417-.27-3.826-1.34-5.82-3.093-1.993-1.753-3.57-4.187-4.645-6.177-1.074-1.991-1.642-3.538-.144-6.015s5.065-5.884 7.287-7.903c2.222-2.02 3.1-2.652 3.822-3.916.723-1.263 1.29-3.16 2.825-4.782 1.535-1.623 4.04-2.974 6.245-3.552 2.204-.58 4.108-.39 5.336-.813 1.228-.424 1.78-1.463 2.732-2.4a7.737 7.737 0 0 1 4.139-2.1c1.836-.328 4.157-.15 6.269-.016 2.11.132 4.012.22 5.757.312 1.745.093 3.334.189 4.528.684 1.194.495 1.994 1.388 2.718 2.189a10.062 10.062 0 0 0 3.069 2.45c1.698.939 4.447 2.105 6.578 4.24 2.13 2.135 3.646 5.239 4.596 8.62.95 3.383 1.334 7.043 1.926 8.783.592 1.74 1.389 1.56 2.795.139 1.406-1.42 3.42-4.081 5.4-5.327 1.979-1.246 3.925-1.077 4.972-1.642 1.046-.565 1.194-1.863 1.34-3.16"/></g></g></g></svg>