<svg xmlns="http://www.w3.org/2000/svg" width="375" height="66" viewBox="0 0 375 66"><g><g><g><g><g><path fill="#9b6a70" d="M198.622 33.449a9.118 9.118 0 0 1 1.979-.867c.684 1.104 1.136 2.499 1.296 4.004a28.735 28.735 0 0 1-.029 7.004c-.27 2.374-.815 4.654-1.608 6.732-1.366 3.44-3.385 5.366-4.613 6.538-.142.133-.276.26-.311.295l-.257.253a2.966 2.966 0 0 1-.642.555c-.096.033-.212-.344-.51-1.492a44.411 44.411 0 0 1-1.009-5.05 29.405 29.405 0 0 1-.204-6.84c.255-2.499.938-4.847 1.98-6.804 1.041-1.944 2.395-3.436 3.928-4.328zm2.887-1.099zm0 0c.069.417.159.824.269 1.219a7.842 7.842 0 0 0-.562-1.154c.097-.023.195-.045.293-.065zm1.144 1.942a9.988 9.988 0 0 1-.56-2.046 10.76 10.76 0 0 1 2.156-.1c1.966.107 3.81.755 5.036 1.87.838.744 1.503 1.875 1.898 3.233a11.98 11.98 0 0 1 .373 4.597c-.06.456-.102.628-.143.623-.3-.142-.584-.35-.846-.616-.223-.192-.48-.412-.781-.647-.471-.37-1.035-.767-1.639-1.19-1.325-.933-2.837-1.996-3.883-3.146-.644-.683-1.193-1.56-1.61-2.578zm-3.244-7.852c.388.112.76.331 1.097.65-.19.034-.372.063-.547.087-.584.11-1.175.1-1.758-.026a.996.996 0 0 1-.539-.34.364.364 0 0 1-.074-.18.182.182 0 0 1 .03-.116.443.443 0 0 1 .23-.159 2.622 2.622 0 0 1 1.56.084zm-.087 4.668c.317.273.618.588.899.942-.636.208-1.26.49-1.867.846-1.625.942-3.06 2.522-4.166 4.581-1.082 2.031-1.792 4.468-2.058 7.061a30.033 30.033 0 0 0 .208 6.999c.246 1.75.588 3.463 1.023 5.124.416 1.6.654 2.1 1.23 1.905a2.88 2.88 0 0 0 .872-.7l.254-.247c.156-.151.227-.22.306-.294 1.267-1.209 3.353-3.197 4.772-6.773.815-2.132 1.375-4.471 1.652-6.906.302-2.367.31-4.8.027-7.17a14.376 14.376 0 0 0-.388-1.98l.024.064c.449 1.09 1.036 2.03 1.728 2.76 1.087 1.198 2.626 2.278 3.976 3.228.596.419 1.154.812 1.616 1.174.285.224.54.442.762.632.485.415.828.708 1.139.744.442.05.683-.275.805-1.186a12.723 12.723 0 0 0-.392-4.872c-.432-1.477-1.157-2.707-2.072-3.513-1.323-1.202-3.289-1.9-5.374-2.014a11.255 11.255 0 0 0-2.294.11l-.001-.012c-.057-.49-.088-.988-.117-1.466-.062-.988-.117-1.894-.402-2.626a31.427 31.427 0 0 0 2.372-.688 3.021 3.021 0 0 1-.19-.59c-.27.09-.539.175-.8.254-.598.182-1.161.334-1.68.453l-.047-.067c-.45-.538-.98-.898-1.542-1.047a3.18 3.18 0 0 0-1.92-.076 1.05 1.05 0 0 0-.533.404.855.855 0 0 0-.14.54c.02.198.087.379.188.506.24.293.526.483.83.553a4.892 4.892 0 0 0 1.987.045c.275-.038.568-.09.876-.153.295.656.353 1.56.413 2.556.03.483.061.982.122 1.504l.002.016a9.824 9.824 0 0 0-.57.133 7.5 7.5 0 0 0-1.15-1.251c-1.794-1.564-4.72-2.725-9.584-3.39-9.005-1.23-24.74-.775-40.91-.211l-.009.63c16.144-.562 31.853-1.017 40.826.21 4.748.648 7.583 1.764 9.297 3.258z"/><path fill="none" stroke="#9b6a70" stroke-miterlimit="50" d="M198.622 33.449a9.118 9.118 0 0 1 1.979-.867c.684 1.104 1.136 2.499 1.296 4.004a28.735 28.735 0 0 1-.029 7.004c-.27 2.374-.815 4.654-1.608 6.732-1.366 3.44-3.385 5.366-4.613 6.538-.142.133-.276.26-.311.295l-.257.253a2.966 2.966 0 0 1-.642.555c-.096.033-.212-.344-.51-1.492a44.411 44.411 0 0 1-1.009-5.05 29.405 29.405 0 0 1-.204-6.84c.255-2.499.938-4.847 1.98-6.804 1.041-1.944 2.395-3.436 3.928-4.328zm2.887-1.099s0 0 0 0 0 0 0 0zm0 0c.069.417.159.824.269 1.219a7.842 7.842 0 0 0-.562-1.154c.097-.023.195-.045.293-.065zm1.144 1.942a9.988 9.988 0 0 1-.56-2.046 10.76 10.76 0 0 1 2.156-.1c1.966.107 3.81.755 5.036 1.87.838.744 1.503 1.875 1.898 3.233a11.98 11.98 0 0 1 .373 4.597c-.06.456-.102.628-.143.623-.3-.142-.584-.35-.846-.616-.223-.192-.48-.412-.781-.647-.471-.37-1.035-.767-1.639-1.19-1.325-.933-2.837-1.996-3.883-3.146-.644-.683-1.193-1.56-1.61-2.578zm-3.244-7.852c.388.112.76.331 1.097.65-.19.034-.372.063-.547.087-.584.11-1.175.1-1.758-.026a.996.996 0 0 1-.539-.34.364.364 0 0 1-.074-.18.182.182 0 0 1 .03-.116.443.443 0 0 1 .23-.159 2.622 2.622 0 0 1 1.56.084zm-.087 4.668c.317.273.618.588.899.942-.636.208-1.26.49-1.867.846-1.625.942-3.06 2.522-4.166 4.581-1.082 2.031-1.792 4.468-2.058 7.061a30.033 30.033 0 0 0 .208 6.999c.246 1.75.588 3.463 1.023 5.124.416 1.6.654 2.1 1.23 1.905a2.88 2.88 0 0 0 .872-.7l.254-.247c.156-.151.227-.22.306-.294 1.267-1.209 3.353-3.197 4.772-6.773.815-2.132 1.375-4.471 1.652-6.906.302-2.367.31-4.8.027-7.17a14.376 14.376 0 0 0-.388-1.98l.024.064c.449 1.09 1.036 2.03 1.728 2.76 1.087 1.198 2.626 2.278 3.976 3.228.596.419 1.154.812 1.616 1.174.285.224.54.442.762.632.485.415.828.708 1.139.744.442.05.683-.275.805-1.186a12.723 12.723 0 0 0-.392-4.872c-.432-1.477-1.157-2.707-2.072-3.513-1.323-1.202-3.289-1.9-5.374-2.014a11.255 11.255 0 0 0-2.294.11l-.001-.012c-.057-.49-.088-.988-.117-1.466-.062-.988-.117-1.894-.402-2.626a31.427 31.427 0 0 0 2.372-.688 3.021 3.021 0 0 1-.19-.59c-.27.09-.539.175-.8.254-.598.182-1.161.334-1.68.453l-.047-.067c-.45-.538-.98-.898-1.542-1.047a3.18 3.18 0 0 0-1.92-.076 1.05 1.05 0 0 0-.533.404.855.855 0 0 0-.14.54c.02.198.087.379.188.506.24.293.526.483.83.553a4.892 4.892 0 0 0 1.987.045c.275-.038.568-.09.876-.153.295.656.353 1.56.413 2.556.03.483.061.982.122 1.504l.002.016a9.824 9.824 0 0 0-.57.133 7.5 7.5 0 0 0-1.15-1.251c-1.794-1.564-4.72-2.725-9.584-3.39-9.005-1.23-24.74-.775-40.91-.211l-.009.63c16.144-.562 31.853-1.017 40.826.21 4.748.648 7.583 1.764 9.297 3.258z"/></g><g><path fill="#9b6a70" d="M128.269 21.393c-.745 1.222-2.009 2.15-3.61 2.875-.161.074-.327.145-.495.214-1.237-.775-2.38-1.87-3.375-3.236-1-1.39-1.79-3.1-2.313-5.01a17.902 17.902 0 0 1-.596-5.749c.131-1.722.47-3.392.998-4.925a27.023 27.023 0 0 1 1.346-3.278c.21-.435.296-.646.303-.643.158.083.444.553.983 1.436.21.345.458.749.708 1.15.18.286.453.718.749 1.183 1.982 3.12 5.012 7.887 5.823 11.36.445 1.91.213 3.418-.521 4.623zm-21.952 9.82c.105-.164.22-.314.342-.446a7.305 7.305 0 0 1 2.538.682c1.369.655 2.68 1.559 3.907 2.694 1.241 1.081 2.386 2.403 3.407 3.933.788 1.168 1.401 2.585 1.797 4.154.634 2.727.325 5.82.119 7.414a7.55 7.55 0 0 0-.66-1.222c-.92-1.387-2.673-3.06-4.336-4.65-.444-.424-.883-.843-1.306-1.257a41.453 41.453 0 0 1-2.52-2.665 21.2 21.2 0 0 1-1.849-2.488 15.07 15.07 0 0 1-1.303-2.552 6.782 6.782 0 0 1-.502-2.097c-.027-.558.107-1.106.366-1.5zM90.242 46.279c.044.546.05 1.096.018 1.643a1.46 1.46 0 0 1-.427.046c-.82-.108-1.626-.41-2.387-.893-.956-.54-2.028-1.27-3.138-2.036l-.412-.284c-2.12-1.463-4.321-2.982-5.81-3.541a4.995 4.995 0 0 0-1.289-.308c.471-.353.954-.668 1.445-.945a9.835 9.835 0 0 1 1.949-.85 8.038 8.038 0 0 1 2.921-.317 7.413 7.413 0 0 1 2.755.746c.794.394 1.545.973 2.225 1.717.617.66 1.146 1.496 1.557 2.462.318.776.52 1.65.593 2.56zm61.493-18.802a.318.318 0 0 0 .284-.335c-.006-.177-.144-.307-.308-.295-7.341.494-14.682.99-20.052.217-2.257-.262-4.485-.954-6.631-2.06l-.217-.122.069-.032c1.71-.774 3.067-1.78 3.884-3.118.826-1.357 1.092-3.034.602-5.13-.835-3.577-3.9-8.398-5.906-11.555-.245-.387-.475-.748-.744-1.179-.298-.475-.518-.836-.707-1.145-.594-.974-.91-1.49-1.207-1.648-.487-.258-.707.112-1.106.932a27.564 27.564 0 0 0-1.378 3.36 20.4 20.4 0 0 0-1.031 5.095 18.58 18.58 0 0 0 .617 5.966c.545 1.986 1.367 3.764 2.407 5.21.934 1.286 1.994 2.34 3.14 3.122-2.275.828-4.985 1.354-7.378 1.818-.915.177-1.784.346-2.569.52-1.305.271-2.598.65-3.876 1.134a11.34 11.34 0 0 0-2.371 1.237c-.281.19-.553.41-.815.655a5.688 5.688 0 0 0-1.378.138c-1.48.394-2.894 1.237-4.16 2.48a28.131 28.131 0 0 0-3.538 4.167 52.846 52.846 0 0 0-2.728 4.263 93.164 93.164 0 0 0-1.97 3.622l-.053.101c-.658 1.262-1.153 2.212-1.746 2.703.014-.465.003-.93-.034-1.392a9.299 9.299 0 0 0-.64-2.752c-.442-1.037-1.009-1.935-1.671-2.644-.731-.799-1.537-1.42-2.391-1.844a7.956 7.956 0 0 0-2.961-.801 8.61 8.61 0 0 0-3.129.338c-.702.218-1.394.52-2.066.902-.696.387-1.372.855-2.023 1.398-.262.227-.341.371-.176.592.103.137.219.133.418.128a4.157 4.157 0 0 1 1.68.287c1.43.54 3.6 2.035 5.688 3.476l.413.286c1.119.77 2.2 1.507 3.181 2.061.843.532 1.734.858 2.642.966.137.005.274-.002.411-.022l-.019.184a29.536 29.536 0 0 1-.232 1.544s-.09.443-.124.596c.208-.042.416-.07.625-.09a19.803 19.803 0 0 0 .363-2.43c.885-.458 1.481-1.602 2.308-3.189l.053-.101a92.652 92.652 0 0 1 1.956-3.596 52.12 52.12 0 0 1 2.695-4.21 27.483 27.483 0 0 1 3.453-4.074c1.182-1.166 2.502-1.959 3.884-2.333.238-.054.478-.09.718-.109l-.068.107c-.328.491-.498 1.18-.465 1.881.063.822.248 1.611.542 2.306.385.963.84 1.856 1.358 2.66.59.925 1.226 1.781 1.901 2.559a42.05 42.05 0 0 0 2.558 2.703c.412.403.859.83 1.313 1.264 1.639 1.563 3.366 3.215 4.25 4.547.376.55.68 1.208.893 1.936.024.103.06.198.106.282.378.591.474.482.568-.092.028-.008.037-.039.016-.1l.048-.343.013-.098.015-.114c.188-1.355.69-4.996-.057-8.203-.413-1.644-1.055-3.13-1.881-4.354-1.052-1.577-2.23-2.94-3.509-4.054-1.272-1.176-2.631-2.112-4.05-2.79a8.314 8.314 0 0 0-2.155-.666c.09-.07.185-.138.283-.207a10.8 10.8 0 0 1 2.25-1.171 25.12 25.12 0 0 1 3.788-1.107c.776-.172 1.642-.34 2.555-.517 2.575-.5 5.513-1.07 7.926-2.016.212.132.431.26.656.384 2.207 1.14 4.498 1.852 6.82 2.123 5.432.781 12.8.284 20.17-.212z"/><path fill="none" stroke="#9b6a70" stroke-miterlimit="50" d="M128.269 21.393c-.745 1.222-2.009 2.15-3.61 2.875-.161.074-.327.145-.495.214-1.237-.775-2.38-1.87-3.375-3.236-1-1.39-1.79-3.1-2.313-5.01a17.902 17.902 0 0 1-.596-5.749c.131-1.722.47-3.392.998-4.925a27.023 27.023 0 0 1 1.346-3.278c.21-.435.296-.646.303-.643.158.083.444.553.983 1.436.21.345.458.749.708 1.15.18.286.453.718.749 1.183 1.982 3.12 5.012 7.887 5.823 11.36.445 1.91.213 3.418-.521 4.623zm-21.952 9.82c.105-.164.22-.314.342-.446a7.305 7.305 0 0 1 2.538.682c1.369.655 2.68 1.559 3.907 2.694 1.241 1.081 2.386 2.403 3.407 3.933.788 1.168 1.401 2.585 1.797 4.154.634 2.727.325 5.82.119 7.414a7.55 7.55 0 0 0-.66-1.222c-.92-1.387-2.673-3.06-4.336-4.65-.444-.424-.883-.843-1.306-1.257a41.453 41.453 0 0 1-2.52-2.665 21.2 21.2 0 0 1-1.849-2.488 15.07 15.07 0 0 1-1.303-2.552 6.782 6.782 0 0 1-.502-2.097c-.027-.558.107-1.106.366-1.5zM90.242 46.279c.044.546.05 1.096.018 1.643a1.46 1.46 0 0 1-.427.046c-.82-.108-1.626-.41-2.387-.893-.956-.54-2.028-1.27-3.138-2.036l-.412-.284c-2.12-1.463-4.321-2.982-5.81-3.541a4.995 4.995 0 0 0-1.289-.308c.471-.353.954-.668 1.445-.945a9.835 9.835 0 0 1 1.949-.85 8.038 8.038 0 0 1 2.921-.317 7.413 7.413 0 0 1 2.755.746c.794.394 1.545.973 2.225 1.717.617.66 1.146 1.496 1.557 2.462.318.776.52 1.65.593 2.56zm61.493-18.802a.318.318 0 0 0 .284-.335c-.006-.177-.144-.307-.308-.295-7.341.494-14.682.99-20.052.217-2.257-.262-4.485-.954-6.631-2.06l-.217-.122.069-.032c1.71-.774 3.067-1.78 3.884-3.118.826-1.357 1.092-3.034.602-5.13-.835-3.577-3.9-8.398-5.906-11.555-.245-.387-.475-.748-.744-1.179-.298-.475-.518-.836-.707-1.145-.594-.974-.91-1.49-1.207-1.648-.487-.258-.707.112-1.106.932a27.564 27.564 0 0 0-1.378 3.36 20.4 20.4 0 0 0-1.031 5.095 18.58 18.58 0 0 0 .617 5.966c.545 1.986 1.367 3.764 2.407 5.21.934 1.286 1.994 2.34 3.14 3.122-2.275.828-4.985 1.354-7.378 1.818-.915.177-1.784.346-2.569.52-1.305.271-2.598.65-3.876 1.134a11.34 11.34 0 0 0-2.371 1.237c-.281.19-.553.41-.815.655a5.688 5.688 0 0 0-1.378.138c-1.48.394-2.894 1.237-4.16 2.48a28.131 28.131 0 0 0-3.538 4.167 52.846 52.846 0 0 0-2.728 4.263 93.164 93.164 0 0 0-1.97 3.622l-.053.101c-.658 1.262-1.153 2.212-1.746 2.703.014-.465.003-.93-.034-1.392a9.299 9.299 0 0 0-.64-2.752c-.442-1.037-1.009-1.935-1.671-2.644-.731-.799-1.537-1.42-2.391-1.844a7.956 7.956 0 0 0-2.961-.801 8.61 8.61 0 0 0-3.129.338c-.702.218-1.394.52-2.066.902-.696.387-1.372.855-2.023 1.398-.262.227-.341.371-.176.592.103.137.219.133.418.128a4.157 4.157 0 0 1 1.68.287c1.43.54 3.6 2.035 5.688 3.476l.413.286c1.119.77 2.2 1.507 3.181 2.061.843.532 1.734.858 2.642.966.137.005.274-.002.411-.022l-.019.184a29.536 29.536 0 0 1-.232 1.544s-.09.443-.124.596c.208-.042.416-.07.625-.09a19.803 19.803 0 0 0 .363-2.43c.885-.458 1.481-1.602 2.308-3.189l.053-.101a92.652 92.652 0 0 1 1.956-3.596 52.12 52.12 0 0 1 2.695-4.21 27.483 27.483 0 0 1 3.453-4.074c1.182-1.166 2.502-1.959 3.884-2.333.238-.054.478-.09.718-.109l-.068.107c-.328.491-.498 1.18-.465 1.881.063.822.248 1.611.542 2.306.385.963.84 1.856 1.358 2.66.59.925 1.226 1.781 1.901 2.559a42.05 42.05 0 0 0 2.558 2.703c.412.403.859.83 1.313 1.264 1.639 1.563 3.366 3.215 4.25 4.547.376.55.68 1.208.893 1.936.024.103.06.198.106.282.378.591.474.482.568-.092.028-.008.037-.039.016-.1l.048-.343.013-.098.015-.114c.188-1.355.69-4.996-.057-8.203-.413-1.644-1.055-3.13-1.881-4.354-1.052-1.577-2.23-2.94-3.509-4.054-1.272-1.176-2.631-2.112-4.05-2.79a8.314 8.314 0 0 0-2.155-.666c.09-.07.185-.138.283-.207a10.8 10.8 0 0 1 2.25-1.171 25.12 25.12 0 0 1 3.788-1.107c.776-.172 1.642-.34 2.555-.517 2.575-.5 5.513-1.07 7.926-2.016.212.132.431.26.656.384 2.207 1.14 4.498 1.852 6.82 2.123 5.432.781 12.8.284 20.17-.212z"/></g></g><g><path fill="none" stroke="#9b6a70" stroke-miterlimit="50" stroke-width="1.6" d="M90.215 50.699v0s-2.52 14.5-11.06 13.673c-8.539-.827-14.325-12.811-19.62-11.924-5.294.888-20.146.946-19.646 5.407.5 4.462 6.296-1.513 7.241-8.52.945-7.008 4.248-18.302-3.46-19.513-7.707-1.21-14.187-6.138-19.325-2.293-5.137 3.845-19.433 3.9-24.359 3.9"/></g><g><path fill="none" stroke="#9b6a70" stroke-miterlimit="50" stroke-width="1.75" d="M203.542 26.605v0s19.89-7.112 22.905-10.078c3.015-2.967-1.777-3.776-2.725-2.878-.948.898-4.415 12.92 1.6 13.157 6.014.237 13.038-2.968 21.959 3.7 8.92 6.67 7.384-3.526 21.654-5.601 14.27-2.076 21.857-13.52 35.424-2.7 13.566 10.821 6.417 10.773 8.557 14.364 2.14 3.59 6.317-2.406 7.887-5.322 1.57-2.916 1.435-9.859-1.604-6.342-3.039 3.516-2.393 8.549.931 11.666 3.325 3.117 6.101 4.871 12.368.798 6.266-4.072 12.603-8.631 15.8-6.86 3.198 1.772 15.147-7.52 20.12 8.287 4.973 15.807 4.698 12.753 6.582 12.753"/></g></g></g></g></svg>