<svg xmlns="http://www.w3.org/2000/svg" width="375" height="178" viewBox="0 0 375 178"><g><g><path fill="#f95b30" d="M.145 116.742c7.114 2.82 14.042 6.146 21.81 6.035 11.75-.168 22.2-6.618 33.097-10.34 19.545-6.675 40.23-10.382 60.697-12.106 18.657-1.57 40.455-2.65 58.036 5.398 16.413 7.514 30.352 21.827 44.2 33.372 14.653 12.215 30.32 25.44 48.398 31.527 16.084 5.417 34.783 4.185 51.438 3.476 19.057-.811 38.064-2.606 57.148-2.644v4.017c-18.787.104-37.526 1.57-56.302 2.045-16.61.42-35.13 1.291-51.11-4.215-18.6-6.408-34.762-19.916-49.95-32.44-14.377-11.854-28.754-26.204-45.667-34.047-17.078-7.919-37.89-7.113-56.083-5.62-19.841 1.629-39.977 5.19-58.852 11.905-11.123 3.957-21.71 10.317-33.728 10.708-8.191.267-15.593-3-23.131-5.907z"/></g><g><path fill="#f95b30" d="M.145 112.678c6.32 2.542 12.288 5.96 19.208 6.21 10.81.391 20.71-5.864 30.759-9.046 21.893-6.932 44.757-11.18 67.54-13.129 19.27-1.648 42.414-3.159 60.69 4.902 14.748 6.505 27.216 20.022 39.406 30.513 14.008 12.055 29.456 25.763 47.487 30.363 15.841 4.04 33.67 2.032 49.702.503 20.001-1.908 39.908-4.819 60.032-4.677v4.178c-19.854-.09-39.54 2.475-59.308 4.032-15.95 1.256-33.658 2.97-49.35-1.204-18.482-4.914-34.333-18.896-48.79-31.242-12.554-10.72-25.349-24.348-40.46-31.071-17.985-8.001-40.584-6.672-59.585-5.093-22.4 1.86-44.935 5.978-66.415 12.949-10.171 3.3-20.11 9.55-31.061 9.334-7.138-.14-13.349-3.543-19.854-6.192z"/></g><g><path fill="#f95b30" d="M.145 108.144c6.17 2.117 11.812 5.539 18.413 6.06 10.654.844 20.526-5.286 30.46-8.27 22.692-6.815 46.145-11.433 69.657-13.647 19.763-1.86 44.01-3.824 62.839 4.346 13.779 5.98 25.37 19.042 36.64 28.903 12.798 11.196 27.215 24.134 44.017 27.75 16.358 3.52 34.418.65 50.725-1.76 20.638-3.05 41.15-7.094 62.073-6.811v4.314c-20.682-.244-41.02 3.44-61.475 6.127-16.208 2.13-34.244 4.764-50.421 1.045-17.161-3.944-31.846-17.076-45-28.54-11.522-10.043-23.361-23.261-37.414-29.381-18.713-8.15-42.713-6.308-62.378-4.512-23.36 2.133-46.7 6.641-69.22 13.492-9.924 3.02-19.797 9.212-30.451 8.492-6.642-.449-12.317-3.872-18.464-6.14z"/></g><g><path fill="#f95b30" d="M.145 103.236c6.643 1.499 12.647 4.985 19.505 5.649 10.6 1.026 19.968-4.473 29.875-7.414 23.684-7.029 48.057-12.158 72.578-14.564 19.447-1.908 43.217-3.91 61.715 4.052 12.576 5.412 23.202 17.671 33.453 26.709 12.047 10.62 25.739 23 41.717 26.08 16.79 3.237 35.297-.57 51.775-3.851 21.278-4.238 42.41-9.549 64.206-9.165v4.425c-21.583-.357-42.584 4.57-63.73 8.435-16.417 3-34.895 6.534-51.534 3.116-16.242-3.336-30.146-15.964-42.431-26.797-10.406-9.177-21.205-21.608-33.974-27.102-18.527-7.972-42.293-6.038-61.781-4.19-24.561 2.33-49.01 7.356-72.721 14.425-9.772 2.913-19.137 8.534-29.606 7.576-6.75-.616-12.586-4.082-19.047-5.809z"/></g><g><path fill="#f95b30" d="M.145 98.045c7.452.612 14.396 4.208 21.863 4.99 11.216 1.177 20.699-3.869 31.22-6.992 23.239-6.9 47.035-12.33 71.078-14.968 19.074-2.093 42.394-4.2 60.567 3.643 12.116 5.23 22.325 16.927 32.249 25.589 11.474 10.015 24.646 21.615 39.948 23.94 17.263 2.624 35.78-2.03 52.432-6.228 21.592-5.444 43.055-12.014 65.467-11.572v4.511c-22.229-.428-43.602 5.74-65.114 10.803-16.6 3.908-35.127 8.297-52.243 5.477-15.49-2.554-28.8-14.397-40.425-24.59-10.001-8.77-20.32-20.645-32.557-25.92-18.31-7.893-41.842-5.802-61.07-3.766-24.244 2.566-48.273 7.906-71.705 14.846-10.3 3.051-19.732 8.256-30.724 7.11-7.236-.753-13.82-4.305-20.985-5.22z"/></g><g><path fill="#f95b30" d="M.145 92.664c8.517-.444 16.933 3.301 25.371 4.149 12.044 1.21 21.858-3.268 33.187-6.698 22.35-6.766 45.144-12.468 68.278-15.325 18.404-2.272 40.688-4.341 58.246 3.279 11.855 5.144 21.825 16.272 31.644 24.644 11.153 9.51 24.005 20.341 38.843 21.996 17.71 1.975 36.137-3.52 52.913-8.666 21.741-6.669 43.405-14.562 66.342-14.105v4.573c-22.782-.457-44.396 7.014-66.109 13.297-16.743 4.845-35.208 10.074-52.782 7.894-14.961-1.857-27.898-12.928-39.126-22.588-9.83-8.456-19.86-19.762-31.777-24.923-17.778-7.7-40.44-5.606-59.08-3.39-23.458 2.79-46.606 8.41-69.275 15.218-11.063 3.322-20.742 7.987-32.511 6.779-8.097-.832-16.005-4.531-24.164-4.43z"/></g><g><path fill="#f95b30" d="M.145 87.187c9.757-1.624 20.048 2.29 29.742 3.17 12.967 1.18 23.415-2.664 35.628-6.493 21.148-6.63 42.631-12.583 64.546-15.649 17.518-2.45 38.358-4.386 55.089 2.944 24.91 10.913 40.89 41.955 69.777 44.059 41.832 3.045 78.264-28.698 120.042-27.933v4.61c-41.49-.79-78.31 29.81-119.857 26.291-29.045-2.46-44.8-33.879-69.907-44.84-17.01-7.425-38.336-5.44-56.15-3.046-22.323 3.001-44.244 8.877-65.796 15.55-11.932 3.695-22.147 7.743-34.819 6.55-9.265-.872-18.953-4.755-28.295-3.49z"/></g><g><path fill="#f95b30" d="M.145 81.707c11.172-2.77 23.486 1.206 34.69 2.106 13.908 1.117 25.286-2.044 38.395-6.35 19.758-6.49 39.742-12.679 60.253-15.952 16.492-2.632 35.664-4.388 51.424 2.627 24.4 10.86 41.333 40.68 69.812 41.722 42.601 1.56 77.657-33.925 120.25-33.295v4.622c-42.354-.682-77.866 33.611-120.247 31.59-28.594-1.363-45.194-31.571-69.737-42.433-16.075-7.114-35.784-5.3-52.609-2.725-20.964 3.209-41.432 9.325-61.638 15.859-12.83 4.148-23.887 7.528-37.5 6.39-10.711-.895-22.379-4.857-33.092-2.446z"/></g><g><path fill="#f95b30" d="M.145 76.316c12.566-3.878 26.841.047 39.581.978 15.197 1.11 28.132-1.509 42.491-6.483 17.62-6.105 35.338-12.233 53.636-15.723 15.743-3.002 33.684-4.814 48.783 2.052 24.164 10.989 42.68 40.01 71.12 39.578 42.902-.652 76.154-39.276 119.213-38.86v4.61c-43.068-.486-77.037 37.666-120.053 37.093-28.26-.377-46.009-29.327-70.134-40.227-15.052-6.802-33.037-5.173-48.787-2.414-19.504 3.417-38.41 9.764-57.173 16.156-13.708 4.67-25.87 7.339-40.405 6.267-12.327-.908-26.073-4.905-38.271-1.35z"/></g><g><path fill="#f95b30" d="M.145 71.108c14.041-4.989 30.396-1.08 44.783-.114 16.048 1.078 30.295-.791 45.453-6.354 16.289-5.978 32.551-12.317 49.488-16.016 14.722-3.215 30.938-4.837 45.06 1.726 23.91 11.11 43.578 38.802 71.813 37.513 43.257-1.974 74.647-44.715 118.227-44.622v4.573c-43.428-.206-75.44 41.224-118.601 42.79-28.296 1.027-47.603-27.084-71.586-38.152-14.42-6.655-31.158-4.976-46.191-1.83-17.351 3.632-34.058 9.905-50.75 15.922-14.914 5.377-28.742 7.49-44.53 6.398-13.87-.96-29.585-4.867-43.165-.225z"/></g><g><path fill="#f95b30" d="M.145 66.176c15.426-6.076 33.748-2.145 49.706-1.147 16.814 1.052 32.425-.05 48.306-6.185 26.17-10.111 59.813-28.168 87.695-14.947 23.704 11.24 44.428 37.596 72.481 35.504 43.473-3.243 72.639-50.27 116.636-50.607v4.511c-43.877.19-73.781 45.856-117.2 48.705-28.11 1.843-48.524-24.93-72.29-36.133-28.34-13.36-63 4.574-89.695 14.735-15.664 5.962-30.847 7.3-47.431 6.245-15.48-.986-33.2-4.906-48.207.831z"/></g><g><path fill="#f95b30" d="M.145 61.612c16.998-6.515 35.984-3.193 53.604-2.1 17.934 1.113 35.085.634 52.013-6.172 24.783-9.965 55.196-28.022 81.861-15.408 23.108 10.93 43.75 35.159 70.88 33.647 44.738-2.494 71.447-56.1 116.466-56.984v4.425c-44.924.694-72.53 52.93-117.218 54.988-27.19 1.253-47.625-23.327-70.795-34.264-26.95-12.72-58.124 5.162-83.256 15.172-16.736 6.666-33.496 7.364-51.23 6.26C35.677 60.13 16.275 56.255.145 62.999z"/></g><g><path fill="#f95b30" d="M.145 57.51c17.949-7.465 38.335-4.064 57.087-2.87 18.511 1.18 36.72 1.298 54.231-5.819 24.16-9.82 52.875-28.606 79.098-16.224 22.901 10.813 43.856 33.974 70.755 31.623 20.303-1.774 36.946-16.205 52.366-28.816 17.79-14.549 37.5-33.848 61.287-34.68v4.313c-23.82.71-43.71 19.353-61.827 33.607-15.634 12.3-32.502 26.253-52.778 27.82-26.978 2.084-47.9-21.4-70.867-32.27-26.278-12.437-55.398 6.092-79.666 15.957-17.33 7.045-35.246 7.095-53.584 5.943C37.812 54.937 17.834 51.57.146 58.742z"/></g></g></svg>