<svg xmlns="http://www.w3.org/2000/svg" xmlns:xlink="http://www.w3.org/1999/xlink" width="1600" height="1073" viewBox="0 0 1600 1073"><defs><style>.a{fill:none;stroke:#707070;}.b{fill:#1c2f82;}.c{clip-path:url(#a);}.d{fill:#f95b30;stroke:rgba(0,0,0,0);stroke-miterlimit:10;}</style><clipPath id="a"><rect class="a" width="1600" height="700" transform="translate(0 373)"/></clipPath></defs><g transform="translate(0 -0.327)"><rect class="b" width="1600" height="1073" transform="translate(0 0.327)"/><g class="c"><path class="d" d="M14128.929-4837.285c-78.947-20.059-146.652-77.128-208.408-127.517-53.624-43.758-108.273-99.379-172.823-126.82-76.822-32.655-173.354-27.228-254.521-20.788-95.676,7.594-191.937,24.4-283.692,52.853-43.447,13.473-85.9,38.977-132.677,38.1-30.285-.568-56.661-14.271-84.246-25.049v-5.434c26.788,10.351,52.132,24.113,81.481,25.129,46.175,1.6,88.46-23.935,131.388-36.923,93.52-28.291,191.18-45.628,288.5-53.583,82.316-6.729,181.174-12.893,259.245,20.007,62.993,26.549,116.248,81.72,168.316,124.536,59.835,49.2,125.823,105.155,202.844,123.931,67.666,16.494,143.822,8.3,212.3,2.053,85.272-7.773,170.14-19.624,255.93-19.09v17.053c-84.641-.324-168.56,10.113-252.835,16.456-35.62,2.681-73.306,5.871-110.728,5.875C14194.848-4826.5,14160.911-4829.159,14128.929-4837.285Zm-47.04,10.784c-58.093-29.08-110.792-71.045-161-110.6-61.411-48.386-122.824-106.956-195.068-138.965-72.947-32.325-161.853-29.035-239.562-22.94-84.751,6.648-170.762,21.184-251.384,48.591-47.514,16.149-92.732,42.108-144.072,43.7-34.784,1.083-66.234-12.085-98.243-23.9v-4.747c30.191,11.464,59.62,24.866,92.6,24.417,50.189-.686,94.829-27.011,141.374-42.2,83.489-27.246,171.839-42.375,259.268-49.409,79.693-6.41,172.807-10.818,247.9,22.031,70.109,30.671,129.648,89.087,188.8,136.208,54.6,43.494,112.5,90.124,177.651,117.813Zm33.207-48.019c-73.3-16.1-136.027-69.7-192.212-116.49-49.22-40.99-99.793-94.939-159.819-119.918-79.933-33.264-182.448-25.743-266.449-18.416a1543.339,1543.339,0,0,0-295.674,55.071c-42.389,12.321-84.562,37.6-130.069,34.66-28.17-1.82-52.264-15.6-78.311-24.86v-6.006c26.131,8.656,50.094,22.437,78.086,24.552,45.51,3.44,87.682-21.577,130.114-33.754a1602.162,1602.162,0,0,1,297.538-55.706c84.417-7.59,187.989-15.606,268.416,17.737,58.858,24.408,108.369,77.723,156.512,117.972,54.665,45.7,116.247,98.5,188.019,113.263,69.87,14.367,147.015,2.651,216.674-7.187,87.982-12.426,175.445-28.892,264.643-27.8v17.606c-88.174-.931-174.885,14.067-262.093,25.018-44,5.526-91.173,11.881-137.442,11.881C14166.5-4866.9,14140.274-4868.987,14115.1-4874.52Zm-14.386-38.746c-69.377-13.616-128.77-65.156-181.243-109.376-44.451-37.455-90.578-88.188-145.118-110.612-79.142-32.541-180.655-24.649-263.9-17.107-104.912,9.509-209.349,30.026-310.633,58.882-41.736,11.888-81.739,34.829-126.458,30.92-28.632-2.5-53.423-16.47-80.8-23.565v-6.451c28.148,6.183,53.652,20.24,82.752,22.932,45.277,4.188,85.294-18.255,127.611-30.26,101.163-28.687,205.276-49.622,310.017-59.442,83.067-7.789,184.6-15.959,263.618,16.538,53.721,22.09,99.108,72.127,142.9,109.014,51.457,43.348,109.941,93.875,178.2,106.445,71.717,13.213,150.765-2.321,221.151-15.716,90.729-17.267,180.834-38.9,273.759-37.415v18.064c-92.014-1.378-181.566,18.69-271.722,34.433-49.677,8.672-103.771,18.441-156.362,18.441A331.433,331.433,0,0,1,14100.71-4913.266Zm-8.936-38.654c-66.169-10.422-123.028-58.761-172.683-100.363-42.718-35.794-86.794-84.261-139.067-105.794-78.21-32.218-178.727-23.681-260.854-15.375-103.568,10.477-206.206,32.273-306.295,60.6-44,12.45-84.282,33.692-131.238,29.017-30.715-3.058-58.684-17.39-89.076-21.231v-6.775c31.617,2.625,61.117,17.146,92.828,20.325,47.907,4.8,88.408-15.794,133.354-28.544,99.262-28.159,200.911-50.326,303.611-61.092,81.474-8.541,181.086-17.14,258.71,14.873,51.753,21.343,95.36,69.087,137.753,104.441,49.011,40.876,105.275,88.224,170.638,97.715,73.742,10.708,152.834-8.284,223.962-25.42,92.07-22.183,183.592-48.944,279.146-47.244v18.416c-94.769-1.651-185.907,23.47-277.633,44.1-55.175,12.409-115.343,26.01-173.762,26.01A316.852,316.852,0,0,1,14091.774-4951.919Zm-6.553-38.922c-63.912-7.576-119.175-52.765-167.132-92.193-41.986-34.514-84.829-80.66-135.731-101.723-75.94-31.426-172.741-22.882-252.365-13.835-100.2,11.382-199.074,34.323-295.907,62.107-47.252,13.565-88.6,32.6-138.871,27.672-34.4-3.374-68-18.329-102.653-18.087v-6.974c36.19-1.626,71.955,13.517,107.81,16.961,51.445,4.936,93.365-13.34,141.756-27.338,95.471-27.616,192.836-50.891,291.651-62.552,78.611-9.274,173.8-17.719,248.8,13.385,50.636,20.994,93.223,66.413,135.164,100.582,47.641,38.816,102.534,83.025,165.917,89.78,75.648,8.061,154.361-14.363,226.019-35.368,92.713-27.174,185.09-59.324,282.882-57.578v18.666c-97.133-1.757-189.3,28.677-281.885,54.277-60.022,16.6-125.231,34.3-189.015,34.3h-.1A307.9,307.9,0,0,1,14085.222-4990.841Zm-4.132-38.838c-124.062-10.04-191.362-138.279-298.607-183.017-72.659-30.3-163.749-22.208-239.847-12.431-95.354,12.247-188.988,36.23-281.046,63.468-50.966,15.079-94.6,31.6-148.73,26.732-39.39-3.544-80.565-19.257-120.3-14.311v-7.053c41.508-6.4,85.262,9.448,126.48,13.029,55.387,4.811,100.016-10.876,152.184-26.505,90.333-27.059,182.1-51.356,275.71-63.872,74.83-10,163.848-17.9,235.313,12.017,106.4,44.543,174.666,171.242,298.056,179.827,92.368,6.424,178.573-25.094,264.961-56.612,80.562-29.4,161.282-58.792,247.3-57.4V-5137c-84.739-1.426-164.915,26.389-244.935,54.208-78.042,27.128-155.934,54.261-237.736,54.261Q14095.574-5028.527,14081.09-5029.679Zm-1.665-38.4c-122.137-5.567-193.045-128.863-297.885-173.193-68.662-29.036-152.848-21.632-224.715-11.122-89.546,13.095-176.979,38.056-263.288,64.727-54.8,16.934-102.03,30.726-160.182,26.083-45.568-3.641-95.182-19.692-140.794-10.1v-7.013c47.571-11.044,99.946,5.068,147.617,8.728,59.4,4.562,108.007-8.339,164-25.915,84.4-26.491,169.759-51.75,257.37-65.112,70.445-10.741,152.339-17.906,219.653,10.722,104.225,44.327,176.556,166.035,298.206,170.289,92.143,3.223,176.021-32.317,260-67.862,81.719-34.584,163.534-69.172,253.15-68.037v18.863c-88.565-1.232-170.135,31.7-251.591,64.631-79.968,32.332-159.826,64.664-246.073,64.664Q14087.19-5067.731,14079.425-5068.08Zm.827-37.62c-120.713-1.541-196.523-119.7-299.575-164.187-64.3-27.763-141.118-21.115-208.4-9.85-83.308,13.942-164.07,39.85-244.211,65.94-58.553,19.062-110.5,29.953-172.592,25.578-52.466-3.694-110.949-19.9-162.915-5.667v-6.852c53.541-15.555,114.277.369,168.506,4.155,64.913,4.528,120.167-6.157,181.5-26.461,75.267-24.917,150.95-49.93,229.107-64.173,67.245-12.251,143.881-19.648,208.379,8.376,103.217,44.851,182.3,163.3,303.787,161.539,183.091-2.66,325.04-160.019,508.722-158.614v18.811c-91.673-.841-173.71,37.435-255.7,75.707-81.1,37.862-162.181,75.72-252.5,75.724C14082.99-5105.674,14081.628-5105.685,14080.252-5105.7Zm-299.575-192.276c-61.591-27.162-133.094-20.308-197.307-7.47-74.116,14.826-145.478,40.429-216.776,64.987-63.707,21.947-122.774,30.575-190.21,26.113-59.059-3.907-125.939-19.757-183.822-1.1v-6.575c59.851-20.075,129.466-4.209,190.726-.276,68.549,4.4,129.406-3.23,194.158-25.933,69.573-24.4,139.039-50.274,211.386-65.372,62.886-13.121,132.149-19.74,192.475,7.044,102.134,45.35,186.141,158.375,306.751,153.116,184.6-8.052,318.617-182.192,504.506-182.133v18.664c-185.246-.525-321.912,168.269-506.106,174.654-2.154.074-4.317.114-6.45.114C13962.623-5142.131,13881.293-5253.605,13780.677-5297.976Zm2.978-26.835c-121.057-54.529-269.1,18.668-383.132,60.139-66.908,24.334-131.767,29.8-202.6,25.489-65.931-4.011-141.372-19.932-205.358,3.191v-6.182c65.772-24.492,143.786-8.53,211.753-4.468,71.822,4.294,138.507-.2,206.342-25.247,111.786-41.265,255.494-114.969,374.588-61,101.254,45.881,189.779,153.449,309.606,144.909,185.527-13.222,310.065-204.826,497.712-206.552v18.415c-187.141,1.112-314.825,187.172-500.123,198.786-3.965.249-7.91.371-11.8.371C13966.579-5176.957,13881.817-5280.595,13783.654-5324.811Zm6.307-25.031c-115.116-51.921-248.276,21.067-355.629,61.925-71.485,27.206-143.077,30.055-218.83,25.548-71.527-4.253-154.149-20-222.94,7.217v-5.644c72.465-26.316,153.336-12.812,228.405-8.36,76.606,4.543,149.868,2.584,222.175-25.2,105.864-40.67,235.772-114.374,349.673-62.889,98.7,44.617,186.879,143.5,302.764,137.333,190.934-10.171,304.983-228.6,496.984-232.57v18.058c-191.606,3.188-309.473,216.034-500.2,224.428-2.864.128-5.727.19-8.555.19C13971.9-5209.8,13886.49-5306.3,13789.961-5349.842Zm10.855-22.655c-112.248-50.763-236.635,24.866-340.293,65.13-74.028,28.753-150.554,28.958-228.889,24.257-78.545-4.712-163.654-18.4-239.073,10.589v-5.034c76.532-30.179,163.381-16.354,243.284-11.489,79.072,4.812,156.854,5.3,231.649-23.751,103.2-40.081,225.856-116.758,337.866-66.223,97.821,44.136,187.331,138.668,302.23,129.071,86.725-7.242,157.812-66.142,223.683-117.612,75.87-59.286,159.9-137.892,261.288-141.537v17.606c-101.525,3.136-186.333,79.072-263.595,137.153-66.779,50.205-138.83,107.154-225.442,113.545q-7.267.539-14.411.532C13980.745-5240.25,13894.8-5330,13800.816-5372.5Zm16.858-19.611c-113.267-51.47-236.235,30.411-340.246,69.813-76.068,28.819-156.212,26.4-236.2,21.221-81.6-5.279-170.966-19.141-248.666,13.306v-4.286c78.229-33.549,168.85-19.425,251.218-13.927,80.632,5.383,161.36,8.207,238.184-20.513,104.879-39.215,228.022-122.551,342.278-71.056,97.038,43.736,186.795,134.767,301,119.871,86.349-11.265,153.787-77.015,216.209-132.218,70.5-62.346,151.206-148.778,251.113-154.149V-5547c-100.155,4.771-181.783,88.343-253.834,149.646-63.529,54.052-132.019,117.63-218.415,127.986a194.752,194.752,0,0,1-23.149,1.383C13993.227-5267.973,13908.421-5350.873,13817.675-5392.108Zm23.343-16.054c-119.455-51.672-245.332,36.3-355.226,75.06-78.022,27.521-159.375,23.473-240.677,17.514-82.635-6.058-174.594-20.5-252.554,15.092v-3.415c77.753-36.581,170.427-21.739,253.1-15.381,81.687,6.278,163,10.568,241.571-16.56,112.164-38.724,241.039-128.485,362.787-76.494,97.009,41.426,181.75,130.348,295.535,109.71,85.3-15.471,148.913-88.918,207.252-147.352,64.733-64.843,141.674-159.608,239.756-167.036v16.4c-98.443,6.712-176.456,98.436-242.873,162.408-59.608,57.421-124.39,128.5-209.909,142.948a190.871,190.871,0,0,1-31.922,2.691C14008.664-5292.582,13929.337-5369.956,13841.018-5408.163Z" transform="translate(-12992.063 5990)"/></g></g></svg>