<svg xmlns="http://www.w3.org/2000/svg" width="234" height="97" viewBox="0 0 234 97"><g><g><g><path fill="#026b38" d="M17.089 8.444c.906-.777 2.315-.777 3.223 0l15.785 14.25c.88.796.889 2.096.019 2.901a.181.181 0 0 1-.02.02c-.893.806-2.327.806-3.219 0L18.7 12.82 4.525 25.615c-.893.806-2.328.806-3.221 0-.88-.797-.89-2.096-.02-2.902a.181.181 0 0 0 .02-.02z"/></g></g><g><g><path fill="#026b38" d="M123.003 25.636c-.906.778-2.315.778-3.223 0l-15.785-14.248c-.88-.797-.89-2.098-.021-2.902l.021-.02c.894-.806 2.328-.806 3.22 0l14.177 12.795 14.176-12.795c.892-.806 2.326-.806 3.22 0 .88.797.889 2.096.019 2.902l-.02.02z"/></g></g><g><g><path fill="#026b38" d="M233.47 15.649c.85.83.85 2.12 0 2.952l-15.557 14.457c-.87.807-2.29.815-3.169.02l-.02-.02c-.881-.818-.881-2.132 0-2.948l13.97-12.986-13.97-12.981c-.881-.819-.881-2.133 0-2.95.87-.807 2.287-.815 3.168-.018l.02.017z"/></g></g><g><g><path fill="#026b38" d="M6.031 81.683c-.849-.83-.849-2.12 0-2.953l15.557-14.457c.87-.806 2.29-.814 3.169-.019l.021.02c.88.818.88 2.132 0 2.948l-13.97 12.985 13.97 12.982c.88.818.88 2.132 0 2.95-.87.807-2.288.815-3.168.018-.007-.006-.013-.012-.022-.018z"/></g></g><g><g><g><path fill="#026b38" d="M122.163 81.877l-13.255-11.963-13.25 11.965c-.834.754-2.176.754-3.012 0-.823-.744-.832-1.96-.019-2.713l.02-.018 14.759-13.322c.847-.726 2.164-.726 3.011 0l14.76 13.324c.823.745.832 1.96.019 2.713l-.02.018c-.838.752-2.179.75-3.013-.004"/></g></g><g><g><path fill="#026b38" d="M107.405 79.342c.849-.727 2.165-.727 3.013 0l14.758 13.322c.823.744.832 1.959.019 2.713l-.02.018c-.833.754-2.177.754-3.01 0L108.91 83.432 95.659 95.395c-.836.754-2.177.754-3.011 0-.824-.745-.832-1.96-.02-2.714l.02-.017z"/></g></g></g><g><g><g><path fill="#026b38" d="M203.709 79.365l13.255 11.963 13.25-11.965c.834-.756 2.175-.756 3.012 0 .823.744.831 1.959.019 2.713l-.02.018-14.759 13.321c-.847.725-2.165.725-3.011 0l-14.76-13.323c-.823-.745-.832-1.96-.019-2.714l.02-.017c.837-.752 2.179-.75 3.013.004"/></g></g><g><g><path fill="#026b38" d="M218.467 81.9c-.849.726-2.165.726-3.014 0l-14.757-13.322c-.823-.745-.832-1.96-.02-2.714l.02-.017c.834-.754 2.175-.754 3.011 0l13.255 11.963 13.25-11.963c.837-.754 2.178-.754 3.012 0 .824.744.832 1.96.02 2.713l-.02.018z"/></g></g></g></g></svg>