<svg xmlns="http://www.w3.org/2000/svg" width="50" height="45" viewBox="0 0 50 45"><g><g><g><g><path fill="#026b38" d="M18.598-.033h-15.5C1.389-.033 0 1.217 0 2.76v13.98c0 1.544 1.389 2.796 3.099 2.796h15.496c1.71 0 3.099-1.252 3.099-2.796V2.763c0-1.544-1.386-2.794-3.096-2.796"/></g></g><g><g><path fill="#026b38" d="M46.494-.033H31.001c-1.713-.003-3.102 1.247-3.105 2.79V16.74c0 1.544 1.39 2.796 3.1 2.796H46.49c1.71-.002 3.1-1.252 3.1-2.796V2.763c0-1.544-1.387-2.794-3.097-2.796"/></g></g><g><g><path fill="#026b38" d="M46.494 25.129H31.001c-1.713-.003-3.102 1.25-3.105 2.793v13.98c0 1.542 1.386 2.794 3.1 2.796H46.49c1.71 0 3.1-1.252 3.1-2.796V27.925c0-1.544-1.387-2.794-3.097-2.796"/></g></g><g><g><path fill="#026b38" d="M18.598 25.129h-15.5C1.389 25.129 0 26.38 0 27.925v13.977c0 1.542 1.386 2.794 3.099 2.796h15.496c1.71 0 3.099-1.252 3.099-2.796V27.925c0-1.544-1.386-2.794-3.096-2.796"/></g></g></g></g></svg>