<svg xmlns="http://www.w3.org/2000/svg" width="66" height="46" viewBox="0 0 66 46"><g><g><g><g><path fill="#026b38" d="M54.038 45.954H65.62V34.547z"/></g></g><g><g><path fill="#026b38" d="M6.317 20.492c-.087-7.79 6.846-14.166 15.48-14.242.105-.003.208-.003.31 0 8.635-.077 15.705 6.173 15.791 13.962v.28c.087 7.789-6.846 14.168-15.48 14.244h-.31c-8.637.077-15.705-6.176-15.791-13.965a4.826 4.826 0 0 1 0-.28m43.898 21.366l-10.423-9.4c2.904-3.436 4.458-7.645 4.423-11.965C44.29 9.548 34.513.62 22.38.552h-.273C9.975.483.077 9.3 0 20.246v.245c-.075 10.946 9.702 19.873 21.835 19.94.091.003.18.003.272 0 4.79.032 9.456-1.37 13.265-3.986l10.42 9.4z"/></g></g></g></g></svg>