<svg xmlns="http://www.w3.org/2000/svg" width="57" height="38" viewBox="0 0 57 38"><g><g><g><g><path fill="#026b38" d="M27.213 26.132c-4.223-.626-7.08-4.221-6.387-8.03.538-2.956 3.107-5.274 6.387-5.762V.535H1.297C.58.535 0 1.057 0 1.703v8.185h6.478c.716 0 1.297.522 1.297 1.168v3.509h.006c2.863.002 5.181 2.098 5.178 4.678-.002 2.579-2.317 4.67-5.178 4.672h-.006v3.506c0 .646-.578 1.17-1.294 1.17H0v8.183c0 .646.578 1.168 1.294 1.17h25.919z"/></g></g><g><g><path fill="#026b38" d="M33.693 19.239c-.006-2.126-1.605-3.981-3.888-4.51v9.02c2.283-.53 3.882-2.385 3.888-4.51"/></g></g><g><g><path fill="#026b38" d="M10.366 19.239c0-1.29-1.156-2.336-2.585-2.338h-.006v4.676h.006c1.429-.002 2.585-1.049 2.585-2.338"/></g></g><g><path fill="#026b38" d="M.847 25.947h2.63v7.77H.847z"/></g><g><g><path fill="#026b38" d="M46.652 19.239c0 1.29 1.156 2.336 2.585 2.338h.005l-.005-4.676c-1.43.002-2.585 1.049-2.585 2.338"/></g></g><g><path fill="#026b38" d="M52.785 25.947h2.63v7.77h-2.63z"/></g><g><g><path fill="#026b38" d="M50.539 28.59c-.716 0-1.297-.522-1.297-1.167v-3.509h-.006c-2.863-.002-5.181-2.096-5.179-4.679.003-2.578 2.318-4.669 5.18-4.671h.005v-3.506c0-.646.58-1.17 1.294-1.17H57.019V1.704c-.002-.646-.58-1.168-1.296-1.168h-25.92v11.807c4.223.626 7.084 4.221 6.39 8.03-.54 2.956-3.11 5.275-6.39 5.762v11.805h25.92c.716 0 1.294-.522 1.297-1.168v-8.182z"/></g></g><g><g><path fill="#026b38" d="M23.325 19.239c.005 2.125 1.605 3.98 3.888 4.51v-9.02c-2.283.529-3.883 2.384-3.888 4.51"/></g></g></g></g></svg>