<svg xmlns="http://www.w3.org/2000/svg" width="370" height="55" viewBox="0 0 370 55"><g><g><path fill="#026b38" d="M87.328 6.538h3.515V3.319h-3.517zM83.812.098h10.543v9.658H83.812zm10.543 9.658h3.514v3.219h-3.514zm14.057-3.218h3.514V3.319h-3.514zm-3.514-6.44h10.542v9.658h-10.542zM97.869 3.32h3.514v6.437H97.87zm-10.543 9.656h7.029v3.219h-7.029zM97.87 25.85h3.514v3.218H97.87zm3.514-16.094h3.515v4.69a13.147 13.147 0 0 0-1.367 1.748h-2.148v6.437H97.87v-3.219h-3.514v-3.218h3.514v-3.219h3.514zM87.328 25.85h3.515V22.63h-3.517zm-3.516-6.438h10.543v9.656H83.812z"/></g><g><g><path fill="#026b38" d="M99.636 16.43c1.876-.004 3.677.678 5 1.897 1.328 1.214 2.073 2.863 2.073 4.58-.002 3.579-3.169 6.479-7.075 6.477-3.907 0-7.074-2.9-7.071-6.478 0-3.578 3.166-6.478 7.073-6.478zm0 17.265c3.126.008 6.124-1.13 8.327-3.16 2.21-2.024 3.45-4.768 3.45-7.63-.002-5.958-5.275-10.788-11.782-10.786-6.504 0-11.778 4.831-11.775 10.789 0 5.959 5.273 10.787 11.78 10.787"/></g></g><g><g><path fill="#026b38" d="M100.345 37.199a2.95 2.95 0 0 1-1.995-.758l-2.368-2.167c-1.114-1-1.133-2.636-.04-3.656 1.09-1.02 2.877-1.038 3.991-.039a.71.71 0 0 1 .04.039l2.369 2.167c1.103 1.009 1.106 2.645.004 3.656-.53.486-1.25.76-2.001.76"/></g></g><g><path fill="#026b38" d="M198.367 12.61c1.244 0 1.8.505 1.8 1.636 0 6.414-.013 12.83.012 19.246.005.066.005.13 0 .196-.053.842-.84 1.483-1.757 1.435a7672.15 7672.15 0 0 0-31.371 0 1.496 1.496 0 0 1-.187 0c-.915-.045-1.615-.76-1.566-1.596.023-6.44.015-12.878.015-19.318a1.239 1.239 0 0 1 .002-.433c.133-.768.92-1.289 1.757-1.166h15.668zm-12.234-8.342c0 .16 0 .287-.006.415-.005.642.017 1.285-.022 1.925-.138 1.605-1.591 2.847-3.35 2.863-1.76.01-3.235-1.217-3.394-2.82-.049-.675-.036-1.353-.023-2.03.004-.282-.074-.39-.401-.379-.662.024-1.327.008-1.989.008h-1.415v.408c-.013.688.015 1.38-.051 2.062-.195 1.59-1.679 2.78-3.425 2.747-1.787-.035-3.239-1.334-3.317-2.97a36.36 36.36 0 0 1-.004-1.924c.002-.23-.053-.338-.338-.327-.51.018-1.018-.006-1.528.006-.05 0-.104 0-.155.002-2.523.058-4.518 1.979-4.454 4.292-.004 8.386-.004 16.773 0 25.158v.074c.023 2.297 2.075 4.142 4.582 4.12h31.84c2.507-.007 4.531-1.875 4.523-4.17.017-8.434.012-16.868-.015-25.3a4.55 4.55 0 0 0-.433-1.75c-.416-.904-1.193-1.63-2.171-2.024-1.225-.548-2.525-.388-3.852-.398 0 .752.013 1.461 0 2.17-.025 1.31-.955 2.465-2.315 2.872-1.356.418-2.852.01-3.74-1.019a3.042 3.042 0 0 1-.746-2.044V4.268h-3.801"/></g><g><path fill="#026b38" d="M185.44 4.265V6.33c.013 1.126-.954 2.057-2.183 2.1-1.246.058-2.307-.819-2.37-1.958-.003-.025-.005-.05-.005-.076a95.316 95.316 0 0 1 0-4.266c.021-1.14 1.046-2.049 2.29-2.031l.087.002c1.23.043 2.199.976 2.182 2.103.006.688 0 1.374 0 2.062"/></g><g><path fill="#026b38" d="M180.861 4.264c0-.688-.006-1.376 0-2.064-.015-1.147.99-2.088 2.243-2.101h.017c1.252-.02 2.284.894 2.305 2.04a222.717 222.717 0 0 1 0 4.183c.017 1.149-.989 2.09-2.24 2.103h-.058c-1.257-.004-2.269-.938-2.267-2.087v-.012c-.006-.688 0-1.374 0-2.062"/></g><g><path fill="#026b38" d="M180.86 4.266v-2.03c-.037-1.137.933-2.089 2.177-2.136 1.246-.062 2.309.813 2.377 1.954a98.703 98.703 0 0 1 .002 4.305c0 1.145-1.015 2.072-2.265 2.072-.036 0-.074-.002-.11-.004-1.244-.043-2.218-.995-2.182-2.134-.002-.675 0-1.351 0-2.027"/></g><g><path fill="#026b38" d="M180.052 23.835c0-.385-.004-.77 0-1.153-.009-.628.537-1.14 1.222-1.153a74.344 74.344 0 0 1 2.634 0c.617-.005 1.135.426 1.186.99.051.884.051 1.768.004 2.653-.042.59-.592 1.044-1.239 1.018-.853.02-1.704.024-2.557 0-.694-.002-1.254-.519-1.252-1.154l.002-.047c-.004-.385 0-.77 0-1.154"/></g><g><path fill="#026b38" d="M185.151 23.854v1.118c.034.641-.505 1.185-1.203 1.217l-.072.001a57.28 57.28 0 0 1-2.519 0c-.698.014-1.275-.493-1.288-1.133v-.042a34.84 34.84 0 0 1 0-2.308c-.013-.643.545-1.173 1.246-1.185.038 0 .076 0 .112.004.804-.006 1.609-.008 2.406 0 .699-.027 1.29.47 1.318 1.111a.743.743 0 0 1 0 .098c.005.373 0 .746 0 1.12"/></g><g><path fill="#026b38" d="M180.052 17.825c0-.384-.004-.77 0-1.152-.014-.628.529-1.147 1.212-1.162a62.61 62.61 0 0 1 2.634 0c.632-.008 1.158.439 1.203 1.014.047.873.047 1.747 0 2.618-.042.591-.588 1.046-1.233 1.028a62.32 62.32 0 0 1-2.557 0c-.694.002-1.259-.51-1.26-1.146v-.047c-.003-.385.001-.768.001-1.153"/></g><g><path fill="#026b38" d="M185.156 23.853v1.12c.031.643-.512 1.187-1.214 1.216-.021.002-.043.002-.064.002a57.28 57.28 0 0 1-2.519 0c-.7.012-1.277-.5-1.29-1.14v-.036a34.84 34.84 0 0 1 0-2.307c-.01-.643.55-1.174 1.252-1.183a.959.959 0 0 1 .106.002c.804-.004 1.609-.008 2.407 0 .702-.026 1.294.476 1.322 1.12 0 .028.002.057 0 .087.006.373 0 .746 0 1.12"/></g><g><path fill="#026b38" d="M180.056 23.86c0-.397-.007-.792 0-1.188 0-.628.55-1.137 1.235-1.145.863-.015 1.73-.015 2.595 0 .685-.002 1.244.507 1.246 1.135.034.791.034 1.586 0 2.377 0 .638-.565 1.153-1.26 1.153h-.056c-.813.012-1.628.012-2.443 0-.704.023-1.296-.48-1.322-1.127a.787.787 0 0 1 .002-.123c0-.36.003-.72.003-1.082"/></g><g><path fill="#026b38" d="M180.053 29.855c0-.385-.007-.77 0-1.153-.007-.633.547-1.15 1.237-1.156h.021c.828-.012 1.655-.008 2.48 0 .695-.041 1.293.44 1.338 1.076a28.734 28.734 0 0 1 .002 2.426c.004.642-.56 1.164-1.26 1.166h-.08c-.8.01-1.601.01-2.404 0-.704.028-1.303-.472-1.334-1.117a1.143 1.143 0 0 1 0-.12c-.003-.376 0-.747 0-1.122"/></g><g><path fill="#026b38" d="M185.157 17.867v1.084c.034.646-.51 1.194-1.214 1.225-.032.002-.066.002-.097.002-.815.012-1.63.01-2.443 0-.705.03-1.303-.469-1.335-1.114 0-.021-.002-.043 0-.064a36.359 36.359 0 0 1 0-2.307c-.013-.645.55-1.178 1.254-1.188.034 0 .068 0 .102.002.802-.004 1.607-.005 2.405 0 .702-.027 1.296.473 1.328 1.116v.087c.006.387 0 .772 0 1.157"/></g><g><path fill="#026b38" d="M185.152 17.856v1.12c.023.637-.522 1.173-1.218 1.195h-.04c-.854.02-1.707.02-2.558 0-.696.003-1.26-.51-1.265-1.145v-.016a31.921 31.921 0 0 1 0-2.342c-.002-.64.56-1.16 1.26-1.164a248.129 248.129 0 0 1 2.485.002c.701-.035 1.302.459 1.34 1.1.002.045.002.087 0 .132 0 .373-.004.746-.004 1.118"/></g><g><path fill="#026b38" d="M180.052 29.857c0-.385-.005-.77 0-1.153-.013-.628.532-1.145 1.216-1.156a79.29 79.29 0 0 1 2.633 0c.616-.008 1.136.42 1.19.981.052.896.052 1.792 0 2.686-.052.58-.593 1.015-1.226.992-.853.02-1.706.021-2.557 0-.694 0-1.256-.515-1.256-1.151v-.047c-.005-.383 0-.767 0-1.152"/></g><g><path fill="#026b38" d="M185.157 29.865v1.12c.034.645-.511 1.193-1.216 1.224-.032.002-.064.002-.093.002-.828.014-1.656.015-2.483 0-.694.017-1.271-.484-1.29-1.12v-.017a28.645 28.645 0 0 1 0-2.377c.002-.64.568-1.157 1.266-1.155a481.002 481.002 0 0 1 2.451.002c.703-.046 1.314.436 1.365 1.079a1 1 0 0 1 .002.16c-.002.359-.002.72-.002 1.082"/></g><g><path fill="#026b38" d="M180.052 17.837c0-.385-.005-.77 0-1.153-.015-.635.534-1.16 1.226-1.174.005-.002.01-.002.015-.002.864-.015 1.73-.015 2.596 0 .685.006 1.241.517 1.241 1.147.032.79.034 1.584 0 2.375-.006.638-.573 1.15-1.269 1.147l-.051-.002c-.815.012-1.628.012-2.443 0-.704.021-1.292-.484-1.315-1.127a.657.657 0 0 1 0-.092c-.005-.373 0-.746 0-1.12"/></g><g><path fill="#026b38" d="M265.068 18.897c-4.049 0-7.33-3.005-7.33-6.714 0-3.706 3.281-6.713 7.33-6.713 4.047 0 7.33 3.007 7.33 6.713-.002 3.707-3.283 6.714-7.33 6.714m0-18.797c-8.096.002-14.657 6.011-14.66 13.426 0 7.415 14.66 24.76 14.66 24.29 0-.468 14.66-16.87 14.66-24.29C279.726 6.111 273.164.102 265.068.1"/></g><g><path fill="#026b38" d="M31.368 27.596l-9.58-8.774L32.135 9.35c1.358-1.15 1.443-3.092.19-4.338-1.257-1.244-3.377-1.322-4.738-.173a3.82 3.82 0 0 0-.188.173l-10.344 9.475-9.581-8.775c-1.588-1.133-3.877-.873-5.115.58-1.027 1.206-1.027 2.897 0 4.104l9.578 8.773L1.59 28.644c-1.358 1.148-1.443 3.09-.189 4.336 1.257 1.246 3.377 1.324 4.737.173a3.05 3.05 0 0 0 .189-.173l10.343-9.473 9.58 8.771c1.587 1.133 3.877.875 5.114-.579 1.027-1.207 1.027-2.898 0-4.105z"/></g><g><g><text dominant-baseline="text-before-edge" style="font-kerning:normal" fill="#026b38" font-family="'Source Sans Pro','SourceSansPro-Bold'" font-size="9" font-style="none" font-weight="700" transform="translate(341 45)"><tspan>72</tspan></text></g></g><g><path fill="#026b38" d="M349.64 16.817c1.34 0 2.381-.593 2.381-1.324V6.834c0-.729-1.042-1.337-2.38-1.337h-10.543c-1.306 0-2.356.607-2.356 1.337v8.66c0 .732 1.048 1.323 2.356 1.323h10.542m9.756 12.667c.002-.735-.656-1.332-1.469-1.334h-21.406c-.815.002-1.472.599-1.47 1.334.002.734.664 1.327 1.477 1.325h21.4c.81-.002 1.466-.595 1.468-1.325zm-.03 6.678c.02-.733-.626-1.341-1.439-1.357h-21.463c-.815.016-1.458.624-1.441 1.357.02.735.692 1.316 1.505 1.3h21.4c.787-.015 1.421-.589 1.438-1.3zm3.72-12.014v15.318c.007.729-.64 1.326-1.45 1.337h-28.105c-.806-.01-1.451-.608-1.439-1.337V24.148c-.002-.002-.002-.004-.002-.006-.006-.728.643-1.323 1.45-1.329h28.099c.806.01 1.454.606 1.45 1.335zm2.802 20.638c1.625-.002 2.94-1.192 2.94-2.657V12.832l-8.865-8.658h-3.725V17.17c-.146.907-.985 1.593-1.999 1.638h-20.822c-.84 0-1.327-.37-1.327-1.32V4.174h-3.563c-1.615.01-2.918 1.199-2.907 2.656v35.328c.01 1.46 1.328 2.636 2.945 2.628h37.323"/><path fill="none" stroke="#707070" stroke-dasharray="4.597 4.597" stroke-miterlimit="20" stroke-width=".77" d="M349.64 16.817c1.34 0 2.381-.593 2.381-1.324V6.834c0-.729-1.042-1.337-2.38-1.337h-10.543c-1.306 0-2.356.607-2.356 1.337v8.66c0 .732 1.048 1.323 2.356 1.323h10.542m9.756 12.667c.002-.735-.656-1.332-1.469-1.334h-21.406c-.815.002-1.472.599-1.47 1.334.002.734.664 1.327 1.477 1.325h21.4c.81-.002 1.466-.595 1.468-1.325zm-.03 6.678c.02-.733-.626-1.341-1.439-1.357h-21.463c-.815.016-1.458.624-1.441 1.357.02.735.692 1.316 1.505 1.3h21.4c.787-.015 1.421-.589 1.438-1.3zm3.72-12.014v15.318c.007.729-.64 1.326-1.45 1.337h-28.105c-.806-.01-1.451-.608-1.439-1.337V24.148c-.002-.002-.002-.004-.002-.006-.006-.728.643-1.323 1.45-1.329h28.099c.806.01 1.454.606 1.45 1.335zm2.802 20.638c1.625-.002 2.94-1.192 2.94-2.657V12.832l-8.865-8.658h-3.725V17.17c-.146.907-.985 1.593-1.999 1.638h-20.822c-.84 0-1.327-.37-1.327-1.32V4.174h-3.563c-1.615.01-2.918 1.199-2.907 2.656v35.328c.01 1.46 1.328 2.636 2.945 2.628h37.323"/></g></g></svg>