<svg xmlns="http://www.w3.org/2000/svg" width="374" height="45" viewBox="0 0 374 45"><g><g><path fill="#026b38" d="M106.059 4.825l5.447 10.111c.191.356.56.603.989.66l12.183 1.62c.718.095 1.216.706 1.112 1.365a1.18 1.18 0 0 1-.384.69l-8.815 7.87c-.308.275-.45.672-.378 1.063l2.082 11.111c.123.657-.357 1.28-1.074 1.392a1.43 1.43 0 0 1-.834-.12l-10.893-5.248a1.423 1.423 0 0 0-1.224 0l-10.893 5.247c-.643.31-1.44.082-1.777-.505a1.126 1.126 0 0 1-.131-.766l2.082-11.111c.072-.391-.07-.788-.378-1.064l-8.815-7.87a1.134 1.134 0 0 1-.026-1.702c.202-.19.467-.313.753-.352l12.184-1.62c.428-.057.798-.304.989-.66l5.447-10.11c.325-.595 1.114-.838 1.764-.54.254.116.462.306.59.54"/></g><g><path fill="none" stroke="#026b38" stroke-miterlimit="20" d="M189.112 4.958v0l5.287 9.8c.186.344.545.583.961.637l11.825 1.573c.698.091 1.18.684 1.08 1.322-.04.254-.172.49-.374.668l-8.556 7.627c-.3.268-.435.653-.365 1.03l2.02 10.772c.119.635-.348 1.238-1.042 1.347a1.367 1.367 0 0 1-.81-.117l-10.575-5.084a1.379 1.379 0 0 0-1.186 0l-10.575 5.084c-.624.3-1.394.082-1.723-.49a1.08 1.08 0 0 1-.128-.74l2.02-10.772a1.11 1.11 0 0 0-.366-1.03l-8.557-7.627a1.097 1.097 0 0 1-.023-1.65c.195-.185.452-.303.73-.34l11.824-1.573a1.27 1.27 0 0 0 .962-.637l5.288-9.8c.314-.577 1.08-.81 1.71-.525.249.115.45.298.573.525z"/></g><g><path fill="#026b38" d="M276.777 37.523a15.067 15.067 0 0 1-4.974-2.243c-3.016-2.037-5.639-4.521-7.756-7.353-2.693-3.378-4.727-7.16-6.008-11.176a13.52 13.52 0 0 1-.658-5.419 8.675 8.675 0 0 1 .373-1.714c.193-.618.641-1.143 1.248-1.468.821-.456 1.605-.977 2.432-1.432a3.306 3.306 0 0 1 1.834-.426c.562.04 1.093.26 1.492.626 1.483 1.343 2.43 3.104 2.684 5 .121.722-.187 1.449-.808 1.908-.554.441-1.149.837-1.777 1.185-.827.38-1.245 1.242-.995 2.057.202.888.511 1.75.925 2.575a36.788 36.788 0 0 0 5.902 8.224c.617.7 1.394 1.269 2.275 1.667a2.141 2.141 0 0 0 2.084-.138c.541-.336 1.1-.645 1.674-.927a2.698 2.698 0 0 1 2.71.091c1.651.943 2.94 2.333 3.688 3.98.601.977.266 2.215-.766 2.821-.831.613-1.78 1.095-2.678 1.631-.112.068-.267.09-.358.171a2.536 2.536 0 0 1-2.106.445c-.146-.017-.29-.056-.437-.085M263.82 4.63a5.45 5.45 0 0 0-3.23.55c-1.152.634-2.262 1.33-3.37 2.033-.267.195-.494.43-.67.696a6.488 6.488 0 0 0-1.12 3.58 15.85 15.85 0 0 0 .863 6c1.93 5.756 5.272 11.03 9.77 15.42a25.903 25.903 0 0 0 7.369 5.294c1.28.643 2.69 1.036 4.146 1.156a4.54 4.54 0 0 0 2.78-.67c.323-.208.669-.385 1.013-.562 1.602-.82 3.07-1.76 3.775-3.413l.153-.659a5.58 5.58 0 0 0-.537-2.354c-.92-1.807-2.373-3.343-4.196-4.431-1.413-.927-3.285-1.015-4.791-.222-.542.26-1.066.548-1.57.865a.592.592 0 0 1-.767-.006 14.934 14.934 0 0 1-1.44-1.2 35.682 35.682 0 0 1-5.274-7.23 20.217 20.217 0 0 1-1.036-2.425c-.102-.254.023-.42.267-.589a22.689 22.689 0 0 0 2.207-1.644c.769-.663 1.165-1.61 1.083-2.573-.19-2.473-1.346-4.8-3.258-6.554a5.201 5.201 0 0 0-2.007-1.03z"/></g><g><path fill="#026b38" d="M276.469 37.523a15.098 15.098 0 0 1-4.974-2.239c-3.018-2.039-5.639-4.525-7.757-7.356-2.693-3.38-4.726-7.16-6.008-11.178a13.511 13.511 0 0 1-.657-5.417 8.712 8.712 0 0 1 .373-1.718c.193-.618.641-1.143 1.248-1.468.823-.457 1.606-.98 2.432-1.432a3.306 3.306 0 0 1 1.833-.426c.563.039 1.093.26 1.492.626 1.484 1.343 2.43 3.104 2.685 4.999.12.723-.187 1.45-.807 1.909-.556.439-1.15.835-1.778 1.185-.828.377-1.244 1.24-.995 2.057.201.886.513 1.749.925 2.573a36.764 36.764 0 0 0 5.904 8.225c.617.7 1.394 1.27 2.275 1.668a2.137 2.137 0 0 0 2.082-.138 19.631 19.631 0 0 1 1.676-.927 2.698 2.698 0 0 1 2.708.091c1.65.943 2.941 2.333 3.688 3.979.603.978.268 2.216-.764 2.822-.834.612-1.78 1.096-2.68 1.633-.113.066-.265.087-.357.169a2.539 2.539 0 0 1-2.103.443c-.15-.012-.295-.05-.441-.08"/></g><g><path fill="none" stroke="#20703c" stroke-miterlimit="20" stroke-width="2" d="M2.256 3.596h40.563c.212 0 .382.152.382.338v36.084c0 .186-.17.338-.382.338H2.256c-.21 0-.382-.152-.382-.338V3.934c0-.186.172-.338.382-.338z"/></g><g><g><text dominant-baseline="text-before-edge" style="font-kerning:normal" fill="#036b38" font-family="'Source Sans Pro','SourceSansPro-Bold'" font-size="25" font-style="none" font-weight="700" transform="translate(14 4)"><tspan>B</tspan></text></g></g><g><g><text dominant-baseline="text-before-edge" style="font-kerning:normal" fill="#036b38" font-family="'Source Sans Pro','SourceSansPro-Bold'" font-size="25" font-style="none" font-weight="700" transform="translate(14 4)"><tspan>B</tspan></text></g></g><g><g><path fill="#026b38" d="M366.227 3.386c2.186.002 3.958 1.623 3.96 3.627v15.34l.004.06c0 .977-.15 1.947-.445 2.886a20.148 20.148 0 0 1-3.945 7.153c-2.8 3.413-7.177 6.14-10.359 7.829a6.95 6.95 0 0 1-6.47-.014 39.682 39.682 0 0 1-9.643-7.007c-3.083-3.323-4.875-7.49-5.091-11.848V7.013c.002-2.002 1.774-3.625 3.96-3.627zm-14 41.005c1.77.002 3.51-.425 5.04-1.238 3.47-1.842 8.273-4.847 11.441-8.703 5.195-6.325 5.148-11.466 5.114-12.187V7.013c-.004-3.836-3.397-6.944-7.584-6.946h-28.034c-4.187.002-7.58 3.11-7.584 6.946v14.368c.189 5.178 2.302 10.142 5.99 14.068 3.056 3.045 6.611 5.636 10.537 7.683 1.54.826 3.296 1.26 5.08 1.26"/></g></g></g></svg>