<svg xmlns="http://www.w3.org/2000/svg" width="382" height="40" viewBox="0 0 382 40"><g><g><path fill="#e24433" d="M10.86 26.006c1.026 1.102 2.834 1.232 4.035.293.117-.089.223-.188.32-.293l5.106-5.203 5.433-5.536c.66-.674.227-1.881-.675-1.881H.997c-.902 0-1.341 1.21-.677 1.881l5.435 5.536z"/></g><g><path fill="#094" d="M72.797 15.581c1.24-1.016 3.115-1.016 4.355 0l5.106 4.315 5.432 4.59a.846.846 0 0 1 .062 1.272 1.033 1.033 0 0 1-.737.293H62.933c-.543.006-.989-.392-.995-.89a.87.87 0 0 1 .318-.674l5.435-4.591z"/></g><g><path fill="#5e6360" d="M259.34.465c11.916 0 21.578 8.847 21.578 19.763 0 10.913-9.662 19.76-21.578 19.76-11.916 0-21.576-8.847-21.576-19.76 0-10.916 9.66-19.763 21.576-19.763"/></g><g><path fill="#ff0" d="M260.942 30.556v-9.618h3.584l.514-3.753h-4.098v-2.34c0-1.057.384-1.877 2.048-1.877h2.177V9.564c-.512 0-1.793-.118-3.2-.118-3.073 0-5.25 1.76-5.25 4.925v2.816h-3.587v3.753h3.587v9.616z"/></g><g><path fill="#ffed00" d="M355.658 29.779c9.433 0 14.566-7.116 14.566-13.341v-.634a10.81 10.81 0 0 0 2.5-2.416c-.93.371-1.91.628-2.914.764 1.034-.595 1.815-1.489 2.222-2.542a13.417 13.417 0 0 1-3.191 1.144c-.951-.98-2.318-1.537-3.75-1.525-2.816.038-5.09 2.12-5.132 4.701-.031.344.015.69.138 1.017-4.13-.183-7.973-1.99-10.543-4.957a4.557 4.557 0 0 0-.693 2.414c.036 1.557.855 3.011 2.22 3.94a5.008 5.008 0 0 1-2.36-.635c-.003 2.246 1.75 4.17 4.163 4.573a4.628 4.628 0 0 1-1.388.128 2.57 2.57 0 0 1-.972-.128c.696 1.93 2.638 3.252 4.856 3.304-1.823 1.304-4.066 2.02-6.38 2.033a4.217 4.217 0 0 1-1.25-.128c2.295 1.53 5.07 2.332 7.908 2.292"/></g><g><path fill="#5e6360" d="M360.43.465c11.916 0 21.576 8.847 21.576 19.763 0 10.913-9.66 19.76-21.575 19.76-11.916 0-21.576-8.847-21.576-19.76 0-10.916 9.66-19.763 21.576-19.763"/></g><g><path fill="#ff0" d="M355.658 29.779c9.433 0 14.566-7.116 14.566-13.341v-.634a10.81 10.81 0 0 0 2.5-2.416c-.93.371-1.91.628-2.914.764 1.034-.595 1.815-1.489 2.222-2.542a13.417 13.417 0 0 1-3.191 1.144c-.951-.98-2.318-1.537-3.75-1.525-2.816.038-5.09 2.12-5.132 4.701-.031.344.015.69.138 1.017-4.13-.183-7.973-1.99-10.543-4.957a4.557 4.557 0 0 0-.693 2.414c.036 1.557.855 3.011 2.22 3.94a5.008 5.008 0 0 1-2.36-.635c-.003 2.246 1.75 4.17 4.163 4.573a4.628 4.628 0 0 1-1.388.128 2.57 2.57 0 0 1-.972-.128c.696 1.93 2.638 3.252 4.856 3.304-1.823 1.304-4.066 2.02-6.38 2.033a4.217 4.217 0 0 1-1.25-.128c2.295 1.53 5.07 2.332 7.908 2.292"/></g><g><path fill="#5e6360" d="M158.25.465c11.916 0 21.578 8.847 21.578 19.763 0 10.913-9.662 19.76-21.578 19.76-11.916 0-21.576-8.847-21.576-19.76 0-10.916 9.66-19.763 21.576-19.763"/></g><g><path fill="#ff0" d="M164.881 13.081c.775.006 1.403.581 1.41 1.29 0 .712-.631 1.29-1.41 1.29-.777 0-1.407-.578-1.407-1.29 0-.712.63-1.29 1.407-1.29m-6.146 10.44h.136c2.082-.035 3.742-1.61 3.703-3.516a1.217 1.217 0 0 0 0-.125c-.036-1.908-1.755-3.426-3.839-3.393h-.135c-2.082.035-3.742 1.609-3.704 3.518a1.18 1.18 0 0 0 0 .122c.037 1.909 1.755 3.429 3.84 3.394m0-8.916c3.255 0 5.893 2.418 5.893 5.4 0 2.98-2.638 5.397-5.894 5.397-3.255 0-5.893-2.418-5.893-5.397a2.625 2.625 0 0 1 0-.183c.055-2.931 2.693-5.265 5.893-5.217m0-5.158a41.018 41.018 0 0 1 4.74.116 8.582 8.582 0 0 1 2.815.469c.777.233 1.48.635 2.048 1.174a4.568 4.568 0 0 1 1.282 1.875c.34.824.513 1.7.511 2.581a31.5 31.5 0 0 1 .128 4.339c0 2.814-.128 3.166-.128 4.338a6.726 6.726 0 0 1-.511 2.581c-.54 1.43-1.768 2.556-3.33 3.05-.9.31-1.855.47-2.818.468-1.575.13-3.156.17-4.737.117a40.97 40.97 0 0 1-4.736-.117 8.585 8.585 0 0 1-2.818-.468 5.113 5.113 0 0 1-2.048-1.174 4.568 4.568 0 0 1-1.282-1.876 6.726 6.726 0 0 1-.512-2.581 31.5 31.5 0 0 1-.127-4.338 31.5 31.5 0 0 1 .127-4.339 4.967 4.967 0 0 1 .512-2.58 4.568 4.568 0 0 1 1.282-1.876 5.113 5.113 0 0 1 2.048-1.174c.9-.311 1.854-.47 2.818-.469 1.572-.13 3.155-.169 4.734-.118m0 1.877a37.993 37.993 0 0 0-4.609.117 6.39 6.39 0 0 0-2.177.352c-.524.116-.98.408-1.282.816-.367.342-.67.739-.891 1.174a5.017 5.017 0 0 0-.385 1.994 29.52 29.52 0 0 0-.129 4.222c0 2.814.13 3.166.13 4.221-.011.68.12 1.357.384 1.995.443.878 1.211 1.586 2.17 1.998.697.24 1.435.36 2.178.351a38.8 38.8 0 0 0 4.61.117c3.072 0 3.456-.117 4.608-.117a6.455 6.455 0 0 0 2.178-.351c.961-.409 1.734-1.116 2.181-1.995a5.054 5.054 0 0 0 .384-1.994c.143-1.403.185-2.812.128-4.221 0-2.815-.128-3.166-.128-4.222a5.054 5.054 0 0 0-.384-1.994c-.447-.879-1.218-1.584-2.177-1.994a6.455 6.455 0 0 0-2.177-.352c-1.532-.13-3.071-.17-4.61-.117"/></g></g></svg>