<svg xmlns="http://www.w3.org/2000/svg" width="383" height="45" viewBox="0 0 383 45"><g><g><g><path fill="#e24433" d="M259.347 3.305c11.92 0 21.582 8.85 21.582 19.767s-9.662 19.768-21.582 19.768-21.583-8.851-21.583-19.768c0-10.918 9.663-19.767 21.583-19.767"/></g></g><g><path fill="#ff0" d="M90.212 31.381c-.74 3.127-3.76 5.36-7.253 5.365H0L5.055 14.77c.724-3.145 3.756-5.398 7.266-5.398h73.891c4.1 0 7.426 3.044 7.426 6.801 0 .484-.056.968-.168 1.442z"/></g><g><path fill="#231e21" d="M64.069 33.815l3.993-18.884h3.062l-3.437 16.235h6.961l-.556 2.65z"/></g><g><path fill="#231e21" d="M77.192 33.815l4.017-18.884h3.036l-4.017 18.884z"/></g><g><g><path fill="#231e21" d="M31.18 25.813l2.406-4.305c.809-1.429 1.47-2.737 1.984-3.924 0 .44.024 1.038.077 1.786.053.746.265 2.894.636 6.445zm5.901 7.866h3.27L38.03 14.927h-3.833L23.251 33.68h3.553l2.922-5.2h6.78z"/></g></g><g><g><path fill="#231e21" d="M58.48 33.66h-3.637l-5.732-14.894h-.089l-.14.885c-.22 1.271-.386 2.179-.492 2.719-.106.542-.962 4.305-2.566 11.29h-3.062l4.32-18.728h3.752l5.575 14.72h.098c.057-.46.204-1.282.435-2.464.23-1.183.42-2.05.56-2.608l2.24-9.643h3.061z"/></g></g><g><g><path fill="#231e21" d="M21.212 32.455a9.314 9.314 0 0 1-3.549 1.092c-.834.11-1.678.156-2.52.132-2.034.115-4.029-.544-5.514-1.82-1.388-1.404-2.097-3.262-1.965-5.152-.026-2.08.45-4.136 1.394-6.027.847-1.73 2.218-3.201 3.951-4.239a11.185 11.185 0 0 1 5.81-1.512c.973-.002 1.945.083 2.9.255.965.182 1.903.476 2.79.87l-1.224 2.529a11.048 11.048 0 0 0-4.546-1.073 7.103 7.103 0 0 0-3.913 1.13c-1.229.82-2.186 1.933-2.767 3.22a10.51 10.51 0 0 0-1.015 4.645c-.1 1.252.336 2.49 1.212 3.454.915.82 2.169 1.248 3.446 1.172.994.002 1.98-.136 2.927-.41l1.339-.414z"/></g></g><g><g><path fill="#ffff02" d="M158.095.762c13.17 0 23.846 9.778 23.846 21.84 0 12.063-10.676 21.84-23.846 21.84s-23.847-9.777-23.847-21.84c0-12.062 10.676-21.84 23.847-21.84"/></g></g><g><g><path fill="#009b3a" d="M158.926 9.956c.178.043.356.082.53.126 1.45.409 2.37 1.713 2.182 3.093-.134 1.31-1.216 2.371-2.634 2.587-1.765.252-3.42-.855-3.694-2.475l-.002-.01c-.249-1.572.931-3.035 2.644-3.28a.441.441 0 0 0 .1-.04z"/></g></g><g><g><path fill="#009b3a" d="M161.341 30.41h.92c.734-.08 1.4.4 1.487 1.072.013.1.013.199 0 .298 0 .725-.013 1.448 0 2.17.05.668-.5 1.249-1.23 1.293a1.225 1.225 0 0 1-.19 0c-2.43-.021-4.86-.007-7.29-.007-.693.054-1.304-.416-1.364-1.05a1.233 1.233 0 0 1-.002-.177 109.3 109.3 0 0 1 0-2.36c-.023-.6.482-1.105 1.135-1.136.38-.03.764-.006 1.163-.006v-7.45c-.299 0-.594-.02-.889 0-.743.033-1.377-.492-1.415-1.174a1.07 1.07 0 0 1 0-.117c.019-.744 0-1.489 0-2.233-.081-.645.422-1.228 1.127-1.304.1-.01.201-.01.303.002 1.606 0 3.22.013 4.83-.008.768-.014 1.405.546 1.422 1.25v.06c-.02 3.524-.009 7.05-.009 10.573z"/></g></g><g><g><path fill="#6bc149" d="M360.386 2.197c12.338 0 22.34 9.16 22.34 20.461 0 11.3-10.002 20.463-22.34 20.463s-22.34-9.163-22.34-20.463 10.002-20.46 22.34-20.46"/></g></g><g><g><text dominant-baseline="text-before-edge" style="font-kerning:normal" fill="#f4f4f4" font-family="'Source Sans Pro','SourceSansPro-SemiBold'" font-size="10" transform="translate(357 14)"><tspan>4</tspan></text></g></g><g><g><text dominant-baseline="text-before-edge" style="font-kerning:normal" fill="#f4f4f4" font-family="'Source Sans Pro','SourceSansPro-SemiBold'" font-size="10" transform="translate(256 13)"><tspan>1</tspan></text></g></g></g></svg>