<svg xmlns="http://www.w3.org/2000/svg" width="382" height="47" viewBox="0 0 382 47"><g><g><path fill="#026b38" d="M116.98 42.62c-7.057-3.18-13.055-8.033-17.367-14.059a59.427 59.427 0 0 1-.452-.647c-.237-.32-.142-.758.21-.974a.544.544 0 0 1 .083-.044c3.83-1.637 10.09-.259 16.18 1.09 4.957 1.1 10.043 2.22 14.008 1.763.458-.055.719.206.568.606-1.995 5.34-6.205 9.746-11.72 12.265a2.093 2.093 0 0 1-1.51.003zm-20.584-1.326c-1.498-6.807-1.033-11.191 1.411-13.384a.36.36 0 0 1 .055-.04c.191.168.353.365.476.58.142.206.286.413.43.617 4.251 5.932 10.102 10.758 16.986 14.011.412.195.401.469-.038.609-6.067 1.922-12.735 1.461-18.418-1.273-.448-.251-.77-.65-.902-1.114zm-9.694-11.149a49.393 49.393 0 0 1 7.803-6.659.688.688 0 0 1 .91.076.552.552 0 0 1 .109.167c.452.89.942 1.77 1.466 2.634.225.37.348.717.265.777a3.991 3.991 0 0 0-.144.115c-2.602 2.33-3.215 6.723-1.872 13.386.083.416-.157.566-.534.323-3.69-2.38-6.554-5.684-8.245-9.515a1.311 1.311 0 0 1 .242-1.302zm.028-13.057a13.86 13.86 0 0 0 4.547.904c.334.002.665-.02.996-.059.458-.064.904.183 1.057.585.337.992.713 1.975 1.133 2.947.159.42.015.886-.361 1.166a50.614 50.614 0 0 0-7.756 6.515c-.308.317-.663.25-.781-.161a19.594 19.594 0 0 1 .142-11.458c.119-.365.539-.573.938-.464.03.007.057.017.085.029zm4.71-7.718c.183 2.284.576 4.55 1.17 6.773.119.368-.112.752-.513.861-.034.01-.07.016-.104.022-1.692.095-3.381-.181-4.93-.809-.429-.155-.639-.598-.47-.991l.007-.012a21.226 21.226 0 0 1 4.213-6.05c.314-.311.594-.212.628.206m1.54-2.134c2.736-2.146 5.979-3.678 9.47-4.48.45-.103.56.077.265.404a26.036 26.036 0 0 0-4 6.692c-1.246 2.696-2.352 5.084-4.234 6.326a.608.608 0 0 1-.807-.095.51.51 0 0 1-.114-.25 37.189 37.189 0 0 1-1.165-7.322c-.002-.48.21-.941.588-1.275zm33.764 4.536c-10.863.688-21.347 3.93-30.442 9.415a.68.68 0 0 1-.898-.103.592.592 0 0 1-.102-.175 36.603 36.603 0 0 1-1.03-2.705c-.11-.428.088-.871.495-1.104 2.307-1.353 3.56-4.051 4.873-6.893 1.235-2.664 2.502-5.399 4.698-7.374.41-.326.91-.536 1.448-.606.774-.074 1.55-.111 2.33-.111 7.54.002 14.615 3.341 18.989 8.968.27.346.1.655-.361.688m4.208 16.113c-.127.449-.516.795-1.008.904-3.813.579-9.015-.566-14.076-1.69-6.299-1.393-12.773-2.82-16.922-.99-.408.196-.913.065-1.146-.298a39.18 39.18 0 0 1-1.456-2.638c-.185-.404-.042-.872.346-1.13 9.138-5.546 19.71-8.786 30.652-9.396.505-.01.98.225 1.25.618 2.666 4.46 3.5 9.646 2.356 14.622zM108.117.583c-13.813 0-25.01 10.254-25.01 22.905 0 12.651 11.197 22.908 25.01 22.908 13.813 0 25.01-10.255 25.01-22.906C133.11 10.845 121.922.598 108.116.583"/></g><g><path fill="none" stroke="#026b38" stroke-miterlimit="20" stroke-width=".5" d="M117.385 42.62c-7.058-3.18-13.055-8.033-17.367-14.059a59.427 59.427 0 0 1-.452-.647c-.238-.32-.143-.758.21-.974a.544.544 0 0 1 .082-.044c3.83-1.637 10.091-.259 16.18 1.09 4.957 1.1 10.044 2.22 14.008 1.763.458-.055.72.206.569.606-1.995 5.34-6.206 9.746-11.721 12.265a2.093 2.093 0 0 1-1.509.003zM96.8 41.294c-1.498-6.807-1.033-11.191 1.412-13.384a.36.36 0 0 1 .055-.04c.19.168.352.365.475.58.142.206.287.413.43.617 4.252 5.932 10.102 10.758 16.987 14.011.411.195.4.469-.039.609-6.067 1.922-12.735 1.461-18.418-1.273-.447-.251-.77-.65-.902-1.114zm-9.694-11.149a49.393 49.393 0 0 1 7.804-6.659.688.688 0 0 1 .91.076.552.552 0 0 1 .108.167c.452.89.942 1.77 1.467 2.634.225.37.348.717.265.777a3.991 3.991 0 0 0-.144.115c-2.602 2.33-3.216 6.723-1.872 13.386.083.416-.157.566-.535.323-3.69-2.38-6.553-5.684-8.245-9.515a1.311 1.311 0 0 1 .242-1.302zm.028-13.057a13.86 13.86 0 0 0 4.548.904c.333.002.664-.02.995-.059.458-.064.904.183 1.057.585.337.992.713 1.975 1.133 2.947.16.42.015.886-.36 1.166a50.614 50.614 0 0 0-7.757 6.515c-.308.317-.662.25-.781-.161a19.594 19.594 0 0 1 .142-11.458c.119-.365.54-.573.938-.464.03.007.057.017.085.029zm4.711-7.718c.183 2.284.575 4.55 1.17 6.773.118.368-.113.752-.514.861-.034.01-.07.016-.104.022-1.691.095-3.38-.181-4.93-.809-.428-.155-.639-.598-.469-.991l.007-.012a21.226 21.226 0 0 1 4.212-6.05c.314-.311.594-.212.628.206zm1.54-2.134c2.736-2.146 5.979-3.678 9.47-4.48.45-.103.56.077.265.404a26.036 26.036 0 0 0-4 6.692c-1.246 2.696-2.351 5.084-4.234 6.326a.608.608 0 0 1-.806-.095.51.51 0 0 1-.115-.25A37.189 37.189 0 0 1 92.8 8.51c-.002-.48.21-.941.588-1.275zm33.764 4.536c-10.863.688-21.346 3.93-30.442 9.415a.68.68 0 0 1-.898-.103.592.592 0 0 1-.102-.175 36.603 36.603 0 0 1-1.029-2.705c-.11-.428.087-.871.495-1.104 2.306-1.353 3.559-4.051 4.872-6.893 1.235-2.664 2.502-5.399 4.699-7.374.41-.326.91-.536 1.447-.606.774-.074 1.551-.111 2.33-.111 7.54.002 14.615 3.341 18.989 8.968.27.346.1.655-.36.688zm4.208 16.113c-.127.449-.515.795-1.008.904-3.813.579-9.014-.566-14.076-1.69-6.298-1.393-12.773-2.82-16.922-.99-.407.196-.912.065-1.146-.298a39.18 39.18 0 0 1-1.456-2.638c-.184-.404-.042-.872.346-1.13 9.138-5.546 19.71-8.786 30.653-9.396.505-.01.98.225 1.25.618 2.665 4.46 3.499 9.646 2.355 14.622zM108.521.583c-13.813 0-25.01 10.254-25.01 22.905 0 12.651 11.197 22.908 25.01 22.908 13.813 0 25.01-10.255 25.01-22.906C133.515 10.845 122.327.598 108.52.583z"/></g><g><path fill="#026b38" d="M213.572 30.191l-.288.086a23.22 23.22 0 0 1-1.558-.826l.607-.126.764-.185.348-.103c.214-.07.337-.272.288-.474a.334.334 0 0 0-.176-.212.38.38 0 0 0-.29-.037s-.728.192-1.507.357a12.61 12.61 0 0 1-1 .187 26.789 26.789 0 0 1-1.426-.98c.176-.019.382-.042.59-.073l1.157-.173c.223-.043.373-.232.348-.44-.02-.186-.202-.322-.406-.303-.012.002-.023.002-.036.006 0 0-.774.14-1.55.198-.364.035-.729.062-1.022.082a32.72 32.72 0 0 1-1.332-1.116l.617-.01.794-.029.367-.027c.227-.02.399-.196.395-.404a.352.352 0 0 0-.132-.249.376.376 0 0 0-.282-.095s-.768.039-1.57.054c-.363.006-.726.01-1.02.008-.413-.39-.82-.8-1.224-1.22l.607.03 1.17.034c.229.001.418-.162.43-.372a.34.34 0 0 0-.097-.266.413.413 0 0 0-.282-.115s-.781-.011-1.588-.052l-1.014-.09a38.575 38.575 0 0 1-1.108-1.284c.183.025.38.05.59.072l1.178.108c.227.018.43-.132.46-.338a.334.334 0 0 0-.082-.272.404.404 0 0 0-.274-.13s-.794-.062-1.564-.177l-1.017-.153a39.092 39.092 0 0 1-1.016-1.365l.598.12c.565.115 1.157.195 1.157.195.225.031.439-.103.486-.31a.323.323 0 0 0-.066-.273.429.429 0 0 0-.257-.154l-1.543-.283-1.001-.212c-.072-.107-.145-.21-.215-.32-.242-.368-.475-.742-.7-1.115l.594.158 1.13.274c.222.046.447-.076.509-.278a.35.35 0 0 0-.032-.284.405.405 0 0 0-.244-.171l-1.532-.375c-.353-.088-.7-.187-.975-.266a39.46 39.46 0 0 1-.804-1.493l.58.188 1.114.34a.438.438 0 0 0 .528-.24c.076-.185-.023-.39-.223-.461a.127.127 0 0 1-.025-.008l-1.51-.466-.95-.35a35.603 35.603 0 0 1-.664-1.516c.168.072.352.145.545.221l1.095.41c.215.074.455-.015.546-.208a.324.324 0 0 0 .006-.28.391.391 0 0 0-.223-.198s-.74-.262-1.447-.571a70.558 70.558 0 0 1-.927-.404 30.65 30.65 0 0 1-.54-1.579l.537.274c.506.259 1.04.49 1.04.49.206.09.452.016.56-.169.1-.177.024-.394-.167-.49 0 0-.688-.322-1.388-.674l-.883-.463a26.919 26.919 0 0 1-.392-1.619c.155.095.333.204.513.31l.991.565a.459.459 0 0 0 .577-.12c.06-.08.083-.18.06-.273a.34.34 0 0 0-.176-.225s-.677-.368-1.33-.78a34.99 34.99 0 0 1-.833-.556c-.089-.553-.15-1.098-.197-1.634l.467.367c.216.171.452.335.634.455l.295.198c.185.119.44.09.586-.068a.31.31 0 0 0 .083-.262.363.363 0 0 0-.16-.237s-.596-.42-1.2-.894c-.276-.214-.55-.436-.767-.618a14.766 14.766 0 0 1-.006-.968c.301.046.605.095.904.153.214.19.37.323.37.323a.475.475 0 0 0 .591 0 .388.388 0 0 0 .083-.101c12.463 2.906 19.995 14.517 16.82 25.932a19.13 19.13 0 0 1-.469 1.467zm-42.188 4.257c-3.162-4.844-4.096-10.636-2.6-16.109a.37.37 0 0 0 .138-.02c.212-.067.336-.273.282-.476 0 0-.055-.186-.137-.45.089-.269.182-.535.282-.801.31.146.617.3.93.464.071.26.152.585.228.91.17.711.29 1.393.29 1.393a.358.358 0 0 0 .152.243.39.39 0 0 0 .29.059c.221-.045.37-.235.344-.441l-.05-.333c-.03-.2-.075-.47-.134-.727-.05-.192-.094-.385-.134-.552.495.292.987.6 1.48.935.042.266.093.603.137.935.087.721.117 1.442.117 1.442a.34.34 0 0 0 .131.249c.081.062.187.091.293.082.225-.022.395-.199.39-.405 0 0-.037-.534-.076-1.067a24.582 24.582 0 0 0-.055-.565c.46.34.917.707 1.371 1.084.006.268.017.597.026.933.008.733-.009 1.438-.009 1.438a.322.322 0 0 0 .113.257c.07.072.171.113.275.113.23-.002.418-.165.43-.375 0 0 .03-.54.025-1.07 0-.196-.007-.392-.011-.565.424.379.847.772 1.26 1.184a41 41 0 0 1-.048.938c-.039.718-.138 1.44-.138 1.44a.347.347 0 0 0 .083.273.408.408 0 0 0 .273.13c.227.016.429-.136.459-.342l.125-1.077c.021-.194.036-.379.047-.546.386.404.768.824 1.143 1.254-.034.264-.074.598-.116.933-.134.72-.263 1.44-.263 1.44-.043.192.093.379.303.418l.028.004c.225.03.439-.105.483-.311l.202-1.06c.034-.198.066-.384.093-.555.359.439.705.892 1.053 1.354-.053.26-.123.585-.206.914l-.365 1.41a.331.331 0 0 0 .047.279c.06.083.153.142.257.161.225.049.447-.076.507-.278l.274-1.038c.046-.196.087-.385.131-.556.253.36.499.727.74 1.097.073.106.134.215.204.322-.076.259-.176.581-.271.908l-.459 1.38a.367.367 0 0 0 .024.28.381.381 0 0 0 .233.182c.219.06.45-.044.529-.242 0 0 .205-.516.363-1.025.057-.19.116-.373.167-.538.293.488.567.977.832 1.467-.095.251-.216.566-.335.889-.257.68-.573 1.346-.573 1.346a.328.328 0 0 0 0 .282.378.378 0 0 0 .22.197c.215.073.455-.02.546-.21l.454-1.003c.076-.179.146-.35.21-.51.25.502.486 1.003.707 1.503-.113.243-.253.552-.395.861-.344.669-.707 1.304-.707 1.304a.333.333 0 0 0-.023.28.38.38 0 0 0 .208.208.453.453 0 0 0 .562-.173s.266-.478.522-.958l.261-.506c.213.525.412 1.052.593 1.567-.136.237-.315.529-.493.818-.395.638-.793 1.24-.793 1.24a.315.315 0 0 0-.043.274.351.351 0 0 0 .176.222c.2.103.45.049.577-.126l.202-.282c.121-.17.257-.404.405-.63l.302-.492c.167.54.312 1.075.441 1.604-.159.227-.359.507-.564.783-.423.597-.928 1.159-.928 1.159a.318.318 0 0 0 .047.476.469.469 0 0 0 .618-.05l.715-.852c.127-.152.246-.303.352-.441.108.548.197 1.086.265 1.617-.176.208-.403.464-.653.717a33.79 33.79 0 0 1-1.06 1.046.305.305 0 0 0-.103.25.32.32 0 0 0 .12.243c.17.136.427.133.593-.007l.263-.232c.146-.144.344-.336.537-.53.144-.15.286-.3.411-.428.045.566.06 1.11.056 1.648l-.221.193c-6.674-1.07-12.512-4.749-15.986-10.078zm17.378 10.266a21.277 21.277 0 0 0-.38-.373c.007-.548-.008-1.11-.053-1.685l.459.377.617.538.261.255a.415.415 0 0 0 .55.031c.015-.012.027-.025.04-.039a.41.41 0 0 0-.019-.6s-.609-.556-1.216-1.056a11.584 11.584 0 0 0-.804-.628 23.267 23.267 0 0 0-.274-1.679c.16.101.337.22.51.344l.954.69a.42.42 0 0 0 .586-.072.419.419 0 0 0-.09-.587s-.63-.484-1.325-.913a48.38 48.38 0 0 0-.864-.537 28.07 28.07 0 0 0-.442-1.628l.52.276c.266.145.524.291.722.404.197.113.314.192.314.192.18.115.429.074.552-.093l.023-.031a.398.398 0 0 0-.157-.566s-.715-.412-1.42-.787c-.329-.173-.64-.338-.902-.468a30.787 30.787 0 0 0-.594-1.586l.541.243 1.083.509c.19.099.435.037.545-.14l.017-.031c.093-.204.004-.441-.21-.548 0 0-.737-.358-1.464-.679-.338-.136-.673-.268-.94-.377-.23-.519-.474-1.04-.735-1.558.176.06.367.126.565.2l1.107.435c.202.086.44.004.531-.179l.015-.03c.08-.21-.026-.442-.244-.537 0 0-.751-.305-1.532-.566l-.953-.31c-.27-.5-.548-1-.845-1.497a29.904 29.904 0 0 1 1.708.505c.206.074.44-.021.518-.212.005-.01.009-.02.01-.03.075-.215-.052-.442-.283-.516l-1.581-.457-.97-.256c-.075-.115-.145-.234-.219-.35-.24-.368-.486-.727-.734-1.083.176.039.365.076.562.12l1.184.273c.213.058.435-.055.5-.25.001-.009.005-.019.008-.028.04-.218-.107-.428-.338-.486l-1.598-.364c-.352-.08-.707-.147-.997-.2-.348-.466-.7-.923-1.06-1.364l.58.087 1.193.202c.216.045.43-.081.477-.28a.072.072 0 0 0 .007-.029c.027-.221-.132-.425-.37-.47l-1.608-.268-1.012-.117c-.39-.453-.794-.888-1.197-1.31.186.012.399.03.609.05l1.197.13c.22.03.424-.11.456-.312.002-.01.002-.02.002-.031.015-.222-.16-.416-.397-.45 0 0-.815-.1-1.647-.145a39.269 39.269 0 0 0-1.022-.058c-.425-.418-.856-.82-1.29-1.207h.604c.618 0 1.216.037 1.216.037.22.013.412-.14.429-.342v-.033c.002-.226-.196-.412-.442-.418 0 0-.844-.028-1.657-.026l-1.05.012a30.6 30.6 0 0 0-1.393-1.098c.185-.014.397-.03.611-.043l1.219-.06c.218-.002.394-.167.392-.367 0-.014 0-.026-.002-.037-.034-.222-.244-.385-.488-.38 0 0-.83.022-1.649.096-.38.037-.747.082-1.04.116a27.07 27.07 0 0 0-1.528-.96l.618-.116c.305-.057.605-.096.827-.12l.376-.045c.219-.022.378-.2.352-.4a.136.136 0 0 0-.006-.042c-.042-.233-.278-.394-.535-.367 0 0-.853.12-1.657.272-.386.072-.756.146-1.044.21-.344-.18-.688-.352-1.032-.511.07-.171.138-.34.213-.507.503-.137.97-.243.97-.243.212-.043.345-.234.299-.428a.33.33 0 0 0-.015-.049c-.094-.213-.344-.332-.588-.281l-.214.052c4.03-7.93 12.94-12.803 22.475-12.292-.089.092-.153.15-.153.15a.434.434 0 0 0-.008.607c.14.15.386.167.55.038.014-.011.027-.025.042-.038 0 0 .327-.323.694-.667.197.017.395.045.588.068-.009.354-.009.711 0 1.075-.2.202-.44.464-.696.742-.529.576-1.046 1.207-1.046 1.207a.414.414 0 0 0 .087.585.425.425 0 0 0 .587-.066l.221-.284c.132-.167.308-.388.51-.608.14-.154.282-.307.403-.441.046.554.108 1.114.2 1.687-.177.218-.391.494-.608.783a26.274 26.274 0 0 0-.874 1.283.418.418 0 0 0 .136.575.42.42 0 0 0 .551-.087l.024-.033.636-.955a27.3 27.3 0 0 1 .334-.474c.108.542.244 1.09.392 1.645-.142.237-.325.534-.51.84-.385.656-.761 1.348-.761 1.348-.112.202-.028.449.191.556a.42.42 0 0 0 .545-.136c.007-.012.013-.021.017-.031 0 0 .25-.502.546-.997l.286-.486c.168.534.348 1.07.548 1.611-.125.243-.278.542-.431.853a21.1 21.1 0 0 0-.639 1.398c-.083.208.023.441.242.534.202.086.441.006.535-.179l.013-.029s.218-.51.441-1.024c.08-.18.163-.36.24-.517.216.529.441 1.057.694 1.588l-.37.87-.507 1.427c-.068.212.053.438.278.52.208.071.44-.024.518-.214a.16.16 0 0 0 .01-.03l.372-1.057c.066-.179.132-.35.189-.51.255.504.528 1.004.808 1.505-.089.257-.19.575-.28.9l-.41 1.462c-.054.215.08.433.309.503.212.058.437-.052.5-.247.002-.01.007-.02.009-.029l.299-1.084.153-.512c.223.372.454.739.694 1.108.074.115.153.228.231.34l-.214.906c-.157.745-.31 1.489-.31 1.489-.04.222.119.433.359.476.216.045.43-.08.481-.278.002-.01.005-.02.005-.03 0 0 .078-.543.205-1.093.04-.187.081-.364.117-.527.34.476.688.939 1.04 1.392l-.153.917a21.536 21.536 0 0 0-.184 1.503c-.015.221.159.417.398.45.221.03.425-.108.459-.309l.002-.03.108-1.1c.021-.193.047-.38.072-.55.38.456.764.901 1.153 1.332-.024.267-.053.601-.087.937-.036.739-.043 1.503-.043 1.503.002.221.187.408.429.427.22.016.414-.136.43-.338v-.033l.026-1.114.026-.548c.407.424.82.836 1.241 1.233 0 .27.01.6.021.946.026.748.081 1.52.081 1.52.015.227.225.402.473.395.22-.002.397-.166.397-.366 0-.013 0-.027-.002-.039l-.036-.344c-.023-.204-.028-.491-.045-.771-.004-.19-.01-.381-.017-.55.448.394.902.767 1.359 1.13.027.27.061.603.103.95.081.763.25 1.504.25 1.504.052.221.275.371.52.352.217-.02.376-.197.355-.395l-.006-.043-.21-1.098a7.018 7.018 0 0 1-.087-.573c.492.36.987.7 1.485 1.018.05.274.125.609.221.945.193.729.441 1.48.441 1.48.07.224.32.356.57.302.21-.039.347-.227.305-.42a.36.36 0 0 0-.017-.05l-.123-.33c-.06-.207-.14-.48-.223-.755-.051-.19-.102-.38-.145-.548.531.307 1.06.585 1.594.842.051.142.113.307.176.486-3.887 8.964-13.864 14.42-24.326 13.302zm-10.16-40.898c-11.863 6.486-15.739 20.552-8.655 31.417 7.082 10.865 22.44 14.414 34.303 7.926 11.86-6.486 15.735-20.552 8.654-31.415C205.81.891 190.466-2.654 178.6 3.816"/></g><g><path fill="none" stroke="#026b38" stroke-miterlimit="20" stroke-width=".5" d="M213.977 30.191l-.29.086a23.22 23.22 0 0 1-1.557-.826l.607-.126.764-.185.348-.103c.215-.07.338-.272.289-.474a.334.334 0 0 0-.176-.212.38.38 0 0 0-.291-.037s-.728.192-1.507.357a12.61 12.61 0 0 1-1 .187 26.789 26.789 0 0 1-1.425-.98c.176-.019.382-.042.59-.073l1.156-.173c.223-.043.374-.232.348-.44-.019-.186-.201-.322-.405-.303-.013.002-.024.002-.036.006 0 0-.775.14-1.552.198-.362.035-.727.062-1.02.082a32.72 32.72 0 0 1-1.333-1.116l.618-.01.793-.029.367-.027c.227-.02.4-.196.395-.404a.352.352 0 0 0-.132-.249.376.376 0 0 0-.282-.095s-.768.039-1.57.054c-.363.006-.726.01-1.019.008-.414-.39-.821-.8-1.224-1.22l.607.03 1.169.034c.23.001.418-.162.43-.372a.34.34 0 0 0-.097-.266.413.413 0 0 0-.282-.115s-.781-.011-1.587-.052l-1.015-.09a38.575 38.575 0 0 1-1.108-1.284c.183.025.38.05.59.072l1.178.108c.227.018.43-.132.46-.338a.334.334 0 0 0-.082-.272.404.404 0 0 0-.274-.13s-.794-.062-1.564-.177l-1.016-.153a39.092 39.092 0 0 1-1.017-1.365l.599.12c.564.115 1.156.195 1.156.195.225.031.44-.103.486-.31a.323.323 0 0 0-.066-.273.429.429 0 0 0-.256-.154l-1.543-.283-1.002-.212c-.072-.107-.144-.21-.214-.32-.242-.368-.476-.742-.7-1.115l.594.158 1.129.274c.222.046.447-.076.509-.278a.35.35 0 0 0-.032-.284.405.405 0 0 0-.244-.171l-1.532-.375c-.352-.088-.7-.187-.974-.266a39.46 39.46 0 0 1-.804-1.493l.579.188 1.114.34a.438.438 0 0 0 .528-.24c.077-.185-.023-.39-.222-.461a.127.127 0 0 1-.026-.008l-1.509-.466-.95-.35a35.603 35.603 0 0 1-.665-1.516c.168.072.353.145.546.221l1.095.41c.214.074.454-.015.545-.208a.324.324 0 0 0 .006-.28.391.391 0 0 0-.222-.198s-.741-.262-1.448-.571a70.558 70.558 0 0 1-.927-.404 30.65 30.65 0 0 1-.54-1.579l.538.274c.505.259 1.04.49 1.04.49.206.09.452.016.56-.169.1-.177.023-.394-.168-.49 0 0-.687-.322-1.388-.674l-.882-.463a26.919 26.919 0 0 1-.393-1.619c.155.095.333.204.514.31l.99.565a.459.459 0 0 0 .578-.12c.06-.08.083-.18.06-.273a.34.34 0 0 0-.177-.225s-.677-.368-1.33-.78a34.99 34.99 0 0 1-.832-.556c-.09-.553-.151-1.098-.198-1.634l.467.367c.217.171.452.335.635.455l.295.198c.184.119.439.09.585-.068a.31.31 0 0 0 .083-.262.363.363 0 0 0-.159-.237s-.596-.42-1.201-.894c-.276-.214-.55-.436-.766-.618a14.766 14.766 0 0 1-.007-.968c.302.046.605.095.904.153.215.19.37.323.37.323a.475.475 0 0 0 .592 0 .388.388 0 0 0 .082-.101c12.464 2.906 19.995 14.517 16.82 25.932a19.13 19.13 0 0 1-.468 1.467zm-42.189 4.257c-3.162-4.844-4.095-10.636-2.6-16.109a.37.37 0 0 0 .139-.02c.212-.067.335-.273.282-.476 0 0-.055-.186-.138-.45.089-.269.182-.535.282-.801.31.146.618.3.93.464.072.26.152.585.229.91.17.711.288 1.393.288 1.393a.358.358 0 0 0 .153.243.39.39 0 0 0 .29.059c.222-.045.37-.235.345-.441l-.051-.333c-.03-.2-.074-.47-.134-.727-.049-.192-.093-.385-.134-.552.495.292.987.6 1.48.935.042.266.093.603.137.935.088.721.117 1.442.117 1.442a.34.34 0 0 0 .132.249c.08.062.187.091.293.082.225-.022.394-.199.39-.405l-.076-1.067a24.582 24.582 0 0 0-.055-.565c.46.34.916.707 1.37 1.084l.026.933c.008.733-.009 1.438-.009 1.438a.322.322 0 0 0 .113.257c.07.072.172.113.276.113.229-.002.418-.165.428-.375 0 0 .032-.54.026-1.07 0-.196-.006-.392-.01-.565.424.379.846.772 1.26 1.184a41 41 0 0 1-.049.938c-.038.718-.138 1.44-.138 1.44a.347.347 0 0 0 .083.273.408.408 0 0 0 .274.13c.227.016.428-.136.458-.342 0 0 .064-.54.125-1.077.021-.194.036-.379.047-.546.386.404.768.824 1.144 1.254l-.117.933c-.134.72-.263 1.44-.263 1.44-.043.192.093.379.303.418l.028.004c.225.03.44-.105.484-.311l.201-1.06.094-.555c.358.439.704.892 1.052 1.354-.053.26-.123.585-.206.914l-.365 1.41a.331.331 0 0 0 .047.279c.06.083.153.142.257.161.225.049.448-.076.507-.278l.274-1.038c.047-.196.087-.385.131-.556.253.36.5.727.741 1.097.072.106.134.215.204.322-.077.259-.176.581-.272.908l-.458 1.38a.367.367 0 0 0 .023.28.381.381 0 0 0 .234.182c.218.06.45-.044.528-.242 0 0 .206-.516.363-1.025.057-.19.117-.373.168-.538.292.488.566.977.831 1.467-.095.251-.216.566-.335.889-.257.68-.573 1.346-.573 1.346a.328.328 0 0 0 0 .282.378.378 0 0 0 .22.197c.215.073.455-.02.546-.21l.454-1.003c.077-.179.147-.35.21-.51.25.502.486 1.003.707 1.503-.112.243-.252.552-.395.861-.343.669-.706 1.304-.706 1.304a.333.333 0 0 0-.024.28.38.38 0 0 0 .208.208.453.453 0 0 0 .563-.173s.265-.478.522-.958l.26-.506c.213.525.413 1.052.593 1.567-.136.237-.314.529-.492.818-.395.638-.794 1.24-.794 1.24a.315.315 0 0 0-.043.274.351.351 0 0 0 .177.222c.2.103.45.049.577-.126l.201-.282c.121-.17.257-.404.406-.63l.301-.492c.168.54.312 1.075.441 1.604-.159.227-.358.507-.564.783-.422.597-.927 1.159-.927 1.159a.318.318 0 0 0 .046.476.469.469 0 0 0 .618-.05l.715-.852c.127-.152.246-.303.352-.441.109.548.198 1.086.266 1.617-.177.208-.404.464-.654.717a33.79 33.79 0 0 1-1.059 1.046.305.305 0 0 0-.104.25.32.32 0 0 0 .121.243c.17.136.427.133.592-.007l.263-.232c.147-.144.344-.336.537-.53.144-.15.287-.3.412-.428.044.566.06 1.11.055 1.648l-.22.193c-6.675-1.07-12.513-4.749-15.987-10.078zm17.379 10.266a21.277 21.277 0 0 0-.38-.373c.006-.548-.009-1.11-.053-1.685l.458.377.618.538.26.255a.415.415 0 0 0 .55.031c.015-.012.028-.025.04-.039a.41.41 0 0 0-.019-.6s-.609-.556-1.216-1.056a11.584 11.584 0 0 0-.804-.628 23.267 23.267 0 0 0-.274-1.679c.16.101.338.22.51.344l.955.69a.42.42 0 0 0 .585-.072.419.419 0 0 0-.089-.587s-.63-.484-1.326-.913a48.38 48.38 0 0 0-.864-.537 28.07 28.07 0 0 0-.441-1.628l.52.276c.265.145.524.291.721.404.198.113.314.192.314.192.18.115.429.074.552-.093.009-.01.015-.021.023-.031a.398.398 0 0 0-.157-.566s-.715-.412-1.42-.787c-.328-.173-.64-.338-.901-.468a30.787 30.787 0 0 0-.595-1.586l.542.243 1.082.509c.19.099.435.037.545-.14.007-.01.01-.02.017-.031.094-.204.005-.441-.21-.548 0 0-.736-.358-1.464-.679-.337-.136-.673-.268-.94-.377-.23-.519-.473-1.04-.734-1.558.176.06.367.126.564.2l1.108.435c.201.086.44.004.53-.179.007-.011.011-.021.015-.03.08-.21-.025-.442-.244-.537 0 0-.751-.305-1.532-.566l-.953-.31c-.27-.5-.547-1-.844-1.497a29.904 29.904 0 0 1 1.708.505c.206.074.44-.021.518-.212.004-.01.008-.02.01-.03.075-.215-.053-.442-.284-.516l-1.581-.457-.97-.256c-.074-.115-.144-.234-.219-.35-.24-.368-.486-.727-.734-1.083.176.039.365.076.563.12l1.184.273c.212.058.435-.055.498-.25l.009-.028c.04-.218-.106-.428-.338-.486l-1.597-.364c-.353-.08-.707-.147-.998-.2-.348-.466-.7-.923-1.059-1.364l.58.087 1.192.202c.217.045.431-.081.478-.28a.072.072 0 0 0 .006-.029c.028-.221-.132-.425-.37-.47l-1.608-.268-1.012-.117c-.39-.453-.794-.888-1.197-1.31.187.012.399.03.61.05l1.196.13c.22.03.424-.11.456-.312.002-.01.002-.02.002-.031.015-.222-.159-.416-.396-.45 0 0-.815-.1-1.647-.145a39.269 39.269 0 0 0-1.023-.058c-.425-.418-.855-.82-1.29-1.207h.604c.618 0 1.216.037 1.216.037.221.013.412-.14.43-.342v-.033c.001-.226-.196-.412-.442-.418 0 0-.845-.028-1.658-.026l-1.05.012a30.6 30.6 0 0 0-1.392-1.098c.184-.014.397-.03.61-.043l1.219-.06c.219-.002.395-.167.393-.367 0-.014 0-.026-.003-.037-.034-.222-.244-.385-.488-.38 0 0-.83.022-1.649.096-.38.037-.747.082-1.04.116a27.07 27.07 0 0 0-1.527-.96l.617-.116c.306-.057.605-.096.828-.12l.375-.045c.219-.022.378-.2.353-.4a.136.136 0 0 0-.007-.042c-.042-.233-.278-.394-.534-.367 0 0-.854.12-1.658.272-.386.072-.755.146-1.044.21-.344-.18-.687-.352-1.031-.511.07-.171.138-.34.212-.507.503-.137.97-.243.97-.243.212-.043.346-.234.299-.428a.33.33 0 0 0-.015-.049c-.093-.213-.344-.332-.588-.281l-.214.052c4.03-7.93 12.94-12.803 22.476-12.292-.09.092-.153.15-.153.15a.434.434 0 0 0-.009.607c.14.15.387.167.55.038.015-.011.028-.025.042-.038 0 0 .327-.323.694-.667.198.017.395.045.588.068-.008.354-.008.711 0 1.075-.2.202-.44.464-.696.742-.528.576-1.046 1.207-1.046 1.207a.414.414 0 0 0 .087.585.425.425 0 0 0 .588-.066l.22-.284c.132-.167.308-.388.51-.608.14-.154.282-.307.403-.441.047.554.108 1.114.2 1.687-.177.218-.391.494-.608.783a26.274 26.274 0 0 0-.874 1.283.418.418 0 0 0 .136.575.42.42 0 0 0 .552-.087l.023-.033.637-.955a27.3 27.3 0 0 1 .333-.474c.108.542.244 1.09.393 1.645l-.51.84c-.386.656-.762 1.348-.762 1.348-.112.202-.027.449.191.556a.42.42 0 0 0 .546-.136l.017-.031s.25-.502.545-.997l.287-.486c.167.534.348 1.07.547 1.611-.125.243-.278.542-.43.853a21.1 21.1 0 0 0-.64 1.398c-.082.208.024.441.242.534.202.086.442.006.535-.179l.013-.029.441-1.024c.081-.18.164-.36.24-.517.217.529.442 1.057.694 1.588l-.37.87-.506 1.427c-.068.212.053.438.278.52.208.071.439-.024.517-.214a.16.16 0 0 0 .011-.03l.371-1.057c.066-.179.132-.35.19-.51.254.504.528 1.004.808 1.505-.09.257-.191.575-.28.9l-.41 1.462c-.055.215.079.433.308.503.212.058.437-.052.5-.247l.01-.029.298-1.084c.053-.18.107-.352.153-.512.223.372.454.739.694 1.108.074.115.153.228.231.34l-.214.906c-.157.745-.31 1.489-.31 1.489-.04.222.12.433.359.476.216.045.43-.08.482-.278.002-.01.004-.02.004-.03 0 0 .078-.543.206-1.093.04-.187.08-.364.116-.527.34.476.688.939 1.04 1.392l-.152.917a21.536 21.536 0 0 0-.185 1.503c-.015.221.16.417.399.45.22.03.424-.108.458-.309l.002-.03s.056-.55.109-1.1c.02-.193.046-.38.072-.55.38.456.764.901 1.152 1.332-.023.267-.053.601-.087.937-.036.739-.042 1.503-.042 1.503.002.221.186.408.428.427.221.016.414-.136.431-.338v-.033l.026-1.114.025-.548c.407.424.821.836 1.241 1.233 0 .27.011.6.022.946.025.748.08 1.52.08 1.52.015.227.225.402.474.395.22-.002.396-.166.396-.366 0-.013 0-.027-.002-.039l-.036-.344c-.023-.204-.027-.491-.044-.771-.005-.19-.01-.381-.017-.55.447.394.902.767 1.358 1.13.027.27.061.603.104.95.08.763.25 1.504.25 1.504.051.221.274.371.52.352.217-.02.376-.197.355-.395l-.007-.043-.21-1.098a7.018 7.018 0 0 1-.087-.573c.492.36.987.7 1.486 1.018.048.274.125.609.22.945.193.729.442 1.48.442 1.48.07.224.32.356.568.302.21-.039.348-.227.306-.42a.36.36 0 0 0-.017-.05l-.123-.33c-.06-.207-.14-.48-.223-.755-.05-.19-.102-.38-.144-.548.53.307 1.059.585 1.594.842.05.142.112.307.176.486-3.888 8.964-13.864 14.42-24.326 13.302zM179.006 3.816c-11.863 6.486-15.738 20.552-8.654 31.417 7.081 10.865 22.44 14.414 34.302 7.926 11.86-6.486 15.736-20.552 8.654-31.415-7.092-10.853-22.437-14.398-34.302-7.928z"/></g><g><path fill="#026b38" d="M291.209 37.594c-5.477 4.002-12.37 6.02-19.367 5.671a1.935 1.935 0 0 1-1.3-.7 17.428 17.428 0 0 1-2.721-6.058c-.092-.27.074-.556.369-.64a.608.608 0 0 1 .301-.007c1.114.134 2.237.202 3.36.204 5.774-.04 11.398-1.681 16.136-4.703 3.449-2.16 6.424-4.897 8.77-8.065.264-.35.47-.454.479-.227 0 .138.006.276.006.414.006 4.715-1.7 9.3-4.851 13.03-.35.399-.747.76-1.18 1.083zm-19.18 6.832c-.202-.216.015-.368.477-.342.365.019.726.029 1.091.029 4.82-.03 9.556-1.164 13.775-3.3.405-.203.433-.162.057.08-3.945 2.584-8.673 3.974-13.522 3.97-.253 0-.503-.006-.753-.014a1.863 1.863 0 0 1-1.125-.423m-21.082-20.58c.247-3.757 1.688-7.364 4.145-10.38.314-.348.83-.485 1.299-.34 1.57.563 3.06 1.307 4.429 2.211.093.062.182.126.271.193.149.11.083.493-.138.866-2.894 4.826-4.182 10.323-3.705 15.812a22.416 22.416 0 0 0 2.037 7.48c.185.388.05.487-.305.217-3.72-2.836-6.39-6.66-7.636-10.943a17.739 17.739 0 0 1-.397-5.116m41.932-11.605c-.448.76-.942 1.495-1.481 2.202-.11.21-.384.3-.614.198a.436.436 0 0 1-.244-.266c-2.68-4.83-7.166-8.62-12.64-10.678a25.913 25.913 0 0 0-5.292-1.374c-.456-.068-.456-.146.007-.17.428-.023.859-.036 1.294-.036 7.472 0 14.49 3.278 18.877 8.818.273.392.307.886.093 1.306m-22.996 12.816c.255.01.512.016.769.016 4.706.002 9.326-1.155 13.378-3.351 3.909-2.103 7.138-5.121 9.354-8.744.225-.37.594-.383.823-.016a20.067 20.067 0 0 1 2.819 7.617c.044.494-.075.986-.342 1.415-2.37 3.456-5.492 6.432-9.168 8.74-5.57 3.58-12.4 5.128-19.152 4.343-.482-.078-.851-.434-.915-.877a17.361 17.361 0 0 1 1.341-8.476c.191-.4.618-.66 1.093-.667m-1.356-.213c.026 0 .028.01 0 .01-.027.001-.025-.007 0-.01m21.449-9.785c.197.426.127.916-.183 1.281a24.596 24.596 0 0 1-6.19 4.721c-.206.111-.416.216-.626.323-.354.14-.764-.01-.917-.334-.012-.026-.021-.051-.03-.076-2.308-5.112-6.58-9.273-12.01-11.697a25.89 25.89 0 0 0-10.145-2.247c-.462-.008-.55-.222-.184-.48a24.19 24.19 0 0 1 7.542-3.541 7.31 7.31 0 0 1 1.642-.216c2.99.023 5.947.571 8.71 1.617 5.417 2.037 9.827 5.829 12.39 10.651zm-35.74-1.848a19.53 19.53 0 0 0-2.839 4.923c-.157.399-.189.39-.074-.02a20.2 20.2 0 0 1 2.213-5.047c.225-.37.599-.622.813-.566.215.057.157.368-.112.712zm.67-2.109c.761-.98 1.61-1.899 2.54-2.748a2.555 2.555 0 0 1 1.438-.566 25.05 25.05 0 0 1 10.77 2.171c5.265 2.35 9.406 6.39 11.63 11.355.171.4-.028.851-.453 1.03a27.412 27.412 0 0 1-10.996 1.92c-.497-.044-.928-.334-1.123-.756-1.48-3.53-4.051-6.585-7.402-8.793a21.635 21.635 0 0 0-6.076-2.768c-.305-.048-.511-.316-.458-.596a.48.48 0 0 1 .13-.249m15.472 33.508a24.582 24.582 0 0 1-8.542-2.847 3.367 3.367 0 0 1-1.103-1.085 21.524 21.524 0 0 1-2.647-8.544c-.456-5.294.777-10.597 3.549-15.26.15-.293.53-.417.85-.281.068.029.13.07.183.12 2.415 2.03 4.261 4.562 5.382 7.382.148.47.131.972-.049 1.433-2.668 6.204-1.651 13.228 2.687 18.583.278.336.144.565-.312.5zM273.907.577c-13.813 0-25.012 10.255-25.012 22.906 0 12.651 11.197 22.908 25.01 22.908 13.813 0 25.011-10.255 25.011-22.906v-.002C298.902 10.84 287.714.593 273.907.577"/></g><g><path fill="none" stroke="#026b38" stroke-miterlimit="20" stroke-width=".5" d="M291.613 37.594c-5.477 4.002-12.37 6.02-19.367 5.671a1.935 1.935 0 0 1-1.3-.7 17.428 17.428 0 0 1-2.721-6.058c-.091-.27.074-.556.37-.64a.608.608 0 0 1 .3-.007c1.115.134 2.237.202 3.36.204 5.774-.04 11.398-1.681 16.137-4.703 3.448-2.16 6.423-4.897 8.768-8.065.266-.35.472-.454.48-.227 0 .138.006.276.006.414.007 4.715-1.7 9.3-4.85 13.03-.35.399-.748.76-1.18 1.083zm-19.18 6.832c-.201-.216.015-.368.478-.342.365.019.725.029 1.09.029 4.82-.03 9.557-1.164 13.775-3.3.406-.203.433-.162.058.08-3.945 2.584-8.674 3.974-13.523 3.97-.252 0-.503-.006-.753-.014a1.863 1.863 0 0 1-1.125-.423zm-21.081-20.58c.246-3.757 1.687-7.364 4.144-10.38.314-.348.83-.485 1.3-.34 1.57.563 3.06 1.307 4.428 2.211.093.062.183.126.272.193.148.11.082.493-.138.866-2.895 4.826-4.183 10.323-3.706 15.812a22.416 22.416 0 0 0 2.038 7.48c.184.388.049.487-.306.217-3.72-2.836-6.39-6.66-7.635-10.943a17.739 17.739 0 0 1-.397-5.116zm41.931-11.605c-.447.76-.942 1.495-1.481 2.202-.11.21-.384.3-.613.198a.436.436 0 0 1-.244-.266c-2.68-4.83-7.167-8.62-12.64-10.678a25.913 25.913 0 0 0-5.292-1.374c-.457-.068-.457-.146.006-.17.429-.023.86-.036 1.294-.036 7.473 0 14.49 3.278 18.877 8.818.274.392.308.886.093 1.306zm-22.995 12.816c.254.01.511.016.768.016 4.707.002 9.327-1.155 13.378-3.351 3.909-2.103 7.139-5.121 9.354-8.744.225-.37.595-.383.824-.016a20.067 20.067 0 0 1 2.818 7.617c.045.494-.074.986-.342 1.415-2.37 3.456-5.492 6.432-9.167 8.74-5.571 3.58-12.4 5.128-19.153 4.343-.481-.078-.85-.434-.914-.877a17.361 17.361 0 0 1 1.34-8.476c.192-.4.618-.66 1.094-.667zm-1.356-.213c.025 0 .027.01 0 .01m21.448-9.795c.198.426.128.916-.182 1.281a24.596 24.596 0 0 1-6.19 4.721c-.206.111-.417.216-.627.323-.354.14-.764-.01-.916-.334-.013-.026-.022-.051-.03-.076-2.309-5.112-6.58-9.273-12.011-11.697A25.89 25.89 0 0 0 260.28 7.03c-.463-.008-.55-.222-.185-.48a24.19 24.19 0 0 1 7.542-3.541 7.31 7.31 0 0 1 1.643-.216c2.99.023 5.946.571 8.709 1.617 5.418 2.037 9.828 5.829 12.391 10.651zm-35.739-1.848a19.53 19.53 0 0 0-2.84 4.923c-.156.399-.188.39-.074-.02a20.2 20.2 0 0 1 2.214-5.047c.225-.37.598-.622.813-.566.214.057.157.368-.113.712zm.669-2.109c.761-.98 1.61-1.899 2.54-2.748a2.555 2.555 0 0 1 1.439-.566 25.05 25.05 0 0 1 10.77 2.171c5.265 2.35 9.405 6.39 11.629 11.355.172.4-.028.851-.452 1.03a27.412 27.412 0 0 1-10.997 1.92c-.497-.044-.927-.334-1.123-.756-1.479-3.53-4.05-6.585-7.402-8.793a21.635 21.635 0 0 0-6.075-2.768c-.306-.048-.512-.316-.459-.596a.48.48 0 0 1 .13-.249zm15.472 33.508a24.582 24.582 0 0 1-8.541-2.847 3.367 3.367 0 0 1-1.104-1.085 21.524 21.524 0 0 1-2.646-8.544c-.457-5.294.776-10.597 3.548-15.26.15-.293.53-.417.85-.281.069.029.13.07.183.12 2.415 2.03 4.262 4.562 5.382 7.382.149.47.132.972-.049 1.433-2.667 6.204-1.65 13.228 2.687 18.583.278.336.144.565-.312.5zm3.53-44.033c-13.814 0-25.012 10.255-25.012 22.906 0 12.651 11.196 22.908 25.01 22.908 13.812 0 25.01-10.255 25.01-22.906v-.002C299.307 10.84 288.119.593 274.312.577z"/></g><g><path fill="#026b38" d="M19.715 44.43c-.792-2.203-2.097-5.853-2.517-7.017a.82.82 0 0 1 .104-.69l3.223-4.337a.938.938 0 0 1 .665-.326c2.062-.014 7.87 0 9.494 0 .267.014.518.117.707.29l4.117 4.208a.69.69 0 0 1 .148.655c-.422 1.16-1.717 4.78-2.502 6.944a.876.876 0 0 1-.539.484 25.716 25.716 0 0 1-12.36.245.83.83 0 0 1-.54-.457zM2.705 24.98c2.244-1.512 6.04-4.056 7.19-4.836a.865.865 0 0 1 .726-.075l5.652 2.299c.237.11.424.297.52.527.95 2.631 2.563 7.158 3.049 8.472a.812.812 0 0 1-.098.69l-3.126 4.206a.925.925 0 0 1-.664.32c-1.477 0-6.413.014-8.711 0a.956.956 0 0 1-.67-.322c-2.412-3.149-3.855-6.83-4.18-10.665a.752.752 0 0 1 .313-.618zM17.519 4.042c1.35.9 6.267 4.173 7.619 5.071a.835.835 0 0 1 .344.616v5.736a.84.84 0 0 1-.342.618c-1.397.935-6.645 4.465-8.037 5.398a.874.874 0 0 1-.73.072l-5.547-2.257c-.238-.11-.422-.3-.52-.529-.446-1.253-1.916-5.387-2.793-7.866a.741.741 0 0 1 .136-.674c2.443-2.739 5.577-4.89 9.134-6.268a.912.912 0 0 1 .736.083m27.278 7.378c-.834 2.38-2.243 6.313-2.678 7.53a.94.94 0 0 1-.533.503l-6.16 2.053a.948.948 0 0 1-.74-.1c-1.389-.936-6.61-4.423-8.01-5.35a.83.83 0 0 1-.346-.614V9.764a.837.837 0 0 1 .346-.616c1.206-.797 5.27-3.516 7.67-5.108a.904.904 0 0 1 .736-.081c3.782 1.461 7.086 3.798 9.586 6.78.148.2.195.448.127.681zM36.18 36.07l-4.004-4.084a.677.677 0 0 1-.14-.653c.554-1.489 2.546-7.067 3.077-8.566a.952.952 0 0 1 .528-.503l6.055-2.016a.954.954 0 0 1 .743.098l6.733 4.552a.76.76 0 0 1 .314.618c-.305 3.77-1.691 7.403-4.02 10.526a.92.92 0 0 1-.665.32h-7.91a1.138 1.138 0 0 1-.713-.292zM25.935.709C11.952.709.617 11.092.617 23.899c0 12.804 11.337 23.187 25.32 23.185 13.98 0 25.315-10.38 25.317-23.185C51.237 11.096 39.911.723 25.934.709"/></g><g><path fill="#026b38" d="M345.973 37.608l3.348 6.216c-4.348-1.355-8.155-3.872-10.93-7.224zm-12.631-11.08l1.62-1.456 5.531-4.937 5.777 2.356 3.435 9.683-3.527 3.817-7.537-1.003-2.322-.309a20.215 20.215 0 0 1-2.982-8.151zm4.643-14.826l1.35 7.207-5.607 5.006c-.01-4.379 1.479-8.65 4.257-12.215zm8.724-7.332h-.002zm2.007.968l7.101 3.419v6.268l-8.93 5.944-5.81-2.371-1.34-7.174-.39-2.092c2.078-2.077 4.577-3.762 7.36-4.961zm7.988-2.486c2.432 0 4.85.354 7.162 1.05l-7.162 3.45-7.164-3.45a24.886 24.886 0 0 1 7.164-1.05zm9.993 1.518c2.787 1.2 5.29 2.887 7.37 4.966l-.392 2.092-1.339 7.172-5.81 2.373-8.93-5.946v-6.27l7.1-3.419zm8.725 7.332c2.773 3.558 4.263 7.823 4.257 12.196 0 .017-5.607-4.99-5.607-4.99zm1.668 22.981l-2.322.31-7.538 1.004-3.527-3.82 3.434-9.682 5.778-2.356 5.528 4.933 1.626 1.452a20.233 20.233 0 0 1-2.98 8.161zm-13.003 9.141zm3.351-6.216l7.582-1.008c-2.775 3.352-6.582 5.87-10.933 7.224zM348.033 22.21l8.671-5.769 8.671 5.769-3.312 9.337h-10.715zm13.435 22.812a25.927 25.927 0 0 1-9.53 0l-1.031-1.914-3.305-6.134 3.513-3.802h11.183l3.512 3.802-3.304 6.134zm-4.764 2.065c13.983 0 25.317-10.383 25.317-23.19 0-12.807-11.336-23.188-25.319-23.186-13.983 0-25.317 10.381-25.317 23.188.017 12.8 11.343 23.174 25.32 23.188"/></g></g></svg>