<svg xmlns="http://www.w3.org/2000/svg" width="324" height="57" viewBox="0 0 324 57"><g><g><g><path fill="#159b3f" d="M283.803 16.65c0-9.196 7.454-16.65 16.65-16.65 9.194 0 16.648 7.454 16.648 16.65 0 9.194-7.454 16.648-16.649 16.648s-16.649-7.454-16.649-16.649z"/></g><g><path fill="#159b3f" d="M300.452 56.343c13.022 0 23.576-4.479 23.576-7.533 0-4.934-6.066-12.035-14.671-15.185a18.173 18.173 0 0 1-8.906 2.322c-3.23 0-6.266-.846-8.905-2.322-8.604 3.15-14.67 10.251-14.67 15.185 0 3.054 10.556 7.533 23.576 7.533z"/></g></g><g><g><path fill="#159b3f" d="M214.09 16.65c0-9.196 7.453-16.65 16.648-16.65s16.65 7.454 16.65 16.65c0 9.194-7.455 16.648-16.65 16.648-9.195 0-16.649-7.454-16.649-16.649z"/></g><g><path fill="#159b3f" d="M230.738 56.343c13.022 0 23.576-4.479 23.576-7.533 0-4.934-6.066-12.035-14.671-15.185a18.173 18.173 0 0 1-8.905 2.322c-3.232 0-6.267-.846-8.906-2.322-8.604 3.15-14.67 10.251-14.67 15.185 0 3.054 10.556 7.533 23.576 7.533z"/></g></g><g><g><path fill="#159b3f" d="M145.177 16.65c0-9.196 7.454-16.65 16.649-16.65s16.649 7.454 16.649 16.65c0 9.194-7.454 16.648-16.65 16.648-9.194 0-16.648-7.454-16.648-16.649z"/></g><g><path fill="#159b3f" d="M161.826 56.343c13.021 0 23.576-4.479 23.576-7.533 0-4.934-6.066-12.035-14.672-15.185a18.173 18.173 0 0 1-8.905 2.322c-3.231 0-6.267-.846-8.905-2.322-8.605 3.15-14.67 10.251-14.67 15.185 0 3.054 10.555 7.533 23.576 7.533z"/></g></g><g><g><path fill="#159b3f" d="M76.264 16.65C76.264 7.453 83.718 0 92.914 0c9.194 0 16.648 7.454 16.648 16.65 0 9.194-7.454 16.648-16.649 16.648S76.264 25.844 76.264 16.65z"/></g><g><path fill="#159b3f" d="M92.913 56.343c13.022 0 23.576-4.479 23.576-7.533 0-4.934-6.066-12.035-14.671-15.185a18.173 18.173 0 0 1-8.906 2.322c-3.23 0-6.266-.846-8.905-2.322-8.604 3.15-14.67 10.251-14.67 15.185 0 3.054 10.556 7.533 23.576 7.533z"/></g></g><g><g><path fill="#159b3f" d="M7.352 16.65C7.352 7.453 14.806 0 24 0S40.65 7.454 40.65 16.65c0 9.194-7.454 16.648-16.65 16.648-9.194 0-16.648-7.454-16.648-16.649z"/></g><g><path fill="#159b3f" d="M24 56.343c13.022 0 23.577-4.479 23.577-7.533 0-4.934-6.066-12.035-14.672-15.185A18.173 18.173 0 0 1 24 35.947c-3.231 0-6.267-.846-8.905-2.322C6.49 36.775.425 43.876.425 48.81c0 3.054 10.555 7.533 23.576 7.533z"/></g></g></g></svg>