<svg xmlns="http://www.w3.org/2000/svg" width="153" height="27" viewBox="0 0 153 27"><g><g><g opacity=".4"><g opacity=".4"><path fill="#159b3f" d="M133.825 7.838a7.838 7.838 0 1 1 15.675 0 7.838 7.838 0 0 1-15.675 0z"/></g><g opacity=".4"><path fill="#159b3f" d="M141.662 26.523c6.13 0 11.099-2.108 11.099-3.546 0-2.322-2.856-5.665-6.907-7.148a8.555 8.555 0 0 1-4.192 1.093 8.558 8.558 0 0 1-4.192-1.093c-4.05 1.483-6.906 4.826-6.906 7.148 0 1.438 4.97 3.546 11.098 3.546z"/></g></g><g><g><path fill="#159b3f" d="M101.007 7.838a7.838 7.838 0 1 1 15.675 0 7.838 7.838 0 0 1-15.675 0z"/></g><g><path fill="#159b3f" d="M108.845 26.523c6.13 0 11.098-2.108 11.098-3.546 0-2.322-2.855-5.665-6.907-7.148a8.555 8.555 0 0 1-4.192 1.093 8.558 8.558 0 0 1-4.192-1.093c-4.05 1.483-6.906 4.826-6.906 7.148 0 1.438 4.97 3.546 11.099 3.546z"/></g></g><g><g><path fill="#159b3f" d="M68.567 7.838a7.838 7.838 0 1 1 15.675 0 7.838 7.838 0 0 1-15.675 0z"/></g><g><path fill="#159b3f" d="M76.404 26.523c6.13 0 11.099-2.108 11.099-3.546 0-2.322-2.856-5.665-6.907-7.148a8.555 8.555 0 0 1-4.192 1.093 8.558 8.558 0 0 1-4.192-1.093c-4.05 1.483-6.906 4.826-6.906 7.148 0 1.438 4.969 3.546 11.098 3.546z"/></g></g><g><g><path fill="#159b3f" d="M36.126 7.838a7.838 7.838 0 1 1 15.675 0 7.838 7.838 0 0 1-15.675 0z"/></g><g><path fill="#159b3f" d="M43.963 26.523c6.13 0 11.099-2.108 11.099-3.546 0-2.322-2.856-5.665-6.907-7.148a8.555 8.555 0 0 1-4.192 1.093 8.558 8.558 0 0 1-4.192-1.093c-4.05 1.483-6.906 4.826-6.906 7.148 0 1.438 4.969 3.546 11.098 3.546z"/></g></g><g><g><path fill="#159b3f" d="M3.685 7.838a7.838 7.838 0 1 1 15.675 0 7.838 7.838 0 0 1-15.675 0z"/></g><g><path fill="#159b3f" d="M11.523 26.523c6.13 0 11.098-2.108 11.098-3.546 0-2.322-2.855-5.665-6.906-7.148a8.555 8.555 0 0 1-4.193 1.093 8.558 8.558 0 0 1-4.192-1.093C3.28 17.312.424 20.655.424 22.977c0 1.438 4.97 3.546 11.099 3.546z"/></g></g></g></g></svg>