<svg xmlns="http://www.w3.org/2000/svg" width="67" height="48" viewBox="0 0 67 48"><g><g><g><g><path fill="#026b38" d="M24.892 11.652l-2.248 1.366c-1.434.876-1.815 2.635-.845 3.931l9.685 12.953 7.454-4.532-9.688-12.954c-.97-1.296-2.92-1.638-4.358-.764"/></g></g><g><g><g><path fill="#026b38" d="M57.893 42.516c9.237-5.622 11.673-16.932 5.444-25.265l-3.456-4.625-1.688-2.256-1.583-2.116c-.97-1.297-2.92-1.638-4.358-.765L35.637 17.6l1.062 1.418c2.188 2.927 6.597 3.702 9.845 1.725l5.022-3.053c.475-.292 1.124-.179 1.445.252.316.418.219.985-.219 1.301-4.498 3.168-6.84 8.79-3.125 14.483.286.428.15.984-.308 1.266-.473.292-1.122.181-1.443-.247l-.03-.04c-2.566-3.6-2.885-8.14-.84-12.002L30.92 32.51 7.987 1.843C7.017.546 5.067.205 3.629 1.078L1.384 2.447C-.053 3.32-.432 5.079.536 6.376L25.76 40.108c6.233 8.334 18.77 10.531 28.01 4.912z"/></g></g></g><g><g><path fill="#026b38" d="M34.07 6.069l-2.247 1.366c-1.437.876-1.815 2.635-.845 3.932l3.68 4.921 7.45-4.533-3.68-4.921c-.97-1.297-2.92-1.638-4.357-.765"/></g></g><g><g><path fill="#026b38" d="M43.249.484L41 1.85c-1.434.876-1.815 2.635-.845 3.931l3.68 4.922 7.45-4.533-3.68-4.922c-.97-1.296-2.92-1.638-4.357-.764"/></g></g></g></g></svg>