<svg xmlns="http://www.w3.org/2000/svg" width="377" height="44" viewBox="0 0 377 44"><g><g><g><path fill="#026b38" d="M120.3 27.346c-1.942 0-3.801.731-5.136 2.024l-15.095-6.772a5.395 5.395 0 0 0 0-1.918l15.074-6.696c2.689 2.602 7.175 2.715 10.017.252 2.841-2.464 2.964-6.571.273-9.174-2.689-2.602-7.173-2.715-10.016-.25-1.416 1.226-2.216 2.933-2.214 4.717.002.319.03.635.083.948l-15.074 6.694c-2.686-2.61-7.174-2.732-10.025-.272-2.85 2.46-2.983 6.572-.297 9.182 2.685 2.61 7.173 2.733 10.025.274.096-.084.19-.17.28-.257l15.095 6.77c-.583 3.543 2.08 6.851 5.949 7.388 3.87.536 7.482-1.903 8.068-5.448.584-3.545-2.08-6.853-5.948-7.39a8.029 8.029 0 0 0-1.06-.072"/></g></g><g><path fill="#026b38" d="M183.842 22.29c0-5.205.036-10.412-.022-15.617-.097-1.466 1.12-2.73 2.723-2.819a3.34 3.34 0 0 1 .342 0c1.86.051 3.722.008 5.583.012 1.524-.091 2.837.966 2.935 2.362.009.11.009.22 0 .33.004 10.457.004 20.912 0 31.368.142 1.39-.974 2.624-2.491 2.753a2.903 2.903 0 0 1-.52 0h-5.683c-1.492.083-2.774-.957-2.865-2.323a1.926 1.926 0 0 1 0-.313c-.005-5.252-.005-10.501-.002-15.753"/></g><g><path fill="#026b38" d="M183.823 29.737v-8.265c-.113-1.368 1.006-2.56 2.5-2.664.127-.008.256-.008.386 0a717.32 717.32 0 0 1 5.783 0c1.504-.082 2.797.97 2.886 2.348.004.093.006.188 0 .282.006 5.539.006 11.08 0 16.622.074 1.376-1.085 2.548-2.59 2.616a2.873 2.873 0 0 1-.258 0c-1.961.005-3.922.005-5.883 0-1.492.062-2.754-.994-2.822-2.36a2 2 0 0 1 0-.225c-.007-2.784-.002-5.569-.002-8.354"/></g><g><path fill="#026b38" d="M183.82 33.817v-4.203c-.076-1.36 1.067-2.522 2.553-2.592a2.92 2.92 0 0 1 .261 0c1.978-.014 3.956-.014 5.934 0 1.491-.051 2.748 1.016 2.803 2.384a708.125 708.125 0 0 1 0 8.678c.061 1.377-1.108 2.54-2.61 2.596-.09.003-.179.001-.268-.002-1.944.005-3.89.005-5.834 0-1.491.072-2.763-.978-2.841-2.342a2.398 2.398 0 0 1 .002-.276c-.004-1.412 0-2.828 0-4.243"/></g><g><g><path fill="#026b38" d="M282.94 3.385l-1.902-1.741a.962.962 0 0 0-.65-.245h-15.663a.97.97 0 0 0-.652.245l-1.899 1.741a.967.967 0 0 1-.65.247h-7.24c-.507-.002-.917.375-.919.84V7.26c-.002.465.408.842.915.844h36.547c.507.001.92-.376.92-.84V4.474c0-.465-.41-.842-.918-.842h-7.24a.954.954 0 0 1-.65-.247M264.924 21.75l2.12-1.948a1.004 1.004 0 0 1 1.331 0l3.839 3.516c.367.337.963.337 1.33 0l3.84-3.516a1.004 1.004 0 0 1 1.33 0l2.122 1.944a.81.81 0 0 1 0 1.217l-3.839 3.518a.81.81 0 0 0 0 1.216l3.84 3.518a.81.81 0 0 1 0 1.217l-2.119 1.952a1 1 0 0 1-1.328 0l-3.841-3.517a1 1 0 0 0-1.329 0l-3.839 3.517a1.004 1.004 0 0 1-1.33 0l-2.122-1.944a.81.81 0 0 1 0-1.217l3.839-3.518a.81.81 0 0 0 0-1.217l-3.84-3.518a.81.81 0 0 1-.004-1.22m-9.118 15.627c.008 2.956 2.622 5.349 5.85 5.358h21.803c3.226-.01 5.84-2.404 5.849-5.358V12.342c0-.49-.433-.889-.968-.889h-31.565c-.534 0-.97.399-.97.889z"/></g></g><g><path fill="#026b38" d="M41.067 26.12h-.499c-.787 0-1.424-.577-1.424-1.288 0-.712.637-1.289 1.424-1.289h.5c.786 0 1.425.577 1.425 1.289 0 .711-.639 1.288-1.426 1.288zm-5.628 0h-.499c-.787 0-1.426-.577-1.426-1.288 0-.712.64-1.289 1.426-1.289h.5c.786 0 1.423.577 1.423 1.289 0 .711-.637 1.288-1.424 1.288m.855 13.977c-.01.78-.706 1.41-1.566 1.417H14.203c-.891.014-1.624-.628-1.638-1.432a.186.186 0 0 1 0-.05v-7.857h23.73zm-23.66-28.086h5.134c2.75-.005 4.98-2.02 4.987-4.509V2.865h11.472c1.153.007 2.078.859 2.067 1.899v13.819h-23.66zm7.269-7.343v2.834c-.002 1.067-.957 1.93-2.137 1.934h-3.137zM44.13 18.583h-4.917V4.799C39.208 2.31 36.978.295 34.227.289H21.045c-.145 0-.215.065-.357.129-.038-.002-.072.023-.074.058v.006a1 1 0 0 0-.285.192L10.14 9.823c-.07.064-.142.192-.212.256 0 .035-.03.065-.068.065h-.004c-.07.13-.07.194-.143.322v8.119H4.797c-2.512.015-4.543 1.85-4.562 4.12v9.598c.019 2.27 2.05 4.107 4.562 4.124h4.917v3.606c-.01 2.233 1.985 4.049 4.453 4.056H34.652c2.468.01 4.48-1.792 4.488-4.023v-3.64h4.917c2.513-.016 4.546-1.853 4.563-4.123v-9.598c.04-2.239-1.934-4.085-4.412-4.122h-.077"/></g><g><path fill="#026b38" d="M17.027 38.102h14.536c.788 0 1.427-.577 1.427-1.289 0-.711-.64-1.288-1.427-1.288H17.027c-.788 0-1.426.577-1.426 1.288 0 .712.638 1.289 1.426 1.289"/></g><g><path fill="#026b38" d="M332.705 1.4h42.871c.492 0 .894.365.894.817v39.266c0 .45-.402.818-.894.818h-42.871c-.493 0-.894-.367-.894-.818V2.217c0-.452.401-.818.894-.818"/></g><g><g><text dominant-baseline="text-before-edge" style="font-kerning:normal" fill="#fff" font-family="'Source Sans Pro','SourceSansPro-Bold'" font-size="13" font-style="none" font-weight="700" transform="translate(350 7)"><tspan>B</tspan></text></g></g></g></svg>