<svg xmlns="http://www.w3.org/2000/svg" width="22" height="22" viewBox="0 0 22 22"><g><g><g><path fill="#1c2f82" d="M16.877 3.791c.733 0 1.345.612 1.345 1.345 0 .734-.612 1.346-1.345 1.346a1.357 1.357 0 0 1-1.346-1.346c0-.733.612-1.345 1.346-1.345m-5.87 10.884c2.079 0 3.668-1.59 3.668-3.668 0-2.08-1.59-3.67-3.668-3.67-2.08 0-3.67 1.59-3.67 3.67 0 2.079 1.59 3.668 3.67 3.668m0-9.294a5.61 5.61 0 0 1 5.625 5.626 5.61 5.61 0 0 1-5.625 5.625 5.61 5.61 0 0 1-5.626-5.625c0-3.18 2.446-5.626 5.626-5.626m0-5.381c2.935 0 3.424 0 4.524.122 1.223 0 1.957.245 2.69.49.735.244 1.346.611 1.958 1.222.611.612.978 1.223 1.223 1.957.244.734.489 1.468.489 2.69.122 1.101.122 1.59.122 4.526 0 2.935-.122 3.302-.122 4.524 0 1.223-.245 1.957-.49 2.69-.244.735-.61 1.346-1.222 1.958-.612.611-1.223.978-1.957 1.223-.734.244-1.468.489-2.69.489-1.101.122-1.59.122-4.525.122-2.936 0-3.425 0-4.525-.122-1.223 0-1.957-.245-2.69-.49-.735-.244-1.346-.61-1.958-1.222-.611-.612-.978-1.223-1.223-1.957-.244-.734-.489-1.468-.489-2.69C0 14.43 0 13.941 0 11.006 0 8.07 0 7.582.122 6.482c0-1.223.123-1.957.49-2.69.244-.735.61-1.346 1.222-1.958.612-.611 1.223-.978 1.957-1.223C4.525.367 5.26.122 6.481.122 7.583 0 8.072 0 11.008 0m0 1.957c-2.936 0-3.302 0-4.403.122-1.1 0-1.712.245-2.08.367-.488.122-.855.367-1.222.856-.367.367-.612.734-.856 1.223-.122.367-.367.978-.367 2.079-.122 1.1-.122 1.467-.122 4.403 0 2.935.122 3.301.122 4.402 0 1.1.245 1.712.367 2.08.244.488.49.855.856 1.222.367.367.734.612 1.223.856.367.122.978.367 2.079.367 1.1.122 1.467.122 4.403.122 2.935 0 3.301-.122 4.402-.122 1.1 0 1.712-.245 2.08-.367.488-.244.855-.489 1.222-.856s.612-.734.856-1.223c.122-.367.367-.978.367-2.079.122-1.1.122-1.467.122-4.402 0-2.936-.122-3.302-.122-4.403 0-1.1-.245-1.712-.367-2.08-.244-.488-.489-.855-.856-1.222s-.734-.612-1.223-.856c-.367-.122-.978-.367-2.079-.367-1.1-.122-1.467-.122-4.402-.122"/></g></g></g></svg>