<svg xmlns="http://www.w3.org/2000/svg" width="19" height="19" viewBox="0 0 19 19"><g><g><g><g><path fill="#1c2f82" d="M2.245 0A2.243 2.243 0 0 0 0 2.245C0 3.483 1 4.49 2.245 4.49A2.248 2.248 0 0 0 4.49 2.245 2.248 2.248 0 0 0 2.245 0M.302 18.636h3.871V6.188H.303z"/></g><g><path fill="#1c2f82" d="M6.605 6.188h3.706v1.705h.05c.519-.978 1.778-2.007 3.663-2.007 3.914 0 4.641 2.576 4.641 5.929v6.821h-3.864v-6.051c0-1.446-.022-3.303-2.007-3.303-2.015 0-2.317 1.576-2.317 3.195v6.16H6.613V6.187z"/></g></g></g></g></svg>