<svg xmlns="http://www.w3.org/2000/svg" width="85" height="166" viewBox="0 0 85 166"><g><g><g><g/><g><g/></g><g><g><g><g><path fill="#1c2f82" d="M35.133 93.99l-.93-.932c-6.22-6.222-13.352-8.135-21.21-5.687-5.991 1.868-10.198 5.687-10.24 5.725l-.97.89L0 92.05l.967-.892c.183-.168 18.443-16.63 35.1.036l.93.933z"/></g></g></g><g><path fill="#1c2f82" d="M13.665 87.787a5.27 5.27 0 1 1 10.54 0 5.27 5.27 0 0 1-10.54 0z"/></g><g><path fill="#1c2f82" d="M62.97 5.26c0-2.905 2.36-5.26 5.27-5.26 2.91 0 5.27 2.355 5.27 5.26 0 2.904-2.36 5.26-5.27 5.26a5.265 5.265 0 0 1-5.27-5.26z"/></g><g><path fill="#1c2f82" d="M64.789 145.823c-2.24-1.415-7.421-3.149-11 .43l-.124.142c-.033.042-.813 1.004-2.498 1.145-1.682-.141-2.463-1.102-2.484-1.128l-.136-.16c-3.58-3.578-8.76-1.845-10.988-.438l-9.498 5.853 1.383 2.245 9.508-5.859c.191-.121 4.695-2.877 7.672.005.613.773 2.154 1.971 4.466 2.122l.001.016c.027-.002.05-.008.076-.008.027 0 .05.006.077.008v-.016c2.314-.15 3.855-1.349 4.468-2.122 2.976-2.883 7.48-.126 7.68.001l9.5 5.853 1.382-2.245z"/></g><g><path fill="#1c2f82" d="M64.392 157.17l-.933.933c-4.73 4.73-11.357 5.245-11.62 5.264l-.589.029-.67-.047c-1.088-.104-7.064-.872-11.438-5.246l-.932-.932-1.864 1.863.932.932c5.584 5.584 13.291 6.03 13.368 6.034h1.31c.076-.003 7.783-.45 13.367-6.033l.932-.933z"/></g><g><path fill="#1c2f82" d="M84.163 12.324c-.008-.101-.942-10.058-15.811-10.058-13.237 0-15.438 7.89-15.766 9.692-.03.157-.037.312-.044.469h-.012v.153l-.008 1.063.008.001v77.608h-.003v43.34c-3.104.224-11.709.491-16.655-2.842l-1.092-.735-1.473 2.185 1.093.737c4.23 2.85 10.443 3.42 14.74 3.42 2.714 0 4.664-.227 4.865-.252l1.158-.141V92.796h.003V58.904H73.51v-6.928H55.166V12.57a1.68 1.68 0 0 1 .018-.219c.193-1.141 1.78-7.448 13.168-7.448 12.333 0 13.154 7.32 13.182 7.622l.101 1.315 2.628-.202z"/></g></g></g></g></g></svg>