<svg xmlns="http://www.w3.org/2000/svg" width="47" height="91" viewBox="0 0 47 91"><g><g><g><g><path fill="#f95b30" d="M19.87 51.486l-.51-.51c-3.407-3.409-7.314-4.457-11.618-3.116-3.282 1.023-5.586 3.115-5.609 3.136l-.531.488-.977-1.061.53-.489c.1-.092 10.102-9.109 19.226.02l.51.511z"/></g></g></g><g><path fill="#f95b30" d="M8.11 48.087a2.887 2.887 0 1 1 5.774 0 2.887 2.887 0 0 1-5.774 0z"/></g><g><path fill="#f95b30" d="M35.118 2.881A2.884 2.884 0 0 1 38.005 0a2.884 2.884 0 0 1 2.887 2.881 2.884 2.884 0 0 1-2.887 2.881 2.884 2.884 0 0 1-2.887-2.88z"/></g><g><path fill="#f95b30" d="M36.114 79.878c-1.226-.775-4.065-1.725-6.025.235l-.068.078c-.018.024-.445.55-1.368.628-.922-.078-1.35-.604-1.36-.618l-.075-.088c-1.961-1.96-4.8-1.01-6.02-.24l-5.202 3.206.758 1.23 5.208-3.21c.105-.066 2.572-1.575 4.202.003.336.424 1.18 1.08 2.447 1.163v.008c.015 0 .028-.004.042-.004.014 0 .027.003.042.004v-.008c1.268-.083 2.112-.74 2.447-1.163 1.63-1.579 4.098-.069 4.208.001l5.203 3.206.757-1.23z"/></g><g><path fill="#f95b30" d="M35.898 86.095l-.511.51c-2.591 2.591-6.221 2.873-6.365 2.884l-.323.016-.367-.026c-.596-.057-3.87-.478-6.266-2.874l-.51-.51-1.021 1.02.51.511c3.06 3.059 7.281 3.303 7.323 3.305h.718c.041-.002 4.263-.246 7.322-3.305l.51-.51z"/></g><g><path fill="#f95b30" d="M46.728 6.75c-.004-.055-.517-5.509-8.661-5.509-7.251 0-8.457 4.322-8.637 5.31-.016.085-.02.17-.023.256H29.4v.084l-.004.583h.004v42.511h-.002v23.741c-1.7.123-6.414.27-9.123-1.556l-.598-.403-.807 1.197.599.403c2.317 1.562 5.72 1.873 8.074 1.873 1.486 0 2.555-.124 2.665-.137l.634-.078V50.831h.002V32.266h10.048v-3.795H30.844V6.885a.917.917 0 0 1 .01-.12c.105-.625.975-4.08 7.213-4.08 6.755 0 7.205 4.01 7.22 4.176l.056.72 1.44-.11z"/></g></g></svg>