<svg xmlns="http://www.w3.org/2000/svg" width="127.964" height="28.519" viewBox="0 0 127.964 28.519"><defs><style>.a{fill:#f95b30;}</style></defs><g transform="translate(31.653 6.961)"><path class="a" d="M535.164,72.65a3.884,3.884,0,0,0,.861-2.506A4.117,4.117,0,0,0,534.685,67,5.2,5.2,0,0,0,531,65.7h-6V79.927h3.366v-5.48h1.667l2.876,5.48H536.8l-3.344-6.035A4.509,4.509,0,0,0,535.164,72.65Zm-3-1.383a1.98,1.98,0,0,1-1.351.447h-2.462V68.565h2.462a1.946,1.946,0,0,1,1.351.447,1.374,1.374,0,0,1,.49,1.122A1.41,1.41,0,0,1,532.168,71.267Z" transform="translate(-499.454 -65.504)"/><path class="a" d="M412.585,74.773a2.209,2.209,0,0,1-.632,1.678,2.679,2.679,0,0,1-3.377,0,2.222,2.222,0,0,1-.61-1.678V65.6H404.6v9.271a4.674,4.674,0,0,0,1.634,3.682,6.491,6.491,0,0,0,8.04,0,4.686,4.686,0,0,0,1.634-3.671V65.6h-3.344v9.173Z" transform="translate(-392.17 -65.415)"/><path class="a" d="M290.5,68.476h3.845V79.827H297.7V68.476h3.845V65.6H290.5Z" transform="translate(-290.5 -65.415)"/><path class="a" d="M655.943,65.6h-4.15l-4.826,5.567V65.6H643.6V79.827h3.366V75.546l1.612-1.808,3.682,6.09h3.933l-5.371-8.5Z" transform="translate(-605.134 -65.415)"/><path class="a" d="M1088.966,76.94V65.6H1085.6V79.827h9.7V76.94Z" transform="translate(-998.984 -65.415)"/><path class="a" d="M991.166,65.6H987.8V79.827h9.4V76.94h-6.035Z" transform="translate(-911.838 -65.415)"/><path class="a" d="M759.036,66.8a2.138,2.138,0,0,1,2.266,1.787l.044.185h3.421l-.055-.283a5.29,5.29,0,0,0-1.95-3.41A5.976,5.976,0,0,0,759,63.9a6.436,6.436,0,0,0-1.678.207,6,6,0,0,0-4.477,4.412,9.205,9.205,0,0,0-.349,2.615,9.878,9.878,0,0,0,.283,2.386,6.789,6.789,0,0,0,1.7,3.028c.109.12.218.24.338.36a5.881,5.881,0,0,0,4.172,1.59,5.947,5.947,0,0,0,3.715-1.155,5.3,5.3,0,0,0,1.994-3.432l.054-.283h-3.421l-.044.185a2.138,2.138,0,0,1-2.266,1.787,2.671,2.671,0,0,1-2-.675,4.007,4.007,0,0,1-.752-1.078,6.926,6.926,0,0,1-.425-2.734,4.7,4.7,0,0,1,1.187-3.617A2.71,2.71,0,0,1,759.036,66.8Z" transform="translate(-702.171 -63.9)"/><path class="a" d="M877.7,79.827h10.186V76.94h-6.82V74.1h5.806V71.21h-5.806V68.476h6.82V65.6H877.7Z" transform="translate(-813.732 -65.415)"/></g><path class="a" d="M25.84,6.667a14.2,14.2,0,0,0-3.791-4.042A14.43,14.43,0,0,0,16.983.381a13.9,13.9,0,0,0-9.064.9A13.734,13.734,0,0,0,3.649,4.27,14.027,14.027,0,0,0,.316,9.652C.3,9.673.3,9.684.294,9.706c-.022.065-.044.142-.065.218-.7,2.309-.044,3.595.97,2.527a1.63,1.63,0,0,0,.12-.142c.011-.022.033-.033.044-.054A15.05,15.05,0,0,1,4.455,9.51h0a17.528,17.528,0,0,1,1.5-.948,12.414,12.414,0,0,1,1.8-.882,1.382,1.382,0,0,0,.686-1,.066.066,0,0,1,.011-.044V6.612A2.964,2.964,0,0,1,11.122,4.15a3,3,0,0,1,1.7.272h0a3.1,3.1,0,0,1,1.754,2.353,3.208,3.208,0,0,1-.512,2.244.661.661,0,0,1-.076.109c-.011.011-.022.022-.022.033h0a3.072,3.072,0,0,1-1.427,1.013,3.3,3.3,0,0,1-1.046.207h0a1.87,1.87,0,0,1-.686-.054,2.341,2.341,0,0,1-.719-.261A3.711,3.711,0,0,1,9.314,9.6a.657.657,0,0,0-.272-.142.824.824,0,0,0-.479.054h0A1.492,1.492,0,0,0,8.41,9.6c-.458.381-.882.773-1.3,1.187a24.294,24.294,0,0,0-2.408,3.05c-.229.359-.436.73-.643,1.111-.185.349-.359.708-.523,1.068a17.822,17.822,0,0,0-.7,1.83c-.011.033-.022.054-.033.087a.39.39,0,0,1-.044.12c-.011.044-.022.087-.033.12-1.307,4.466,1.046,7.048,3.018,4.358.109-.174.218-.338.327-.512h0a20.671,20.671,0,0,1,6.3-6.144h0c.261-.163.523-.327.784-.479h0a.566.566,0,0,0,.054-.033,21.47,21.47,0,0,1,2.244-1.111,12,12,0,0,1,2.015-.73,1.349,1.349,0,0,0,.893-1.046h0a2.977,2.977,0,0,1,1.6-2.026,3.2,3.2,0,0,1,.741-.272,2.594,2.594,0,0,1,.817-.065h0a1.789,1.789,0,0,1,.447.054,3.12,3.12,0,0,1-.174,6.155,3,3,0,0,1-2.255-.566,1.816,1.816,0,0,0-1.492-.011A17.806,17.806,0,0,0,16.22,16.9a19.7,19.7,0,0,0-2.288,1.994,17.088,17.088,0,0,0-1.994,2.473,1,1,0,0,0-.087.142c-.011.011-.011.022-.022.033a19.038,19.038,0,0,0-1.743,3.617c-.044.109-.076.229-.12.338-.556,1.874.643,2.625,2.037,2.9a11.444,11.444,0,0,0,2.658.1c.087-.011.174-.011.24-.022.392-.044.8-.087,1.187-.153a13.9,13.9,0,0,0,7.146-3.432,13.883,13.883,0,0,0,4.608-8.617A13.634,13.634,0,0,0,25.84,6.667Z" transform="translate(0.061 0)"/></svg>