<svg xmlns="http://www.w3.org/2000/svg" width="916" height="571" viewBox="0 0 916 571"><g><g><path fill="#fffeee" d="M831.658 205.6C636.245-.881 144.425-133.674 16.006 221.747-21.345 325.12 7.4 454.24 94.676 518.933c66.697 49.439 154.94 56.623 236.98 48.9 82.042-7.72 163.038-28.488 245.424-28.062 81.999.421 169.445 20.833 242.41-17.412 66.177-34.687 104.024-117.989 87.253-192.05-10.868-47.998-41.274-88.978-75.085-124.708z"/></g><g><path fill="#fc5a22" d="M887.73 485.88c-3.133 5.467-8.883 10.37-16.785 13.264-.256.093-.49.197-.707.307l2.058 5.325.012.001c11.993.197 26.626-7.195 35.736-19.768 5.174-7.14 7.703-14.318 7.703-21.824h-.017c.006-.21.017-.417.017-.626 0-13.01-11-23.559-24.568-23.559-13.568 0-24.568 10.548-24.568 23.559 0 11.886 9.184 21.712 21.118 23.32z"/></g><g><path fill="#fc5a22" d="M825.443 485.88c-3.132 5.467-8.882 10.37-16.784 13.264-.256.093-.49.197-.706.307l2.058 5.325.012.001c11.992.197 26.625-7.195 35.735-19.768 5.175-7.14 7.703-14.318 7.703-21.824h-.017c.007-.21.017-.417.017-.626 0-13.01-11-23.559-24.568-23.559-13.568 0-24.567 10.548-24.567 23.559 0 11.886 9.184 21.712 21.117 23.32z"/></g><g><path fill="#fc5a22" d="M51.34 118.901c3.133-5.467 8.883-10.37 16.786-13.263.256-.094.49-.197.706-.307l-2.058-5.326h-.012c-11.992-.197-26.625 7.195-35.736 19.767-5.174 7.141-7.703 14.319-7.703 21.825h.017c-.006.209-.017.416-.017.625 0 13.011 11 23.559 24.568 23.559 13.569 0 24.568-10.548 24.568-23.559 0-11.886-9.183-21.712-21.118-23.32z"/></g><g><path fill="#fc5a22" d="M113.627 118.901c3.132-5.467 8.882-10.37 16.784-13.263.256-.094.49-.197.707-.307l-2.059-5.326h-.011c-11.992-.197-26.626 7.195-35.736 19.767-5.174 7.141-7.703 14.319-7.703 21.825h.017c-.006.209-.017.416-.017.625 0 13.011 11 23.559 24.568 23.559 13.569 0 24.568-10.548 24.568-23.559 0-11.886-9.185-21.712-21.118-23.32z"/></g></g></svg>