<svg id="Group_2979" data-name="Group 2979" xmlns="http://www.w3.org/2000/svg" width="127.603" height="29.761" viewBox="0 0 127.603 29.761">
  <g id="Group_2978" data-name="Group 2978" transform="translate(15.175)">
    <g id="Group_2976" data-name="Group 2976">
      <path id="Path_6445" data-name="Path 6445" d="M53.7,19.777c-.835-.038-.949-.038-.949-1.4V0l-.493.19a27.208,27.208,0,0,1-4.555.987l-.342.038V2.657l.342.038c1.936.152,1.936.152,1.936,1.746V8.275a7.011,7.011,0,0,0-1.632-.19A7.778,7.778,0,0,0,40,15.64c0,4.479,3.416,6.871,5.884,6.871a5.682,5.682,0,0,0,2.543-.911c.266-.152.569-.342.911-.531.114-.076.228-.114.342-.19v1.784l.493-.19a27.481,27.481,0,0,1,4.214-1.025l.607-.114v-1.48ZM46.947,9.984a3.483,3.483,0,0,1,2.733,1.253v7.82a4.847,4.847,0,0,1-2.543.873c-2.581-.038-3.72-3.037-3.72-5.125C43.416,10.211,46.377,9.984,46.947,9.984Z" transform="translate(-40)" fill="#162288"/>
      <g id="Group_2975" data-name="Group 2975" transform="translate(15.715 8.086)">
        <path id="Path_6446" data-name="Path 6446" d="M88.081,21.3a6.414,6.414,0,0,0-4.669,2.278A7.915,7.915,0,0,0,81.4,29.006c0,4.4,3.113,6.719,6.15,6.719.456,0,2.923-.152,5.2-3l.19-.228-.873-1.253-.3.3a4.567,4.567,0,0,1-3.151,1.4,3.881,3.881,0,0,1-2.733-1.139,5.362,5.362,0,0,1-1.329-3.682c3.34-.114,6.947-.38,7.592-.493.759-.19.835-.721.873-1.329v-.038A5.058,5.058,0,0,0,88.081,21.3Zm-.721,1.9a2.15,2.15,0,0,1,1.556.645,2.6,2.6,0,0,1,.721,1.974c0,.114-.038.152,0,.152a.776.776,0,0,1-.3.038H89.3c-1.556.076-3.075.076-4.555.076C85.2,24.071,86.373,23.2,87.36,23.2Z" transform="translate(-81.4 -21.3)" fill="#162288"/>
        <path id="Path_6447" data-name="Path 6447" d="M122.069,22.2v1.518l.342.038c.342.038,1.253.152,1.4.38.114.152-.038.607-.19,1.1-.569,1.632-1.367,3.644-2.316,6.036-1.1-2.809-1.936-4.935-2.467-6.339-.076-.228-.3-.8-.228-.911s.456-.19,1.139-.266l.342-.038V22.2H113.3v1.518l.3.038c1.367.228,1.518.266,2.164,1.9l.759,1.86c1.139,2.809,2.316,5.694,3.3,8.465l.076.266h1.367l.076-.228c1.177-3.037,2.391-5.96,3.378-8.313q.456-1.082.8-1.936c.721-1.708.873-1.822,2.278-1.974l.342-.038V22.238h-6.074Z" transform="translate(-101.191 -21.858)" fill="#162288"/>
      </g>
    </g>
    <g id="Group_2977" data-name="Group 2977" transform="translate(42.06)">
      <path id="Path_6448" data-name="Path 6448" d="M156,18.676V0l-.531.19a22.575,22.575,0,0,1-4.289.987l-.3.038V2.657l.342.038c1.708.228,1.708.228,1.708,1.822V18.638c0,1.746-.076,1.746-1.784,1.9l-.342.038v1.556h7.288V20.574l-.342-.038C156,20.423,156,20.423,156,18.676Z" transform="translate(-150.8)" fill="#162288"/>
      <path id="Path_6449" data-name="Path 6449" d="M177.607,23.718l.342.038c.3.038,1.177.152,1.329.418a1.368,1.368,0,0,1-.076.759c-.531,1.632-1.48,4.29-2.278,6.263l-2.505-6.339a1.562,1.562,0,0,1-.152-.8c.076-.114.38-.228.949-.3l.3-.038V22.2H168.8v1.518l.342.038c1.443.19,1.632.418,2.24,1.936.152.38.342.8.531,1.291.911,2.126,2.126,5.049,3.075,7.82a1.19,1.19,0,0,1,.038.949c-.152.418-.607,1.442-1.177,2.619a6.086,6.086,0,0,1-1.9,2.05,1.743,1.743,0,0,0-.8,1.329,2.066,2.066,0,0,0,2.164,1.784,1.221,1.221,0,0,0,1.253-1.025l.076-.266a78.631,78.631,0,0,1,2.847-7.782c2.012-5.049,2.809-7.1,3.568-8.769.683-1.594.949-1.708,2.316-1.936l.3-.038V22.2h-6.074Z" transform="translate(-161.967 -13.773)" fill="#162288"/>
      <path id="Path_6450" data-name="Path 6450" d="M221.776,31.395V25.776c0-3.075-1.632-4.973-4.214-4.973a5.09,5.09,0,0,0-2.657.949c-.493.3-.949.645-1.4.949V20.5l-.531.228a15.8,15.8,0,0,1-4.024,1.139l-.3.038v1.442l.3.038c1.48.266,1.48.266,1.48,1.9v6.074c0,1.708,0,1.708-1.784,1.9l-.342.038v1.556h7.1V33.293l-.342-.038c-1.594-.152-1.594-.152-1.594-1.9V24.676a4.652,4.652,0,0,1,2.885-1.329c1.556,0,2.316.987,2.316,3.075v4.859c0,1.86-.076,1.86-1.556,2.012l-.342.038v1.556h6.871V33.331l-.342-.038C221.776,33.141,221.776,33.141,221.776,31.395Z" transform="translate(-186.473 -12.718)" fill="#162288"/>
      <path id="Path_6451" data-name="Path 6451" d="M265.384,20.574c-1.025-.038-1.329-.076-2.733-1.442-.873-.949-3.492-3.91-4.365-5.011.645-.8,1.784-2.088,2.316-2.619,1.215-1.291,1.746-1.48,3.72-1.784l.3-.038V8.161l-6.833.3v1.556l.342.038a3.489,3.489,0,0,1,.987.19,1.2,1.2,0,0,1-.266.418,21.627,21.627,0,0,1-2.24,2.7,2.953,2.953,0,0,1-1.215.8V0l-.531.19a17.166,17.166,0,0,1-4.252.987l-.342.038V2.657l.342.038c1.708.266,1.708.266,1.708,1.86V18.676c0,1.708,0,1.746-1.784,1.9l-.342.038v1.556h7.288V20.612l-.342-.038c-1.708-.152-1.708-.152-1.708-1.9V15.716c.228,0,.228-.076.721.493.19.19,3.075,3.606,4.29,5.049.38.456.645.759.683.8l.114.152h.19c.607-.038,2.316-.076,3.948-.076h.38V20.574Z" transform="translate(-212.468)" fill="#162288"/>
    </g>
  </g>
  <path id="XMLID_4_" d="M8.594,15h3.416a.125.125,0,0,1,.076.228L3.963,23.351a.169.169,0,0,0,0,.19l8.123,8.123a.132.132,0,0,1-.076.228H8.4c-.038,0-.076,0-.076-.038L.053,23.579a.169.169,0,0,1,0-.19l8.427-8.351C8.519,15.038,8.557,15,8.594,15Z" transform="translate(-0.025 -9.306)" fill="#162288"/>
  <path id="XMLID_3_" d="M307.9,14.3h-3.416a.125.125,0,0,0-.076.228l8.123,8.123a.169.169,0,0,1,0,.19l-8.123,8.123a.132.132,0,0,0,.076.228h3.606c.038,0,.076,0,.076-.038l8.237-8.237a.169.169,0,0,0,0-.19l-8.427-8.351C307.976,14.3,307.938,14.3,307.9,14.3Z" transform="translate(-188.829 -8.872)" fill="#162288"/>
</svg>
