<svg xmlns="http://www.w3.org/2000/svg" width="92.846" height="45.09" viewBox="0 0 92.846 45.09"><defs><style>.a{fill:#162288;}.b{fill:none;stroke:#162288;stroke-miterlimit:10;stroke-width:1.355px;}</style></defs><path class="a" d="M387.575,6.045l-.294-.975,1.625-1.609,1.424,2.429.217-.34L389.8,2.408l.9-1.037s.65-.743.418-1.346c-.65-.124-1.253.634-1.253.634l-.882,1.052L385.749,1.5l-.294.263,2.646.99-1.315,1.872-1.006-.139-.48.17,1.424.557.789,1.315Z" transform="translate(-325.677 -0.012)"/><path class="a" d="M225.216,40.609A41.147,41.147,0,0,1,214.2,47.557a28.221,28.221,0,0,1-9.9,2.275,5.454,5.454,0,0,1-3.729-.758,2.062,2.062,0,0,1-.526-.588c-.418-.712-.217-1.718.6-2.894a14.72,14.72,0,0,1,3.729-3.451,14.05,14.05,0,0,0-3.188,1.176c-2.909,1.516-4.039,3.188-4.364,4.549-.108.449-.433,3.559,4.008,4.271a.681.681,0,0,1,.155.031c.108.015.232.031.356.046a13.8,13.8,0,0,0,2.553.046,33.247,33.247,0,0,0,10.878-2.987c.2-.093.387-.186.588-.279a30.719,30.719,0,0,0,9.393-6.7l-.17.17.17-.17c.186-.217.356-.418.526-.619A8.32,8.32,0,0,0,226.748,39a12.8,12.8,0,0,1-1.532,1.609" transform="translate(-166.321 -32.967)"/><path class="a" d="M230.777,50.921a.628.628,0,0,0-.077.139,17.835,17.835,0,0,1,5.462-.65l.186-.139a18.526,18.526,0,0,0-5.571.65" transform="translate(-195.001 -42.489)"/><path class="a" d="M231.8,20.679c.5.851,1.609,1.362,4.07,1.145A24.226,24.226,0,0,0,243.657,20a32.993,32.993,0,0,0,10.136-6.051,13.231,13.231,0,0,0-22.593,1.5,18.085,18.085,0,0,1,5.586-.65,2.262,2.262,0,0,1-.2.139h.155c-2.739,1.888-4.565,3.435-5.029,4.673a1.339,1.339,0,0,0,.093,1.068" transform="translate(-195.423 -7.017)"/><path class="a" d="M305.166,121.833a38.144,38.144,0,0,1-6.066,2.987,12.181,12.181,0,0,0,1.3.062,13.244,13.244,0,0,0,12.8-9.981,30.211,30.211,0,0,1-8.031,6.933" transform="translate(-252.816 -97.122)"/><path class="a" d="M209.154,60.1c-2,3.095-6.9,6.886-12.7,9.207a37.132,37.132,0,0,1-10.832,2.816c-.046,0-.108.015-.17.015-.34.031-.665.031-.975.046a7.347,7.347,0,0,1-4.348-.928,4.071,4.071,0,0,1-2.043-4.72c-1.284,2.012-1.578,3.838-.944,5.215.7,1.486,2.213,2.352,4.225,2.708a15.443,15.443,0,0,0,3.451.17h.124c.588-.031,1.207-.093,1.826-.186l.325-.046a.784.784,0,0,1,.2-.031,40.155,40.155,0,0,0,10.167-3.079c6.515-2.925,10.337-6.159,12.349-9.207a10.993,10.993,0,0,0-.65-1.981" transform="translate(-149.454 -50.802)"/><path class="a" d="M263.628,84a21.733,21.733,0,0,1-3.714,4.054c-.959.8-2.1,1.609-3.389,2.507a34.039,34.039,0,0,1-5.756,3.141s-5.462,2.4-8.387,2.29c-1.021-.031-1.749-.371-1.8-1.207,0,0-1.594,1.841.928,2.739a8.053,8.053,0,0,0,3.745.17,24.616,24.616,0,0,0,6.685-2.074h0a35.16,35.16,0,0,0,11.714-8.944c.031-.4.062-.8.062-1.222-.015-.48-.046-.975-.093-1.455" transform="translate(-202.938 -71.003)"/><path class="a" d="M208.819,226.764l-1.006.031c-.4.016-.557.046-.665.2a1.31,1.31,0,0,0-.108.232c-.015.062-.031.077-.077.077s-.062-.031-.062-.108a7.842,7.842,0,0,1,.139-.774c.015-.093.046-.124.077-.124a1.694,1.694,0,0,0,.294.077c.2.015.464.031.681.031h2.693a2.931,2.931,0,0,0,.464-.031c.093-.015.155-.031.186-.031.046,0,.062.031.062.139,0,.139-.015.619-.015.789,0,.062-.015.108-.062.108-.062,0-.062-.031-.077-.139v-.077c-.015-.186-.2-.371-.8-.387l-.851-.015v2.785c0,.619,0,1.161.031,1.455.015.186.062.34.263.371a2.528,2.528,0,0,0,.34.031c.077,0,.108.015.108.062s-.062.062-.124.062c-.449,0-.867-.015-1.068-.015-.155,0-.588.015-.851.015-.093,0-.139-.015-.139-.062,0-.031.031-.062.108-.062a1.076,1.076,0,0,0,.248-.031c.139-.031.17-.17.2-.371.031-.279.031-.82.031-1.455v-2.785Z" transform="translate(-174.884 -191.283)"/><path class="a" d="M240.881,228.612c0-1.037,0-1.222-.015-1.439-.015-.232-.062-.34-.294-.387a1.333,1.333,0,0,0-.263-.015c-.077,0-.108-.015-.108-.062s.046-.062.155-.062h.557c.17,0,.34.015.433.015h1.7c.124-.015.232-.031.294-.031.031,0,.077-.031.108-.031s.046.031.046.062c0,.046-.031.124-.062.449,0,.062-.015.371-.031.449,0,.031-.015.077-.062.077s-.062-.031-.062-.093a.563.563,0,0,0-.046-.248c-.046-.124-.108-.2-.449-.248-.124-.015-.836-.031-.959-.031-.031,0-.046.015-.046.062V228.8c0,.046,0,.077.046.077.155,0,.928,0,1.083-.015.17-.015.263-.031.325-.108.046-.046.077-.093.108-.093s.046.015.046.062c0,.031-.031.155-.062.5,0,.139-.031.4-.031.449,0,.062,0,.124-.062.124a.057.057,0,0,1-.062-.062.769.769,0,0,0-.031-.248c-.031-.139-.124-.232-.387-.263-.124-.015-.8-.015-.959-.015-.031,0-.046.031-.046.062v1.578c.015.464.124.573.82.573a1.787,1.787,0,0,0,.634-.077c.186-.077.263-.232.309-.5.015-.077.031-.108.077-.108.062,0,.062.062.062.124a5.972,5.972,0,0,1-.093.758c-.046.186-.108.186-.371.186-.511,0-.882-.015-1.176-.015-.294-.015-.5-.015-.712-.015h-.387c-.155,0-.34.015-.464.015-.093,0-.139-.015-.139-.062,0-.031.031-.062.108-.062a1.077,1.077,0,0,0,.248-.031c.139-.031.17-.17.2-.371.031-.279.031-.82.031-1.455l-.016-1.192Z" transform="translate(-203.031 -191.537)"/><path class="a" d="M268.436,230.865a2.557,2.557,0,0,1-.836-2,2.529,2.529,0,0,1,.789-1.857,2.967,2.967,0,0,1,2.151-.712,8.917,8.917,0,0,1,.99.062c.263.031.48.093.681.124.077,0,.093.046.093.077,0,.062-.015.139-.031.371-.016.217,0,.6-.016.727,0,.108-.015.155-.077.155s-.062-.062-.062-.155a.9.9,0,0,0-.263-.619,2.048,2.048,0,0,0-1.377-.418,1.785,1.785,0,0,0-1.269.418,2.545,2.545,0,0,0,1.517,4.178c.6,0,.975-.062,1.238-.387a1.247,1.247,0,0,0,.232-.449c.015-.108.031-.139.093-.139.046,0,.062.046.062.108a5.437,5.437,0,0,1-.155.9.252.252,0,0,1-.17.2,3.983,3.983,0,0,1-1.222.155,3.426,3.426,0,0,1-2.368-.743" transform="translate(-226.191 -191.283)"/><path class="a" d="M307.078,229.051a.049.049,0,0,0,.046-.046v-.139c0-1.037,0-1.222-.015-1.439-.015-.232-.062-.34-.294-.387a1.335,1.335,0,0,0-.263-.015c-.077,0-.108-.015-.108-.062s.046-.062.139-.062c.371,0,.789.016.975.016.17,0,.588-.016.851-.016.093,0,.139.016.139.062s-.031.062-.124.062a.952.952,0,0,0-.2.015c-.186.031-.248.155-.248.387-.015.217-.015.4-.015,1.439v1.192c0,.619,0,1.161.031,1.455.015.186.062.34.263.371a2.531,2.531,0,0,0,.34.031c.077,0,.108.015.108.062s-.062.062-.139.062c-.433,0-.867-.015-1.052-.015-.155,0-.588.015-.851.015-.093,0-.139-.015-.139-.062,0-.031.031-.062.108-.062a1.077,1.077,0,0,0,.248-.031c.139-.031.17-.17.2-.371.031-.279.031-.82.031-1.455v-.6c0-.031-.015-.031-.046-.031h-2.584c-.016,0-.046,0-.046.031v.6c0,.619,0,1.161.031,1.455.016.186.062.34.263.371a2.53,2.53,0,0,0,.34.031c.077,0,.108.015.108.062s-.062.062-.139.062c-.449,0-.867-.015-1.052-.015-.155,0-.588.015-.851.015-.093,0-.139-.015-.139-.062,0-.031.031-.062.108-.062a.97.97,0,0,0,.248-.031c.139-.031.17-.17.2-.371.031-.279.031-.82.031-1.455v-1.192c0-1.037,0-1.222-.015-1.439-.016-.232-.062-.34-.294-.387a1.257,1.257,0,0,0-.263-.015c-.077,0-.108-.015-.108-.062s.046-.062.139-.062c.371,0,.789.015.975.015.155,0,.588-.015.851-.015.093,0,.139.015.139.062s-.046.062-.124.062a1.111,1.111,0,0,0-.2.015c-.186.031-.232.155-.248.387-.015.217-.015.4-.015,1.439V229a.041.041,0,0,0,.046.046Z" transform="translate(-256.028 -191.79)"/><path class="a" d="M346.076,230.586c.015.526.108.712.232.758a.982.982,0,0,0,.356.046c.077,0,.108.015.108.062,0,.062-.062.062-.155.062-.433,0-.712-.015-.836-.015-.062,0-.371.015-.727.015-.093,0-.155,0-.155-.062,0-.046.046-.062.108-.062a1.052,1.052,0,0,0,.309-.031c.17-.062.2-.248.217-.836l.062-3.992c0-.139.016-.232.093-.232s.139.093.248.217c.077.093,1.114,1.176,2.1,2.151.464.464,1.377,1.439,1.486,1.547h.031l-.062-3.048c0-.418-.062-.542-.232-.619a1.446,1.446,0,0,0-.356-.031c-.077,0-.108-.015-.108-.062,0-.062.077-.062.17-.062.356,0,.681.015.82.015.077,0,.34-.015.665-.015.093,0,.155,0,.155.062,0,.046-.046.062-.124.062a.95.95,0,0,0-.2.015c-.186.046-.248.2-.248.573l-.077,4.286c0,.155-.031.217-.093.217-.077,0-.155-.077-.232-.155-.433-.4-1.3-1.3-2-2-.743-.727-1.486-1.563-1.609-1.687H346Z" transform="translate(-291.529 -191.283)"/><path class="a" d="M391,228.985c0-1.516-.867-2.46-1.981-2.46-.774,0-1.671.433-1.671,2.12,0,1.408.774,2.522,2.089,2.522.464.016,1.563-.217,1.563-2.182m-4.6-.124a2.618,2.618,0,0,1,2.8-2.662,2.463,2.463,0,0,1,2.739,2.538,2.685,2.685,0,0,1-2.8,2.785,2.585,2.585,0,0,1-2.739-2.662" transform="translate(-326.607 -191.199)"/><path class="a" d="M428.87,230.141c0,.867,0,1.331.139,1.455.124.108.294.155.82.155.356,0,.619,0,.789-.186a.959.959,0,0,0,.186-.4c0-.062.015-.108.077-.108.046,0,.062.031.062.124a6.035,6.035,0,0,1-.093.774c-.046.155-.077.186-.433.186-.5,0-.836-.016-1.145-.016-.31-.015-.557-.015-.836-.015h-.387c-.155,0-.34.015-.464.015-.093,0-.139-.015-.139-.062,0-.031.031-.062.108-.062a.97.97,0,0,0,.248-.031c.139-.031.17-.17.2-.371.031-.279.031-.82.031-1.439v-1.192c0-1.037,0-1.222-.016-1.439-.015-.232-.062-.34-.294-.387a.885.885,0,0,0-.217-.015c-.077,0-.108-.015-.108-.062s.046-.062.155-.062c.325,0,.743.015.928.015.155,0,.65-.015.928-.015.093,0,.139.015.139.062s-.046.062-.124.062a1.5,1.5,0,0,0-.263.015c-.186.031-.232.155-.248.387-.016.217-.016.4-.016,1.439v1.176Z" transform="translate(-361.263 -191.875)"/><path class="a" d="M457.5,228.985c0-1.516-.867-2.46-1.981-2.46-.774,0-1.671.433-1.671,2.12,0,1.408.774,2.522,2.089,2.522.464.016,1.563-.217,1.563-2.182m-4.6-.124a2.618,2.618,0,0,1,2.8-2.662,2.463,2.463,0,0,1,2.739,2.538,2.685,2.685,0,0,1-2.8,2.785,2.585,2.585,0,0,1-2.739-2.662" transform="translate(-382.817 -191.199)"/><path class="a" d="M498.374,231.066c0,.186,0,.2-.093.248a3.786,3.786,0,0,1-1.64.309c-1.671,0-3.141-.789-3.141-2.662a2.521,2.521,0,0,1,1.176-2.213,3.222,3.222,0,0,1,1.826-.449,7.865,7.865,0,0,1,1.207.108,5.063,5.063,0,0,0,.542.077c.077,0,.093.031.093.077a9.4,9.4,0,0,0-.046,1.114c0,.108-.015.139-.077.139-.046,0-.062-.031-.062-.093a.941.941,0,0,0-.232-.557,2.164,2.164,0,0,0-1.517-.526,2,2,0,0,0-1.346.418,2.024,2.024,0,0,0-.619,1.671,2.36,2.36,0,0,0,2.368,2.553,1.428,1.428,0,0,0,.573-.077.251.251,0,0,0,.124-.248v-1.439c0-.232-.062-.34-.294-.387a1.255,1.255,0,0,0-.263-.015c-.062,0-.108-.015-.108-.046,0-.062.046-.062.139-.062.356,0,.774.015.99.015s.573-.015.789-.015c.093,0,.139.015.139.062s-.046.046-.093.046a.965.965,0,0,0-.186.015c-.186.031-.248.155-.263.387v1.547Z" transform="translate(-417.134 -191.283)"/><path class="a" d="M533.9,228.865c0-1.037,0-1.222-.016-1.439-.015-.232-.077-.34-.232-.371a1.2,1.2,0,0,0-.247-.031c-.062,0-.108-.015-.108-.062s.062-.062.17-.062c.263,0,.681.015.882.015.17,0,.572-.015.835-.015.093,0,.139.015.139.062,0,.062-.046.062-.108.062a.953.953,0,0,0-.2.015c-.186.031-.232.155-.248.387-.015.217-.015.4-.015,1.439v1.192c0,.665,0,1.192.031,1.486.016.186.062.309.279.325a2.531,2.531,0,0,0,.34.031c.077,0,.108.015.108.062s-.062.062-.124.062c-.449,0-.867-.015-1.052-.015-.155,0-.588.015-.851.015-.093,0-.139-.015-.139-.062,0-.031.031-.062.108-.062a1.077,1.077,0,0,0,.248-.031c.139-.031.17-.139.2-.34.031-.279.031-.82.031-1.486v-1.176Z" transform="translate(-450.775 -191.79)"/><path class="a" d="M553.281,228.612c0-1.037,0-1.222-.015-1.439-.015-.232-.062-.34-.294-.387a1.333,1.333,0,0,0-.263-.015c-.077,0-.108-.015-.108-.062s.046-.062.155-.062h.557c.17,0,.341.015.433.015h1.7c.124-.015.232-.031.294-.031.031,0,.077-.031.108-.031s.046.031.046.062c0,.046-.031.124-.062.449,0,.062-.016.371-.031.449,0,.031-.016.077-.062.077s-.062-.031-.062-.093a.563.563,0,0,0-.046-.248c-.046-.124-.124-.2-.449-.248-.124-.015-.836-.031-.959-.031-.031,0-.046.015-.046.062V228.8c0,.046,0,.077.046.077.155,0,.928,0,1.083-.015.17-.015.263-.031.325-.108.046-.046.077-.093.108-.093s.046.015.046.062c0,.031-.031.155-.062.5,0,.139-.031.4-.031.449,0,.062,0,.124-.062.124a.057.057,0,0,1-.062-.062.768.768,0,0,0-.031-.248c-.031-.139-.124-.232-.371-.263-.124-.015-.8-.015-.959-.015-.031,0-.046.031-.046.062v1.578c.015.464.124.573.82.573a1.787,1.787,0,0,0,.634-.077.59.59,0,0,0,.31-.5c.015-.077.031-.108.077-.108.062,0,.062.062.062.124a5.983,5.983,0,0,1-.093.758c-.046.186-.108.186-.371.186-.511,0-.882-.015-1.176-.015-.294-.015-.5-.015-.712-.015h-.387c-.155,0-.34.015-.464.015-.093,0-.139-.015-.139-.062,0-.031.031-.062.108-.062a1.077,1.077,0,0,0,.248-.031c.139-.031.17-.17.2-.371.031-.279.031-.82.031-1.455v-1.192Z" transform="translate(-467.089 -191.537)"/><path class="a" d="M581.624,231.353c-.108-.046-.124-.077-.124-.232,0-.371.031-.774.031-.9,0-.093.031-.17.077-.17.062,0,.062.062.062.124a1.444,1.444,0,0,0,.062.34.939.939,0,0,0,.975.681.835.835,0,0,0,.913-.774c0-.34-.093-.65-.665-1.083l-.309-.248c-.743-.588-1.006-1.052-1.006-1.609,0-.743.619-1.284,1.563-1.284a3.368,3.368,0,0,1,.9.108c.062.016.093.031.093.077,0,.093-.031.279-.031.82,0,.155-.015.2-.077.2-.047,0-.062-.046-.062-.124a.809.809,0,0,0-.17-.449.879.879,0,0,0-.743-.34.716.716,0,0,0-.8.7c0,.309.155.557.727.975l.186.139c.82.619,1.114,1.083,1.114,1.733a1.374,1.374,0,0,1-.635,1.176,1.957,1.957,0,0,1-1.083.279,2.032,2.032,0,0,1-.99-.139" transform="translate(-491.517 -191.199)"/><path class="a" d="M206.8,281v.217h.48V282.5h.232v-1.284h.5V281Z" transform="translate(-174.799 -237.519)"/><path class="a" d="M222.575,281v.619h-.743V281H221.6v1.5h.232v-.665h.743v.665h.232V281Z" transform="translate(-187.309 -237.519)"/><path class="a" d="M237.4,281v1.5h1.037v-.217h-.8v-.464h.634V281.6h-.634v-.387h.8V281Z" transform="translate(-200.664 -237.519)"/><path class="a" d="M260.8,281v1.5h.232v-.634h.619v-.217h-.619v-.433h.774V281Z" transform="translate(-220.443 -237.519)"/><path class="a" d="M275.569,281v.867a.635.635,0,1,1-1.269,0V281h.248v.867c0,.309.124.449.387.449s.4-.139.4-.449V281Z" transform="translate(-231.854 -237.519)"/><path class="a" d="M289.3,281v.217h.48V282.5h.248v-1.284h.48V281Z" transform="translate(-244.533 -237.519)"/><path class="a" d="M305.169,281v.867a.635.635,0,1,1-1.269,0V281h.248v.867c0,.309.124.449.387.449s.4-.139.4-.449V281Z" transform="translate(-256.873 -237.519)"/><path class="a" d="M320.3,281.758a.275.275,0,0,0,.309-.263c0-.155-.108-.263-.309-.263h-.279v.526Zm.34.743-.309-.542h-.294v.542H319.8V281h.5c.356,0,.573.186.573.5a.432.432,0,0,1-.309.433l.356.588-.279-.016Z" transform="translate(-270.313 -237.519)"/><path class="a" d="M334.2,281v1.5h1.037v-.217h-.8v-.464h.634V281.6h-.634v-.387h.8V281Z" transform="translate(-282.485 -237.519)"/><rect class="a" width="0.232" height="1.501" transform="translate(55.336 43.481)"/><path class="a" d="M367.3,281.18a.322.322,0,0,0-.34-.263c-.17,0-.279.077-.279.2,0,.139.186.186.387.248.217.062.48.17.48.449,0,.263-.232.449-.557.449a.563.563,0,0,1-.588-.449l.232-.062a.359.359,0,0,0,.371.294c.186,0,.31-.093.31-.232,0-.186-.232-.217-.449-.294-.17-.062-.418-.139-.418-.4,0-.232.217-.418.526-.418a.558.558,0,0,1,.557.4Z" transform="translate(-309.702 -237.265)"/><path class="a" d="M391.069,281v.867a.635.635,0,1,1-1.269,0V281h.248v.867c0,.309.124.449.387.449s.4-.139.4-.449V281Z" transform="translate(-329.481 -237.519)"/><path class="a" d="M406.769,280.915v1.5h-.217l-.542-.743c-.139-.186-.263-.371-.263-.371h0v1.1H405.5v-1.5h.217l.557.743c.108.155.263.356.263.356h0v-1.1h.232Z" transform="translate(-342.752 -237.434)"/><path class="a" d="M422.35,282.269a.526.526,0,0,0,0-1.052h-.4v1.052Zm0-1.269a.744.744,0,0,1,.774.758.732.732,0,0,1-.774.743h-.65V281Z" transform="translate(-356.445 -237.519)"/><path class="a" d="M438.1,281v1.5h1.037v-.217h-.8v-.464h.634V281.6h-.634v-.387h.8V281Z" transform="translate(-370.307 -237.519)"/><path class="a" d="M453.111,281.758a.275.275,0,0,0,.31-.263c0-.155-.108-.263-.31-.263h-.279v.526Zm.325.743-.309-.542h-.294v.542H452.6V281h.5c.356,0,.573.186.573.5a.432.432,0,0,1-.309.433l.356.588-.279-.016Z" transform="translate(-382.563 -237.519)"/><path class="a" d="M476.271,282.131a.542.542,0,1,0,0-1.083.542.542,0,0,0,0,1.083m0-1.331a.757.757,0,0,1,.774.774.766.766,0,0,1-.774.774.757.757,0,0,1-.774-.774.748.748,0,0,1,.774-.774" transform="translate(-401.917 -237.35)"/><path class="a" d="M493.869,281v.867a.635.635,0,1,1-1.269,0V281h.248v.867c0,.309.124.449.387.449s.4-.139.4-.449V281Z" transform="translate(-416.373 -237.519)"/><path class="a" d="M509,281.758a.275.275,0,0,0,.309-.263c0-.155-.108-.263-.309-.263h-.279v.526Zm.34.743-.309-.542h-.294v.542H508.5V281h.5c.356,0,.573.186.573.5a.432.432,0,0,1-.309.433l.356.588-.279-.016Z" transform="translate(-429.813 -237.519)"/><path class="a" d="M533.058,281l-.5,1.5h-.217l-.247-.758a2.085,2.085,0,0,1-.077-.279h0a2.07,2.07,0,0,1-.077.279l-.232.758H531.5L531,281h.248l.279.913a1.7,1.7,0,0,1,.062.232h0a1.689,1.689,0,0,1,.062-.232l.248-.727h.217l.248.727a1.711,1.711,0,0,1,.062.232s.031-.093.062-.232l.294-.913Z" transform="translate(-448.831 -237.519)"/><rect class="a" width="0.232" height="1.501" transform="translate(85.295 43.481)"/><path class="a" d="M561.969,280.915v1.5h-.217l-.542-.743c-.139-.186-.263-.371-.263-.371h0v1.1H560.7v-1.5h.217l.557.743c.108.155.263.356.263.356h0v-1.1h.232Z" transform="translate(-473.935 -237.434)"/><path class="a" d="M577.469,282.146a.677.677,0,0,1-.5.217.782.782,0,0,1,0-1.563.735.735,0,0,1,.681.4l-.248.062a.535.535,0,0,0-.433-.232.549.549,0,0,0,0,1.1.53.53,0,0,0,.5-.279v-.124h-.433v-.2h.65v.8h-.2c-.015-.155-.015-.186-.015-.186Z" transform="translate(-487.037 -237.35)"/><path class="a" d="M593.5,281.18a.322.322,0,0,0-.34-.263c-.17,0-.279.077-.279.2,0,.139.186.186.387.248.217.062.48.17.48.449,0,.263-.232.449-.557.449a.563.563,0,0,1-.588-.449l.232-.062a.359.359,0,0,0,.371.294c.186,0,.31-.093.31-.232,0-.186-.232-.217-.449-.294-.17-.062-.418-.139-.418-.4,0-.232.217-.418.526-.418a.558.558,0,0,1,.557.4Z" transform="translate(-500.899 -237.265)"/><path class="a" d="M3.667,226.613l-1.934.046c-.743.031-1.052.093-1.253.371a2.177,2.177,0,0,0-.217.449c-.031.108-.062.155-.139.155-.093,0-.124-.062-.124-.2a15.085,15.085,0,0,1,.279-1.486c.031-.17.077-.248.155-.248a3.649,3.649,0,0,0,.557.155c.371.031.867.062,1.3.062H7.412a8.6,8.6,0,0,0,.9-.062c.2-.031.294-.062.356-.062.093,0,.108.077.108.279,0,.279-.031,1.161-.031,1.5-.015.124-.046.2-.124.2-.108,0-.124-.062-.139-.263l-.015-.139c-.031-.34-.371-.7-1.532-.727l-1.64-.031v5.308c0,1.192,0,2.213.062,2.77.046.371.124.65.511.7a4.647,4.647,0,0,0,.665.046c.139,0,.2.031.2.108,0,.093-.108.124-.248.124-.851,0-1.671-.031-2.027-.031-.294,0-1.114.031-1.625.031-.17,0-.263-.031-.263-.124,0-.062.046-.108.2-.108a2.887,2.887,0,0,0,.464-.046c.263-.046.34-.34.371-.712.062-.542.062-1.563.062-2.754v-5.308Z" transform="translate(0 -190.776)"/><path class="a" d="M53.912,231.9c.062,0,.077-.046.062-.077l-1.161-3.188c-.015-.046-.031-.108-.062-.108s-.062.062-.077.108l-1.192,3.172c-.015.046,0,.093.046.093Zm-2.646.634c-.062,0-.093.031-.124.108l-.681,1.78a2.761,2.761,0,0,0-.2.789c0,.232.124.4.526.4h.186c.155,0,.2.031.2.108,0,.108-.077.124-.217.124-.418,0-.975-.046-1.377-.046-.139,0-.851.046-1.532.046-.17,0-.248-.031-.248-.124,0-.077.046-.108.155-.108a3.514,3.514,0,0,0,.4-.031c.588-.077.836-.511,1.1-1.161l3.25-8.016c.155-.371.232-.511.356-.511s.186.124.325.418c.309.712,2.383,5.9,3.2,7.861.5,1.161.867,1.346,1.145,1.408a3.489,3.489,0,0,0,.542.046c.108,0,.17.015.17.108,0,.108-.124.124-.6.124-.464,0-1.408,0-2.445-.031-.232-.015-.387-.015-.387-.108,0-.077.046-.108.186-.124a.212.212,0,0,0,.124-.294l-1.037-2.662c-.031-.062-.062-.093-.124-.093H51.266Z" transform="translate(-40.403 -190.945)"/><path class="a" d="M103.656,228.084c-.294-.712-.526-.851-.99-.99a2.278,2.278,0,0,0-.511-.046c-.124,0-.155-.046-.155-.124,0-.108.139-.124.34-.124.681,0,1.424.046,1.872.046.325,0,.944-.046,1.594-.046.155,0,.294.031.294.124s-.077.124-.186.124a.942.942,0,0,0-.511.093.3.3,0,0,0-.124.279,4.234,4.234,0,0,0,.294.99l2.228,5.88h.046c.557-1.424,2.244-5.586,2.553-6.437a1.688,1.688,0,0,0,.124-.48.245.245,0,0,0-.17-.248,1.848,1.848,0,0,0-.511-.062c-.124,0-.217-.015-.217-.108,0-.108.124-.124.356-.124.65,0,1.192.046,1.362.046.217,0,.836-.046,1.222-.046.17,0,.279.031.279.124s-.077.124-.2.124a1.135,1.135,0,0,0-.634.155c-.17.124-.371.34-.712,1.161-.5,1.222-.851,1.919-1.547,3.5-.836,1.888-1.439,3.3-1.718,3.946-.34.758-.418.959-.588.959s-.248-.186-.5-.789Z" transform="translate(-86.216 -191.706)"/><line class="b" y2="10.136" transform="translate(29.154 34.939)"/></svg>