<svg xmlns="http://www.w3.org/2000/svg" width="127.563" height="32.699" viewBox="0 0 127.563 32.699"><defs><style>.a{opacity:0.7;}.b{fill:#ffe;}.b,.c,.d{fill-rule:evenodd;}.c{fill:#162288;}.d{fill:#5a61a8;opacity:0.5;}</style></defs><g transform="translate(11483.867 -10392)"><g class="a" transform="translate(-11483.867 10392)"><path class="b" d="M0,16.349C0,7.308,11.2,0,25.016,0S50.032,7.308,50.032,16.349,38.836,32.7,25.016,32.7C11.2,32.652,0,25.344,0,16.349Z"/><path class="c" d="M116.242,29.792,124.393,16.3H110.105v3.795H116.9l-8.2,13.492h14.8V29.792Z" transform="translate(-57.778 -8.664)"/><path class="c" d="M149.357,15c-4.966,0-9.557,3.654-9.557,8.9a9.557,9.557,0,1,0,19.113,0c0-5.2-4.591-8.9-9.557-8.9Zm0,4.357a4.811,4.811,0,0,1,4.872,4.544,4.88,4.88,0,1,1-9.744,0,4.844,4.844,0,0,1,4.872-4.544Z" transform="translate(-74.309 -7.973)"/><path class="c" d="M192.648,26.513a4.647,4.647,0,0,0,3.795-4.872c0-3.7-2.577-5.34-6-5.34H183.7V33.586h4.5V26.934h.047l4.263,6.652h5.575l-5.434-7.074ZM188.2,19.72h.422c1.452,0,3.139.281,3.139,2.155s-1.64,2.155-3.139,2.155H188.2V19.72Z" transform="translate(-97.643 -8.664)"/><path class="c" d="M221.5,16.3H217V33.586h9.885V29.792H221.5Z" transform="translate(-115.344 -8.664)"/><path class="c" d="M250.687,16.3v9.135c0,2.249-.141,4.685-3.045,4.685s-3.045-2.436-3.045-4.685V16.3h-4.5V26c0,2.249.094,4.45,1.827,6.09a9.464,9.464,0,0,0,11.431,0c1.733-1.686,1.827-3.888,1.827-6.09V16.3Z" transform="translate(-127.622 -8.664)"/><path class="d" d="M27.7,21.24a12.039,12.039,0,1,1,12.039,12.04A12.036,12.036,0,0,1,27.7,21.24Z" transform="translate(-14.724 -4.89)"/><path class="c" d="M37.787,19.1H52.31L45.939,29.734h5.856V33.95H37.6l6.324-10.634H37.787Z" transform="translate(-19.986 -10.152)"/><path class="c" d="M23.863,32.97C12.62,31.986,4,25.943,4,18.635S12.62,5.284,23.816,4.3h0a.1.1,0,0,1,.094.094c0,.047-.047.047-.047.094a14.539,14.539,0,0,0,0,28.342c.047,0,.047.047.047.094.047,0,0,.047-.047.047Z" transform="translate(-2.126 -2.286)"/><path class="c" d="M60.225,32.97c11.243-.984,19.863-7.027,19.863-14.335S71.468,5.284,60.272,4.3h0a.1.1,0,0,0-.094.094c0,.047.047.047.047.094a14.568,14.568,0,0,1,0,28.389c-.047,0-.047.047-.047.094-.047-.047,0,0,.047,0Z" transform="translate(-31.977 -2.286)"/></g></g></svg>