<svg xmlns="http://www.w3.org/2000/svg" width="223" height="275" viewBox="0 0 223 275"><defs><linearGradient id="79nba" x1="37.43" x2="42.86" y1="105.95" y2="106.14" gradientUnits="userSpaceOnUse"><stop offset="0" stop-color="#f8a99c"/><stop offset="1" stop-color="#f8769d"/></linearGradient></defs><g><g><g><g><g><path fill="#feb288" d="M125.153 210.19c.832 6.108 8.78 35.46 17 64.8 1.89-.646 3.771-1.318 5.636-2.035 5.692-2.188 9.927-9.497 15.132-12.686 5.13-3.143 10.96-3.527 15.04-7.958 2.276-2.471 4.56-3.783 6.36-6.61-5.711-14.494-19.27-52.806-20.103-58.333-.236-1.56-1.645-5.757 1.075-15.885 2.728-10.154-.921-5.71-1.075-9.404-.294-7.013-2.784-8.17-7.197-19.738-5.288-13.865-2.712-14.832-7.607-26.522-3.26-7.79-5.983-14.291-12.747-19.945-7.302-6.102-15.243-7.808-18.298-8.429-2.816-.571-7.947-.457-18.094-.206-4.883.12-12.682.376-22.41 2.056-7.684 1.329-10.577 2.512-11.514 4.936-.805 2.081-.22 5.214 1.44 7.195 1.665 1.99 3.906 3.085 3.906 3.085s-3.746 4.791-2.879 8.018c1.776 6.604 10.694 6.296 11.72 6.784 3.3 1.574 4.867 6.806 3.7 7.813-1.071.926-3.621-2.426-8.84-2.466-1.347-.012-3.804-.03-5.346 1.644-1.683 1.827-1.268 4.578-1.028 6.168.722 4.79 4.1 7.74 4.935 8.43 2.7 2.232 4.33 1.935 7.401 3.495 1.099.559 9.047 9.252 9.047 9.252s5.118 17.571 12.13 28.579c.273.428-.023-.053 12.541 14.803 7.44 8.794 9.652 10.052 10.075 13.159z"/></g></g><g><g><path fill="#fcc2a1" d="M136.667 95.875c-.36-.301-.723-.588-1.086-.87-1.1-.171-2.052-.242-2.686-.292-8.262-.65-24.633-3.032-47.102-6.546-2.468.278-6.281 30.657-5.255 31.146 3.3 1.574 4.867 6.806 3.7 7.813-1.071.925-5.948 15.71-2.878 17.27 1.098.559 9.046 9.253 9.046 9.253s-.036.397 1.549 4.85c21.392 0 44.636 2.739 44.636 2.739s15.33-15.126 16.631-22.967c1.869-11.27-6.426-13.525-6.849-29.395-2.318-4.83-5.058-9.117-9.706-13.001z"/></g></g><g><g><path fill="#1c2f82" d="M78.482 39.048c0-6.882 6.881-13.764 13.763-13.764h36.62c6.883 0 13.764 6.882 13.764 13.764v104.127c0 6.882-6.882 13.764-13.763 13.764h-36.62c-6.883 0-13.764-6.882-13.764-13.764z"/></g></g><g><g><path fill="#fcc2a1" d="M143.648 145.002c-.282.272-.692.673-1.204 1.187l-.846.854c-.303.311-.63.65-.981 1.013l-2.325 2.437-2.715 2.892c-.965 1.023-1.962 2.105-3.001 3.233-.501.563-1.065 1.172-1.576 1.837a21.36 21.36 0 0 0-1.453 2.105 25.317 25.317 0 0 0-1.218 2.274c-.361.767-.725 1.56-1.02 2.377a19.461 19.461 0 0 0-1.168 5.047c-.046.42-.06.865-.08 1.295l.001.601v.152l.002.096.004.079.015.313c.034.835.137 1.656.281 2.45a18.91 18.91 0 0 0 1.382 4.414 26.288 26.288 0 0 0 1.999 3.564 21.866 21.866 0 0 0 4.034 4.527 22.59 22.59 0 0 0 1.82 1.384l.17-.22s-.157-.133-.45-.385a21.59 21.59 0 0 1-1.206-1.14c-.99-1.023-2.35-2.563-3.527-4.683-.58-1.056-1.164-2.257-1.628-3.54-.456-1.295-.827-2.69-.982-4.16a16.042 16.042 0 0 1-.1-2.238l.004-.285.002-.07c0 .018.002-.038.003-.053l.01-.15.035-.6c.042-.372.072-.736.136-1.12.223-1.519.671-3.02 1.298-4.448a22.681 22.681 0 0 1 2.344-4.043c.913-1.237 1.918-2.294 2.996-3.428a56.205 56.205 0 0 0 2.915-3.434c.887-1.123 2.45-1.221 3.163-2.247 2.858-4.098 5.566-6.629 5.566-6.629l-2.262-1.67-.438.412z"/></g></g><g><g><path fill="#feb288" d="M164.423 133.088c-1.747-6.596-3.73-12.469-4.523-14.803-3.243-9.556-10.28-30.224-13.159-28.99-5.758 2.47-3.65 15.13-3.495 16.244 2.215 15.78 6.428 31.407 5.14 35.363-.41 1.26-.939 1.846-3.29 4.522-9.795 11.153-10.887 12.661-11.513 13.57-2.841 4.125-4.89 7.098-5.346 11.514-.808 7.826 4.051 13.729 4.935 14.803.975 1.185 7.383 8.97 15.214 7.813 6.224-.921 9.668-6.948 12.748-12.336 7.71-13.493 7.214-26.954 6.99-30.018-.375-5.13-1.483-9.313-3.7-17.682z"/></g></g><g><g><path fill="#f48f6d" d="M155.914 188.331a41.679 41.679 0 0 1-6.7 8.102c-6.167 5.758-11.191 8.31-11.191 8.31s11.806-3.781 16.351-8.418c.513-.521 21.164 58.355 21.989 57.458 2.625-2.106 6.159-5.256 7.958-8.081-5.711-14.496-19.269-52.807-20.104-58.335-.235-1.559-1.645-5.757 1.076-15.885 3.33-9.9 3.002-18.363 2.83-20.713-.374-5.128-1.483-9.313-3.7-17.682-1.748-6.596-3.731-12.469-4.523-14.803-3.038-8.949-9.4-27.637-12.561-28.965.238 1.03.5 2.15.784 3.344 2.841 11.9 4.99 18.644 10.105 36.823 3.946 14.021 4.753 17.423 4.998 22.767.296 6.476-.43 11.563-.982 15.3-1.161 7.862-2.151 14.121-6.33 20.778z"/></g></g><g><g><path fill="#f95b30" d="M147.129 91.726c-.745.574-.713 2.297-.65 2.634.6 3.19 3.129 10.407 4.536 11.788 1.162 1.141 2.074 1.623 3.638 1.435.508-.06.963-.192 1.394-.35-2.38-6.539-5.081-13.294-7.16-16.33-.687.22-1.326.49-1.758.823z"/></g></g><g opacity=".21"><g opacity=".21"><path fill="#c16859" d="M169.484 215.053c-1.22 1.389-2.398 2.247-4.752 3.96-3.724 2.712-6.85 4.245-7.92 4.752a46.752 46.752 0 0 1-6.467 2.507 45.668 45.668 0 0 1-8.448 1.717c-3.01.317-6.106.643-10.031-.132-1.475-.292-2.511-1.632-3.64-2.044.126 1.017 1.468 4.128 1.645 5.33 1.388.596 8.483 3.298 22.294-1.003a48.139 48.139 0 0 0 6.469-2.508c1.068-.508 4.2-2.035 7.92-4.752 4.139-3.025 6.052-6.06 6.534-7.85-.518-1.48-.714-2.046-1.217-3.496a17.384 17.384 0 0 1-2.387 3.519z"/></g></g><g><g><path fill="#fffdee" d="M81.813 139.327V39.803H139.1v99.524z"/></g></g><g><g><path fill="#fffdee" d="M116.594 32.148h-12.276a.795.795 0 0 0-.792.793c0 .435.357.79.792.79h12.276a.794.794 0 0 0 .792-.79.795.795 0 0 0-.792-.793z"/></g></g><g><g><path fill="#fffdee" d="M120.402 32.194a1.055 1.055 0 1 0 1.493 1.491 1.055 1.055 0 0 0-1.493-1.49z"/></g></g><g><g><path fill="#f4f4f4" d="M105.044 148.146c0-2.706 2.706-5.412 5.412-5.412s5.412 2.706 5.412 5.412-2.706 5.412-5.412 5.412-5.412-2.706-5.412-5.412z"/></g></g><g><g><path fill="#f95b30" d="M171.325 206.248c-1.605 4.726-7.336 11.297-18.694 15.7-11.316 4.386-19.82 3.382-25.466.448-.098-.051-.105.035-.179.078-.074.045-.213.048-.263.173-.422 1.062.028 4.73.938 5.58 5.666 5.297 19.91 2.316 27.498-.607 6.723-2.59 16.768-8.09 18.02-15.51.309-1.834-1.71-6.284-1.854-5.862z"/></g></g><g><g><path fill="#f95b30" d="M161.69 217.18c-2.076 1.231-6.374 3.726-9.06 4.767-11.315 4.386-19.71 3.329-25.465.449-.092-.046-.137.029-.207.064-.073.039-.17.044-.221.16-.446 1.02.003 4.747.924 5.608 5.666 5.296 19.91 2.314 27.498-.608 2.345-.904 5.898-2.303 9.249-4.677 1.698-3.22-1.272-5.448-2.718-5.763z"/></g></g><g><g><g><path fill="#d6350f" d="M152.411 221.395c-15.466 6.158-23.173 2.33-24.89.344 0 0-.809.894-.798.906 1.43 1.592 4.845 3.387 10.752 3.317 4.026-.05 9.133-.978 15.376-3.463 16.268-6.477 18.07-13.787 18.473-16.25l-.99-.152c-1.322 2.696-2.412 9.123-17.923 15.298z"/></g></g></g><g><g><g><path fill="#d8735b" d="M85.731 189.816l-.085.1-.152-.127c-.01.01-.02.023-.028.034l-.01.01h.001c-.041.054-.071.114-.041.2l.039.11.113.018a.153.153 0 0 0 .038.005c.067 0 .113-.035.151-.076l.003-.004a.413.413 0 0 0 .036-.043l-.15-.126z"/></g></g></g><g><g><path fill="#1c2f82" d="M6.299 119.597l.054-2.561-1.333 2.188a2.681 2.681 0 0 1-2.347 1.286l-2.56-.053 2.199 1.217a2.683 2.683 0 0 1 1.378 2.514l-.157 2.51 1.217-2.2a2.684 2.684 0 0 1 2.514-1.38l2.51.158-2.189-1.332a2.682 2.682 0 0 1-1.286-2.347z"/></g></g><g><g><path fill="#1c2f82" d="M203.608 74.937l.054-2.561-1.333 2.189a2.678 2.678 0 0 1-2.347 1.286l-2.561-.054 2.2 1.218a2.68 2.68 0 0 1 1.378 2.514l-.157 2.508 1.217-2.199a2.682 2.682 0 0 1 2.514-1.378l2.51.158-2.188-1.333a2.686 2.686 0 0 1-1.287-2.348z"/></g></g><g><g><path fill="#1c2f82" d="M178.929 109.05l.038-1.785-.93 1.524c-.346.57-.969.91-1.635.897l-1.785-.037 1.533.848a1.869 1.869 0 0 1 .96 1.753l-.109 1.75.849-1.535a1.872 1.872 0 0 1 1.752-.96l1.75.11-1.526-.929a1.874 1.874 0 0 1-.897-1.636z"/></g></g><g><g><path fill="#1c2f82" d="M219.526 116.677l.053-2.562-1.332 2.188a2.684 2.684 0 0 1-2.347 1.287l-2.561-.054 2.2 1.217a2.682 2.682 0 0 1 1.378 2.514l-.157 2.51 1.217-2.2a2.683 2.683 0 0 1 2.514-1.379l2.509.158-2.188-1.333a2.683 2.683 0 0 1-1.286-2.346z"/></g></g><g><g><path fill="#1c2f82" d="M196.37 151.257l.055-2.562-1.333 2.188a2.683 2.683 0 0 1-2.347 1.288l-2.561-.054 2.2 1.216a2.683 2.683 0 0 1 1.378 2.514l-.157 2.51 1.218-2.2a2.683 2.683 0 0 1 2.513-1.379l2.51.157-2.188-1.332a2.683 2.683 0 0 1-1.287-2.346z"/></g></g><g><g><path fill="#1c2f82" d="M215.335 41.063l.054-2.562-1.333 2.188a2.679 2.679 0 0 1-2.346 1.287l-2.562-.053 2.2 1.218a2.683 2.683 0 0 1 1.378 2.514l-.157 2.508 1.218-2.2a2.683 2.683 0 0 1 2.514-1.378l2.509.157-2.188-1.332a2.683 2.683 0 0 1-1.287-2.347z"/></g></g><g><g><path fill="#1c2f82" d="M183.115 28.24l.028-1.323-.69 1.13a1.383 1.383 0 0 1-1.212.665l-1.324-.027 1.138.63c.468.258.745.764.711 1.297l-.08 1.297.628-1.137c.26-.468.765-.744 1.3-.71l1.296.08-1.13-.688a1.388 1.388 0 0 1-.665-1.214z"/></g></g><g><g><path fill="#1c2f82" d="M33.557 138.156l.027-1.325-.688 1.132c-.257.422-.72.675-1.213.664l-1.324-.027 1.137.628c.468.26.745.765.712 1.3l-.08 1.296.628-1.137c.26-.467.765-.744 1.3-.711l1.296.08-1.13-.688a1.385 1.385 0 0 1-.665-1.212z"/></g></g><g><g><path fill="#1c2f82" d="M120.783 2.491l.054-2.561-1.333 2.188a2.68 2.68 0 0 1-2.346 1.287l-2.562-.053 2.2 1.217a2.681 2.681 0 0 1 1.378 2.514l-.157 2.51 1.217-2.2a2.683 2.683 0 0 1 2.515-1.379l2.508.157-2.187-1.332a2.682 2.682 0 0 1-1.287-2.348z"/></g></g><g><g><path fill="#1c2f82" d="M20.542 170.417l.054-2.562-1.332 2.188a2.683 2.683 0 0 1-2.347 1.287l-2.562-.053 2.2 1.216a2.683 2.683 0 0 1 1.378 2.515l-.157 2.51 1.218-2.201a2.683 2.683 0 0 1 2.513-1.378l2.51.156-2.189-1.332a2.681 2.681 0 0 1-1.286-2.346z"/></g></g><g><path fill="#f95b30" d="M100.785 83.81s-2.771-9.907 0-13.21c2.772-3.302 14.518 1.25 11.086 0-3.433-1.248-11.086 13.21-11.086 13.21z"/></g><g><path fill="#6fc1e9" d="M95.114 119.805s1.733-10.096 0-13.21c-1.733-3.113-11.085 0-11.085 0z"/></g><g><path fill="#f95b30" d="M113.244 42.843l55.733 3.859c7.42 0 10.193 7.507 10.193 14.928 0 7.42 7.39 15.67-10.193 15.169l-60.54-3.224c-7.422 0-15.988-.588-13.437-13.437 2.55-12.848 10.823-17.295 18.244-17.295z"/></g><g><g><path fill="#f48f6d" d="M155.737 68.032v-4.61h3.82v4.61z"/></g><g opacity=".3"><path fill="#dd5263" d="M155.737 65.314c.133.054.275.104.428.15.173.05.938.264 1.942.164a5.357 5.357 0 0 0 1.45-.358v-1.847h-3.82z"/></g><g><path fill="#f48f6d" d="M151.224 56.784c.148.96-.41 1.846-1.248 1.976-.838.13-1.639-.544-1.787-1.506-.15-.96.41-1.845 1.248-1.974.837-.13 1.638.544 1.787 1.504z"/></g><g><path fill="#f48f6d" d="M163.883 56.844c-.15.961.41 1.845 1.248 1.975.838.13 1.638-.544 1.787-1.505.149-.96-.41-1.845-1.248-1.976-.838-.129-1.638.545-1.787 1.506z"/></g><g><path fill="#feb288" d="M149.706 55.011c0-5.61 3.517-10.158 7.856-10.158 4.338 0 7.855 4.548 7.855 10.158 0 5.61-3.517 10.159-7.855 10.159-4.339 0-7.856-4.548-7.856-10.159z"/></g><g opacity=".2"><path fill="#dd6675" d="M157.562 44.854c-4.339 0-7.855 4.548-7.855 10.158 0 .738.294 2.547.41 3.24.532-2.432 2.858-6.326 2.858-6.326s2.095 1.126 3.029 1.461c2.576.918 5.813 1.145 7.249 1.947 1.838 1.027 1.745 2.301 1.82 2.66.223-.943.344-1.944.344-2.982 0-5.61-3.517-10.158-7.855-10.158z"/></g><g><path fill="#16255b" d="M152.226 52.089c2.458-3.447 6.733-5.012 9.998-6.235-1.733-1.41-4.369-1.946-6.487-1.664-4.761.633-9.081 6.505-5.768 13.371.214-1.77 1.258-4.071 2.257-5.472z"/></g><g><path fill="#1c2f82" d="M161.291 53.36c1.004.15 2.654.957 3.894 2.148 1.047 1.005 1.648 2.624 1.648-.055 0-6.694-4.196-12.12-9.372-12.12-3.012 0-5.69 1.838-7.404 4.692.63 2.085 1.452 3.86 11.234 5.334z"/></g><g><path fill="#1c2f82" d="M162.232 68.032h-9.252a6.544 6.544 0 0 0-6.483 5.663h22.218a6.544 6.544 0 0 0-6.483-5.663z"/></g><g><path fill="#f48f6d" d="M159.556 68.011c0 .534-.855.968-1.91.968-1.054 0-1.91-.434-1.91-.967 0-.534.856-.968 1.91-.968 1.055 0 1.91.434 1.91.967z"/></g></g><g><path fill="#6fc1e9" d="M25.825 82.13c18.495-3.552 42.047-3.552 60.541 0 18.495 3.552 13.437 6.361 13.437 14.208s-6.016 14.208-13.437 14.208c0 0-42.046 3.552-60.54 0-18.495-3.552-13.437-6.361-13.437-14.208S7.33 85.682 25.825 82.13z"/></g><g><g><path fill="#f7a384" d="M38.821 106.017l.16-4.607 3.818.133-.161 4.607z"/></g><g opacity=".3"><path fill="#dd5263" d="M38.916 103.302c.13.057.271.112.423.163a5.22 5.22 0 0 0 1.935.233 5.337 5.337 0 0 0 1.46-.308l.065-1.847-3.817-.133z"/></g><g><path fill="#f7a384" d="M34.703 94.619c.115.965-.474 1.83-1.316 1.93-.842.101-1.618-.6-1.734-1.566-.115-.966.475-1.83 1.317-1.93.841-.101 1.618.6 1.733 1.566z"/></g><g><path fill="#f7a384" d="M47.352 95.12c-.182.954.346 1.857 1.179 2.018.833.158 1.656-.488 1.838-1.443.182-.955-.345-1.859-1.178-2.017-.833-.16-1.656.486-1.839 1.442z"/></g><g><path fill="#feb288" d="M33.249 92.793c.195-5.606 3.869-10.029 8.205-9.877 4.335.15 7.691 4.819 7.495 10.426-.195 5.607-3.869 10.03-8.205 9.878-4.335-.152-7.691-4.82-7.495-10.427z"/></g><g><path fill="#1c2f82" d="M38.036 80.786c.057-1.653 1.666-2.94 3.592-2.872 1.926.067 3.441 1.462 3.383 3.116-.057 1.654-1.666 2.94-3.592 2.873-1.926-.068-3.441-1.463-3.383-3.117z"/></g><g opacity=".2"><path fill="#f27982" d="M41.454 82.916c-4.336-.152-8.01 4.27-8.205 9.878-.026.736.011 1.457.103 2.153.785-2.332 3.028-4.862 3.028-4.862s.345.17.58.383c.324.295.765.523 1.645.98.39.201 1.46.755 2.867.923.692.083 3.654.44 4.957 1.442 1.348 1.035 2.01 2.136 2.073 2.498.256-.936.412-1.932.448-2.97.196-5.606-3.161-10.274-7.496-10.425z"/></g><g><path fill="#f95b30" d="M36.322 89.532c2.996-2.99 7.231-4.243 10.655-4.907-1.475-1.678-3.4-2.722-5.535-2.797-4.8-.167-10.381 5.403-8.255 12.726.505-1.712 1.917-3.806 3.135-5.022z"/></g><g><path fill="#1c2f82" d="M44.049 92.165c.945.177 2.484.801 3.62 1.972.959.986 1.194 1.689 1.123 3.712.174-.82 1.038-1.693 1.126-4.23.222-6.341-3.573-11.62-8.476-11.79-2.852-.1-5.45 1.553-7.168 4.199.527 1.996.559 4.417 9.775 6.137z"/></g><g><path fill="#1c2f82" d="M45.312 106.243l-9.247-.323a6.543 6.543 0 0 0-6.676 5.433l22.204.775a6.543 6.543 0 0 0-6.28-5.885z"/></g><g><path fill="url(#79nba)" d="M42.638 106.13c-.018.533-.888.937-1.942.9-1.054-.036-1.893-.5-1.874-1.034.018-.533.888-.937 1.942-.9 1.054.037 1.893.5 1.874 1.033z"/></g></g><g><path fill="#fffdee" d="M105.405 55.047c0-.521.521-1.043 1.043-1.043h30.06c.521 0 1.043.522 1.043 1.043 0 .522-.522 1.043-1.043 1.043h-30.06c-.522 0-1.043-.521-1.043-1.043z"/></g><g><path fill="#fffdee" d="M57.166 90.872c0-.522.521-1.043 1.043-1.043h30.06c.521 0 1.043.521 1.043 1.043 0 .521-.522 1.043-1.043 1.043h-30.06c-.522 0-1.043-.522-1.043-1.043z"/></g><g><path fill="#fffdee" d="M57.166 95.74c0-.521.521-1.043 1.043-1.043h30.06c.521 0 1.043.522 1.043 1.043 0 .522-.522 1.043-1.043 1.043h-30.06c-.522 0-1.043-.521-1.043-1.043z"/></g></g></g></g></svg>