<svg xmlns="http://www.w3.org/2000/svg" width="254" height="269" viewBox="0 0 254 269"><g><g><g><g><path fill="none" stroke="#1c2f82" stroke-linecap="round" stroke-miterlimit="50" stroke-width="2" d="M17.144 43.09v0s-4.29 8.62-3.703 68.84c.587 60.222 22.298 123.321 15.256 156.127"/></g><g><path fill="none" stroke="#1c2f82" stroke-linecap="round" stroke-miterlimit="50" stroke-width="2" d="M80.92 26.746v62s-3.819 53.734-2.347 59.852c2.098 8.715 17.318 102.373 7.779 113.823"/></g><g><path fill="none" stroke="#1c2f82" stroke-linecap="round" stroke-miterlimit="50" stroke-width="2" d="M145.467 27.173v0l9.074 99.19v44.125"/></g><g><path fill="none" stroke="#1c2f82" stroke-linecap="round" stroke-miterlimit="50" stroke-width="2" d="M220.576 27.173v0s-11.736 22.432-11.736 57.68c0 35.247 12.07 50.54 11.736 83.312-.334 32.771-13.823 32.129-13.073 47.772"/></g><g><path fill="none" stroke="#1c2f82" stroke-linecap="round" stroke-miterlimit="50" stroke-width="2" d="M5.813 60.216s237.647 3.502 242.929-6.726"/></g><g><path fill="none" stroke="#1c2f82" stroke-linecap="round" stroke-miterlimit="50" stroke-width="2" d="M1.118 107.913v0s96.819-13.965 117.356-10.29c20.538 3.674 128.506 16.847 133.787 10.29"/></g><g><path fill="none" stroke="#1c2f82" stroke-linecap="round" stroke-miterlimit="50" stroke-width="2" d="M5.813 158.24v0s113.247-5.927 124.69-3.827c11.443 2.102 112.37 10.143 118.239 7.88"/></g><g><path fill="none" stroke="#1c2f82" stroke-linecap="round" stroke-miterlimit="50" stroke-width="2" d="M5.813 215.523s104.967-9.598 124.317-6.575"/></g></g><g><g><g><g><path fill="#1c2f82" d="M25.516 33.445c4.7 4.127 33.91-4.191 37.78 2.994 3.869 7.185-1.49 33.293 0 41.565 1.489 8.272-40.4-1.465-43.629-3.118-3.228-1.654 1.15-45.568 5.85-41.441z"/></g></g></g></g><g><g><g><g><g><path fill="#fffdee" d="M57.28 42.454l-26.177-2.603a1.362 1.362 0 0 0-1.49 1.22 1.36 1.36 0 0 0 1.22 1.49l26.177 2.604a1.361 1.361 0 1 0 .27-2.71z"/></g></g></g></g></g><g><path fill="#f95b30" d="M108.344 21.73c.206-6.86 10.99-5.623 21.573-13.952 10.584-8.329 7.752-8.69 11.19-6.914 3.44 1.777 21.453 20.344 21.981 28.375.528 8.031-31 24.731-31 24.731s-23.947-25.382-23.744-32.24z"/></g><g><g><g><g><g><path fill="#fffdee" d="M56.67 48.593L30.492 45.99a1.362 1.362 0 0 0-.27 2.71L56.4 51.305a1.361 1.361 0 1 0 .27-2.71z"/></g></g></g></g></g><g><g><g><g><g><path fill="#fffdee" d="M57.014 55.742l-26.177-2.604a1.362 1.362 0 0 0-.27 2.712l26.178 2.602a1.363 1.363 0 0 0 .27-2.71z"/></g></g></g></g></g><g><g><g><g><g><g><path fill="#fffdee" d="M139.873 8.862a1.267 1.267 0 0 0-1.77-.267l-19.687 14.519a1.268 1.268 0 0 0 1.504 2.04l19.685-14.52c.563-.415.684-1.21.268-1.772z"/></g></g></g></g></g><g><g><g><g><g><path fill="#fffdee" d="M146.394 17.705a1.266 1.266 0 0 0-1.77-.267l-19.686 14.518a1.268 1.268 0 0 0 1.504 2.04l19.684-14.519a1.267 1.267 0 0 0 .268-1.772z"/></g></g></g></g></g><g><g><g><g><g><path fill="#fffdee" d="M151.997 25.3a1.268 1.268 0 0 0-1.771-.267L130.54 39.552a1.268 1.268 0 0 0 1.504 2.04l19.686-14.52a1.266 1.266 0 0 0 .267-1.771z"/></g></g></g></g></g></g><g><g><path fill="#1c2f82" d="M195.717 67.203h-40.654a2.227 2.227 0 0 0-2.221 2.22c0 1.222 1 2.221 2.221 2.221h40.654a2.227 2.227 0 0 0 2.22-2.22c0-1.222-.998-2.221-2.22-2.221z"/></g></g><g><g><g><path fill="#8297a3" d="M90.187 79.172c0-.676.676-1.351 1.351-1.351h21.814c.676 0 1.351.675 1.351 1.351 0 .676-.675 1.351-1.351 1.351H91.538c-.675 0-1.35-.675-1.35-1.35z"/></g></g><g><g><path fill="#8297a3" d="M117.424 79.172c0-.676.676-1.351 1.351-1.351h12.534c.676 0 1.352.675 1.352 1.351 0 .676-.676 1.351-1.352 1.351h-12.534c-.675 0-1.35-.675-1.35-1.35z"/></g></g><g><g><path fill="#8297a3" d="M103.74 83.848H91.538c-.743 0-1.35.608-1.35 1.351 0 .744.607 1.352 1.35 1.352h12.202c.742 0 1.35-.608 1.35-1.352 0-.743-.608-1.35-1.35-1.35z"/></g></g><g><g><path fill="#8297a3" d="M131.309 83.848H108.98c-.743 0-1.35.608-1.35 1.351 0 .744.607 1.352 1.35 1.352h22.329c.743 0 1.351-.608 1.351-1.352 0-.743-.608-1.35-1.351-1.35z"/></g></g></g><g><g><g><g><path fill="#8297a3" d="M185.774 136.586c0-.676.676-1.352 1.351-1.352h21.814c.676 0 1.351.676 1.351 1.352 0 .675-.675 1.351-1.351 1.351h-21.814c-.675 0-1.351-.676-1.351-1.351z"/></g></g><g><g><path fill="#8297a3" d="M167.817 136.586c0-.676.676-1.352 1.351-1.352h12.534c.676 0 1.351.676 1.351 1.352 0 .675-.675 1.351-1.351 1.351h-12.534c-.675 0-1.351-.676-1.351-1.351z"/></g></g><g><g><path fill="#8297a3" d="M208.94 129.207h-12.201c-.743 0-1.352.608-1.352 1.352 0 .742.608 1.35 1.352 1.35h12.2c.743 0 1.351-.608 1.351-1.35 0-.744-.608-1.352-1.35-1.352z"/></g></g><g><g><path fill="#8297a3" d="M191.497 129.207h-22.329c-.743 0-1.351.608-1.351 1.352 0 .742.608 1.35 1.351 1.35h22.33c.742 0 1.35-.608 1.35-1.35 0-.744-.608-1.352-1.35-1.352z"/></g></g></g><g><g><g><path fill="#8297a3" d="M185.357 148.745c0-.676.676-1.352 1.352-1.352h21.813c.676 0 1.351.676 1.351 1.352 0 .675-.675 1.351-1.35 1.351h-21.814c-.676 0-1.352-.676-1.352-1.351z"/></g></g><g><g><path fill="#8297a3" d="M167.4 148.745c0-.676.676-1.352 1.351-1.352h12.534c.676 0 1.351.676 1.351 1.352 0 .675-.675 1.351-1.35 1.351H168.75c-.675 0-1.35-.676-1.35-1.351z"/></g></g><g><g><path fill="#8297a3" d="M208.522 141.366h-12.2c-.743 0-1.351.609-1.351 1.351 0 .744.608 1.352 1.351 1.352h12.2c.744 0 1.352-.608 1.352-1.352 0-.742-.608-1.351-1.352-1.351z"/></g></g><g><g><path fill="#8297a3" d="M191.08 141.366h-22.328c-.743 0-1.352.609-1.352 1.351 0 .744.609 1.352 1.352 1.352h22.328c.744 0 1.352-.608 1.352-1.352 0-.742-.608-1.351-1.352-1.351z"/></g></g></g></g><g><g><g><path fill="#f95b30" d="M89.609 165.122c0-.676.675-1.351 1.351-1.351h21.814c.675 0 1.35.675 1.35 1.35 0 .676-.675 1.352-1.35 1.352H90.96c-.676 0-1.351-.676-1.351-1.351z"/></g></g><g><g><path fill="#f95b30" d="M103.16 169.798h-12.2c-.744 0-1.351.608-1.351 1.352 0 .743.607 1.35 1.35 1.35h12.201c.743 0 1.351-.607 1.351-1.35 0-.744-.608-1.352-1.35-1.352z"/></g></g></g><g><g><g><path fill="#8297a3" d="M91.044 119.374c0-.675.675-1.351 1.35-1.351h21.815c.675 0 1.35.676 1.35 1.351 0 .676-.675 1.352-1.35 1.352H92.395c-.676 0-1.351-.676-1.351-1.352z"/></g></g><g><g><path fill="#8297a3" d="M118.28 119.374c0-.675.676-1.351 1.352-1.351h4.915c.676 0 1.352.676 1.352 1.351 0 .676-.676 1.352-1.351 1.352h-4.916c-.676 0-1.351-.676-1.351-1.352z"/></g></g><g><g><path fill="#8297a3" d="M104.595 132.938h-12.2c-.743 0-1.351.607-1.351 1.351 0 .742.608 1.351 1.351 1.351h12.2c.744 0 1.351-.61 1.351-1.35 0-.745-.607-1.352-1.35-1.352z"/></g></g><g><g><path fill="#8297a3" d="M114.466 125.525H92.138c-.744 0-1.352.609-1.352 1.352 0 .743.608 1.35 1.352 1.35h22.328c.743 0 1.351-.607 1.351-1.35 0-.743-.608-1.352-1.351-1.352z"/></g></g></g><g><path fill="#3070b7" d="M154.475 87.795c-1.038-1.996 4.599-2.594 14.943-3.429 10.345-.833 17.002-5.262 18.423-4.852 1.42.41 11.078 25.994 8.884 32.553-2.195 6.558-27.622 8.548-33.419 9.258-5.796.712-7.796-31.535-8.831-33.53z"/></g><g><g><g><g><g><g><path fill="#fffdee" d="M184.256 86.752a1.113 1.113 0 0 0-1.356-.796l-20.782 5.42a1.112 1.112 0 1 0 .562 2.152l20.781-5.42c.594-.154.95-.762.795-1.356z"/></g></g></g></g></g><g><g><g><g><g><path fill="#fffdee" d="M185.528 91.625a1.113 1.113 0 0 0-1.357-.795l-20.782 5.42a1.112 1.112 0 0 0 .561 2.154l20.782-5.422c.594-.155.95-.761.796-1.357z"/></g></g></g></g></g><g><g><g><g><g><path fill="#fffdee" d="M186.459 96.206l-20.781 5.42a1.112 1.112 0 1 0 .56 2.152l20.782-5.42a1.111 1.111 0 1 0-.561-2.152z"/></g></g></g></g></g></g><g><g><path fill="#f95b30" d="M43.446 86.744c-2.923 0-5.169 1.656-4.758 3.51l1.989 8.958 1.868 8.409c.213.964 1.588.964 1.802 0l1.868-8.41 1.989-8.957c.412-1.854-1.835-3.51-4.758-3.51z"/></g><g><path fill="#f95b30" d="M42.012 111.173a2.029 2.029 0 0 0 0 2.867 2.028 2.028 0 1 0 0-2.867z"/></g></g><g><g><path fill="#1c2f82" d="M137.942 117.964c-2.923 0-5.169 1.658-4.757 3.51l1.99 8.959 1.866 8.408c.214.964 1.589.964 1.803 0l1.868-8.408 1.989-8.958c.411-1.853-1.835-3.51-4.759-3.51z"/></g><g><path fill="#1c2f82" d="M136.508 142.394a2.026 2.026 0 1 0 2.867 2.865 2.026 2.026 0 1 0-2.867-2.865z"/></g></g><g><path fill="#f95b30" d="M68.184 188.049c.79 0 35.275-5.264 37.109 0 1.833 5.265-1.548 28.86 0 34.358 1.549 5.5-33.299 1.394-37.109 3.072-3.81 1.68 0-37.43 0-37.43z"/></g><g><g><g><g><g><path fill="#fffdee" d="M73.78 196.268c-.03-.58.518-1.188 1.097-1.219l22.355-1.171c.58-.03 1.188.518 1.219 1.097.03.579-.519 1.188-1.097 1.218l-22.356 1.172c-.579.03-1.188-.519-1.218-1.097z"/></g></g></g></g></g><g><g><g><g><g><path fill="#fffdee" d="M97.596 200.823l-22.355 1.172a1.16 1.16 0 0 0 .122 2.316l22.355-1.172a1.16 1.16 0 0 0-.122-2.316z"/></g></g></g></g></g><g><g><g><g><g><path fill="#fffdee" d="M97.925 207.812l-23.38 1.225a1.212 1.212 0 1 0 .126 2.422l23.38-1.226a1.213 1.213 0 0 0-.126-2.421z"/></g></g></g></g></g></g></g></svg>