<svg id="Group_26" data-name="Group 26" xmlns="http://www.w3.org/2000/svg" width="127.792" height="30.577" viewBox="0 0 127.792 30.577">
  <path id="Path_26" data-name="Path 26" d="M88.559,126.4l-.147,2.206H82.578l-.294,4.02h5.539l-.2,2.206h-5.49l-.294,4.608h6.176l-.2,2.255H79L80.127,126.4Z" transform="translate(-45.912 -118.695)" fill="#162288" fill-rule="evenodd"/>
  <path id="Path_27" data-name="Path 27" d="M109.371,134.941,108.93,137a4.129,4.129,0,0,0-1.716-.343,3.4,3.4,0,0,0-2.108.686,3.922,3.922,0,0,0-1.274,1.765,5.015,5.015,0,0,0-.245,2.255,2.925,2.925,0,0,0,.882,1.912,2.725,2.725,0,0,0,1.863.686,4.634,4.634,0,0,0,2.255-.539l.343,2.01a5.018,5.018,0,0,1-1.373.441,9.134,9.134,0,0,1-1.765.147,5.791,5.791,0,0,1-2.451-.539,4.553,4.553,0,0,1-1.765-1.569,5.209,5.209,0,0,1-.833-2.3,6.551,6.551,0,0,1,.49-3.529,6,6,0,0,1,2.206-2.6,6.3,6.3,0,0,1,3.48-.98,5.77,5.77,0,0,1,2.451.441Z" transform="translate(-56.969 -122.824)" fill="#162288" fill-rule="evenodd"/>
  <path id="Path_28" data-name="Path 28" d="M129.61,134.949l-.1,1.667-3.774,4.706a22.1,22.1,0,0,1-2.206,2.451v.049h5.588l-.147,2.157H120.1l.1-1.618,3.823-4.8c.735-.882,1.471-1.716,2.206-2.451v-.049H121.08l.147-2.157h8.382Z" transform="translate(-66.865 -123.028)" fill="#162288" fill-rule="evenodd"/>
  <path id="Path_29" data-name="Path 29" d="M151.994,135.032l-.441,5.784a24.218,24.218,0,0,0,.1,4.608l.049.441h-2.451c-.049-.637-.1-1.471-.1-2.5H149.1c-.784,1.814-2.01,2.745-3.627,2.745a3.4,3.4,0,0,1-2.5-1.029,4.6,4.6,0,0,1-1.225-2.745,9.175,9.175,0,0,1,.147-2.843,7.343,7.343,0,0,1,1.176-2.5,5.763,5.763,0,0,1,2.255-1.765,7.477,7.477,0,0,1,3.235-.637,9.858,9.858,0,0,1,3.431.441Zm-2.745,1.667a3.676,3.676,0,0,0-1.078-.1,3.085,3.085,0,0,0-1.618.441,3.659,3.659,0,0,0-1.225,1.225,4.919,4.919,0,0,0-.735,1.716,5.036,5.036,0,0,0-.1,1.912,2.5,2.5,0,0,0,.588,1.52,1.516,1.516,0,0,0,1.274.588,1.784,1.784,0,0,0,1.225-.49,3.554,3.554,0,0,0,.98-1.52,6.672,6.672,0,0,0,.49-2.353l.2-2.941Z" transform="translate(-77.877 -122.866)" fill="#162288" fill-rule="evenodd"/>
  <path id="Path_30" data-name="Path 30" d="M174.271,134.941,173.83,137a4.129,4.129,0,0,0-1.716-.343,3.4,3.4,0,0,0-2.108.686,3.922,3.922,0,0,0-1.274,1.765,5.015,5.015,0,0,0-.245,2.255,2.925,2.925,0,0,0,.882,1.912,2.726,2.726,0,0,0,1.863.686,4.634,4.634,0,0,0,2.255-.539l.343,2.01a5.018,5.018,0,0,1-1.373.441,9.134,9.134,0,0,1-1.765.147,5.791,5.791,0,0,1-2.451-.539,4.553,4.553,0,0,1-1.765-1.569,5.209,5.209,0,0,1-.833-2.3,6.551,6.551,0,0,1,.49-3.529,6,6,0,0,1,2.206-2.6,6.3,6.3,0,0,1,3.48-.98,5.925,5.925,0,0,1,2.451.441Z" transform="translate(-90.056 -122.824)" fill="#162288" fill-rule="evenodd"/>
  <path id="Path_31" data-name="Path 31" d="M189.731,135l-.784,11.078H186.3L187.084,135Z" transform="translate(-100.615 -123.079)" fill="#162288" fill-rule="evenodd"/>
  <path id="Path_32" data-name="Path 32" d="M207.807,133.376a8.377,8.377,0,0,1-.392,3.627,6.31,6.31,0,0,1-2.108,2.941,5.722,5.722,0,0,1-3.725,1.127,5.336,5.336,0,0,1-2.059-.343,2.715,2.715,0,0,1-1.274-.882,3.435,3.435,0,0,1-.686-1.667,13.589,13.589,0,0,1,0-2.01l.784-11.471h2.647l-.441,6.667h0a4.2,4.2,0,0,1,1.422-1.373,4.3,4.3,0,0,1,1.961-.49,3.334,3.334,0,0,1,2.647,1.127,4.881,4.881,0,0,1,1.225,2.745Zm-2.745.49a2.682,2.682,0,0,0-.637-1.569,1.61,1.61,0,0,0-1.373-.637,2.116,2.116,0,0,0-1.274.441,3.915,3.915,0,0,0-1.029,1.275,4.581,4.581,0,0,0-.49,1.912l-.1,1.029a4.705,4.705,0,0,0,0,1.176v.147a1.517,1.517,0,0,0,.539,1.029,1.634,1.634,0,0,0,1.127.343,2.483,2.483,0,0,0,1.863-.784,4.771,4.771,0,0,0,1.127-2.01,4.972,4.972,0,0,0,.245-2.353Z" transform="translate(-106.338 -117.828)" fill="#162288" fill-rule="evenodd"/>
  <path id="Path_33" data-name="Path 33" d="M231.594,135.032l-.441,5.784a24.217,24.217,0,0,0,.1,4.608l.049.441h-2.451c-.049-.637-.1-1.471-.1-2.5H228.7c-.784,1.814-2.01,2.745-3.627,2.745a3.4,3.4,0,0,1-2.5-1.029,4.6,4.6,0,0,1-1.226-2.745,9.174,9.174,0,0,1,.147-2.843,7.342,7.342,0,0,1,1.176-2.5,5.763,5.763,0,0,1,2.255-1.765,7.477,7.477,0,0,1,3.235-.637,9.858,9.858,0,0,1,3.431.441ZM228.8,136.7a3.676,3.676,0,0,0-1.078-.1,3.085,3.085,0,0,0-1.618.441,3.659,3.659,0,0,0-1.225,1.225,4.919,4.919,0,0,0-.735,1.716,5.036,5.036,0,0,0-.1,1.912,2.5,2.5,0,0,0,.588,1.52,1.516,1.516,0,0,0,1.274.588,1.784,1.784,0,0,0,1.225-.49,3.554,3.554,0,0,0,.98-1.52,6.672,6.672,0,0,0,.49-2.353l.2-2.941Z" transform="translate(-118.458 -122.866)" fill="#162288" fill-rule="evenodd"/>
  <path id="Path_34" data-name="Path 34" d="M253.108,160.822H251l.049-1.422h2.108Z" transform="translate(-133.6 -135.519)" fill="#162288" fill-rule="evenodd"/>
  <path id="Path_35" data-name="Path 35" d="M253.155,134.937l-.441,1.912a3.382,3.382,0,0,0-.931-.343,4.938,4.938,0,0,0-1.225-.147,1.771,1.771,0,0,0-1.176.343.951.951,0,0,0-.343.931,1.419,1.419,0,0,0,.441.784,4.072,4.072,0,0,0,1.176.735q2.426,1.176,2.647,2.941a4.34,4.34,0,0,1-.147,1.618,2.584,2.584,0,0,1-.833,1.176,3.38,3.38,0,0,1-1.373.735,6.762,6.762,0,0,1-1.814.245h-.1a6.671,6.671,0,0,1-1.765-.245,3.982,3.982,0,0,1-1.373-.588l.441-1.863a6.3,6.3,0,0,0,1.275.49,4.958,4.958,0,0,0,1.422.2,1.614,1.614,0,0,0,1.176-.392,1.035,1.035,0,0,0,.343-.98,1.521,1.521,0,0,0-.441-.882,3.767,3.767,0,0,0-1.225-.784,5.461,5.461,0,0,1-1.765-1.275,3.129,3.129,0,0,1-.784-1.618,2.976,2.976,0,0,1,.343-1.863,3.4,3.4,0,0,1,1.422-1.324,5.444,5.444,0,0,1,2.255-.441,7.582,7.582,0,0,1,2.794.637Z" transform="translate(-131 -122.723)" fill="#162288" fill-rule="evenodd"/>
  <path id="Path_36" data-name="Path 36" d="M268.631,135l-.784,11.078H265.2L265.984,135Z" transform="translate(-140.839 -123.079)" fill="#162288" fill-rule="evenodd"/>
  <path id="Path_37" data-name="Path 37" d="M30.47,110.691a20.647,20.647,0,0,0-13.676,4.853,14.439,14.439,0,0,0-5.049,8.97C9.2,140.641,27.186,144.465,34.882,138.779c5.539-4.118,1.373-7.647-4.265-7.549-.931,0-.931.245-.147.539a8.076,8.076,0,0,1,2.059,1.127c1.618,1.324-2.7,2.7-5.441,2.7-7.892,0-11.912-6.176-8.921-12.451,3.872-8.186,17.255-9.951,17.549-4.853.2,3.873-6.176,4.559-10,5.2-1.176.2-5.392.539-5.343,3.774a3.53,3.53,0,0,0,2.255,2.99,10.487,10.487,0,0,0,4.755.686c.441-.049.49-.245.049-.392-.49-.147-.882-.343-1.176-.441-2.01-.98-.49-1.324,1.765-1.618,2.99-.392,6.667-1.225,9.314-3.235,5.931-4.51,4.461-14.216-6.863-14.559Z" transform="translate(-11.5 -110.682)" fill="#162288" fill-rule="evenodd"/>
</svg>
