<svg xmlns="http://www.w3.org/2000/svg" width="270" height="585" viewBox="0 0 270 585"><defs><clipPath id="snv7a"><path d="M.008 584.132v-46.586h269.15v46.586z"/></clipPath></defs><g><g><g><path fill="none" stroke="#1c2f82" stroke-miterlimit="50" stroke-width="2" d="M67.064 90.797c.287 1.867 25.186 109.488 84.967 161.86"/></g><g><path fill="none" stroke="#1c2f82" stroke-miterlimit="50" stroke-width="2" d="M82.558 90.797v0s48.835 67.8 71.04 80.93c16.167 9.885 46.56 50.116 46.56 50.116v0"/></g><g><path fill="#3070b7" d="M137.612 261.22c-1.752-4.32 15.911-19.551 36.547-28.112 20.636-8.561 44.71-36.458 44.71-36.458s7.377-3.778 14.962 5.181 22.052 41.604 28.575 46.49c6.524 4.886-19.346 28.067-28.575 35.393-9.23 7.326-37 15.35-49.865 28.726-12.864 13.375-45.338-48.715-46.354-51.22z"/></g><g><path fill="#2d6fbd" d="M184.495 444.754c-1.835-19.884-19.003-35.121-39.573-35.121h-52.91c-20.602 0-37.787 15.284-39.58 35.204l-8.793 97.698c-1.664 18.476 13.342 34.367 32.452 34.367h84.972c19.139 0 34.153-15.935 32.447-34.435z"/></g><g><path fill="#1850aa" d="M184.495 444.753c-1.359-14.723-11.126-26.896-24.455-32.224a37.63 37.63 0 0 1 2.154 9.536l9.014 97.714c1.707 18.5-13.308 34.435-32.446 34.435H53.79c-3.248 0-6.377-.46-9.326-1.313 3.492 13.678 16.225 24.001 31.627 24.001h84.972c19.138 0 34.154-15.935 32.446-34.435z"/></g><g><path fill="#2f7ecc" d="M93.809 417.72c-3.966.715-10.03 1.872-16.664 6.109-2.648 1.691-9.586 6.246-13.886 14.997-1.435 2.92-2.087 5.69-3.332 11.109-1.721 7.487-5.07 30.773-3.328 31.278.706.204 7.177-29.426 22.753-45.497 15.73-16.23 40.557-18.903 39.678-19.09-4.633-.982-18.957-.037-25.221 1.093z"/></g><g><g><g><g><path fill="#16255b" d="M265.09 493.8a4.7 4.7 0 0 1-.467 1.335c-.887 1.67-2.485 2.69-4.285 2.81-1.81.122-3.54-.69-4.638-2.244-.281-.399-.5-.84-.646-1.306-.663-2.115-.007-4.297 1.677-5.679a5.09 5.09 0 0 1 2.434-1.082 5.208 5.208 0 0 1 5.926 6.166zm-5.681-9.832a8.753 8.753 0 0 0-6.047 2.99 8.762 8.762 0 0 0-2.137 6.699 8.817 8.817 0 0 0 2.663 5.463 8.762 8.762 0 0 0 6.69 2.437c2.722-.182 5.174-1.578 6.74-3.886a8.684 8.684 0 0 0 1.473-4.343c.324-5.403-4.153-9.705-9.382-9.36z"/></g></g><g><path fill="#1c2f82" d="M230.979 514.25a7.814 7.814 0 0 0 7.692 6.438h9.809a7.815 7.815 0 0 0 7.709-6.533l6.218-37.403h-38.138z"/></g><g><path fill="#16255b" d="M248.035 510.81a7.814 7.814 0 0 1-7.709 6.532h-8.063a7.81 7.81 0 0 0 6.408 3.346h9.81a7.814 7.814 0 0 0 7.708-6.533l6.217-37.403h-8.71z"/></g><g opacity=".5"><path fill="#3a98d8" d="M237.149 477.956c-.185-1.206-5.239-2.206-6.445-2.021l-.593.09a2.225 2.225 0 0 0-1.857 2.53l4.345 28.373a2.225 2.225 0 0 0 2.528 1.857l.593-.091a2.225 2.225 0 0 0 1.857-2.529z"/></g><g><path fill="#a6c8ff" d="M243.4 475.022c-10.566 0-19.13.774-19.13 1.73 0 .954 8.564 1.729 19.13 1.729 10.566 0 19.007-.775 19.007-1.73s-8.44-1.729-19.006-1.729z"/></g><g><path fill="#1c2f82" d="M243.397 475.467c-9.917 0-17.957.575-17.957 1.284 0 .71 8.04 1.285 17.957 1.285 9.917 0 17.839-.575 17.839-1.285s-7.922-1.284-17.84-1.284z"/></g></g><g><g><path fill="#fffdee" d="M250.444 450.572l-.05-.281-.07-.28-.017-.071-.005-.018-.002-.009c-.013-.176-.005-.055-.009-.098l-.012-.046c-.03-.124-.07-.246-.108-.365a6.587 6.587 0 0 0-.576-1.28 6.9 6.9 0 0 0-2.85-2.64 5.848 5.848 0 0 0-.958-.395l-.35-.103.146.334c.104.215.235.53.388.9.15.384.32.836.457 1.338.138.501.236 1.053.257 1.6.004.275.003.544-.042.803l-.035.193-.003.024c-.004-.037.005.09-.008-.081l-.001.01-.003.018-.01.072-.021.144-.041.293c-.022.06-.046.103-.066.153l-.06.152-.077.2c-.042.13-.115.268-.169.403-.04.096-.094.195-.144.295l-.146.289a19.29 19.29 0 0 1-1.358 2.06l-.743.98c-.263.339-.527.68-.79 1.022l-.167.21-.189.23-.397.476c-.278.329-.59.688-.961 1.186a7.993 7.993 0 0 0-.548.869c-.173.319-.316.67-.43 1.01-.056.17-.095.336-.139.504-.035.162-.063.32-.092.48l-.024.12-.001.02-.004.041-.007.082-.012.163-.028.46c-.027.401.006.68.028 1.011l.05.378.078.41c.12.553.296 1.066.51 1.537.216.473.46.898.757 1.304.09.12.18.239.27.356l.196.197c.108.106.308.317.488.477a6.03 6.03 0 0 0 2.028 1.188c.638.218 1.202.299 1.66.316.459.021.813-.02 1.05-.06.239-.041.36-.08.36-.08s-.104-.078-.284-.222c-.18-.145-.437-.359-.727-.636a7.719 7.719 0 0 1-.903-1.034c-.142-.209-.289-.418-.41-.653-.054-.122-.128-.227-.177-.352-.046-.12-.12-.25-.135-.355-.027-.116-.053-.177-.126-.382l-.095-.261-.012-.034-.006-.016c.077.126.02.032.038.06v-.006l-.006-.04-.013-.092a7.272 7.272 0 0 1-.09-.834 5.57 5.57 0 0 1 .028-.843c.017-.137.04-.27.064-.4.032-.12.063-.282.096-.335.016-.042.019-.051.059-.184l.047-.158.023-.079.01-.04.006-.02c-.035.176-.008.046-.015.084l.002-.005.073-.157.074-.123c.099-.145.18-.23.372-.438.194-.21.508-.516.839-.872.166-.176.341-.364.508-.56l.254-.299.265-.328c.176-.227.262-.346.448-.598.137-.186.272-.387.41-.587.278-.405.549-.826.805-1.273.517-.884.96-1.86 1.262-2.89.078-.255.134-.525.195-.783.048-.272.1-.53.125-.803.026-.272.058-.533.052-.807v-.4c-.001-.134-.017-.3-.028-.444l-.028-.302z"/></g><g><path fill="#fffdee" d="M236.86 458.569c-.01-.082-.017-.178-.03-.245l-.041-.166-.021-.082-.01-.042-.003-.01-.004-.056-.002-.007-.007-.026a4.074 4.074 0 0 0-.391-.956 4.171 4.171 0 0 0-.84-1.032 4.164 4.164 0 0 0-.796-.553 3.576 3.576 0 0 0-.56-.243c-.13-.045-.205-.064-.205-.064s.022.073.072.202c.057.127.114.322.188.544.146.454.315 1.093.304 1.74a2.75 2.75 0 0 1-.044.471l-.023.114-.003.014v.004c0 .012-.007-.093-.005-.046l-.001.01-.006.042-.014.084-.025.17c-.012.046-.029.065-.041.098-.013.03-.026.056-.038.088l-.043.118c-.025.078-.063.158-.098.238a9.323 9.323 0 0 1-.246.492c-.188.337-.413.69-.667 1.064l-.844 1.197c-.113.16-.258.348-.404.54-.15.195-.32.41-.523.706a4.122 4.122 0 0 0-.54 1.107c-.12.396-.163.787-.168 1.08-.003.099-.008.205-.005.297l.016.258c.016.168.037.335.073.494.068.32.153.621.272.898.12.276.25.531.408.77l.126.18.034.045.017.024c-.018-.033.03.051.026.044l.003.004.007.007.056.059c.077.079.133.142.25.259.104.104.206.202.303.272.096.078.19.15.292.21.196.124.389.224.576.296.373.147.708.207.98.223.27.02.483-.012.621-.03.14-.022.212-.047.212-.047l-.161-.138a4.71 4.71 0 0 1-.399-.399 3.982 3.982 0 0 1-.467-.637c-.071-.125-.144-.25-.197-.393a1.723 1.723 0 0 1-.131-.41c-.004-.043-.044-.16-.074-.26l-.023-.078-.003-.01-.001-.005.02.036v-.012l-.002-.025-.01-.111c-.013-.159-.029-.327-.023-.496.006-.17.012-.335.041-.496.013-.08.033-.158.048-.235l.03-.114.03-.074c.055-.205.11-.318.167-.407.06-.084.1-.127.214-.256.11-.126.288-.313.474-.531.192-.22.375-.452.576-.727l.239-.352c.075-.112.15-.235.226-.353.152-.244.298-.501.438-.767a7.862 7.862 0 0 0 .661-1.72 5.65 5.65 0 0 0 .149-.93c.01-.157.02-.311.016-.468l-.003-.231c-.004-.085-.014-.174-.023-.26z"/></g><g><path fill="#fffdee" d="M257.924 458.336l-.043-.175-.021-.085-.01-.043-.004-.011v-.006c.003.05-.007-.073-.007-.063l-.007-.029a3.844 3.844 0 0 0-.439-1.012 4.066 4.066 0 0 0-.932-1.033 4.433 4.433 0 0 0-.86-.521 3.818 3.818 0 0 0-.592-.215 3.232 3.232 0 0 0-.215-.056s.029.073.092.202c.069.125.146.322.245.544.19.455.434 1.107.458 1.763.002.163.001.32-.027.47l-.022.111-.003.014-.005-.053v.006l-.002.01-.006.044-.012.088-.025.176-.043.08a1.944 1.944 0 0 0-.085.2c-.024.075-.073.155-.105.232-.084.156-.17.316-.276.484-.21.333-.464.684-.76 1.056l-.467.58-.492.598c-.131.161-.304.351-.473.543-.175.196-.37.407-.61.716a4.04 4.04 0 0 0-.626 1.159c-.032.104-.063.21-.087.312l-.07.349-.017.199-.02.31a4.338 4.338 0 0 0 .454 2.056c.146.287.303.543.5.793l.04.048.02.025.005.006c.054.084.017.025.03.045l.008.008.063.058.123.116.157.149c.057.053.114.103.172.151a3.728 3.728 0 0 0 2.274.802c.278.006.495-.035.637-.057.144-.027.218-.053.218-.053l-.174-.135a6.333 6.333 0 0 1-.447-.385 5.285 5.285 0 0 1-.565-.619 3.323 3.323 0 0 1-.472-.816 1.182 1.182 0 0 0-.026-.095c-.012-.035-.014-.045-.039-.107l-.06-.158-.031-.08-.004-.01c.011.018-.028-.044.025.037v-.003l-.002-.011-.003-.025c-.022-.143-.056-.315-.06-.482-.026-.328.022-.68.109-.912l.012-.028.018-.052.059-.191.003-.012c-.005.025.014-.063-.011.054l.001-.003.006-.011.011-.022.022-.043c.015-.025.031-.044.042-.067.057-.075.1-.113.214-.23l.512-.502c.213-.211.418-.432.642-.698.123-.148.168-.21.288-.362l.258-.348c.174-.24.346-.491.51-.758a7.778 7.778 0 0 0 .814-1.745c.1-.314.176-.642.217-.973.014-.17.04-.329.038-.5a3.756 3.756 0 0 0-.013-.523l-.027-.276z"/></g></g></g><g><path fill="#fff" d="M156.504 423.04c-1.493-.693-37.056-6.175-37.056-6.175l-.156.023-.156-.023s-35.593 5.488-37.103 6.187c-4.852 1.181-9.58 2.588-11.508 3.918-3.889 2.68-8.834 5.533-17.844 20.917-6.304 10.764-25.709 38.102-29.284 52.989-1.08-.187 22.242 4.328 23.423 2.091 0 0 31.586-35.853 33.52-35.602 1.703 33.1.642 72.376.567 73.169.913 1.012 2.484 2.068 4.646 3.077l-.008.404c5.145 2.166 13.372 4.016 23.755 4.633 1.944.12 3.975.19 6.082.21.152.002.305.002.458.003.214.001.424.005.639.005h.312c.84 0 1.673-.013 2.5-.03.829.017 1.661.03 2.502.03h.312c.215 0 .425-.004.639-.005.152-.001.305-.001.457-.003 2.108-.02 4.138-.09 6.083-.21 10.383-.617 18.61-2.467 23.754-4.633l-.007-.404c2.162-1.009 3.733-2.065 4.646-3.077-.077-.81-2.855-37.437-.992-71.154 1.98.913 4.687-45.156-.181-46.34z"/><path fill="none" stroke="#e5e5e5" stroke-miterlimit="50" d="M156.504 423.04c-1.493-.693-37.056-6.175-37.056-6.175v0l-.156.023v0l-.156-.023v0s-35.593 5.488-37.103 6.187c-4.852 1.181-9.58 2.588-11.508 3.918-3.889 2.68-8.834 5.533-17.844 20.917-6.304 10.764-25.709 38.102-29.284 52.989-1.08-.187 22.242 4.328 23.423 2.091 0 0 31.586-35.853 33.52-35.602 1.703 33.1.642 72.376.567 73.169.913 1.012 2.484 2.068 4.646 3.077l-.008.404c5.145 2.166 13.372 4.016 23.755 4.633 1.944.12 3.975.19 6.082.21.152.002.305.002.458.003.214.001.424.005.639.005h.312c.84 0 1.673-.013 2.5-.03.829.017 1.661.03 2.502.03h.312c.215 0 .425-.004.639-.005.152-.001.305-.001.457-.003 2.108-.02 4.138-.09 6.083-.21 10.383-.617 18.61-2.467 23.754-4.633l-.007-.404c2.162-1.009 3.733-2.065 4.646-3.077-.077-.81-2.855-37.437-.992-71.154 1.98.913 4.687-45.156-.181-46.34z"/></g><g><path fill="#fff" d="M81.769 423.04c1.492-.693 37.055-6.175 37.055-6.175l.156.023.156-.023s35.594 5.488 37.103 6.187c4.852 1.181 9.58 2.588 11.508 3.918 3.889 2.68 8.834 5.533 17.844 20.917 6.304 10.764 25.709 38.102 29.284 52.989 1.08-.187-22.242 4.328-23.423 2.091 0 0-31.586-35.853-33.52-35.602-1.703 33.1-.642 72.376-.567 73.169-.913 1.012-2.484 2.068-4.646 3.077l.008.404c-5.145 2.166-13.372 4.016-23.754 4.633-1.945.12-3.975.19-6.083.21-.152.002-.305.002-.458.003-.214.001-.424.005-.639.005h-.311c-.842 0-1.674-.013-2.502-.03-.828.017-1.66.03-2.501.03h-.312c-.215 0-.425-.004-.638-.005-.153-.001-.306-.001-.458-.003-2.108-.02-4.138-.09-6.083-.21-10.383-.617-18.61-2.467-23.754-4.633l.008-.404c-2.163-1.009-3.734-2.065-4.647-3.077.077-.81 2.856-37.437.992-71.154-1.98.913-4.686-45.156.182-46.34z"/><path fill="none" stroke="#e5e5e5" stroke-miterlimit="50" d="M81.769 423.04c1.492-.693 37.055-6.175 37.055-6.175v0l.156.023v0l.156-.023v0s35.594 5.488 37.103 6.187c4.852 1.181 9.58 2.588 11.508 3.918 3.889 2.68 8.834 5.533 17.844 20.917 6.304 10.764 25.709 38.102 29.284 52.989 1.08-.187-22.242 4.328-23.423 2.091 0 0-31.586-35.853-33.52-35.602-1.703 33.1-.642 72.376-.567 73.169-.913 1.012-2.484 2.068-4.646 3.077l.008.404c-5.145 2.166-13.372 4.016-23.754 4.633-1.945.12-3.975.19-6.083.21-.152.002-.305.002-.458.003-.214.001-.424.005-.639.005h-.311c-.842 0-1.674-.013-2.502-.03-.828.017-1.66.03-2.501.03h-.312c-.215 0-.425-.004-.638-.005-.153-.001-.306-.001-.458-.003-2.108-.02-4.138-.09-6.083-.21-10.383-.617-18.61-2.467-23.754-4.633l.008-.404c-2.163-1.009-3.734-2.065-4.647-3.077.077-.81 2.856-37.437.992-71.154-1.98.913-4.686-45.156.182-46.34z"/></g><g><path fill="#e5e5e5" d="M154.615 427.386c-10.936-2.603-19.508-3.282-25.836-4.18-19.963-2.834-22.857-.302-29.884 1.113-4.966 1-21.994-.095-17.127-1.278 1.493-.694 37.056-6.176 37.056-6.176l.156.023.156-.023s35.594 5.488 37.103 6.187c4.852 1.181 9.427 2.475 11.508 3.552 5.207 2.694 11.564 11.34 13.336 14.093-1.772-2.754-10.01-7.929-13.778-9.38a98.03 98.03 0 0 0-12.69-3.931z"/></g><g><path fill="#e5e5e5" d="M83.656 427.386c10.937-2.603 19.51-3.282 25.837-4.18 19.963-2.834 22.856-.302 29.884 1.113 4.966 1 21.995-.095 17.127-1.278-1.493-.694-37.056-6.176-37.056-6.176l-.156.023-.156-.023s-35.594 5.488-37.104 6.187c-4.85 1.181-9.427 2.475-11.507 3.552-5.207 2.694-11.563 11.34-13.336 14.093 1.773-2.754 10.01-7.929 13.778-9.38a98.05 98.05 0 0 1 12.69-3.931z"/></g><g><path fill="#fe411b" d="M118.758 507.415l-9.265-10.487 6.99-59.805h5.328l6.797 59.805z"/></g><g><path fill="#d82609" d="M121.81 437.123h-5.327l-.522 4.467c.97 1.571 3.957 1.47 4.208 1.236.566-.524 4.481 40.204 4.51 47.977.024 6.734-4.222 12.397-7.056 15.327l1.135 1.285 9.85-10.487z"/></g><g><path fill="#13131c" d="M130.746 413.915c0-.095-.014-.188-.034-.282v.564c.02-.093.034-.187.034-.282z"/></g><g><path fill="#fe411b" d="M124.976 434.947c0 3.52-3.236 6.372-6.006 6.372-2.45 0-6.005-2.853-6.005-6.372 0-3.518 2.926-5.959 6.243-5.959 3.316 0 5.768 2.44 5.768 5.96z"/></g><g opacity=".15"><path fill="#000b33" d="M100.204 449.622l18.73-16.49 17.78 16.775s3.107-5.326 4.461-29.666l-21.727-3.376-22.085 3.431c-.107 14.6 2.84 29.326 2.84 29.326z"/></g><g><path fill="#f58c6c" d="M107.708 408.525v16.984c1.396 1.937 5.813 3.354 11.05 3.354 6.07 0 11.04-1.903 11.477-4.316v-16.022z"/></g><g><path fill="#f9beaa" d="M123.376 421.205a.313.313 0 0 1-.422-.025c-.434-.448-1.55-1.402-3.147-1.36-1.349.037-2.296.75-2.738 1.167a.315.315 0 0 1-.429.005.315.315 0 0 1-.009-.463c.51-.48 1.602-1.3 3.159-1.342 1.847-.057 3.098 1.003 3.618 1.548.129.136.116.35-.03.468z"/></g><g><path fill="#fff" d="M107.708 415.041c.146.731.18 3.042 3.524 6.884 4.554 5.232 7.756 6.036 8.002 6.938 0 0-14.906 15.92-16.629 15.025-.418-.217-.826-1.863-1.376-6.757-.572-5.089-2.408-17.176-.969-19.065 1.068-1.403 7.123-4.646 7.448-3.025z"/></g><g><path fill="#fff" d="M130.236 415.041c-.147.731-.18 3.042-3.525 6.884-4.553 5.232-7.74 6.51-8.043 6.884 0 0 14.948 15.974 16.67 15.079.418-.217.826-1.863 1.376-6.757.572-5.089 2.408-17.176.97-19.065-1.068-1.403-7.124-4.646-7.448-3.025z"/></g><g><path fill="#e5e5e5" d="M108.27 417.313c-.444-1.148-.49-1.907-.562-2.272-.325-1.621-6.38 1.622-7.448 3.025-.54.71-.618 2.856-.476 5.531a91.98 91.98 0 0 1 6.236-4.767 90.259 90.259 0 0 1 2.25-1.517z"/></g><g><path fill="#e5e5e5" d="M137.683 418.066c-1.067-1.403-7.123-4.646-7.447-3.025-.068.338-.112 1.015-.47 2.023.87.564 1.745 1.149 2.629 1.766a91.853 91.853 0 0 1 5.782 4.393c.115-2.498.02-4.482-.494-5.157z"/></g><g><path fill="#fff" d="M119.03 428.546c-.19.12-.313.203-.362.263l.308.328.258-.274a.767.767 0 0 0-.203-.317z"/></g><g><path fill="#f96" d="M118.651 437.764a1.334 1.334 0 1 1-2.668 0 1.334 1.334 0 0 1 2.668 0z"/></g><g><path fill="#f96" d="M116.396 458.78v.384c-.005.25-.004.62-.017 1.086-.018.935-.06 2.27-.132 3.867a218.842 218.842 0 0 1-.326 5.449c-.071.994-.15 2.022-.238 3.066-.086 1.043-.184 2.102-.28 3.161-.104 1.058-.205 2.117-.317 3.157a228.42 228.42 0 0 1-.34 3.053c-.233 1.98-.474 3.823-.701 5.4a153.62 153.62 0 0 1-.595 3.808c-.075.46-.145.818-.188 1.064l-.07.376v-.385c.004-.25.003-.619.016-1.085.018-.936.059-2.27.131-3.867a232.409 232.409 0 0 1 .565-8.515c.085-1.044.184-2.103.281-3.161.104-1.059.206-2.117.318-3.157.109-1.04.224-2.064.341-3.053.232-1.979.474-3.823.7-5.401.229-1.577.437-2.89.594-3.807.075-.46.145-.82.188-1.065l.07-.376z"/></g><g><path fill="#ffb288" d="M91.769 401.29c-1.199-1.13-3.79-3.577-6.404-2.882-2.07.551-3.079 2.788-3.842 4.483-.507 1.124-1.968 4.51-.641 8.485.357 1.07 1.353 3.487 3.842 5.283.912.657 2.93 2.112 5.764 1.921.253-.017 3.786-.306 5.603-2.882 2.89-4.097-.686-10.976-4.322-14.408z"/></g><g><path fill="#f58c6c" d="M92.089 406.893c-1.241-1.98-3.855-6.154-5.764-5.603-1.867.54-1.92 5.272-1.92 5.763-.004 1.1.016 3.043 1.28 4.963.527.8 1.614 2.453 3.682 2.882 1.68.348 3.982-.117 4.803-1.601.905-1.637-.417-3.746-2.081-6.404z"/></g><g><path fill="#ffb288" d="M144.981 401.29c1.198-1.13 3.79-3.577 6.404-2.882 2.07.551 3.079 2.788 3.842 4.483.507 1.124 1.968 4.51.64 8.485-.357 1.07-1.352 3.487-3.842 5.283-.911.657-2.929 2.112-5.763 1.921-.253-.017-3.787-.306-5.603-2.882-2.89-4.097.686-10.976 4.322-14.408z"/></g><g><path fill="#f58c6c" d="M144.66 406.893c1.242-1.98 3.856-6.154 5.764-5.603 1.867.54 1.92 5.272 1.921 5.763.004 1.1-.016 3.043-1.28 4.963-.527.8-1.615 2.453-3.682 2.882-1.68.348-3.983-.117-4.803-1.601-.905-1.637.416-3.746 2.08-6.404z"/></g><g><path fill="#f58c6c" d="M141.557 361.605c-4.664-4.464-10.567-4.934-16.97-5.443-3.767-.3-8.689-.691-14.728 1.28-2.471.808-8.884 2.995-14.088 9.286-1.246 1.506-4.347 5.573-5.764 11.527-.457 1.921-.524 4.936-.64 10.886-.131 6.748-.197 10.122 0 13.448.403 6.81.605 10.213 1.921 14.088.928 2.73 3.641 10.364 11.207 15.37 3.892 2.573 7.539 3.441 9.285 3.841 2.089.478 7.192 1.583 13.448 0 7.332-1.855 11.748-6.263 13.447-8.005 5.17-5.295 6.935-10.981 7.365-12.487.875-3.063.903-6.418.96-13.127.062-7.229 1.871-7.728 1.935-13.445.12-10.716-.56-11.545-1.935-16.973-.557-2.202-1.683-6.647-5.443-10.246z"/></g><g><path fill="#ffb288" d="M141.557 361.391c-4.664-4.297-10.567-4.748-16.97-5.238-3.767-.289-8.689-.665-14.728 1.232-2.471.777-8.884 2.882-14.088 8.936-1.246 1.45-4.347 5.363-5.764 11.092-.457 1.85-.524 4.75-.64 10.477-.131 6.493-.197 9.74 0 12.94.403 6.553.605 9.83 1.921 13.558.928 2.628 3.641 9.973 11.207 14.79 3.892 2.477 7.539 3.313 9.285 3.697 2.089.46 7.192 1.524 13.448 0 7.332-1.785 11.748-6.027 13.447-7.703 5.17-5.096 6.935-10.568 7.365-12.017.875-2.947.903-6.176.96-12.633.062-6.955 1.871-7.436 1.935-12.938.12-10.312-.56-11.11-1.935-16.333-.557-2.12-1.683-6.397-5.443-9.86z"/></g><g><path fill="#f48f6d" d="M114.822 400.883c-.603.357-1.843 1.09-1.921 2.242-.068 1 2.401 4.98 5.421 4.98 2.263 0 4.648-1.576 5.305-3.7.497-1.607-.746-3.136-.8-3.201-1.834-2.19-5.77-1.64-8.005-.32z"/></g><g><path fill="#16255b" d="M95.361 387.669c.41.219 1.398-2.512 4.314-4.036 2.272-1.187 4.565-1.04 5.428-.974 4.623.352 6.424 3.42 7.933 2.505 1.363-.828 1.461-4.285-.14-5.846-.563-.549-1.231-.76-2.504-.974-4.228-.71-7.086-1.19-9.882.557-1.699 1.062-2.596 2.46-3.34 3.618-1.493 2.327-2.202 4.94-1.809 5.15z"/></g><g><path fill="#16255b" d="M131.631 355.522c.488.31 2.387-1.804 3.522-3.362 1.541-2.114 2.737-3.755 2.402-5.764-.3-1.8-1.669-2.92-2.402-3.521-1.625-1.333-3.455-1.773-4.822-1.901-.068.04-.12.085-.14.14-.227.634 3.214 1.554 3.842 4.322.276 1.219-.016 2.693-.64 2.881a.533.533 0 0 1-.355-.027c.103.338.166.668.194.988.254 2.894-2.17 5.882-1.6 6.244z"/></g><g><path fill="#16255b" d="M105.376 357.123c-5.514-.143-9.786 1.84-11.206 2.56-4.19 2.127-4.534 3.91-7.044 4.324-2.071.341-5.006-.35-9.048-4.45-.113.014-.195.053-.237.127-.114.2.113.547.633 1.16 1.503 1.775 2.413 2.849 4.01 3.483 2.094.832 3.003-.034 3.521.64 1.232 1.604-4.469 5.779-3.522 10.406.406 1.985 1.562 1.737 2.562 4.643.89 2.588.126 3.227.64 7.204.522 4.038 2.708 19.745 3.558 19.23.913-.551 1.635-2.697 1.245-7.863-.157-2.08-.159-3.563-.16-5.443-.002-2.042.016-6.561 1.12-12.008.852-4.202 1.278-6.304 2.722-8.805.755-1.307 2.839-4.813 7.204-7.204 1.093-.598 5.62-3.078 10.886-2.081 3.18.602 3.27 1.835 5.998 2.073-.157-1.15-.533-2.452-1.355-3.674-2.755-4.096-8.46-4.243-11.527-4.322z"/></g><g><path fill="#f95b30" d="M147.48 355.201c-.918.007-1.875.524-2.4 0-.501-.498-.01-1.449 0-2.401.11-12.122-14.076-12.228-14.75-11.826 1.368.127 3.198.568 4.823 1.9.733.6 2.101 1.722 2.402 3.522.335 2.009-.86 3.65-2.402 5.764-1.135 1.558-3.034 3.672-3.522 3.362-.568-.362 1.855-3.35 1.602-6.244a4.846 4.846 0 0 0-.195-.988c-.676-.262-1.472-1.638-2.367-2.694-3.331-3.93-8.975-4.478-12.327-4.803-5.045-.489-8.914.703-10.726 1.281-1.866.595-8.922 2.94-14.409 9.285-1.917 2.217-3.753 5.05-7.204 7.044-1.433.828-3.052 1.763-5.123 1.601-1.162-.09-2.3-.514-2.804-.448 4.041 4.101 6.977 4.792 9.048 4.45 2.51-.414 2.854-2.196 7.044-4.322 1.42-.72 5.692-2.704 11.206-2.561 3.067.079 8.772.226 11.527 4.322.822 1.222 1.198 2.524 1.355 3.674l.086.008c4.202.327 5.348-1.952 9.125-2.561 18.04-2.909 19.847 18.703 20.091 24.595.094 2.266-.12 6.366-.578 11.421-.398 4.38-1.624 10.451-.074 9.813 1.326-.546 1.074-.246 1.326-.546 1.513-1.807 4.09-22.331 4.33-25.098 1.034-11.888-1.938-18.36-2.362-19.225-.86-1.757-1.798-3.004-1.44-3.362.286-.286 1.204.192 1.76.48 2.096 1.09 2.871 2.508 3.042 2.402.381-.236-2.531-7.869-6.083-7.845z"/></g><g><path fill="#1c2f82" d="M95.361 386.555c.41.22 1.398-2.512 4.314-4.036 2.272-1.187 4.565-1.04 5.428-.974 4.623.353 6.424 3.421 7.933 2.505 1.363-.828 1.461-4.285-.14-5.845-.563-.55-1.231-.76-2.504-.975-4.228-.71-7.086-1.19-9.882.557-1.699 1.062-2.596 2.46-3.34 3.619-1.493 2.327-2.202 4.94-1.809 5.15z"/></g><g><path fill="#16255b" d="M142.542 387.669c-.411.219-1.399-2.512-4.315-4.036-2.272-1.187-4.565-1.04-5.428-.974-4.622.352-6.423 3.42-7.932 2.505-1.364-.828-1.462-4.285.139-5.846.563-.549 1.231-.76 2.505-.974 4.227-.71 7.085-1.19 9.881.557 1.7 1.062 2.596 2.46 3.34 3.618 1.494 2.327 2.202 4.94 1.81 5.15z"/></g><g><path fill="#1c2f82" d="M142.542 386.555c-.411.22-1.399-2.512-4.315-4.036-2.272-1.187-4.565-1.04-5.428-.974-4.622.353-6.423 3.421-7.932 2.505-1.364-.828-1.462-4.285.139-5.845.563-.55 1.231-.76 2.505-.975 4.227-.71 7.085-1.19 9.881.557 1.7 1.062 2.596 2.46 3.34 3.619 1.494 2.327 2.202 4.94 1.81 5.15z"/></g><g><g><path fill="#aa1d17" d="M119.095 418.004l-.24-.002c-8.155-.1-12.403-5.294-12.58-5.515l1.18-.945c.16.198 3.97 4.856 11.419 4.947l.216.001c7.6 0 11.605-4.898 11.644-4.948l1.182.945c-.181.227-4.508 5.517-12.821 5.517z"/></g></g><g><path fill="#f58c6c" d="M96.458 505.177c1.7-.232 6.063-.486 14.79-.993 4.146-.242 5.44-.29 7.307.137 3.952.906 6.284 2.987 9.758 5.86 10.747 8.889 13.815 9.975 13.323 11.304-.792 2.139-9.82 2.235-17.154-.623-3.58-1.394-5.565-3.028-9.682-3.263-3.775-.216-6.278.919-8.174 1.467-10.973 3.173-26.018-6.253-25.362-9.933.343-1.926 5.293-2.603 15.194-3.956z"/></g><g><path fill="#ed7e64" d="M137.852 517.666c-2.362.491-4.286.504-5.67.407-5.709-.402-6.802-2.956-13.7-3.814-3.948-.49-4.846.19-7.856-.859-1.601-.557-4.96-1.728-6.883-4.82-.778-1.25-1.17-2.577-1.316-3.873-3.103.194-4.984.336-5.969.47-9.9 1.353-14.851 2.03-15.194 3.956-.656 3.68 14.39 13.106 25.362 9.933 1.896-.548 4.4-1.683 8.174-1.467 4.117.235 6.103 1.87 9.682 3.264 7.334 2.857 16.362 2.76 17.154.622.293-.792-.679-1.498-3.784-3.819z"/></g><g><path fill="#ffb288" d="M145.142 502.378c-1.512-.81-5.512-2.572-13.512-6.095-3.801-1.673-4.996-2.17-6.896-2.422-4.019-.53-6.93.605-11.19 2.086-13.173 4.578-16.427 4.524-16.43 5.941-.005 2.28 8.421 5.522 16.292 5.405 3.84-.057 6.272-.895 10.212.322 3.613 1.115 5.562 3.053 7.147 4.229 9.175 6.804 26.564 3.222 27.235-.455.35-1.925-4.052-4.287-12.858-9.011z"/></g><g><path fill="#f58c6c" d="M101.993 499.63c2.042 1.285 3.84 1.969 5.171 2.36 5.49 1.617 7.406-.395 14.17 1.21 3.87.918 4.474 1.87 7.661 1.938 1.695.036 5.252.112 8.133-2.115 1.165-.9 1.995-2.006 2.585-3.17 2.84 1.265 4.553 2.055 5.429 2.525 8.806 4.724 13.208 7.086 12.858 9.01-.67 3.678-18.06 7.26-27.235.456-1.585-1.176-3.534-3.114-7.147-4.23-3.94-1.216-6.371-.378-10.212-.32-7.87.117-16.297-3.125-16.292-5.406.002-.844 1.159-1.167 4.879-2.257z"/></g><g><path fill="#e5e5e5" d="M86.137 506.986c-.018-15.226-.961-33.122-2.076-41.638-.342-2.616-.612-4.151-1.709-4.64-.58-.258-15.717 14.516-25.096 30.55 9.388-10.436 21.89-24.048 23.083-23.893 1.704 33.1.408 63.899.333 64.691.888.984 2.639 10.488 4.711 11.472.091-1.403.189-2.893.266-5.04.35-9.843.498-22.622.488-31.502z"/></g><g><path fill="#fff" d="M100.432 500.095c-1.09-2.117-69.385-17.003-76.324-1.815-2.115 4.63-2.155 12.466 1.563 17.007 3.693 4.51 10.048 4.47 13.21 4.492 36.41.249 54.543 5.816 59.26.915 4.678-4.86 5.494-14.38 2.29-20.6z"/><path fill="none" stroke="#e5e5e5" stroke-miterlimit="50" d="M100.432 500.095c-1.09-2.117-69.385-17.003-76.324-1.815-2.115 4.63-2.155 12.466 1.563 17.007 3.693 4.51 10.048 4.47 13.21 4.492 36.41.249 54.543 5.816 59.26.915 4.678-4.86 5.494-14.38 2.29-20.6z"/></g><g><path fill="#e5e5e5" d="M85.072 518.31c-16.383-1.33-15.496-1.699-21.979-1.823-7.491-.143-14.977-1.023-22.466-.78-.967.03-3.381.124-6.35-.782-.738-.225-4.193-1.33-7.326-4.165-1.914-1.732-3.288-3.732-4.28-5.706-.093 3.665.789 7.532 3 10.233 3.693 4.511 10.048 4.47 13.21 4.492 36.41.249 54.543 5.816 59.26.915a12.13 12.13 0 0 0 1.111-1.344 921.368 921.368 0 0 1-14.18-1.04z"/></g><g><path fill="#fff" d="M54.058 493.316c-.075 1.404 6.295 2.97 9.036 3.645 5.204 1.28 20.816 3.154 30.037 4.947 2.43.472 5.333 1.07 8.637 1.816a16.63 16.63 0 0 0-1.336-3.629c-.624-1.21-23.222-6.596-43.757-8.146-1.994.472-2.595.949-2.617 1.367z"/></g><g><path fill="#e5e5e5" d="M56.893 491.776s4.61.622 4.375.577c-.23-.04-6.71.038-11.082 2.335-.4.2-.724.392-.95.53l-.351.223.258-.33a13 13 0 0 1 3.448-3c.28-.165.56-.322.866-.47.141-.068 4.97-2.3 4.97-2.3z"/></g><g><path fill="#e5e5e5" d="M152.135 506.986c.018-15.226.961-33.122 2.076-41.638.342-2.616.612-4.151 1.71-4.64.58-.258 15.716 14.516 25.095 30.55-9.388-10.436-21.89-24.048-23.083-23.893-1.704 33.1-.137 62.76-.062 63.553-.888.984-5.274 6.562-5.35 4.416-.351-9.844-.396-19.468-.386-28.348z"/></g><g><path fill="#fff" d="M137.84 500.095c1.09-2.117 69.385-17.003 76.324-1.815 2.115 4.63 2.155 12.466-1.563 17.007-3.693 4.51-10.048 4.47-13.21 4.492-36.41.249-54.543 5.816-59.26.915-4.678-4.86-5.494-14.38-2.29-20.6z"/><path fill="none" stroke="#e5e5e5" stroke-miterlimit="50" d="M137.84 500.095c1.09-2.117 69.385-17.003 76.324-1.815 2.115 4.63 2.155 12.466-1.563 17.007-3.693 4.51-10.048 4.47-13.21 4.492-36.41.249-54.543 5.816-59.26.915-4.678-4.86-5.494-14.38-2.29-20.6z"/></g><g><path fill="#e5e5e5" d="M153.2 518.31c16.383-1.33 15.496-1.699 21.979-1.823 7.491-.143 14.977-1.023 22.466-.78.968.03 3.381.124 6.35-.782.738-.225 4.193-1.33 7.326-4.165 1.914-1.732 3.288-3.732 4.28-5.706.093 3.665-.789 7.532-3 10.233-3.693 4.511-10.048 4.47-13.21 4.492-36.41.249-54.543 5.816-59.26.915a12.134 12.134 0 0 1-1.111-1.344c5.334-.35 10.094-.708 14.18-1.04z"/></g><g><path fill="#e5e5e5" d="M181.379 491.776s-4.61.622-4.375.577c.23-.04 6.71.038 11.082 2.335.4.2.724.392.95.53l.351.223-.258-.33a13.054 13.054 0 0 0-3.448-3 11.68 11.68 0 0 0-.866-.47c-.141-.068-4.97-2.3-4.97-2.3z"/></g><g><path fill="#1b1b28" d="M103.612 393.25c-.402-2.64.465-4.963 1.936-5.187 1.47-.223 2.989 1.737 3.39 4.378.401 2.64-.465 4.963-1.936 5.186-1.471.224-2.989-1.736-3.39-4.377z"/></g><g><path fill="#1b1b28" d="M129.865 397.627c-1.47-.223-2.338-2.545-1.936-5.186.401-2.641 1.919-4.6 3.39-4.377 1.47.223 2.337 2.545 1.936 5.186-.402 2.641-1.92 4.601-3.39 4.377z"/></g><g><path fill="#cc411c" d="M0 520.373h269.149v17.358H-.001z"/></g><g><path fill="#efede4" d="M268.863 534.404c-50.22 2.373-100.247 2.217-167.405 3.327h167.405z"/></g><g><path fill="#f95b30" d="M0 584.316v-46.585h269.149v46.585z"/></g><g><g><path fill="#323247" d="M49.865 512.578v-7.794h11.317v7.794z"/></g><g><path fill="#323247" d="M176.804 513.185v-7.794h11.317v7.794z"/></g><g><g><path fill="#262533" d="M190.853 509.84H48.135a6.15 6.15 0 0 1-6.145-5.927l-3.156-86.939a6.15 6.15 0 0 1 6.145-6.372h149.03a6.15 6.15 0 0 1 6.145 6.372l-3.156 86.94a6.15 6.15 0 0 1-6.145 5.925z"/></g><g><path fill="#5a597a" d="M190.853 509.84H48.135a6.15 6.15 0 0 1-6.145-5.927l-3.156-86.939a6.15 6.15 0 0 1 6.145-6.372h149.03a6.15 6.15 0 0 1 6.145 6.372l-3.156 86.94a6.15 6.15 0 0 1-6.145 5.925z"/></g><g><path fill="#323247" d="M194.009 410.602h-9.825c.012 3.99-.114 8.578-.501 13.631-.993 12.954-1.797 23.458-7.2 35.725-5.922 13.444-14.155 21.72-16.617 24.095-1.91 1.842-10.818 10.233-25.479 16.062-9.635 3.831-17.627 4.915-22.71 5.54-21.825 2.683-45.52 3.744-61.07 4.184h140.245a6.15 6.15 0 0 0 6.146-5.926l3.156-86.939a6.15 6.15 0 0 0-6.145-6.372z"/></g><g><path fill="#7272af" d="M38.97 420.707a6.15 6.15 0 0 1 6.009-4.844h149.03a6.151 6.151 0 0 1 6.01 4.844l.135-3.733a6.15 6.15 0 0 0-6.145-6.372H44.979a6.15 6.15 0 0 0-6.145 6.372z"/></g><g><path fill="#31314f" d="M110.575 457.525c0-1 1-2 2-2h13.837c1 0 2 1 2 2v11.512c0 1-1 2-2 2h-13.837c-1 0-2-1-2-2z"/></g><g><path fill="#323247" d="M125.617 455.525l-.923 8.496c0 1.543-2.703 3.415-4.246 3.415l-9.872.806a2.795 2.795 0 0 0 2.794 2.795h12.247a2.795 2.795 0 0 0 2.795-2.795v-9.922a2.795 2.795 0 0 0-2.795-2.795z"/></g><g><path fill="#5a597a" d="M195.77 520.148H43.217a4.616 4.616 0 0 1 0-9.232H195.77a4.616 4.616 0 0 1 0 9.232z"/></g><g><path fill="#323247" d="M195.77 510.916h-2.379a4.616 4.616 0 0 1-4.53 5.493H38.688a4.615 4.615 0 0 0 4.53 3.739H195.77a4.616 4.616 0 0 0 0-9.231z"/></g><g><path fill="#7272af" d="M52.892 514.655H47.58a1.042 1.042 0 0 1-1.038-1.038c0-.571.467-1.039 1.038-1.039h5.312c.571 0 1.039.468 1.039 1.039s-.468 1.038-1.039 1.038z"/></g><g><path fill="#7272af" d="M99.285 514.655H57.859a1.041 1.041 0 0 1-1.039-1.038c0-.571.467-1.039 1.039-1.039h41.426c.57 0 1.038.468 1.038 1.039s-.467 1.038-1.038 1.038z"/></g><g><path fill="#7272af" d="M111.955 466.467c-.399-.091-.5-2.677.554-4.985 1.076-2.354 2.94-3.51 3.6-3.877 1.776-.989 3.872-1.312 4.016-.97.166.398-2.535 1.14-4.847 3.74-2.628 2.955-2.872 6.197-3.323 6.092z"/></g><g><path fill="#323247" d="M44.843 453.497c-.414-.02-1.82-24.106 0-27.51 1.509-2.824 4.009-4.28 4.615-4.615 3.03-1.676 33.592-2.693 33.603-2.031.012.753-20.36 3.447-29.356 7.754-1.224.586-3.366 1.742-4.8 4.062-1.518 2.453-3.617 22.362-4.062 22.34z"/></g></g></g><g><g><g/><g clip-path="url(#snv7a)"><g><path fill="none" stroke="#fffdee" stroke-miterlimit="50" stroke-width=".25" d="M-2.6 452.5c-3.122 31.778.564 63.77 2.4 95.648a825.41 825.41 0 0 1-2.395 126.12c1.106.146 2.27-.508 2.718-1.529"/></g><g><path fill="none" stroke="#fffdee" stroke-miterlimit="50" stroke-width=".25" d="M13.423 453.092a2717.056 2717.056 0 0 0 15.025 222.19c.082.758 1.385.918 1.649.203.264-.715-.83-1.44-1.386-.917"/></g><g><path fill="none" stroke="#fffdee" stroke-miterlimit="50" stroke-width=".25" d="M36.407 451.906c-3 24.7-1.34 49.696.121 74.534a4562.122 4562.122 0 0 1 6.238 145.73c.023.867.248 1.982 1.106 2.117.858.135.551-1.758-.01-1.096"/></g><g><path fill="none" stroke="#fffdee" stroke-miterlimit="50" stroke-width=".25" d="M52.142 453.207c1.834 14.959 3.67 29.95 3.942 45.017.298 16.534-1.29 33.046-1.4 49.582-.092 13.992.873 27.97 2.051 41.914a1363.122 1363.122 0 0 0 9.5 82.394"/></g><g><path fill="none" stroke="#fffdee" stroke-miterlimit="50" stroke-width=".25" d="M74.494 452.389c-7.042 30.268-1.959 61.826-.77 92.88.68 17.763.078 35.662 2.98 53.2 3.73 22.54 13.221 45.033 8.847 67.457"/></g><g><path fill="none" stroke="#fffdee" stroke-miterlimit="50" stroke-width=".25" d="M89.303 451.853c11.603 50.674.515 103.718 4.94 155.515 1.857 21.734 6.438 43.13 11.01 64.458"/></g><g><path fill="none" stroke="#fffdee" stroke-miterlimit="50" stroke-width=".25" d="M115.092 453.338v0l.637 91.535c.135 19.373.274 38.808 2.865 58.008 2.917 21.615 8.943 43.077 7.573 64.845-.049.775-.07 1.656.483 2.2.553.546 1.81.14 1.605-.608"/></g><g><path fill="none" stroke="#fffdee" stroke-miterlimit="50" stroke-width=".25" d="M134.918 451.945c-1.49 12.72 2.333 25.37 4.71 37.955 6.982 36.952 1.548 74.954.994 112.557-.351 23.837 1.273 47.677 4.078 71.351"/></g><g><path fill="none" stroke="#fffdee" stroke-miterlimit="50" stroke-width=".25" d="M154.396 455.476v0l5.626 62.28c2.059 22.792 4.117 45.746 1.897 68.522-1.455 14.92-4.721 30.133-1.19 44.7 1.284 5.303 3.44 10.35 5.05 15.563 1.866 6.045 2.99 12.302 3.684 18.591.071.648.2 1.395.768 1.715.569.32 1.462-.447.998-.905"/></g><g><path fill="none" stroke="#fffdee" stroke-miterlimit="50" stroke-width=".25" d="M175.578 450.224c1.809 76.262 4.302 152.507 7.478 228.724"/></g><g><path fill="none" stroke="#fffdee" stroke-miterlimit="50" stroke-width=".25" d="M191.992 451.742c3.279 72.885-.722 146.193 7.93 218.637"/></g><g><path fill="none" stroke="#fffdee" stroke-miterlimit="50" stroke-width=".25" d="M207.107 448.817a803.399 803.399 0 0 1 7.48 148.35c-1.09 25.736 4.98 51.737 17.35 74.33.436.795-1.1-.21-.621-.98"/></g><g><path fill="none" stroke="#fffdee" stroke-miterlimit="50" stroke-width=".25" d="M229.82 450.212c.503 34.739 1.012 69.567 5.442 104.026 3.077 23.935 8.034 47.594 11.241 71.51a493.898 493.898 0 0 1 3.97 45.495c.309 7.57.435 15.237-1.234 22.627"/></g><g><path fill="none" stroke="#fffdee" stroke-miterlimit="50" stroke-width=".25" d="M244.634 451.288c-.076 7.724 1.088 15.4 2.216 23.041 10.513 71.233 18.117 142.939 21.029 214.884"/></g><g><path fill="none" stroke="#fffdee" stroke-miterlimit="50" stroke-width=".25" d="M268.27 450.735c-3.687 76.45 9.316 152.87 7.371 229.383"/></g><g><path fill="none" stroke="#fffdee" stroke-miterlimit="50" stroke-width=".25" d="M-23.669 479.643c75.476 8.88 151.785 3.823 227.754 1.811 10.019-.265 20.077-.475 30.034.668 16.423 1.885 32.304 7.423 48.782 8.731"/></g><g><path fill="none" stroke="#fffdee" stroke-miterlimit="50" stroke-width=".25" d="M-27.179 502.594c51.706-1.287 103.493-2.574 155.108.744 54.207 3.485 108.102 12.042 162.417 12.673"/></g><g><path fill="none" stroke="#fffdee" stroke-miterlimit="50" stroke-width=".25" d="M-26.638 534.765c26.51-1.449 53.043-2.898 79.59-2.59 67.93.786 135.605 13.065 203.451 9.607 11.098-.566 22.791-1.771 31.794-8.285"/></g><g><path fill="none" stroke="#fffdee" stroke-miterlimit="50" stroke-width=".25" d="M-9.407 552.743v0l97.497 4.673c26.172 1.254 52.387 2.509 78.565 1.396 13.704-.583 27.384-1.814 41.1-1.955 28.51-.292 56.936 4.13 85.438 3.395"/></g><g><path fill="none" stroke="#fffdee" stroke-miterlimit="50" stroke-width=".25" d="M-27.48 573.699c36.256 10.933 74.912 10.834 112.663 7.858 37.751-2.977 75.351-8.738 113.22-8.802 37.11-.064 73.989 5.343 110.706 10.738"/></g><g><path fill="none" stroke="#fffdee" stroke-miterlimit="50" stroke-width=".25" d="M-29.608 603.674c61.94 11.989 125.657.858 188.674-2.158a730.894 730.894 0 0 1 154.118 8.961"/></g><g><path fill="none" stroke="#fffdee" stroke-miterlimit="50" stroke-width=".25" d="M-48.586 633.907c27.756 9.1 57.83 5.062 86.945 2.708 38.155-3.085 76.485-3.099 114.765-3.11l71.983-.023c29.943-.009 60.54.086 88.843 9.864"/></g></g></g></g><g><g><path fill="#fffdee" d="M179.267 305.6a1.492 1.492 0 0 1-2.417-1.39l5.31-33.109 26.473-1.42-3.426-45.254 30.341 8.94a1.493 1.493 0 0 1 1.011 1.851 1.485 1.485 0 0 1-1.852 1.007l-26.2-7.715 3.331 43.984-27.114 1.457-4.927 30.732a1.49 1.49 0 0 1-.53.918z"/></g></g><g><path fill="#3070b7" d="M71.926 72.442c-.947 0-1.717.767-1.717 1.717v10.813c0 2.348-1.939 4.24-4.286 4.21-.526-.01-11.455.075-11.846.067-8.354-.182-12.397-6.699-12.576-6.995a1.72 1.72 0 0 0-2.351-.596 1.719 1.719 0 0 0-.599 2.355c.205.345 5.138 8.446 15.452 8.67 1.541.033 14.627-.036 17.919-.022h.008c3.432.015 7.597.022 12.062.022 17.34 0 42.103.006 42.431.004a1.716 1.716 0 0 0-.006-3.434h-.009c-.194 0-17.72-.06-27.568-.034a4.21 4.21 0 0 1-4.223-4.207V74.165a1.717 1.717 0 0 0-3.433 0v10.87a4.21 4.21 0 0 1-4.204 4.21c-5.556.008-4.29.006-9.146 0a4.202 4.202 0 0 1-4.191-4.212V74.159c0-.95-.768-1.717-1.717-1.717z"/></g><g><path fill="#3070b7" d="M82.37 29.248v-12.72c0-2.03.758-4.009 2.197-5.442.015-.013.028-.028.04-.04 1.51-1.531 3.536-2.438 5.684-2.438l39.092-.055c1.14 0 2.064-.924 2.064-2.064a2.062 2.062 0 0 0-2.064-2.063l-39.213.052c-2.177 0-4.245-.847-5.882-2.285a6.063 6.063 0 0 0-3.9-1.514 6.047 6.047 0 0 0-4.231 1.6c-1.571 1.443-3.652 2.2-5.785 2.2L31.174 4.23c-1.14 0-2.063.922-2.063 2.064 0 1.137.924 2.063 2.063 2.063l39.073.25c2.153 0 4.178.913 5.69 2.444a.392.392 0 0 1 .04.04c1.438 1.427 2.19 3.408 2.19 5.436v12.72z"/></g><g><path fill="#1c2f82" d="M176.13 29.59l-5.976 8.532a2.315 2.315 0 0 1-1.897.987l-42.293.137c-3.26 0-6.152-1.828-7.865-4.6-6.195-10.02-21.198-15.031-37.83-15.031-21.82 0-40.777 20.6-40.777 37.016 0 16.375 2.584 18.574 42.107 18.574 24.25 0 34.134-.57 37.713-11.959 1.212-3.852 4.646-6.571 8.684-6.571l37.849-.135c.755 0 1.463.367 1.897.987l3.5 5a2.32 2.32 0 0 0 1.897.988h3.622c1.874 0 2.973-2.11 1.897-3.645l-6.299-8.997a2.315 2.315 0 0 1 0-2.655l11.185-15.972c1.074-1.535-.023-3.645-1.898-3.645h-3.62c-.757 0-1.466.37-1.897.99z"/></g><g><path fill="#3070b7" d="M75.184 27.045h-17.84c-10.845 7.48-18.14 19.357-18.14 29.597 0 4.535.138 7.968 1.263 10.583h23.467a8.031 8.031 0 0 0 7.277-4.634L82.46 38.466c2.482-5.322-1.404-11.421-7.276-11.421z"/></g><g><path fill="#1c2f82" d="M69.74 32.948H57.21c-7.776 5.282-13.064 13.663-13.064 20.894 0 3.201.141 5.635.95 7.48h16.577c2.238 0 4.274-1.277 5.219-3.273l8.066-17.035c1.78-3.76-1.007-8.066-5.218-8.066z"/></g><g><path fill="#fffeee" d="M97.696 31.108L82.864 62.917c-.996 2.135.562 4.584 2.92 4.584a3.22 3.22 0 0 0 2.92-1.861l14.831-31.808c.998-2.136-.562-4.584-2.92-4.584a3.22 3.22 0 0 0-2.92 1.86z"/></g><g><path fill="#1c2f82" d="M96.881 35.308l-11.163 23.81c-.75 1.598.152 3.539 1.687 3.634.816.048 1.594-.463 1.992-1.311l11.163-23.81c.751-1.6-.152-3.54-1.687-3.634-.818-.049-1.594.46-1.992 1.31z"/></g><g><path fill="#23399b" d="M75.937 6.38a4.338 4.338 0 0 0 4.34 4.338 4.342 4.342 0 0 0 0-8.681 4.342 4.342 0 0 0-4.34 4.342z"/></g><g><path fill="#fffeee" d="M155.542 48.374a3.07 3.07 0 1 0 6.14 0 3.07 3.07 0 0 0-6.14 0z"/></g><g><path fill="#fffeee" d="M141.96 48.374a3.07 3.07 0 1 0 6.139.001 3.07 3.07 0 0 0-6.14-.001z"/></g><g><path fill="#fffeee" d="M128.377 48.374a3.07 3.07 0 1 0 6.14 0 3.07 3.07 0 0 0-6.14 0z"/></g><g><g><path fill="#f95b30" d="M138.831 287.743l-10.508-15.382 22.962-15.687 10.509 15.383z"/></g><g><path fill="#1c2f82" d="M153.962 309.893l-9.616-14.077 22.963-15.687 9.616 14.077z"/></g><g><g><path fill="#f4f4f4" d="M137.942 277.966a.5.5 0 0 1-.045.027c-.483.26-1.106-.415-2.167-1.63-.443-.507-1.163-1.332-1.454-1.455-.037.173-.033.816.745 3.094l-.504.173c-.972-2.843-.917-3.549-.502-3.765.47-.247 1.049.38 2.116 1.602.46.526 1.211 1.387 1.504 1.492.082-.304-.207-1.42-.401-2.172-.437-1.688-.675-2.738-.14-3.025.416-.223.888.218 1.434.728.34.318.91.85 1.114.762.3-.13.132-1.55.031-2.397-.172-1.447-.321-2.694.34-3.022.71-.35 1.713.632 3.162 2.172.449.478 1.04 1.106 1.338 1.304-.045-.388-.393-1.31-.613-1.892-.576-1.526-.814-2.205-.419-2.45.364-.22.768.214 1.503 1.003.45.482 1.384 1.485 1.655 1.361.229-.107.154-1.206.113-1.797-.07-1-.126-1.79.36-1.961.438-.155.839.361 1.303.959.225.29.644.83.803.835.17-.132.15-1.267.14-1.878-.02-1.271-.036-2.277.54-2.462.46-.15.858.346 1.317.92.33.413.783.977 1.043.919.082-.02.499-.216.651-2.282l.532.038c-.13 1.751-.467 2.628-1.066 2.763-.585.132-1.088-.497-1.575-1.104-.21-.262-.6-.75-.742-.747-.186.127-.177 1.309-.166 1.947.02 1.24.036 2.22-.522 2.396-.47.15-.91-.418-1.376-1.018-.205-.264-.538-.693-.7-.77-.095.199-.043.95-.01 1.409.073 1.058.145 2.06-.423 2.318-.62.284-1.42-.574-2.267-1.483-.242-.26-.549-.59-.756-.766.08.39.36 1.133.56 1.662.595 1.576.865 2.351.45 2.612-.404.261-.924-.262-2.061-1.47-.744-.79-2.129-2.262-2.538-2.06-.317.16-.157 1.556-.047 2.48.17 1.428.315 2.66-.347 2.95-.524.227-1.117-.326-1.69-.86-.25-.234-.66-.617-.82-.642-.152.263.196 1.606.405 2.415.414 1.604.616 2.478.192 2.767z"/></g></g><g><g><path fill="#f4f4f4" d="M146.573 278.935c-.368.252-.934-.176-1.97-1.005-.486-.39-1.283-1.028-1.567-1.072-.011.176.142.634.247.947.267.796.542 1.618.086 2.026-.4.359-1.028.091-1.69-.191-.612-.262-1.304-.558-1.689-.296l-.003.002c-.25.174-.3.54-.352.926-.062.454-.129.97-.583 1.218-.511.282-1.236.074-2.214-.636l.313-.432c1.027.745 1.47.697 1.643.601.208-.11.254-.385.313-.823.063-.461.134-.984.576-1.291.617-.439 1.465-.076 2.206.24.434.186.977.415 1.124.284.195-.174-.074-.978-.236-1.458-.241-.723-.432-1.293-.074-1.559.433-.31 1.092.184 2.234 1.098.402.322.98.785 1.27.92-.061-.225-.258-.637-.41-.956-.49-1.03-1.047-2.197-.496-2.827.664-.758 2.883-.462 4.234.312.05.028.096.056.138.081.098.06.21.127.241.117.297-.088.275-1.59.263-2.395-.021-1.397-.039-2.501.565-2.688.51-.16 1.005.463 1.53 1.122.138.173.323.406.464.55-.021-.226-.093-.574-.146-.83-.18-.875-.357-1.7.102-1.973.465-.279 1.098.296 1.833.961.351.32.932.846 1.142.87.102-.245-.202-1.294-.386-1.93-.415-1.43-.644-2.317-.165-2.633.388-.252 1.089-.115 3.572 2.568l-.391.362c-2.347-2.535-2.849-2.492-2.898-2.48-.142.188.206 1.39.394 2.035.416 1.438.623 2.268.146 2.545-.448.26-1.032-.27-1.773-.942-.356-.323-1.019-.923-1.212-.894-.103.138.073.993.158 1.403.172.834.284 1.387-.087 1.56-.364.172-.702-.252-1.17-.84-.231-.29-.774-.972-.955-.946l-.008.005c-.213.145-.193 1.458-.182 2.167.022 1.452.04 2.704-.64 2.913-.258.079-.459-.042-.671-.17l-.129-.076c-1.301-.745-3.176-.873-3.568-.423-.32.366.22 1.498.577 2.247.401.842.666 1.399.317 1.67l-.022.016z"/></g></g><g><g><path fill="#f4f4f4" d="M151.018 300.559c-1.938-2.36-2.123-3.091-1.806-3.463.263-.307.707-.154 1.222.021.473.162 1.067.366 1.374.131.372-.274.301-1.098.245-1.76-.06-.711-.114-1.325.32-1.525.436-.202.865.241 1.362.754.409.423.918.95 1.25.863.339-.086.485-.86.613-1.542.182-.965.37-1.962 1.132-2.24.733-.265 1.51.343 2.196.879.441.346.992.776 1.22.651.244-.125.21-.811.192-1.36-.03-.842-.058-1.711.544-2.046.444-.248.908-.015 1.317.19.343.173.668.336.923.218.445-.209.518-1.174.574-1.952.062-.867.116-1.615.64-1.77.515-.152 1.01.437 1.487 1.006.168.2.406.483.55.593.027-.214-.036-.695-.076-1-.11-.839-.203-1.563.232-1.788.427-.22 1.03.2 2.079 1.45l-.408.343c-.992-1.181-1.343-1.303-1.424-1.314-.093.165 0 .86.049 1.239.105.8.187 1.433-.22 1.61-.386.167-.74-.255-1.19-.79-.242-.29-.748-.891-.929-.838-.166.053-.225.83-.259 1.297-.069.966-.145 2.059-.882 2.398-.488.225-.965-.014-1.386-.225-.386-.194-.633-.305-.818-.202-.318.177-.293.913-.27 1.562.026.804.051 1.564-.47 1.847-.536.293-1.152-.19-1.804-.7-.576-.45-1.23-.962-1.686-.796-.476.171-.642 1.057-.79 1.837-.173.92-.336 1.787-1.002 1.96-.633.163-1.236-.46-1.767-1.01-.235-.242-.628-.648-.762-.639-.082.09-.035.657-.006.996.071.834.151 1.78-.459 2.232-.537.39-1.273.148-1.864-.055-.21-.072-.52-.177-.638-.168-.006.121.101.69 1.807 2.768z"/></g></g><g><g><path fill="#f4f4f4" d="M164.516 298.57c-.587.401-1.424-.094-2.31-.618-.834-.493-1.779-1.051-2.339-.725-.305.18-.386.563-.477 1.007-.112.55-.24 1.171-.866 1.524-.709.396-1.596.16-2.243-.013-.177-.047-.403-.108-.544-.125v.002c.042.08.1.192.15.334.322.914.062 2.337-.922 3.041-.676.49-1.478.46-1.89.4l.079-.528c.332.05.974.077 1.5-.305.759-.543.99-1.695.73-2.431-.038-.107-.082-.192-.12-.268-.078-.151-.175-.34-.06-.547.202-.358.67-.233 1.215-.088.59.158 1.325.353 1.846.063.41-.228.5-.664.603-1.166.102-.497.217-1.06.73-1.36.83-.484 1.919.159 2.879.727.67.396 1.432.846 1.74.636.33-.228.182-1.205.062-1.99-.163-1.068-.314-2.08.307-2.457.483-.293 1.105.026 1.654.308.37.19.824.427.989.306.172-.132.056-.704-.028-1.122-.124-.608-.251-1.238.147-1.54.516-.407 1.397.17 2.327.77.399.257.988.636 1.21.663.006-.228-.296-.878-.482-1.277-.413-.885-.711-1.525-.355-1.838.316-.273.871-.154 2.686 1.296l-.333.416c-1.34-1.07-1.821-1.26-1.978-1.288.017.233.292.823.462 1.19.415.887.742 1.59.363 1.919-.375.329-.999-.077-1.862-.634-.518-.334-1.48-.954-1.711-.796l-.005.003c-.132.1-.02.648.053 1.01.13.648.267 1.317-.17 1.651-.425.323-1 .03-1.557-.255-.424-.218-.905-.465-1.134-.327-.332.196-.173 1.153-.056 1.922.164 1.076.319 2.092-.287 2.509z"/></g></g></g></g></g></svg>